<?xml version="1.0" encoding="iso-8859-1"?>
<!-- Generator: Adobe Illustrator 19.0.0, SVG Export Plug-In . SVG Version: 6.00 Build 0)  -->
<svg version="1.1" id="Capa_1" xmlns="http://www.w3.org/2000/svg" xmlns:xlink="http://www.w3.org/1999/xlink" x="0px" y="0px"
	 viewBox="0 0 512.001 512.001" style="enable-background:new 0 0 512.001 512.001;" xml:space="preserve">
<path style="fill:#6EDCF9;" d="M205.278,374.693h100.011c57.983-20.573,99.509-75.901,99.509-140.936
	c0-82.575-66.939-149.515-149.513-149.515c-82.576,0-149.515,66.94-149.515,149.515C105.769,298.792,147.296,354.12,205.278,374.693
	z"/>
<g>
	<path style="fill:#49B5CE;" d="M126.189,233.757c0-79.143,61.493-143.912,139.306-149.161
		c-86.978-5.86-159.726,63.056-159.726,149.161c0,65.035,41.527,120.363,99.509,140.936h20.42
		C167.716,354.12,126.189,298.792,126.189,233.757z"/>
	<path style="fill:#49B5CE;" d="M482.1,241.414h-37.707c-4.229,0-7.658-3.427-7.658-7.658c0-4.23,3.428-7.658,7.658-7.658H482.1
		c4.229,0,7.658,3.428,7.658,7.658S486.329,241.414,482.1,241.414z"/>
	<path style="fill:#49B5CE;" d="M67.606,241.414H29.901c-4.229,0-7.658-3.427-7.658-7.658c0-4.23,3.429-7.658,7.658-7.658h37.706
		c4.229,0,7.658,3.428,7.658,7.658S71.835,241.414,67.606,241.414z"/>
	<path style="fill:#49B5CE;" d="M419.161,147.218c-7.782,0-10.614-10.375-3.836-14.29l32.655-18.853
		c3.662-2.113,8.346-0.861,10.46,2.803c2.115,3.662,0.86,8.346-2.803,10.46l-32.655,18.853
		C421.777,146.887,420.461,147.218,419.161,147.218z"/>
	<path style="fill:#49B5CE;" d="M346.369,77.235c-3.662-2.114-4.917-6.798-2.803-10.46l18.853-32.655
		c2.115-3.662,6.798-4.916,10.46-2.803c3.662,2.114,4.917,6.798,2.803,10.46l-18.853,32.655
		C354.714,78.096,350.029,79.348,346.369,77.235z"/>
	<path style="fill:#49B5CE;" d="M256,53.021c-4.23,0-7.658-3.427-7.658-7.658V7.658C248.342,3.427,251.77,0,256,0
		c4.229,0,7.658,3.427,7.658,7.658v37.706C263.658,49.592,260.229,53.021,256,53.021z"/>
	<path style="fill:#49B5CE;" d="M155.172,74.432l-18.853-32.655c-2.114-3.662-0.86-8.346,2.803-10.46
		c3.662-2.113,8.346-0.86,10.46,2.803l18.853,32.655c2.114,3.662,0.86,8.346-2.803,10.46S157.287,78.095,155.172,74.432z"/>
	<path style="fill:#49B5CE;" d="M92.84,147.218c-1.3,0-2.616-0.331-3.823-1.027l-32.654-18.855
		c-3.662-2.114-4.917-6.798-2.803-10.46c2.114-3.663,6.798-4.916,10.461-2.803l32.654,18.855
		C103.447,136.839,100.626,147.218,92.84,147.218z"/>
</g>
<path style="fill:#C16B3D;" d="M405.491,372.651c-35.123,0-268.721,0-300.934,0c-13.476,0-24.401,10.924-24.401,24.401v30.37
	c12.704,0,108.271,0,120.523,0h109.209c12.138,0,107.299,0,120.004,0v-30.37C429.893,383.574,418.966,372.651,405.491,372.651z"/>
<path style="fill:#93603E;" d="M124.977,372.651c-24.524,0,3.943,0-20.42,0c-13.476,0-24.401,10.924-24.401,24.401v30.37h20.42
	v-30.37C100.576,383.574,111.501,372.651,124.977,372.651z"/>
<path style="fill:#E5E5E5;" d="M445.033,426.401H309.888H200.679H65.018c-0.645,0-1.282,0.033-1.911,0.097
	c-9.426,0.957-16.78,8.915-16.78,18.592v48.221c0,9.677,7.354,17.636,16.78,18.592c0.629,0.064,1.266,0.097,1.911,0.097
	c5.127,0,374.888,0,380.015,0c0.645,0,1.282-0.033,1.91-0.097c9.424-0.956,16.78-8.915,16.78-18.592v-48.221
	C463.724,434.769,455.355,426.401,445.033,426.401z"/>
<path style="fill:#D1CFCF;" d="M66.746,493.311V445.09c0-10.32,8.365-18.689,18.691-18.689h-20.42c-0.645,0-1.282,0.033-1.911,0.097
	c-9.426,0.957-16.78,8.915-16.78,18.592v48.221c0,9.677,7.354,17.636,16.78,18.592c0.629,0.064,1.266,0.097,1.911,0.097h20.42
	c-0.645,0-1.282-0.033-1.911-0.097C74.101,510.947,66.746,502.988,66.746,493.311z"/>
<path style="fill:#D63322;" d="M145.908,372.651l76.565,76.563c18.122,18.123,47.499,18.123,65.623,0l76.564-76.563H145.908z"/>
<path style="fill:#C12D21;" d="M247.657,449.215l-76.565-76.563h-25.185l76.565,76.563c12.297,12.298,29.774,16.239,45.403,11.847
	C260.473,458.981,253.482,455.039,247.657,449.215z"/>
<g>
</g>
<g>
</g>
<g>
</g>
<g>
</g>
<g>
</g>
<g>
</g>
<g>
</g>
<g>
</g>
<g>
</g>
<g>
</g>
<g>
</g>
<g>
</g>
<g>
</g>
<g>
</g>
<g>
</g>
</svg>
