<svg height="464pt" viewBox="0 0 464 464" width="464pt" xmlns="http://www.w3.org/2000/svg"><path d="m247.984375 259.707031c-15.304687 8.835938-34.875 3.59375-43.710937-11.714843l-16-27.710938 55.425781-32 16 27.710938c8.835937 15.308593 3.589843 34.878906-11.714844 43.714843zm0 0" fill="#3d4d63"/><path d="m184 256h96v32h-96zm0 0" fill="#348fd9"/><path d="m248 256h32v32h-32zm0 0" fill="#3086cd"/><path d="m216 288h32v176h-32zm0 0" fill="#4db7e5"/><path d="m216 288h-32l-64 176h32zm0 0" fill="#4db7e5"/><path d="m248 288h32l64 176h-32zm0 0" fill="#4db7e5"/><path d="m344.535156 181.472656-66.886718-109.511718 119.464843-71.960938 66.886719 109.511719zm0 0" fill="#348fd9"/><path d="m186.351562 251.785156-44.589843-73.007812 147.03125-88.5625 44.589843 73zm0 0" fill="#4db7e5"/><path d="m186.542969 252.097656-13.894531-22.394531 146.847656-88.878906 13.886718 22.390625zm0 0" fill="#48add9"/><path d="m368.261719 45.714844 13.875-8.679688 8.488281 13.5625-13.878906 8.679688zm0 0" fill="#62a9e6"/><path d="m317.789062 75.878906 40.933594-24.324218 8.175782 13.753906-40.9375 24.320312zm0 0" fill="#62a9e6"/><path d="m259.875 135.652344 14.0625-8.46875 8.25 13.703125-14.066406 8.464843zm0 0" fill="#79c6e8"/><path d="m181.71875 182.722656 62.390625-37.5625 8.25 13.699219-62.390625 37.5625zm0 0" fill="#79c6e8"/><path d="m175.207031 233.535156-22.296875-36.503906-82.710937 49.816406 22.296875 36.503906zm0 0" fill="#348fd9"/><path d="m175.207031 233.535156-12.015625-19.550781-82.632812 49.9375 12.007812 19.550781zm0 0" fill="#3086cd"/><path d="m70.199219 246.847656-27.566407 16.609375 5.597657 9.128907c9.304687 15.136718 29.074219 19.945312 44.289062 10.765624zm0 0" fill="#3d4d63"/><path d="m42.632812 263.457031 27.566407-16.609375-16.71875-27.375-27.570313 16.605469zm0 0" fill="#348fd9"/><g fill="#3d4d63"><path d="m25.910156 236.078125-25.910156-21.847656 45.953125-27.671875 7.527344 32.914062zm0 0"/><path d="m160 255.671875c0-11.824219-9.648438-21.40625-21.550781-21.40625-11.902344 0-21.554688 9.582031-21.554688 21.40625s9.652344 21.40625 21.554688 21.40625c11.902343 0 21.550781-9.582031 21.550781-21.40625zm0 0"/><path d="m216 432h32v32h-32zm0 0"/><path d="m120 464h32l11.640625-32h-32zm0 0"/><path d="m300.359375 432 11.640625 32h32l-11.640625-32zm0 0"/></g><path d="m326.800781 152.441406 17.734375 29.03125 119.464844-71.960937-17.984375-29.449219zm0 0" fill="#3086cd"/></svg>