<?xml version="1.0" encoding="iso-8859-1"?>
<!-- Generator: Adobe Illustrator 21.0.0, SVG Export Plug-In . SVG Version: 6.00 Build 0)  -->
<svg xmlns="http://www.w3.org/2000/svg" xmlns:xlink="http://www.w3.org/1999/xlink" version="1.1" id="Capa_1" x="0px" y="0px" viewBox="0 0 512 512" style="enable-background:new 0 0 512 512;" xml:space="preserve" width="512" height="512">
<g>
	<path style="fill:#FECA57;" d="M307.077,143.211h-71.691c-1.175,0-2.128-0.953-2.128-2.128v-9.506c0-2.076-1.785-3.426-3.302-2.498   l-36.398,22.273c-1.867,1.142-1.867,3.854,0,4.996l36.398,22.273c1.517,0.928,3.302-0.422,3.302-2.498v-9.506   c0-1.175,0.953-2.128,2.128-2.128h72.044c5.942,0,10.747-4.872,10.637-10.839C317.96,147.794,312.935,143.211,307.077,143.211z"/>
	<path style="fill:#FF6B6B;" d="M316.808,90.371l-36.398-22.273c-1.517-0.928-3.302,0.422-3.302,2.498v9.506   c0,1.176-0.953,2.129-2.129,2.129h-71.69c-5.858,0-10.883,4.582-10.991,10.439c-0.11,5.967,4.695,10.839,10.637,10.839h72.044   c1.176,0,2.128,0.953,2.128,2.129v9.505c0,2.076,1.785,3.426,3.302,2.498l36.398-22.273   C318.675,94.224,318.675,91.513,316.808,90.371z"/>
	<g>
		<path style="fill:#F4B537;" d="M208.609,156.348c-1.867-1.142-1.867-3.854,0-4.996l24.649-15.084v-4.691    c0-2.076-1.785-3.426-3.302-2.498l-36.398,22.273c-1.867,1.142-1.867,3.854,0,4.996l36.398,22.273    c1.517,0.928,3.302-0.422,3.302-2.498v-4.691L208.609,156.348z"/>
		<g>
			<path style="fill:#EE5253;" d="M292.159,80.101v-4.814l-11.748-7.189c-1.517-0.928-3.302,0.422-3.302,2.498v9.506     c0,1.176-0.953,2.129-2.129,2.129h15.051C291.206,82.23,292.159,81.277,292.159,80.101z"/>
			<path style="fill:#EE5253;" d="M292.159,105.637c0-1.176-0.953-2.129-2.128-2.129H274.98c1.176,0,2.128,0.953,2.128,2.129v9.505     c0,2.076,1.785,3.426,3.302,2.498l11.748-7.189V105.637z"/>
			<path style="fill:#EE5253;" d="M207.349,92.669c0.108-5.857,5.133-10.439,10.991-10.439h-15.051     c-5.858,0-10.883,4.582-10.991,10.439c-0.11,5.967,4.695,10.839,10.637,10.839h15.051     C212.044,103.508,207.24,98.636,207.349,92.669z"/>
		</g>
	</g>
	<path style="fill:#3E4B5A;" d="M394.565,142.839c-33.416,0-60.503,27.087-60.503,60.503v25.041   c4.044-3.748,9.796-5.785,15.412-5.035v-3.015c0-2.397,2.046-4.29,4.419-4.11c23.392,1.68,47.199-5.753,65.199-17.511   c1.68-1.098,3.905-0.825,5.271,0.643c15.389,16.541,15.296,15.901,15.296,18.061v5.92c6.155-0.923,11.615,0.98,15.409,4.507   v-24.499C455.068,169.927,427.981,142.839,394.565,142.839z"/>
	<g>
		<path style="fill:#303F49;" d="M364.935,203.342c0-28.08,19.13-51.684,45.066-58.509c-4.929-1.297-10.1-1.994-15.436-1.994    c-33.416,0-60.503,27.087-60.503,60.503v25.041c4.044-3.748,9.796-5.785,15.412-5.035v-3.015c0-2.397,2.047-4.29,4.419-4.11    c3.679,0.264,7.366,0.279,11.042,0.111V203.342z"/>
	</g>
	<path style="fill:#FFBEAB;" d="M387.655,309.879c2.44-0.946,4.049-3.294,4.049-5.912v-8.561c-8.33-0.561-15.712-3.11-21.885-7.054   v18.897c0,1.69-0.678,3.262-1.811,4.423L387.655,309.879z"/>
	<path style="fill:#FFBEAB;" d="M361.622,324.258c19.285,20.491,46.547,20.49,65.831,0l6.847-7.276l-10.071-3.9   c-2.319-0.898-3.847-3.129-3.847-5.616v-19.783c-7.162,4.94-15.833,7.842-25.173,7.842c-9.775,0-18.365-2.684-25.39-7.173v18.897   c0,2.617-1.608,4.966-4.049,5.912l-10.691,4.145L361.622,324.258z"/>
	<path style="fill:#F7AF9F;" d="M391.704,295.406c-8.33-0.561-15.712-3.11-21.885-7.054v18.897c0,2.617-1.608,4.966-4.049,5.912   l-10.691,4.145l6.543,6.952c8.859,9.413,19.402,14.489,30.082,15.254V295.406z"/>
	<path style="fill:#FFBEAB;" d="M438.758,220.634v33.143c0,0.359-0.019,0.714-0.027,1.072c11.729,1.776,21.815-6.699,21.815-17.106   C460.546,227.314,450.452,218.881,438.758,220.634z"/>
	<path style="fill:#FFBEAB;" d="M350.374,253.777v-33.131c-10.211-1.364-21.788,6.473-21.788,17.096   c0,10.394,10.066,18.884,21.814,17.106C350.392,254.491,350.374,254.135,350.374,253.777z"/>
	<path style="fill:#F7AF9F;" d="M452.801,223.73c-3.842-2.596-8.775-3.886-14.043-3.096v33.143c0,0.359-0.019,0.714-0.027,1.072   c5.284,0.8,10.225-0.493,14.07-3.094V223.73z"/>
	<path style="fill:#F7AF9F;" d="M350.374,251.758c-4.692-3.173-7.746-8.3-7.746-14.015c0-5.595,3.214-10.415,7.746-13.527v-3.569   c-10.211-1.364-21.788,6.473-21.788,17.096c0,10.394,10.066,18.884,21.814,17.106c-0.009-0.357-0.026-0.714-0.026-1.072V251.758z"/>
	<path style="fill:#FFCDBF;" d="M424.363,196.653c-1.366-1.468-3.591-1.741-5.271-0.643c-18,11.759-41.806,19.192-65.199,17.511   c-2.373-0.18-4.419,1.713-4.419,4.11v36.145c0,23.231,18.202,44.448,45.736,44.448c24.509,0,44.449-19.94,44.449-44.448v-39.063   C439.659,212.554,439.751,213.194,424.363,196.653z"/>
	<path style="fill:#FFBEAB;" d="M380.347,253.777v-42.02c-8.652,1.723-17.582,2.402-26.454,1.765   c-2.373-0.18-4.419,1.713-4.419,4.11v36.145c0,23.231,18.202,44.449,45.736,44.449c5.186,0,10.162-0.901,14.793-2.541   C392.746,289.575,380.347,273.1,380.347,253.777z"/>
	<path style="fill:#FF6B6B;" d="M487.263,337.493l-54.292-21.026l-6.996,7.434c-18.403,19.553-44.417,19.554-62.82,0l-6.707-7.126   l-53.44,20.718c0,0-24.736,10.17-24.736,38.369v62.584c0,3.178,2.577,5.754,5.754,5.754h222.27c3.15,0,5.704-2.554,5.704-5.704   v-62.634C512,347.663,487.263,337.493,487.263,337.493z"/>
	<g>
		<path style="fill:#EE5253;" d="M309.145,362.484c0-18.252,10.359-28.943,17.67-34.22l-23.806,9.229    c0,0-24.736,10.17-24.736,38.369v62.584c0,3.178,2.577,5.755,5.754,5.755h25.119V362.484z"/>
	</g>
	<g>
		<path style="fill:#EE5253;" d="M328.091,444.201v-58.646c0-4.263-3.456-7.718-7.718-7.718c-4.263,0-7.718,3.456-7.718,7.718    v58.646H328.091z"/>
		<path style="fill:#EE5253;" d="M477.618,444.201v-58.646c0-4.263-3.456-7.718-7.718-7.718c-4.263,0-7.718,3.456-7.718,7.718    v58.646H477.618z"/>
	</g>
	<path style="fill:#3E4B5A;" d="M116.293,142.839c-33.416,0-60.503,27.087-60.503,60.503v25.041   c4.044-3.748,9.796-5.785,15.412-5.035v-3.015c0-2.397,2.046-4.29,4.419-4.11c23.392,1.68,47.199-5.753,65.199-17.511   c1.68-1.098,3.905-0.825,5.271,0.643c15.389,16.541,15.296,15.901,15.296,18.061v5.92c6.155-0.923,11.615,0.98,15.409,4.507   v-24.499C176.796,169.927,149.709,142.839,116.293,142.839z"/>
	<g>
		<path style="fill:#303F49;" d="M86.663,203.342c0-28.08,19.13-51.684,45.066-58.509c-4.929-1.297-10.1-1.994-15.436-1.994    c-33.416,0-60.503,27.087-60.503,60.503v25.041c4.044-3.748,9.796-5.785,15.412-5.035v-3.015c0-2.397,2.047-4.29,4.419-4.11    c3.679,0.264,7.366,0.279,11.042,0.111V203.342z"/>
	</g>
	<path style="fill:#FFBEAB;" d="M109.384,309.879c2.44-0.946,4.049-3.294,4.049-5.912v-8.561c-8.33-0.561-15.712-3.11-21.885-7.054   v18.897c0,1.69-0.678,3.262-1.811,4.423L109.384,309.879z"/>
	<path style="fill:#FFBEAB;" d="M83.35,324.258c19.285,20.491,46.547,20.49,65.831,0l6.847-7.276l-10.071-3.9   c-2.319-0.898-3.847-3.129-3.847-5.616v-19.783c-7.162,4.94-15.834,7.842-25.173,7.842c-9.775,0-18.365-2.684-25.39-7.173v18.897   c0,2.617-1.608,4.966-4.049,5.912l-10.691,4.145L83.35,324.258z"/>
	<path style="fill:#F7AF9F;" d="M113.432,295.406c-8.33-0.561-15.712-3.11-21.885-7.054v18.897c0,2.617-1.608,4.966-4.049,5.912   l-10.691,4.145l6.543,6.952c8.859,9.413,19.402,14.489,30.082,15.254V295.406z"/>
	<path style="fill:#FFBEAB;" d="M160.487,220.634v33.143c0,0.359-0.019,0.714-0.027,1.072c11.729,1.776,21.815-6.699,21.815-17.106   C182.274,227.314,172.18,218.881,160.487,220.634z"/>
	<path style="fill:#FFBEAB;" d="M72.103,253.777v-33.131c-10.211-1.364-21.788,6.473-21.788,17.096   c0,10.394,10.066,18.884,21.814,17.106C72.12,254.491,72.103,254.135,72.103,253.777z"/>
	<path style="fill:#F7AF9F;" d="M174.529,223.73c-3.842-2.596-8.775-3.886-14.043-3.096v33.143c0,0.359-0.019,0.714-0.027,1.072   c5.284,0.8,10.225-0.493,14.07-3.094V223.73z"/>
	<path style="fill:#F7AF9F;" d="M72.103,251.758c-4.692-3.173-7.746-8.3-7.746-14.015c0-5.595,3.214-10.415,7.746-13.527v-3.569   c-10.211-1.364-21.788,6.473-21.788,17.096c0,10.394,10.066,18.884,21.814,17.106c-0.009-0.357-0.026-0.714-0.026-1.072V251.758z"/>
	<path style="fill:#FFCDBF;" d="M146.091,196.653c-1.366-1.468-3.591-1.741-5.271-0.643c-18,11.759-41.806,19.192-65.199,17.511   c-2.373-0.18-4.419,1.713-4.419,4.11v36.145c0,23.231,18.202,44.448,45.736,44.448c24.509,0,44.449-19.94,44.449-44.448v-39.063   C161.387,212.554,161.48,213.194,146.091,196.653z"/>
	<path style="fill:#FFBEAB;" d="M102.075,253.777v-42.02c-8.652,1.723-17.582,2.402-26.454,1.765   c-2.373-0.18-4.419,1.713-4.419,4.11v36.145c0,23.231,18.202,44.449,45.736,44.449c5.186,0,10.162-0.901,14.793-2.541   C114.474,289.575,102.075,273.1,102.075,253.777z"/>
	<path style="fill:#FECA57;" d="M208.992,337.493L154.7,316.467l-6.996,7.434c-18.403,19.553-44.417,19.554-62.82,0l-6.707-7.126   l-53.44,20.718c0,0-24.736,10.17-24.736,38.369v62.584c0,3.178,2.576,5.754,5.754,5.754h222.27c3.15,0,5.704-2.554,5.704-5.704   v-62.634C233.728,347.663,208.992,337.493,208.992,337.493z"/>
	<g>
		<path style="fill:#F4B537;" d="M30.873,362.484c0-18.252,10.359-28.943,17.67-34.22l-23.806,9.229c0,0-24.736,10.17-24.736,38.369    v62.584c0,3.178,2.577,5.755,5.754,5.755h25.119V362.484z"/>
	</g>
	<g>
		<path style="fill:#F4B537;" d="M49.819,444.201v-58.646c0-4.263-3.456-7.718-7.718-7.718s-7.718,3.456-7.718,7.718v58.646H49.819z    "/>
		<path style="fill:#F4B537;" d="M199.346,444.201v-58.646c0-4.263-3.456-7.718-7.718-7.718c-4.263,0-7.718,3.456-7.718,7.718    v58.646H199.346z"/>
	</g>
</g>















</svg>
