<?xml version="1.0" encoding="iso-8859-1"?>
<!-- Generator: Adobe Illustrator 19.0.0, SVG Export Plug-In . SVG Version: 6.00 Build 0)  -->
<svg version="1.1" id="Layer_1" xmlns="http://www.w3.org/2000/svg" xmlns:xlink="http://www.w3.org/1999/xlink" x="0px" y="0px"
	 viewBox="0 0 512 512" style="enable-background:new 0 0 512 512;" xml:space="preserve">
<circle style="fill:#D80027;" cx="256" cy="256" r="256"/>
<path style="fill:#A5001E;" d="M110.769,256c0-122.366,85.859-224.661,200.615-249.974C293.547,2.092,275.019,0,256,0
	C114.615,0,0,114.615,0,256s114.615,256,256,256c19.019,0,37.547-2.092,55.385-6.027C196.628,480.661,110.769,378.366,110.769,256z"
	/>
<path style="fill:#FF0C38;" d="M256,496.327c-64.193,0-124.545-24.998-169.936-70.39C40.672,380.546,15.673,320.194,15.673,256
	S40.672,131.455,86.064,86.063c45.39-45.391,105.743-70.39,169.936-70.39c64.194,0,124.545,24.998,169.937,70.39
	c45.39,45.392,70.39,105.744,70.39,169.937s-24.998,124.545-70.39,169.937C380.544,471.328,320.193,496.327,256,496.327z"/>
<path style="fill:#D80027;" d="M276.192,16.521c-6.677-0.552-13.406-0.847-20.182-0.847c-64.193,0-124.545,24.998-169.936,70.39
	C40.682,131.455,15.683,191.807,15.683,256s24.998,124.545,70.391,169.937c45.391,45.391,105.743,70.39,169.936,70.39
	c6.776,0,13.506-0.296,20.183-0.847C179.522,458.896,110.779,365.488,110.779,256C110.779,146.514,179.521,53.104,276.192,16.521z"
	/>
<g>
	<path style="fill:#A5001E;" d="M189.836,454.44c-2.059,0-4.075-0.836-5.538-2.288c-1.463-1.463-2.299-3.479-2.299-5.548
		c0-2.058,0.836-4.086,2.299-5.538c1.462-1.463,3.478-2.299,5.538-2.299c2.068,0,4.086,0.836,5.548,2.299
		c1.453,1.463,2.288,3.479,2.288,5.538c0,2.069-0.836,4.086-2.288,5.548C193.922,453.603,191.904,454.44,189.836,454.44z"/>
	<path style="fill:#A5001E;" d="M189.836,73.235c-2.059,0-4.075-0.836-5.538-2.288c-1.463-1.463-2.299-3.48-2.299-5.548
		c0-2.058,0.836-4.086,2.299-5.538c1.462-1.463,3.478-2.299,5.538-2.299c2.068,0,4.086,0.836,5.548,2.299
		c1.453,1.463,2.288,3.48,2.288,5.538c0,2.069-0.836,4.086-2.288,5.548C193.922,72.398,191.904,73.235,189.836,73.235z"/>
	<path style="fill:#A5001E;" d="M322.164,454.44c-2.059,0-4.075-0.836-5.538-2.288c-1.463-1.463-2.299-3.479-2.299-5.548
		c0-2.058,0.836-4.086,2.299-5.538c1.462-1.463,3.478-2.299,5.538-2.299c2.068,0,4.086,0.836,5.548,2.299
		c1.453,1.463,2.288,3.479,2.288,5.538c0,2.069-0.836,4.086-2.288,5.548C326.25,453.603,324.232,454.44,322.164,454.44z"/>
	<path style="fill:#A5001E;" d="M322.164,73.235c-2.059,0-4.075-0.836-5.538-2.288c-1.463-1.463-2.299-3.48-2.299-5.548
		c0-2.058,0.836-4.086,2.299-5.538c1.462-1.463,3.478-2.299,5.538-2.299c2.068,0,4.086,0.836,5.548,2.299
		c1.453,1.463,2.288,3.48,2.288,5.538c0,2.069-0.836,4.086-2.288,5.548C326.25,72.398,324.232,73.235,322.164,73.235z"/>
	<path style="fill:#A5001E;" d="M51.522,189.258c-2.059,0-4.075-0.836-5.538-2.288c-1.463-1.463-2.299-3.48-2.299-5.548
		c0-2.058,0.836-4.086,2.299-5.538c1.462-1.463,3.478-2.299,5.538-2.299c2.068,0,4.086,0.836,5.548,2.299
		c1.453,1.463,2.288,3.48,2.288,5.538c0,2.069-0.836,4.086-2.288,5.548C55.607,188.422,53.59,189.258,51.522,189.258z"/>
	<path style="fill:#A5001E;" d="M51.522,338.423c-2.059,0-4.075-0.836-5.538-2.288c-1.463-1.463-2.299-3.48-2.299-5.548
		c0-2.058,0.836-4.086,2.299-5.538c1.462-1.463,3.478-2.299,5.538-2.299c2.068,0,4.086,0.836,5.548,2.299
		c1.453,1.463,2.288,3.479,2.288,5.538c0,2.069-0.836,4.086-2.288,5.548C55.607,337.587,53.59,338.423,51.522,338.423z"/>
	<path style="fill:#A5001E;" d="M460.485,189.258c-2.06,0-4.075-0.836-5.538-2.288c-1.463-1.463-2.299-3.48-2.299-5.548
		c0-2.058,0.836-4.086,2.299-5.538c1.462-1.463,3.478-2.299,5.538-2.299c2.068,0,4.086,0.836,5.548,2.299
		c1.453,1.463,2.288,3.48,2.288,5.538c0,2.069-0.836,4.086-2.288,5.548C464.571,188.422,462.553,189.258,460.485,189.258z"/>
	<path style="fill:#A5001E;" d="M460.485,338.423c-2.06,0-4.075-0.836-5.538-2.288c-1.463-1.463-2.299-3.48-2.299-5.548
		c0-2.058,0.836-4.086,2.299-5.538c1.462-1.463,3.478-2.299,5.538-2.299c2.068,0,4.086,0.836,5.548,2.299
		c1.453,1.463,2.288,3.479,2.288,5.538c0,2.069-0.836,4.086-2.288,5.548C464.571,337.587,462.553,338.423,460.485,338.423z"/>
</g>
<path style="fill:#FF9478;" d="M320.114,159.996L270.419,25.717c-2.234-6.036-7.989-10.044-14.426-10.044
	s-12.192,4.007-14.426,10.044l-49.956,134.98c-1.747,4.72-1.074,9.997,1.801,14.128c2.876,4.13,7.591,6.593,12.624,6.593h99.911
	c0.005,0,0.008-0.001,0.016,0c8.495,0,15.382-6.887,15.382-15.382C321.346,163.891,320.907,161.851,320.114,159.996z"/>
<path style="fill:#FF7956;" d="M238.301,34.566c9.195-5.346,18.75-10.14,28.625-14.327c-2.83-2.857-6.728-4.566-10.923-4.566
	c-6.437,0-12.192,4.007-14.426,10.044L238.301,34.566z"/>
<path style="fill:#FF3501;" d="M259.355,40.981c-3.355-9.066-6.726,0-6.726,0l0,0l-46.174,124.763h99.074L259.355,40.981z"/>
<path style="fill:#AB2300;" d="M237.317,174.132l-14.699-5.441l22.662-61.231c2.131-5.73,6.182-9.146,10.84-9.146
	c0.002,0,0.004,0,0.007,0c3.282,0.002,7.781,1.591,10.577,9.147l21.611,58.391l-14.699,5.441l-17.624-47.62L237.317,174.132z"/>
<path style="fill:#FF9478;" d="M191.885,352.004l49.695,134.279c2.234,6.036,7.989,10.044,14.426,10.044
	c6.437,0,12.192-4.007,14.426-10.044l49.956-134.98c1.747-4.72,1.074-9.997-1.801-14.128c-2.876-4.13-7.591-6.593-12.624-6.593
	h-99.911c-0.005,0-0.008,0.001-0.016,0c-8.496,0-15.382,6.887-15.382,15.382C190.654,348.109,191.093,350.149,191.885,352.004z"/>
<path style="fill:#FF3501;" d="M252.645,471.019c3.355,9.066,6.726,0,6.726,0l0,0l46.174-124.763h-99.074L252.645,471.019z"/>
<path style="fill:#AB2300;" d="M255.88,413.686c-0.002,0-0.004,0-0.007,0c-3.282-0.002-7.781-1.591-10.577-9.147l-21.611-58.391
	l14.699-5.441l17.624,47.62l18.674-50.459l14.699,5.441l-22.662,61.231C264.589,410.271,260.538,413.686,255.88,413.686z"/>
<path style="fill:#FF7956;" d="M290.555,211.249L134.186,71.038c-9.413-8.441-24.021-7.644-32.462,1.769l-47.483,52.955
	c-8.441,9.413-7.644,24.021,1.769,32.462l43.641,39.131H74.317c-32.254-0.001-58.644,26.39-58.644,58.644l0,0
	c0,32.255,26.39,58.645,58.645,58.645h25.334l-43.641,39.131c-9.413,8.441-10.209,23.048-1.769,32.462l47.483,52.955
	c8.441,9.413,23.048,10.209,32.462,1.768l156.369-140.211c6.895-6.183,10.376-37.453,10.376-44.751
	C300.931,256,297.45,217.432,290.555,211.249z"/>
<g>
	<path style="fill:#FF5023;" d="M164.903,98.582l-30.717-27.544c-9.413-8.441-24.021-7.644-32.462,1.769l-47.483,52.955
		c-8.441,9.413-7.644,24.021,1.769,32.462l43.641,39.131H74.317c-32.254-0.001-58.644,26.39-58.644,58.644
		s26.39,58.645,58.645,58.645h25.334l-43.641,39.131c-9.413,8.441-10.209,23.048-1.769,32.462l47.483,52.955
		c8.441,9.413,23.048,10.209,32.462,1.768l30.717-27.543c-33.916-43.417-54.135-98.051-54.135-157.418
		C110.769,196.633,130.987,141.998,164.903,98.582z"/>
	<path style="fill:#FF5023;" d="M118.858,431.134c-1.236,0-3.589-0.313-5.465-2.404L65.91,375.775
		c-2.647-2.952-2.389-7.682,0.563-10.329l74.134-66.474h-66.29c-23.694,0-42.97-19.276-42.97-42.971s19.276-42.971,42.971-42.971
		h66.29l-74.136-66.474c-2.952-2.647-3.209-7.377-0.563-10.329l47.483-52.955c1.876-2.092,4.229-2.404,5.464-2.404
		c1.282,0,3.167,0.32,4.864,1.842l155.207,139.168c2.124,4.818,4.963,20.35,6.321,34.768c-0.166,7.689-3.119,27.574-6.024,33.213
		L123.723,429.292C122.025,430.815,120.141,431.134,118.858,431.134C118.859,431.134,118.859,431.134,118.858,431.134z"/>
</g>
<g>
	<path style="fill:#FF3501;" d="M66.473,365.446c-2.952,2.647-3.21,7.377-0.563,10.329l47.483,52.955
		c1.876,2.091,4.229,2.404,5.465,2.404l0,0c1.282,0,3.166-0.32,4.864-1.842l31.87-28.578
		c-16.872-24.566-29.566-52.221-37.061-81.948L66.473,365.446z"/>
	<path style="fill:#FF3501;" d="M66.473,146.554l52.059,46.68c7.495-29.726,20.19-57.382,37.061-81.948l-31.871-28.577
		c-1.697-1.522-3.582-1.842-4.864-1.842c-1.236,0-3.589,0.312-5.464,2.404l-47.483,52.955
		C63.264,139.177,63.521,143.908,66.473,146.554z"/>
	<path style="fill:#FF3501;" d="M74.317,298.971h40.055c-2.363-13.972-3.604-28.326-3.604-42.971
		c0-14.645,1.241-28.999,3.604-42.971H74.317c-23.694,0-42.97,19.276-42.97,42.971S50.623,298.971,74.317,298.971z"/>
</g>
<path style="fill:#FF7956;" d="M437.682,197.355h-25.334l43.641-39.131c9.413-8.441,10.209-23.048,1.769-32.462l-47.483-52.955
	c-8.441-9.413-23.048-10.209-32.462-1.769L221.445,211.249c-6.895,6.183-6.895,83.319,0,89.502l156.369,140.211
	c9.413,8.441,24.021,7.645,32.462-1.768l47.483-52.955c8.441-9.413,7.645-24.021-1.769-32.462l-43.641-39.131h25.334
	c32.254,0,58.644-26.39,58.644-58.645l0,0C496.327,223.746,469.937,197.355,437.682,197.355z"/>
<path style="fill:#FF5023;" d="M393.142,431.134c-1.282,0-3.167-0.32-4.864-1.842L234.239,291.171
	c-3.039-12.576-3.039-57.766,0-70.343L388.277,82.708c1.698-1.522,3.583-1.842,4.865-1.842c1.236,0,3.589,0.312,5.464,2.404
	l47.483,52.955c2.647,2.952,2.389,7.682-0.563,10.329l-74.134,66.474h66.29c23.695,0,42.971,19.276,42.971,42.971
	s-19.276,42.971-42.971,42.971h-66.29l74.136,66.474c2.952,2.647,3.209,7.377,0.563,10.329l-47.483,52.955
	C396.73,430.822,394.377,431.134,393.142,431.134z"/>
<circle style="fill:#CD2A00;" cx="437.687" cy="256" r="16.41"/>
<circle style="fill:#AB2300;" cx="74.313" cy="256" r="16.41"/>
<circle style="fill:#FF3501;" cx="256" cy="256" r="98.21"/>
<path style="fill:#CD2A00;" d="M190.529,256.004c0-48.662,35.394-89.05,81.841-96.845c-5.325-0.893-10.792-1.366-16.37-1.366
	c-54.241,0-98.211,43.97-98.211,98.211s43.97,98.211,98.211,98.211c5.579,0,11.046-0.472,16.37-1.366
	C225.923,345.055,190.529,304.666,190.529,256.004z"/>
<path style="fill:#FF9478;" d="M256,338.541c-45.512,0-82.538-37.027-82.538-82.538s37.026-82.536,82.538-82.536
	s82.538,37.026,82.538,82.536S301.512,338.541,256,338.541z"/>
<path style="fill:#FF7956;" d="M229.084,177.996c-32.331,11.188-55.622,41.918-55.622,78.007s23.291,66.819,55.622,78.008
	c-23.436-17.947-38.556-46.207-38.556-78.007S205.648,195.943,229.084,177.996z"/>
<g>
	<path style="fill:#3E3D42;" d="M223.26,246.189c-2.059,0-4.075-0.836-5.538-2.288c-1.463-1.463-2.299-3.48-2.299-5.548
		c0-2.058,0.836-4.086,2.299-5.538c1.462-1.463,3.478-2.299,5.538-2.299c2.068,0,4.086,0.836,5.548,2.299
		c1.453,1.463,2.288,3.48,2.288,5.538c0,2.069-0.836,4.086-2.288,5.548C227.346,245.352,225.328,246.189,223.26,246.189z"/>
	<path style="fill:#3E3D42;" d="M288.74,246.189c-2.06,0-4.075-0.836-5.538-2.288c-1.463-1.463-2.299-3.48-2.299-5.548
		c0-2.058,0.836-4.086,2.299-5.538c1.462-1.463,3.478-2.299,5.538-2.299c2.068,0,4.086,0.836,5.548,2.299
		c1.453,1.463,2.288,3.48,2.288,5.538c0,2.069-0.836,4.086-2.288,5.548C292.826,245.352,290.809,246.189,288.74,246.189z"/>
</g>
<path style="fill:#FFFFFF;" d="M286.65,304.43h-61.301c-10.919,0-19.853-8.934-19.853-19.853l0,0
	c0-10.919,8.934-19.853,19.853-19.853h61.301c10.919,0,19.853,8.934,19.853,19.853l0,0
	C306.503,295.496,297.569,304.43,286.65,304.43z"/>
<path style="fill:#D1E7F8;" d="M286.65,264.724h-61.301c-10.919,0-19.853,8.934-19.853,19.853h101.007
	C306.503,273.658,297.569,264.724,286.65,264.724z"/>
<path style="fill:#FF0C38;" d="M233.012,284.577v28.56c0,12.643,10.344,22.988,22.988,22.988l0,0
	c12.643,0,22.988-10.344,22.988-22.988v-28.56H233.012z"/>
<path style="fill:#D80027;" d="M253.195,313.137v-28.56h-20.18v28.56c0,12.643,10.344,22.988,22.988,22.988l0,0
	c3.614,0,7.039-0.848,10.09-2.351C258.472,330.02,253.195,322.166,253.195,313.137z"/>
<g>
</g>
<g>
</g>
<g>
</g>
<g>
</g>
<g>
</g>
<g>
</g>
<g>
</g>
<g>
</g>
<g>
</g>
<g>
</g>
<g>
</g>
<g>
</g>
<g>
</g>
<g>
</g>
<g>
</g>
</svg>
