<svg id="Capa_1" enable-background="new 0 0 512 512" height="512" viewBox="0 0 512 512" width="512" xmlns="http://www.w3.org/2000/svg"><g><g><path d="m510.118 410.299-80.532-327.878h-224.802c-5.464 0-10.705 2.171-14.569 6.035l-20.604 20.604c-8.046 8.046-21.092 8.046-29.138 0l-20.603-20.605c-3.864-3.864-9.105-6.035-14.569-6.035h-22.886l-80.533 327.879c-1.25 5.089-1.882 10.309-1.882 15.549v3.737c0 45.517 36.898 82.415 82.415 82.415h210.765c5.464 0 10.705-2.171 14.569-6.035l20.604-20.604c8.046-8.046 21.092-8.046 29.138 0l20.604 20.604c3.864 3.864 9.105 6.035 14.569 6.035h36.923c45.515 0 82.413-36.898 82.413-82.414v-3.737c0-5.241-.632-10.461-1.882-15.55z" fill="#ffe1bd"/></g><g><path d="m224.408 223.549v-141.128h-19.624c-5.465 0-10.705 2.171-14.569 6.035l-20.604 20.604c-8.046 8.046-21.092 8.046-29.138 0l-20.603-20.604c-3.864-3.864-9.105-6.035-14.569-6.035h-22.886l-80.533 327.878c-1.25 5.089-1.882 10.309-1.882 15.549v3.737c0 45.517 36.898 82.415 82.415 82.415h210.765c5.464 0 10.705-2.171 14.569-6.035l20.604-20.604c8.046-8.046 21.092-8.046 29.138 0l20.604 20.604c3.864 3.864 9.105 6.035 14.569 6.035h36.922c45.516 0 82.414-36.898 82.414-82.414h-81.556c-113.791 0-206.036-92.246-206.036-206.037z" fill="#ffd3a3"/></g><g><path d="m0 78.954v350.632c0-39.827 28.25-73.055 65.805-80.74 9.608-1.966 16.609-10.25 16.609-20.057v-308.129c0-14.133-13.942-24.175-27.279-19.498-32.11 11.259-55.135 41.836-55.135 77.792z" fill="#fff1ce"/></g><g><path d="m456.865 1.161c-13.337-4.677-27.279 5.365-27.279 19.498v169.639c0 5.464 2.171 10.705 6.035 14.569l20.604 20.604c8.046 8.046 8.046 21.092 0 29.138l-20.604 20.604c-3.864 3.864-6.035 9.105-6.035 14.569v39.007c0 9.807 7.001 18.091 16.609 20.057 37.555 7.684 65.805 40.913 65.805 80.74v-350.632c0-35.956-23.025-66.533-55.135-77.793z" fill="#fff1ce"/></g><g><circle cx="167.404" cy="180.844" fill="#b77158" r="30.905"/></g><g><path d="m365.505 347.554 15.3-15.3c2.929-2.93 2.929-7.678 0-10.607-2.93-2.928-7.678-2.928-10.607 0l-15.3 15.3-15.3-15.3c-2.93-2.928-7.678-2.928-10.607 0-2.929 2.93-2.929 7.678 0 10.607l15.3 15.3-15.3 15.3c-2.929 2.93-2.929 7.678 0 10.607 1.465 1.464 3.385 2.196 5.304 2.196s3.839-.732 5.304-2.196l15.3-15.3 15.3 15.3c1.465 1.464 3.385 2.196 5.304 2.196s3.839-.732 5.304-2.196c2.929-2.93 2.929-7.678 0-10.607z" fill="#ff7591"/><g><g><path d="m247.018 188.344h-7.5c-4.143 0-7.5-3.357-7.5-7.5s3.357-7.5 7.5-7.5h7.5c4.143 0 7.5 3.357 7.5 7.5s-3.358 7.5-7.5 7.5z" fill="#c8866a"/></g><g><path d="m207.747 450.18c-3.272 0-6.28-2.159-7.214-5.464-1.126-3.986 1.193-8.13 5.18-9.256 4.113-1.161 8.001-2.967 11.557-5.367 3.432-2.319 8.095-1.413 10.412 2.02 2.318 3.433 1.414 8.095-2.02 10.412-4.88 3.295-10.221 5.775-15.873 7.371-.682.192-1.367.284-2.042.284zm-29.835-1.228c-.873 0-1.761-.153-2.627-.478-5.494-2.056-10.609-4.965-15.205-8.647-3.231-2.59-3.753-7.311-1.162-10.543 2.59-3.232 7.311-3.753 10.543-1.162 3.352 2.686 7.079 4.807 11.08 6.304 3.88 1.451 5.848 5.773 4.396 9.652-1.127 3.014-3.987 4.874-7.025 4.874zm61.896-28.703c-.841 0-1.695-.143-2.532-.442-3.898-1.398-5.926-5.692-4.527-9.592 1.439-4.014 2.229-8.229 2.345-12.529.112-4.141 3.582-7.422 7.7-7.294 4.141.111 7.406 3.56 7.294 7.7-.159 5.892-1.242 11.675-3.22 17.188-1.099 3.062-3.984 4.969-7.06 4.969zm-91.389-3.764c-3.313 0-6.344-2.212-7.24-5.564-1.246-4.659-1.878-9.487-1.878-14.349v-2.63c0-4.143 3.357-7.5 7.5-7.5s7.5 3.357 7.5 7.5v2.63c0 3.554.46 7.078 1.368 10.474 1.07 4.002-1.307 8.113-5.308 9.183-.649.173-1.3.256-1.942.256zm99.057-40.647c-1.217 0-2.45-.296-3.594-.922-3.634-1.988-4.967-6.546-2.979-10.18 2.902-5.305 6.742-9.953 11.412-13.816 3.191-2.639 7.919-2.192 10.56.999 2.64 3.191 2.193 7.919-.999 10.56-3.198 2.646-5.827 5.828-7.814 9.459-1.364 2.49-3.934 3.9-6.586 3.9zm-100.675-4.77c-4.143 0-7.5-3.357-7.5-7.5v-15.188c0-4.143 3.357-7.5 7.5-7.5s7.5 3.357 7.5 7.5v15.188c0 4.143-3.358 7.5-7.5 7.5zm0-45.562c-4.143 0-7.5-3.357-7.5-7.5v-15.188c0-4.143 3.357-7.5 7.5-7.5s7.5 3.357 7.5 7.5v15.188c0 4.142-3.358 7.5-7.5 7.5zm9.508-43.278c-1.719 0-3.446-.588-4.858-1.79-3.153-2.685-3.533-7.419-.848-10.572 3.929-4.614 8.631-8.388 13.977-11.214 3.661-1.937 8.2-.537 10.136 3.124 1.937 3.661.538 8.199-3.124 10.136-3.657 1.935-6.877 4.518-9.568 7.679-1.485 1.741-3.593 2.637-5.715 2.637zm147.705-14.053h-15.188c-4.143 0-7.5-3.357-7.5-7.5s3.357-7.5 7.5-7.5h15.188c4.143 0 7.5 3.357 7.5 7.5s-3.358 7.5-7.5 7.5zm-45.563 0h-15.188c-4.143 0-7.5-3.357-7.5-7.5s3.357-7.5 7.5-7.5h15.188c4.143 0 7.5 3.357 7.5 7.5s-3.357 7.5-7.5 7.5zm-45.561 0h-15.188c-4.143 0-7.5-3.357-7.5-7.5s3.357-7.5 7.5-7.5h15.188c4.143 0 7.5 3.357 7.5 7.5s-3.358 7.5-7.5 7.5zm121.128-2.877c-2.971 0-5.781-1.775-6.96-4.699-1.548-3.842.313-8.212 4.154-9.76 3.829-1.542 7.293-3.781 10.295-6.652 2.993-2.864 7.74-2.759 10.604.234 2.863 2.992 2.759 7.74-.234 10.604-4.386 4.196-9.452 7.47-15.059 9.729-.919.368-1.868.544-2.8.544zm24.961-35.162c-.119 0-.238-.003-.358-.008-4.138-.195-7.334-3.707-7.139-7.845.023-.506.035-1.013.035-1.523.001-3.64-.596-7.209-1.772-10.608-1.355-3.914.719-8.187 4.633-9.541 3.917-1.356 8.187.72 9.541 4.633 1.726 4.983 2.6 10.204 2.599 15.519 0 .745-.018 1.487-.053 2.227-.189 4.016-3.506 7.146-7.486 7.146zm-21.561-37.347c-1.161 0-2.339-.271-3.44-.841-3.671-1.899-7.622-3.062-11.745-3.456s-7.146-4.057-6.752-8.18c.395-4.124 4.063-7.14 8.18-6.752 6.039.577 11.83 2.281 17.21 5.065 3.679 1.903 5.118 6.429 3.215 10.107-1.334 2.579-3.954 4.057-6.668 4.057zm-44.839-4.445h-15.188c-4.143 0-7.5-3.357-7.5-7.5s3.357-7.5 7.5-7.5h15.188c4.143 0 7.5 3.357 7.5 7.5s-3.357 7.5-7.5 7.5z" fill="#c8866a"/></g><g><path d="m293.086 355.054h-7.5c-4.143 0-7.5-3.357-7.5-7.5s3.357-7.5 7.5-7.5h7.5c4.143 0 7.5 3.357 7.5 7.5s-3.357 7.5-7.5 7.5z" fill="#c8866a"/></g></g></g></g></svg>