<svg height="512pt" viewBox="0 0 512 512" width="512pt" xmlns="http://www.w3.org/2000/svg"><path d="m151 455.894531h30v56.105469h-30zm0 0" fill="#293939"/><path d="m61 455.894531h30v56.105469h-30zm0 0" fill="#3e5959"/><path d="m121 240c-66.300781 0-121 54.699219-121 121s54.699219 120 121 120 120-53.699219 120-120-53.699219-121-120-121zm0 0" fill="#e0f4ff"/><path d="m241 361c0 66.300781-53.699219 120-120 120v-241c66.300781 0 120 54.699219 120 121zm0 0" fill="#bbdcff"/><path d="m71.605469 305.390625 30 30-21.210938 21.210937-30-30zm0 0" fill="#3e5959"/><path d="m170.394531 305.390625 21.210938 21.210937-30 30-21.210938-21.210937zm0 0" fill="#293939"/><path d="m31 26.660156h30v156.679688h-30zm0 0" fill="#ffda2d"/><path d="m241 15h30v180h-30zm0 0" fill="#ffda2d"/><path d="m451 26.660156h30v156.679688h-30zm0 0" fill="#eebf00"/><path d="m181 37.953125h30v134.09375h-30zm0 0" fill="#ffda2d"/><path d="m301 37.953125h30v134.09375h-30zm0 0" fill="#eebf00"/><path d="m256 15h15v180h-15zm0 0" fill="#eebf00"/><path d="m512 0v30h-16c-20.398438 0-54.902344 38.097656-85.199219 71.398438-46.199219 51-98.699219 108.601562-154.800781 108.601562s-108.601562-57.601562-154.800781-108.601562c-30.296875-33.300782-64.800781-71.398438-85.199219-71.398438h-16v-30h16c33.601562 0 67.800781 37.800781 107.402344 81.300781 41.996094 46.199219 89.699218 98.699219 132.597656 98.699219s90.601562-52.5 132.597656-98.699219c39.601563-43.5 73.800782-81.300781 107.402344-81.300781zm0 0" fill="#fa5e97"/><path d="m512 0v30h-16c-20.398438 0-54.902344 38.097656-85.199219 71.398438-46.199219 51-98.699219 108.601562-154.800781 108.601562v-30c42.898438 0 90.601562-52.5 132.597656-98.699219 39.601563-43.5 73.800782-81.300781 107.402344-81.300781zm0 0" fill="#d94f88"/><path d="m512 180v30h-16c-33.601562 0-67.800781-37.800781-107.402344-81.300781-41.996094-46.199219-89.699218-98.699219-132.597656-98.699219s-90.601562 52.5-132.597656 98.699219c-39.601563 43.5-73.800782 81.300781-107.402344 81.300781h-16v-30h16c20.398438 0 54.902344-38.101562 85.199219-71.398438 46.199219-51.003906 98.699219-108.601562 154.800781-108.601562s108.601562 57.597656 154.800781 108.601562c30.296875 33.296876 64.800781 71.398438 85.199219 71.398438zm0 0" fill="#25d9f8"/><path d="m512 180v30h-16c-33.601562 0-67.800781-37.800781-107.402344-81.300781-41.996094-46.199219-89.699218-98.699219-132.597656-98.699219v-30c56.101562 0 108.601562 57.597656 154.800781 108.601562 30.296875 33.296876 64.800781 71.398438 85.199219 71.398438zm0 0" fill="#00c0f1"/><path d="m76 331v45c0 24.898438 20.097656 45 45 45s45-20.101562 45-45v-45zm0 0" fill="#537983"/><path d="m166 331v45c0 24.898438-20.097656 45-45 45v-90zm0 0" fill="#3e5959"/><path d="m421 455.894531h30v56.105469h-30zm0 0" fill="#293939"/><path d="m331 455.894531h30v56.105469h-30zm0 0" fill="#3e5959"/><path d="m391 240c-66.300781 0-120 54.699219-120 121s53.699219 120 120 120 121-53.699219 121-120-54.699219-121-121-121zm0 0" fill="#e0f4ff"/><path d="m512 361c0 66.300781-54.699219 120-121 120v-241c66.300781 0 121 54.699219 121 121zm0 0" fill="#bbdcff"/><path d="m341.605469 305.390625 30 30-21.210938 21.210937-30-30zm0 0" fill="#3e5959"/><path d="m440.394531 305.390625 21.210938 21.210937-30 30-21.210938-21.210937zm0 0" fill="#293939"/><path d="m346 331v45c0 24.898438 20.097656 45 45 45s45-20.101562 45-45v-45zm0 0" fill="#537983"/><path d="m436 331v45c0 24.898438-20.097656 45-45 45v-90zm0 0" fill="#3e5959"/></svg>