<svg height="511pt" viewBox="-3 0 511 511.99986" width="511pt" xmlns="http://www.w3.org/2000/svg"><path d="m463.085938 280.710938c0 127.738281-103.5625 231.289062-231.296876 231.289062-31.335937 0-61.207031-6.230469-88.453124-17.523438-74.46875-30.847656-129.320313-99.476562-140.660157-181.976562-1.441406-10.390625-2.175781-21.003906-2.175781-31.789062 0-127.746094 103.550781-231.296876 231.289062-231.296876 127.734376 0 231.296876 103.550782 231.296876 231.296876zm0 0" fill="#937de2"/><path d="m231.789062 49.414062c-12.230468 0-24.234374.957032-35.949218 2.785157 110.667968 17.269531 195.351562 112.992187 195.351562 228.511719 0 115.503906-84.675781 211.222656-195.335937 228.5 11.710937 1.828124 23.707031 2.789062 35.929687 2.789062 127.738282 0 231.300782-103.550781 231.300782-231.289062 0-127.746094-103.5625-231.296876-231.296876-231.296876zm0 0" fill="#7570d6"/><path d="m491.960938 263.613281-132.074219 87.457031c-9.410157 6.234376-20.808594 8.707032-31.949219 6.925782-11.167969-1.777344-22.59375.660156-32.027344 6.90625l-17.675781 11.714844-98.984375-145.910157 24.285156-104.914062c1.886719-8.167969 2.820313-16.445313 2.820313-24.691407 0-21.332031-6.238281-42.386718-18.203125-60.460937-2.941406-4.445313-4.347656-9.472656-4.347656-14.4375 0-8.484375 4.117187-16.808594 11.726562-21.847656 10.253906-6.792969 23.84375-5.53125 32.671875 3.03125l15.734375 15.238281c17.992188 17.457031 31.871094 38.710938 40.585938 62.21875l8.53125 22.96875 87.855468-58.046875c14.03125-9.289063 33.011719-5.226563 41.972656 9.144531 8.640626 13.84375 4.203126 32.136719-9.410156 41.148438-.164062.109375-.175781.285156-.121094.417968.078126.144532.242188.242188.425782.164063 3.472656-1.335937 7.105468-1.984375 10.707031-1.984375 5.75 0 11.449219 1.65625 16.324219 4.808594 3.359375 2.171875 6.335937 5.058594 8.683594 8.605468 4.535156 6.851563 5.886718 14.886719 4.402343 22.355469-2.328125 11.765625-10.878906 17.828125-12.558593 18.96875-.285157.199219-.363282.59375-.164063.890625 0 .007813.011719.019532.019531.019532.1875.265624.570313.339843.84375.167968 2.394532-.582031 4.832032-.859375 7.269532-.859375 5.949218 0 11.867187 1.691407 16.898437 4.898438 3.402344 2.175781 6.410156 5.050781 8.738281 8.574219 9.132813 13.789062 5.359375 32.375-8.445312 41.511718-.339844.230469-.679688.460938-1.019532.679688-.195312.15625-.253906.40625-.152343.582031.019531.042969.066406.089844.109375.109375.152344.121094.394531.132812.59375-.019531 8.574218-2.921875 17.90625-1.59375 25.414062 3.269531 3.457032 2.21875 6.523438 5.207031 8.949219 8.871094 9.136719 13.800781 5.359375 32.386718-8.429687 41.523437zm0 0" fill="#fdd7bd"/><path d="m279.496094 404.308594-55.71875 36.898437-80.441406 53.269531c-74.46875-30.851562-129.320313-99.46875-140.660157-181.976562l93.351563-61.820312 56.828125-37.636719c6.542969-4.335938 15.371093-2.535157 19.707031 4.019531l110.953125 167.527344c4.335937 6.554687 2.535156 15.367187-4.019531 19.71875zm0 0" fill="#87dbff"/><path d="m279.496094 404.308594-55.71875 36.898437-127.75-190.527343 56.828125-37.636719c6.542969-4.335938 15.371093-2.535157 19.707031 4.019531l110.953125 167.523438c4.335937 6.558593 2.535156 15.371093-4.019531 19.722656zm0 0" fill="#6fc7ff"/><g fill="#fac5aa"><path d="m440.808594 103.460938-43.949219 23.519531c-6.234375 3.328125-13.964844 1.589843-18.15625-4.085938l34.648437-22.417969c.078126.144532.242188.242188.425782.164063 3.472656-1.335937 7.105468-1.984375 10.707031-1.984375 5.753906 0 11.449219 1.65625 16.324219 4.804688zm0 0"/><path d="m466.203125 158.511719-42.992187 22.988281c-6.234376 3.339844-13.964844 1.605469-18.160157-4.070312l34.648438-22.421876 1.496093-.703124c.1875.265624.570313.339843.84375.167968 2.394532-.582031 4.832032-.859375 7.269532-.859375 5.949218 0 11.867187 1.691407 16.894531 4.898438zm0 0"/><path d="m491.445312 213.21875-37.867187 20.257812c-6.226563 3.324219-13.953125 1.589844-18.160156-4.085937l30.015625-19.421875c.15625.121094.398437.132812.59375-.023438 8.574218-2.917968 17.90625-1.589843 25.417968 3.273438zm0 0"/></g></svg>