<svg height="512pt" viewBox="0 0 512 512" width="512pt" xmlns="http://www.w3.org/2000/svg"><path d="m460.929688 59h30v338h-30zm0 0" fill="#ffd011"/><path d="m0 469.09375 469-469.09375h43v43l-469.09375 469c-23.695312 0-42.90625-19.210938-42.90625-42.90625zm0 0" fill="#38eecf"/><path d="m42.90625 512 469.09375-469v-43l-499.433594 499.433594c7.765625 7.765625 18.492188 12.566406 30.339844 12.566406zm0 0" fill="#0fb397"/><path d="m173.929688 460c-57.898438 0-105-47.101562-105-105s47.101562-105 105-105c57.898437 0 105 47.101562 105 105s-47.101563 105-105 105zm0 0" fill="#ff9098"/><path d="m239.191406 272.808594-147.453125 147.453125c19.25 24.199219 48.9375 39.738281 82.191407 39.738281 57.898437 0 105-47.101562 105-105 0-33.253906-15.539063-62.941406-39.738282-82.191406zm0 0" fill="#fb4b72"/><path d="m173.929688 280c-41.355469 0-75 33.644531-75 75s33.644531 75 75 75c41.355468 0 75-33.644531 75-75s-33.644532-75-75-75zm0 0" fill="#f4f5f7"/><path d="m217.785156 294.214844-104.640625 104.640625c13.636719 18.847656 35.796875 31.144531 60.785157 31.144531 41.355468 0 75-33.644531 75-75 0-24.988281-12.296876-47.148438-31.144532-60.785156zm0 0" fill="#c8d6f2"/><path d="m444.929688 512c-25.363282 0-46-20.636719-46-46v-9h30v9c0 8.820312 7.179687 16 16 16 8.824218 0 16-7.179688 16-16v-39h30v39c0 25.363281-20.636719 46-46 46zm0 0" fill="#c8d6f2"/><path d="m238.929688 512h-80v-127h30v97h50zm0 0" fill="#2e3192"/><path d="m173.929688 400c-24.8125 0-45-20.1875-45-45s20.1875-45 45-45 45 20.1875 45 45-20.1875 45-45 45zm0-60c-8.269532 0-15 6.730469-15 15s6.730468 15 15 15c8.269531 0 15-6.730469 15-15s-6.730469-15-15-15zm0 0" fill="#3f52e9"/><path d="m196.121094 315.878906-24.285156 24.285156c.6875-.097656 1.382812-.164062 2.09375-.164062 8.273437 0 15 6.726562 15 15 0 8.269531-6.726563 15-15 15-8.269532 0-15-6.730469-15-15 0-.714844.066406-1.40625.164062-2.09375l-24.285156 24.285156c7.746094 13.609375 22.375 22.808594 39.121094 22.808594 24.8125 0 45-20.1875 45-45 0-16.746094-9.199219-31.375-22.808594-39.121094zm0 0" fill="#2e3192"/></svg>