<svg height="509pt" viewBox="-44 0 509 509.64898" width="509pt" xmlns="http://www.w3.org/2000/svg"><path d="m115.898438 77.097656h190.5l2.914062 35.308594h-196.324219zm0 0" fill="#e57e25"/><path d="m321.757812 471.867188c50.582032-26.660157 97.015626-67.355469 100.019532-128.882813 3.792968-78.125-47.671875-142.917969-69.828125-214.597656-6.265625-20.128907-13.769531-43.519531-7.769531-64.53125.179687-.617188 6.976562-14.917969 8.210937-13.242188 14.65625 19.511719 36.722656 18.980469 48.550781-2.734375 11.652344-21.277344-5.382812-45.550781-28.246094-47.847656-15.441406-.542969-30.332031 5.757812-40.695312 17.214844-3.691406 3.792968-7.085938 7.867187-10.152344 12.183594-9.664062 14.050781-15.035156 30.617187-15.449218 47.667968-.386719 11.84375.589843 23.691406 2.914062 35.308594 3.511719 16.15625 8.292969 32.003906 14.300781 47.40625 17.480469 47.050781 47.050781 93.835938 43.695313 145.917969-2.292969 36.28125-18.714844 72.828125-51.285156 91.367187-10.808594 6.316406-22.300782 11.378906-34.253907 15.09375-11.5 3.609375-23.328125 6.09375-35.308593 7.417969-11.726563 1.257813-23.515626 1.847656-35.3125 1.765625-11.792969.082031-23.582032-.507812-35.308594-1.765625-11.984375-1.324219-23.808594-3.808594-35.3125-7.417969-11.953125-3.714844-23.441406-8.777344-34.25-15.09375-32.574219-18.539062-48.992188-55.085937-51.289063-91.367187-3.351562-52.082031 26.21875-98.867188 43.699219-145.917969 6.003906-15.402344 10.789062-31.25 14.300781-47.40625 2.320313-11.617188 3.300781-23.464844 2.910157-35.308594-.414063-17.050781-5.78125-33.617187-15.445313-47.667968-3.066406-4.316407-6.460937-8.390626-10.152344-12.183594-10.363281-11.457032-25.257812-17.757813-40.695312-17.214844-22.863281 2.296875-39.902344 26.570312-28.25 47.847656 11.832031 21.714844 33.898437 22.246094 48.554687 2.734375 1.234375-1.675781 8.03125 12.625 8.207032 13.242188 6.003906 21.011719-1.5 44.402343-7.765626 64.53125-22.160156 71.679687-73.625 136.472656-69.828124 214.597656 3 61.527344 49.433593 102.222656 100.015624 128.882813zm0 0" fill="#f0c419"/><g fill="#95a5a5"><path d="m140.527344 421.019531c-4.875 0-8.824219-3.953125-8.824219-8.828125v-299.785156c0-4.875 3.949219-8.828125 8.824219-8.828125 4.878906 0 8.828125 3.953125 8.828125 8.828125v299.785156c0 4.875-3.949219 8.828125-8.828125 8.828125zm0 0"/><path d="m175.839844 428.433594c-4.875 0-8.828125-3.949219-8.828125-8.824219v-307.203125c0-4.875 3.953125-8.828125 8.828125-8.828125s8.828125 3.953125 8.828125 8.828125v307.203125c0 4.875-3.953125 8.824219-8.828125 8.824219zm0 0"/><path d="m211.148438 430.199219c-4.875 0-8.828126-3.949219-8.828126-8.824219v-308.96875c0-4.875 3.953126-8.828125 8.828126-8.828125s8.828124 3.953125 8.828124 8.828125v308.96875c0 4.875-3.953124 8.824219-8.828124 8.824219zm0 0"/><path d="m246.460938 428.433594c-4.875 0-8.828126-3.949219-8.828126-8.824219v-307.203125c0-4.875 3.953126-8.828125 8.828126-8.828125s8.828124 3.953125 8.828124 8.828125v307.203125c0 4.875-3.953124 8.824219-8.828124 8.824219zm0 0"/><path d="m281.769531 421.019531c-4.875 0-8.828125-3.953125-8.828125-8.828125v-299.785156c0-4.875 3.953125-8.828125 8.828125-8.828125s8.828125 3.953125 8.828125 8.828125v299.785156c0 4.875-3.953125 8.828125-8.828125 8.828125zm0 0"/></g><path d="m43.425781 359.578125c0 4.878906-3.953125 8.828125-8.828125 8.828125s-8.828125-3.949219-8.828125-8.828125c0-4.875 3.953125-8.824219 8.828125-8.824219s8.828125 3.949219 8.828125 8.824219zm0 0" fill="#f3d55b"/><path d="m96.390625 430.199219c-18.714844-11.535157-34.828125-26.835938-47.316406-44.929688" fill="#f3d55b"/><path d="m96.382812 439.027344c-1.597656 0-3.164062-.433594-4.535156-1.257813-19.8125-12.121093-36.851562-28.28125-50-47.425781-2.804687-3.988281-1.839844-9.496094 2.148438-12.300781 3.988281-2.804688 9.496094-1.839844 12.300781 2.148437 11.804687 17.0625 27 31.507813 44.636719 42.4375 3.40625 2.039063 5.03125 6.105469 3.96875 9.933594-1.058594 3.828125-4.546875 6.472656-8.519532 6.464844zm0 0" fill="#f3d55b"/><path d="m114.046875 465.511719h194.207031c9.75 0 17.65625 7.902343 17.65625 17.65625v8.824219c0 9.753906-7.90625 17.65625-17.65625 17.65625h-194.207031c-9.75 0-17.65625-7.902344-17.65625-17.65625v-8.824219c0-9.753907 7.90625-17.65625 17.65625-17.65625zm0 0" fill="#f29c1f"/></svg>