<?xml version="1.0" encoding="iso-8859-1"?>
<!-- Generator: Adobe Illustrator 21.0.0, SVG Export Plug-In . SVG Version: 6.00 Build 0)  -->
<svg xmlns="http://www.w3.org/2000/svg" xmlns:xlink="http://www.w3.org/1999/xlink" version="1.1" id="Capa_1" x="0px" y="0px" viewBox="0 0 512 512" style="enable-background:new 0 0 512 512;" xml:space="preserve" width="512" height="512">
<g>
	<path style="fill:#FECA57;" d="M151.977,297.818c-4.385,32.7-32.377,57.924-66.278,57.924c-33.901,0-61.892-25.224-66.278-57.924   H151.977z"/>
	<path style="fill:#CCD2DB;" d="M148.13,284.974L90.424,128.943c-1.48-4.002,0.564-8.447,4.567-9.927   c4.001-1.482,8.447,0.564,9.927,4.567l57.706,156.031c1.48,4.002-0.564,8.447-4.567,9.927   C154.06,291.02,149.612,288.98,148.13,284.974z"/>
	<path style="fill:#CCD2DB;" d="M19.566,289.541c-4.002-1.48-6.047-5.925-4.567-9.927l57.706-156.031   c1.48-4.002,5.922-6.049,9.927-4.567c4.002,1.48,6.047,5.925,4.567,9.927L29.493,284.974   C28.013,288.976,23.568,291.021,19.566,289.541z"/>
	<path style="fill:#CCD2DB;" d="M353.916,289.531c-3.997-1.495-6.025-5.948-4.53-9.944l57.706-154.278   c1.496-3.997,5.948-6.024,9.944-4.53c3.997,1.495,6.026,5.948,4.53,9.944l-57.706,154.278   C362.365,288.998,357.912,291.025,353.916,289.531z"/>
	<path style="fill:#CCD2DB;" d="M482.517,285.001l-57.706-154.278c-1.495-3.997,0.533-8.449,4.53-9.944   c3.998-1.494,8.449,0.533,9.944,4.53l57.706,154.278c1.495,3.997-0.533,8.449-4.53,9.944   C488.467,291.025,484.013,289,482.517,285.001z"/>
	<g>
		<path style="fill:#3E4B5A;" d="M101.321,134.48c-3.942,0-7.308-3.002-7.684-7.005c-0.399-4.249,2.722-8.017,6.971-8.416    c25.676-2.411,32.516-5.334,134.295-33.25c4.115-1.128,8.367,1.292,9.496,5.408c1.129,4.115-1.292,8.367-5.408,9.496    c-102.314,28.063-109.932,31.197-136.938,33.733C101.807,134.469,101.563,134.48,101.321,134.48z"/>
	</g>
	<g>
		<path style="fill:#3E4B5A;" d="M412.574,135.02c-0.242,0-0.485-0.011-0.731-0.034c-28.034-2.633-35.536-5.772-142.381-35.077    c-4.115-1.129-6.537-5.38-5.408-9.496c1.129-4.115,5.382-6.536,9.496-5.408c106.996,29.346,113.421,32.123,139.738,34.594    c4.249,0.399,7.37,4.167,6.971,8.416C419.883,132.018,416.516,135.02,412.574,135.02z"/>
	</g>
	<path style="fill:#C46F5F;" d="M255.49,57.83c5.529,0,10.707,1.495,15.163,4.091V33.249c0-5.782-4.687-10.47-10.47-10.47h-9.387   c-5.782,0-10.47,4.688-10.47,10.47v28.672C244.784,59.323,249.961,57.83,255.49,57.83z"/>
	<path style="fill:#C46F5F;" d="M270.653,430.215V114.078c-4.456,2.597-9.634,4.091-15.163,4.091s-10.707-1.495-15.163-4.091   v316.137H270.653z"/>
	<g>
		<path style="fill:#B45F4A;" d="M260.738,33.249c0-3.757,1.985-7.042,4.958-8.889c-1.602-0.996-3.487-1.581-5.512-1.581h-9.387    c-5.782,0-10.47,4.688-10.47,10.47v28.672c4.456-2.598,9.634-4.091,15.163-4.091c1.792,0,3.542,0.173,5.248,0.473V33.249z"/>
	</g>
	<g>
		<path style="fill:#B45F4A;" d="M255.49,118.17c-5.529,0-10.707-1.494-15.163-4.091v316.137h20.411V117.696    C259.032,117.997,257.282,118.17,255.49,118.17z"/>
	</g>
	<path style="fill:#F4B537;" d="M347.374,266.77h151.63c7.148,0,12.997,5.848,12.997,12.997v5.055   c0,7.148-5.849,12.997-12.997,12.997h-151.63c-7.148,0-12.997-5.848-12.997-12.997v-5.055   C334.377,272.618,340.226,266.77,347.374,266.77z"/>
	<path style="fill:#E59D1F;" d="M499.003,277.213H347.374c-4.235,0-8.002-2.062-10.379-5.222c-1.635,2.174-2.618,4.862-2.618,7.775   v5.055c0,7.148,5.848,12.997,12.997,12.997h151.629c7.148,0,12.997-5.848,12.997-12.997v-5.055c0-2.913-0.983-5.602-2.618-7.775   C507.005,275.151,503.239,277.213,499.003,277.213z"/>
	<path style="fill:#FECA57;" d="M492.579,297.818c-4.385,32.7-32.377,57.924-66.278,57.924c-33.901,0-61.892-25.224-66.278-57.924   H492.579z"/>
	<path style="fill:#F4B537;" d="M50.329,297.818H19.421c4.386,32.7,32.377,57.924,66.278,57.924c5.32,0,10.493-0.622,15.454-1.796   C74.503,347.64,54.026,325.387,50.329,297.818z"/>
	<path style="fill:#F4B537;" d="M390.931,297.818h-30.907c4.386,32.7,32.377,57.924,66.278,57.924c5.32,0,10.493-0.622,15.454-1.796   C415.105,347.64,394.629,325.387,390.931,297.818z"/>
	<circle style="fill:#FECA57;" cx="88.812" cy="126.263" r="20.712"/>
	<circle style="fill:#FECA57;" cx="423.189" cy="126.263" r="20.712"/>
	<path style="fill:#3E4B5A;" d="M313.976,427.125H197.005c-7.148,0-12.997,5.848-12.997,12.997v21.142h142.965v-21.142   C326.973,432.973,321.124,427.125,313.976,427.125z"/>
	<path style="fill:#303F49;" d="M184.264,437.568c-0.167,0.827-0.257,1.68-0.257,2.553v21.142h142.965v-21.142   c0-0.874-0.09-1.727-0.257-2.553H184.264z"/>
	<path style="fill:#576574;" d="M331.581,458.173h-151.63c-7.148,0-12.997,5.848-12.997,12.997v5.055   c0,7.148,5.849,12.997,12.997,12.997h151.63c7.148,0,12.997-5.848,12.997-12.997v-5.055   C344.578,464.021,338.729,458.173,331.581,458.173z"/>
	<path style="fill:#3E4B5A;" d="M331.581,468.616h-151.63c-4.235,0-8.002-2.062-10.378-5.222c-1.635,2.174-2.618,4.862-2.618,7.775   v5.055c0,7.148,5.849,12.997,12.997,12.997h151.63c7.148,0,12.997-5.848,12.997-12.997v-5.055c0-2.913-0.983-5.602-2.618-7.775   C339.583,466.554,335.816,468.616,331.581,468.616z"/>
	<circle style="fill:#FECA57;" cx="255.49" cy="87.999" r="30.17"/>
	<path style="fill:#F4B537;" d="M99.007,126.263c0-5.287,1.998-10.096,5.258-13.756c-3.794-4.258-9.302-6.956-15.454-6.956   c-11.439,0-20.712,9.273-20.712,20.712s9.273,20.712,20.712,20.712c6.152,0,11.66-2.697,15.454-6.956   C101.005,136.359,99.007,131.55,99.007,126.263z"/>
	<path style="fill:#F4B537;" d="M433.385,126.263c0-5.287,1.998-10.096,5.258-13.756c-3.793-4.258-9.302-6.956-15.454-6.956   c-11.439,0-20.712,9.273-20.712,20.712s9.273,20.712,20.712,20.712c6.152,0,11.66-2.697,15.454-6.956   C435.382,136.359,433.385,131.55,433.385,126.263z"/>
	<path style="fill:#F4B537;" d="M256.228,87.999c0-11.013,5.904-20.644,14.716-25.912c-4.52-2.702-9.804-4.258-15.454-4.258   c-16.662,0-30.17,13.508-30.17,30.17s13.508,30.17,30.17,30.17c5.649,0,10.933-1.556,15.454-4.258   C262.131,108.644,256.228,99.012,256.228,87.999z"/>
	<path style="fill:#F4B537;" d="M12.997,266.77h151.63c7.148,0,12.997,5.848,12.997,12.997v5.055   c0,7.148-5.849,12.997-12.997,12.997H12.997C5.848,297.818,0,291.969,0,284.821l0-5.055C0,272.618,5.848,266.77,12.997,266.77z"/>
	<path style="fill:#E59D1F;" d="M164.626,277.213H12.997c-4.235,0-8.002-2.062-10.379-5.222C0.983,274.165,0,276.853,0,279.766   v5.055c0,7.148,5.848,12.997,12.997,12.997h151.629c7.148,0,12.997-5.848,12.997-12.997v-5.055c0-2.913-0.983-5.602-2.618-7.775   C172.628,275.151,168.861,277.213,164.626,277.213z"/>
</g>















</svg>
