<svg height="512pt" viewBox="-64 0 512 512" width="512pt" xmlns="http://www.w3.org/2000/svg"><path d="m352 240h-32v-80c0-70.574219-57.425781-128-128-128s-128 57.425781-128 128v80h-32v-80c0-88.222656 71.777344-160 160-160s160 71.777344 160 160zm0 0" fill="#c6c5ca"/><path d="m352 512h-320c-17.679688 0-32-14.320312-32-32v-224c0-17.679688 14.320312-32 32-32h320c17.679688 0 32 14.320312 32 32v224c0 17.679688-14.320312 32-32 32zm0 0" fill="#ffca28"/><g fill="#fff"><path d="m272 352h-64v-64h-32v64h-64v32h64v64h32v-64h64zm0 0"/><path d="m32 272h32v32h-32zm0 0"/><path d="m32 336h32v32h-32zm0 0"/></g></svg>