<?xml version="1.0" encoding="UTF-8"?>
<svg xmlns="http://www.w3.org/2000/svg" xmlns:xlink="http://www.w3.org/1999/xlink" width="512" height="512" viewBox="0 0 58 58" version="1.1"><!-- Generator: Sketch 51.3 (57544) - http://www.bohemiancoding.com/sketch --><title>011 - Mining</title><desc>Created with Sketch.</desc><defs/><g id="Page-1" stroke="none" stroke-width="1" fill="none" fill-rule="evenodd"><g id="011---Mining" transform="translate(-1.000000, 0.000000)" fill-rule="nonzero"><path d="M42.6,13.85 L40.48,15.97 L32,16.625 L33.41,8.9 L35.53,6.78 C35.9032815,6.40097181 36.4130212,6.1875462 36.945,6.1875462 C37.4769788,6.1875462 37.9867185,6.40097181 38.36,6.78 L42.6,11.02 C42.9755541,11.3951365 43.1865733,11.9041815 43.1865733,12.435 C43.1865733,12.9658185 42.9755541,13.4748635 42.6,13.85 Z" id="Shape" fill="#CB8252"/><path d="M59,29 L59,57 C59,57.5522847 58.5522847,58 58,58 L29,58 C28.4477153,58 28,57.5522847 28,57 L28,55.24 C28.0023371,54.4449465 28.3186179,53.6829971 28.88,53.12 L31.12,50.88 C31.6829971,50.3186179 32.4449465,50.0023371 33.24,50 L37,50 L37,47 C37,45.3431458 38.3431458,44 40,44 L41,44 L42.71,42 L43.28,41.34 C43.7440249,40.7961688 43.9992655,40.1048923 44,39.39 L44,37.27 C44.0005902,36.4598601 44.3288093,35.6843974 44.91,35.12 L45.57,34.48 L49.14,31.02 L51.38,28.85 C51.9380949,28.303326 52.6887712,27.998027 53.47,28 L58,28 C58.5522847,28 59,28.4477153 59,29 Z" id="Shape" fill="#5E5F62"/><path d="M30.58,24.45 L18.73,36.31 L9.31,45.73 L7.24,47.79 C6.86486349,48.1655541 6.3558185,48.3765733 5.825,48.3765733 C5.2941815,48.3765733 4.78513651,48.1655541 4.41,47.79 L1.59,44.96 C1.21097181,44.5867185 0.997546196,44.0769788 0.997546196,43.545 C0.997546196,43.0130212 1.21097181,42.5032815 1.59,42.13 L24.92,18.8 L31.28,16.938 L30.58,24.45 Z" id="Shape" fill="#CB8252"/><path d="M48.25,39.3 C45.669297,34.0658245 42.296265,29.2612778 38.25,25.056 C37.8690017,24.6654938 37.3455677,24.4467345 36.8,24.45 L30.58,24.45 L24.92,18.8 L24.92,12.575 C24.920747,12.0327667 24.7026024,11.5131858 24.315,11.134 C20.1116232,7.08121205 15.3064396,3.7032473 10.07,1.12 C19.97,-3.12 30.58,6.07 30.58,6.07 L43.31,18.8 C43.31,18.8 52.5,29.4 48.25,39.3 Z" id="Shape" fill="#95A5A5"/><path d="M44.21,52.21 C43.8156639,52.5967403 43.1843361,52.5967403 42.79,52.21 L41.46,50.88 C40.8979306,50.3172301 40.1353814,50.0007002 39.34,50 L37,50 L37,47.999987 L39.34,48 C40.6671189,47.9969688 41.9408664,48.5222997 42.88,49.46 L44.21,50.79 C44.5999779,51.1830079 44.5999779,51.8169921 44.21,52.21 Z" id="Shape" fill="#A5A5A4"/><path d="M46,43 C46,43.5522847 45.5522847,44 45,44 L41,44 L42.71,42 L45,42 C45.5522847,42 46,42.4477153 46,43 Z" id="Shape" fill="#A5A5A4"/><path d="M52,48 C51.4477153,48 51,47.5522847 51,47 L51,45 C51,44.4477153 51.4477153,44 52,44 C52.5522847,44 53,44.4477153 53,45 L53,47 C53,47.5522847 52.5522847,48 52,48 Z" id="Shape" fill="#F3D55B"/><path d="M52,54 C51.4477153,54 51,53.5522847 51,53 L51,51 C51,50.4477153 51.4477153,50 52,50 C52.5522847,50 53,50.4477153 53,51 L53,53 C53,53.5522847 52.5522847,54 52,54 Z" id="Shape" fill="#F3D55B"/><path d="M50,50 L48,50 C47.4477153,50 47,49.5522847 47,49 C47,48.4477153 47.4477153,48 48,48 L50,48 C50.5522847,48 51,48.4477153 51,49 C51,49.5522847 50.5522847,50 50,50 Z" id="Shape" fill="#F3D55B"/><path d="M56,50 L54,50 C53.4477153,50 53,49.5522847 53,49 C53,48.4477153 53.4477153,48 54,48 L56,48 C56.5522847,48 57,48.4477153 57,49 C57,49.5522847 56.5522847,50 56,50 Z" id="Shape" fill="#F3D55B"/><path d="M55,37 C54.4477153,37 54,36.5522847 54,36 L54,35 C54,34.4477153 54.4477153,34 55,34 C55.5522847,34 56,34.4477153 56,35 L56,36 C56,36.5522847 55.5522847,37 55,37 Z" id="Shape" fill="#F3D55B"/><path d="M55,42 C54.4477153,42 54,41.5522847 54,41 L54,40 C54,39.4477153 54.4477153,39 55,39 C55.5522847,39 56,39.4477153 56,40 L56,41 C56,41.5522847 55.5522847,42 55,42 Z" id="Shape" fill="#F3D55B"/><path d="M53,39 L52,39 C51.4477153,39 51,38.5522847 51,38 C51,37.4477153 51.4477153,37 52,37 L53,37 C53.5522847,37 54,37.4477153 54,38 C54,38.5522847 53.5522847,39 53,39 Z" id="Shape" fill="#F3D55B"/><path d="M33,55 C32.7348879,54.9980257 32.4806836,54.8941958 32.29,54.71 C31.9032597,54.3156639 31.9032597,53.6843361 32.29,53.29 C32.5775607,53.0062554 33.0076029,52.9234033 33.38,53.08 C33.5011393,53.1307291 33.6127393,53.2017473 33.71,53.29 C34.0967403,53.6843361 34.0967403,54.3156639 33.71,54.71 C33.6127393,54.7982527 33.5011393,54.8692709 33.38,54.92 C33.2597777,54.971241 33.1306773,54.99842 33,55 Z" id="Shape" fill="#BDC3C7"/><path d="M39,55 L37,55 C36.4477153,55 36,54.5522847 36,54 C36,53.4477153 36.4477153,53 37,53 L39,53 C39.5522847,53 40,53.4477153 40,54 C40,54.5522847 39.5522847,55 39,55 Z" id="Shape" fill="#BDC3C7"/><path d="M10.73,44.31 L9.31,45.73 L7.29,43.71 C7.03634143,43.4563414 6.93727648,43.086626 7.03012196,42.740122 C7.12296744,42.3936179 7.39361791,42.1229674 7.74012196,42.030122 C8.08662601,41.9372765 8.45634143,42.0363414 8.71,42.29 L10.73,44.31 Z" id="Shape" fill="#805333"/><path d="M14.23,40.81 L12.81,42.23 L9.29,38.71 C8.89787786,38.3178778 8.89787788,37.6821222 9.29000004,37.29 C9.68212219,36.8978779 10.3178778,36.8978779 10.71,37.29 L14.23,40.81 Z" id="Shape" fill="#805333"/><path d="M18.73,36.31 L17.31,37.73 L15.29,35.71 C14.8978778,35.3178778 14.8978778,34.6821222 15.29,34.29 C15.6821222,33.8978778 16.3178778,33.8978778 16.71,34.29 L18.73,36.31 Z" id="Shape" fill="#805333"/></g></g></svg>
