<?xml version="1.0" encoding="iso-8859-1"?>
<!-- Generator: Adobe Illustrator 19.0.0, SVG Export Plug-In . SVG Version: 6.00 Build 0)  -->
<svg version="1.1" id="Capa_1" xmlns="http://www.w3.org/2000/svg" xmlns:xlink="http://www.w3.org/1999/xlink" x="0px" y="0px"
	 viewBox="0 0 512 512" style="enable-background:new 0 0 512 512;" xml:space="preserve">
<path style="fill:#E89606;" d="M182.814,310.979v194.837c0,3.662-3.163,6.494-6.81,6.158c-37.225-3.436-66.372-34.749-66.372-72.87
	l0.002-73.184c0-40.419-32.766-73.185-73.185-73.185h-8.289c-4.597,0-7.587-4.838-5.532-8.95L127.928,73.184h54.889L182.814,310.979
	z"/>
<polygon style="fill:#0079A6;" points="91.335,146.368 182.816,146.368 182.817,73.184 127.928,73.184 "/>
<g>
	<path style="fill:#0091CA;" d="M182.815,219.552H54.744l-32.116,64.232c-2.056,4.112,0.934,8.95,5.532,8.95h8.289
		c0.025,0,0.049,0.002,0.074,0.002h146.291L182.815,219.552z"/>
	<polygon style="fill:#0091CA;" points="182.814,365.919 109.632,365.919 109.63,439.103 109.63,439.104 182.814,439.104 	"/>
</g>
<path style="fill:#E89606;" d="M329.186,310.979v194.837c0,3.662,3.163,6.494,6.81,6.158c37.225-3.436,66.372-34.749,66.372-72.87
	l-0.002-73.184c0-40.419,32.766-73.185,73.185-73.185h8.289c4.597,0,7.587-4.838,5.532-8.95L384.072,73.184h-54.889L329.186,310.979
	z"/>
<path style="fill:#E08506;" d="M489.373,283.784l-105.301-210.6h-20.615l105.301,210.6c2.056,4.112-0.934,8.95-5.531,8.95h-8.289
	c-40.419,0-73.185,32.766-73.185,73.185l0.002,73.184c0,32.6-22.354,60.203-51.807,69.67c1.15,2.096,3.477,3.438,6.049,3.201
	c37.225-3.436,66.372-34.749,66.372-72.87l-0.002-73.184c0-40.419,32.766-73.185,73.185-73.185h8.289
	C488.439,292.735,491.429,287.896,489.373,283.784z"/>
<g>
	<polygon style="fill:#0091CA;" points="420.665,146.368 329.184,146.368 329.183,73.184 384.072,73.184 	"/>
	<path style="fill:#0091CA;" d="M329.185,219.552h128.071l32.116,64.232c2.056,4.112-0.934,8.95-5.532,8.95h-8.289
		c-0.025,0-0.049,0.002-0.074,0.002H329.186L329.185,219.552z"/>
	<polygon style="fill:#0091CA;" points="329.186,365.919 402.367,365.919 402.37,439.103 402.37,439.104 329.186,439.104 	"/>
</g>
<g>
	<polygon style="fill:#0079A6;" points="384.072,73.184 363.457,73.184 400.05,146.368 420.665,146.368 	"/>
	<path style="fill:#0079A6;" d="M489.373,283.784l-32.116-64.232h-20.615l32.116,64.232c2.056,4.113-0.934,8.95-5.532,8.95h-8.289
		c-0.025,0-0.049,0.002-0.074,0.002h20.615c0.025,0,0.049-0.002,0.074-0.002h8.289C488.439,292.735,491.429,287.896,489.373,283.784
		z"/>
	<polygon style="fill:#0079A6;" points="402.367,365.919 381.754,365.919 381.756,439.102 381.756,439.104 402.37,439.104 
		402.37,439.102 	"/>
</g>
<path style="fill:#FFB408;" d="M282.659,18.296l101.413,54.888l-36.594,73.185l-0.056,109.817c0,44.18-31.338,81.041-72.998,89.566
	l-36.72,0.027c-41.725-8.475-73.13-45.367-73.13-89.593l-0.028-109.817l-36.619-73.185L229.34,18.295h53.319V18.296z"/>
<g>
	<path style="fill:#E89606;" d="M363.457,73.184l-36.593,73.185l-0.056,109.817c0,44.18-31.338,81.041-72.999,89.566l-16.171,0.011
		c0.022,0.004,0.043,0.01,0.066,0.014l36.72-0.027c41.66-8.525,72.999-45.385,72.999-89.566l0.056-109.817l36.593-73.184H363.457z"
		/>
	<path style="fill:#E89606;" d="M237.703,80.915c-4.27,0-7.731-3.46-7.731-7.731V11.854c0-4.27,3.46-7.731,7.731-7.731
		s7.731,3.46,7.731,7.731v61.331C245.433,77.455,241.972,80.915,237.703,80.915z"/>
</g>
<path style="fill:#E08506;" d="M274.295,80.915c-4.27,0-7.731-3.46-7.731-7.731V11.854c0-4.27,3.46-7.731,7.731-7.731
	s7.731,3.46,7.731,7.731v61.331C282.025,77.455,278.564,80.915,274.295,80.915z"/>
<g>
	<polygon style="fill:#01C7EA;" points="201.111,118.924 182.814,43.477 127.928,73.184 150.815,118.924 	"/>
	<polygon style="fill:#01C7EA;" points="310.886,118.924 329.183,43.477 384.072,73.184 361.202,118.924 	"/>
</g>
<g>
	<path style="fill:#FFCA2E;" d="M269.721,27.444c7.578,0,13.721-6.143,13.721-13.721C283.444,6.143,277.299,0,269.721,0h-27.444
		c-7.578,0-13.721,6.143-13.721,13.721s6.143,13.721,13.721,13.721h27.444V27.444z"/>
	<path style="fill:#FFCA2E;" d="M268.11,475.695h-24.222c-3.416,0-6.185-2.769-6.185-6.185V320.177h36.591V469.51
		C274.295,472.926,271.526,475.695,268.11,475.695z"/>
</g>
<rect x="237.703" y="375.061" style="fill:#FFB408;" width="36.589" height="54.888"/>
<path style="fill:#01C7EA;" d="M268.11,475.695h-24.221c-3.416,0-6.185-2.769-6.185-6.185v-39.556h36.59v39.556
	C274.295,472.926,271.526,475.695,268.11,475.695z"/>
<polygon style="fill:#795F8C;" points="361.202,118.924 150.815,118.924 164.548,146.368 347.479,146.368 "/>
<g>
	<path style="fill:#E89606;" d="M283.445,327.908h-54.889c-4.27,0-7.731-3.46-7.731-7.731s3.46-7.731,7.731-7.731h54.889
		c4.27,0,7.731,3.46,7.731,7.731S287.714,327.908,283.445,327.908z"/>
	<path style="fill:#E89606;" d="M274.295,282.168h-36.589c-4.27,0-7.731-3.46-7.731-7.731s3.46-7.731,7.731-7.731h36.589
		c4.27,0,7.731,3.46,7.731,7.731S278.564,282.168,274.295,282.168z"/>
	<path style="fill:#E89606;" d="M347.454,193.525h-45.715c-14.351,0-26.027,11.675-26.027,26.027c0,4.27,3.46,7.731,7.731,7.731
		c4.27,0,7.731-3.46,7.731-7.731c0-5.826,4.739-10.565,10.565-10.565h45.707L347.454,193.525z"/>
	<path style="fill:#E89606;" d="M210.258,193.525H164.56l0.004,15.461h45.694c5.826,0,10.566,4.739,10.566,10.565
		c0,4.27,3.46,7.731,7.731,7.731c4.27,0,7.731-3.46,7.731-7.731C236.285,205.201,224.61,193.525,210.258,193.525z"/>
	<path style="fill:#E89606;" d="M269.721,0h-20.615c7.578,0,13.722,6.143,13.722,13.722c0,7.578-6.143,13.721-13.722,13.721h20.615
		c7.578,0,13.722-6.143,13.722-13.721C283.444,6.143,277.299,0,269.721,0z"/>
</g>
<polygon style="fill:#0091CA;" points="367.848,64.403 340.587,118.923 361.202,118.923 361.202,118.923 384.072,73.184 "/>
<polygon style="fill:#644E74;" points="361.202,118.923 340.587,118.923 326.864,146.368 347.479,146.368 "/>
<g>
</g>
<g>
</g>
<g>
</g>
<g>
</g>
<g>
</g>
<g>
</g>
<g>
</g>
<g>
</g>
<g>
</g>
<g>
</g>
<g>
</g>
<g>
</g>
<g>
</g>
<g>
</g>
<g>
</g>
</svg>
