<?xml version="1.0" encoding="iso-8859-1"?>
<!-- Generator: Adobe Illustrator 19.0.0, SVG Export Plug-In . SVG Version: 6.00 Build 0)  -->
<svg version="1.1" id="Capa_1" xmlns="http://www.w3.org/2000/svg" xmlns:xlink="http://www.w3.org/1999/xlink" x="0px" y="0px"
	 viewBox="0 0 512 512" style="enable-background:new 0 0 512 512;" xml:space="preserve">
<path style="fill:#D4D2D3;" d="M76.597,91.126H2.112c0,0-15.058-57.34,35.239-57.34l50.935,5.6L76.597,91.126z"/>
<path style="fill:#EFEDEE;" d="M374.113,33.787H37.351c94.559,0,0,448.656,89.53,448.656h28.303l271.828-57.339
	C406.961,304.122,447.513,33.787,374.113,33.787z"/>
<g>
	<path style="fill:#323E40;" d="M233.499,125.465H126.881c-4.267,0-7.726-3.459-7.726-7.726s3.459-7.726,7.726-7.726h106.618
		c4.267,0,7.726,3.459,7.726,7.726S237.766,125.465,233.499,125.465z"/>
	<path style="fill:#323E40;" d="M378.419,385.051H321.34c-4.267,0-7.726-3.459-7.726-7.726s3.459-7.726,7.726-7.726h57.078
		c4.267,0,7.726,3.459,7.726,7.726S382.686,385.051,378.419,385.051z"/>
	<path style="fill:#323E40;" d="M363.748,171.591H126.881c-4.267,0-7.726-3.459-7.726-7.726s3.459-7.726,7.726-7.726h236.866
		c4.267,0,7.726,3.459,7.726,7.726S368.015,171.591,363.748,171.591z"/>
	<path style="fill:#323E40;" d="M363.748,213.554H126.881c-4.267,0-7.726-3.459-7.726-7.726c0-4.267,3.459-7.726,7.726-7.726
		h236.866c4.267,0,7.726,3.459,7.726,7.726C371.474,210.094,368.015,213.554,363.748,213.554z"/>
	<path style="fill:#323E40;" d="M308.555,255.516H126.881c-4.267,0-7.726-3.459-7.726-7.726c0-4.267,3.459-7.726,7.726-7.726
		h181.673c4.267,0,7.726,3.459,7.726,7.726C316.281,252.057,312.822,255.516,308.555,255.516z"/>
</g>
<path style="fill:#D4D2D3;" d="M126.881,482.442c50.298,0,35.239-57.34,35.239-57.34h336.76c0,0,15.058,57.34-35.239,57.34H126.881z
	"/>
<path style="fill:#50C4DF;" d="M298.686,298.171c0,0,243.895-231.606,210.101-265.4s-265.4,210.102-265.4,210.102L298.686,298.171z"
	/>
<path style="fill:#1AA5C4;" d="M508.787,32.771c-2.67-2.67-6.579-3.603-11.507-3.063c-6.292,57.444-213.164,253.893-213.164,253.893
	l14.569,14.569C298.685,298.171,542.58,66.564,508.787,32.771z"/>
<path style="fill:#A19FA0;" d="M233.803,255.093c0,0-23.797,26.321-51.087,29.669c0,0-6.222,56.979-40.702,91.449l6.202,6.202
	l9.891,0.59l1.039,10.341l6.191,6.191c34.48-34.47,91.459-40.692,91.459-40.692c3.348-27.289,29.669-51.087,29.669-51.087
	L233.803,255.093z"/>
<path style="fill:#878586;" d="M229.61,334.365c-4.203,4.203-10.188,5.542-15.525,4.038l-54.94,54.94l-10.93-10.93l54.94-54.94
	c-1.504-5.336-0.165-11.322,4.038-15.525c6.191-6.191,16.225-6.191,22.417,0C235.791,318.14,235.791,328.174,229.61,334.365z"/>
<path style="fill:#FF8B5D;" d="M353.092,188.467c21.081,21.081,35.607,17.053,35.607,17.053
	c23.453-4.65,31.076-31.076,31.076-31.076s-14.528,4.028-35.607-17.053c-21.081-21.081-17.053-35.607-17.053-35.607
	s-26.425,7.623-31.076,31.076C336.039,152.86,332.011,167.386,353.092,188.467z"/>
<path style="fill:#EA6A3D;" d="M419.775,174.443c0,0-8.626,2.378-22.22-6.159c-1.764,5.085-10.16,25.876-30.71,29.95
	c0,0-0.601,0.163-1.716,0.251c14.371,9.568,23.57,7.033,23.57,7.033C412.152,200.868,419.775,174.443,419.775,174.443z"/>
<path style="fill:#FF8B5D;" d="M250.86,290.699c21.081,21.081,35.607,17.053,35.607,17.053c23.453-4.65,32.723-29.43,32.723-29.43
	s-16.173,2.382-37.253-18.699c-21.081-21.081-18.699-37.253-18.699-37.253s-24.78,9.27-29.43,32.723
	C233.807,255.092,229.779,269.618,250.86,290.699z"/>
<path style="fill:#EA6A3D;" d="M319.189,278.321c0,0-8.909,1.302-22.117-6.633c-1.651,3.93-11.26,24.576-32.459,28.78
	c0,0-0.6,0.163-1.716,0.251c14.371,9.568,23.57,7.033,23.57,7.033C309.92,303.1,319.189,278.321,319.189,278.321z"/>
<g>
</g>
<g>
</g>
<g>
</g>
<g>
</g>
<g>
</g>
<g>
</g>
<g>
</g>
<g>
</g>
<g>
</g>
<g>
</g>
<g>
</g>
<g>
</g>
<g>
</g>
<g>
</g>
<g>
</g>
</svg>
