<?xml version="1.0" encoding="iso-8859-1"?>
<!-- Generator: Adobe Illustrator 19.0.0, SVG Export Plug-In . SVG Version: 6.00 Build 0)  -->
<svg version="1.1" id="Capa_1" xmlns="http://www.w3.org/2000/svg" xmlns:xlink="http://www.w3.org/1999/xlink" x="0px" y="0px"
	 viewBox="0 0 59 59" style="enable-background:new 0 0 59 59;" xml:space="preserve">
<path style="fill:#35495E;" d="M3,59h38c2.848,0,5.383-1.655,7.032-4H5.4L3,59z"/>
<path style="fill:#ECF0F1;" d="M50,49H9l-2.4,4h42.543C49.687,51.731,50,50.365,50,49z"/>
<path style="fill:#48A0DC;" d="M6.6,53l-1.2,2h42.632c0.438-0.623,0.81-1.296,1.111-2H6.6z"/>
<path style="fill:#7F6E5D;" d="M34,20c-0.552,0-1-0.447-1-1V1c0-0.553,0.448-1,1-1s1,0.447,1,1v18C35,19.553,34.552,20,34,20z"/>
<line style="fill:none;stroke:#546A79;stroke-width:2;stroke-linecap:round;stroke-miterlimit:10;" x1="9" y1="49" x2="55" y2="49"/>
<polygon style="fill:#F3D55B;" points="30,14.195 30,5 8,42 18.635,42 "/>
<rect x="34" y="46" style="fill:#7F6E5D;" width="2" height="2"/>
<path style="fill:#8697CB;" d="M38.156,22.591L32,9.302L17.885,43.834c4.805-4.381,8.169-7.214,10.679-9.325
	C34.12,29.836,35.15,28.956,38.156,22.591z"/>
<path style="fill:#ECF0F1;" d="M49,46l-9.757-21.063c-2.695,5.456-4.102,6.653-9.391,11.102C27.227,38.247,23.66,41.253,18.481,46
	H33H49z"/>
<path style="fill:#F3D55B;" d="M39.243,24.937l-1.086-2.345c-3.006,6.365-4.036,7.244-9.592,11.917
	c-2.51,2.111-5.874,4.944-10.679,9.325L17,46h1.481c5.179-4.747,8.746-7.753,11.371-9.961C35.14,31.59,36.548,30.393,39.243,24.937z
	"/>
<g>
</g>
<g>
</g>
<g>
</g>
<g>
</g>
<g>
</g>
<g>
</g>
<g>
</g>
<g>
</g>
<g>
</g>
<g>
</g>
<g>
</g>
<g>
</g>
<g>
</g>
<g>
</g>
<g>
</g>
</svg>
