<?xml version="1.0" encoding="iso-8859-1"?>
<!-- Generator: Adobe Illustrator 21.0.0, SVG Export Plug-In . SVG Version: 6.00 Build 0)  -->
<svg xmlns="http://www.w3.org/2000/svg" xmlns:xlink="http://www.w3.org/1999/xlink" version="1.1" id="Capa_1" x="0px" y="0px" viewBox="0 0 512 512" style="enable-background:new 0 0 512 512;" xml:space="preserve" width="512" height="512">
<g id="Feminism_6_">
	<g>
		<path style="fill:#E5925A;" d="M166,136.5c0,0,17.028,96.453,45,135.75V435.5c0,8.284,6.716,15,15,15h60c8.284,0,15-6.716,15-15    V277.399c27.967-20.195,45-52.788,45-87.979V136.5H166z"/>
		<path style="fill:#FFBD86;" d="M195.157,166.488C178.816,166.04,166,152.223,166,135.876V92.124    c0-16.347,12.816-30.164,29.157-30.612C212.11,61.047,226,74.651,226,91.5v45C226,153.349,212.11,166.953,195.157,166.488z"/>
		<path style="fill:#FFBD86;" d="M255.157,166.488C238.816,166.04,226,152.223,226,135.876V92.124    c0-16.347,12.816-30.164,29.157-30.612C272.11,61.047,286,74.651,286,91.5v45C286,153.349,272.11,166.953,255.157,166.488z"/>
		<path style="fill:#F6A96C;" d="M286,136.5v-45c0-16.569-13.432-30-30-30v105C272.569,166.5,286,153.069,286,136.5z"/>
		<path style="fill:#F6A96C;" d="M315.157,166.488C298.816,166.04,286,152.223,286,135.876V92.124    c0-16.347,12.816-30.164,29.157-30.612C332.11,61.047,346,74.651,346,91.5v45C346,153.349,332.11,166.953,315.157,166.488z"/>
		<path style="fill:#FED2A4;" d="M286,136.5H166v52.92c0,16.198,3.606,31.848,10.227,45.992    c7.763,16.585,19.679,31.088,34.773,41.987V435.5c0,8.284,6.716,15,15,15h30V419c0,0,0-88.808,0-151.5c0-16.011,0-30.318,0-41.008    c0-16.569-13.431-29.992-30-29.992C259.14,196.5,286,169.64,286,136.5z"/>
	</g>
	<path style="fill:#61729B;" d="M496.606,331.501h-24.393l4.114-4.114c5.445-5.445,6.233-14.21,1.419-20.219   c-5.692-7.105-16.098-7.529-22.352-1.273L436,325.288l-19.394-19.394c-6.255-6.256-16.661-5.831-22.352,1.273   c-4.814,6.009-4.025,14.775,1.419,20.219l4.114,4.114h-47.574l4.114-4.114c5.445-5.445,6.233-14.21,1.419-20.219   c-5.692-7.105-16.098-7.529-22.352-1.273L316,325.288l-19.394-19.394c-6.255-6.256-16.661-5.831-22.352,1.273   c-4.814,6.009-4.025,14.775,1.419,20.219l4.114,4.114h-47.574l4.114-4.114c5.445-5.445,6.233-14.21,1.419-20.219   c-5.692-7.105-16.098-7.529-22.352-1.273L196,325.288l-19.394-19.394c-6.255-6.256-16.661-5.831-22.352,1.273   c-4.814,6.009-4.025,14.775,1.419,20.219l4.114,4.114h-47.574l4.114-4.114c5.445-5.445,6.233-14.21,1.419-20.219   c-5.692-7.105-16.098-7.529-22.352-1.273L76,325.288l-19.394-19.394c-6.255-6.256-16.661-5.831-22.352,1.273   c-4.814,6.009-4.025,14.775,1.419,20.219l4.114,4.114H15.394c-7.7,0-14.455,5.641-15.3,13.294   c-0.998,9.048,6.059,16.706,14.906,16.706h24.787l-4.118,4.118c-5.369,5.369-6.231,13.983-1.59,19.993   c3.032,3.926,7.476,5.889,11.921,5.889c3.839,0,7.678-1.464,10.606-4.394L76,367.713l19.394,19.394   c2.929,2.929,6.768,4.394,10.606,4.394c4.444,0,8.889-1.963,11.921-5.889c4.641-6.01,3.779-14.624-1.59-19.993l-4.118-4.118h47.574   l-4.118,4.118c-5.369,5.369-6.231,13.983-1.59,19.993c3.032,3.926,7.476,5.889,11.921,5.889c3.839,0,7.678-1.464,10.606-4.394   L196,367.713l19.394,19.394c2.929,2.929,6.768,4.394,10.606,4.394c4.444,0,8.889-1.963,11.921-5.889   c4.641-6.01,3.779-14.624-1.59-19.993l-4.118-4.118h47.574l-4.118,4.118c-5.369,5.369-6.231,13.983-1.59,19.993   c3.032,3.926,7.476,5.889,11.921,5.889c3.839,0,7.678-1.464,10.606-4.394L316,367.713l19.394,19.394   c2.929,2.929,6.768,4.394,10.606,4.394c4.444,0,8.889-1.963,11.921-5.889c4.641-6.01,3.779-14.624-1.59-19.993l-4.118-4.118h47.574   l-4.118,4.118c-5.369,5.369-6.231,13.983-1.59,19.993c3.032,3.926,7.476,5.889,11.921,5.889c3.839,0,7.678-1.464,10.606-4.394   L436,367.713l19.394,19.394c2.929,2.929,6.768,4.394,10.606,4.394c4.444,0,8.889-1.963,11.921-5.889   c4.641-6.01,3.779-14.624-1.59-19.993l-4.118-4.118H497c8.846,0,15.904-7.658,14.906-16.706   C511.061,337.141,504.306,331.501,496.606,331.501z"/>
	<path style="fill:#47568C;" d="M394.079,385.611c3.032,3.926,7.477,5.889,11.921,5.889c3.839,0,7.678-1.464,10.606-4.394   L436,367.713l19.394,19.394c2.929,2.929,6.768,4.394,10.606,4.394c4.444,0,8.889-1.963,11.921-5.889   c4.641-6.01,3.779-14.624-1.59-19.993l-4.118-4.118H497c8.846,0,15.904-7.658,14.906-16.706c-0.844-7.653-7.6-13.294-15.3-13.294   h-24.393l4.114-4.114c5.445-5.445,6.233-14.21,1.419-20.22c-5.692-7.104-16.098-7.529-22.353-1.273L436,325.288l-19.394-19.394   c-6.255-6.256-16.661-5.832-22.353,1.273c-4.814,6.01-4.025,14.775,1.419,20.22l4.114,4.114h-47.574l4.114-4.114   c5.445-5.445,6.233-14.21,1.419-20.22c-5.692-7.104-16.098-7.529-22.353-1.273L316,325.288l-19.394-19.394   c-6.255-6.256-16.661-5.832-22.353,1.273c-4.814,6.01-4.025,14.775,1.419,20.22l4.114,4.114H256v30h23.787l-4.118,4.118   c-5.369,5.369-6.231,13.983-1.59,19.993c3.032,3.926,7.477,5.889,11.921,5.889c3.839,0,7.678-1.464,10.606-4.394L316,367.713   l19.394,19.394c2.929,2.929,6.768,4.394,10.606,4.394c4.444,0,8.889-1.963,11.921-5.889c4.641-6.01,3.779-14.624-1.59-19.993   l-4.118-4.118h47.574l-4.118,4.118C390.3,370.987,389.438,379.602,394.079,385.611z"/>
</g>















</svg>
