<svg id="Capa_1" enable-background="new 0 0 507.058 507.058" height="512" viewBox="0 0 507.058 507.058" width="512" xmlns="http://www.w3.org/2000/svg"><g><path d="m.515 10.744 48.83 122.607c8.069 20.263 25.469 34.294 45.51 38.142l19.373-18.069 10.614 17.024 7.721-1.133 23.295-2.228 14.533-10.149-2.723-25.11 1.886-18.409c2.953-28.76-13.448-55.921-39.809-65.913l-9.253-3.514-21.87 7.117-8.538-18.65-81.098-30.751c-5.447-2.072-10.669 3.516-8.471 9.036z" fill="#f9f7f8"/><path d="m148.89 149.189-37.708 2.178c-20.041-3.848-37.442-17.88-45.51-38.142l-42.231-106.036-14.455-5.481c-5.448-2.071-10.67 3.516-8.472 9.037l48.83 122.607c8.069 20.263 25.469 34.294 45.51 38.142l19.373-18.069 10.614 17.024 7.721-1.133 23.295-2.228 14.533-10.149-1.053-9.706z" fill="#efedef"/><g id="XMLID_545_"><g><path d="m28.865 81.929 136.022-.144c3.978 9.494 5.724 20.087 4.735 30.91l-128.46.108z" fill="#e5c7be"/></g></g><g><g><g id="XMLID_548_"><g><path d="m90.082 32.459 30.408 11.533 4.351 126.457-10.075 1.486c-6.764.992-13.468.798-19.911-.441v-.01z" fill="#d9b3a6"/></g></g></g></g><path d="m176.993 196.924 26.974 31.434 277.067 275.135c3.167 3.145 8.211 3.051 11.266-.211l12.526-13.377c3.054-3.262 2.963-8.455-.205-11.601l-277.067-275.134s-28.335-30.575-27.517-32.351c.818-1.777-23.044 26.105-23.044 26.105z" fill="#c68d7a"/><path d="m220.945 245.218 39.722 39.446 24.391-24.391-39.722-39.445z" fill="#bc7c63"/><path d="m307.881 178.435-31.01 26.415-272.169 272.168c-3.112 3.111-3.112 8.156 0 11.268l12.76 12.76c3.111 3.111 8.156 3.111 11.267 0l272.169-272.169s30.2-27.791 31.911-26.942c1.71.85-24.928-23.5-24.928-23.5z" fill="#c68d7a"/><path d="m307.881 178.435-31.01 26.415-10.607 10.606 24.027 24.027 10.607-10.606s30.2-27.791 31.911-26.942c1.71.85-24.928-23.5-24.928-23.5z" fill="#bc7c63"/><path d="m491.854 5.269-119.93 46.66c-19.82 7.71-33.76 24.86-37.86 44.83l17.192 19.688-16.722 10.312.96 7.74 1.74 23.33 9.59 14.71 24.43-2.28 17.84 2.21c27.87 3.46 54.54-12.46 64.72-38.64l3.58-9.19-6.513-21.992 18.263-8.208 31.33-80.54c2.11-5.41-3.22-10.73-8.62-8.63z" fill="#f9f7f8"/><path d="m354.739 151.178-1.43-37.74c4.1-19.97 18.04-37.12 37.86-44.83l103.72-40.353 5.584-14.356c2.11-5.41-3.22-10.73-8.62-8.63l-119.93 46.66c-19.82 7.71-33.76 24.86-37.86 44.83l17.192 19.688-16.722 10.312.96 7.74 1.74 23.33 9.59 14.71 9.443-.881z" fill="#efedef"/><g><g><g><g id="XMLID_520_"><g><path d="m469.144 94.439-11.75 30.2-122.86 2.12-1.26-10.1c-.84-6.78-.53-13.48.79-19.9h.01z" fill="#d9b3a6"/></g></g></g><g id="XMLID_510_"><g><path d="m422.224 32.359-2.331 136.002c-9.29 3.81-19.607 5.369-30.097 4.189l2.228-128.441z" fill="#e5c7be"/></g></g><path d="m369.401 168.408-32.061-32.061c-5.936-5.936-15.559-5.936-21.495 0-5.936 5.936-5.936 15.559 0 21.495l32.061 32.061c5.936 5.936 15.559 5.936 21.495 0 5.935-5.935 5.935-15.559 0-21.495z" fill="#c68d7a"/><path d="m328.67 152.327 4.197-4.197c3.25-3.25 7.605-4.708 11.856-4.399l-7.384-7.384c-5.936-5.936-15.559-5.936-21.495 0s-5.936 15.559 0 21.495l8.819 8.819c-1.205-4.979.119-10.446 4.007-14.334z" fill="#bc7c63"/><path d="m347.905 189.904-32.061-32.061c-5.936-5.936-15.559-5.936-21.495 0-5.936 5.936-5.936 15.559 0 21.495l32.061 32.061c5.936 5.936 15.559 5.936 21.495 0 5.936-5.936 5.936-15.56 0-21.495z" fill="#c68d7a"/><path d="m326.41 211.399-32.061-32.061c-5.936-5.936-15.559-5.936-21.495 0-5.936 5.936-5.936 15.559 0 21.495l32.061 32.061c5.936 5.936 15.559 5.936 21.495 0 5.936-5.936 5.936-15.559 0-21.495z" fill="#c68d7a"/><g fill="#bc7c63"><path d="m308.318 176 4.042-4.041c3.643-3.643 8.674-5.04 13.39-4.211l-9.905-9.905c-5.936-5.936-15.56-5.936-21.495 0-5.936 5.936-5.936 15.56 0 21.495l9.708 9.708c-.704-4.616.705-9.492 4.26-13.046z"/><path d="m287.665 196.652 3.648-3.648c3.374-3.374 7.938-4.824 12.339-4.363l-9.304-9.304c-5.936-5.936-15.56-5.936-21.495 0s-5.936 15.56 0 21.495l11.034 11.034c-1.595-5.204-.34-11.095 3.778-15.214z"/></g></g></g><path d="m422.224 32.359-30.2 11.75-.422 24.331 30.205-11.752z" fill="#d9b3a6"/><path d="m354.543 108.492c1.248-4.241 2.95-8.32 5.06-12.172l-25.529.438h-.01c-1.32 6.42-1.63 13.12-.79 19.9l1.26 10.1 19.268-.333-.347-9.156c-.113-2.964.25-5.93 1.088-8.777z" fill="#d1a08f"/><path d="m176.993 196.924 26.974 31.434 10.797 10.722 23.587-25.188-10.797-10.722s-28.335-30.575-27.517-32.351c.818-1.777-23.044 26.105-23.044 26.105z" fill="#bc7c63"/><path d="m28.865 81.929 12.296 30.874 24.334-.021-12.298-30.879z" fill="#d9b3a6"/><path d="m106.215 150.189c-4.263-1.206-8.372-2.882-12.262-4.982l.902 26.277v.01c6.443 1.239 13.148 1.433 19.911.441l10.076-1.486-.682-19.832-9.148.528c-2.964.172-5.936-.146-8.797-.956z" fill="#d1a08f"/><path d="m209.615 177.23-31.474 33.61c-5.827 6.222-5.652 16.131.39 22.131 6.043 6 15.665 5.82 21.492-.402l31.474-33.61c5.827-6.222 5.652-16.131-.39-22.131-6.043-6.001-15.665-5.821-21.492.402z" fill="#c68d7a"/><path d="m195.575 217.398-3.714-3.688c-3.434-3.41-4.967-8.082-4.586-12.623l-9.133 9.753c-5.827 6.223-5.652 16.131.39 22.132 6.042 6 15.665 5.82 21.492-.402l10.832-11.567c-5.176 1.74-11.089.558-15.281-3.605z" fill="#bc7c63"/><path d="m165.851 133.771-31.474 33.61c-5.827 6.222-5.652 16.131.39 22.131 6.043 6 15.665 5.82 21.492-.402l31.474-33.61c5.827-6.222 5.652-16.131-.39-22.131-6.043-6.001-15.665-5.821-21.492.402z" fill="#c68d7a"/><path d="m150.512 176.008-4.273-4.243c-3.309-3.286-4.845-7.743-4.614-12.125l-7.248 7.741c-5.827 6.222-5.652 16.131.39 22.131s15.664 5.82 21.492-.402l8.657-9.245c-4.956 1.335-10.446.073-14.404-3.857z" fill="#bc7c63"/><path d="m187.733 155.5-31.474 33.61c-5.827 6.222-5.652 16.131.39 22.131 6.043 6 15.665 5.82 21.492-.402l31.474-33.61c5.827-6.222 5.652-16.131-.39-22.131-6.043-6-15.665-5.82-21.492.402z" fill="#c68d7a"/><path d="m174.55 196.52-4.114-4.086c-3.709-3.683-5.197-8.836-4.454-13.707l-9.723 10.383c-5.827 6.223-5.652 16.131.39 22.131 6.042 6 15.665 5.82 21.492-.402l9.53-10.177c-4.602.811-9.502-.549-13.121-4.142z" fill="#bc7c63"/></g></svg>