<svg height="512pt" viewBox="0 -35 512.01409 512" width="512pt" xmlns="http://www.w3.org/2000/svg"><path d="m506.792969 52.375-174.347657 180.085938-47.050781-47.054688v-.085938l174.433594-180.082031c3.296875-3.347656 7.796875-5.2304685 12.492187-5.2304685 4.695313 0 9.195313 1.8828125 12.492188 5.2304685l21.980469 22.066407c3.339843 3.316406 5.222656 7.828124 5.222656 12.535156 0 4.707031-1.882813 9.222656-5.222656 12.535156zm0 0" fill="#cb8252"/><path d="m404.832031 264.855469h18.890625c48.753906 0 88.277344 39.523437 88.277344 88.277343 0 48.753907-39.523438 88.273438-88.277344 88.273438h-88.273437zm0 0" fill="#cb8252"/><path d="m334.035156 388.796875c1.589844 2.648437 3.003906 5.117187 4.238282 7.324219 2.261718 4.082031 6.058593 7.09375 10.550781 8.367187 4.488281 1.277344 9.300781.710938 13.371093-1.570312 18.027344-11.039063 34.554688-24.363281 49.171876-39.632813 4.5-4.503906 8.5625-8.828125 12.269531-12.890625 10.347656-11.09375 19.492187-23.257812 27.277343-36.28125 4.722657-8.484375 1.679688-19.191406-6.796874-23.921875-2.207032-1.234375-4.589844-2.558594-7.238282-4.148437-2.648437-1.589844-5.296875-3.179688-8.121094-4.945313-7.152343-4.414062-15.183593-9.796875-23.925781-16.242187-17.703125-12.867188-34.378906-27.09375-49.875-42.546875l-70.445312-70.445313c-7.777344-7.769531-20.378907-7.769531-28.160157 0l-56.320312 56.40625c-7.769531 7.78125-7.769531 20.382813 0 28.160157l28.425781 28.425781zm0 0" fill="#e64c3c"/><path d="m450.914062 314.113281c-7.785156 13.023438-16.929687 25.1875-27.277343 36.28125-3.707031 4.0625-7.769531 8.386719-12.269531 12.890625-14.617188 15.269532-31.144532 28.59375-49.171876 39.632813-4.070312 2.28125-8.882812 2.847656-13.371093 1.570312-4.492188-1.273437-8.289063-4.285156-10.550781-8.367187-1.234376-2.207032-2.648438-4.675782-4.238282-7.324219-1.148437-1.941406-2.382812-3.972656-3.707031-6.179687.441406-1.148438.882813-2.296876 1.234375-3.53125 18.789062-12.703126 36.214844-27.316407 51.996094-43.609376 16.992187-16.433593 32.148437-34.664062 45.199218-54.378906 2.824219 1.765625 5.558594 3.445313 8.121094 4.945313 2.558594 1.5 5.03125 2.914062 7.238282 4.148437 8.476562 4.730469 11.519531 15.4375 6.796874 23.921875zm0 0" fill="#d1d4d1"/><g fill="#805333"><path d="m423.722656 353.132812c0 31.535157-16.824218 60.679688-44.136718 76.445313-27.3125 15.769531-60.964844 15.769531-88.277344 0 18.179687-10.515625 32.015625-27.164063 39.019531-46.960937 1.324219 2.207031 2.558594 4.238281 3.707031 6.179687 1.589844 2.648437 3.003906 5.117187 4.238282 7.324219 2.261718 4.082031 6.058593 7.09375 10.550781 8.367187 4.488281 1.277344 9.300781.710938 13.371093-1.570312 18.027344-11.039063 34.554688-24.363281 49.171876-39.632813 4.5-4.503906 8.5625-8.828125 12.269531-12.890625.085937.882813.085937 1.855469.085937 2.738281zm0 0"/><path d="m467.863281 397.269531h-8.828125c-4.875 0-8.828125-3.953125-8.828125-8.828125s3.953125-8.828125 8.828125-8.828125h8.828125c4.875 0 8.828125 3.953125 8.828125 8.828125s-3.953125 8.828125-8.828125 8.828125zm0 0"/><path d="m511.558594 361.960938h-52.523438c-4.875 0-8.828125-3.953126-8.828125-8.828126s3.953125-8.828124 8.828125-8.828124h52.523438zm0 0"/></g><path d="m88.277344 264.855469h158.894531c45.328125.023437 83.277344 34.351562 87.835937 79.449219.265626 2.914062.441407 5.824218.441407 8.828124 0 2.949219-.175781 5.898438-.53125 8.828126-.476563 5.8125-1.601563 11.558593-3.355469 17.125-.351562 1.234374-.792969 2.382812-1.234375 3.53125-12.453125 35.242187-45.777344 58.800781-83.15625 58.789062h-158.894531zm0 0" fill="#cb8252"/><path d="m264.828125 317.820312h-61.792969c-4.875 0-8.828125-3.949218-8.828125-8.824218 0-4.878906 3.953125-8.828125 8.828125-8.828125h61.792969c4.875 0 8.828125 3.949219 8.828125 8.828125 0 4.875-3.953125 8.824218-8.828125 8.824218zm0 0" fill="#805333"/><path d="m335.449219 353.132812c0 2.949219-.175781 5.898438-.53125 8.828126h-96.574219c-4.875 0-8.828125-3.953126-8.828125-8.828126s3.953125-8.828124 8.828125-8.828124h96.664062c.265626 2.914062.441407 5.824218.441407 8.828124zm0 0" fill="#805333"/><path d="m273.65625 406.097656h-70.621094c-4.875 0-8.828125-3.953125-8.828125-8.828125s3.953125-8.828125 8.828125-8.828125h70.621094c4.875 0 8.828125 3.953125 8.828125 8.828125s-3.953125 8.828125-8.828125 8.828125zm0 0" fill="#805333"/><path d="m176.550781 353.132812c0 48.753907-39.523437 88.273438-88.273437 88.273438-48.753906 0-88.277344-39.519531-88.277344-88.273438 0-48.753906 39.523438-88.277343 88.277344-88.277343 48.75 0 88.273437 39.523437 88.273437 88.277343zm0 0" fill="#fdd7ad"/><path d="m140.269531 340.683594c-8.675781-27.5-36.398437-44.308594-64.792969-39.28125-27.464843 9.054687-44.066406 36.953125-38.929687 65.414062 6.445313 19.683594 25.863281 39.28125 45.375 39.28125 16.996094.8125 33.449219-6.089844 44.777344-18.789062 11.324219-12.695313 16.3125-29.832032 13.570312-46.625zm-54.113281 30.105468c-7.144531-1.042968-13.039062-6.144531-15.09375-13.066406-1.726562-9.488281 3.8125-18.796875 12.976562-21.804687 9.449219-1.71875 18.699219 3.890625 21.539063 13.066406.9375 5.59375-.710937 11.316406-4.488281 15.554687-3.773438 4.238282-9.265625 6.535157-14.933594 6.25zm54.113281-30.105468c-8.675781-27.5-36.398437-44.308594-64.792969-39.28125-27.464843 9.054687-44.066406 36.953125-38.929687 65.414062 6.445313 19.683594 25.863281 39.28125 45.375 39.28125 16.996094.8125 33.449219-6.089844 44.777344-18.789062 11.324219-12.695313 16.3125-29.832032 13.570312-46.625zm-54.113281 30.105468c-7.144531-1.042968-13.039062-6.144531-15.09375-13.066406-1.726562-9.488281 3.8125-18.796875 12.976562-21.804687 9.449219-1.71875 18.699219 3.890625 21.539063 13.066406.9375 5.59375-.710937 11.316406-4.488281 15.554687-3.773438 4.238282-9.265625 6.535157-14.933594 6.25zm0 0" fill="#805333"/><path d="m86.15625 370.789062c-7.144531-1.042968-13.039062-6.144531-15.09375-13.066406-1.726562-9.488281 3.8125-18.796875 12.976562-21.804687 9.449219-1.71875 18.699219 3.890625 21.539063 13.066406.9375 5.59375-.710937 11.316406-4.488281 15.554687-3.773438 4.238282-9.265625 6.535157-14.933594 6.25zm0 0" fill="#fdd7ad"/></svg>