<svg height="469pt" viewBox="0 0 469 469.33336" width="469pt" xmlns="http://www.w3.org/2000/svg"><path d="m170.832031 256c-42.664062 0-99.359375 9.449219-99.359375 9.449219-41.148437 6.859375-71.304687 42.457031-71.304687 84.171875v13.046875c0 23.5625 19.101562 42.664062 42.664062 42.664062h256c23.566407 0 42.667969-19.101562 42.667969-42.664062v-13.046875c0-41.714844-30.15625-77.3125-71.304688-84.171875 0 0-56.695312-9.449219-99.363281-9.449219zm0 0" fill="#ffbe00"/><path d="m170.832031 170.667969c23.566407 0 42.667969 19.101562 42.667969 42.664062v42.667969c0 23.5625-19.101562 42.667969-42.667969 42.667969-23.5625 0-42.664062-19.105469-42.664062-42.667969v-42.667969c0-23.5625 19.101562-42.664062 42.664062-42.664062zm0 0" fill="#ffa300"/><path d="m96.167969 128h10.664062v64h-10.664062c-17.675781 0-32-14.328125-32-32s14.324219-32 32-32zm0 0" fill="#ffbe00"/><path d="m245.5 192h-10.667969v-64h10.667969c17.671875 0 32 14.328125 32 32s-14.328125 32-32 32zm0 0" fill="#ffa300"/><path d="m170.832031 21.332031c47.128907 0 85.335938 38.207031 85.335938 85.335938v64c0 47.128906-38.207031 85.332031-85.335938 85.332031-47.128906 0-85.332031-38.203125-85.332031-85.332031v-64c0-47.128907 38.203125-85.335938 85.332031-85.335938zm0 0" fill="#ffc200"/><path d="m213.5 33.167969v73.5h-21.332031c-11.785157 0-21.335938 9.550781-21.335938 21.332031v85.332031c21.335938 0 21.335938 21.335938 21.335938 21.335938s0 21.332031-21.335938 21.332031c47.128907 0 85.335938-38.203125 85.335938-85.332031v-64c0-31.507813-17.269531-58.71875-42.667969-73.5zm0 0" fill="#ffbe00"/><path d="m213.5 138.667969c0 5.890625-4.777344 10.664062-10.667969 10.664062s-10.664062-4.773437-10.664062-10.664062 4.773437-10.667969 10.664062-10.667969 10.667969 4.777344 10.667969 10.667969zm0 0" fill="#0784ff"/><path d="m149.5 138.667969c0 5.890625-4.777344 10.664062-10.667969 10.664062s-10.664062-4.773437-10.664062-10.664062 4.773437-10.667969 10.664062-10.667969 10.667969 4.777344 10.667969 10.667969zm0 0" fill="#0784ff"/><path d="m160.167969 192h21.332031c5.890625 0 10.667969 4.777344 10.667969 10.667969s-4.777344 10.664062-10.667969 10.664062h-21.332031c-5.890625 0-10.667969-4.773437-10.667969-10.664062s4.777344-10.667969 10.667969-10.667969zm0 0" fill="#ffa300"/><path d="m106.832031 373.332031c0 5.890625-4.773437 10.667969-10.664062 10.667969s-10.667969-4.777344-10.667969-10.667969 4.777344-10.664062 10.667969-10.664062 10.664062 4.773437 10.664062 10.664062zm0 0" fill="#f98b00"/><path d="m256.167969 373.332031c0 5.890625-4.777344 10.667969-10.667969 10.667969s-10.667969-4.777344-10.667969-10.667969 4.777344-10.664062 10.667969-10.664062 10.667969 4.773437 10.667969 10.664062zm0 0" fill="#ffa300"/><path d="m170.832031 106.667969s0-21.335938 21.335938-21.335938c21.332031 0 21.332031 21.335938 21.332031 21.335938 0 21.332031 21.332031 21.332031 21.332031 21.332031s21.335938 0 21.335938 21.332031c0 21.335938 21.332031 21.335938 21.332031 21.335938s21.332031 0 21.332031-21.335938c0 0 21.335938 0 21.335938-21.332031 0 0-21.335938 0-21.335938-21.332031 0-42.667969-42.664062-106.667969-128-106.667969-64 0-128 42.667969-128 128 0 21.332031 21.335938 21.332031 21.335938 21.332031h21.332031s21.332031 0 21.332031-21.332031 21.335938-21.332031 21.335938-21.332031 0 21.332031 21.332031 21.332031c0 0 0-21.332031 21.332031-21.332031zm0 0" fill="#f98b00"/><path d="m144.121094 26.710938c-9.800782-9.800782-29.667969-5.828126-44.371094 8.875-14.703125 14.703124-18.675781 34.566406-8.871094 44.371093 9.800782 9.800781 29.667969 5.828125 44.371094-8.875s18.675781-34.570312 8.871094-44.371093zm0 0" fill="#ffa300"/><path d="m298.832031 298.667969c-42.664062 0-99.359375 9.449219-99.359375 9.449219-41.148437 6.855468-71.304687 42.457031-71.304687 84.171874v13.042969c0 23.566407 19.101562 42.667969 42.664062 42.667969h256c23.566407 0 42.667969-19.101562 42.667969-42.667969v-13.042969c0-41.714843-30.15625-77.316406-71.304688-84.171874 0 0-56.695312-9.449219-99.363281-9.449219zm0 0" fill="#ffd80c"/><path d="m208.894531 324.605469c-9.132812-9.128907-28.800781-4.265625-43.925781 10.863281-15.128906 15.125-19.992188 34.792969-10.863281 43.925781 9.132812 9.128907 28.800781 4.265625 43.925781-10.863281 15.128906-15.125 19.992188-34.792969 10.863281-43.925781zm0 0" fill="#ffec6c"/><path d="m298.832031 213.332031c23.566407 0 42.667969 19.105469 42.667969 42.667969v42.667969c0 23.5625-19.101562 42.664062-42.667969 42.664062-23.5625 0-42.664062-19.101562-42.664062-42.664062v-42.667969c0-23.5625 19.101562-42.667969 42.664062-42.667969zm0 0" fill="#ffc200"/><path d="m224.167969 170.667969h10.664062v64h-10.664062c-17.675781 0-32-14.328125-32-32 0-17.675781 14.324219-32 32-32zm0 0" fill="#ffd80c"/><path d="m373.5 234.667969h-10.667969v-64h10.667969c17.671875 0 32 14.324219 32 32 0 17.671875-14.328125 32-32 32zm0 0" fill="#ffc200"/><path d="m298.832031 64c47.128907 0 85.335938 38.203125 85.335938 85.332031v64c0 47.128907-38.207031 85.335938-85.335938 85.335938-47.128906 0-85.332031-38.207031-85.332031-85.335938v-64c0-47.128906 38.203125-85.332031 85.332031-85.332031zm0 0" fill="#ffec6c"/><path d="m341.5 75.835938v73.496093h-21.332031c-11.785157 0-21.335938 9.550781-21.335938 21.335938v85.332031c21.335938 0 21.335938 21.332031 21.335938 21.332031s0 21.335938-21.335938 21.335938c47.128907 0 85.335938-38.207031 85.335938-85.335938v-64c0-31.503906-17.269531-58.714843-42.667969-73.496093zm0 0" fill="#ffd80c"/><path d="m341.5 181.332031c0 5.890625-4.777344 10.667969-10.667969 10.667969s-10.664062-4.777344-10.664062-10.667969 4.773437-10.664062 10.664062-10.664062 10.667969 4.773437 10.667969 10.664062zm0 0" fill="#0784ff"/><path d="m277.5 181.332031c0 5.890625-4.777344 10.667969-10.667969 10.667969s-10.664062-4.777344-10.664062-10.667969 4.773437-10.664062 10.664062-10.664062 10.667969 4.773437 10.667969 10.664062zm0 0" fill="#0784ff"/><path d="m288.167969 234.667969h21.332031c5.890625 0 10.667969 4.773437 10.667969 10.664062s-4.777344 10.667969-10.667969 10.667969h-21.332031c-5.890625 0-10.667969-4.777344-10.667969-10.667969s4.777344-10.664062 10.667969-10.664062zm0 0" fill="#ffc200"/><path d="m234.832031 416c0 5.890625-4.773437 10.667969-10.664062 10.667969s-10.667969-4.777344-10.667969-10.667969 4.777344-10.667969 10.667969-10.667969 10.664062 4.777344 10.664062 10.667969zm0 0" fill="#ffa300"/><path d="m384.167969 416c0 5.890625-4.777344 10.667969-10.667969 10.667969s-10.667969-4.777344-10.667969-10.667969 4.777344-10.667969 10.667969-10.667969 10.667969 4.777344 10.667969 10.667969zm0 0" fill="#ffa300"/><path d="m298.832031 149.332031s0-21.332031 21.335938-21.332031c21.332031 0 21.332031 21.332031 21.332031 21.332031 0 21.335938 21.332031 21.335938 21.332031 21.335938s21.335938 0 21.335938 21.332031 21.332031 21.332031 21.332031 21.332031 21.332031 0 21.332031-21.332031c0 0 21.335938 0 21.335938-21.332031 0 0-21.335938 0-21.335938-21.335938 0-42.664062-42.664062-106.664062-128-106.664062-64 0-128 42.664062-128 128 0 21.332031 21.335938 21.332031 21.335938 21.332031h21.332031s21.332031 0 21.332031-21.332031c0-21.335938 21.335938-21.335938 21.335938-21.335938s0 21.335938 21.332031 21.335938c0 0 0-21.335938 21.332031-21.335938zm0 0" fill="#ffa300"/><path d="m272.121094 69.378906c-9.800782-9.804687-29.667969-5.832031-44.371094 8.871094s-18.675781 34.570312-8.871094 44.371094c9.800782 9.804687 29.667969 5.832031 44.371094-8.871094s18.675781-34.570312 8.871094-44.371094zm0 0" fill="#ffbe00"/><path d="m213.5 426.667969c-8.628906-.003907-16.40625-5.199219-19.707031-13.171875-3.300781-7.96875-1.476563-17.144532 4.625-23.246094l51.5-51.5c11.972656-12.039062 28.265625-18.792969 45.25-18.75h92.664062c5.65625-.015625 11.074219-2.261719 15.085938-6.25l30.164062-30.167969c8.332031-8.328125 21.835938-8.328125 30.167969 0 8.332031 8.332031 8.332031 21.835938 0 30.167969l-30.167969 30.167969c-11.972656 12.039062-28.265625 18.789062-45.25 18.75h-92.664062c-5.65625.015625-11.074219 2.261719-15.085938 6.25l-51.5 51.5c-3.996093 4.007812-9.421875 6.253906-15.082031 6.25zm0 0" fill="#14a142"/><g fill="#006236"><path d="m256.707031 447.457031c-5.65625.007813-11.085937-2.242187-15.082031-6.25l-21.332031-21.332031c-8.332031-8.332031-8.332031-21.835938 0-30.167969 8.328125-8.328125 21.835937-8.328125 30.164062 0l21.335938 21.335938c6.097656 6.101562 7.921875 15.273437 4.621093 23.246093-3.300781 7.96875-11.078124 13.167969-19.707031 13.167969zm0 0"/><path d="m320.707031 426.125c-5.65625.007812-11.085937-2.242188-15.082031-6.25l-42.667969-42.667969c-8.320312-8.332031-8.316406-21.832031.007813-30.15625 8.328125-8.328125 21.828125-8.332031 30.160156-.007812l42.667969 42.664062c6.097656 6.101563 7.921875 15.277344 4.621093 23.25-3.300781 7.96875-11.078124 13.167969-19.707031 13.167969zm0 0"/><path d="m406.042969 340.792969c-5.660157.003906-11.089844-2.242188-15.085938-6.25l-42.664062-42.667969c-8.332031-8.332031-8.332031-21.835938 0-30.167969 8.328125-8.328125 21.835937-8.328125 30.164062 0l42.667969 42.667969c6.101562 6.101562 7.925781 15.277344 4.621094 23.246094-3.300782 7.972656-11.078125 13.167968-19.703125 13.171875zm0 0"/><path d="m427.375 276.792969c-5.660156.003906-11.085938-2.242188-15.082031-6.25l-21.335938-21.335938c-8.320312-8.332031-8.316406-21.832031.007813-30.15625 8.328125-8.328125 21.828125-8.332031 30.160156-.007812l21.332031 21.332031c6.101563 6.101562 7.925781 15.277344 4.625 23.246094-3.300781 7.972656-11.078125 13.167968-19.707031 13.171875zm0 0"/></g><path d="m298.832031 469.332031c-8.625 0-16.402343-5.199219-19.707031-13.167969-3.300781-7.972656-1.476562-17.144531 4.625-23.246093l30.167969-30.167969c3.984375-4.007812 6.230469-9.429688 6.25-15.082031v-92.667969c-.042969-16.980469 6.707031-33.273438 18.75-45.25l51.5-51.5c8.332031-8.324219 21.832031-8.320312 30.15625.007812 8.328125 8.328126 8.332031 21.828126.007812 30.160157l-51.5 51.5c-3.984375 4.007812-6.230469 9.425781-6.25 15.082031v92.667969c.042969 16.980469-6.707031 33.273437-18.75 45.25l-30.164062 30.164062c-3.996094 4.007813-9.425781 6.257813-15.085938 6.25zm0 0" fill="#4cc66e"/><path d="m80.894531 281.941406c-9.132812-9.132812-28.800781-4.269531-43.925781 10.859375-15.128906 15.128907-19.992188 34.792969-10.863281 43.925781 9.132812 9.128907 28.800781 4.269532 43.925781-10.859374 15.128906-15.128907 19.992188-34.796876 10.863281-43.925782zm0 0" fill="#ffd80c"/></svg>