<svg id="Capa_1" enable-background="new 0 0 512 512" height="512" viewBox="0 0 512 512" width="512" xmlns="http://www.w3.org/2000/svg"><g><path d="m331.125 344.43c2.445-5.712 4.899-11.354 7.357-16.925-3.319-26.986-15.187-53.097-33.484-74.946-12.962-15.478-21.335-34.796-21.335-58.878 0-55.304 39.25-83.503 86.015-97.474 45.932-13.721 42.47-79.81-4.536-89.211-164.018-32.802-344.87 51.108-361.896 223.005-8.573 86.556 29.227 158.47 81.035 215.032 54.771 59.798 145.849 61.673 203.676 12.327 11.068-33.518 25.743-72.223 43.168-112.93z" fill="#dbedff"/><path d="m161.051 445.033c-51.807-56.561-89.608-128.475-81.035-215.032 13.264-133.914 125.953-214.425 252.652-227.959-154.586-16.446-313.514 67.348-329.422 227.959-8.573 86.557 29.228 158.471 81.035 215.032 38.803 42.364 95.827 55.647 146.342 42.25-25.716-6.87-49.97-20.849-69.572-42.25z" fill="#b5dcff"/><circle cx="211.48" cy="91.985" fill="#f4dd45" r="33.899"/><circle cx="196.167" cy="394.804" fill="#64d465" r="39.91"/><circle cx="127.944" cy="178.346" fill="#f87c68" r="42.777"/><circle cx="113.48" cy="300.989" fill="#7fb3fa" r="42.777"/><path d="m215.707 91.985c0-11.653 5.881-21.93 14.836-28.031-5.432-3.701-11.994-5.867-19.063-5.867-18.722 0-33.899 15.177-33.899 33.899s15.177 33.899 33.899 33.899c7.069 0 13.631-2.166 19.063-5.868-8.954-6.102-14.836-16.379-14.836-28.032z" fill="#fcc101"/><path d="m194.383 394.804c0-15.137 8.428-28.305 20.847-35.07-5.664-3.086-12.159-4.84-19.063-4.84-22.041 0-39.91 17.868-39.91 39.91s17.868 39.91 39.91 39.91c6.904 0 13.399-1.754 19.063-4.84-12.419-6.765-20.847-19.933-20.847-35.07z" fill="#40c140"/><path d="m123.293 178.346c0-16.773 9.659-31.283 23.714-38.294-5.741-2.864-12.211-4.483-19.063-4.483-23.625 0-42.777 19.152-42.777 42.777s19.152 42.777 42.777 42.777c6.852 0 13.322-1.62 19.063-4.483-14.055-7.011-23.714-21.521-23.714-38.294z" fill="#ec625e"/><path d="m108.829 300.989c0-16.774 9.659-31.283 23.714-38.294-5.741-2.863-12.211-4.483-19.063-4.483-23.625 0-42.777 19.152-42.777 42.777s19.152 42.777 42.777 42.777c6.852 0 13.322-1.62 19.063-4.483-14.054-7.011-23.714-21.521-23.714-38.294z" fill="#64a6f4"/><path d="m420.433 281.068-46.359-19.23-6.628 1.654c-12.265 24.587-24.923 51.908-37.35 80.938-21.323 49.811-38.534 96.637-50.048 134.611-3.655 12.056 2.058 24.973 13.413 30.43 12.145 5.837 26.725 1.252 33.355-10.479 19.52-34.538 41.508-79.298 62.816-129.076 12.427-29.031 23.458-57.049 32.781-82.895z" fill="#ce775f"/><path d="m309.408 482.897c11.514-37.975 28.725-84.8 50.048-134.611 11.883-27.76 23.976-53.95 35.736-77.687l-21.119-8.76-6.628 1.654c-12.265 24.587-24.923 51.908-37.35 80.938-21.323 49.811-38.534 96.637-50.048 134.611-3.655 12.056 2.058 24.973 13.413 30.43 7.58 3.643 16.109 3.225 23.061-.454-7.009-6.496-10.009-16.571-7.113-26.121z" fill="#c0694e"/><path d="m424.504 160.215 33.247 14.232c1.513.648 2.776 1.632 3.757 2.822 11.864-6.765 32.954-21.475 43.001-44.947 11.07-25.861 2.617-72.791-1.901-93.178-1.11-5.01-6.778-7.436-11.169-4.781-17.87 10.803-57.661 37.082-68.731 62.942-10.047 23.472-6.133 48.885-2.839 62.139 1.539-.111 3.123.123 4.635.771z" fill="#ffe97b"/><path d="m448.807 113.445c9.101-21.261 37.606-42.796 57.391-55.79-1.209-7.248-2.511-13.642-3.59-18.511-1.11-5.01-6.778-7.436-11.169-4.781-17.87 10.803-57.661 37.082-68.731 62.942-10.047 23.471-6.133 48.885-2.839 62.139 1.538-.112 3.122.123 4.635.77l19.975 8.55c-2.67-14.096-4.196-35.404 4.328-55.319z" fill="#f4dd45"/><path d="m407.688 190.078c-12.237 19.743-25.971 44.748-40.243 73.413l54.968 23.53c10.889-30.113 19.501-57.311 25.34-79.793-1.238-.025-2.489-.275-3.695-.791l-33.247-14.232c-1.206-.516-2.251-1.249-3.123-2.127z" fill="#477b9e"/><path d="m396.806 267.347c12.513-25.133 24.612-47.45 35.651-65.875l-21.647-9.266c-1.205-.516-2.25-1.249-3.123-2.127-12.237 19.743-25.971 44.748-40.243 73.413l25.804 11.046c1.19-2.42 2.376-4.822 3.558-7.191z" fill="#3f6d8e"/><path d="m458.193 173.417-33.247-14.232c-5.088-2.178-10.979.181-13.157 5.269l-6.687 15.622c-2.178 5.088.181 10.979 5.269 13.157l33.247 14.232c5.088 2.178 10.979-.181 13.157-5.269l6.687-15.622c2.178-5.088-.181-10.978-5.269-13.157z" fill="#dbedff"/><path d="m429.905 190.755 7.181-16.775c1.438-3.36 4.386-5.605 7.712-6.297l-19.852-8.498c-5.088-2.178-10.979.181-13.157 5.269l-6.687 15.622c-2.178 5.088.181 10.979 5.269 13.157l21.781 9.324c-2.987-3.019-4.022-7.657-2.247-11.802z" fill="#b5dcff"/></g></svg>