<?xml version="1.0" encoding="iso-8859-1"?>
<!-- Generator: Adobe Illustrator 19.0.0, SVG Export Plug-In . SVG Version: 6.00 Build 0)  -->
<svg version="1.1" id="Capa_1" xmlns="http://www.w3.org/2000/svg" xmlns:xlink="http://www.w3.org/1999/xlink" x="0px" y="0px"
	 viewBox="0 0 512 512" style="enable-background:new 0 0 512 512;" xml:space="preserve">
<path style="fill:#C27749;" d="M316.892,289.237v199.514l25.24,8.413c3.988,1.329,6.143,5.64,4.815,9.628
	c-1.329,3.988-5.642,6.144-9.628,4.815l-30.444-10.149c-3.108-1.036-5.204-3.945-5.204-7.221V289.237H316.892z"/>
<g>
	<path style="fill:#E18F4E;" d="M233.166,180.138c-46.167,0-83.726-37.56-83.726-83.726c0-4.205-3.408-7.611-7.611-7.611
		s-7.611,3.407-7.611,7.611c0,54.561,44.388,98.949,98.949,98.949h45.669v-15.223H233.166z"/>
	<path style="fill:#E18F4E;" d="M408.23,149.692h-30.446c-4.205,0-7.611,3.407-7.611,7.611s3.407,7.611,7.611,7.611h30.446
		c4.197,0,7.611,3.414,7.611,7.611s-3.414,7.611-7.611,7.611H278.834v15.223H408.23c12.59,0,22.834-10.244,22.834-22.834
		S420.821,149.692,408.23,149.692z"/>
</g>
<rect x="385.395" y="91.338" style="fill:#FFA754;" width="15.223" height="65.966"/>
<polygon style="fill:#FFE2A8;" points="301.669,456.689 278.834,456.689 278.834,365.351 324.503,365.351 "/>
<path style="fill:#E18F4E;" d="M240.777,289.237v199.514l-25.24,8.413c-3.988,1.329-6.143,5.64-4.815,9.628
	c1.329,3.988,5.642,6.144,9.628,4.815l30.444-10.149c3.108-1.036,5.204-3.945,5.204-7.221V289.237H240.777z"/>
<polygon style="fill:#C27749;" points="301.669,167.453 278.835,167.453 248.389,228.344 329.578,228.344 "/>
<path style="fill:#E18F4E;" d="M253.463,167.453c-11.21,0-20.297,9.087-20.297,20.297v10.149l45.669,30.446v-60.892H253.463z"/>
<polygon style="fill:#FFCB63;" points="248.389,289.236 324.503,289.236 324.503,197.899 278.834,197.899 "/>
<rect x="233.166" y="197.899" style="fill:#FFE2A8;" width="45.669" height="91.338"/>
<polygon style="fill:#FFA754;" points="324.503,258.79 278.834,258.79 248.389,327.294 278.834,395.797 324.503,395.797 "/>
<path style="fill:#FFCB63;" d="M278.834,258.79h-45.669c-9.468,10.732-15.223,24.818-15.223,40.255v96.752h60.892V258.79z"/>
<path style="fill:#FFF0D3;" d="M319.429,167.453h-17.76v289.236h38.057V187.75C339.726,176.54,330.639,167.453,319.429,167.453z"/>
<circle style="fill:#40211D;" cx="228.091" cy="111.635" r="25.372"/>
<path style="fill:#C27749;" d="M278.834,55.818v81.189c25.222,0,45.669-20.446,45.669-45.669c0-5.339-0.926-10.46-2.609-15.223
	L278.834,55.818z"/>
<path style="fill:#E18F4E;" d="M235.775,76.115c-1.684,4.763-2.609,9.884-2.609,15.223c0,25.222,20.446,45.669,45.669,45.669
	c8.407,0,15.223-20.446,15.223-45.669c0-5.339-0.309-10.46-0.87-15.223l-14.353-20.297L235.775,76.115z"/>
<path style="fill:#40211D;" d="M278.834,45.669l14.353,30.446h28.706C315.624,58.379,298.718,45.669,278.834,45.669z"/>
<path style="fill:#60312C;" d="M278.834,45.669c-19.883,0-36.79,12.71-43.06,30.446h57.413
	C291.098,58.379,285.463,45.669,278.834,45.669z"/>
<path style="fill:#FFF0D3;" d="M408.23,45.669c0,0,0,22.039,0,30.446l-15.223,15.223l-15.223-15.223c0-8.407,0-30.446,0-30.446
	H408.23z"/>
<g>
	<path style="fill:#FFCB63;" d="M377.784,76.115c0,0,0,11.89,0,20.297s6.816,15.223,15.223,15.223s15.223-6.816,15.223-15.223
		s0-20.297,0-20.297H377.784z"/>
	<circle style="fill:#FFCB63;" cx="141.828" cy="15.223" r="15.223"/>
</g>
<circle style="fill:#49C9FF;" cx="96.159" cy="60.892" r="15.223"/>
<circle style="fill:#FF6753;" cx="96.159" cy="121.784" r="7.611"/>
<circle style="fill:#9DB55F;" cx="187.497" cy="60.892" r="7.611"/>
<circle style="fill:#FF6753;" cx="96.159" cy="15.223" r="7.611"/>
<g>
</g>
<g>
</g>
<g>
</g>
<g>
</g>
<g>
</g>
<g>
</g>
<g>
</g>
<g>
</g>
<g>
</g>
<g>
</g>
<g>
</g>
<g>
</g>
<g>
</g>
<g>
</g>
<g>
</g>
</svg>
