<?xml version="1.0" encoding="iso-8859-1"?>
<!-- Generator: Adobe Illustrator 19.0.0, SVG Export Plug-In . SVG Version: 6.00 Build 0)  -->
<svg version="1.1" id="Capa_1" xmlns="http://www.w3.org/2000/svg" xmlns:xlink="http://www.w3.org/1999/xlink" x="0px" y="0px"
	 viewBox="0 0 512 512" style="enable-background:new 0 0 512 512;" xml:space="preserve">
<path style="fill:#E0E0E2;" d="M469.149,104.457H0.037c0,0,0.401,279.419,0,294.88c-0.003,0.133-0.003,0.266,0.001,0.398
	c0.403,14.877,6.498,28.798,17.161,39.2c10.688,10.424,24.796,16.166,39.729,16.166H304.71c1.993,0,3.905-0.792,5.314-2.2
	l164.44-164.44c1.409-1.41,2.2-3.32,2.2-5.314V111.971C476.664,107.82,473.299,104.457,469.149,104.457z"/>
<g>
	<polygon style="fill:#C6C5CA;" points="135.96,300.952 166.668,300.952 191.291,223.683 310.518,104.457 282.463,104.457 
		163.236,223.683 	"/>
	<path style="fill:#C6C5CA;" d="M469.149,104.457H444.1v214.367l30.363-30.363c1.409-1.41,2.2-3.32,2.2-5.314V111.971
		C476.664,107.82,473.299,104.457,469.149,104.457z"/>
</g>
<path style="fill:#3C5156;" d="M342.406,307.108H134.292c-4.15,0-7.515-3.364-7.515-7.515s3.365-7.515,7.515-7.515h208.114
	c4.151,0,7.515,3.364,7.515,7.515C349.921,303.744,346.556,307.108,342.406,307.108z"/>
<path style="fill:#919191;" d="M57.108,339.768c3.241,0,6.416,0.281,9.512,0.795V30.112c0-4.151-3.365-7.515-7.515-7.515
	C26.515,22.597,0,49.111,0,81.702v307.793C3.871,361.406,27.956,339.768,57.108,339.768z"/>
<path style="fill:#FFD039;" d="M407.952,97.286l-45.131-45.132c-1.41-1.409-3.321-2.2-5.314-2.2c-1.993,0-3.904,0.792-5.314,2.2
	L185.977,218.369c-0.1,0.1-0.189,0.207-0.283,0.313l56.57,54.917l165.687-165.685C410.887,104.978,410.887,100.221,407.952,97.286z"
	/>
<path style="fill:#FFA304;" d="M221.619,253.558l20.645,20.042l165.687-165.685c2.935-2.936,2.935-7.693,0-10.628l-15.039-15.039
	L221.619,253.558z"/>
<path style="fill:#FFC89F;" d="M185.714,218.701c-0.665,0.731-1.195,1.591-1.535,2.553l-24.598,69.683
	c-0.963,2.729-0.274,5.768,1.772,7.815c1.434,1.434,3.355,2.2,5.314,2.2c0.839,0,1.683-0.14,2.501-0.429l69.682-24.598
	c1.341-0.473,2.485-1.317,3.348-2.391L185.714,218.701z"/>
<path style="fill:#F7B081;" d="M166.668,300.952c0.839,0,1.683-0.14,2.501-0.429l69.682-24.598c1.341-0.473,2.485-1.317,3.348-2.391
	l-20.603-20.001l-55.869,19.995l-6.145,17.407c-0.963,2.729-0.274,5.768,1.772,7.815
	C162.788,300.185,164.708,300.952,166.668,300.952z"/>
<path style="fill:#3C5156;" d="M166.668,300.952c0.839,0,1.683-0.14,2.501-0.429l43.944-15.512l-38.09-37.817l-15.44,43.741
	c-0.963,2.729-0.274,5.768,1.772,7.815C162.788,300.185,164.708,300.952,166.668,300.952z"/>
<path style="fill:#304144;" d="M192.056,264.106l-26.329,9.423l-6.145,17.407c-0.963,2.729-0.274,5.768,1.772,7.815
	c1.434,1.434,3.355,2.2,5.314,2.2c0.839,0,1.683-0.14,2.501-0.429l43.944-15.512L192.056,264.106z"/>
<path style="fill:#FF6137;" d="M432.369,72.868l-45.132-45.131c-2.936-2.934-7.693-2.934-10.628,0l-29.71,29.71l55.737,55.783
	l29.733-29.733c1.409-1.41,2.2-3.32,2.2-5.314C434.569,76.19,433.777,74.279,432.369,72.868z"/>
<path style="fill:#E04F32;" d="M382.29,92.868l7.061,7.066l13.29,13.29l29.728-29.728c1.409-1.41,2.2-3.32,2.2-5.314
	c0-1.993-0.792-3.904-2.2-5.314l-15.039-15.039L382.29,92.868z"/>
<path style="fill:#546F7A;" d="M452.574,30.885L429.219,7.531c-4.327-4.327-10.083-6.71-16.203-6.71
	c-6.12,0-11.875,2.383-16.203,6.71l-14.88,14.88l-5.326,5.326l-5.415,5.415l55.863,55.657l7.978-7.979l17.54-17.54
	c4.327-4.327,6.71-10.083,6.71-16.203S456.901,35.213,452.574,30.885z"/>
<g>
	<polygon style="fill:#475D63;" points="371.285,33.061 371.193,33.153 387.86,49.757 	"/>
	<path style="fill:#475D63;" d="M452.574,30.885l-18.43-18.43c3.014,4.006,4.668,8.859,4.668,13.979
		c0,6.188-2.383,12.006-6.71,16.383l-17.54,17.735l-7.874,7.964l20.37,20.295l7.978-7.979l17.54-17.54
		c4.327-4.327,6.71-10.083,6.71-16.203S456.901,35.213,452.574,30.885z"/>
</g>
<path style="fill:#FFCA10;" d="M507.361,240.868c-2.808-1.164-6.04-0.521-8.19,1.628L243.317,498.35
	c-2.149,2.15-2.792,5.382-1.629,8.19s3.904,4.639,6.943,4.639h255.855c4.15,0,7.515-3.364,7.515-7.515V247.811
	C512,244.772,510.168,242.03,507.361,240.868z M368.032,450.391l82.126-82.126v82.126H368.032z"/>
<path style="fill:#FFA304;" d="M507.361,240.868c-2.808-1.164-6.04-0.521-8.19,1.628l-19.736,19.736v248.948h25.049
	c4.15,0,7.515-3.364,7.515-7.515V247.811C512,244.772,510.168,242.03,507.361,240.868z"/>
<g>
	<path style="fill:#C96E14;" d="M512,332.253h-28.894c-4.151,0-7.515,3.364-7.515,7.515c0,4.151,3.364,7.515,7.515,7.515H512
		V332.253z"/>
	<path style="fill:#C96E14;" d="M512,369.929h-28.894c-4.151,0-7.515,3.364-7.515,7.515c0,4.151,3.364,7.515,7.515,7.515H512
		V369.929z"/>
	<path style="fill:#C96E14;" d="M512,407.602h-28.894c-4.151,0-7.515,3.364-7.515,7.515s3.364,7.515,7.515,7.515H512V407.602z"/>
	<path style="fill:#C96E14;" d="M512,445.278h-28.894c-4.151,0-7.515,3.365-7.515,7.515c0,4.151,3.364,7.515,7.515,7.515H512
		V445.278z"/>
</g>
<g>
</g>
<g>
</g>
<g>
</g>
<g>
</g>
<g>
</g>
<g>
</g>
<g>
</g>
<g>
</g>
<g>
</g>
<g>
</g>
<g>
</g>
<g>
</g>
<g>
</g>
<g>
</g>
<g>
</g>
</svg>
