<svg height="511pt" viewBox="-38 0 511 511.93282" width="511pt" xmlns="http://www.w3.org/2000/svg"><path d="m408.335938 308.898438c-12.164063 19.628906-27.023438 37.457031-44.136719 52.964843-9.800781 9.621094-29.042969 14.566407-46.34375 16.597657 14.121093-9.253907 14.945312-22.574219 21.492187-35.460938 7.390625-14.523438 19.652344-28.496094 21.054688-35.515625 12.800781-3.972656 21.453125-7.414063 21.453125-7.414063 4.054687-2.199218 7.894531-4.769531 11.472656-7.679687 2.742187-2.152344 5.363281-4.449219 7.859375-6.886719 9.089844 3.265625 16.152344 9.886719 7.148438 23.394532zm0 0" fill="#fdd7ad"/><path d="m360.402344 307.484375c-2.648438 13.242187-12.535156 51.289063-42.546875 70.976563-7.996094.984374-16.050781 1.367187-24.101563 1.144531.574219-.269531 1.164063-.507813 1.765625-.703125 16.933594-6.179688 14.664063-25.910156 23.066407-40.757813 6.179687-10.867187 24.046874-16.023437 29.195312-26.949219 4.5-1.238281 8.738281-2.472656 12.621094-3.710937zm0 0" fill="#cbb292"/><path d="m347.78125 311.195312c11.546875-3.101562 22.917969-6.816406 34.074219-11.125 4.054687-2.199218 7.894531-4.769531 11.472656-7.679687 2.742187-2.152344 5.363281-4.449219 7.859375-6.886719 22.273438-21.589844 34.472656-51.527344 33.632812-82.535156 0-70.621094 0-123.585938-79.449218-158.898438-79.449219-35.308593-114.757813-55.171874-185.378906-37.515624-68.855469 17.210937-70.179688 44.578124-95.160157 54.375 13.175781 6.75 19.753907 21.863281 15.710938 36.105468-4.058594 16.15625-20.039063 15.714844-29.308594 15.714844h-.085937c-5.234376 3.382812-10.113282 7.289062-14.566407 11.652344-5.066406 4.207031-8.296875 10.222656-9.003906 16.773437.535156 6.632813 1.597656 13.21875 3.179687 19.683594 5.914063-11.210937 18.976563-30.542969 32.128907-10.859375 17.65625 26.484375 0 44.140625-8.824219 44.140625-6.003906 0-16.246094-12.449219-22.070312-20.214844-.574219 15.515625-8.851563 29.71875-22.070313 37.867188-18.09375 13.597656-10.679687 22.511719.882813 27.984375 2.632812 1.242187 5.347656 2.304687 8.121093 3.179687 3.796875 1.234375 7.417969 2.117188 10.417969 2.824219 4.148438.882812 7.0625 1.324219 7.0625 1.324219s1.410156.882812 3.972656 2.296875c.441406.261718.96875.617187 1.5.878906 1.675782.972656 3.796875 2.121094 6.179688 3.445312 2.558594 1.324219 5.296875 11.738282 8.472656 13.328126h.089844c3.089844 1.589843 6.53125 3.355468 10.152344 5.121093 2.558593 1.234375 5.207031 2.472657 7.945312 3.707031 2.910156 1.324219 6 2.738282 9.089844 3.972657 6.710937 2.914062 13.597656-3.179688 20.394531-.882813 3.972656 1.324219 7.855469 2.472656 11.652344 3.441406 12.296875 2.539063 24.789062 4.015626 37.339843 4.414063l31.25 1.855469c29.484376 2.03125 58.527344 6.089844 72.648438 20.214844 7.535156 6.410156 17.125 9.890624 27.015625 9.796874h.085937l.617188.53125zm-186.617188-134.710937c-26.480468 8.828125-70.621093-35.308594-44.136718-61.792969 26.480468-26.484375 35.308594 8.828125 52.964844 17.65625 10.261718 4.960938 17.019531 15.101563 17.65625 26.480469 0 0 0 8.828125-26.484376 17.65625zm0 0" fill="#e4c05c"/><path d="m90.542969 97.035156c-4.058594 16.15625-20.039063 15.714844-29.308594 15.714844-3.707031-15.980469-7.238281-44.757812 11.652344-51.023438.679687-.1875 1.328125-.457031 1.945312-.796874 13.175781 6.75 19.753907 21.863281 15.710938 36.105468zm0 0" fill="#b19046"/><path d="m187.648438 158.828125s0 8.828125-26.484376 17.65625c-26.480468 8.828125-70.621093-35.308594-44.136718-61.792969 26.480468-26.484375 35.308594 8.828125 52.964844 17.65625 10.261718 4.960938 17.019531 15.101563 17.65625 26.480469zm0 0" fill="#b19046"/><path d="m64.0625 194.140625c-6.003906 0-16.246094-12.449219-22.070312-20.214844 0-4.355469-.414063-8.699219-1.234376-12.976562v-.089844c5.914063-11.210937 18.976563-30.542969 32.128907-10.859375 17.65625 26.484375 0 44.140625-8.824219 44.140625zm0 0" fill="#b19046"/><path d="m191.335938 290.273438c-4.640626-.015626-8.476563-3.617188-8.78125-8.25-.304688-4.628907 3.027343-8.707032 7.625-9.328126 17.65625-2.375 48.996093-10.433593 59.886718-37.691406 5.015625-12.527344 3.054688-15.6875 3.039063-15.714844-4.019531-4.238281-30.808594 4.890626-39.621094 7.882813l-5.390625 1.828125c-31.296875 10.433594-60.753906-18.539062-61.996094-19.792969-3.347656-3.460937-3.300781-8.96875.105469-12.375 3.40625-3.402343 8.910156-3.453125 12.375-.105469.210937.203126 23.039063 22.5 43.933594 15.519532l5.296875-1.765625c21.699218-7.398438 46.300781-15.765625 58.113281-3.328125 10.070313 10.59375 2.902344 28.539062.554687 34.425781-14.21875 35.585937-52.425781 45.746094-73.9375 48.632813-.398437.046874-.800781.066406-1.203124.0625zm0 0" fill="#b19046"/><path d="m55.058594 232.894531-15.714844 12.886719c-3-.707031-6.621094-1.589844-10.417969-2.824219-2.773437-.875-5.488281-1.9375-8.121093-3.179687.464843-1.4375 1.359374-2.699219 2.5625-3.617188l20.566406-16.863281c2.421875-2.042969 5.757812-2.621094 8.730468-1.515625 2.96875 1.105469 5.113282 3.726562 5.609376 6.855469.496093 3.132812-.734376 6.285156-3.214844 8.257812zm0 0" fill="#f9eab0"/><path d="m82.070312 245.691406-15.449218 12.535156h-.089844c-3.175781-1.585937-5.914062-3.175781-8.472656-4.5-2.382813-1.324218-4.503906-2.472656-6.179688-3.445312-.53125-.261719-1.058594-.617188-1.5-.878906.5-1.007813 1.226563-1.882813 2.117188-2.5625l18.449218-14.917969c3.804688-3.070313 9.375-2.480469 12.449219 1.324219 3.070313 3.800781 2.476563 9.375-1.324219 12.445312zm0 0" fill="#f9eab0"/><path d="m112.699219 255.667969-18.890625 15.359375c-3.089844-1.234375-6.179688-2.648438-9.089844-3.972656-2.738281-1.234376-5.386719-2.472657-7.945312-3.707032.527343-1.234375 1.34375-2.324218 2.382812-3.175781l22.421875-18.273437c2.460937-1.988282 5.792969-2.511719 8.742187-1.375 2.953126 1.136718 5.074219 3.761718 5.5625 6.886718.492188 3.121094-.722656 6.269532-3.183593 8.257813zm0 0" fill="#f9eab0"/><path d="m400.613281 192.480469h-.222656c-2.339844-.058594-4.5625-1.046875-6.175781-2.746094-1.609375-1.699219-2.484375-3.96875-2.421875-6.3125 0-.757813 1.457031-76.207031-40.207031-96.070313-3.019532-1.246093-5.105469-4.054687-5.421876-7.308593-.3125-3.25 1.191407-6.40625 3.914063-8.210938 2.722656-1.804687 6.21875-1.957031 9.089844-.394531 52.027343 24.804688 50.371093 108.914062 50.316406 112.480469-.144531 4.789062-4.082031 8.589843-8.871094 8.5625zm0 0" fill="#f9eab0"/><path d="m355.371094 291.242188c-1.730469 6.929687-4.277344 13.625-7.589844 19.953124-12.183594 25.863282-22.953125 56.9375-52.261719 67.707032-.601562.195312-1.191406.433594-1.765625.703125h-.175781c-23.304687 8.828125-45.550781 20.304687-70.003906 24.453125 3.390625-8.976563-8.683594-18.316406-7.511719-27.851563 1.273438-10.34375 15.632812-20.707031 15.632812-25.996093 9.902344-.039063 19.691407-2.078126 28.78125-6.003907 12.976563-5.984375 24.648438-14.472656 34.335938-24.980469 1.648438-1.851562 3.386719-3.621093 5.210938-5.296874 4.285156-4.148438 8.050781-8.800782 11.210937-13.859376 17.652344-26.480468 44.136719-17.65625 44.136719-8.828124zm0 0" fill="#fdd7ad"/><path d="m231.695312 350.210938c.183594 18.269531-2.558593 36.445312-8.121093 53.847656-6.027344 1.097656-12.144531 1.65625-18.273438 1.679687l-.175781-.089843c4.238281-9.445313-10.238281-21.007813-8.648438-34.957032 0 0 19.59375-9.621094 20.742188-20.832031 4.8125.429687 9.648438.546875 14.476562.351563zm0 0" fill="#cbb292"/><path d="m217.21875 349.859375c-1.148438 11.210937-3.089844 20.832031-3.089844 20.832031-1.1875 12.046875-4.222656 23.835938-9.003906 34.957032-10.25 25.460937-34.21875 42.769531-61.617188 44.492187-8.015624 18.695313-22.578124 33.828125-40.957031 42.546875h-.089843c-.511719.328125-1.039063.625-1.589844.882812-1.78125 3.878907-3.308594 7.863282-4.582032 11.9375-1.011718 3.753907-4.398437 6.378907-8.289062 6.425782h-85.730469c-8.828125-26.484375 17.652344-88.277344 17.652344-88.277344 0-44.136719 0-44.136719 35.3125-88.273438 22.421875-28.074218 9.269531-63.207031-3.355469-85.101562 1.675782.972656 3.796875 2.121094 6.179688 3.445312 6.886718 3.707032 16.242187 8.5625 26.660156 13.328126 9.613281 4.480468 19.457031 8.457031 29.484375 11.917968 3.910156 9.570313 4.035156 20.265625.351563 29.925782 0 0 17.65625 8.828124 8.828124 35.308593 0 0 7.328126-5.117187 34.867188-4.765625 5.121094 0 10.949219.175782 17.480469.707032l.050781-.042969c.652344-4.59375 1.667969-9.125 3.039062-13.550781-6.34375-12.765626-11.574218-26.058594-15.625-39.726563-1.203124-4.316406-1.882812-8.761719-2.03125-13.238281 0-17.65625 26.484376-26.484375 26.484376-8.828125.222656 5.738281 1.476562 11.390625 3.707031 16.683593.882812 2.382813 1.941406 4.855469 3.089843 7.238282 5.148438 10.566406 11.777344 20.347656 19.683594 29.042968 4.679688 4.679688 4.414063 19.421876 3.089844 32.132813zm0 0" fill="#fdd7ad"/><g fill="#cbb292"><path d="m175.976562 376.410156c-.496093.515625-1.050781.964844-1.660156 1.34375 0 0-.085937.175782-.175781.175782-.085937 0-.265625.175781-.441406.175781-1.09375.554687-2.304688.828125-3.53125.796875-3.351563.007812-6.421875-1.871094-7.945313-4.855469-1.851562-3.792969-3.132812-7.839844-3.792968-12.007813h-.089844c-1.273438-7.476562-1.300782-15.109374-.089844-22.597656 5.121094 0 10.949219.175782 17.480469.707032.085937-.265626.085937-.617188.175781-.882813.011719.5-.015625 1.003906-.089844 1.5-1.796875 8.476563-1.03125 17.296875 2.207032 25.335937 1.78125 3.496094.933593 7.757813-2.046876 10.308594zm0 0"/><path d="m63.679688 432.113281c-3.054688-.003906-5.890626-1.589843-7.496094-4.191406-1.605469-2.601563-1.75-5.847656-.386719-8.582031 10.390625-20.78125 23.570313-33.191406 39.179687-36.871094 12.425782-2.605469 25.378907.03125 35.804688 7.28125 3.566406 3.011719 4.171875 8.28125 1.378906 12.027344-2.792968 3.742187-8.015625 4.660156-11.921875 2.097656-6.289062-4.191406-13.988281-5.710938-21.398437-4.21875-10.195313 2.496094-19.355469 11.765625-27.25 27.550781-1.488282 3.003907-4.554688 4.90625-7.910156 4.90625zm0 0"/><path d="m125.484375 414.457031c-4.875 0-8.828125-3.949219-8.828125-8.824219-.503906-11.652343 4.027344-22.960937 12.4375-31.039062 11.628906-9.273438 26.269531-13.925781 41.117188-13.074219 4.878906.320313 8.570312 4.53125 8.25 9.40625-.316407 4.875-4.527344 8.566407-9.40625 8.25-10.011719-.546875-19.902344 2.425781-27.957032 8.402344-4.753906 4.777344-7.230468 11.371094-6.785156 18.097656-.027344 4.859375-3.972656 8.78125-8.828125 8.78125zm0 0"/><path d="m100.871094 493.570312c-1.78125 3.878907-3.308594 7.863282-4.582032 11.9375-1.011718 3.753907-4.398437 6.378907-8.289062 6.425782h-18.199219c-.070312-.070313-.101562-.167969-.089843-.265625-.796876-4.800781 2.441406-9.339844 7.238281-10.152344 8.332031-1.414063 16.402343-4.089844 23.921875-7.945313-.527344.355469.53125-.265624 0 0zm0 0"/></g></svg>