<svg height="472pt" viewBox="-3 0 471 472" width="472pt" xmlns="http://www.w3.org/2000/svg"><path d="m432.5 184h-288v-16c0-79.527344 64.472656-144 144-144s144 64.472656 144 144zm0 0" fill="#ffa912"/><path d="m432.5 168c.019531-47.464844-23.382812-91.878906-62.542969-118.695312-27.472656 58.109374-86.351562 104.398437-134.730469 134.695312h197.273438zm0 0" fill="#f7a116"/><path d="m136.5 184h304c13.253906 0 24 10.746094 24 24s-10.746094 24-24 24h-304c-13.253906 0-24-10.746094-24-24s10.746094-24 24-24zm0 0" fill="#ffb531"/><path d="m352.5 328v-64h-43.945312c-3.296876-13.671875-8.714844-26.742188-16.054688-38.734375l31.089844-31.089844-45.257813-45.253906-31.097656 31.078125c-11.992187-7.339844-25.0625-12.757812-38.734375-16.054688v-43.945312h-64v43.945312c-13.671875 3.296876-26.742188 8.714844-38.734375 16.054688l-31.089844-31.089844-45.253906 45.265625 31.078125 31.089844c-7.339844 11.992187-12.757812 25.0625-16.054688 38.734375h-43.945312v64h43.945312c3.296876 13.671875 8.714844 26.742188 16.054688 38.734375l-31.078125 31.089844 45.253906 45.253906 31.089844-31.078125c11.992187 7.339844 25.0625 12.757812 38.734375 16.054688v43.945312h64v-43.945312c13.671875-3.296876 26.742188-8.714844 38.734375-16.054688l31.089844 31.089844 45.253906-45.257813-31.078125-31.097656c7.339844-11.992187 12.757812-25.0625 16.054688-38.734375zm-176 8c-22.089844 0-40-17.910156-40-40s17.910156-40 40-40 40 17.910156 40 40-17.910156 40-40 40zm0 0" fill="#348fd9"/><g fill="#ffb531"><path d="m224.5 96c-4.417969 0-8-3.582031-8-8v-48c0-4.417969 3.582031-8 8-8s8 3.582031 8 8v48c0 4.417969-3.582031 8-8 8zm0 0"/><path d="m352.5 96c-4.417969 0-8-3.582031-8-8v-48c0-4.417969 3.582031-8 8-8s8 3.582031 8 8v48c0 4.417969-3.582031 8-8 8zm0 0"/><path d="m344.5 144h48v40h-48zm0 0"/><path d="m264.5 0h48v112h-48zm0 0"/></g><path d="m292.5 225.265625 31.089844-31.089844-21.9375-21.929687c-24.609375 40.34375-53.957032 77.59375-87.425782 110.953125 5.253907 15.128906.910157 31.929687-11.011718 42.617187s-29.097656 13.175782-43.5625 6.3125c-37.007813 29.539063-76.878906 55.304688-119.015625 76.910156l34.039062 34.039063 31.089844-31.078125c11.992187 7.339844 25.0625 12.757812 38.734375 16.054688v43.945312h64v-43.945312c13.671875-3.296876 26.742188-8.714844 38.734375-16.054688l31.089844 31.089844 45.253906-45.257813-31.078125-31.097656c7.339844-11.992187 12.757812-25.0625 16.054688-38.734375h43.945312v-64h-43.945312c-3.296876-13.671875-8.714844-26.742188-16.054688-38.734375zm0 0" fill="#3086cd"/><path d="m176.5 392c-53.019531 0-96-42.980469-96-96s42.980469-96 96-96 96 42.980469 96 96c-.058594 52.996094-43.003906 95.941406-96 96zm0-176c-44.183594 0-80 35.816406-80 80s35.816406 80 80 80 80-35.816406 80-80c-.046875-44.164062-35.835938-79.953125-80-80zm0 0" fill="#2c77b6"/><path d="m344.5 168h48v16h-48zm0 0" fill="#ffa912"/></svg>