<?xml version="1.0" encoding="iso-8859-1"?>
<!-- Generator: Adobe Illustrator 19.0.0, SVG Export Plug-In . SVG Version: 6.00 Build 0)  -->
<svg version="1.1" id="Layer_1" xmlns="http://www.w3.org/2000/svg" xmlns:xlink="http://www.w3.org/1999/xlink" x="0px" y="0px"
	 viewBox="0 0 511.775 511.775" style="enable-background:new 0 0 511.775 511.775;" xml:space="preserve">
<g>
	<path style="fill:#E15649;" d="M381.642,368.056h125.754v-71.86H381.642V368.056z"/>
	<path style="fill:#E15649;" d="M4.379,511.775h125.754v-71.86H4.379V511.775z"/>
</g>
<path style="fill:#BC342E;" d="M130.133,511.775h125.754v-71.86H130.133V511.775z"/>
<path style="fill:#A52525;" d="M255.888,511.775h125.754v-71.86H255.888V511.775z"/>
<path style="fill:#E15649;" d="M381.642,511.775h125.754v-71.86H381.642V511.775z"/>
<path style="fill:#BC342E;" d="M4.379,439.916h62.877v-71.86H4.379V439.916z"/>
<g>
	<path style="fill:#A52525;" d="M444.519,439.916h62.877v-71.86h-62.877V439.916z"/>
	<path style="fill:#A52525;" d="M67.256,439.916h125.754v-71.86H67.256V439.916z"/>
</g>
<path style="fill:#E15649;" d="M193.011,439.916h125.754v-71.86H193.011V439.916z"/>
<path style="fill:#BC342E;" d="M318.765,439.916h125.754v-71.86H318.765V439.916z"/>
<path style="fill:#E15649;" d="M4.379,368.056h125.754v-71.86H4.379V368.056z"/>
<path style="fill:#BC342E;" d="M130.133,368.056h125.754v-71.86H130.133V368.056z"/>
<path style="fill:#A52525;" d="M255.888,368.056h125.754v-71.86H255.888V368.056z"/>
<path style="fill:#BC342E;" d="M4.379,296.197h62.877v-71.86H4.379V296.197z"/>
<g>
	<path style="fill:#A52525;" d="M444.519,296.197h62.877v-71.86h-62.877V296.197z"/>
	<path style="fill:#A52525;" d="M67.256,296.197h125.754v-71.86H67.256V296.197z"/>
</g>
<path style="fill:#E15649;" d="M193.011,296.197h125.754v-71.86H193.011V296.197z"/>
<path style="fill:#BC342E;" d="M318.765,296.197h125.754v-71.86H318.765V296.197z"/>
<path style="fill:#E15649;" d="M4.379,224.337h125.754v-71.86H4.379V224.337z"/>
<path style="fill:#BC342E;" d="M130.133,224.337h125.754v-71.86H130.133V224.337z"/>
<path style="fill:#A52525;" d="M255.888,224.337h125.754v-71.86H255.888V224.337z"/>
<path style="fill:#BC342E;" d="M4.379,152.477h62.877v-71.86H4.379V152.477z"/>
<path style="fill:#A52525;" d="M67.256,152.477h125.754v-71.86H67.256V152.477z"/>
<path style="fill:#E0E0E0;" d="M390.625,6.063l79.944,192.225c4.491,12.575-4.491,26.049-17.965,26.049H310.681
	c-13.474,0-22.456-13.474-17.965-26.049L370.863,6.063C374.456-2.021,387.032-2.021,390.625,6.063"/>
<path style="fill:#C17C3E;" d="M416.674,338.414l7.186-18.863c5.389-12.575-4.491-23.354-16.168-23.354h-53.895
	c-11.677,0-21.558,10.779-16.168,23.354l7.186,18.863l0,0c10.779,17.965,11.677,61.979,3.593,90.723l0,0
	c-1.797,5.389-2.695,14.372-2.695,19.761v26.947c0,19.761,16.168,35.93,35.93,35.93c19.761,0,35.93-16.168,35.93-35.93v-26.947
	c0-5.389-0.898-14.372-3.593-19.761l0,0C405.895,400.393,405.895,357.277,416.674,338.414L416.674,338.414z"/>
<path style="fill:#A3AAAF;" d="M363.677,296.197h35.93v-71.86h-35.93V296.197z"/>
<g>
	<path style="fill:#9E5A23;" d="M372.66,430.933h-24.253c-1.797,5.389-2.695,12.575-2.695,17.965h0.898h26.049
		c5.389,0,8.982-3.593,8.982-8.982C381.642,434.526,378.049,430.933,372.66,430.933"/>
	<path style="fill:#9E5A23;" d="M372.66,466.863h-26.049c0,0,0,0-0.898,0v8.982c0,2.695,0.898,6.288,0.898,8.982h26.049
		c5.389,0,8.982-3.593,8.982-8.982S378.049,466.863,372.66,466.863"/>
</g>
<g>
</g>
<g>
</g>
<g>
</g>
<g>
</g>
<g>
</g>
<g>
</g>
<g>
</g>
<g>
</g>
<g>
</g>
<g>
</g>
<g>
</g>
<g>
</g>
<g>
</g>
<g>
</g>
<g>
</g>
</svg>
