<?xml version="1.0" encoding="iso-8859-1"?>
<!-- Generator: Adobe Illustrator 19.0.0, SVG Export Plug-In . SVG Version: 6.00 Build 0)  -->
<svg xmlns="http://www.w3.org/2000/svg" xmlns:xlink="http://www.w3.org/1999/xlink" version="1.1" id="Capa_1" x="0px" y="0px" viewBox="0 0 512 512" style="enable-background:new 0 0 512 512;" xml:space="preserve" width="512" height="512">
<g>
	<path style="fill:#B4AAAA;" d="M304.973,511.774h-5.981c-59.436,0-107.79-48.354-107.79-107.79v-50.947h30v50.947   c0,42.894,34.896,77.79,77.79,77.79h5.981c42.895,0,77.791-34.896,77.791-77.79V268.426l14.999-10.008l15.001,10.008v135.558   C412.764,463.419,364.409,511.774,304.973,511.774z"/>
	<rect x="382.764" y="39.952" style="fill:#E1EBF0;" width="30" height="46.354"/>
	<rect x="382.763" y="222.073" style="fill:#E1EBF0;" width="30" height="46.354"/>
	
		<rect x="310.197" y="74.8" transform="matrix(0.7071 0.7071 -0.7071 0.7071 161.1412 -209.4292)" style="fill:#E1EBF0;" width="46.354" height="30"/>
	<rect x="283.526" y="139.189" style="fill:#E1EBF0;" width="46.354" height="30"/>
	
		<rect x="318.374" y="195.401" transform="matrix(0.7071 0.7071 -0.7071 0.7071 252.2009 -171.7111)" style="fill:#E1EBF0;" width="30" height="46.353"/>
	
		<rect x="438.976" y="203.578" transform="matrix(0.7071 0.7071 -0.7071 0.7071 289.912 -262.7685)" style="fill:#B4D2D7;" width="46.353" height="30"/>
	<rect x="465.646" y="139.189" style="fill:#B4D2D7;" width="46.354" height="30"/>
	
		<rect x="447.153" y="66.623" transform="matrix(0.7071 0.7071 -0.7071 0.7071 198.8595 -300.4892)" style="fill:#B4D2D7;" width="30" height="46.354"/>
	<path style="fill:#E1EBF0;" d="M195.286,113.637L0,113.637c0-45.553,36.928-82.48,82.48-82.48h112.806V113.637z"/>
	<path style="fill:#87A0AF;" d="M397.763,71.306l-20.016,82.883l20.016,82.883c45.775,0,82.883-37.108,82.883-82.883   S443.538,71.306,397.763,71.306z"/>
	<path style="fill:#B4D2D7;" d="M314.88,154.189c0,45.775,37.108,82.883,82.883,82.883V71.306   C351.988,71.306,314.88,108.414,314.88,154.189z"/>
	<polygon style="fill:#9E5015;" points="206.201,373.053 237.131,373.053 237.131,185.807 186.185,165.791  "/>
	<polygon style="fill:#C78F2C;" points="175.271,185.807 175.271,373.053 206.201,373.053 206.201,165.791  "/>
	<polygon style="fill:#C78F2C;" points="206.201,0.226 186.185,93.017 206.201,185.807 237.131,185.807 237.131,0.226  "/>
	<rect x="175.271" y="0.226" style="fill:#E7C994;" width="30.93" height="185.581"/>
</g>















</svg>
