<?xml version="1.0" encoding="iso-8859-1"?>
<!-- Generator: Adobe Illustrator 21.0.0, SVG Export Plug-In . SVG Version: 6.00 Build 0)  -->
<svg xmlns="http://www.w3.org/2000/svg" xmlns:xlink="http://www.w3.org/1999/xlink" version="1.1" id="Capa_1" x="0px" y="0px" viewBox="0 0 508.706 508.706" style="enable-background:new 0 0 508.706 508.706;" xml:space="preserve" width="512" height="512">
<g>
	<path style="fill:#2052E0;" d="M340.385,137.549l-11.863-30.502c-1.121-2.883-3.897-4.782-6.99-4.782h-65.968   c-2.446,0-4.739,1.193-6.143,3.197c-1.404,2.003-1.742,4.566-0.906,6.865l11.086,30.502c1.077,2.964,3.895,4.938,7.049,4.938   h66.745c2.476,0,4.793-1.222,6.19-3.266C340.984,142.458,341.282,139.856,340.385,137.549z"/>
	<g>
		<g>
			<path style="fill:#2052E0;" d="M485.994,84.116c-2.003,0-4.001-0.797-5.477-2.375c-2.831-3.024-2.674-7.77,0.351-10.6     c12.589-11.784,13.245-31.612,1.461-44.202c-5.679-6.067-13.421-9.561-21.8-9.838c-8.373-0.271-16.334,2.698-22.402,8.377     l-3.577,3.348c-3.023,2.831-7.77,2.674-10.601-0.351c-2.831-3.024-2.674-7.77,0.351-10.601l3.577-3.348     c18.628-17.436,47.967-16.465,65.403,2.163c8.417,8.992,12.827,20.764,12.417,33.147c-0.409,12.383-5.587,23.838-14.58,32.255     C489.672,83.446,487.831,84.116,485.994,84.116z"/>
		</g>
	</g>
	<path style="fill:#C0693D;" d="M259.458,389.551H10.482c-4.142,0-7.5,3.358-7.5,7.5v61.272c0,4.142,3.358,7.5,7.5,7.5h310.249   c4.142,0,7.5-3.358,7.5-7.5C328.231,420.402,297.38,389.551,259.458,389.551z"/>
	<path style="fill:#73C055;" d="M174.154,372.104c-2.895-11.052-10.333-22.802-21.51-33.978   c-23.529-23.529-61.686-22.346-63.298-22.282c-3.916,0.151-7.056,3.29-7.206,7.206c-0.062,1.613-1.248,39.769,22.282,63.298   c16.336,16.336,31.625,22.866,43.829,22.866c8.089,0,14.823-2.869,19.607-7.653C175.018,394.401,177.255,383.939,174.154,372.104z"/>
	<path style="fill:#F85E49;" d="M130.305,194.329c-4.142,0-7.5,3.358-7.5,7.5v53.632c0,12.495,10.166,22.66,22.66,22.66h5.425   c12.495,0,22.66-10.165,22.66-22.66v-17.887C173.551,213.729,154.151,194.329,130.305,194.329z"/>
	<path style="fill:#E13C2A;" d="M201.795,194.329c-23.845,0-43.245,19.4-43.245,43.245v17.887c0,12.495,10.166,22.66,22.66,22.66   h5.425c12.495,0,22.66-10.165,22.66-22.66v-53.632C209.295,197.687,205.937,194.329,201.795,194.329z"/>
	<path style="fill:#489C38;" d="M122.812,260.882c-0.001,0.044-0.007,0.087-0.007,0.131v21.23c0,23.302,18.957,42.259,42.258,42.259   h1.973c23.301,0,42.258-18.957,42.258-42.259v-21.23c0-0.044-0.006-0.087-0.007-0.131H122.812z"/>
	<g>
		<g>
			<path style="fill:#489C38;" d="M165.064,444.079c-4.142,0-7.5-3.358-7.5-7.5V323.321c0-4.142,3.358-7.5,7.5-7.5     c4.142,0,7.5,3.358,7.5,7.5v113.258C172.564,440.721,169.206,444.079,165.064,444.079z"/>
		</g>
	</g>
	<path style="fill:#73C055;" d="M241.03,338.793c-0.151-3.916-3.291-7.056-7.207-7.207c-1.316-0.047-32.44-1.017-51.702,18.245   c-9.12,9.119-15.199,18.744-17.58,27.834c-2.619,9.996-0.692,18.87,5.424,24.985c4.333,4.334,10.052,6.565,16.574,6.565   c2.682,0,5.499-0.378,8.412-1.14c9.09-2.381,18.715-8.46,27.834-17.58C242.047,371.233,241.08,340.108,241.03,338.793z"/>
	<path style="fill:#52A153;" d="M174.154,372.104c-2.895-11.052-10.333-22.802-21.51-33.978   c-23.529-23.529-61.686-22.346-63.298-22.282c-1.546,0.06-2.966,0.59-4.134,1.445c13.379,2.199,31.213,7.618,44.432,20.837   c11.177,11.176,18.615,22.926,21.51,33.978c3.101,11.835,0.864,22.297-6.297,29.458c-2.434,2.434-5.375,4.369-8.739,5.686   c4.298,1.342,8.363,1.968,12.132,1.968c8.089,0,14.823-2.869,19.607-7.653C175.018,394.401,177.255,383.939,174.154,372.104z"/>
	<path style="fill:#52A153;" d="M241.03,338.793c-0.151-3.916-3.29-7.056-7.207-7.207c-0.644-0.023-8.43-0.261-18.466,1.752   c1.567,1.317,2.588,3.264,2.672,5.454c0.05,1.315,1.017,32.44-18.245,51.702c-7.828,7.829-16.029,13.408-23.944,16.34   c3.2,1.566,6.801,2.38,10.698,2.38c2.682,0,5.499-0.378,8.412-1.14c9.09-2.381,18.715-8.46,27.834-17.58   C242.047,371.233,241.08,340.108,241.03,338.793z"/>
	<path style="fill:#4BBDDF;" d="M175.435,108.264c-2.628,0-5.064,1.375-6.422,3.626c-3.966,6.574-16.904,28.804-16.904,38.851   c0,12.862,10.464,23.326,23.326,23.326c12.862,0,23.326-10.464,23.326-23.326c0-10.046-12.938-32.276-16.904-38.851   C180.5,109.64,178.064,108.264,175.435,108.264z"/>
	<path style="fill:#4BBDDF;" d="M264.987,251.19c-1.357-2.25-3.794-3.626-6.422-3.626c-2.628,0-5.064,1.376-6.422,3.626   c-3.965,6.574-16.903,28.804-16.903,38.851c0,12.862,10.464,23.326,23.326,23.326c12.862,0,23.326-10.464,23.326-23.326   C281.891,279.994,268.952,257.764,264.987,251.19z"/>
	<path style="fill:#4BBDDF;" d="M58.787,194.329c-2.628,0-5.064,1.376-6.422,3.626c-3.966,6.574-16.904,28.804-16.904,38.851   c0,12.862,10.464,23.326,23.326,23.326c12.862,0,23.326-10.464,23.326-23.326c0-10.046-12.938-32.276-16.904-38.851   C63.851,195.704,61.415,194.329,58.787,194.329z"/>
	<path style="fill:#1BACD6;" d="M181.857,111.89c-1.357-2.25-3.794-3.626-6.422-3.626c-2.628,0-5.064,1.375-6.422,3.626   c-1.132,1.876-2.995,5.029-5.078,8.807c5.219,9.464,11.826,22.863,11.826,30.043c0,8.682-4.771,16.266-11.826,20.282   c3.397,1.934,7.32,3.044,11.5,3.044c12.862,0,23.326-10.464,23.326-23.326C198.761,140.695,185.823,118.465,181.857,111.89z"/>
	<path style="fill:#1BACD6;" d="M264.987,251.19c-1.357-2.25-3.794-3.626-6.422-3.626c-2.628,0-5.064,1.376-6.422,3.626   c-1.131,1.876-2.994,5.029-5.078,8.807c5.219,9.464,11.826,22.864,11.826,30.044c0,8.682-4.771,16.265-11.826,20.281   c3.397,1.933,7.32,3.044,11.5,3.044c12.862,0,23.326-10.464,23.326-23.326C281.891,279.994,268.952,257.764,264.987,251.19z"/>
	<path style="fill:#1BACD6;" d="M65.209,197.955c-1.357-2.251-3.794-3.626-6.422-3.626c-2.628,0-5.064,1.376-6.422,3.626   c-1.132,1.876-2.994,5.029-5.078,8.807c5.219,9.464,11.826,22.864,11.826,30.043c0,8.682-4.771,16.266-11.826,20.282   c3.397,1.934,7.32,3.044,11.5,3.044c12.862,0,23.326-10.464,23.326-23.326C82.113,226.759,69.175,204.529,65.209,197.955z"/>
	<path style="fill:#B75423;" d="M259.458,389.551h-23c37.921,0,68.773,30.851,68.773,68.772c0,4.142-3.358,7.5-7.5,7.5h23   c4.142,0,7.5-3.358,7.5-7.5C328.231,420.402,297.38,389.551,259.458,389.551z"/>
	<path style="fill:#0075FF;" d="M482.191,62.968c-0.325-0.46-0.701-0.883-1.121-1.259L414.4,1.916   c-2.602-2.334-6.474-2.561-9.331-0.544l-99.062,69.902c-2.857,2.016-3.942,5.739-2.615,8.974l33.988,82.855   c0.214,0.521,0.486,1.018,0.811,1.478c7.54,10.685,18.544,18.04,30.985,20.712c3.372,0.724,6.736,1.082,10.05,1.082   c9.137,0,17.891-2.72,25.345-7.98l68.386-48.256C493.804,115.429,497.947,85.296,482.191,62.968z"/>
	<path style="fill:#0075FF;" d="M277.796,146.803l-21.145-52.621c-0.742-1.846-2.186-3.321-4.016-4.102   c-1.83-0.781-3.895-0.802-5.74-0.061l-27.631,11.103c-3.843,1.544-5.707,5.912-4.163,9.755l21.145,52.621   c0.742,1.846,2.186,3.321,4.016,4.102c0.939,0.401,1.941,0.602,2.943,0.602c0.949,0,1.899-0.18,2.796-0.541l27.631-11.103   C277.477,155.013,279.341,150.646,277.796,146.803z"/>
	<path style="fill:#2052E0;" d="M482.191,62.968c-0.325-0.46-0.701-0.883-1.121-1.259L414.4,1.916   c-2.602-2.334-6.474-2.561-9.331-0.544l-7.989,5.638l60.992,54.699c0.42,0.377,0.796,0.799,1.121,1.259   c15.755,22.328,11.613,52.461-9.234,67.171l-68.386,48.256c-4.289,3.026-9.009,5.207-13.983,6.517   c0.528,0.132,1.054,0.266,1.588,0.381c3.372,0.724,6.736,1.082,10.05,1.082c9.137,0,17.891-2.72,25.345-7.98l68.386-48.256   C493.804,115.429,497.947,85.296,482.191,62.968z"/>
	<path style="fill:#2052E0;" d="M277.796,146.803l-21.145-52.621c-0.742-1.846-2.186-3.321-4.016-4.102   c-1.83-0.781-3.895-0.802-5.74-0.061l-12.843,5.161l20.743,51.622c1.544,3.843-0.319,8.211-4.163,9.755l-14.787,5.942l0.401,0.998   c0.742,1.846,2.186,3.321,4.016,4.102c0.939,0.401,1.941,0.602,2.943,0.602c0.949,0,1.899-0.18,2.796-0.541l27.631-11.103   C277.477,155.013,279.341,150.646,277.796,146.803z"/>
	<path style="fill:#D47A3D;" d="M331.38,432.433H11.801c-4.142,0-7.5,3.358-7.5,7.5v61.272c0,4.142,3.358,7.5,7.5,7.5h380.851   c4.142,0,7.5-3.358,7.5-7.5C400.152,463.284,369.301,432.433,331.38,432.433z"/>
	<path style="fill:#B75423;" d="M331.38,432.433h-23c37.921,0,68.772,30.851,68.772,68.772c0,4.142-3.358,7.5-7.5,7.5h23   c4.142,0,7.5-3.358,7.5-7.5C400.152,463.284,369.301,432.433,331.38,432.433z"/>
</g>















</svg>
