<?xml version="1.0" encoding="iso-8859-1"?>
<!-- Generator: Adobe Illustrator 19.0.0, SVG Export Plug-In . SVG Version: 6.00 Build 0)  -->
<svg version="1.1" id="Capa_1" xmlns="http://www.w3.org/2000/svg" xmlns:xlink="http://www.w3.org/1999/xlink" x="0px" y="0px"
	 viewBox="0 0 57.991 57.991" style="enable-background:new 0 0 57.991 57.991;" xml:space="preserve">
<path style="fill:#556080;" d="M28.995,50.241l1.413-9.695c1.256-8.623,9.265-16.631,17.887-17.887l9.695-1.413l-1.413,9.695
	c-1.256,8.623-9.265,16.631-17.887,17.887L28.995,50.241z"/>
<path style="fill:#7D6599;" d="M28.995,50.241L19.3,48.828c-8.623-1.256-16.631-9.265-17.887-17.887L0,21.245l9.695,1.413
	c8.623,1.256,16.631,9.265,17.887,17.887L28.995,50.241z"/>
<polygon style="fill:#8697CB;" points="28.995,49.265 28.819,49.027 28.919,49.718 28.993,49.75 28.995,49.73 28.998,49.75 
	29.072,49.718 29.172,49.027 "/>
<path style="fill:#8697CB;" d="M20.919,20.077c-1.081-0.78-2.227-1.448-3.43-1.965l-9.254-4.315l-0.747,8.539l2.207,0.322
	c3.43,0.5,6.755,2.08,9.604,4.33C19.476,24.591,20.023,22.239,20.919,20.077z"/>
<path style="fill:#894B9D;" d="M49.755,13.797l-9.254,4.315c-1.203,0.518-2.349,1.185-3.43,1.965
	c0.897,2.162,1.443,4.514,1.62,6.911c2.849-2.25,6.174-3.831,9.604-4.33l2.207-0.322L49.755,13.797z"/>
<path style="fill:#ED7161;" d="M27.583,40.546l1.236,8.482l0.177,0.237l0.177-0.237l1.236-8.482
	c0.757-5.192,3.97-10.15,8.283-13.557c-0.293-3.97-1.572-7.834-3.839-10.875L28.995,7.75l-5.857,8.364
	c-2.268,3.041-3.546,6.905-3.839,10.875C23.613,30.395,26.826,35.353,27.583,40.546z"/>
<g>
</g>
<g>
</g>
<g>
</g>
<g>
</g>
<g>
</g>
<g>
</g>
<g>
</g>
<g>
</g>
<g>
</g>
<g>
</g>
<g>
</g>
<g>
</g>
<g>
</g>
<g>
</g>
<g>
</g>
</svg>
