<svg height="512pt" viewBox="-11 0 512 512.00051" width="512pt" xmlns="http://www.w3.org/2000/svg"><path d="m489.921875 315.839844c-.898437-2.769532-3.292969-4.785156-6.175781-5.203125l-34.980469-5.085938-15.644531-31.695312c-1.289063-2.613281-3.945313-4.265625-6.859375-4.265625-2.910157 0-5.570313 1.652344-6.859375 4.265625l-15.644532 31.695312-34.980468 5.085938c-2.878906.417969-5.273438 2.433593-6.171875 5.203125-.902344 2.769531-.152344 5.808594 1.933593 7.839844l25.3125 24.675781-5.976562 34.835937c-.492188 2.871094.6875 5.773438 3.042969 7.484375 2.355469 1.710938 5.476562 1.9375 8.054687.582031l31.289063-16.449218 31.289062 16.449218c1.117188.585938 2.339844.878907 3.554688.878907 1.589843 0 3.167969-.492188 4.5-1.464844 2.355469-1.710937 3.535156-4.609375 3.039062-7.480469l-5.972656-34.835937 25.3125-24.675781c2.085937-2.03125 2.835937-5.070313 1.9375-7.839844zm0 0" fill="#f9cd45"/><path d="m489.921875 315.839844c-.898437-2.769532-3.292969-4.785156-6.175781-5.203125l-34.980469-5.085938-15.644531-31.695312c-1.289063-2.613281-3.945313-4.265625-6.859375-4.265625-2.910157 0-5.570313 1.652344-6.859375 4.265625l-4.867188 9.863281 10.773438 21.832031 34.980468 5.085938c2.878907.417969 5.273438 2.433593 6.175782 5.203125.898437 2.769531.148437 5.808594-1.9375 7.839844l-25.308594 24.675781 5.972656 34.835937c.09375.542969.109375 1.078125.085938 1.613282l12.273437 6.453124c1.121094.585938 2.339844.878907 3.558594.878907 1.585937 0 3.164063-.492188 4.496094-1.464844 2.355469-1.710937 3.535156-4.609375 3.042969-7.480469l-5.976563-34.835937 25.3125-24.675781c2.085937-2.03125 2.835937-5.070313 1.9375-7.839844zm0 0" fill="#f8b53c"/><path d="m408.75 44.796875-19.316406-13.515625.1875-23.574219c.023437-2.910156-1.609375-5.582031-4.210938-6.890625-2.597656-1.308594-5.714844-1.027344-8.042968.722656l-18.824219 14.191407-22.359375-7.457031c-2.761719-.921876-5.808594-.199219-7.855469 1.871093-2.050781 2.070313-2.746094 5.121094-1.796875 7.875l7.679688 22.289063-14.007813 18.960937c-1.726563 2.339844-1.980469 5.460938-.644531 8.050781 1.335937 2.585938 4.039062 4.179688 6.933594 4.140626l23.570312-.414063 13.703125 19.175781c1.449219 2.03125 3.78125 3.203125 6.222656 3.203125.410157 0 .824219-.03125 1.238281-.097656 2.871094-.46875 5.230469-2.53125 6.078126-5.316406l6.886718-22.542969 22.480469-7.109375c2.773437-.878906 4.8125-3.253906 5.25-6.132813.441406-2.878906-.789063-5.757812-3.171875-7.429687zm0 0" fill="#f9cd45"/><path d="m408.75 44.796875-19.316406-13.515625.1875-23.574219c.023437-2.910156-1.609375-5.582031-4.210938-6.890625-2.597656-1.308594-5.714844-1.027344-8.042968.722656l-11.222657 8.460938-.164062 21.28125 19.3125 13.515625c2.386719 1.667969 3.613281 4.546875 3.171875 7.425781s-2.476563 5.253906-5.25 6.132813l-22.476563 7.109375-4.390625 14.371094 7.417969 10.386718c1.449219 2.027344 3.78125 3.203125 6.222656 3.203125.410157 0 .824219-.035156 1.238281-.101562 2.871094-.46875 5.230469-2.527344 6.078126-5.3125l6.886718-22.546875 22.480469-7.105469c2.773437-.878906 4.8125-3.257813 5.25-6.136719.441406-2.875-.789063-5.753906-3.171875-7.425781zm0 0" fill="#f8b53c"/><path d="m326.605469 71.042969-2.53125.046875c.773437.242187 1.585937.382812 2.417969.371094l.40625-.007813zm0 0" fill="#f9cd45"/><path d="m224.1875 148.96875h-96.539062c-35.742188 0-64.824219 29.082031-64.824219 64.824219v123.722656c0 25.179687 14.863281 48.148437 37.492187 58.746094v108.089843c0 4.222657 3.425782 7.648438 7.648438 7.648438h129.347656c4.222656 0 7.648438-3.425781 7.648438-7.648438v-105.46875c11.601562-3.964843 22.019531-11.246093 29.78125-20.90625 9.199218-11.457031 14.269531-25.828124 14.269531-40.464843v-123.71875c0-35.742188-29.078125-64.824219-64.824219-64.824219zm0 0" fill="#f3c9b8"/><path d="m97.1875 85.011719c-18.949219 0-34.363281 15.414062-34.363281 34.359375v141.753906c0 18.949219 15.414062 34.363281 34.363281 34.363281 18.945312 0 34.359375-15.414062 34.359375-34.363281v-141.753906c0-18.945313-15.414063-34.359375-34.359375-34.359375zm0 0" fill="#f3c9b8"/><path d="m97.1875 85.011719c-4.117188 0-8.066406.730469-11.730469 2.0625 13.191407 4.804687 22.632813 17.46875 22.632813 32.296875v141.753906c0 14.832031-9.441406 27.496094-22.632813 32.296875 3.664063 1.335937 7.613281 2.066406 11.730469 2.066406 18.945312 0 34.359375-15.414062 34.359375-34.363281v-141.753906c0-18.945313-15.414063-34.359375-34.359375-34.359375zm0 0" fill="#f0bca6"/><path d="m257.464844 36.496094c-18.949219 0-34.363282 15.414062-34.363282 34.359375v162.152343c0 18.945313 15.414063 34.359376 34.363282 34.359376 18.945312 0 34.359375-15.414063 34.359375-34.359376v-162.152343c0-18.945313-15.414063-34.359375-34.359375-34.359375zm0 0" fill="#f3c9b8"/><path d="m257.464844 36.496094c-4.117188 0-8.070313.726562-11.730469 2.0625 13.1875 4.804687 22.632813 17.46875 22.632813 32.296875v162.152343c0 14.828126-9.445313 27.492188-22.632813 32.296876 3.660156 1.335937 7.613281 2.0625 11.730469 2.0625 18.945312 0 34.359375-15.414063 34.359375-34.359376v-162.152343c0-18.945313-15.414063-34.359375-34.359375-34.359375zm0 0" fill="#f0bca6"/><path d="m260.402344 196.652344c-27.398438 6.457031-57.722656 15.417968-88.695313 26.289062-48.105469 16.882813-92.125 36.382813-123.953125 54.90625-36.25 21.097656-51.605468 37.8125-46.941406 51.101563 3.175781 9.042969 14.566406 13.53125 34.585938 13.53125 9.410156 0 20.730468-.992188 33.996093-2.972657 36.425781-5.429687 82.976563-17.71875 131.078125-34.601562 20.980469-7.367188 41.175782-15.226562 59.929688-23.289062zm0 0" fill="#16b770"/><path d="m69.394531 315.03125c-13.265625 1.980469-24.585937 2.972656-33.996093 2.972656-14.59375 0-24.578126-2.398437-30.164063-7.191406-4.875 6.664062-6.332031 12.691406-4.421875 18.140625 3.175781 9.039063 14.566406 13.527344 34.585938 13.527344 9.410156 0 20.730468-.992188 33.996093-2.96875 36.425781-5.433594 82.976563-17.722657 131.078125-34.605469 20.980469-7.363281 41.175782-15.226562 59.929688-23.289062v-24.476563c-18.753906 8.0625-38.949219 15.921875-59.929688 23.289063-48.101562 16.878906-94.652344 29.171874-131.078125 34.601562zm0 0" fill="#00a26e"/><path d="m371.363281 198.894531c-3.425781-9.765625-16.175781-14.164062-38.925781-13.457031-18.839844.582031-44.429688 4.625-73.960938 11.679688-.039062.007812-.074218.019531-.109374.035156-3.859376 1.695312-5.3125 5.6875-4.125 9.070312l21.113281 60.148438c.667969 1.910156 2.117187 3.445312 3.984375 4.222656.878906.371094 1.816406.554688 2.75.554688 1.042968 0 2.089844-.230469 3.054687-.6875 27.097657-12.820313 49.316407-25.523438 64.242188-36.730469 18.21875-13.675781 25.40625-25.070313 21.976562-34.835938zm0 0" fill="#ecedef"/><path d="m371.363281 198.894531c-.796875-2.273437-2.105469-4.25-3.921875-5.945312-3.757812 5.34375-9.757812 11.097656-18.050781 17.324219-14.929687 11.207031-37.144531 23.910156-64.246094 36.730468-.964843.457032-2.007812.6875-3.054687.6875-.933594 0-1.871094-.183594-2.75-.554687-1.867188-.777344-3.316406-2.3125-3.984375-4.222657l-2.445313-6.964843h-8.230468l10.675781 30.421875c.671875 1.910156 2.117187 3.445312 3.984375 4.222656.882812.371094 1.816406.554688 2.753906.554688 1.042969 0 2.085938-.230469 3.050781-.6875 27.101563-12.820313 49.316407-25.523438 64.246094-36.730469 18.214844-13.675781 25.402344-25.070313 21.972656-34.835938zm0 0" fill="#d0cfd1"/><path d="m444.511719 173.222656c-.699219-1.976562-2.226563-3.550781-4.1875-4.300781-6.730469-2.578125-66.484375-24.941406-91.101563-16.300781-26.53125 9.3125-40.539062 38.472656-31.226562 65.003906 7.359375 20.964844 27.109375 34.113281 48.164062 34.113281 5.589844 0 11.273438-.929687 16.84375-2.882812 24.613282-8.640625 57.285156-63.441407 60.929688-69.660157 1.058594-1.808593 1.269531-3.992187.578125-5.972656zm0 0" fill="#d47a3d"/><path d="m444.511719 173.222656c-.699219-1.976562-2.226563-3.550781-4.1875-4.300781-6.433594-2.464844-61.335938-23.011719-87.660157-17.261719 26.730469 3.566406 58.390626 15.425782 63.183594 17.261719 1.960938.746094 3.488282 2.320313 4.1875 4.300781.691406 1.980469.480469 4.164063-.578125 5.972656-3.644531 6.222657-36.316406 61.023438-60.929687 69.660157-1.53125.539062-3.070313.992187-4.613282 1.375 3.972657.984375 8.082032 1.507812 12.246094 1.507812 5.589844 0 11.273438-.925781 16.84375-2.882812 24.613282-8.636719 57.285156-63.4375 60.929688-69.660157 1.058594-1.808593 1.269531-3.992187.578125-5.972656zm0 0" fill="#9f5c2e"/><path d="m150.613281 128.347656c-18.949219 0-34.363281 15.414063-34.363281 34.363282v87.167968c0 18.945313 15.414062 34.359375 34.363281 34.359375 18.945313 0 34.359375-15.414062 34.359375-34.359375v-87.167968c0-18.949219-15.414062-34.363282-34.359375-34.363282zm0 0" fill="#f3c9b8"/><path d="m150.613281 128.347656c-4.3125 0-8.433593.808594-12.238281 2.261719 12.917969 4.941406 22.121094 17.464844 22.121094 32.101563v87.167968c0 14.636719-9.203125 27.15625-22.121094 32.101563 3.804688 1.453125 7.925781 2.257812 12.238281 2.257812 18.945313 0 34.359375-15.414062 34.359375-34.359375v-87.167968c0-18.949219-15.414062-34.363282-34.359375-34.363282zm0 0" fill="#f0bca6"/><path d="m204.039062 128.347656c-18.949218 0-34.363281 15.414063-34.363281 34.363282v87.167968c0 18.945313 15.414063 34.359375 34.363281 34.359375 18.945313 0 34.359376-15.414062 34.359376-34.359375v-87.167968c0-18.949219-15.414063-34.363282-34.359376-34.363282zm0 0" fill="#f3c9b8"/><path d="m204.039062 128.347656c-4.117187 0-8.066406.730469-11.730468 2.066406 13.191406 4.800782 22.632812 17.464844 22.632812 32.296876v87.167968c0 14.828125-9.441406 27.492188-22.632812 32.296875 3.664062 1.332031 7.613281 2.0625 11.730468 2.0625 18.945313 0 34.359376-15.414062 34.359376-34.359375v-87.167968c0-18.949219-15.414063-34.363282-34.359376-34.363282zm0 0" fill="#f0bca6"/><path d="m304.476562 251.285156c0-18.949218-15.414062-34.363281-34.359374-34.363281h-78.734376c-18.945312 0-34.359374 15.414063-34.359374 34.363281 0 17.765625 13.550781 32.425782 30.863281 34.183594-9.851563 11.792969-15.398438 26.757812-15.398438 42.671875 0 76.070313 28.730469 76.070313 32.957031 76.070313 36.371094 0 61.722657-7.933594 77.503907-24.257813 13.746093-14.222656 20.382812-34.058594 21.523437-64.320313.003906-.09375.003906-.191406.003906-.285156v-62.191406c0-.3125-.007812-.625-.019531-.9375.011719-.308594.019531-.621094.019531-.933594zm0 0" fill="#f3c9b8"/><path d="m304.476562 251.285156c0-18.949218-15.414062-34.363281-34.359374-34.363281h-24.476563c18.945313 0 34.359375 15.414063 34.359375 34.363281 0 .3125-.007812.625-.019531.9375.011719.308594.019531.621094.019531.9375v62.1875c0 .097656 0 .191406-.003906.289063-1.140625 30.257812-7.777344 50.09375-21.523438 64.316406-12.589844 13.019531-31.273437 20.699219-56.777344 23.273437 1.109376.625 2.386719.984376 3.75.984376 36.371094 0 61.722657-7.933594 77.503907-24.257813 13.746093-14.222656 20.382812-34.058594 21.523437-64.316406.003906-.097657.003906-.191407.003906-.289063v-62.1875c0-.316406-.007812-.628906-.019531-.9375.011719-.3125.019531-.625.019531-.9375zm0 0" fill="#f0bca6"/></svg>