<svg height="511pt" viewBox="-51 0 511 511.99994" width="511pt" xmlns="http://www.w3.org/2000/svg"><path d="m122.285156 289.238281v199.511719l-25.238281 8.414062c-3.988281 1.332032-6.144531 5.640626-4.816406 9.628907s5.640625 6.144531 9.628906 4.8125l30.441406-10.148438c3.109375-1.035156 5.207031-3.941406 5.207031-7.21875v-205zm0 0" fill="#c27749"/><g fill="#ffcb63"><path d="m160.34375 195.363281h-137.007812c-12.59375 0-22.835938-10.246093-22.835938-22.835937s10.242188-22.835938 22.835938-22.835938h25.371093c6.996094 0 12.683594-5.6875 12.683594-12.683594 0-4.207031 3.410156-7.613281 7.613281-7.613281s7.609375 3.40625 7.609375 7.613281c0 15.386719-12.519531 27.90625-27.90625 27.90625h-25.371093c-4.199219 0-7.613282 3.414063-7.613282 7.613282 0 4.199218 3.414063 7.613281 7.613282 7.613281h137.007812c4.203125 0 7.609375 3.40625 7.609375 7.609375s-3.40625 7.613281-7.609375 7.613281zm0 0"/><path d="m99.449219 197.898438v262.851562h106.5625c0-16.816406 0-262.851562 0-262.851562zm0 0"/><path d="m408.984375 167.453125h-30.445313l-20.296874 114.535156 50.742187-23.199219zm0 0"/></g><path d="m368.390625 167.453125c-16.816406 0-30.449219 13.628906-30.449219 30.445313l-10.148437 43.132812 10.148437 48.207031 40.597656-17.398437v-104.386719zm0 0" fill="#ffe2a8"/><path d="m307.496094 167.453125h-40.59375v91.335937l71.039062 30.449219v-91.339843c0-16.816407-13.628906-30.445313-30.445312-30.445313zm0 0" fill="#fff0d3"/><path d="m307.496094 258.789062h-40.59375v30.449219h71.039062c0-16.816406-13.628906-30.449219-30.445312-30.449219zm0 0" fill="#cf301b"/><path d="m378.539062 258.789062-10.148437 15.226563 10.148437 15.222656h30.445313v-30.449219zm0 0" fill="#60312c"/><path d="m368.390625 258.789062c-16.816406 0-30.449219 13.632813-30.449219 30.449219h40.597656v-30.449219zm0 0" fill="#85453d"/><path d="m236.457031 473.941406v-164.40625l-50.742187-20.296875 10.148437 189.777344c0 25.222656 30.59375 25.371094 55.816407 25.371094h15.222656c0-16.8125-13.632813-30.445313-30.445313-30.445313zm0 0" fill="#a45e43"/><path d="m206.011719 458.71875v-270.96875c0-11.210938-9.089844-20.296875-20.296875-20.296875h-10.152344v291.265625c0 25.222656 20.449219 45.667969 45.671875 45.667969h30.445313c-25.222657 0-45.667969-20.445313-45.667969-45.667969zm0 0" fill="#c27749"/><path d="m216.160156 167.453125h-10.148437l-30.449219 71.039063 30.449219 71.042968h30.445312v-121.785156c0-11.210938-9.085937-20.296875-20.296875-20.296875zm0 0" fill="#c27749"/><path d="m104.523438 167.453125c-11.210938 0-20.296876 9.085937-20.296876 20.296875 0 67.257812 54.523438 121.785156 121.785157 121.785156v-142.082031zm0 0" fill="#e18f4e"/><path d="m160.34375 30.445312v102.503907l45.667969-31.460938v-40.597656zm0 0" fill="#a45e43"/><path d="m114.675781 60.890625v40.597656l60.890625 46.683594v-117.726563zm0 0" fill="#c27749"/><path d="m206.011719 60.890625h-91.339844l45.667969-45.667969zm0 0" fill="#ffcb63"/><path d="m206.011719 45.667969v15.222656c-25.222657 0-45.671875-20.449219-45.671875-45.667969h-15.222656l15.222656-15.222656c25.222656 0 45.671875 20.449219 45.671875 45.667969zm0 0" fill="#ffe2a8"/><path d="m160.339844 0v15.222656c0 25.21875-20.449219 45.667969-45.667969 45.667969v-15.222656c0-25.21875 20.449219-45.667969 45.667969-45.667969zm0 0" fill="#fff0d3"/><path d="m179.328125 101.488281c-1.066406-1.597656-2.335937-3.046875-3.761719-4.324219l-20.296875 47.425782 20.296875 47.429687c1.414063-1.609375 2.589844-3.433593 3.445313-5.429687 2.101562.738281 4.351562 1.160156 6.703125 1.160156 11.210937 0 20.296875-9.085938 20.296875-20.296875v-65.96875h-26.683594zm0 0" fill="#b3b3b3"/><path d="m160.34375 91.339844c-7.917969 0-14.890625 4.027344-18.988281 10.148437h-26.679688v65.964844c0 11.210937 9.085938 20.296875 20.296875 20.296875 2.351563 0 4.601563-.421875 6.703125-1.15625 3.101563 7.242188 10.289063 12.320312 18.667969 12.320312 6.070312 0 11.503906-2.671874 15.222656-6.894531v-94.855469c-4.039062-3.621093-9.371094-5.824218-15.222656-5.824218zm0 0" fill="#ccc"/></svg>