<?xml version="1.0" encoding="iso-8859-1"?>
<!-- Generator: Adobe Illustrator 18.0.0, SVG Export Plug-In . SVG Version: 6.00 Build 0)  -->
<!DOCTYPE svg PUBLIC "-//W3C//DTD SVG 1.1//EN" "http://www.w3.org/Graphics/SVG/1.1/DTD/svg11.dtd">
<svg version="1.1" id="Capa_1" xmlns="http://www.w3.org/2000/svg" xmlns:xlink="http://www.w3.org/1999/xlink" x="0px" y="0px"
	 viewBox="0 0 395.55 395.55" style="enable-background:new 0 0 395.55 395.55;" xml:space="preserve">
<g>
	<path style="fill:#F99C38;" d="M367.65,292.97c-3.13,11.8-7.71,22.54-13.56,32.25c-3.42,5.69-7.29,11.02-11.56,16
		c-31.4,36.71-84.52,54.33-144.75,54.33c-60.24,0-113.36-17.62-144.76-54.33c-4.27-4.98-8.14-10.31-11.56-16
		c-5.85-9.71-10.43-20.45-13.56-32.25H367.65z"/>
	<path style="fill:#EF5252;" d="M372.51,253.83c0,14.14-1.68,27.18-4.86,39.14H27.9c-3.18-11.96-4.86-25-4.86-39.14
		c0-3.8,0.12-7.59,0.36-11.35c0.21-3.21,0.5-6.39,0.87-9.56c0.57-4.88,1.34-9.72,2.3-14.51c0.5-2.47,1.04-4.94,1.64-7.38
		c0.25-1.02,0.5-2.04,0.77-3.05h337.59c0.27,1.01,0.52,2.03,0.77,3.05c0.6,2.44,1.14,4.9,1.64,7.38c0.96,4.78,1.73,9.62,2.3,14.5
		c0.38,3.17,0.67,6.36,0.87,9.57C372.39,246.24,372.51,250.03,372.51,253.83z"/>
	<path style="fill:#F99C38;" d="M366.57,207.98H28.98c3.68-14.06,9-27.56,15.72-40.25h306.15
		C357.58,180.42,362.89,193.92,366.57,207.98z"/>
	<path style="fill:#F99C38;" d="M350.85,167.73H44.7c4.59-8.67,9.85-16.96,15.7-24.77c8.75-11.71,15.93-24.39,21.35-37.75H313.2
		l0.52-0.21c5.43,13.43,12.64,26.19,21.43,37.96C341,150.77,346.26,159.06,350.85,167.73z"/>
	<path style="fill:#F99C38;" d="M313.72,105l-0.52,0.21H81.75c7.84-19.3,12.03-40,12.03-61.11v-1.61h207.99v1.61
		C301.77,65.13,305.93,85.76,313.72,105z"/>
	<path style="fill:#F99C38;" d="M372.15,242.48l-40.45,48.97l-44.64-54.03l-44.62,54.04l-44.65-54.04l-44.64,54.03l-44.64-54.03
		l-44.64,54.03L23.4,242.48c0.21-3.21,0.5-6.39,0.87-9.56c0.57-4.88,1.34-9.72,2.3-14.51l37.3,45.12l44.64-54.03l44.64,54.03
		l44.63-54.03l44.65,54.03l44.63-54.04l44.64,54.04l37.28-45.12c0.96,4.78,1.73,9.62,2.3,14.5
		C371.66,236.08,371.95,239.27,372.15,242.48z"/>
	<g>
		<path style="fill:#F9E17A;" d="M372.15,242.48l-40.45,48.97l-44.64-54.03l-44.62,54.04l-44.65-54.04l-44.64,54.03l-44.64-54.03
			l-44.64,54.03L23.4,242.48c-0.24,3.76-0.36,7.55-0.36,11.35c0,14.14,1.68,27.18,4.86,39.14h339.75c3.18-11.96,4.86-25,4.86-39.14
			C372.51,250.03,372.39,246.24,372.15,242.48z"/>
	</g>
	<path style="fill:#EF5252;" d="M354.09,325.22c-3.42,5.69-7.29,11.02-11.56,16H53.02c-4.27-4.98-8.14-10.31-11.56-16H354.09z"/>
	<path style="fill:#D17519;" d="M340.35,21.24c0,0.42-0.01,0.84-0.04,1.25c-0.65,11.16-9.9,20-21.21,20H76.45
		c-5.87,0-11.18-2.38-15.02-6.22c-3.57-3.57-5.88-8.41-6.19-13.78c-0.03-0.41-0.04-0.83-0.04-1.25C55.2,9.51,64.72,0,76.45,0H319.1
		c5.86,0,11.18,2.38,15.02,6.22C337.97,10.07,340.35,15.37,340.35,21.24z"/>
	<path style="fill:#F99C38;" d="M340.35,21.24c0,0.42-0.01,0.84-0.04,1.25H55.24c-0.03-0.41-0.04-0.83-0.04-1.25
		C55.2,9.51,64.72,0,76.45,0H319.1c5.86,0,11.18,2.38,15.02,6.22C337.97,10.07,340.35,15.37,340.35,21.24z"/>
	<g>
		<path style="fill:#F9E17A;" d="M125.029,83.32c-2.63,0-5.21-1.07-7.069-2.93c-1.86-1.86-2.931-4.44-2.931-7.07
			s1.07-5.21,2.931-7.07c1.859-1.86,4.439-2.93,7.069-2.93s5.21,1.07,7.07,2.93c1.86,1.86,2.93,4.44,2.93,7.07
			s-1.069,5.21-2.93,7.07S127.659,83.32,125.029,83.32z"/>
		<path style="fill:#F9E17A;" d="M173.529,83.32c-2.64,0-5.21-1.07-7.08-2.93c-1.859-1.86-2.92-4.44-2.92-7.07s1.061-5.21,2.92-7.07
			c1.87-1.86,4.45-2.93,7.08-2.93s5.2,1.07,7.07,2.93c1.86,1.86,2.93,4.44,2.93,7.07s-1.069,5.21-2.93,7.07
			S176.159,83.32,173.529,83.32z"/>
		<path style="fill:#F9E17A;" d="M222.02,83.32c-2.63,0-5.21-1.07-7.07-2.93c-1.859-1.86-2.93-4.44-2.93-7.07s1.07-5.21,2.93-7.07
			c1.87-1.86,4.44-2.93,7.07-2.93c2.64,0,5.21,1.07,7.07,2.93c1.859,1.86,2.93,4.44,2.93,7.07s-1.07,5.21-2.93,7.07
			C227.23,82.25,224.659,83.32,222.02,83.32z"/>
		<path style="fill:#F9E17A;" d="M270.52,83.32c-2.63,0-5.21-1.07-7.07-2.93c-1.859-1.86-2.93-4.44-2.93-7.07s1.07-5.21,2.93-7.07
			c1.86-1.86,4.44-2.93,7.07-2.93s5.21,1.07,7.07,2.93c1.859,1.86,2.93,4.44,2.93,7.07s-1.07,5.21-2.93,7.07
			C275.73,82.25,273.15,83.32,270.52,83.32z"/>
	</g>
	<g>
		<path style="fill:#D17519;" d="M125.029,371.3c-2.63,0-5.21-1.06-7.069-2.92c-1.86-1.87-2.931-4.44-2.931-7.08
			c0-2.63,1.07-5.2,2.931-7.07c1.859-1.86,4.439-2.92,7.069-2.92s5.21,1.06,7.07,2.92c1.86,1.87,2.93,4.44,2.93,7.07
			c0,2.64-1.069,5.22-2.93,7.08C130.239,370.24,127.659,371.3,125.029,371.3z"/>
		<path style="fill:#D17519;" d="M173.529,371.31c-2.64,0-5.21-1.07-7.08-2.93c-1.859-1.87-2.92-4.44-2.92-7.08
			c0-2.63,1.061-5.2,2.92-7.07c1.87-1.86,4.45-2.93,7.08-2.93s5.2,1.07,7.07,2.93c1.86,1.87,2.93,4.44,2.93,7.07
			c0,2.64-1.069,5.21-2.93,7.08C178.739,370.24,176.159,371.31,173.529,371.31z"/>
		<path style="fill:#D17519;" d="M222.02,371.3c-2.63,0-5.21-1.06-7.07-2.92c-1.859-1.86-2.93-4.44-2.93-7.07
			c0-2.64,1.07-5.21,2.93-7.08c1.87-1.86,4.44-2.93,7.07-2.93c2.64,0,5.21,1.07,7.07,2.93c1.859,1.86,2.93,4.44,2.93,7.08
			c0,2.63-1.07,5.21-2.93,7.07C227.23,370.24,224.659,371.3,222.02,371.3z"/>
		<path style="fill:#D17519;" d="M270.52,371.3c-2.63,0-5.21-1.06-7.07-2.93c-1.859-1.86-2.93-4.43-2.93-7.07
			c0-2.63,1.07-5.2,2.93-7.07c1.86-1.86,4.44-2.93,7.07-2.93s5.21,1.07,7.07,2.93c1.859,1.87,2.93,4.44,2.93,7.07
			c0,2.64-1.07,5.22-2.93,7.07C275.73,370.24,273.159,371.3,270.52,371.3z"/>
	</g>
	<g>
		<path style="fill:#EF5252;" d="M104.275,105.21H81.75c-5.42,13.36-12.6,26.04-21.35,37.75c-5.85,7.81-11.11,16.1-15.7,24.77
			h25.074L104.275,105.21z"/>
		<polygon style="fill:#D17519;" points="155.083,105.21 122.549,105.21 88.048,167.73 120.582,167.73 		"/>
		<polygon style="fill:#EF5252;" points="205.89,105.21 173.356,105.21 138.855,167.73 171.389,167.73 		"/>
		<polygon style="fill:#D17519;" points="256.698,105.21 224.164,105.21 189.663,167.73 222.197,167.73 		"/>
		<polygon style="fill:#EF5252;" points="307.506,105.21 274.972,105.21 240.471,167.73 273.005,167.73 		"/>
		<path style="fill:#D17519;" d="M291.278,167.73h59.572c-4.59-8.67-9.85-16.96-15.7-24.77c-6.103-8.172-11.425-16.831-15.938-25.85
			L291.278,167.73z"/>
	</g>
</g>
<g>
</g>
<g>
</g>
<g>
</g>
<g>
</g>
<g>
</g>
<g>
</g>
<g>
</g>
<g>
</g>
<g>
</g>
<g>
</g>
<g>
</g>
<g>
</g>
<g>
</g>
<g>
</g>
<g>
</g>
</svg>
