<?xml version="1.0" encoding="iso-8859-1"?>
<!-- Generator: Adobe Illustrator 19.0.0, SVG Export Plug-In . SVG Version: 6.00 Build 0)  -->
<svg version="1.1" id="Layer_1" xmlns="http://www.w3.org/2000/svg" xmlns:xlink="http://www.w3.org/1999/xlink" x="0px" y="0px"
	 viewBox="0 0 512.093 512.093" style="enable-background:new 0 0 512.093 512.093;" xml:space="preserve">
<path style="fill:#40596B;" d="M512.093,512.046c-160,0-318.933,0-478.933,0c-182.4-170.667,458.667-341.333,210.133-512
	c20.267,0,39.467,0,59.733,0C624.093,170.713,123.826,341.38,512.093,512.046z"/>
<g>
	<path style="fill:#ACB3BA;" d="M107.826,512.046c-13.867,0-28.8,0-42.667,0c-196.267-170.667,435.2-341.333,181.333-512
		c2.133,0,3.2,0,5.333,0C512.093,170.713-106.574,341.38,107.826,512.046z"/>
	<path style="fill:#ACB3BA;" d="M480.093,512.046c-13.867,0-28.8,0-42.667,0c-356.267-170.667,166.4-341.333-144-512
		c2.133,0,3.2,0,5.333,0C615.559,170.713,105.693,341.38,480.093,512.046z"/>
	<path style="fill:#ACB3BA;" d="M353.159,66.18c-6.4,0-11.733,0-18.133,0c-8.533-18.133-25.6-36.267-51.2-55.467
		c4.267,0,8.533,0,12.8,0C324.359,29.913,342.493,48.046,353.159,66.18z"/>
	<path style="fill:#ACB3BA;" d="M339.293,192.046c-11.733,0-22.4,0-34.133,0c23.467-30.933,39.467-61.867,38.4-92.8
		c7.467,0,14.933,0,22.4,0C370.226,131.246,358.493,162.18,339.293,192.046z"/>
	<path style="fill:#ACB3BA;" d="M239.026,442.713c-26.667,0-53.333,0-80,0c-24.533-62.933,36.267-125.867,93.867-188.8
		c14.933,0,28.8,0,43.733,0C249.693,316.846,201.693,379.78,239.026,442.713z"/>
</g>
<g>
</g>
<g>
</g>
<g>
</g>
<g>
</g>
<g>
</g>
<g>
</g>
<g>
</g>
<g>
</g>
<g>
</g>
<g>
</g>
<g>
</g>
<g>
</g>
<g>
</g>
<g>
</g>
<g>
</g>
</svg>
