<svg height="511pt" viewBox="0 -22 511.99982 511" width="511pt" xmlns="http://www.w3.org/2000/svg"><path d="m108.5625 193.4375c-38.398438 0-67.457031-9.558594-86.527344-28.496094-23.273437-23.113281-22.0703122-51.539062-22.0078122-52.738281l.8320312-15.933594 15.855469 1.8125c50.109375 5.738281 63.261718-6.511719 63.398437-6.644531-.011719.007812-.296875.296875-.769531.949219l44.175781 100.597656c-5.132812.300781-10.121093.453125-14.957031.453125zm0 0" fill="#f89637"/><path d="m330.019531 466.839844h-132.285156c-74.097656 0-134.382813-60.285156-134.382813-134.382813 0-19.917969 7.238282-51.886719 15.816407-69.871093l29.457031-63.386719c2.671875-6.46875 1.285156-13.8125-3.554688-18.769531-19.429687-19.902344-30.128906-46.179688-30.128906-73.996094 0-28.769532 11.335938-55.683594 31.917969-75.789063 20.578125-20.09375 47.773437-30.789062 76.558594-30.113281 57.191406 1.34375 103.570312 49.003906 103.386719 106.246094-.082032 26.132812-9.660157 50.859375-26.730469 70.019531 18.410156 13.8125 40.691406 21.28125 64.117187 21.28125h18c39.386719 0 75.296875-10.65625 106.730469-31.671875 23.703125-15.84375 35.867187-31.984375 35.988281-32.144531l27.089844-36.882813-.03125 187.507813c0 100.328125-81.621094 181.953125-181.949219 181.953125zm0 0" fill="#ffde4e"/><path d="m156.351562 99.523438c7.84375 0 15.359376-6.902344 15-15-.367187-8.128907-6.59375-15-15-15-7.847656 0-15.363281 6.898437-15 15 .363282 8.125 6.589844 15 15 15zm0 0" fill="#7742c9"/><path d="m484.910156 134.257812c-.121094.164063-12.285156 16.300782-35.984375 32.148438-31.4375 21.015625-67.347656 31.671875-106.730469 31.671875h-18.003906c-13.054687 0-25.753906-2.328125-37.628906-6.773437v275.535156h43.457031c100.328125 0 181.949219-81.625 181.949219-181.953125l.03125-187.507813zm0 0" fill="#fdb737"/><path d="m324.496094 397.804688h-103.808594c-33.9375 0-61.546875-27.609376-61.546875-61.546876v-4.335937c0-33.9375 27.609375-61.546875 61.546875-61.546875h181.960938v49.277344c0 43.089844-35.058594 78.152344-78.152344 78.152344zm0 0" fill="#fdb737"/><path d="m286.5625 270.375v127.429688h37.933594c43.09375 0 78.152344-35.0625 78.152344-78.152344v-49.277344zm0 0" fill="#f89637"/></svg>