<?xml version="1.0" encoding="iso-8859-1"?>
<!-- Generator: Adobe Illustrator 19.0.0, SVG Export Plug-In . SVG Version: 6.00 Build 0)  -->
<svg version="1.1" id="Layer_1" xmlns="http://www.w3.org/2000/svg" xmlns:xlink="http://www.w3.org/1999/xlink" x="0px" y="0px"
	 viewBox="0 0 511.674 511.674" style="enable-background:new 0 0 511.674 511.674;" xml:space="preserve">
<path style="fill:#A85D5D;" d="M360.038,252.886l20.174-63.553l-10.914-2.811c-0.281-0.062-29.216-7.464-67.254-14.756
	c-51.288-9.822-93.948-14.803-126.771-14.803c-38.116,0-62.21,6.839-73.703,20.924c-4.591,5.652-9.463,15.412-6.48,29.872
	c5.247,25.531,0.531,59.68-4.45,95.829c-3.966,28.701-8.058,58.4-7.417,86.133c0.75,32.683,8.182,57.822,22.704,76.857
	c17.926,23.484,45.955,37.413,85.68,42.598c12.71,1.655,24.953,2.498,36.383,2.498c51.256,0,89.716-16.646,114.31-49.483
	c13.257-17.692,22.329-40.053,26.967-66.489c3.639-20.674,4.591-43.909,2.842-69.064
	C369.626,291.205,362.552,262.302,360.038,252.886z"/>
<rect x="213.207" y="277.087" style="fill:#F6BB42;" width="21.314" height="77.64"/>
<path style="fill:#FFCE54;" d="M255.831,341.032h-63.943l-21.314,21.314v85.258h106.564v-85.257L255.831,341.032z M255.831,426.29
	h-63.943v-55.121l8.838-8.822h46.283l8.822,8.822V426.29z"/>
<path style="fill:#434A54;" d="M383.71,221.921v161.74l31.965,21.314l31.979-21.314v-161.74H383.71z M415.675,351.682
	c-5.872,0-10.65-4.763-10.65-10.649s4.778-10.665,10.65-10.665c5.887,0,10.664,4.778,10.664,10.665S421.562,351.682,415.675,351.682
	z M415.675,319.718c-5.872,0-10.65-4.778-10.65-10.665s4.778-10.649,10.65-10.649c5.887,0,10.664,4.763,10.664,10.649
	S421.562,319.718,415.675,319.718z"/>
<path style="fill:#A85D5D;" d="M489.408,47.595c-5.138-15.506-16.083-42.223-31.62-46.798c-1.796-0.531-3.654-0.796-5.543-0.796
	c-10.588,0-19.77,8.072-32.496,19.222c-13.896,12.211-32.947,28.935-61.616,42.566c-34.024,16.177-74.624,24.375-120.665,24.375
	c-48.937,0-105.417-9.197-167.83-27.326c-5.09-1.468-10.009-2.217-14.615-2.217c-11.321,0-21.19,4.544-28.544,13.164
	C15.142,83.057,9.504,106.292,9.723,138.834c0.141,23.079,3.186,42.473,3.311,43.285l0.265,1.64l0.75,1.483
	c0.578,1.14,14.538,28.341,51.327,55.293c21.314,15.631,46.049,28.061,73.5,36.945c34.025,11.023,72.36,16.614,113.927,16.614
	c44.027,0,92.434-6.293,143.854-18.707c36.148-8.729,63.615-27.717,81.666-56.464c14.787-23.547,22.705-52.685,23.563-86.569
	C502.587,104.075,498.153,73.969,489.408,47.595z"/>
<path style="opacity:0.1;fill:#FFFFFF;enable-background:new    ;" d="M9.926,148.062c1.124-26.264,6.667-45.393,16.552-56.963
	c7.354-8.62,17.223-13.164,28.544-13.164c4.606,0,9.525,0.75,14.615,2.217c62.414,18.129,118.893,27.326,167.83,27.326
	c46.041,0,86.641-8.198,120.665-24.375c28.669-13.632,47.72-30.355,61.616-42.566c12.727-11.149,21.908-19.222,32.496-19.222
	c1.889,0,3.747,0.265,5.543,0.796c15.537,4.575,26.482,31.292,31.62,46.798c7.058,21.252,11.29,44.94,12.305,68.128
	c0.062-1.546,0.125-3.107,0.172-4.685c0.702-28.279-3.731-58.385-12.477-84.758c-5.138-15.506-16.083-42.223-31.62-46.798
	C455.991,0.265,454.133,0,452.244,0c-10.588,0-19.77,8.072-32.496,19.222c-13.896,12.211-32.947,28.935-61.616,42.566
	c-34.024,16.177-74.624,24.375-120.665,24.375c-48.937,0-105.417-9.197-167.83-27.326c-5.09-1.468-10.009-2.217-14.615-2.217
	c-11.321,0-21.19,4.544-28.544,13.164c-11.336,13.273-16.974,36.508-16.755,69.05C9.739,142.004,9.817,145.08,9.926,148.062z"/>
<path style="fill:#8C4C4C;" d="M484.896,176.216l-86.586,44.628l-85.929,21.767h-82.143l-70.314-8.854l-63.943-20.752
	c0,0-60.008-26.14-62.007-27.467c-1.015-0.687-11.555-4.356-21.549-7.776c0.328,2.592,0.578,4.138,0.609,4.356l0.265,1.64
	l0.75,1.483c0.578,1.14,14.538,28.341,51.327,55.293c21.314,15.631,46.049,28.061,73.5,36.945
	c34.025,11.023,72.36,16.614,113.927,16.614c44.027,0,92.434-6.293,143.854-18.707c36.148-8.729,63.615-27.717,81.666-56.464
	c8.807-14.038,15.178-30.043,19.082-47.875L484.896,176.216z"/>
<g>
	<path style="fill:#434A54;" d="M181.629,263.332c1.218-11.898,4.934-22.033,4.981-22.126l-19.972-7.448
		c-0.188,0.5-4.591,12.382-6.168,26.889c-0.921,8.494-0.671,16.224,0.687,23.11c7.933,1.936,16.052,3.606,24.375,4.996
		C180.957,281.695,180.801,271.358,181.629,263.332z"/>
	<path style="fill:#434A54;" d="M250.553,245.656l-19.972-7.464c-0.187,0.5-4.591,12.398-6.168,26.905
		c-1.14,10.649-0.468,20.128,1.952,28.2c7.776,0.469,15.677,0.734,23.704,0.781c-5.153-7.058-5.372-17.927-4.497-26.296
		C246.79,255.884,250.506,245.75,250.553,245.656z"/>
	<path style="fill:#434A54;" d="M309.508,267.782c1.218-11.898,4.935-22.033,4.981-22.126l-19.972-7.464
		c-0.188,0.5-4.606,12.398-6.168,26.905c-1.124,10.368-0.516,19.628,1.749,27.561c7.214-0.547,14.49-1.219,21.877-2.046
		C308.806,283.757,308.775,274.872,309.508,267.782z"/>
	<path style="fill:#434A54;" d="M378.417,233.445l-19.956-7.464c-0.188,0.5-4.591,12.398-6.168,26.905
		c-1.296,12.039-0.266,22.563,2.982,31.276c7.073-1.296,14.226-2.701,21.439-4.231c-3.95-7.011-4.06-16.724-3.264-24.359
		C374.669,243.673,378.386,233.539,378.417,233.445z"/>
	<path style="fill:#434A54;" d="M437.379,230.931c1.233-11.914,4.95-22.032,4.981-22.126l-19.956-7.464
		c-0.188,0.499-4.606,12.398-6.168,26.904c-1.687,15.553,0.53,28.606,6.402,38.46c6.667-2.936,12.929-6.324,18.8-10.149
		C436.724,249.497,436.552,239.051,437.379,230.931z"/>
	<path style="fill:#434A54;" d="M117.685,242.58c1.218-11.898,4.935-22.033,4.981-22.126l-19.972-7.448
		c-0.188,0.5-4.591,12.383-6.168,26.889c-0.781,7.246-0.718,13.944,0.156,20.019c8.745,4.544,17.864,8.667,27.373,12.32l0.578-0.655
		C117.108,264.894,116.702,252.12,117.685,242.58z"/>
</g>
<path style="fill:#656D78;" d="M494.14,183.664c3.139-10.478,5.34-21.658,6.59-33.494c-7.637,7.37-26.28,23.75-55.918,39.959
	c-23.297,12.742-48.734,22.892-75.607,30.168c-33.619,9.104-69.611,13.726-106.971,13.726c-37.507,0-74.171-4.138-108.946-12.289
	c-27.811-6.527-54.512-15.63-79.324-27.045c-36.336-16.724-58.041-33.635-63.6-38.21c0.937,14.584,2.577,25.046,2.67,25.64
	l0.265,1.64l0.75,1.483c0.031,0.078,0.156,0.297,0.328,0.641c11.586,7.776,28.201,17.754,49.75,27.748
	c26.186,12.118,54.309,21.783,83.634,28.701c36.554,8.633,75.076,13.005,114.472,13.005c39.514,0,77.63-4.934,113.279-14.662
	c28.606-7.808,55.683-18.707,80.495-32.386C471.56,199.717,484.239,191.144,494.14,183.664z"/>
<g>
</g>
<g>
</g>
<g>
</g>
<g>
</g>
<g>
</g>
<g>
</g>
<g>
</g>
<g>
</g>
<g>
</g>
<g>
</g>
<g>
</g>
<g>
</g>
<g>
</g>
<g>
</g>
<g>
</g>
</svg>
