<svg height="464pt" viewBox="0 0 464 464" width="464pt" xmlns="http://www.w3.org/2000/svg"><path d="m232 80c-83.949219 0-152 68.050781-152 152s68.050781 152 152 152 152-68.050781 152-152-68.050781-152-152-152zm0 192c-22.089844 0-40-17.910156-40-40s17.910156-40 40-40 40 17.910156 40 40-17.910156 40-40 40zm0 0" fill="#d3843d"/><path d="m320 232c0 48.601562-39.398438 88-88 88s-88-39.398438-88-88 39.398438-88 88-88 88 39.398438 88 88zm0 0" fill="#c45c24"/><g fill="#ebb562"><path d="m232 192c5.507812.007812 10.957031 1.15625 16 3.375v-49.855469c-10.570312-2.027343-21.429688-2.027343-32 0v49.855469c5.042969-2.21875 10.492188-3.367188 16-3.375zm0 0"/><path d="m269.175781 217.457031 35.304688-35.3125c-6.101563-8.855469-13.769531-16.523437-22.625-22.625l-35.3125 35.304688c10.367187 4.066406 18.566406 12.265625 22.632812 22.632812zm0 0"/><path d="m318.480469 216h-49.855469c4.5 10.191406 4.5 21.808594 0 32h49.855469c2.027343-10.570312 2.027343-21.429688 0-32zm0 0"/><path d="m269.175781 246.542969c-4.066406 10.367187-12.265625 18.566406-22.632812 22.632812l35.3125 35.304688c8.855469-6.101563 16.523437-13.769531 22.625-22.625zm0 0"/><path d="m232 272c-5.507812-.007812-10.957031-1.15625-16-3.375v49.855469c10.570312 2.027343 21.429688 2.027343 32 0v-49.855469c-5.042969 2.21875-10.492188 3.367188-16 3.375zm0 0"/><path d="m194.824219 246.542969-35.304688 35.3125c6.101563 8.855469 13.769531 16.523437 22.625 22.625l35.3125-35.304688c-10.367187-4.066406-18.566406-12.265625-22.632812-22.632812zm0 0"/><path d="m192 232c.007812-5.507812 1.15625-10.957031 3.375-16h-49.855469c-2.027343 10.570312-2.027343 21.429688 0 32h49.855469c-2.21875-5.042969-3.367188-10.492188-3.375-16zm0 0"/><path d="m217.457031 194.824219-35.3125-35.304688c-8.855469 6.101563-16.523437 13.769531-22.625 22.625l35.304688 35.3125c4.066406-10.367187 12.265625-18.566406 22.632812-22.632812zm0 0"/></g><path d="m232 0c13.253906 0 24 10.746094 24 24v128h-48v-128c0-13.253906 10.746094-24 24-24zm0 0" fill="#f1d77e"/><path d="m208 312h48v128c0 13.253906-10.746094 24-24 24s-24-10.746094-24-24zm0 0" fill="#f1d77e"/><path d="m464 232c0 13.253906-10.746094 24-24 24h-128v-48h128c13.253906 0 24 10.746094 24 24zm0 0" fill="#f1d77e"/><path d="m152 208v48h-128c-13.253906 0-24-10.746094-24-24s10.746094-24 24-24zm0 0" fill="#f1d77e"/><path d="m304 192-32-32 96-96c4.113281-4.480469 9.917969-7.03125 16-7.03125s11.886719 2.550781 16 7.03125c4.480469 4.113281 7.03125 9.917969 7.03125 16s-2.550781 11.886719-7.03125 16zm0 0" fill="#f1d77e"/><path d="m160 192 32-32-96-96c-4.113281-4.480469-9.917969-7.03125-16-7.03125s-11.886719 2.550781-16 7.03125c-4.480469 4.113281-7.03125 9.917969-7.03125 16s2.550781 11.886719 7.03125 16zm0 0" fill="#f1d77e"/><path d="m304 272-32 32 96 96.96875c4.113281 4.480469 9.917969 7.03125 16 7.03125s11.886719-2.550781 16-7.03125c4.480469-4.113281 7.03125-9.917969 7.03125-16s-2.550781-11.886719-7.03125-16zm0 0" fill="#f1d77e"/><path d="m160 272 32 32-96 96c-4.113281 4.480469-9.917969 7.03125-16 7.03125s-11.886719-2.550781-16-7.03125c-4.480469-4.113281-7.03125-9.917969-7.03125-16s2.550781-11.886719 7.03125-16zm0 0" fill="#f1d77e"/><path d="m208 48h48v32h-48zm0 0" fill="#ebb562"/><path d="m80 112 32-32 24.003906 24-32 32zm0 0" fill="#ebb562"/><path d="m80.003906 352.003906 24-24.003906 32 32-24 24.003906zm0 0" fill="#ebb562"/><path d="m48 208h32v48h-32zm0 0" fill="#ebb562"/><path d="m328.003906 104 24-24.003906 32 32-24 24.003906zm0 0" fill="#ebb562"/><path d="m328.003906 360 32.003906-32 24 24-32 32zm0 0" fill="#ebb562"/><path d="m416 256h-32v-48h32zm0 0" fill="#ebb562"/><path d="m208 384h48v32h-48zm0 0" fill="#ebb562"/></svg>