<?xml version="1.0" encoding="iso-8859-1"?>
<!-- Generator: Adobe Illustrator 19.0.0, SVG Export Plug-In . SVG Version: 6.00 Build 0)  -->
<svg version="1.1" id="Capa_1" xmlns="http://www.w3.org/2000/svg" xmlns:xlink="http://www.w3.org/1999/xlink" x="0px" y="0px"
	 viewBox="0 0 512 512" style="enable-background:new 0 0 512 512;" xml:space="preserve">
<g>
	<path style="fill:#79658B;" d="M451.832,34.092c-3.264-2.978-8.322-2.75-11.303,0.514
		c-1.231,1.348-107.981,117.799-211.212,197.153l-53.748-7.678c-4.383-0.629-8.427,2.414-9.052,6.788s2.415,8.426,6.788,9.051
		l37.876,5.411c-9.781,7.11-19.474,13.81-28.979,19.949c-3.712,2.397-4.777,7.349-2.381,11.061c1.53,2.37,4.103,3.661,6.729,3.661
		c1.486,0,2.99-0.414,4.332-1.28c8.239-5.32,16.614-11.057,25.059-17.103l-9.196,32.185c-1.214,4.248,1.246,8.676,5.494,9.89
		c0.735,0.209,1.475,0.31,2.202,0.31c3.481,0,6.685-2.291,7.688-5.804l14.919-52.218c105.152-80.419,214.048-199.22,215.298-200.588
		C455.324,42.131,455.095,37.071,451.832,34.092z"/>
	<path style="fill:#79658B;" d="M309.685,36.613c-1.87-4.003-6.629-5.73-10.634-3.861c-0.448,0.209-45.418,21.301-97.48,52.534
		c-43.326,25.992-78.625,51.032-105.605,74.864c-1.221-0.238-2.497-0.194-3.727,0.157l-56,16c-4.248,1.214-6.708,5.642-5.494,9.89
		c1.214,4.249,5.644,6.707,9.891,5.495l32.113-9.175c-6.605,7.029-12.426,13.938-17.451,20.72c-2.63,3.55-1.885,8.56,1.665,11.191
		c1.432,1.061,3.101,1.573,4.757,1.573c2.447,0,4.864-1.12,6.434-3.237c5.298-7.149,11.457-14.299,18.284-21.395V216
		c0,4.418,3.582,8,8,8s8-3.582,8-8v-40.11C177.861,107.504,304.33,47.946,305.825,47.247
		C309.827,45.377,311.556,40.616,309.685,36.613z"/>
</g>
<path style="fill:#C5A3C8;" d="M86.437,320c-40-8-108.498-61.381-60.366-137.45c2.333-3.688,7.163-4.871,10.906-2.626l61.816,37.089
	c4.993,2.996,5.232,10.164,0.422,13.446C83.317,241.305,46.437,288,86.437,320z"/>
<path style="fill:#995F9F;" d="M176.223,230.678l48.424,72.636c2.974,4.462,0.809,10.543-4.325,12.091
	c-24.191,7.293-94.551,32.929-160.751-5.808c67.059-16.765,94.046-54.547,102.494-77.254
	C164.345,226.213,172.595,225.236,176.223,230.678z"/>
<path style="fill:#F6C053;" d="M492.258,2.512C490.747,0.909,488.641,0,486.438,0H428.77c-4.395,0-8.057,3.708-7.999,8.104
	l1.641,126.006l-48.583,94.357l-33.132-86.143l-6.27-126.72c-0.21-4.259-3.725-7.604-7.99-7.604h-56
	c-4.537,0-8.252,3.941-7.986,8.47l8,136c0.057,0.959,0.285,1.901,0.676,2.779l63.64,143.189l15.611,78.054l-9.585,126.905
	c-0.344,4.575,3.389,8.603,7.978,8.603h49.667c4.197,0,7.681-3.244,7.979-7.43l8-112c0.048-0.669,0.012-1.341-0.108-2.001
	l-15.492-85.204l86.631-157.51c0.573-1.042,0.906-2.199,0.977-3.386l8-136C494.553,6.27,493.77,4.115,492.258,2.512z"/>
<g>
	<path style="fill:#F5B431;" d="M364.793,503.397l9.502-125.81c0.055-0.727,0.01-1.457-0.133-2.171l-15.222-76.108
		c-0.116-0.578-0.295-1.141-0.534-1.68l-63.279-142.379c-0.391-0.878-0.619-1.82-0.676-2.779l-8-136
		C286.186,11.941,289.9,8,294.438,8h-24c-4.537,0-8.252,3.941-7.986,8.47l8,136c0.057,0.959,0.285,1.901,0.676,2.779l63.64,143.189
		l15.611,78.054l-9.585,126.905c-0.344,4.575,3.389,8.603,7.978,8.603h24C368.182,512,364.449,507.972,364.793,503.397z"/>
	<path style="fill:#F5B431;" d="M375.387,225.441l19.643,2.649c1.678,0.226,3.316-0.628,4.091-2.133l47.29-91.847l-1.64-126.006
		C444.714,3.708,448.375,0,452.77,0h-24c-4.396,0-8.057,3.708-7.999,8.104l1.641,126.006L375.387,225.441z"/>
</g>
<g>
	<circle style="fill:#ED6D4A;" cx="302.44" cy="56" r="16"/>
	<circle style="fill:#ED6D4A;" cx="454.94" cy="48" r="15.5"/>
</g>
<g>
	<path style="fill:#79658B;" d="M261.853,101.332c-3.542,0-6.779-2.37-7.729-5.955c-1.131-4.271,1.415-8.65,5.687-9.781
		l80.579-21.33c4.272-1.132,8.65,1.416,9.78,5.686c1.131,4.271-1.415,8.65-5.687,9.781l-80.579,21.33
		C263.22,101.245,262.53,101.332,261.853,101.332z"/>
	<path style="fill:#79658B;" d="M262.429,119.667c-4.139,0-7.644-3.188-7.968-7.384c-0.34-4.405,2.955-8.252,7.36-8.592l77.667-6
		c4.4-0.34,8.252,2.954,8.593,7.36c0.34,4.405-2.955,8.252-7.36,8.592l-77.667,6C262.845,119.659,262.636,119.667,262.429,119.667z"
		/>
	<path style="fill:#79658B;" d="M415.428,112.001c-4.009,0-7.467-3.006-7.938-7.084c-0.507-4.389,2.642-8.358,7.03-8.864l78-9
		c4.405-0.506,8.358,2.642,8.864,7.03c0.507,4.389-2.642,8.358-7.03,8.864l-78,9C416.043,111.983,415.733,112.001,415.428,112.001z"
		/>
	<path style="fill:#79658B;" d="M494.447,136.667c-0.249,0-0.5-0.011-0.752-0.035l-78.667-7.333
		c-4.399-0.41-7.634-4.309-7.224-8.708s4.334-7.634,8.708-7.223l78.667,7.333c4.399,0.41,7.634,4.309,7.224,8.708
		C502.017,133.556,498.53,136.667,494.447,136.667z"/>
</g>
<g>
</g>
<g>
</g>
<g>
</g>
<g>
</g>
<g>
</g>
<g>
</g>
<g>
</g>
<g>
</g>
<g>
</g>
<g>
</g>
<g>
</g>
<g>
</g>
<g>
</g>
<g>
</g>
<g>
</g>
</svg>
