<svg height="512pt" viewBox="-4 0 512 512" width="512pt" xmlns="http://www.w3.org/2000/svg"><path d="m494.644531 442.578125h-157.695312c-4.605469 0-9.019531 1.828125-12.273438 5.082031l-15.863281 15.863282c-3.253906 3.257812-7.667969 5.085937-12.269531 5.085937h-89.765625c-4.601563 0-9.015625-1.828125-12.269532-5.085937l-15.863281-15.863282c-3.253906-3.253906-7.667969-5.082031-12.269531-5.082031h-157.695312c-4.792969 0-8.679688 3.882813-8.679688 8.675781v52.066406c0 4.792969 3.886719 8.679688 8.679688 8.679688h485.964843c4.792969 0 8.675781-3.886719 8.675781-8.679688v-52.066406c0-4.792968-3.882812-8.675781-8.675781-8.675781zm0 0" fill="#d25627"/><path d="m382.265625 10.039062c-6.777344-6.777343-36.996094 12.453126-67.496094 42.957032-30.503906 30.5-49.734375 60.71875-42.957031 67.496094 6.78125 6.777343 37-12.453126 67.5-42.953126s49.730469-60.71875 42.953125-67.5zm0 0" fill="#464f5d"/><path d="m339.308594 77.539062c-30.496094 30.5-60.746094 49.730469-67.496094 42.953126l98.179688 98.191406c30.507812 30.5 79.960937 30.5 110.464843-.007813 30.5-30.503906 30.496094-79.960937-.011719-110.460937l-98.179687-98.175782c6.777344 6.777344-12.453125 36.996094-42.957031 67.5zm0 0" fill="#7f8c8d"/><path d="m451.253906 138.847656c0 14.378906-11.65625 26.035156-26.035156 26.035156-14.375 0-26.03125-11.65625-26.03125-26.035156s11.65625-26.035156 26.03125-26.035156c14.378906 0 26.035156 11.65625 26.035156 26.035156zm0 0" fill="#95a5a5"/><path d="m425.21875 121.492188c-4.792969 0-8.675781-3.886719-8.675781-8.679688v-104.132812c0-4.792969 3.882812-8.679688 8.675781-8.679688s8.679688 3.886719 8.679688 8.679688v104.132812c0 4.792969-3.886719 8.679688-8.679688 8.679688zm0 0" fill="#95a5a5"/><path d="m269.015625 295.050781c-4.792969 0-8.675781-3.886719-8.675781-8.679687v-147.523438c0-19.804687.78125-24.808594 2.523437-28.542968 2.035157-4.339844 7.203125-6.210938 11.546875-4.175782 4.34375 2.03125 6.214844 7.203125 4.179688 11.542969-.957032 7.015625-1.253906 14.105469-.894532 21.175781v147.523438c0 4.792968-3.886718 8.679687-8.679687 8.679687zm0 0" fill="#e57e25"/><path d="m269.015625 407.863281c-4.792969 0-8.675781-3.882812-8.675781-8.675781v-69.425781c0-4.792969 3.882812-8.675781 8.675781-8.675781s8.679687 3.882812 8.679687 8.675781v69.425781c0 4.792969-3.886718 8.675781-8.679687 8.675781zm0 0" fill="#e57e25"/><g fill="#95a5a5"><path d="m190.914062 416.542969c-4.792968 0-8.675781-3.886719-8.675781-8.679688-.023437-5.203125 1.890625-10.230469 5.371094-14.101562 1.441406-1.796875 1.570313-1.996094 1.570313-3.261719s-.128907-1.464844-1.570313-3.261719c-7.164063-8.035156-7.164063-20.164062 0-28.195312 1.441406-1.796875 1.570313-1.988281 1.570313-3.246094 0-4.792969 3.886718-8.679687 8.679687-8.679687 4.789063 0 8.675781 3.886718 8.675781 8.679687.019532 5.199219-1.894531 10.222656-5.371094 14.09375-1.441406 1.796875-1.570312 1.996094-1.570312 3.246094s.128906 1.464843 1.570312 3.261719c7.164063 8.035156 7.164063 20.167968 0 28.203124-1.441406 1.796876-1.570312 1.996094-1.570312 3.261719 0 4.792969-3.886719 8.679688-8.679688 8.679688zm0 0"/><path d="m225.628906 312.40625c-4.792968 0-8.679687-3.882812-8.679687-8.675781 0-1.269531-.128907-1.46875-1.570313-3.265625-7.164062-8.035156-7.164062-20.167969 0-28.203125 1.441406-1.796875 1.570313-1.996094 1.570313-3.261719s-.128907-1.449219-1.570313-3.246094c-3.476562-3.871094-5.390625-8.890625-5.371094-14.09375 0-4.792968 3.882813-8.675781 8.675782-8.675781 4.792968 0 8.679687 3.882813 8.679687 8.675781 0 1.257813.128907 1.449219 1.570313 3.246094 7.164062 8.035156 7.164062 20.160156 0 28.195312-1.441406 1.796876-1.570313 2.003907-1.570313 3.261719 0 1.257813.128907 1.46875 1.570313 3.265625 3.480468 3.871094 5.394531 8.894532 5.371094 14.101563 0 4.792969-3.886719 8.675781-8.675782 8.675781zm0 0"/><path d="m329.761719 364.472656c-4.792969 0-8.675781-3.882812-8.675781-8.675781-.023438-5.203125 1.890624-10.230469 5.371093-14.101563 1.441407-1.796874 1.570313-2.003906 1.570313-3.261718 0-1.261719-.128906-1.46875-1.570313-3.265625-7.164062-8.03125-7.164062-20.160157 0-28.195313 1.441407-1.792968 1.570313-1.996094 1.570313-3.242187 0-4.792969 3.886718-8.679688 8.679687-8.679688 4.789063 0 8.675781 3.886719 8.675781 8.679688.019532 5.199219-1.894531 10.222656-5.371093 14.089843-1.441407 1.796876-1.570313 1.988282-1.570313 3.246094 0 1.257813.128906 1.46875 1.570313 3.265625 7.164062 8.035157 7.164062 20.164063 0 28.203125-1.441407 1.792969-1.570313 1.996094-1.570313 3.261719 0 2.300781-.914062 4.507813-2.542968 6.136719-1.625 1.625-3.835938 2.539062-6.136719 2.539062zm0 0"/><path d="m244.71875 69.421875c-4.792969 0-8.679688-3.882813-8.679688-8.675781-.019531-5.203125 1.894532-10.230469 5.375-14.101563 1.4375-1.796875 1.570313-1.996093 1.570313-3.253906s-.132813-1.46875-1.570313-3.265625c-7.164062-8.03125-7.164062-20.160156 0-28.191406 1.4375-1.804688 1.570313-1.996094 1.570313-3.253906 0-4.792969 3.882813-8.679688 8.675781-8.679688 4.792969 0 8.679688 3.886719 8.679688 8.679688.015625 5.199218-1.898438 10.222656-5.371094 14.089843-1.441406 1.796875-1.570312 1.996094-1.570312 3.246094s.128906 1.46875 1.570312 3.265625c7.164062 8.035156 7.164062 20.164062 0 28.203125-1.441406 1.792969-1.570312 1.996094-1.570312 3.261719 0 4.792968-3.886719 8.675781-8.679688 8.675781zm0 0"/></g></svg>