<svg height="496pt" viewBox="-8 0 496 496.001" width="496pt" xmlns="http://www.w3.org/2000/svg"><g fill="#cfdfe8"><path d="m115.734375 173.601562 140.53125-148.800781 57.867187 57.867188-16.53125 16.53125h-49.601562l24.800781 24.800781-49.597656 49.601562zm0 0"/><path d="m99.203125 24.800781c-16.535156-16.535156-49.601563-16.535156-49.601563-16.535156l-16.535156 57.867187v107.46875h82.667969v-90.933593s0-41.335938-16.53125-57.867188zm0 0"/><path d="m214.933594 471.199219v-99.199219l49.601562-49.601562h99.199219zm0 0"/></g><path d="m66.132812 181.867188c-4.5625 0-8.261718-3.699219-8.265624-8.261719v-.003907-99.203124c0-4.5625 3.703124-8.265626 8.265624-8.265626 4.566407 0 8.269532 3.703126 8.269532 8.265626v99.203124c0 4.5625-3.699219 8.261719-8.261719 8.265626-.003906 0-.003906 0-.007813 0zm0 0" fill="#7d8d9c"/><path d="m157.066406 181.867188c-4.566406 0-8.265625-3.703126-8.265625-8.269532 0-2.191406.871094-4.292968 2.421875-5.839844l57.867188-57.867187c3.257812-3.199219 8.488281-3.152344 11.6875.101563 3.160156 3.21875 3.160156 8.371093 0 11.585937l-57.867188 57.867187c-1.546875 1.550782-3.648437 2.421876-5.84375 2.421876zm0 0" fill="#7d8d9c"/><path d="m264.535156 380.265625c-4.566406 0-8.265625-3.703125-8.265625-8.265625 0-2.191406.871094-4.292969 2.421875-5.84375l49.597656-49.601562c3.257813-3.199219 8.492188-3.152344 11.6875.105468 3.160157 3.21875 3.160157 8.371094 0 11.585938l-49.597656 49.601562c-1.546875 1.550782-3.652344 2.421875-5.84375 2.417969zm0 0" fill="#7d8d9c"/><path d="m396.800781 33.066406c-13.6875-.015625-24.785156-11.109375-24.800781-24.800781 0-4.566406-3.699219-8.265625-8.265625-8.265625s-8.265625 3.699219-8.265625 8.265625c-.015625 13.691406-11.109375 24.785156-24.800781 24.800781-4.566407 0-8.265625 3.703125-8.265625 8.269532 0 4.5625 3.699218 8.265624 8.265625 8.265624 13.691406.015626 24.785156 11.109376 24.800781 24.800782 0 4.566406 3.699219 8.265625 8.265625 8.265625s8.265625-3.699219 8.265625-8.265625c.015625-13.691406 11.113281-24.785156 24.800781-24.800782 4.566407 0 8.269531-3.703124 8.269531-8.265624 0-4.566407-3.703124-8.269532-8.269531-8.269532zm-33.066406 16.789063c-2.410156-3.238281-5.28125-6.109375-8.523437-8.519531 3.242187-2.414063 6.113281-5.285157 8.523437-8.523438 2.410156 3.238281 5.28125 6.109375 8.523437 8.523438-3.242187 2.410156-6.113281 5.28125-8.523437 8.519531zm0 0" fill="#ffd782"/><path d="m181.867188 446.398438c-13.691407-.011719-24.785157-11.109376-24.800782-24.796876 0-4.566406-3.699218-8.269531-8.265625-8.269531-4.566406 0-8.265625 3.703125-8.265625 8.269531-.015625 13.6875-11.113281 24.785157-24.800781 24.796876-4.566406 0-8.269531 3.703124-8.269531 8.269531 0 4.566406 3.703125 8.265625 8.269531 8.265625 13.6875.015625 24.785156 11.109375 24.800781 24.800781 0 4.566406 3.699219 8.265625 8.265625 8.265625 4.566407 0 8.265625-3.699219 8.265625-8.265625.015625-13.691406 11.109375-24.785156 24.800782-24.800781 4.566406 0 8.265624-3.699219 8.265624-8.265625 0-4.566407-3.699218-8.269531-8.265624-8.269531zm-33.066407 16.789062c-2.410156-3.238281-5.28125-6.109375-8.519531-8.519531 3.238281-2.410157 6.109375-5.28125 8.519531-8.523438 2.410157 3.242188 5.28125 6.113281 8.523438 8.523438-3.242188 2.410156-6.113281 5.28125-8.523438 8.519531zm0 0" fill="#ffd782"/><path d="m33.066406 173.601562h413.335938c18.261718 0 33.066406 14.800782 33.066406 33.066407v82.667969c0 18.261718-14.804688 33.066406-33.066406 33.066406h-413.335938c-18.261718 0-33.066406-14.804688-33.066406-33.066406v-82.667969c0-18.265625 14.804688-33.066407 33.066406-33.066407zm0 0" fill="#e9686a"/><path d="m446.402344 297.601562h-82.667969c-4.566406 0-8.265625-3.703124-8.265625-8.269531 0-4.566406 3.699219-8.265625 8.265625-8.265625h74.398437v-74.402344c0-4.5625 3.703126-8.265624 8.269532-8.265624s8.265625 3.703124 8.265625 8.265624v82.667969c0 4.566407-3.699219 8.265625-8.261719 8.269531zm0 0" fill="#fff"/><path d="m363.734375 322.398438h82.667969v33.070312h-82.667969zm0 0" fill="#cfdfe8"/><path d="m363.734375 388.53125h82.667969v33.070312h-82.667969zm0 0" fill="#cfdfe8"/><path d="m363.734375 454.667969h82.667969v33.066406h-82.667969zm0 0" fill="#cfdfe8"/><path d="m446.402344 355.46875-16.535156 33.0625h-41.332032l16.53125-33.0625zm0 0" fill="#7d8d9c"/><path d="m446.402344 421.601562-16.535156 33.066407h-41.332032l16.53125-33.066407zm0 0" fill="#7d8d9c"/><path d="m115.734375 248c0 22.828125-18.503906 41.332031-41.332031 41.332031s-41.332032-18.503906-41.332032-41.332031 18.503907-41.332031 41.332032-41.332031 41.332031 18.503906 41.332031 41.332031zm0 0" fill="#cfdfe8"/><path d="m74.402344 272.800781c-4.566406 0-8.269532-3.703125-8.269532-8.269531 0-4.5625 3.703126-8.265625 8.269532-8.265625s8.265625-3.699219 8.265625-8.265625-3.699219-8.269531-8.265625-8.269531-8.269532-3.699219-8.269532-8.265625 3.703126-8.265625 8.269532-8.265625c13.695312 0 24.800781 11.101562 24.800781 24.796875 0 13.699218-11.105469 24.804687-24.800781 24.804687zm0 0" fill="#7d8d9c"/><path d="m330.667969 297.601562h-33.066407c-4.566406 0-8.269531-3.703124-8.269531-8.269531 0-4.566406 3.703125-8.265625 8.269531-8.265625h33.066407c4.566406 0 8.265625 3.699219 8.265625 8.265625 0 4.566407-3.699219 8.269531-8.265625 8.269531zm0 0" fill="#fff"/></svg>