<?xml version="1.0" encoding="iso-8859-1"?>
<!-- Generator: Adobe Illustrator 21.0.0, SVG Export Plug-In . SVG Version: 6.00 Build 0)  -->
<svg xmlns="http://www.w3.org/2000/svg" xmlns:xlink="http://www.w3.org/1999/xlink" version="1.1" id="Capa_1" x="0px" y="0px" viewBox="0 0 512 512" style="enable-background:new 0 0 512 512;" xml:space="preserve" width="512" height="512">
<g>
	<g>
		<path style="fill:#E4DEDC;" d="M333.264,92.709v113.298h-30.905V100.754h-92.716v105.253h-30.905V92.709    c0-17.067,13.837-30.902,30.905-30.902h92.716C319.427,61.807,333.264,75.642,333.264,92.709z"/>
		<circle style="fill:#D6805E;" cx="256.003" cy="30.905" r="30.905"/>
		<rect x="209.644" y="61.811" style="fill:#837A91;" width="92.716" height="144.222"/>
		<rect x="271.455" y="61.811" style="fill:#6B6477;" width="30.905" height="144.222"/>
	</g>
	<path style="fill:#CDC2BF;" d="M263.277,89.157c-1-4.02-5.071-6.474-9.09-5.465l-101.473,25.269   c-3.342,0.832-5.688,3.833-5.688,7.277v70.095c0,4.143,3.357,7.5,7.5,7.5s7.5-3.357,7.5-7.5V122.1l95.785-23.853   C261.832,97.247,264.278,93.177,263.277,89.157z"/>
	<rect x="142.68" y="189.339" style="fill:#E4DEDC;" width="226.64" height="322.661"/>
	<rect x="338.414" y="189.34" style="fill:#D1C4C4;" width="30.905" height="322.66"/>
	<path style="fill:#FDD835;" d="M407.093,204.792H104.907c-8.534,0-15.453-6.918-15.453-15.453v0   c0-8.534,6.918-15.453,15.453-15.453h302.186c8.534,0,15.453,6.918,15.453,15.453v0   C422.546,197.874,415.628,204.792,407.093,204.792z"/>
	<path style="fill:#FBC02D;" d="M407.093,173.887h-30.905c8.534,0,15.453,6.918,15.453,15.453c0,8.534-6.918,15.453-15.453,15.453   h30.905c8.534,0,15.453-6.919,15.453-15.453C422.546,180.805,415.628,173.887,407.093,173.887z"/>
	<path style="fill:#FF7043;" d="M312.663,283.986v26.905c0,1.105-0.895,2-2,2h-37.207c-1.105,0-2,0.895-2,2v96.958   c0,1.105-0.895,2-2,2H242.55c-1.105,0-2-0.895-2-2v-96.958c0-1.105-0.895-2-2-2h-37.207c-1.105,0-2-0.895-2-2v-26.905   c0-1.105,0.895-2,2-2h37.207c1.105,0,2-0.895,2-2v-35.147c0-1.105,0.895-2,2-2h26.905c1.105,0,2,0.895,2,2v35.147   c0,1.105,0.895,2,2,2h37.207C311.767,281.986,312.663,282.881,312.663,283.986z"/>
	<path style="fill:#5C5568;" d="M154.527,398.68v109.294c0,2.209-1.791,4-4,4h-26.905V406.721H30.905v105.253H4   c-2.209,0-4-1.791-4-4L0,398.68c0-17.069,13.837-30.905,30.905-30.905h92.716C140.69,367.775,154.527,381.611,154.527,398.68z"/>
	<circle style="fill:#D6805E;" cx="77.266" cy="336.873" r="30.905"/>
	<rect x="30.908" y="367.778" style="fill:#837A91;" width="92.716" height="144.222"/>
	<rect x="92.719" y="367.778" style="fill:#6B6477;" width="30.905" height="144.222"/>
	<path style="fill:#5C5568;" d="M512,398.68v109.294c0,2.209-1.791,4-4,4h-26.905V406.721h-92.716v105.253h-26.905   c-2.209,0-4-1.791-4-4V398.676c0-17.067,13.835-30.902,30.902-30.902h92.72C498.163,367.775,512,381.611,512,398.68z"/>
	<circle style="fill:#D6805E;" cx="434.739" cy="336.873" r="30.905"/>
	<rect x="388.381" y="367.778" style="fill:#837A91;" width="92.716" height="144.222"/>
	<rect x="450.192" y="367.778" style="fill:#6B6477;" width="30.905" height="144.222"/>
	<g>
		<path style="fill:#5C5568;" d="M333.264,398.68v109.294c0,2.209-1.791,4-4,4h-26.905V406.721h-92.716v105.253h-26.905    c-2.209,0-4-1.791-4-4V398.68c0-17.069,13.837-30.905,30.905-30.905h92.716C319.427,367.775,333.264,381.611,333.264,398.68z"/>
		<circle style="fill:#D6805E;" cx="256.003" cy="336.873" r="30.905"/>
		<rect x="209.644" y="367.778" style="fill:#837A91;" width="92.716" height="144.222"/>
		<rect x="271.455" y="367.778" style="fill:#6B6477;" width="30.905" height="144.222"/>
	</g>
</g>















</svg>
