<svg id="Capa_1" enable-background="new 0 0 494.07 494.07" height="512" viewBox="0 0 494.07 494.07" width="512" xmlns="http://www.w3.org/2000/svg"><g><path d="m266.391 456.613h-40.126l.712-433.002h40.126z" fill="#aa6a51"/><g><path d="m372.729 149.591-61.06 61.06-51.459 55.816-33.233-32.728 56.286-51.428 61.076-61.077 40.037-40.353 30.671 26.271z" fill="#aa6a51"/></g><g><path d="m121.472 149.419 222.609 223.615 40.22 43.135 30.746-33.296-42.516-38.136-222.629-223.636-40.98-44.389-31.137 30.44z" fill="#aa6a51"/></g><g><path d="m210.011 311.303-60.99 60.991-39.135 43.876-32.101-32.77 43.012-39.628 61.146-61.146s30.599-32.311 31.603-32.646 33.489 26.416 33.489 26.416z" fill="#aa6a51"/></g><g id="XMLID_313_"><g><path d="m448.61 227.055v39.41l-410.65.71v-40.83z" fill="#aa6a51"/></g></g><g><path d="m247.03.005c136.44 0 247.04 110.6 247.04 247.03s-110.6 247.03-247.04 247.03c-136.43 0-247.03-110.6-247.03-247.03s110.6-247.03 247.03-247.03zm159.05 247.03c0-87.84-71.21-159.04-159.05-159.04-87.83 0-159.04 71.2-159.04 159.04s71.21 159.04 159.04 159.04c87.84 0 159.05-71.2 159.05-159.04z" fill="#c68d7a"/></g><g><path d="m57.908 246.035c0-109.122 65.543-202.946 159.391-244.264-122.404 14.691-217.299 118.902-217.299 245.264 0 128.519 98.166 234.119 223.595 245.933-97.198-39.834-165.687-135.389-165.687-246.933z" fill="#bc7c63"/><g id="XMLID_319_"><g><path d="m247.03 37.455c115.75 0 209.58 93.83 209.58 209.58s-93.83 209.58-209.58 209.58c-115.74 0-209.57-93.83-209.57-209.58s93.83-209.58 209.57-209.58zm159.05 209.58c0-87.84-71.21-159.04-159.05-159.04-87.83 0-159.04 71.2-159.04 159.04s71.21 159.04 159.04 159.04c87.84 0 159.05-71.2 159.05-159.04z" fill="#bc7c63"/></g></g><g id="XMLID_310_"><g><path d="m247.03 172.855c40.97 0 74.18 33.21 74.18 74.18s-33.21 74.18-74.18 74.18c-40.96 0-74.17-33.21-74.17-74.18s33.21-74.18 74.17-74.18z" fill="#c68d7a"/></g></g><path d="m223.875 247.035c0-32.006 20.275-59.274 48.672-69.675-7.954-2.913-16.554-4.505-25.517-4.505-40.96 0-74.17 33.21-74.17 74.18s33.21 74.18 74.17 74.18c8.964 0 17.556-1.59 25.51-4.503-28.397-10.401-48.665-37.671-48.665-69.677z" fill="#bc7c63"/><circle cx="247.034" cy="247.035" fill="#d1a08f" r="40.941"/><path d="m235.042 286.19c-7.078-11.365-11.166-24.779-11.166-39.155s4.099-27.79 11.177-39.155c-16.764 5.124-28.959 20.714-28.959 39.155s12.183 34.031 28.948 39.155z" fill="#c68d7a"/><g><path d="m247.04 72.002c-4.143 0-7.5-3.357-7.5-7.5v-1.372c0-4.143 3.357-7.5 7.5-7.5s7.5 3.357 7.5 7.5v1.372c0 4.142-3.357 7.5-7.5 7.5z" fill="#aa6a51"/></g><g><path d="m376.108 125.469c-1.919 0-3.839-.732-5.304-2.196-2.929-2.93-2.929-7.678 0-10.607l.971-.971c2.93-2.928 7.678-2.928 10.607 0 2.929 2.93 2.929 7.678 0 10.607l-.971.971c-1.464 1.463-3.384 2.196-5.303 2.196z" fill="#aa6a51"/></g><g><path d="m430.939 254.541h-1.372c-4.143 0-7.5-3.357-7.5-7.5s3.357-7.5 7.5-7.5h1.372c4.143 0 7.5 3.357 7.5 7.5s-3.357 7.5-7.5 7.5z" fill="#aa6a51"/></g><g><path d="m377.071 384.58c-1.919 0-3.839-.732-5.304-2.196l-.971-.971c-2.929-2.93-2.929-7.678 0-10.607 2.93-2.928 7.678-2.928 10.607 0l.971.971c2.929 2.93 2.929 7.678 0 10.607-1.464 1.464-3.384 2.196-5.303 2.196z" fill="#aa6a51"/></g><g><path d="m247.028 438.44c-4.143 0-7.5-3.357-7.5-7.5v-1.372c0-4.143 3.357-7.5 7.5-7.5s7.5 3.357 7.5 7.5v1.372c0 4.143-3.357 7.5-7.5 7.5z" fill="#aa6a51"/></g><g><path d="m116.989 384.572c-1.919 0-3.839-.732-5.304-2.196-2.929-2.93-2.929-7.678 0-10.607l.971-.971c2.93-2.928 7.678-2.928 10.607 0 2.929 2.93 2.929 7.678 0 10.607l-.971.971c-1.464 1.464-3.384 2.196-5.303 2.196z" fill="#aa6a51"/></g><g><path d="m64.501 254.529h-1.372c-4.143 0-7.5-3.357-7.5-7.5s3.357-7.5 7.5-7.5h1.372c4.143 0 7.5 3.357 7.5 7.5s-3.357 7.5-7.5 7.5z" fill="#aa6a51"/></g><g><path d="m117.968 125.461c-1.919 0-3.839-.732-5.304-2.196l-.971-.971c-2.929-2.93-2.929-7.678 0-10.607 2.93-2.928 7.678-2.928 10.607 0l.971.971c2.929 2.93 2.929 7.678 0 10.607-1.464 1.463-3.384 2.196-5.303 2.196z" fill="#aa6a51"/></g></g><path d="m57.908 246.035c0-58.309 18.731-112.266 50.473-156.161-43.481 38.402-70.921 94.587-70.921 157.161 0 64.533 29.184 122.268 75.051 160.713-34.242-44.862-54.603-100.92-54.603-161.713z" fill="#aa6a51"/></g></svg>