<svg height="511pt" viewBox="0 0 511.99988 511" width="511pt" xmlns="http://www.w3.org/2000/svg"><path d="m120 45.5v45h-105c-8.402344 0-15-6.601562-15-15v-30c0-25.011719 20.554688-45 45-45 24.902344 0 75 20.101562 75 45zm0 0" fill="#f4d7af"/><path d="m391.996094.5h-346.996094c24.902344 0 45 20.101562 45 45v240c0 3.898438 1.5 7.800781 4.5 10.5l19.199219 20.5-19.199219 19.5c-3 2.699219-4.5 6.597656-4.5 10.5v121c0 24.898438 20.097656 44.996094 45 44.996094 24.898438 0 75-20.097656 75-44.996094v-45h241.996094v-362c0-33-27-60-60-60zm0 0" fill="#faecd8"/><path d="m451.996094 60.5v362h-181v-422h121c33 0 60 27 60 60zm0 0" fill="#f4d7af"/><path d="m376.996094 361.5h-60c-8.289063 0-15-6.710938-15-15 0-8.292969 6.710937-15 15-15h60c8.292968 0 15 6.707031 15 15 0 8.289062-6.707032 15-15 15zm0 0" fill="#dabba6"/><g fill="#f4d7af"><path d="m357.199219 105.5c0 8.398438-6.902344 15-15 15h-177.199219c-8.402344 0-15-6.601562-15-15s6.597656-15 15-15h177.199219c8.097656 0 15 6.601562 15 15zm0 0"/><path d="m331.996094 165.5c0 8.398438-6.597656 15-15 15h-151.996094c-8.402344 0-15-6.601562-15-15 0-8.402344 6.597656-15 15-15h151.996094c8.402344 0 15 6.597656 15 15zm0 0"/><path d="m332.296875 225.5c0 8.398438-6.601563 15-15 15h-122.296875c-8.402344 0-15-6.601562-15-15 0-8.402344 6.597656-15 15-15h122.296875c8.398437 0 15 6.597656 15 15zm0 0"/></g><path d="m316.996094 180.5h-46v-30h46c8.402344 0 15 6.597656 15 15 0 8.398438-6.597656 15-15 15zm0 0" fill="#dabba6"/><path d="m317.296875 240.5h-46.300781v-30h46.300781c8.398437 0 15 6.597656 15 15 0 8.398438-6.601563 15-15 15zm0 0" fill="#dabba6"/><path d="m342.199219 120.5h-71.203125v-30h71.203125c8.097656 0 15 6.601562 15 15s-6.902344 15-15 15zm0 0" fill="#dabba6"/><path d="m511.996094 407.5v45c0 32.996094-27 59.996094-60 59.996094h-316.996094c24.898438 0 45-20.097656 45-44.996094v-60c0-8.402344 6.597656-15 15-15h46c3.898438 0 7.796875 1.5 10.496094 4.496094l19.5 19.203125 20.503906-19.203125c2.699219-2.996094 6.597656-4.496094 10.496094-4.496094h195c8.402344 0 15 6.597656 15 15zm0 0" fill="#f4d7af"/><path d="m511.996094 407.5v45c0 32.996094-27 59.996094-60 59.996094h-181v-96.296875l20.503906-19.203125c2.699219-2.996094 6.597656-4.496094 10.496094-4.496094h195c8.402344 0 15 6.597656 15 15zm0 0" fill="#dabba6"/><path d="m489.9375 1.75c-86.15625 19.898438-91.996094 33.496094-97.339844 35.519531-24.523437 16.945313-75.558594 52.21875-90.308594 125.257813-13.648437 67.660156 18.074219 114.066406 29.707032 128.410156 2.179687 2.6875 3.882812 4.640625 4.207031 4.976562 4.347656 4.503907 10.941406 5.757813 16.476563 3.457032.53125-.214844 4.058593-1.679688 9.316406-4.066406 16.492187-7.488282 50.902344-24.496094 70.605468-44.199219 21.28125-21.285157 31.011719-57.394531 28.914063-107.328125-3.09375-72.601563 42.9375-113.601563 45.847656-117.410156.03125-.042969.214844-.226563.238281-.261719zm0 0" fill="#714c2f"/><path d="m510.136719 8.25c-3.222657-5.84375-9.960938-8.847656-16.449219-7.382812-1.324219.300781-2.457031.585937-3.746094.882812l-2.804687 2.445312c-3.339844 2.914063-82.453125 72.40625-123.558594 154.597657-37.792969 75.570312-33.558594 117.769531-31.582031 128.273437v59.433594c0 8.28125 6.71875 15 15 15h.003906c8.28125 0 14.996094-6.710938 14.996094-14.992188 0-22.824218 0-63.25 0-61.007812 0-22.640625-5.34375-45.777344 28.417968-113.289062 38.410157-76.804688 115.664063-144.726563 116.441407-145.402344l.507812-.441406c.03125-.042969.214844-.226563.238281-.257813 4.730469-4.71875 5.757813-12 2.535157-17.859375zm0 0" fill="#523522"/></svg>