<svg xmlns="http://www.w3.org/2000/svg" viewBox="0 0 112 236"><title>abraham-lincoln</title><rect x="13.44" y="114.85" width="8.56" height="23.83" rx="2.81" ry="2.81" style="fill:#f2cbb2"/><rect x="14.93" y="114.85" width="7.07" height="23.83" rx="2.81" ry="2.81" style="fill:#ffd6bb"/><rect x="21.16" width="68.44" height="95.34" rx="3.94" ry="3.94" style="fill:#4d4d4d"/><rect x="21.16" y="74.15" width="68.44" height="9.27" style="fill:#1a1a1a"/><rect x="21.16" y="94.01" width="68.44" height="75.99" rx="4.23" ry="4.23" style="fill:#ffd6bb"/><rect x="25.13" y="163.11" width="57.24" height="15.89" rx="3.35" ry="3.35" style="fill:#ffd6bb"/><rect x="89" y="114.85" width="8" height="23.83" rx="2.81" ry="2.81" style="fill:#ffd6bb"/><path d="M23.07,96.66h5.22a.33.33,0,0,1,.33.33v77.09A1.92,1.92,0,0,1,26.71,176H23.07a1.92,1.92,0,0,1-1.92-1.92V98.58A1.92,1.92,0,0,1,23.07,96.66Z" style="fill:#363636"/><path d="M82.13,96.66h5.59a1.88,1.88,0,0,1,1.88,1.88v74.59A1.88,1.88,0,0,1,87.73,175H83a.83.83,0,0,1-.83-.83V96.66a0,0,0,0,1,0,0Z" style="fill:#363636"/><rect x="90" y="189.08" width="58.38" height="11.92" rx="2.79" ry="2.79" transform="translate(173.38 370.08) rotate(180)" style="fill:#363636"/><rect x="27.13" y="165.79" width="12.44" height="7.94" rx="1.92" ry="1.92" style="fill:#363636"/><rect x="69.18" y="165.79" width="11.2" height="7.94" rx="2" ry="2" style="fill:#363636"/><rect x="28.62" y="97.99" width="4.98" height="47.67" style="fill:#f2cbb2"/><rect x="26.13" y="140.36" width="7.47" height="37.08" rx="1.67" ry="1.67" style="fill:#363636"/><path d="M77.87,140.36h5.47a0,0,0,0,1,0,0v35.08a2,2,0,0,1-2,2H77.87a2,2,0,0,1-2-2V142.32A2,2,0,0,1,77.87,140.36Z" style="fill:#363636"/><rect x="42.31" y="154.92" width="27.38" height="2.65" style="fill:#5b330a"/><rect x="33.6" y="112.55" width="13.69" height="2.65" style="fill:#5b330a"/><rect x="60.98" y="112.55" width="13.69" height="2.65" style="fill:#5b330a"/><rect x="112.47" y="149.18" width="14.57" height="2.49" transform="translate(-95.67 250.18) rotate(-90)" style="fill:#5b330a"/><rect x="101.51" y="139.91" width="6.62" height="2.49" transform="translate(-101.34 225.98) rotate(-90)" style="fill:#5b330a"/><rect x="128.89" y="139.91" width="6.62" height="2.49" transform="translate(-73.96 253.36) rotate(-90)" style="fill:#5b330a"/><rect y="90.04" width="112" height="7.94" rx="2.02" ry="2.02" style="fill:#4d4d4d"/><polygon points="12.44 164.19 12.44 164.19 12.44 164.19 12.44 164.19 12.44 164.19" style="fill:#f2cbb2"/><rect x="39" y="181" width="28" height="13" style="fill:#ffd6bb"/><path d="M7.33,193h94.34a4.33,4.33,0,0,1,4.33,4.33V236a0,0,0,0,1,0,0H3a0,0,0,0,1,0,0V197.33A4.33,4.33,0,0,1,7.33,193Z" style="fill:#333"/><polygon points="51.93 216.16 43.67 193 60.19 193 51.93 216.16" style="fill:#fffdf4"/></svg>