<?xml version="1.0" encoding="iso-8859-1"?>
<!-- Generator: Adobe Illustrator 19.0.0, SVG Export Plug-In . SVG Version: 6.00 Build 0)  -->
<svg version="1.1" id="Capa_1" xmlns="http://www.w3.org/2000/svg" xmlns:xlink="http://www.w3.org/1999/xlink" x="0px" y="0px"
	 viewBox="0 0 512.001 512.001" style="enable-background:new 0 0 512.001 512.001;" xml:space="preserve">
<path style="fill:#1BD9DE;" d="M420.701,82.8v358.699c0,1.8-0.3,3.6-0.899,5.101l-1.201,3.6l-33.3,16.199h-270L91.599,450.2
	c-0.3-2.1-0.599-4.2-0.599-6.301V82.8c0-21,9.9-40.501,29.999-54.901c3.9-2.701,6.899-8.101,6.899-12.001h254.7
	c0,3.9,3.301,9.3,6.901,12.001C409.6,42.299,420.701,61.8,420.701,82.8z"/>
<path style="fill:#14B7BF;" d="M420.701,82.8v358.699c0,1.8-0.3,3.6-0.899,5.101l-1.201,3.6l-33.3,16.199H255.099v-450.5h127.5
	c0,3.9,3.301,9.3,6.901,12.001C409.6,42.299,420.701,61.8,420.701,82.8z"/>
<g>
	<path style="fill:#CAE8F9;" d="M418.599,450.2L418,451.7c-3.9,11.7-8.701,24.901-26.7,32.401c-4.2,1.8-8.701,8.099-8.701,12.9
		c0,8.099-6.599,15-15,15h-224.7c-8.399,0-15-6.601-15-15c0-4.801-4.199-11.1-8.699-12.9c-16.199-6.901-25.5-19.2-27.601-33.9
		L418.599,450.2L418.599,450.2z"/>
	<path style="fill:#CAE8F9;" d="M421,15c0,8.399-6.599,15-15,15H106c-8.401,0-15-6.601-15-15c0-8.401,6.599-15,15-15h300
		C414.401,0,421,6.599,421,15z"/>
</g>
<path style="fill:#FF4C5B;" d="M359.201,258.999C350.501,308.2,307.599,346,256,346h-0.901C197.5,345.399,151,298.599,151,241
	c0-21.601,6.599-41.7,17.701-58.2H332.8L359.201,258.999z"/>
<path style="fill:#FC1939;" d="M256,346h-0.901V182.8H332.8l26.4,76.199C350.501,308.2,307.599,346,256,346z"/>
<path style="fill:#A4D9F5;" d="M406,30H255.099V0H406c8.401,0,15,6.599,15,15C421,23.399,414.401,30,406,30z"/>
<path style="fill:#CAE8F9;" d="M361,241c0,6-0.901,11.999-1.8,17.999c-20.099-33.9-62.1-40.199-89.7-17.999
	c-4.501,3.6-9.3,6.299-14.401,8.399c-36.299,15.3-84-7.2-86.398-66.599c18.6-27.9,50.4-46.5,86.398-46.8H256
	C313.9,136,361,183.1,361,241z"/>
<g>
	<path style="fill:#A4D9F5;" d="M361,241c0,6-0.901,11.999-1.8,17.999c-20.099-33.9-62.1-40.199-89.7-17.999
		c-4.501,3.6-9.3,6.299-14.401,8.399V136H256C313.9,136,361,183.1,361,241z"/>
	<path style="fill:#A4D9F5;" d="M255.099,450.2h163.5L418,451.7c-3.9,11.7-8.701,24.901-26.7,32.401
		c-4.2,1.8-8.701,8.099-8.701,12.9c0,8.099-6.599,15-15,15h-112.5V450.2z"/>
</g>
<g>
</g>
<g>
</g>
<g>
</g>
<g>
</g>
<g>
</g>
<g>
</g>
<g>
</g>
<g>
</g>
<g>
</g>
<g>
</g>
<g>
</g>
<g>
</g>
<g>
</g>
<g>
</g>
<g>
</g>
</svg>
