<?xml version="1.0" encoding="iso-8859-1"?>
<!-- Generator: Adobe Illustrator 19.0.0, SVG Export Plug-In . SVG Version: 6.00 Build 0)  -->
<svg version="1.1" id="Capa_1" xmlns="http://www.w3.org/2000/svg" xmlns:xlink="http://www.w3.org/1999/xlink" x="0px" y="0px"
	 viewBox="0 0 512 512" style="enable-background:new 0 0 512 512;" xml:space="preserve">
<g transform="matrix(1.25 0 0 -1.25 0 45)">
	<g>
		<g>
			<path style="fill:#DA2F47;" d="M409.6-168.8c0-113.106-91.694-204.8-204.8-204.8C91.705-373.6,0-281.906,0-168.8
				C0-55.705,91.705,36,204.8,36C317.906,36,409.6-55.705,409.6-168.8"/>
			<g>
				<path style="fill:#292F33;" d="M289.963-303.957c-0.512,2.037-13.289,49.823-85.163,49.823
					c-71.885,0-84.662-47.787-85.163-49.823c-0.626-2.469,0.489-5.029,2.697-6.303c2.219-1.24,4.995-0.899,6.815,0.876
					c0.216,0.216,22.232,21.117,75.651,21.117c53.407,0,75.435-20.901,75.639-21.117c1.092-1.07,2.549-1.638,4.005-1.638
					c0.956,0,1.923,0.239,2.799,0.728C289.473-309.02,290.588-306.437,289.963-303.957"/>
				<path style="fill:#292F33;" d="M178.711-160.756c-37.035,37.035-96.552,37.467-99.066,37.467
					c-6.281,0-11.366-5.086-11.366-11.366c-0.011-6.269,5.074-11.378,11.355-11.389c0.33,0,21.902-0.25,45.318-8.385
					c-6.747-7.282-11.173-18.591-11.173-31.437c0-22.005,12.732-39.822,28.444-39.822s28.444,17.818,28.444,39.822
					c0,1.98-0.216,3.868-0.421,5.769c0.148,0,0.284-0.08,0.421-0.08c2.913,0,5.825,1.115,8.044,3.334
					C183.159-172.395,183.159-165.205,178.711-160.756"/>
				<path style="fill:#292F33;" d="M329.956-123.289c-2.514,0-62.02-0.432-99.066-37.467c-4.449-4.449-4.449-11.639,0-16.088
					c2.219-2.219,5.131-3.334,8.044-3.334c0.148,0,0.273,0.08,0.41,0.08c-0.182-1.9-0.41-3.789-0.41-5.769
					c0-22.005,12.732-39.822,28.444-39.822s28.444,17.818,28.444,39.822c0,12.846-4.426,24.155-11.173,31.437
					c23.415,8.135,44.988,8.385,45.329,8.385c6.269,0.011,11.355,5.12,11.344,11.389
					C341.311-128.375,336.236-123.289,329.956-123.289"/>
			</g>
		</g>
	</g>
</g>
<g>
</g>
<g>
</g>
<g>
</g>
<g>
</g>
<g>
</g>
<g>
</g>
<g>
</g>
<g>
</g>
<g>
</g>
<g>
</g>
<g>
</g>
<g>
</g>
<g>
</g>
<g>
</g>
<g>
</g>
</svg>
