<svg height="511pt" viewBox="-7 1 511 511.999" width="511pt" xmlns="http://www.w3.org/2000/svg"><path d="m325.335938 79.628906c0-31.570312-14.675782-59.707031-37.574219-77.980468-2.753907-2.199219-6.671875-2.199219-9.421875 0-22.902344 18.273437-37.574219 46.410156-37.574219 77.980468 0 30.25 13.472656 57.347656 34.75 75.636719 4.347656 3.738281 10.722656 3.738281 15.070313 0 21.273437-18.289063 34.75-45.390625 34.75-75.636719zm0 0" fill="#badb47"/><path d="m283.050781 201.304688c-4.320312 0-7.820312-3.5-7.820312-7.816407v-129.742187c0-4.316406 3.5-7.816406 7.820312-7.816406 4.316407 0 7.816407 3.5 7.816407 7.816406v129.742187c0 4.316407-3.5 7.816407-7.816407 7.816407zm0 0" fill="#82c11f"/><path d="m452.128906 177.25c22.332032-22.320312 31.859375-52.589844 28.589844-81.699219-.390625-3.5-3.160156-6.265625-6.660156-6.660156-29.117188-3.265625-59.402344 6.261719-81.730469 28.582031-21.394531 21.390625-31.039063 50.078125-28.933594 78.046875.433594 5.71875 4.941407 10.222657 10.660157 10.65625 27.976562 2.105469 56.675781-7.535156 78.074218-28.925781zm0 0" fill="#badb47"/><path d="m341.6875 235.6875c-2 0-4-.761719-5.527344-2.289062-3.054687-3.050782-3.054687-8 0-11.050782l91.773438-91.742187c3.054687-3.050781 8.003906-3.050781 11.058594 0 3.050781 3.054687 3.050781 8 0 11.054687l-91.773438 91.738282c-1.527344 1.527343-3.53125 2.289062-5.53125 2.289062zm0 0" fill="#82c11f"/><path d="m115.265625 177.25c-22.332031-22.320312-31.859375-52.589844-28.59375-81.699219.394531-3.5 3.164063-6.265625 6.664063-6.660156 29.117187-3.265625 59.398437 6.261719 81.726562 28.582031 21.398438 21.390625 31.042969 50.078125 28.933594 78.046875-.429688 5.71875-4.9375 10.222657-10.65625 10.65625-27.980469 2.105469-56.679688-7.535156-78.074219-28.925781zm0 0" fill="#badb47"/><path d="m225.703125 235.6875c-2 0-4-.761719-5.527344-2.289062l-91.773437-91.738282c-3.054688-3.054687-3.054688-8 0-11.054687 3.050781-3.050781 8.003906-3.050781 11.058594 0l91.773437 91.742187c3.050781 3.050782 3.050781 8 0 11.050782-1.527344 1.527343-3.53125 2.289062-5.53125 2.289062zm0 0" fill="#82c11f"/><path d="m494.351562 267.53125c-6.566406-6.835938-15.375-10.316406-24.207031-10.316406-7.714843 0-15.460937 2.644531-21.757812 8.023437l-97.6875 89.9375c-2.082031 1.78125-4.730469 2.761719-7.472657 2.761719h-73.289062c-8.539062 0-15.460938-6.917969-15.460938-15.464844 0-4.273437 1.730469-8.128906 4.523438-10.933594 2.804688-2.792968 6.660156-4.523437 10.9375-4.523437h52.355469c13.582031 0 24.582031-10.992187 24.582031-24.5625 0-6.796875-2.753906-12.933594-7.191406-17.382813-4.453125-4.441406-10.59375-7.191406-17.390625-7.191406h-129.972657c-26.617187 0-52.203124 10.339844-71.34375 28.835938l-50.820312 49.140625 40.589844 54.207031 48.484375 34.84375 3.648437-3.574219c11.25-11.027343 26.386719-17.207031 42.140625-17.207031h149.269531c9.964844 0 19.453126-4.304688 26.011719-11.808594l114.386719-130.90625c3.5-4.011718 3.355469-10.035156-.335938-13.878906zm0 0" fill="#fedfc5"/><g fill="#fecbaa"><path d="m239.09375 357.9375h30.84375c-8.539062 0-15.460938-6.921875-15.460938-15.464844 0-4.273437 1.730469-8.128906 4.523438-10.933594 2.804688-2.792968 6.660156-4.523437 10.9375-4.523437h-30.84375c-4.273438 0-8.128906 1.730469-10.933594 4.523437-2.796875 2.804688-4.527344 6.660157-4.527344 10.933594 0 8.542969 6.925782 15.464844 15.460938 15.464844zm0 0"/><path d="m316.035156 302.453125c0 13.570313-11 24.5625-24.585937 24.5625h30.84375c13.582031 0 24.582031-10.992187 24.582031-24.5625 0-6.796875-2.753906-12.933594-7.195312-17.382813-4.449219-4.4375-10.589844-7.191406-17.386719-7.191406h-30.84375c6.796875 0 12.941406 2.75 17.390625 7.191406 4.441406 4.449219 7.195312 10.585938 7.195312 17.382813zm0 0"/><path d="m494.351562 267.53125c-6.566406-6.835938-15.375-10.316406-24.207031-10.316406-5.285156 0-10.585937 1.242187-15.425781 3.753906 3.191406 1.652344 6.171875 3.835938 8.792969 6.5625 3.6875 3.84375 3.835937 9.867188.332031 13.878906l-114.386719 130.90625c-6.558593 7.503906-16.042969 11.808594-26.011719 11.808594h30.84375c9.964844 0 19.453126-4.304688 26.011719-11.808594l114.386719-130.90625c3.5-4.011718 3.355469-10.035156-.335938-13.878906zm0 0"/><path d="m145.648438 431.328125 13.582031 13.578125 3.648437-3.574219c11.25-11.027343 26.386719-17.207031 42.140625-17.207031h-30.84375c-10.042969 0-19.832031 2.523438-28.527343 7.203125zm0 0"/></g><path d="m162.253906 459.253906-50.414062 50.398438c-3.128906 3.128906-8.203125 3.128906-11.332032 0l-97.660156-97.625c-3.128906-3.128906-3.128906-8.207032 0-11.335938l50.417969-50.394531c3.128906-3.128906 8.199219-3.128906 11.328125 0l97.664062 97.625c3.128907 3.128906 3.128907 8.203125-.003906 11.332031zm0 0" fill="#25bed3"/><path d="m162.257812 447.925781-97.664062-97.628906c-3.128906-3.128906-8.203125-3.128906-11.332031 0l-12.734375 12.726563 47.246094 47.230468c23.945312 23.933594 23.945312 62.734375 0 86.667969l12.734374 12.730469c3.128907 3.125 8.203126 3.125 11.332032 0l50.417968-50.398438c3.128907-3.128906 3.128907-8.203125 0-11.328125zm0 0" fill="#11a6bf"/></svg>