<?xml version="1.0" encoding="iso-8859-1"?>
<!-- Generator: Adobe Illustrator 19.0.0, SVG Export Plug-In . SVG Version: 6.00 Build 0)  -->
<svg version="1.1" id="Capa_1" xmlns="http://www.w3.org/2000/svg" xmlns:xlink="http://www.w3.org/1999/xlink" x="0px" y="0px"
	 viewBox="0 0 58 58" style="enable-background:new 0 0 58 58;" xml:space="preserve">
<g id="XMLID_104_">
	<polygon id="XMLID_116_" style="fill:#BDAA91;" points="48,18.5 29,7.5 10,18.5 	"/>
	<path id="XMLID_115_" style="fill:#DBCDB8;" d="M55,25.5v-3h-3h-2h-3v3c0,0.552,0.448,1,1,1c0.552,0,1,0.448,1,1v16
		c0,0.552-0.448,1-1,1c-0.552,0-1,0.448-1,1v3h3h2h3v-3c0-0.552-0.448-1-1-1c-0.552,0-1-0.448-1-1v-16c0-0.552,0.448-1,1-1
		C54.552,26.5,55,26.052,55,25.5"/>
	<path id="XMLID_114_" style="fill:#DBCDB8;" d="M44,25.5v-3h-3h-2h-3v3c0,0.552,0.448,1,1,1c0.552,0,1,0.448,1,1v16
		c0,0.552-0.448,1-1,1c-0.552,0-1,0.448-1,1v3h3h2h3v-3c0-0.552-0.448-1-1-1c-0.552,0-1-0.448-1-1v-16c0-0.552,0.448-1,1-1
		C43.552,26.5,44,26.052,44,25.5"/>
	<path id="XMLID_113_" style="fill:#DBCDB8;" d="M33,25.5v-3h-3h-2h-3v3c0,0.552,0.448,1,1,1c0.552,0,1,0.448,1,1v16
		c0,0.552-0.448,1-1,1c-0.552,0-1,0.448-1,1v3h3h2h3v-3c0-0.552-0.448-1-1-1c-0.552,0-1-0.448-1-1v-16c0-0.552,0.448-1,1-1
		C32.552,26.5,33,26.052,33,25.5"/>
	<path id="XMLID_112_" style="fill:#DBCDB8;" d="M22,25.5v-3h-3h-2h-3v3c0,0.552,0.448,1,1,1c0.552,0,1,0.448,1,1v16
		c0,0.552-0.448,1-1,1c-0.552,0-1,0.448-1,1v3h3h2h3v-3c0-0.552-0.448-1-1-1c-0.552,0-1-0.448-1-1v-16c0-0.552,0.448-1,1-1
		C21.552,26.5,22,26.052,22,25.5"/>
	<path id="XMLID_111_" style="fill:#DBCDB8;" d="M11,25.5v-3H8H6H3v3c0,0.552,0.448,1,1,1c0.552,0,1,0.448,1,1v16
		c0,0.552-0.448,1-1,1c-0.552,0-1,0.448-1,1v3h3h2h3v-3c0-0.552-0.448-1-1-1c-0.552,0-1-0.448-1-1v-16c0-0.552,0.448-1,1-1
		C10.552,26.5,11,26.052,11,25.5"/>
	<rect id="XMLID_110_" y="52.5" style="fill:#DBCDB8;" width="58" height="4"/>
	<rect id="XMLID_109_" x="1" y="48.5" style="fill:#FFF2DC;" width="56" height="4"/>
	<polygon id="XMLID_108_" style="fill:#FFF2DC;" points="57,22.5 1,22.5 3,18.5 55,18.5 	"/>
	<path id="XMLID_107_" style="fill:#DBCDB8;" d="M12,12.5l-2,5.931c0,0.031,0.033,0.05,0.06,0.034L20.364,12.5H12z"/>
	<path id="XMLID_106_" style="fill:#DBCDB8;" d="M37.637,12.5l10.304,5.965c0.027,0.016,0.06-0.003,0.06-0.034L46,12.5H37.637z"/>
	<path id="XMLID_105_" style="fill:#FFF2DC;" d="M29.062,7.5l8.636,5h6.864c0-6-6.906-11-15.5-11c-8.595,0-15.625,5-15.625,11h6.989
		L29.062,7.5z"/>
</g>
<g>
</g>
<g>
</g>
<g>
</g>
<g>
</g>
<g>
</g>
<g>
</g>
<g>
</g>
<g>
</g>
<g>
</g>
<g>
</g>
<g>
</g>
<g>
</g>
<g>
</g>
<g>
</g>
<g>
</g>
</svg>
