<svg height="512" viewBox="0 0 128 128" width="512" xmlns="http://www.w3.org/2000/svg"><g><path d="m85.114 67.106c2.658-14.98 12.649-17.192 17.616-15.506 5.663 1.922 5.851 8.767 4.971 14.165-2.857 17.523-15.069 26.068-22.595 20.4l.009 15.5c8.379-2.749 27.305-11.435 30.985-34.565 4.157-26.161-19.531-29.151-30.954-19.458z" fill="#ffdfb8"/><path d="m81.007 42.125a8.858 8.858 0 0 1 -7.1-2.156 8.89 8.89 0 0 1 -14.194-.694 11.285 11.285 0 0 1 -14.713 4.187v7.314a5.982 5.982 0 0 1 -11.964 0l-.007-7.6a8.872 8.872 0 0 1 -6.829-3.207 8.849 8.849 0 0 1 -11.209.459v77.266a4 4 0 0 0 4 4h62.123a4 4 0 0 0 4-4v-77.266a8.807 8.807 0 0 1 -4.107 1.697z" fill="#ffcd38"/><path d="m85.11 101.66v16.03a4 4 0 0 1 -4 4h-62.12a4 4 0 0 1 -4-4v-16.03l3.13 3.7a15.008 15.008 0 0 0 11.43 5.28h41a15.008 15.008 0 0 0 11.43-5.28z" fill="#fff1d7"/><path d="m84.8 25.972c.011-.193.029-.383.029-.578a10.321 10.321 0 0 0 -12.69-10.073 8.137 8.137 0 0 0 -12.69-4.04 11.365 11.365 0 0 0 -18.8 0 8.137 8.137 0 0 0 -12.691 4.04 10.321 10.321 0 0 0 -12.685 10.073c0 .2.019.385.029.578a8.886 8.886 0 1 0 10.893 14 8.872 8.872 0 0 0 6.835 3.207l.007 7.6a5.982 5.982 0 0 0 11.964 0v-7.317a11.285 11.285 0 0 0 14.711-4.187 8.89 8.89 0 0 0 14.194.694 8.886 8.886 0 1 0 10.892-14z" fill="#fff1d7"/><g fill="#f7b521"><path d="m67.576 95.563a1.75 1.75 0 0 1 -1.75-1.75v-26.392a1.75 1.75 0 0 1 3.5 0v26.392a1.75 1.75 0 0 1 -1.75 1.75z"/><path d="m32.516 95.563a1.75 1.75 0 0 1 -1.75-1.75v-26.392a1.75 1.75 0 0 1 3.5 0v26.392a1.751 1.751 0 0 1 -1.75 1.75z"/><path d="m50.046 95.563a1.75 1.75 0 0 1 -1.75-1.75v-26.392a1.75 1.75 0 0 1 3.5 0v26.392a1.75 1.75 0 0 1 -1.75 1.75z"/></g></g></svg>