<?xml version="1.0" encoding="iso-8859-1"?>
<!-- Generator: Adobe Illustrator 19.0.0, SVG Export Plug-In . SVG Version: 6.00 Build 0)  -->
<svg version="1.1" id="Capa_1" xmlns="http://www.w3.org/2000/svg" xmlns:xlink="http://www.w3.org/1999/xlink" x="0px" y="0px"
	 viewBox="0 0 464 464" style="enable-background:new 0 0 464 464;" xml:space="preserve">
<path style="fill:#59CFBD;" d="M0,0h464v464H0V0z"/>
<path style="fill:#E8C172;" d="M160,0c0,48.601,23.399,88,72,88h16c35.346,0,64,28.654,64,64s-28.654,64-64,64h-24
	c-41.974,0-64,34.026-64,76s34.026,76,76,76l0,0h228V0H160z"/>
<circle style="fill:#DB735C;" cx="64" cy="64" r="32"/>
<path style="fill:#EEEEED;" d="M232,120l-24,48h48L232,120z"/>
<path style="fill:#DB735C;" d="M240,272h48v48h-48V272z"/>
<path style="fill:#474635;" d="M416,224v-24h-16v24h-24v16h24v24h16v-24h24v-16H416z"/>
<path style="fill:#60A867;" d="M400,32h-32l-16,32l16,32h32l16-32L400,32z"/>
<g>
	<path style="fill:#474635;" d="M24,144h32v16H24V144z"/>
	<path style="fill:#474635;" d="M72,144h32v16H72V144z"/>
	<path style="fill:#474635;" d="M120,144h32v16h-32V144z"/>
	<path style="fill:#474635;" d="M136,176h16v32h-16V176z"/>
	<path style="fill:#474635;" d="M120,224h32v16h-32V224z"/>
	<path style="fill:#474635;" d="M88,224h16v32H88V224z"/>
	<path style="fill:#474635;" d="M88,272h16v32H88V272z"/>
	<path style="fill:#474635;" d="M88,320h16v32H88V320z"/>
	<path style="fill:#474635;" d="M88,368h32v16H88V368z"/>
	<path style="fill:#474635;" d="M186.912,389.656L175.6,378.344l-16.968,16.968l-16.976-16.968l-11.312,11.312l16.968,16.968
		L130.344,423.6l11.312,11.312l16.976-16.976l16.968,16.976l11.312-11.312l-16.968-16.976L186.912,389.656z"/>
	<path style="fill:#474635;" d="M424,400h16v16h-16V400z"/>
	<path style="fill:#474635;" d="M392,400h16v16h-16V400z"/>
	<path style="fill:#474635;" d="M360,400h16v16h-16V400z"/>
	<path style="fill:#474635;" d="M328,400h16v16h-16V400z"/>
	<path style="fill:#474635;" d="M296,400h16v16h-16V400z"/>
	<path style="fill:#474635;" d="M264,400h16v16h-16V400z"/>
	<path style="fill:#474635;" d="M232,400h16v16h-16V400z"/>
	<path style="fill:#474635;" d="M200,400h16v16h-16V400z"/>
</g>
<g>
</g>
<g>
</g>
<g>
</g>
<g>
</g>
<g>
</g>
<g>
</g>
<g>
</g>
<g>
</g>
<g>
</g>
<g>
</g>
<g>
</g>
<g>
</g>
<g>
</g>
<g>
</g>
<g>
</g>
</svg>
