<svg id="Capa_1" enable-background="new 0 0 496.999 496.999" height="512" viewBox="0 0 496.999 496.999" width="512" xmlns="http://www.w3.org/2000/svg"><g><path d="m59.821 180.595-13.321 18.904-16.299-.993c-9.666-.589-17.249-4.911-22.153-13.262-4.668-7.95-4.817-16.159.298-23.83 1.33-1.994 2.185-4.437 3.979-5.915 1.056-.87 2.935-2.64 2.935-2.64 4.523-2.584 9.854-3.684 15.214-2.948 8.943 1.227 16.77 6.529 21.241 14.286 0 0 .246 7.329.535 7.92z" fill="#ed4a62"/><path d="m52.641 165.929c-.29-.59-.595-1.173-.925-1.733-3.87 3.3-7.475 6.983-10.745 11.023-2.496 3.084-4.739 6.325-6.737 9.687-1.044 1.756-3.245 2.482-5.094 1.612-5.227-2.46-9.682-6.455-12.689-11.579-2.21-3.77-3.32-7.98-3.32-12.19 0-3.38.71-6.75 2.13-9.89-3.19 1.82-5.97 4.37-8.08 7.54-2.69 4.03-4.05 8.69-4.05 13.35 0 4.21 1.11 8.42 3.32 12.19 4.462 7.604 12.112 12.715 20.745 14.016-.002.005-.004.01-.005.014 1.066.126.544.098 2.57.27l16.3 1 13.76-20.64z" fill="#cc2f63"/><g><path d="m147.915 158.647c-3.972 0-7.286-3.118-7.485-7.128-.205-4.137 2.982-7.657 7.119-7.862l38.239-1.898c4.153-.203 7.657 2.982 7.863 7.119.205 4.137-2.982 7.657-7.119 7.862l-38.239 1.898c-.127.006-.253.009-.378.009z" fill="#e8e8e8"/></g><g><g><path d="m86.877 323.034c-.029 0-.059 0-.088 0-4.142-.047-7.461-3.443-7.413-7.585l.334-29.23c.048-4.112 3.396-7.414 7.498-7.414h.088c4.142.047 7.461 3.443 7.413 7.585l-.334 29.23c-.048 4.112-3.396 7.414-7.498 7.414z" fill="#e8e8e8"/></g><g><path d="m54.368 305.652c-2.476 0-4.899-1.225-6.33-3.467-2.228-3.492-1.202-8.129 2.289-10.356l19.939-12.721c3.49-2.228 8.128-1.204 10.357 2.289 2.228 3.492 1.202 8.129-2.289 10.356l-19.939 12.721c-1.249.797-2.646 1.178-4.027 1.178z" fill="#e8e8e8"/></g></g><g><g><path d="m458.733 197.924c-3.362 0-6.421-2.277-7.271-5.688l-7.307-29.304c-1.002-4.019 1.443-8.089 5.463-9.092 4.021-1 8.089 1.444 9.092 5.463l7.307 29.304c1.002 4.019-1.443 8.089-5.463 9.092-.61.152-1.22.225-1.821.225z" fill="#e8e8e8"/></g><g><path d="m486.363 171.877c-.978 0-1.971-.192-2.928-.598l-33.061-14.033c-3.812-1.619-5.592-6.021-3.973-9.834 1.618-3.812 6.02-5.589 9.834-3.973l33.061 14.033c3.812 1.619 5.592 6.021 3.973 9.834-1.211 2.856-3.987 4.571-6.906 4.571z" fill="#e8e8e8"/></g></g><g><g><path d="m309.981 42.996c-2.662 0-5.24-1.42-6.6-3.925l-12.692-23.396c-1.975-3.641-.625-8.194 3.017-10.169 3.637-1.977 8.192-.625 10.169 3.016l12.692 23.396c1.975 3.641.625 8.194-3.017 10.169-1.135.617-2.361.909-3.569.909z" fill="#e8e8e8"/></g><g><path d="m301.23 52.392c-.854 0-1.721-.146-2.569-.456l-24.497-8.938c-3.892-1.42-5.896-5.725-4.476-9.616 1.421-3.891 5.724-5.896 9.616-4.476l24.497 8.938c3.892 1.42 5.896 5.725 4.476 9.616-1.11 3.043-3.985 4.932-7.047 4.932z" fill="#e8e8e8"/></g></g><path d="m349.357 106.697h-37.393l-12.34-22.177c-5.629-9.668-6.654-31.319-1.702-41.524 6.287-12.958 17.654-21.646 32.057-21.646 2.321 0 6.841.052 6.841.052 11.618 2.148 21.712 9.689 26.986 20.559 6.604 13.611 6 29.617-1.613 42.692l-3.922 6.736-7.168 6.493z" fill="#ed4a62"/><path d="m322.721 84.219c-1.709-.171-4.64.246-7.687.402-1.992.102-3.881-.959-4.763-2.747-6.169-12.516-6.26-27.254-.12-39.915 3.14-6.48 8-11.78 13.87-15.45 3.93-2.46 8.338-4.203 12.978-5.073-2.28-.44-4.638-.657-7.018-.657-7.21 0-14.09 2.06-19.96 5.73s-10.73 8.97-13.87 15.45c-6.6 13.61-6 29.62 1.61 42.69l12.84 22.05h38.76l8.91-15.31c-11.22-4.71-23.32-7.17-35.55-7.17z" fill="#cc2f63"/><g><path d="m269.525 141.024c-2.715 0-5.335-1.479-6.668-4.057l-13.471-26.049c-1.902-3.679-.462-8.204 3.217-10.107 3.678-1.902 8.205-.463 10.107 3.217l13.471 26.049c1.902 3.679.462 8.204-3.217 10.107-1.101.57-2.278.84-3.439.84z" fill="#e8e8e8"/></g><g><g><path d="m339.263 402.235c-1.919 0-3.839-.732-5.304-2.197l-21.055-21.055c-2.929-2.929-2.929-7.678 0-10.606 2.93-2.929 7.678-2.929 10.607 0l21.055 21.055c2.929 2.929 2.929 7.678 0 10.606-1.464 1.465-3.384 2.197-5.303 2.197z" fill="#e8e8e8"/></g><g><path d="m351.799 372.653c-.027 0-.054 0-.08 0l-29.44-.308c-4.143-.043-7.465-3.436-7.422-7.578.043-4.115 3.393-7.422 7.498-7.422h.08l29.44.308c4.143.043 7.465 3.436 7.422 7.578-.043 4.115-3.393 7.422-7.498 7.422z" fill="#e8e8e8"/></g></g><path d="m140.383 54.999h-23.121l-8.216-14.111c-4.873-8.369-4.947-17.782-.72-26.495 4.024-8.295 10.434-13.723 19.653-13.723 2.232 0 6.502.224 6.502.224 6.532 1.833 12.101 6.38 15.152 12.667 4.228 8.713 3.841 18.959-1.032 27.328l-.106.182-5.891 7.11z" fill="#ed4a62"/><path d="m179.113 90.031-12.383-19.277 7.864-14.31c4.664-8.487 13.192-13.932 22.838-14.796 9.183-.822 17.113 2.789 21.862 10.691.565.94 1.053 1.362 1.479 2.351.559 1.301 1.917 3.977 1.917 3.977 1.478 6.301.377 13.052-3.274 18.648-5.291 8.111-14.273 13.056-23.956 13.19l-.089.001z" fill="#ed4a62"/><path d="m141.944 39.45c-4.3-.83-8.69-1.26-13.06-1.26-2.485 0-4.956.146-7.406.42-1.338.15-2.62-.627-3.105-1.882-2.885-7.46-2.592-15.855.951-23.168 2.01-4.14 5.13-7.54 8.88-9.89 1.94-1.21 4.056-2.147 6.276-2.777-2.09-.58-4.266-.893-6.496-.893-4.61 0-9.02 1.32-12.78 3.67-3.75 2.35-6.87 5.75-8.88 9.89-4.22 8.71-3.84 18.96 1.04 27.33l9.284 16.014 22.383.468 9.463-16.303c-2.141-.639-4.33-1.189-6.55-1.619z" fill="#cc2f63"/><path d="m219.891 51.769c-4.37-7.28-12.23-11.67-20.61-11.67-.72 0-1.44.03-2.17.1-9.65.86-18.23 6.47-22.89 14.96l-8.991 16.234 11.457 19.336 18.684-.223c-.12-.5-.25-.987-.38-1.477-2.37-8.927-6.525-17.133-12.037-24.231-1.189-1.532-1.114-3.696.186-5.136 4.852-5.371 11.597-8.806 18.971-9.463.73-.07 1.45-.1 2.17-.1 7.11 0 13.858 3.158 18.408 8.568-.55-2.39-1.488-4.718-2.798-6.898z" fill="#cc2f63"/><path d="m138.687 174.861-46.894-7.304-11.698-33.573c-6.938-19.912-3.638-40.3 9.017-57.166 10.112-13.476 23.8-22.16 40.277-22 2.282.022 6.869-.102 6.869-.102.876.125 1.753.272 2.628.442 19.704 3.83 35.49 18.58 40.645 37.98 5.416 20.378.332 42.116-13.56 57.979l-8.391 9.582z" fill="#8ce1a4"/><path d="m393.797 172.634-12.618-36.645 17.276-17.596c9.884-11.454 23.765-17.983 38.785-16.17 8.881 1.072 16.928 4.362 22.851 10.628 1.262 1.335 3.904 4.186 3.904 4.186 1.974 2.824 3.578 5.945 4.734 9.302 4.689 13.618 1.187 28.718-9.018 38.881-10.72 10.676-26.05 15.315-40.891 12.374l-4.37-.866-9.603-4.42z" fill="#ed4a62"/><path d="m456.811 109.339c-5.39-4.36-11.98-7.22-19.13-8.09-15.02-1.81-29.95 3.97-39.84 15.43l-16.66 19.31 12.62 36.65 20.648 4.088c.095-14.019-3.088-27.729-8.986-40.115-.656-1.377-.434-3.013.528-4.197l3.85-4.737c9.89-11.46 24.82-17.24 39.84-15.43 5.14.63 9.994 2.277 14.314 4.787-2.02-2.909-4.454-5.486-7.184-7.696z" fill="#cc2f63"/><path d="m305.254 278.272-58.564-33.812-1.939-54.466c-.112-30.475 11.43-57.742 36.66-74.835 16.138-10.934 34.174-16.083 52.777-13.191 3.165.492 9.586 1.238 9.586 1.238 5.796 1.677 11.444 4.064 16.814 7.164 25.125 14.506 39.755 42.089 37.672 71.026-2.188 30.396-19.364 57.709-45.811 72.849l-24.905 14.257z" fill="#afefa5"/><path d="m124.891 146.419c-6.21-1.45-12.6-2.18-18.97-2.18-1.858 0-3.707.063-5.545.185-2.252.15-4.328-1.205-5.07-3.337l-2.475-7.108c-6.94-19.91-3.51-41.97 9.14-58.83 8.46-11.28 20.944-18.462 34.434-20.412-2.5-.37-5.034-.538-7.524-.538-16.29 0-31.9 7.61-41.91 20.95-12.65 16.86-16.08 38.92-9.14 58.83l11.69 33.58 53.03 10.3 15.03-17.16c-9.78-6.62-20.83-11.51-32.69-14.28z" fill="#7ad396"/><path d="m195.341 255.405-41.505 49.016-45.309-7.006c-26.872-4.155-49.49-17.183-61.032-41.803h-.635c-7.228-15.419-9.85-31.711-5.061-47.433.662-2.175 1.806-6.494 1.806-6.494 2.438-5.817 5.715-11.345 9.806-16.398 16.29-20.117 42.641-29.16 67.851-23.286 26.482 6.171 48.154 25.119 57.806 50.54l7.793 20.526 1.316 9.153z" fill="#8ce1a4"/><path d="m297.241 116.259c12.79-8.67 27.62-13.04 42.49-13.04 1.52 0 3.05.05 4.57.14-7.05-2.1-14.31-3.14-21.57-3.14-14.87 0-29.7 4.37-42.49 13.04-25.23 17.09-40.3 45.62-40.18 76.1l.18 51.38 67.61 39.03 5.93-3.39-.004-.002 13.766-7.875c-8.48-12.27-19.382-22.723-32.132-30.713-10.632-6.658-22.242-11.403-34.343-14.113-2.279-.51-3.906-2.52-3.914-4.856l-.093-26.462c-.12-30.479 14.95-59.009 40.18-76.099z" fill="#8ce1a4"/><path d="m195.341 255.409-8.48-22.34c-2.83 1.45-5.6 3.02-8.31 4.72-17.54 10.98-31.58 26.62-40.61 45.24-1.191 2.458-2.296 4.941-3.321 7.446-.716 1.748-2.575 2.739-4.431 2.388l-12.588-2.383c-28.38-5.37-53.26-24.12-66.36-50.01-5.3-10.47-7.92-21.63-7.92-32.54 0-2.09.093-4.173.283-6.243-3.49 8.3-5.254 17.193-5.254 26.143 0 9.73 2.1 19.52 6.39 28.67 11.54 24.62 34.58 41.88 61.45 46.03l45.31 7.01z" fill="#7ad396"/><path d="m282.177 451.999h-90.861l-32.118-55.162c-19.049-32.716-20.599-69.977-4.073-104.037l.407.407c15.732-32.424 45.435-55.772 81.475-55.772 2.414 0 7.166-.162 7.166-.162 33.171 2.536 62.771 22.485 77.45 52.737 16.526 34.06 15.013 74.111-4.036 106.827l-24.548 42.16z" fill="#afefa5"/><path d="m198.795 438.999c-1.78 0-3.425-.946-4.321-2.484l-23.104-39.676c-19.05-32.72-20.56-72.77-4.04-106.83 7.87-16.21 20.02-29.46 34.71-38.66 12.64-7.91 27.16-12.83 42.44-14.05-2.48-.2-4.98-.3-7.5-.3-18.02 0-35.25 5.15-49.94 14.35s-26.84 22.45-34.71 38.66c-16.52 34.06-15.01 74.11 4.04 106.83l24.55 42.16 7.57 13 51.388 6.734 45.592-6.734 7.568-13.001z" fill="#8ce1a4"/><g><g><path d="m272.441 333.256c-1.144 0-2.305-.262-3.394-.816-3.692-1.877-5.163-6.393-3.286-10.085l9.791-19.256c1.879-3.692 6.396-5.163 10.085-3.286 3.692 1.877 5.163 6.393 3.286 10.085l-9.791 19.256c-1.323 2.603-3.958 4.102-6.691 4.102z" fill="#f8f7f7"/></g><g><path d="m203.658 380.33c-2.592 0-5.113-1.345-6.502-3.751l-10.801-18.708c-2.071-3.587-.842-8.174 2.745-10.245 3.586-2.072 8.175-.843 10.245 2.745l10.801 18.708c2.071 3.587.842 8.174-2.745 10.245-1.18.681-2.47 1.006-3.743 1.006z" fill="#f8f7f7"/></g><g><path d="m237.511 298.352c-1.569 0-3.151-.491-4.503-1.507l-17.263-12.986c-3.31-2.49-3.975-7.192-1.484-10.502 2.489-3.31 7.189-3.976 10.502-1.485l17.263 12.986c3.31 2.49 3.975 7.192 1.484 10.502-1.474 1.959-3.723 2.992-5.999 2.992z" fill="#f8f7f7"/></g><g><path d="m117.769 133.522c-3.411 0-6.496-2.342-7.3-5.808l-4.877-21.044c-.935-4.035 1.578-8.064 5.613-9 4.036-.938 8.064 1.577 9 5.613l4.877 21.044c.935 4.035-1.578 8.064-5.613 9-.57.132-1.14.195-1.7.195z" fill="#f8f7f7"/></g><g><path d="m308.727 231.518c-3.411 0-6.496-2.342-7.3-5.808-.935-4.035 1.578-8.064 5.613-9l21.044-4.877c4.035-.936 8.064 1.578 9 5.613.935 4.035-1.578 8.064-5.613 9l-21.044 4.877c-.57.132-1.14.195-1.7.195z" fill="#f8f7f7"/></g><g><path d="m316.008 161.118c-3.959 0-7.27-3.101-7.482-7.101l-1.149-21.571c-.221-4.136 2.954-7.668 7.09-7.888 4.131-.234 7.668 2.954 7.889 7.09l1.149 21.571c.221 4.136-2.954 7.668-7.09 7.888-.137.008-.272.011-.407.011z" fill="#f8f7f7"/></g><g><path d="m271.104 395.999c-2.006 0-4.006-.799-5.482-2.38-2.828-3.027-2.666-7.773.361-10.601l15.786-14.746c3.026-2.828 7.773-2.666 10.6.361 2.828 3.027 2.666 7.773-.361 10.601l-15.786 14.746c-1.447 1.351-3.285 2.019-5.118 2.019z" fill="#f8f7f7"/></g><g><path d="m122.772 232.727c-3.403 0-6.484-2.332-7.295-5.789l-4.163-17.745c-.946-4.032 1.556-8.068 5.589-9.015 4.034-.946 8.069 1.556 9.015 5.589l4.163 17.745c.946 4.032-1.556 8.068-5.589 9.015-.576.136-1.152.2-1.72.2z" fill="#f8f7f7"/></g><g><path d="m107.122 249.982c-.509 0-1.025-.052-1.543-.16l-18.041-3.772c-4.055-.848-6.653-4.822-5.806-8.876.848-4.055 4.823-6.654 8.876-5.807l18.041 3.772c4.055.848 6.653 4.822 5.806 8.876-.739 3.538-3.857 5.967-7.333 5.967z" fill="#f8f7f7"/></g></g><path d="m399.478 451.999h-325c-6.232 0-12.131 1.425-17.389 3.967 0 0-2.834 2.331-4.445 3.426-10.585 7.197-16.915 17.937-16.915 31.702 0 2.761 2.239 5 5 5l392.681-.17c2.761 0 5-2.239 5-5 0-3.094.052-7.924.052-7.924-4.082-17.757-19.986-31.001-38.984-31.001z" fill="#ffd185"/><path d="m439.481 491.999c0 2.76-2.24 5-5 5h-395c-1.38 0-2.63-.56-3.53-1.46-.91-.91-1.47-2.16-1.47-3.54 0-15.86 9.23-29.56 22.61-36.03-4.17 6.32-6.61 13.89-6.61 22.03 0 1.38.56 2.63 1.47 3.54.9.9 2.15 1.46 3.53 1.46l382.981.002c.66 2.89 1.019 5.908 1.019 8.998z" fill="#f0b774"/></g></svg>