<?xml version="1.0" encoding="iso-8859-1"?>
<!-- Generator: Adobe Illustrator 19.0.0, SVG Export Plug-In . SVG Version: 6.00 Build 0)  -->
<svg version="1.1" id="Layer_1" xmlns="http://www.w3.org/2000/svg" xmlns:xlink="http://www.w3.org/1999/xlink" x="0px" y="0px"
	 viewBox="0 0 512 512" style="enable-background:new 0 0 512 512;" xml:space="preserve">
<g>
	<path style="fill:#FF968A;" d="M205.468,364.297c-4.465,0-8.084-3.613-8.084-8.072v-20.73c0-4.459,3.62-8.072,8.084-8.072
		s8.084,3.613,8.084,8.072v20.73C213.552,360.684,209.933,364.297,205.468,364.297z"/>
	<path style="fill:#FF968A;" d="M154.03,364.297c-4.465,0-8.084-3.613-8.084-8.072v-20.73c0-4.459,3.62-8.072,8.084-8.072
		s8.084,3.613,8.084,8.072v20.73C162.114,360.684,158.494,364.297,154.03,364.297z"/>
	<path style="fill:#FF968A;" d="M179.956,371.374c-4.465,0-8.084-3.613-8.084-8.072v-20.73c0-4.459,3.62-8.072,8.084-8.072
		s8.084,3.613,8.084,8.072v20.73C188.041,367.761,184.421,371.374,179.956,371.374z"/>
</g>
<g>
	<path style="fill:#91AAC4;" d="M26.781,258.527c-4.465,0-8.084-3.613-8.084-8.072v-42.263c0-22.218,18.077-40.291,40.295-40.291
		c4.465,0,8.084,3.613,8.084,8.072c0,4.459-3.62,8.072-8.084,8.072c-13.304,0-24.127,10.833-24.127,24.149v42.263
		C34.865,254.914,31.246,258.527,26.781,258.527z"/>
	<path style="fill:#91AAC4;" d="M309.021,418.272l-2.758,14.481c-0.325,1.724-1.729,2.963-3.357,2.963h-32.492
		c-2.235,0-3.982-2.097-3.768-4.52l1.815-22.85l11.414-143.801l42.931-20.614l-29.8,158.534c-0.086,0.457-0.094,0.913-0.017,1.36
		c0.163,1.091,0.771,2.06,1.686,2.628l12.674,7.81C308.645,415.066,309.321,416.679,309.021,418.272z"/>
</g>
<path style="fill:#3F5666;" d="M309.021,418.272l-2.758,14.481c-0.325,1.724-1.729,2.963-3.357,2.963h-32.492
	c-2.235,0-3.982-2.097-3.768-4.52l1.815-22.85l24.529-4.52c0.163,1.091,0.771,2.06,1.686,2.628l12.674,7.81
	C308.645,415.066,309.321,416.679,309.021,418.272z"/>
<path style="fill:#91AAC4;" d="M115.2,349.517v50.443c0,0.858,0.288,1.677,0.811,2.321c0.261,0.335,0.578,0.615,0.95,0.848
	l15.121,9.347c0.894,0.559,1.518,1.472,1.705,2.507l2.972,16.336c0.419,2.293-1.342,4.399-3.661,4.399h-36.66
	c-2.058,0-3.726-1.668-3.726-3.727V329.455l11.562-62.875l74.065,13.979l-40.629,67.096L115.2,349.517z"/>
<path style="fill:#3F5666;" d="M133.097,435.718h-36.66c-2.058,0-3.726-1.668-3.726-3.727v-25.683l23.3-4.026
	c0.261,0.335,0.578,0.615,0.95,0.848l15.121,9.347c0.894,0.559,1.518,1.472,1.705,2.507l2.972,16.336
	C137.177,433.611,135.417,435.718,133.097,435.718z"/>
<ellipse style="fill:#E8C1B5;" cx="179.952" cy="297.168" rx="54.418" ry="48.69"/>
<path style="fill:#CCA295;" d="M146.302,297.169c0-23.713,18.948-43.457,44.034-47.795c-3.361-0.581-6.829-0.895-10.38-0.895
	c-30.052,0-54.414,21.8-54.414,48.69s24.362,48.69,54.414,48.69c3.551,0,7.019-0.315,10.38-0.895
	C165.252,340.628,146.302,320.883,146.302,297.169z"/>
<path style="fill:#E1E9F2;" d="M512,128.02v22.471c0,13.495-24.522,24.828-24.522,24.828l-11.21,2.562l-48.516,11.095
	c0,0-0.087,0.032-0.237,0.086h-0.01c-2.328,0.871-28.952,71.383-47.147,81.607c-33.587,18.876-22.236,127.84-22.236,127.84
	c0.054,0.451,0.194,0.893,0.399,1.281c0.259,0.485,0.604,0.904,1.034,1.237l19.337,14.743c1.174,0.893,1.703,2.39,1.358,3.832
	l-3.169,13.259c-0.41,1.679-1.898,2.863-3.633,2.863h-34.729c-1.898,0-3.568-1.313-4.009-3.175l-5.207-25.279l-1.498-101.205
	c-0.432-1.808-2.026-3.111-3.881-3.154l-3.751-0.14l-118.946-4.197l-62.938-2.228c-1.089-0.032-2.156,0.354-2.942,1.109
	l-54.413,50.549c-0.765,0.699-1.768,1.097-2.824,1.097H60.362c-2.275,0-4.128,1.84-4.128,4.122v50.527
	c0,0.668,0.172,1.324,0.474,1.905c0.28,0.538,0.679,1.033,1.174,1.399l9.55,7.168c0.754,0.571,1.304,1.389,1.531,2.293l3.524,14.087
	c0.647,2.604-1.314,5.122-3.999,5.122H34.601c-2.275,0-4.118-1.84-4.118-4.111V325.942c0-1.604,0.916-3.056,2.36-3.734l11.76-13.238
	c1.444-0.689,2.372-2.141,2.372-3.734l-0.377-67.563l-0.292-52.991c-0.086-16.132,5.368-31.048,14.628-42.865
	c12.17-15.55,30.882-25.785,52.105-26.475l68.425-0.269l111.648-0.419l24.544-0.097l109.87-15.68c7.136,0,13.959,2.852,18.982,7.91
	l5.81,5.855c5.023,5.047,11.856,7.889,18.982,7.889h33.22C508.648,120.53,512,123.888,512,128.02z"/>
<path style="fill:#B3D2F2;" d="M51.499,328.052c0-1.655,0.921-3.168,2.361-3.868l11.757-13.717c1.45-0.711,2.371-2.214,2.371-3.868
	l-0.372-69.99l-0.294-54.901c-0.088-16.724,5.37-32.168,14.628-44.413c7.119-9.427,16.487-16.944,27.277-21.723
	c-19.645,1.72-36.861,11.633-48.296,26.248c-9.259,11.819-14.716,26.726-14.628,42.867l0.294,52.99l0.372,67.555
	c0,1.597-0.921,3.048-2.371,3.733l-11.757,13.241c-1.44,0.676-2.361,2.137-2.361,3.734v105.667c0,2.274,1.842,4.116,4.115,4.116
	h16.904C51.499,435.722,51.499,328.052,51.499,328.052z"/>
<g>
	<path style="fill:#3F5666;" d="M68.488,435.718H34.594c-2.282,0-4.118-1.845-4.118-4.128v-22.03l26.235-3.905
		c0.271,0.54,0.671,1.025,1.173,1.398l9.549,7.166c0.754,0.568,1.304,1.389,1.528,2.292l3.521,14.09
		C73.127,433.201,71.171,435.718,68.488,435.718z"/>
	<path style="fill:#3F5666;" d="M380.253,419.596l-3.177,13.261c-0.4,1.677-1.891,2.861-3.624,2.861H338.72
		c-1.901,0-3.568-1.305-4.006-3.168l-5.217-25.282l29.021-7.474c0.252,0.485,0.606,0.904,1.044,1.239l19.332,14.733
		C380.066,416.66,380.597,418.16,380.253,419.596z"/>
</g>
<path style="fill:#2F3F4A;" d="M294.716,128.187c0,31.694-25.69,57.391-57.375,57.391c-31.696,0-57.386-25.696-57.386-57.391
	c0-4.509,0.519-8.898,1.509-13.113l111.645-0.421C294.158,118.992,294.716,123.521,294.716,128.187z"/>
<path style="fill:#E8C1B5;" d="M512,128.02v22.471c0,13.495-24.522,24.828-24.522,24.828l-11.21,2.562
	c-10.974-19.436-4.15-41.681,3.859-57.35h24.393C508.648,120.53,512,123.888,512,128.02z"/>
<g>
	<path style="fill:#2F3F4A;" d="M102.131,189.732c0,26.765-21.692,48.463-48.44,48.463c-2.411,0-4.781-0.177-7.094-0.519
		l-0.294-52.991c-0.088-16.142,5.369-31.048,14.628-42.867C84.25,145.317,102.131,165.437,102.131,189.732z"/>
	<path style="fill:#2F3F4A;" d="M320.376,302.77l-118.954-4.194c5.771-24.579,30.03-43.024,59.081-43.024
		C291.188,255.552,316.526,276.122,320.376,302.77z"/>
	<ellipse style="fill:#2F3F4A;" cx="440.55" cy="128.417" rx="8.084" ry="8.072"/>
</g>
<path style="fill:#E1E9F2;" d="M429.166,104.571c-3.867-6.263-13.804-20.388-28.686-27.866c-2.567-1.29-5.616,0.489-5.707,3.361
	c-0.336,10.642-0.138,33.61,6.898,46.136c1.244,2.216,4.251,2.648,6.099,0.904c4.147-3.914,11.824-10.887,20.416-17.353
	C429.804,108.537,430.228,106.293,429.166,104.571z"/>
<path style="fill:#91AAC4;" d="M421.323,103.487c-2.078-3.366-7.418-10.955-15.413-14.973c-1.379-0.694-3.018,0.262-3.067,1.807
	c-0.181,5.719-0.074,18.059,3.707,24.79c0.669,1.19,2.284,1.423,3.277,0.486c2.228-2.103,6.353-5.849,10.97-9.324
	C421.666,105.619,421.894,104.413,421.323,103.487z"/>
<path style="fill:#2F3F4A;" d="M34.865,283.472v-37.426c0-2.318-1.878-4.195-4.194-4.195l0,0C13.732,241.851,0,255.586,0,272.529
	v37.426c0,2.318,1.878,4.195,4.194,4.195l0,0C21.133,314.15,34.865,300.415,34.865,283.472z"/>
<g>
</g>
<g>
</g>
<g>
</g>
<g>
</g>
<g>
</g>
<g>
</g>
<g>
</g>
<g>
</g>
<g>
</g>
<g>
</g>
<g>
</g>
<g>
</g>
<g>
</g>
<g>
</g>
<g>
</g>
</svg>
