<?xml version="1.0" encoding="iso-8859-1"?>
<!-- Generator: Adobe Illustrator 19.0.0, SVG Export Plug-In . SVG Version: 6.00 Build 0)  -->
<svg version="1.1" id="Layer_1" xmlns="http://www.w3.org/2000/svg" xmlns:xlink="http://www.w3.org/1999/xlink" x="0px" y="0px"
	 viewBox="0 0 512 512" style="enable-background:new 0 0 512 512;" xml:space="preserve">
<circle style="fill:#FFFABE;" cx="405.5" cy="275.5" r="75.5"/>
<path style="fill:#FEEA9A;" d="M256,0C114.615,0,0,114.615,0,256s114.615,256,256,256s256-114.615,256-256S397.385,0,256,0z
	 M458.185,295.5c-24.105,6.5-15.419,21.021-47.883,22.167C363.075,319.333,348.316,306,347.332,291s8.443-33.501,35.748-32.667
	c43.619,1.333,53.768-30.484,76.088-27.333C476.879,233.5,468.471,292.726,458.185,295.5z"/>
<path style="fill:#C2CCAA;" d="M510.797,280.24c0.018-0.19,0.054-0.375,0.072-0.566l-0.026-0.011
	C511.565,271.866,512,263.986,512,256c0-40.317-9.349-78.441-25.952-112.368L269,170c0,0-45,97-44,101
	c0.435,1.739,2.572,18.42,4.849,36.717L228,308v98.5h235.04c20.808-28.575,35.722-61.653,43.275-97.453
	c0.051,0.002,0.095,0.009,0.146,0.011c0.814-3.865,1.516-7.77,2.156-11.696c0.013-0.077,0.03-0.153,0.042-0.23
	C509.563,291.561,510.257,285.924,510.797,280.24z M344.667,313c-4.097-12.662-9.982-10.162-11.667-6.5
	c-16.333,35.5-17.333,11.167-24,11.167S301.031,337,297,337c-7.667,0-14-25-11-41c4.05-21.598,21-19,31-8s11.366-1.876,18-22
	c10-30.333,19.939-25.654,25-11c4.027,11.662,2.363,43.892-0.667,55C357.333,317.333,348.333,324.333,344.667,313z M466,307
	c-3.815-14.069-8.5-23.5-13.5-23.5c-9.014,0-6,50-10,50s-10-23.5-14-23.5s-2.5,27-13,29s-9.5-12-17.5-9
	c-7.239,2.714-13.397-1.554-17-10.667c-5.667-14.333-5.724-69.615,1-77.833c13.5-16.5,70-27.5,84-20
	c13.606,7.289,24.771,49.337,21.5,73C485.483,309.093,474,336.5,466,307z"/>
<path style="fill:#87AFB9;" d="M449.333,322c-7.667,4-48.583,29.75-52.583,27.5c-6.887-3.875-23-16.167-30.75-16.167
	c-15.5,0-54.068,21.852-68.667,18.667c-18.333-4-56.7-45.087-62.333-55c-12.5-22,27.216-29.182,36.667-39.333
	C280.667,248,281.75,211,285,211c4.5,0,3,11,9.5,11s6-33.5,11.5-33.5s3.167,39.167,7.667,39.167S320,190.5,324.5,190.5
	s4.167,23.5,10,23.5c3,0,5.5-20.5,8-20.5s7.167,37.5,11.833,37.5c2.5,0,5.167-44,8.667-44s8,21.333,12,21.333
	s6.5-21.833,10.5-21.833s5.5,39.833,10.5,39.833S401.5,193,407.5,193s4.667,14.667,9.167,14.667s5-35.667,10-35.667
	c5.333,0,5.667,20.667,12.667,20.667c6,0,9.667-21.667,14.667-12.667s9.5,2,14-6s5.667,11.333,11.667,11.333
	c3.538,0,9.788-10.124,13.237-26.389c-7.373-17.977-16.743-34.909-27.815-50.563C391.398,102.227,247.641,90.517,238,92
	c-13,2-58,93-58,93l14.667,209.667h276.476c12.211-18.907,22.034-39.496,28.958-61.387C470,322.667,456.487,318.268,449.333,322z"/>
<path style="fill:#70849D;" d="M256,0C114.615,0,0,114.615,0,256c0,6.873,0.351,13.659,0.882,20.395
	c38.51-2.116,177.827,5.807,188.868,8.355c13,3,15.789-64.724,27.583-44.083C224,252.333,230.667,244,237.667,216
	c3.91-15.643,10.333,10.333,20.333,10.333c7.453,0,15-82,21-84.667S290.667,168,297,168c7.333,0,10-56,17.667-56
	c5.963,0,14.667,72,20.667,72C341,184,341.5,158,346,158c7.18,0,6.5,21.5,11.5,21.5c3.771,0,7.459-33.167,12.833-33.167
	c4,0,7.333,26,12.667,26c6.6,0,12.333-53.667,17.667-57c5.333-3.333,11.333,66,17.333,66c6.147,0,8.667-43.333,14.667-26.667
	S443.5,164,449.333,138c2.125-9.471,16-1.333,22.667,16.667c4.486,12.113,9.573,3.069,14.048-11.034C444.427,58.585,357.067,0,256,0
	z"/>
<path style="fill:#7C9AAB;" d="M451,342c-11.402,0-33.169,28-39,28c-8,0-53.821-11.179-59.5-12.5c-10.75-2.5-8.25-30.75-15.25-30.75
	c-3.25,0-17.156,45.74-26.5,51.5C304.667,382,291,387.667,277,357c-2.972-6.511-32.074-22.664-37.333-23c-15.667-1-83,18-83,18
	S104.44,241.5,94,241.5c-17,0-19.5,12.5-31,0.5c-8.099-8.451-14-42-34-31c-7.87,4.328-18.205,12.684-27.861,21.225
	C0.417,240.058,0,247.979,0,256c0,66.672,25.505,127.375,67.268,172.929l357.544,19.439c26.727-23.473,48.509-52.409,63.618-85.086
	C472.5,354.5,456.5,342,451,342z"/>
<path style="fill:#5A5A82;" d="M426,379c-17.639,15.68-19,32-47,27c-7.891-1.409-24,25.5-36,16c-24.954-19.756-35-14.5-48-14.5
	s-15.342-32.167-21.667-32.167C261.5,375.333,265,403,253,403c-9.434,0-7.5-54.333-16.333-54.333C224,348.667,227.5,373,217,373
	c-8.5,0-22-111-25-166c-2.483-45.53-3.395-93.71,6-102c17-15,22,126,37,126c16.5,0,18-119,27-119s11,47,17,46s16-67,21-67
	s15,79,20,79s15-77,20-77s10,47,16,47s18-55,25-56s18,75,26,75s12-77,18-77s19,107,25,107c3.699,0,15.757-37.624,24.464-66.485
	C429.472,49.038,348.469,0,256,0C163.17,0,81.884,49.411,36.999,123.365C45.572,123.691,54.76,212,62,212
	c15,0,14.402-102.223,22-114c10-15.5,26.667,2,30,47c4.187,56.519-2.615,146.65-14,154c-5.744,3.708-12.939-25.35-19.5-25.35
	c-13.885,0-23.615,48.5-31.615,48.5S28,254,17,255c-3.867,0.352-10.087,7.296-16.521,16.098C8.299,405.45,119.688,512,256,512
	c99.294,0,185.32-56.569,227.779-139.202C450,365.5,435,371,426,379z"/>
<g>
</g>
<g>
</g>
<g>
</g>
<g>
</g>
<g>
</g>
<g>
</g>
<g>
</g>
<g>
</g>
<g>
</g>
<g>
</g>
<g>
</g>
<g>
</g>
<g>
</g>
<g>
</g>
<g>
</g>
</svg>
