<svg enable-background="new 0 0 330 330" height="512" viewBox="0 0 330 330" width="512" xmlns="http://www.w3.org/2000/svg"><path d="m315 27.684c-43.609 0-85.355 17.324-116.158 47.85-10.596-3.735-21.985-5.774-33.842-5.774v182.518 50.039c29.951 0 55.462-20.785 61.968-49.369 25.108-19.191 39.958-48.84 40.104-80.629 39.542-31.196 62.928-79.051 62.928-129.635 0-8.286-6.716-15-15-15z" fill="#efc27b"/><path d="m315 27.684c-43.609 0-85.355 17.324-116.158 47.85-10.596-3.735-21.985-5.774-33.842-5.774s-23.246 2.039-33.842 5.773c-30.803-30.525-72.551-47.849-116.158-47.849-8.284 0-15 6.715-15 15 0 50.58 23.383 98.432 62.921 129.629.145 31.793 14.999 61.445 40.112 80.635 6.51 28.588 32.021 49.369 61.967 49.369 29.951 0 55.462-20.785 61.968-49.369 25.108-19.191 39.958-48.84 40.104-80.629 39.542-31.196 62.928-79.051 62.928-129.635 0-8.286-6.716-15-15-15z" fill="#ffdbaa"/><path d="m315 27.684c-43.609 0-85.355 17.324-116.158 47.85-10.596-3.735-21.985-5.774-33.842-5.774v182.518 50.039c29.951 0 55.462-20.785 61.968-49.369 25.108-19.191 39.958-48.84 40.104-80.629 39.542-31.196 62.928-79.051 62.928-129.635 0-8.286-6.716-15-15-15z" fill="#ffc86d"/><path d="m165 252.277c-8.284 0-15 6.717-15 15v20.039c0 8.285 6.716 15 15 15s15-6.715 15-15v-20.039c0-8.283-6.716-15-15-15z" fill="#57555d"/><path d="m165 252.277v50.039c8.284 0 15-6.715 15-15v-20.039c0-8.283-6.716-15-15-15z" fill="#3c3a3f"/><path d="m261.115 137.459c20.953-21.301 34.377-49.068 37.935-78.828-26.75 3.189-51.964 14.34-72.341 31.951 15.588 11.867 27.672 28.107 34.406 46.877z" fill="#ffa326"/><path d="m103.289 90.58c-20.376-17.609-45.59-28.76-72.339-31.949 3.558 29.758 16.979 57.523 37.931 78.824 6.736-18.769 18.82-35.008 34.408-46.875z" fill="#ffaf64"/><path d="m134.999 202.322c3.95 0 7.81-1.609 10.61-4.4 2.79-2.789 4.39-6.66 4.39-10.609 0-3.941-1.6-7.811-4.39-10.6-2.801-2.791-6.66-4.4-10.61-4.4-3.949 0-7.81 1.609-10.608 4.4-2.791 2.789-4.392 6.658-4.392 10.6 0 3.949 1.601 7.82 4.392 10.609 2.798 2.791 6.659 4.4 10.608 4.4z" fill="#57555d"/><path d="m194.999 172.322c-3.949 0-7.81 1.6-10.608 4.391-2.791 2.789-4.392 6.658-4.392 10.6 0 3.949 1.601 7.82 4.392 10.609 2.799 2.791 6.659 4.4 10.608 4.4 3.95 0 7.81-1.609 10.61-4.4 2.79-2.789 4.39-6.66 4.39-10.609 0-3.941-1.6-7.811-4.39-10.6-2.8-2.791-6.66-4.391-10.61-4.391z" fill="#3c3a3f"/></svg>