<svg height="512pt" viewBox="0 -120 512 512" width="512pt" xmlns="http://www.w3.org/2000/svg"><path d="m438.667969 256h-30c0-84.183594-68.488281-152.667969-152.667969-152.667969s-152.667969 68.484375-152.667969 152.667969h-30c0-100.722656 81.945313-182.667969 182.667969-182.667969s182.667969 81.945313 182.667969 182.667969zm0 0"/><path d="m512 256v15h-180v-15c0-41.910156-34.089844-76-76-76s-76 34.089844-76 76v15h-180v-15c0-68.378906 26.628906-132.671875 74.980469-181.019531 48.347656-48.351563 112.640625-74.980469 181.019531-74.980469s132.671875 26.628906 181.019531 74.980469c48.351563 48.347656 74.980469 112.640625 74.980469 181.019531zm0 0" fill="#fc4a48"/><path d="m438.671875 256v15h-106.671875v-15c0-41.910156-34.089844-76-76-76s-76 34.089844-76 76v15h-106.671875v-15c0-100.71875 81.953125-182.667969 182.671875-182.667969s182.671875 81.949219 182.671875 182.667969zm0 0" fill="#8adb53"/><path d="m512 256v15h-180v-15c0-41.910156-34.089844-76-76-76v-180c68.378906 0 132.671875 26.628906 181.019531 74.980469 48.351563 48.347656 74.980469 112.640625 74.980469 181.019531zm0 0" fill="#fc1c5c"/><path d="m438.671875 256v15h-106.671875v-15c0-41.910156-34.089844-76-76-76v-106.671875c100.71875 0 182.671875 81.953125 182.671875 182.671875zm0 0" fill="#5dc277"/><path d="m438.671875 256v15h-30v-15c0-84.179688-68.492187-152.671875-152.671875-152.671875s-152.671875 68.492187-152.671875 152.671875v15h-30v-15c0-100.71875 81.953125-182.667969 182.671875-182.667969s182.671875 81.949219 182.671875 182.667969zm0 0" fill="#ffe532"/><path d="m438.671875 256v15h-30v-15c0-84.179688-68.492187-152.671875-152.671875-152.671875v-30c100.71875 0 182.671875 81.953125 182.671875 182.671875zm0 0" fill="#ffba36"/></svg>