<svg id="Capa_1" enable-background="new 0 0 512 512" height="512" viewBox="0 0 512 512" width="512" xmlns="http://www.w3.org/2000/svg"><g><path d="m422.997 0h-218.858l-2.869 2.796h-35.026l-2.174-2.796h-2.291v449.551l-13.796 9.787h279.197l7.168-6.807v-441.18c.001-6.269-5.082-11.351-11.351-11.351z" fill="#6e60b8"/><g><path d="m165.726 2.129-1.656-2.129h-47.571l-2.623 2.796v456.542h51.224v-456.542z" fill="#6353b2"/></g><g><path d="m343.532 134.459-49.288-23.053-7.257-1.699-23.698 9.125-31.406 28.701-19.929 30.874-3.062 42.927 8.415 41.906 25.997 38.168 35.313 21.488 20.967 3.186c22.069-4.883 41.678-16.307 56.683-32.143l1.091-12.817 13.524-37.567z" fill="#60b9fe"/><path d="m212.39 217.365c0-50.283 33.331-92.775 79.102-106.604l-19.963-4.674c-10.579.364-20.783 2.203-30.413 5.319l-4.693 6.524-58.188 75.435v33.66l47.785 76.336 1.27 14.444c14.568 6.994 30.892 10.913 48.132 10.913 8.297 0 16.379-.915 24.158-2.637-49.879-11.036-87.19-55.515-87.19-108.716z" fill="#1ca8ff"/><g><path d="m222.272 223.302c-2.676-5.672-7.716-8.151-12.794-10.21l-.588 8.241 8.415 41.906 11.971 17.576c-.522-6.827 3.394-13.527 10.805-28.71 10.738-21.999-11.261-14.928-17.809-28.803z" fill="#bced6b"/></g><path d="m229.49 276.675c-10.829-17.173-17.1-37.508-17.1-59.31 0-1.001.015-1.999.041-2.993-8.166-3.824-17.655-5.059-18.182-15.956-.786-16.238 18.333-8.905 19.119-26.19s13.095-16.5 24.095-25.666c7.724-6.436 7.183-17.185 6.176-23.017l-2.522-12.137c-44.71 14.466-77.047 56.432-77.047 105.96 0 44.258 25.822 82.485 63.221 100.44 3.363-6.137 5.992-10.879 5.992-10.879 2.617-4.333 2.72-10.051-.535-16.06-3.047-5.626-4.043-9.576-3.258-14.192z" fill="#a2e82d"/><path d="m299.583 108.648h-9.848l-10.011 3.855c13.811 7.195 15.209 11.568 9.76 20.335-5.59 8.992.486 14.582 8.749 13.609 8.263-.972 31.726-16.382 40.232-8.848s9.681 22.465 2.876 25.138-36.886-4.8-44.906 15.371-8.074 34.676 13.555 41.125c21.629 6.448 29.892-1.086 31.837 14.225 1.944 15.311-9.235 20.414-7.777 34.267 1.057 10.044 11.831 23.234 22.214 26.215 18.91-19.957 30.512-46.91 30.512-76.573.001-53.203-37.311-97.683-87.193-108.719z" fill="#bced6b"/><path d="m278.641 111.943c1.363.693 2.612 1.358 3.756 2.003 5.524-2.211 11.268-3.989 17.187-5.299-7.78-1.721-15.863-2.636-24.16-2.636-1.304 0-2.601.031-3.894.075 1.425 2.08 3.666 4.106 7.111 5.857z" fill="#a2e82d"/></g><path d="m100.362 0c-12.543 0-22.71 10.168-22.71 22.71v452.531l19.424-19.853h17.426l1.998-2.857v-452.531z" fill="#8479c2"/><path d="m186.219 0-4.351 6.144v74.946l7.702 5.961h5.26c5.141 0 9.309-4.168 9.309-9.309v-77.742z" fill="#ffd500"/><path d="m186.219 77.741v-77.741h-22.149v77.741c0 5.141 4.168 9.309 9.309 9.309h21.451c.118 0 .232-.013.349-.018-4.978-.184-8.96-4.268-8.96-9.291z" fill="#fbc700"/><g><path d="m331.781 376.875h-112.714c-4.267 0-7.726-3.459-7.726-7.726s3.459-7.726 7.726-7.726h112.714c4.267 0 7.726 3.459 7.726 7.726 0 4.266-3.459 7.726-7.726 7.726z" fill="#8479c2"/></g><g><path d="m331.781 407.78h-112.714c-4.267 0-7.726-3.459-7.726-7.726s3.459-7.726 7.726-7.726h112.714c4.267 0 7.726 3.459 7.726 7.726s-3.459 7.726-7.726 7.726z" fill="#8479c2"/></g><path d="m157.578 452.531-15.888 11.271v39.662l14.475 8.536h266.832c6.269 0 11.351-5.082 11.351-11.351v-48.118z" fill="#dbedff"/><path d="m143.926 489.29v-14.048c0-12.542 10.168-22.71 22.71-22.71h-66.275c-12.543 0-22.71 10.168-22.71 22.71v14.048c0 12.542 10.168 22.71 22.71 22.71h66.275c-12.542 0-22.71-10.168-22.71-22.71z" fill="#b5dcff"/></g></svg>