<?xml version="1.0" encoding="iso-8859-1"?>
<!-- Generator: Adobe Illustrator 19.0.0, SVG Export Plug-In . SVG Version: 6.00 Build 0)  -->
<svg version="1.1" id="Capa_1" xmlns="http://www.w3.org/2000/svg" xmlns:xlink="http://www.w3.org/1999/xlink" x="0px" y="0px"
	 viewBox="0 0 512 512" style="enable-background:new 0 0 512 512;" xml:space="preserve">
<polygon style="fill:#ED434B;" points="327.619,53.072 256,53.072 256,7.719 327.619,7.719 312.181,30.396 "/>
<path style="fill:#B8C1C8;" d="M256,115.541c-4.263,0-7.719-3.456-7.719-7.719V7.719C248.282,3.456,251.738,0,256,0
	c4.263,0,7.719,3.456,7.719,7.719v100.104C263.718,112.085,260.263,115.541,256,115.541z"/>
<polyline style="fill:#E7ECEF;" points="181.804,383.411 181.804,179.653 330.197,179.653 330.197,383.411 "/>
<polygon style="fill:#D2D6D8;" points="330.197,179.653 218.02,179.653 181.804,179.653 181.804,207.951 181.804,383.411 
	218.02,383.411 218.02,207.951 330.197,207.951 "/>
<polygon style="fill:#B8C1C8;" points="390.904,312.406 390.904,511.999 113.055,511.999 113.055,312.406 181.802,312.406 
	181.802,343.981 209.795,343.981 209.795,312.406 242.007,312.406 242.007,343.981 269.99,343.981 269.99,312.406 302.212,312.406 
	302.212,343.981 330.195,343.981 330.195,312.406 "/>
<rect x="29.697" y="279.989" style="fill:#E7ECEF;" width="115.769" height="232.011"/>
<polygon style="fill:#D2D6D8;" points="145.469,279.987 63.656,279.987 29.695,279.987 29.695,306.23 29.695,512 63.656,512 
	63.656,306.23 145.469,306.23 "/>
<rect x="366.531" y="279.989" style="fill:#E7ECEF;" width="115.769" height="232.011"/>
<polygon style="fill:#D2D6D8;" points="482.306,279.987 400.493,279.987 366.532,279.987 366.532,306.23 366.532,512 400.493,512 
	400.493,306.23 482.306,306.23 "/>
<g>
	<path style="fill:#B8C1C8;" d="M117.886,221.51v29.239H89.898V221.51H59.431v29.239H31.443V221.51H3.86v41.91
		c0,9.15,7.417,16.567,16.567,16.567h125.042V221.51L117.886,221.51L117.886,221.51z"/>
	<path style="fill:#B8C1C8;" d="M480.558,221.51v29.239h-27.989V221.51h-30.467v29.239h-27.989V221.51h-27.583v58.477h125.042
		c9.15,0,16.567-7.417,16.567-16.567v-41.91H480.558z"/>
</g>
<g>
	<path style="fill:#273340;" d="M421.781,318.578L421.781,318.578c-11.935,0-21.611,9.676-21.611,21.611v46.309h43.222v-46.309
		C443.391,328.254,433.716,318.578,421.781,318.578z"/>
	<path style="fill:#273340;" d="M85.267,318.578L85.267,318.578c-11.935,0-21.611,9.676-21.611,21.611v46.309h43.222v-46.309
		C106.878,328.254,97.202,318.578,85.267,318.578z"/>
</g>
<polygon style="fill:#0083B8;" points="256,79.831 154.991,179.653 357.01,179.653 "/>
<polygon style="fill:#037193;" points="221.107,179.653 256,79.831 154.991,179.653 "/>
<g>
	<path style="fill:#273340;" d="M256,207.951L256,207.951c-11.935,0-21.611,9.676-21.611,21.611v46.31h43.222v-46.31
		C277.612,217.627,267.935,207.951,256,207.951z"/>
	<path style="fill:#273340;" d="M256,383.411L256,383.411c-28.986,0-52.483,23.497-52.483,52.483v75.638h104.968v-75.638
		C308.484,406.909,284.986,383.411,256,383.411z"/>
</g>
<g>
	<path style="fill:#D2D6D8;" d="M77.549,437.439H55.938c-4.263,0-7.719-3.456-7.719-7.719s3.456-7.719,7.719-7.719h21.611
		c4.263,0,7.719,3.456,7.719,7.719S81.811,437.439,77.549,437.439z"/>
	<path style="fill:#D2D6D8;" d="M102.247,462.138H80.636c-4.263,0-7.719-3.456-7.719-7.719s3.456-7.719,7.719-7.719h21.611
		c4.263,0,7.719,3.456,7.719,7.719S106.51,462.138,102.247,462.138z"/>
	<path style="fill:#D2D6D8;" d="M417.15,437.439h-21.611c-4.264,0-7.719-3.456-7.719-7.719s3.455-7.719,7.719-7.719h21.611
		c4.264,0,7.719,3.456,7.719,7.719S421.414,437.439,417.15,437.439z"/>
	<path style="fill:#D2D6D8;" d="M441.848,462.138h-21.611c-4.264,0-7.719-3.456-7.719-7.719s3.455-7.719,7.719-7.719h21.611
		c4.264,0,7.719,3.456,7.719,7.719S446.111,462.138,441.848,462.138z"/>
	<path style="fill:#D2D6D8;" d="M341.511,391.13H319.9c-4.264,0-7.719-3.456-7.719-7.719c0-4.263,3.455-7.719,7.719-7.719h21.611
		c4.264,0,7.719,3.456,7.719,7.719C349.23,387.674,345.775,391.13,341.511,391.13z"/>
	<path style="fill:#D2D6D8;" d="M223.7,208.98h-21.611c-4.263,0-7.719-3.456-7.719-7.719c0-4.263,3.456-7.719,7.719-7.719H223.7
		c4.263,0,7.719,3.456,7.719,7.719C231.418,205.525,227.962,208.98,223.7,208.98z"/>
	<path style="fill:#D2D6D8;" d="M190.235,409.654h-21.611c-4.263,0-7.719-3.456-7.719-7.719c0-4.263,3.456-7.719,7.719-7.719h21.611
		c4.263,0,7.719,3.456,7.719,7.719C197.954,406.198,194.498,409.654,190.235,409.654z"/>
</g>
<g>
</g>
<g>
</g>
<g>
</g>
<g>
</g>
<g>
</g>
<g>
</g>
<g>
</g>
<g>
</g>
<g>
</g>
<g>
</g>
<g>
</g>
<g>
</g>
<g>
</g>
<g>
</g>
<g>
</g>
</svg>
