<?xml version="1.0" encoding="iso-8859-1"?>
<!-- Generator: Adobe Illustrator 19.0.0, SVG Export Plug-In . SVG Version: 6.00 Build 0)  -->
<svg version="1.1" id="Capa_1" xmlns="http://www.w3.org/2000/svg" xmlns:xlink="http://www.w3.org/1999/xlink" x="0px" y="0px"
	 viewBox="0 0 512 512" style="enable-background:new 0 0 512 512;" xml:space="preserve">
<path style="fill:#BF6015;" d="M396.999,116.999L286,33.6l-110.999,83.399C159.1,129,141.097,105,156.998,92.999l120-90
	C279.701,1.199,283.001,0,286,0s6.299,1.199,9.001,2.999l120,90C430.902,105,412.899,129,396.999,116.999z"/>
<path style="fill:#994C0F;" d="M396.999,116.999L286,33.6V0c2.999,0,6.299,1.199,9.001,2.999l120,90
	C430.902,105,412.899,129,396.999,116.999z"/>
<path style="fill:#E50027;" d="M436,90H136c-8.401,0-15,6.599-15,15v348.8c0,8.399,6.599,15,15,15h300c8.401,0,15-6.601,15-15V105
	C451,96.599,444.401,90,436,90z"/>
<path style="fill:#C1001F;" d="M451,105v348.8c0,8.399-6.599,15-15,15H286V90h150C444.401,90,451,96.599,451,105z"/>
<path style="fill:#FEDB41;" d="M376,150H196c-8.401,0-15,6.599-15,15v242c0,8.399,6.599,15,15,15h180c8.401,0,15-6.601,15-15V165
	C391,156.599,384.401,150,376,150z"/>
<path style="fill:#FCBF29;" d="M391,165v242c0,8.399-6.599,15-15,15h-90V150h90C384.401,150,391,156.599,391,165z"/>
<path style="fill:#FD003A;" d="M421,407v90c0,8.399-6.599,15-15,15H106c-25.203,0-45-26.4-45-60s19.797-60,45-60h300
	C414.401,392,421,398.599,421,407z"/>
<path style="fill:#E50027;" d="M421,407v90c0,8.399-6.599,15-15,15H286V392h120C414.401,392,421,398.599,421,407z"/>
<path style="fill:#FE9923;" d="M406,512c-25.225,0-45-26.353-45-60s19.775-60,45-60s45,26.353,45,60S431.225,512,406,512z"/>
<g>
</g>
<g>
</g>
<g>
</g>
<g>
</g>
<g>
</g>
<g>
</g>
<g>
</g>
<g>
</g>
<g>
</g>
<g>
</g>
<g>
</g>
<g>
</g>
<g>
</g>
<g>
</g>
<g>
</g>
</svg>
