<svg height="512pt" viewBox="0 -83 512.14063 512" width="512pt" xmlns="http://www.w3.org/2000/svg"><path d="m317.933594 91.109375s44.136718 26.484375 194.207031 8.828125c0 0-17.65625 203.035156-114.757813 229.515625-62.851562 17.128906-88.71875-28.511719-99.046874-62.9375 26.128906-64.796875 19.597656-175.40625 19.597656-175.40625zm0 0" fill="#2c3e50"/><path d="m359.777344 332.191406c-6.300782-.988281-12.40625-2.957031-18.097656-5.824218-24.1875-12.097657-36.898438-38.136719-43.34375-59.851563 26.128906-64.796875 19.597656-175.40625 19.597656-175.40625s17.832031 10.683594 69.296875 13.949219c9.09375.617187 19.242187.96875 30.542969.96875 14.832031 53.144531 20.480468 141.066406-57.996094 226.164062zm0 0" fill="#35495e"/><path d="m282.625 20.488281c-37.875 12.71875-77.640625 18.875-117.585938 18.203125-59.03125-2.757812-158.332031-38.613281-158.347656-38.6210935s-3.503906 19.1953125-3.644531 20.2460935c-6.511719 50.6875-2.558594 102.171875 11.613281 151.269532 9.554688 35.261718 24.183594 68.949218 43.425782 100.007812 19.117187 30.070312 43.714843 60.902344 79.359374 71.289062 67.027344 19.539063 111.144532-42.371093 128.542969-98.269531 12.347657-40.984375 19.347657-83.394531 20.828125-126.175781.863282-20.027344-3.316406-77.921875-4.191406-97.949219zm0 0" fill="#547580"/><path d="m286.773438 118.476562c-1.503907 42.761719-8.476563 85.15625-20.746094 126.144532-15.007813 48.023437-49.523438 100.457031-101.605469 101.871094 67.355469-121.378907 34.957031-241.167969 5.648437-307.730469 38.261719.042969 76.273438-6.128907 112.554688-18.273438.882812 20.039063 5.03125 77.949219 4.148438 97.988281zm0 0" fill="#3f5c6c"/><path d="m149.503906 115.800781c.382813-2.945312-.742187-5.886719-2.996094-7.828125-2.25-1.9375-5.328124-2.617187-8.1875-1.800781-9.894531 2.972656-20.148437 4.585937-30.480468 4.796875-14.078125-1.800781-27.664063-6.34375-39.988282-13.378906-3.46875-1.785156-7.699218-1.085938-10.40625 1.726562-2.707031 2.8125-3.25 7.066406-1.332031 10.464844 10.394531 18.167969 27.636719 40.304688 51.722657 45.324219 31.535156 6.570312 39.601562-21.085938 41.667968-39.304688zm0 0" fill="#2c3e50"/><g fill="#2c2f38"><path d="m407.445312 171.160156c-.585937 2.980469.390626 6.058594 2.59375 8.148438 2.207032 2.09375 5.328126 2.914062 8.273438 2.171875 5.285156-1.316407 10.699219-2.019531 16.144531-2.09375 6.246094.523437 12.34375 2.175781 17.992188 4.882812 3.675781 1.503907 7.898437.375 10.332031-2.761719 2.433594-3.136718 2.472656-7.511718.101562-10.695312-6.613281-10.1875-16.722656-17.601562-28.425781-20.851562-18.285156-3.808594-24.734375 9.640624-27.011719 21.199218zm0 0"/><path d="m378.175781 166.324219c.757813 2.960937-.066406 6.105469-2.1875 8.308593-2.117187 2.203126-5.222656 3.152344-8.214843 2.511719-4.1875-.960937-8.464844-1.46875-12.765626-1.519531-4.226562.265625-8.382812 1.238281-12.285156 2.886719-3.761718 1.351562-7.960937.007812-10.242187-3.269531-2.285157-3.28125-2.078125-7.683594.496093-10.742188 5.5-7.203125 13.257813-12.351562 22.03125-14.621094 14.902344-3.105468 20.820313 6.890625 23.167969 16.445313zm0 0"/><path d="m428.472656 269.09375c-.59375 2.910156-2.609375 5.328125-5.363281 6.4375s-5.882813.761719-8.328125-.925781c-7.46875-5.179688-15.585938-9.34375-24.148438-12.394531-12-2.476563-24.367187-2.585938-36.410156-.328126-3.886718.507813-7.644531-1.609374-9.226562-5.199218-1.578125-3.585938-.601563-7.789063 2.402344-10.3125 14.273437-12.257813 34.742187-25.050782 56.085937-22.523438 28.710937 3.394532 28.3125 28.761719 24.988281 45.246094zm0 0"/></g><path d="m264.9375 118.605469c.070312-2.980469-1.371094-5.792969-3.832031-7.480469-2.460938-1.6875-5.605469-2.015625-8.359375-.875-5.496094 2.273438-11.273438 3.804688-17.171875 4.554688-7.457031.003906-14.832031-1.53125-21.664063-4.519532-3.671875-1.40625-7.832031-.214844-10.207031 2.917969-2.375 3.136719-2.390625 7.460937-.042969 10.617187 8.75 11.863282 21.03125 23.863282 35.714844 25.660157 20.902344 2.5625 25.171875-16.546875 25.5625-30.875zm0 0" fill="#2c3e50"/><path d="m242.148438 225.476562c1.328124-3.472656.339843-7.402343-2.46875-9.835937-2.8125-2.433594-6.847657-2.84375-10.089844-1.03125-16.921875 8.328125-35.550782 12.601563-54.410156 12.476563-17.410157-1.453126-34.492188-5.613282-50.625-12.320313-3.589844-1.316406-7.621094-.164063-9.980469 2.847656-2.355469 3.011719-2.503907 7.203125-.363281 10.371094 13.585937 19.761719 36.78125 45.660156 66.382812 48.515625 32.003906 3.078125 51.976562-27.203125 61.554688-51.023438zm0 0" fill="#2c3e50"/></svg>