<svg height="512pt" viewBox="-16 0 512 512" width="512pt" xmlns="http://www.w3.org/2000/svg"><path d="m405 346.097656v-14.097656c0-49.5-40.5-90-90-90s-90 40.5-90 90v155.699219h180zm0 0" fill="#e63950"/><path d="m405 346.097656v-14.097656c0-49.5-40.5-90-90-90v245.699219h90zm0 0" fill="#cc2e43"/><path d="m165 122c-33 0-60 27-60 60s27 60 60 60 60-27 60-60-27-60-60-60zm0 0" fill="#e63950"/><path d="m315 122c-33 0-60 27-60 60s27 60 60 60 60-27 60-60-27-60-60-60zm0 0" fill="#e63950"/><path d="m255 332v133.199219h-180v-133.199219c0-49.5 40.5-90 90-90s90 40.5 90 90zm0 0" fill="#e63950"/><path d="m225 182c0 33-27 60-60 60v-120c33 0 60 27 60 60zm0 0" fill="#cc2e43"/><path d="m255 332v133.199219h-90v-223.199219c49.5 0 90 40.5 90 90zm0 0" fill="#cc2e43"/><path d="m375 182c0 33-27 60-60 60v-120c33 0 60 27 60 60zm0 0" fill="#cc2e43"/><g fill="#ff9f00"><path d="m90 392c-49.5 0-90 40.5-90 90v15c0 8.398438 6.597656 15 15 15h150c8.402344 0 15-6.601562 15-15v-15c0-49.5-40.5-90-90-90zm0 0"/><path d="m390 392c-49.5 0-90 40.5-90 90v15c0 8.398438 6.597656 15 15 15h150c8.402344 0 15-6.601562 15-15v-15c0-49.5-40.5-90-90-90zm0 0"/><path d="m90 272c-33 0-60 27-60 60s27 60 60 60 60-27 60-60-27-60-60-60zm0 0"/><path d="m390 272c-33 0-60 27-60 60s27 60 60 60 60-27 60-60-27-60-60-60zm0 0"/></g><path d="m280.5 55.5c-2.699219 3-6.601562 4.5-10.5 4.5s-7.800781-1.5-10.5-4.5l-4.5-4.199219v54.699219c0 8.398438-6.597656 15-15 15s-15-6.601562-15-15v-54.699219l-4.5 4.199219c-5.699219 6-15.300781 6-21 0-6-5.699219-6-15.300781 0-21l30-30c2.699219-3 6.601562-4.5 10.5-4.5s7.800781 1.5 10.5 4.5l30 30c6 5.699219 6 15.300781 0 21zm0 0" fill="#e63950"/><path d="m430.5 55.5c-2.699219 3-6.601562 4.5-10.5 4.5s-7.800781-1.5-10.5-4.5l-4.5-4.199219v54.699219c0 8.398438-6.597656 15-15 15s-15-6.601562-15-15v-54.699219l-4.5 4.199219c-5.699219 6-15.300781 6-21 0-6-5.699219-6-15.300781 0-21l30-30c2.699219-3 6.601562-4.5 10.5-4.5s7.800781 1.5 10.5 4.5l30 30c6 5.699219 6 15.300781 0 21zm0 0" fill="#e63950"/><path d="m130.5 55.5c-2.699219 3-6.601562 4.5-10.5 4.5s-7.800781-1.5-10.5-4.5l-4.5-4.199219v54.699219c0 8.398438-6.597656 15-15 15s-15-6.601562-15-15v-54.699219l-4.5 4.199219c-5.699219 6-15.300781 6-21 0-6-5.699219-6-15.300781 0-21l30-30c2.699219-3 6.601562-4.5 10.5-4.5s7.800781 1.5 10.5 4.5l30 30c6 5.699219 6 15.300781 0 21zm0 0" fill="#e63950"/><path d="m280.5 55.5c-2.699219 3-6.601562 4.5-10.5 4.5s-7.800781-1.5-10.5-4.5l-4.5-4.199219v54.699219c0 8.398438-6.597656 15-15 15v-121c3.898438 0 7.800781 1.5 10.5 4.5l30 30c6 5.699219 6 15.300781 0 21zm0 0" fill="#cc2e43"/><path d="m450 332c0 33-27 60-60 60v-120c33 0 60 27 60 60zm0 0" fill="#ff7816"/><path d="m480 482v15c0 8.398438-6.597656 15-15 15h-75v-120c49.5 0 90 40.5 90 90zm0 0" fill="#ff7816"/><path d="m430.5 55.5c-2.699219 3-6.601562 4.5-10.5 4.5s-7.800781-1.5-10.5-4.5l-4.5-4.199219v54.699219c0 8.398438-6.597656 15-15 15v-121c3.898438 0 7.800781 1.5 10.5 4.5l30 30c6 5.699219 6 15.300781 0 21zm0 0" fill="#cc2e43"/><path d="m180 482v15c0 8.398438-6.597656 15-15 15h-75v-120c49.5 0 90 40.5 90 90zm0 0" fill="#ff7816"/><path d="m150 332c0 33-27 60-60 60v-120c33 0 60 27 60 60zm0 0" fill="#ff7816"/><path d="m130.5 55.5c-2.699219 3-6.601562 4.5-10.5 4.5s-7.800781-1.5-10.5-4.5l-4.5-4.199219v54.699219c0 8.398438-6.597656 15-15 15v-121c3.898438 0 7.800781 1.5 10.5 4.5l30 30c6 5.699219 6 15.300781 0 21zm0 0" fill="#cc2e43"/><path d="m240 392c-49.5 0-90 40.5-90 90v15c0 8.398438 6.597656 15 15 15h150c8.402344 0 15-6.601562 15-15v-15c0-49.5-40.5-90-90-90zm0 0" fill="#ffd400"/><path d="m240 272c-33 0-60 27-60 60s27 60 60 60 60-27 60-60-27-60-60-60zm0 0" fill="#ffd400"/><path d="m300 332c0 33-27 60-60 60v-120c33 0 60 27 60 60zm0 0" fill="#fdbf00"/><path d="m330 482v15c0 8.398438-6.597656 15-15 15h-75v-120c49.5 0 90 40.5 90 90zm0 0" fill="#fdbf00"/></svg>