<svg viewBox="0 0 511.99885 511" xmlns="http://www.w3.org/2000/svg"><path d="m442.570312 361.246094-27.882812-18.285156 32.078125 61.457031c4.496094 14.390625 11.992187 33.578125 23.082031 56.660156l23.6875 51.066406-45.871094-31.179687c-49.761718-33.578125-101.628906-71.152344-110.019531-138.605469-4.5-36.574219-9.894531-98.03125-31.179687-109.421875-14.691406-8.09375-39.972656 5.394531-50.464844 10.191406-3.597656-1.199218-34.277344-19.183594-50.464844-10.191406-5.699218 2.996094-17.988281 1.496094-31.179687 109.421875-8.390625 67.453125-60.257813 105.027344-110.019531 138.605469l-45.871094 31.179687 23.683594-51.066406c11.09375-23.082031 18.589843-42.269531 23.085937-56.660156l32.074219-61.457031-27.878906 18.285156c-2.699219-9.292969-8.394532-16.488282-15.289063-24.582032l-3.898437-47.367187-22.183594 14.089844c-6.894532-11.089844-14.089844-24.582031-19.785156-42.269531-16.488282-49.464844-8.09375-97.730469 23.082031-132.507813 29.683593-32.675781 74.652343-47.367187 117.519531-38.074219 27.28125 5.996094 75.046875 26.382813 107.125 94.136719 32.078125-67.753906 79.84375-88.140625 107.125-94.136719 42.867188-9.292968 87.835938 5.398438 117.519531 38.074219 31.175781 34.777344 39.570313 83.042969 23.082031 132.507813-5.695312 17.6875-12.890624 31.179687-19.785156 42.269531l-24.882812-27.28125-1.199219 60.558593c-6.898437 8.09375-12.59375 15.289063-15.289063 24.582032zm0 0" fill="#ede9e8"/><path d="m442.570312 361.246094-27.882812-18.285156 32.078125 61.457031c4.496094 14.390625 11.992187 33.578125 23.082031 56.660156l23.6875 51.066406-45.871094-31.179687c-49.761718-33.578125-101.628906-71.152344-110.019531-138.605469-4.5-36.574219-9.894531-98.03125-31.179687-109.421875-14.691406-8.09375-39.972656 5.394531-50.464844 10.191406v-58.457031c32.078125-67.753906 79.84375-88.140625 107.125-94.136719 42.867188-9.292968 87.835938 5.398438 117.519531 38.074219 31.175781 34.777344 39.570313 83.042969 23.082031 132.507813-5.695312 17.6875-12.890624 31.179687-19.785156 42.273437l-24.882812-27.285156-1.199219 60.5625c-6.898437 8.089843-12.59375 15.285156-15.289063 24.578125zm0 0" fill="#dfd7d5"/><path d="m256 .5c-52.164062 0-105.925781 14.789062-105.925781 45.96875 0 31.175781 53.761719 44.96875 105.925781 44.96875s105.925781-13.792969 105.925781-44.96875c0-31.179688-53.761719-45.96875-105.925781-45.96875zm0 60.957031c-41.371094 0-67.550781-9.292969-74.449219-14.988281 6.898438-5.699219 33.078125-15.988281 74.449219-15.988281s67.550781 10.289062 74.449219 15.988281c-6.898438 5.695312-33.078125 14.988281-74.449219 14.988281zm0 0" fill="#ffd400"/><path d="m114.796875 334.972656.496094-4.039062c3.117187-25.339844 6.046875-49.289063 11.140625-71.21875l-29.191406-6.789063c-5.472657 23.492188-8.636719 49.34375-11.695313 74.332031l-.496094 4.039063c-1.324219 10.710937-6.101562 19.863281-15.648437 29.941406 2.875 10.238281 2.121094 23.28125-4.183594 43.230469 30.492188-23.050781 46.140625-41.648438 49.578125-69.496094zm0 0" fill="#dfd7d5"/><path d="m442.601562 361.226562c-9.441406-9.957031-14.316406-19.097656-15.652343-29.914062l-.5-4.039062c-3.058594-25.003907-6.21875-50.855469-11.695313-74.347657l-29.1875 6.792969c5.09375 21.941406 8.019532 45.875 11.140625 71.214844l.496094 4.039062c3.417969 27.753906 19.671875 46.726563 49.542969 69.390625-6.273438-19.898437-7.019532-32.921875-4.144532-43.136719zm0 0" fill="#d2c5c2"/><path d="m65.246094 259.203125-29.425782-5.765625c-3.257812 16.632812-5.535156 33.378906-7.648437 49.945312 7.957031 12.484376 16.132813 22.066407 23.402344 30.359376.84375.964843 1.636719 1.882812 2.445312 2.8125.574219-4.53125 1.261719-8.761719 1.828125-13.367188 2.589844-21.136719 5.269532-42.992188 9.398438-63.984375zm0 0" fill="#dfd7d5"/><path d="m443.972656 246.132812c5.78125 24.882813 9.03125 51.351563 12.179688 76.964844.566406 4.613282 1.226562 8.941406 1.800781 13.488282.820313-.941407 1.621094-1.871094 2.472656-2.84375 7.257813-8.28125 15.425781-17.847657 23.371094-30.308594-2.71875-21.34375-5.714844-42.941406-10.632813-64.09375zm0 0" fill="#d2c5c2"/><path d="m361.925781 46.46875c0 31.175781-53.761719 44.96875-105.925781 44.96875v-29.980469c41.371094 0 67.550781-9.292969 74.449219-14.988281-6.898438-5.699219-33.078125-15.988281-74.449219-15.988281v-29.980469c52.164062 0 105.925781 14.789062 105.925781 45.96875zm0 0" fill="#fdbf00"/></svg>