<?xml version="1.0" encoding="iso-8859-1"?>
<!-- Generator: Adobe Illustrator 19.0.0, SVG Export Plug-In . SVG Version: 6.00 Build 0)  -->
<svg version="1.1" id="Capa_1" xmlns="http://www.w3.org/2000/svg" xmlns:xlink="http://www.w3.org/1999/xlink" x="0px" y="0px"
	 viewBox="0 0 512 512" style="enable-background:new 0 0 512 512;" xml:space="preserve">
<polygon style="fill:#293939;" points="373.202,459.983 296.093,398.284 314.843,374.847 391.952,436.546 "/>
<g>
	<path style="fill:#ED9C4C;" d="M374.184,498.816c-17.549-17.549-17.549-46.084,0-63.633s46.084-17.549,63.633,0l-21.211,21.211
		c-5.859-5.859-15.352-5.859-21.211,0c-5.845,5.845-5.845,15.366,0,21.211L374.184,498.816z"/>
	<path style="fill:#ED9C4C;" d="M166,30c-41.353,0-75,33.647-75,75v15h105V30H166z"/>
</g>
<path style="fill:#384949;" d="M0,151v15c0,24.404,11.896,45.912,30,59.617V226c0,24.404,12.896,45.912,31,59.617V286
	c0,41.353,33.647,76,75,76h60V151H0z"/>
<path style="fill:#293939;" d="M316,151v211h61c41.353,0,75-34.647,75-76v-0.383c18.104-13.705,30-35.213,30-59.617v-0.383
	c18.104-13.705,30-35.213,30-59.617v-15H316z"/>
<path style="fill:#DFD7D5;" d="M256,415.699L159.699,512H352.3L256,415.699z"/>
<polygon style="fill:#C4B3AF;" points="352.301,512 256,512 256,415.699 "/>
<polygon style="fill:#384949;" points="138.798,459.983 120.048,436.546 197.157,374.847 215.907,398.284 "/>
<path style="fill:#F8BB5E;" d="M137.816,498.816l-21.211-21.211c5.845-5.845,5.845-15.366,0-21.211
	c-5.859-5.859-15.352-5.859-21.211,0l-21.211-21.211c17.549-17.549,46.084-17.549,63.633,0S155.365,481.268,137.816,498.816z"/>
<path style="fill:#3E5959;" d="M256.003,453.757l-6.713-3.357c-20.534-10.27-37.768-26.021-49.838-45.549
	C187.381,385.32,181,362.862,181,339.904V258.05c0-23.869,9.482-46.761,26.36-63.64L226,175.77l30,30l30-30l18.64,18.64
	c16.878,16.878,26.36,39.77,26.36,63.64v81.854c0,22.954-6.38,45.412-18.449,64.945c-12.078,19.526-29.31,35.274-49.837,45.549
	L256.003,453.757z"/>
<path style="fill:#384949;" d="M312.551,404.849C324.62,385.315,331,362.858,331,339.904V258.05c0-23.869-9.482-46.761-26.36-63.64
	L286,175.771l-29.997,29.997v247.989l6.711-3.359C283.241,440.123,300.473,424.374,312.551,404.849z"/>
<path style="fill:#DFD7D5;" d="M331,263.197l-45-45l-30,30l-30-30l-45,45V74.984c0-22.031,9.633-42.86,26.429-57.146
	c16.79-14.281,39.046-20.418,61.058-16.84C304.126,6.797,331,39.984,331,78.194V263.197z"/>
<path style="fill:#C4B3AF;" d="M256.003,248.194L286,218.197l45,45V78.194c0-38.21-26.874-71.396-62.514-77.196
	c-4.165-0.677-8.339-1.005-12.483-0.997V248.194z"/>
<rect x="241" y="60" style="fill:#384949;" width="30" height="30"/>
<rect x="256" y="60" style="fill:#293939;" width="15" height="30"/>
<g>
</g>
<g>
</g>
<g>
</g>
<g>
</g>
<g>
</g>
<g>
</g>
<g>
</g>
<g>
</g>
<g>
</g>
<g>
</g>
<g>
</g>
<g>
</g>
<g>
</g>
<g>
</g>
<g>
</g>
</svg>
