<svg height="472pt" viewBox="0 0 472 472" width="472pt" xmlns="http://www.w3.org/2000/svg"><path d="m16 88h152c8.835938 0 16 7.164062 16 16v16c0 8.835938-7.164062 16-16 16h-152c-8.835938 0-16-7.164062-16-16v-16c0-8.835938 7.164062-16 16-16zm0 0" fill="#73c97c"/><path d="m152 0h112c8.835938 0 16 7.164062 16 16v16c0 8.835938-7.164062 16-16 16h-112c-8.835938 0-16-7.164062-16-16v-16c0-8.835938 7.164062-16 16-16zm0 0" fill="#75c1ff"/><path d="m272 80h152c8.835938 0 16 7.164062 16 16v16c0 8.835938-7.164062 16-16 16h-152c-8.835938 0-16-7.164062-16-16v-16c0-8.835938 7.164062-16 16-16zm0 0" fill="#ff675b"/><path d="m40 200h72c8.835938 0 16 7.164062 16 16v8c0 8.835938-7.164062 16-16 16h-72c-8.835938 0-16-7.164062-16-16v-8c0-8.835938 7.164062-16 16-16zm0 0" fill="#e6ac6a"/><path d="m232 216h144c8.835938 0 16 7.164062 16 16v144c0 8.835938-7.164062 16-16 16h-144c-8.835938 0-16-7.164062-16-16v-144c0-8.835938 7.164062-16 16-16zm0 0" fill="#ffd04a"/><path d="m344 280v-8c-.011719-8.832031-7.167969-15.988281-16-16h-16v-16h-16v16h-16c-8.832031.011719-15.988281 7.167969-16 16v24c.011719 8.832031 7.167969 15.988281 16 16h16v24h-16v-8h-16v8c.011719 8.832031 7.167969 15.988281 16 16h16v16h16v-16h16c8.832031-.011719 15.988281-7.167969 16-16v-24c-.011719-8.832031-7.167969-15.988281-16-16h-16v-24h16v8zm-16 32v24h-16v-24zm-32-16h-16v-24h16zm0 0" fill="#d9b03f"/><path d="m88 88h-16v-48c.015625-13.25 10.75-23.984375 24-24h40v16h-40c-4.417969.003906-7.996094 3.582031-8 8zm0 0" fill="#a3a3a3"/><path d="m360 80h-16v-40c-.003906-4.417969-3.582031-7.996094-8-8h-56v-16h56c13.25.015625 23.984375 10.75 24 24zm0 0" fill="#a3a3a3"/><path d="m72 136h16v64h-16zm0 0" fill="#a3a3a3"/><path d="m296 128h16v88h-16zm0 0" fill="#a3a3a3"/><g fill="#ffd04a"><path d="m296 448h16v24h-16zm0 0"/><path d="m179.546875 417.140625 16.976563-16.976563 11.3125 11.3125-16.976563 16.976563zm0 0"/><path d="m136 296h24v16h-24zm0 0"/><path d="m179.546875 190.859375 11.3125-11.3125 16.976563 16.976563-11.3125 11.3125zm0 0"/><path d="m400.164062 196.523438 16.976563-16.976563 11.3125 11.3125-16.976563 16.976563zm0 0"/><path d="m448 296h24v16h-24zm0 0"/><path d="m402.46875 409.382812 11.0625-11.5625 17.335938 16.59375-11.0625 11.5625zm0 0"/></g></svg>