<svg height="512" viewBox="0 0 56 59" width="512" xmlns="http://www.w3.org/2000/svg"><g id="Page-1" fill="none" fill-rule="evenodd"><g id="046---Starstruck"><path id="Path" d="m47.44 17.25c4.1617799 5.2542665 6.4682908 11.7378124 6.56 18.44 0 14.36-11.64 23.31-26 23.31s-26-8.95-26-23.31 11.64-28.69 26-28.69c2.5881487.00098103 5.1552506.4649559 7.58 1.37z" fill="#f0c419"/><path id="Path" d="m53 18c-.4043959-.0000863-.7689341-.2437275-.923678-.6173454-.1547439-.373618-.0692299-.8036603.216678-1.0896546l2-2c.3923789-.3789722 1.0160848-.3735524 1.4018186.0121814s.3911536 1.0094397.0121814 1.4018186l-2 2c-.1874927.1875494-.4418052.2929434-.707.293z" fill="#7d6599"/><path id="Path" d="m55 18c-.2651948-.0000566-.5195073-.1054506-.707-.293l-2-2c-.3789722-.3923789-.3735524-1.0160848.0121814-1.4018186s1.0094397-.3911536 1.4018186-.0121814l2 2c.2859079.2859943.3714219.7160366.216678 1.0896546-.1547439.3736179-.5192821.6172591-.923678.6173454z" fill="#7d6599"/><path id="Path" d="m1 18c-.4043959-.0000863-.76893405-.2437275-.92367798-.6173454-.15474393-.373618-.06922994-.8036603.21667798-1.0896546l2-2c.39237889-.3789722 1.01608478-.3735524 1.40181858.0121814.38573379.3857338.39115363 1.0094397.01218142 1.4018186l-2 2c-.18749273.1875494-.44180519.2929434-.707.293z" fill="#ff5364"/><path id="Path" d="m3 18c-.26519481-.0000566-.51950727-.1054506-.707-.293l-2-2c-.37897221-.3923789-.37355237-1.0160848.01218143-1.4018186.38573379-.3857338 1.00943968-.3911536 1.40181857-.0121814l2 2c.28590792.2859943.37142191.7160366.21667798 1.0896546-.15474393.3736179-.51928208.6172591-.92367798.6173454z" fill="#ff5364"/><path id="Path" d="m7 12c-.4043959-.0000863-.76893405-.2437275-.92367798-.6173454-.15474393-.373618-.06922994-.8036603.21667798-1.0896546l2-2c.39237889-.37897221 1.01608478-.37355237 1.40181858.01218142.38573382.3857338.39115362 1.00943969.01218142 1.40181858l-2 2c-.18749273.1875494-.44180519.2929434-.707.293z" fill="#7d6599"/><path id="Path" d="m9 12c-.26519481-.0000566-.51950727-.1054506-.707-.293l-2-2c-.37897221-.39237889-.37355237-1.01608478.01218142-1.40181858.3857338-.38573379 1.00943969-.39115363 1.40181858-.01218142l2 2c.28590792.2859943.3714219.7160366.21667798 1.0896546-.15474393.3736179-.51928208.6172591-.92367798.6173454z" fill="#7d6599"/><path id="Path" d="m35 4c-.4043959-.00008635-.7689341-.2437275-.923678-.61734544s-.0692299-.80366031.216678-1.08965456l2-2c.3923789-.37897221 1.0160848-.37355237 1.4018186.01218143.3857338.38573379.3911536 1.00943968.0121814 1.40181857l-2 2c-.1874927.18754937-.4418052.29294336-.707.293z" fill="#ff5364"/><path id="Path" d="m37 4c-.2651948-.00005664-.5195073-.10545063-.707-.293l-2-2c-.3789722-.39237889-.3735524-1.01608478.0121814-1.40181857.3857338-.3857338 1.0094397-.39115364 1.4018186-.01218143l2 2c.2859079.28599425.3714219.71603662.216678 1.08965456s-.5192821.61725909-.923678.61734544z" fill="#ff5364"/><path id="Path" d="m50.556 1.1-2.83 1.37-5.11 2.48-4.916 2.392-4.51 2.19c-.4663719.22322218-.6804377.7693085-.49 1.25.46 1.16 1.76 3.41 5.31 6.45.76.65 1.48 1.2 2.13 1.66v.01c1.51026 1.1763318 3.2359749 2.0459834 5.08 2.56.2927254.0679205.600339-.0062033.83-.2.1568364-.1263728.2718566-.2971605.33-.49l3.07-10.15v-.01l2.51-8.31c.1164536-.38332225-.0049049-.79923146-.3092321-1.05977376-.3043273-.2605423-.73397-.31635912-1.0947679-.14222624z" fill="#fb7b76"/><path id="Path" d="m40.136 18.892c-.65-.46-1.37-1.01-2.13-1.66-3.55-3.04-4.85-5.29-5.31-6.45-.1904377-.4806915.0236281-1.02677782.49-1.25l4.51-2.19z" fill="#e64c3c"/><path id="Path" d="m49.446 10.612v.01l-3.07 10.15c-.0581434.1928395-.1731636.3636272-.33.49l-3.43-16.31 5.11-2.48z" fill="#e64c3c"/><path id="Path" d="m15.951 38.774 3.014 1.326c.91211.3955927 1.9702056.2337108 2.7223147-.4164969.7521092-.6502077 1.0652589-1.6737845.8056853-2.6335031l-.964-3.709c-.2088791-.8004306-.0288346-1.6524932.486-2.3l2.41-3.018c.6084604-.7608939.7440725-1.7967243.3519957-2.6886096-.3920767-.8918853-1.2469807-1.4922805-2.2189957-1.5583904l-3.52-.208c-.863358-.0524557-1.6432691-.5332382-2.078-1.281l-1.756-3c-.5034087-.8709057-1.4681803-1.3685788-2.4696513-1.2739584s-1.8559608.7641799-2.1873487 1.7139584l-1.162 3.281c-.28706697.8155067-.96239601 1.433808-1.8 1.648l-3.419.863c-.94211259.2472541-1.66907357.9970883-1.88703245 1.9464063-.21795887.949318.10912266 1.9411553.84903245 2.5745937l2.932 2.513c.62711436.5394084.96354096 1.3426825.908 2.168l-.252 3.823c-.07477813.9912426.4245879 1.9377711 1.28498467 2.4356376.86039678.4978664 1.92987489.4591456 2.75201533-.0996376l2.712-1.87c.7315746-.5047155 1.6725225-.5940412 2.486-.236z" fill="#f9eab0"/><path id="Path" d="m40.049 38.774-3.014 1.326c-.91211.3955927-1.9702056.2337108-2.7223147-.4164969-.7521092-.6502077-1.0652589-1.6737845-.8056853-2.6335031l.964-3.709c.2088791-.8004306.0288346-1.6524932-.486-2.3l-2.41-3.018c-.6084604-.7608939-.7440725-1.7967243-.3519957-2.6886096.3920767-.8918853 1.2469807-1.4922805 2.2189957-1.5583904l3.52-.208c.863358-.0524557 1.6432691-.5332382 2.078-1.281l1.756-3c.5034087-.8709057 1.4681803-1.3685788 2.4696513-1.2739584s1.8559608.7641799 2.1873487 1.7139584l1.162 3.281c.287067.8155067.962396 1.433808 1.8 1.648l3.419.863c.9421126.2472541 1.6690736.9970883 1.8870324 1.9464063.2179589.949318-.1091226 1.9411553-.8490324 2.5745937l-2.932 2.513c-.6271144.5394084-.963541 1.3426825-.908 2.168l.252 3.823c.0747781.9912426-.4245879 1.9377711-1.2849847 2.4356376-.8603967.4978664-1.9298749.4591456-2.7520153-.0996376l-2.712-1.87c-.7315746-.5047155-1.6725225-.5940412-2.486-.236z" fill="#f9eab0"/><path id="Path" d="m16.92 22.22c-.38 3.25-2.19 9.21-10.07 11.54-.05937773-.1852984-.13990882-.3631379-.24-.53-.1457424-.2546526-.33144078-.4842433-.55-.68l-2.93-2.51c-.74081336-.6317036-1.06953942-1.622543-.85322944-2.5717868.21630999-.9492438.94186699-1.6998373 1.88322944-1.9482132l3.42-.87c.83813886-.2082042 1.51489657-.8248057 1.8-1.64l1.17-3.28c.328614-.9504999 1.1821991-1.6214066 2.1834291-1.7161467 1.00123-.09474 1.965506.4041541 2.4665709 1.2761467l1.01 1.72z" fill="#f5efca"/><path id="Path" d="m39.081 22.22c.38 3.25 2.19 9.21 10.07 11.54.0593777-.1852984.1399088-.3631379.24-.53.1457424-.2546526.3314408-.4842433.55-.68l2.93-2.51c.7408134-.6317036 1.0695394-1.622543.8532294-2.5717868-.2163099-.9492438-.941867-1.6998373-1.8832294-1.9482132l-3.42-.87c-.8381389-.2082042-1.5148966-.8248057-1.8-1.64l-1.17-3.28c-.328614-.9504999-1.1821991-1.6214066-2.1834291-1.7161467-1.00123-.09474-1.965506.4041541-2.4665709 1.2761467l-1.01 1.72z" fill="#f5efca"/><path id="Path" d="m20 44h16c.5522847 0 1 .4477153 1 1v1c0 4.9705627-4.0294373 9-9 9s-9-4.0294373-9-9v-1c0-.5522847.4477153-1 1-1z" fill="#35495e"/><path id="Path" d="m33.65 52.99c-3.2899696 2.6799692-8.0100304 2.6799692-11.3 0 .8532105-2.3873035 3.1148105-3.9807179 5.65-3.9807179s4.7967895 1.5934144 5.65 3.9807179z" fill="#ff5364"/></g></g></svg>