<svg height="512pt" viewBox="-53 0 512 512.00184" width="512pt" xmlns="http://www.w3.org/2000/svg"><path d="m405.378906 310.125c-5.421875-26.5625-22.953125-76.175781-64.246094-80.332031-4.230468-.5625-8.285156-2.050781-11.875-4.351563-20.113281-11.820312-42.542968-19.164062-65.757812-21.523437-9.167969-.804688-16.214844-8.453125-16.277344-17.652344v-19.738281c-11.523437 12.042968-27.46875 18.855468-44.136718 18.855468-16.667969 0-32.613282-6.8125-44.136719-18.855468v19.738281c-.0625 9.199219-7.113281 16.847656-16.28125 17.652344-23.214844 2.378906-45.644531 9.734375-65.753907 21.574219-3.59375 2.304687-7.644531 3.789062-11.875 4.355468-41.3125 4.148438-58.828124 53.757813-64.246093 80.328125-2.765625 12.699219 1.832031 25.875 11.890625 34.101563 13.054687 8.925781 28.082031 14.546875 43.792968 16.375 8.050782 1.269531 14.199219 7.867187 14.902344 15.988281 4.367188 44.691406 28.308594 73.566406 52.257813 73.566406h158.898437c23.949219 0 47.886719-28.875 52.257813-73.566406.699219-8.121094 6.847656-14.71875 14.902343-15.988281 15.707032-1.828125 30.738282-7.449219 43.792969-16.375 10.078125-8.238282 14.675781-21.4375 11.890625-34.152344zm0 0" fill="#faedbd"/><path d="m277.941406 206.109375c.882813.167969 1.644532.386719 2.480469.5625-5.582031-1.246094-11.230469-2.179687-16.921875-2.796875-9.148438-.804688-16.195312-8.425781-16.277344-17.609375v-19.738281c-11.523437 12.042968-27.46875 18.855468-44.136718 18.855468-16.667969 0-32.613282-6.8125-44.136719-18.855468v19.738281c-.0625 9.199219-7.113281 16.847656-16.28125 17.652344-8.589844.902343-17.09375 2.492187-25.429688 4.757812 9.160157 29.9375 44.074219 64.980469 85.847657 64.980469 28.109374-1.160156 54.1875-14.964844 70.957031-37.550781 1.109375-9.683594 2.398437-19.625 3.898437-29.996094zm0 0" fill="#944143"/><path d="m256.050781 119.175781c.007813-3.269531 1.234375-6.417969 3.441407-8.828125-2.207032-2.414062-3.433594-5.558594-3.441407-8.828125.035157-1.53125.300781-3.050781.792969-4.503906-.261719 0-.527344.089844-.792969.089844-9.738281-.027344-17.625-7.917969-17.65625-17.65625.019531-3.515625 1.0625-6.953125 3.003907-9.886719-4.042969-1.441406-7.429688-4.292969-9.535157-8.03125-.757812.136719-1.527343.222656-2.296875.265625-4.304687-.023437-8.449218-1.625-11.652344-4.503906-8.972656 6.003906-20.683593 6.003906-29.660156 0-3.199218 2.878906-7.347656 4.480469-11.652344 4.503906-.769531-.042969-1.535156-.128906-2.292968-.265625-2.105469 3.738281-5.492188 6.589844-9.535156 8.03125 1.9375 2.933594 2.980468 6.371094 3 9.886719-.027344 9.738281-7.914063 17.628906-17.652344 17.65625-.265625 0-.53125-.089844-.796875-.089844.492187 1.453125.761719 2.972656.796875 4.503906-.011719 3.269531-1.238282 6.414063-3.445313 8.828125 2.8125 3.074219 4 7.300782 3.199219 11.390625-.804688 4.089844-3.5 7.554688-7.265625 9.335938 3.378906 30.847656 29.433594 54.203125 60.46875 54.203125 31.03125 0 57.085937-23.355469 60.46875-54.203125-4.574219-2.203125-7.484375-6.824219-7.496094-11.898438zm0 0" fill="#faedbd"/><path d="m114.710938 209.355469c-12.101563 3.410156-23.765626 8.226562-34.742188 14.355469 22.332031 48.039062 82.507812 167.660156 152.246094 226.496093h50.320312c-95.046875-74.679687-148.304687-191.042969-167.824218-240.851562zm0 0" fill="#d8625e"/><path d="m311.761719 216.578125c-10.863281-4.699219-22.203125-8.207031-33.820313-10.46875-12.851562 88.671875-11.351562 148.445313 4.59375 244.097656 13.058594-.910156 24.976563-7.773437 32.324219-18.605469-12.5-71.050781-13.542969-143.644531-3.097656-215.023437zm0 0" fill="#d8625e"/><path d="m265.691406 493.753906c-14.171875-.871094-25.675781-11.785156-27.296875-25.890625-.195312-6.203125 1.402344-12.332031 4.601563-17.65625h-79.820313c3.199219 5.324219 4.796875 11.453125 4.597657 17.65625-1.617188 14.105469-13.121094 25.019531-27.292969 25.890625-4.777344.632813-8.25 4.859375-7.941407 9.667969.308594 4.808594 4.285157 8.558594 9.105469 8.578125h122.878907c4.820312-.019531 8.800781-3.769531 9.109374-8.578125.304688-4.808594-3.164062-9.035156-7.941406-9.667969zm0 0" fill="#f59f57"/><path d="m203.085938 238.347656c24.5625.890625 47.332031-12.816406 58.039062-34.941406-8.074219-1.753906-13.851562-8.878906-13.902344-17.140625v-19.738281c-11.523437 12.042968-27.46875 18.855468-44.136718 18.855468-16.667969 0-32.613282-6.8125-44.136719-18.855468v19.738281c-.058594 8.257813-5.832031 15.378906-13.90625 17.132813 10.707031 22.128906 33.476562 35.839843 58.042969 34.949218zm0 0" fill="#fccc88"/><path d="m203.085938 0c1.128906-.015625 2.253906.101562 3.355468.355469.351563.085937.703125.175781 1.144532.265625.632812.164062 1.25.371094 1.855468.617187.523438.179688 1.027344.417969 1.5.707031.441406.175782.792969.441407 1.148438.617188.617187.351562 1.234375.792969 1.851562 1.234375 0 .089844.089844.089844.179688.175781 3.097656-2.574218 7.003906-3.9804685 11.03125-3.972656 6.386718.0429688 12.253906 3.515625 15.363281 9.09375.75-.179688 1.519531-.269531 2.292969-.265625 7.3125 0 13.242187 5.929687 13.242187 13.242187-.007812 2.027344-.492187 4.023438-1.414062 5.828126 1.804687-.921876 3.800781-1.40625 5.828125-1.414063 7.3125 0 13.242187 5.929687 13.242187 13.242187-.007812 2.027344-.492187 4.019532-1.414062 5.824219 1.804687-.921875 3.800781-1.402343 5.828125-1.410156 5.5-.011719 10.4375 3.378906 12.398437 8.519531 1.960938 5.140625.539063 10.960938-3.570312 14.617188-.9375.859375-1.46875 2.074218-1.46875 3.34375 0 1.273437.53125 2.484375 1.46875 3.347656 2.8125 2.515625 4.417969 6.117188 4.410156 9.894531-.046875 2.097657-.609375 4.148438-1.632813 5.976563 7.574219 3.417968 11.738282 11.648437 10.007813 19.773437-1.734375 8.125-8.894531 13.941407-17.199219 13.976563-.273437 0-.523437-.074219-.789062-.082032-1.683594 5.15625-6.34375 8.765626-11.761719 9.101563-5.414063.335937-10.488281-2.664063-12.800781-7.570313-2.3125-4.910156-1.398438-10.730468 2.308594-14.691406-2.207032-2.414062-3.433594-5.558594-3.441407-8.828125.035157-1.53125.300781-3.050781.792969-4.503906-.261719 0-.527344.089844-.792969.089844-9.738281-.027344-17.625-7.917969-17.65625-17.65625.019531-3.515625 1.0625-6.953125 3.003907-9.886719-4.042969-1.441406-7.429688-4.292969-9.535157-8.03125-.757812.136719-1.527343.222656-2.296875.265625-4.304687-.023437-8.449218-1.625-11.652344-4.503906-8.972656 6.003906-20.683593 6.003906-29.660156 0-3.199218 2.878906-7.347656 4.480469-11.652344 4.503906-.769531-.042969-1.535156-.128906-2.292968-.265625-2.105469 3.738281-5.492188 6.589844-9.535156 8.03125 1.9375 2.933594 2.980468 6.371094 3 9.886719-.027344 9.738281-7.914063 17.628906-17.652344 17.65625-.265625 0-.53125-.089844-.796875-.089844.492187 1.453125.761719 2.972656.796875 4.503906-.011719 3.269531-1.238282 6.414063-3.445313 8.828125 3.707031 3.960938 4.625 9.78125 2.3125 14.691406-2.316406 4.90625-7.386719 7.90625-12.804687 7.570313-5.414063-.335937-10.074219-3.945313-11.761719-9.101563-.265625 0-.511719.082032-.785156.082032-8.308594-.035156-15.46875-5.851563-17.199219-13.976563-1.734375-8.125 2.433594-16.355469 10.003906-19.773437-1.023437-1.828125-1.582031-3.878906-1.632812-5.976563-.003906-3.121093 1.097656-6.144531 3.109375-8.535156 2.234375-2.738281 2.234375-6.671875 0-9.410156-3.324219-3.941407-4.058594-9.449219-1.882813-14.125 2.171875-4.671875 6.863282-7.65625 12.015625-7.652344 2.027344.007813 4.023438.488281 5.828125 1.410156-.921875-1.804687-1.40625-3.796875-1.414062-5.824219 0-7.3125 5.929687-13.242187 13.242187-13.242187 2.023438.007813 4.019531.492187 5.824219 1.414063-.921875-1.804688-1.40625-3.800782-1.410156-5.828126 0-7.3125 5.925781-13.242187 13.238281-13.242187.773437-.003906 1.546875.085937 2.296875.265625 3.109375-5.578125 8.976562-9.0507812 15.359375-9.09375 4.03125-.0078125 7.933594 1.398438 11.035156 3.972656.089844-.085937.175781-.085937.175781-.175781.617188-.441406 1.238282-.882813 1.855469-1.234375.351563-.175781.707031-.441406 1.148438-.617188.472656-.289062.976562-.527343 1.5-.707031.601562-.246093 1.222656-.453125 1.851562-.617187.441407-.089844.796875-.179688 1.148438-.265625 1.101562-.253907 2.226562-.371094 3.355469-.355469zm0 0" fill="#f7f1d4"/></svg>