<?xml version="1.0" encoding="iso-8859-1"?>
<!-- Generator: Adobe Illustrator 19.0.0, SVG Export Plug-In . SVG Version: 6.00 Build 0)  -->
<svg version="1.1" id="Capa_1" xmlns="http://www.w3.org/2000/svg" xmlns:xlink="http://www.w3.org/1999/xlink" x="0px" y="0px"
	 viewBox="0 0 512 512" style="enable-background:new 0 0 512 512;" xml:space="preserve">
<ellipse style="fill:#FF9D00;" cx="258.675" cy="318.535" rx="250.358" ry="192.648"/>
<polyline style="fill:#E52E33;" points="174.626,234.863 174.626,0.818 337.62,0.818 337.62,318.978 337.62,511.176 
	289.534,511.176 228.407,511.176 174.626,511.176 "/>
<polygon style="fill:#F9414F;" points="174.626,0.818 337.62,170.821 337.62,0.818 "/>
<path style="fill:#4C1212;" d="M209.889,133.724c-4.329,0-7.837-3.509-7.837-7.837v-23.509c0-4.328,3.508-7.837,7.837-7.837
	c4.329,0,7.837,3.509,7.837,7.837v23.509C217.725,130.216,214.218,133.724,209.889,133.724z"/>
<path style="fill:#FF9D00;" d="M302.358,133.724c-4.329,0-7.837-3.509-7.837-7.837v-23.509c0-4.328,3.508-7.837,7.837-7.837
	c4.329,0,7.837,3.509,7.837,7.837v23.509C310.195,130.216,306.687,133.724,302.358,133.724z"/>
<path style="fill:#4C1212;" d="M256.123,133.724c-4.329,0-7.837-3.509-7.837-7.837v-23.509c0-4.328,3.508-7.837,7.837-7.837
	c4.329,0,7.837,3.509,7.837,7.837v23.509C263.96,130.216,260.452,133.724,256.123,133.724z"/>
<rect x="419.621" y="397.863" style="fill:#E52E33;" width="92.379" height="113.319"/>
<g>
	<path style="fill:#4C1212;" d="M302.358,270.522c-4.329,0-7.837-3.509-7.837-7.837v-23.509c0-4.328,3.508-7.837,7.837-7.837
		c4.329,0,7.837,3.509,7.837,7.837v23.509C310.195,267.014,306.687,270.522,302.358,270.522z"/>
	<path style="fill:#4C1212;" d="M302.358,476.227c-4.329,0-7.837-3.509-7.837-7.837v-23.509c0-4.328,3.508-7.837,7.837-7.837
		c4.329,0,7.837,3.509,7.837,7.837v23.509C310.195,472.719,306.687,476.227,302.358,476.227z"/>
	<path style="fill:#4C1212;" d="M256.123,476.227c-4.329,0-7.837-3.509-7.837-7.837v-23.509c0-4.328,3.508-7.837,7.837-7.837
		c4.329,0,7.837,3.509,7.837,7.837v23.509C263.96,472.719,260.452,476.227,256.123,476.227z"/>
	<path style="fill:#4C1212;" d="M302.358,407.659c-4.329,0-7.837-3.509-7.837-7.837v-23.509c0-4.328,3.508-7.837,7.837-7.837
		c4.329,0,7.837,3.509,7.837,7.837v23.509C310.195,404.15,306.687,407.659,302.358,407.659z"/>
</g>
<path style="fill:#FF9D00;" d="M256.123,407.659c-4.329,0-7.837-3.509-7.837-7.837v-23.509c0-4.328,3.508-7.837,7.837-7.837
	c4.329,0,7.837,3.509,7.837,7.837v23.509C263.96,404.15,260.452,407.659,256.123,407.659z"/>
<g>
	<path style="fill:#4C1212;" d="M302.358,339.091c-4.329,0-7.837-3.509-7.837-7.837v-23.509c0-4.328,3.508-7.837,7.837-7.837
		c4.329,0,7.837,3.509,7.837,7.837v23.509C310.195,335.582,306.687,339.091,302.358,339.091z"/>
	<path style="fill:#4C1212;" d="M256.123,339.091c-4.329,0-7.837-3.509-7.837-7.837v-23.509c0-4.328,3.508-7.837,7.837-7.837
		c4.329,0,7.837,3.509,7.837,7.837v23.509C263.96,335.582,260.452,339.091,256.123,339.091z"/>
</g>
<polyline style="fill:#4C3333;" points="302.358,511.176 337.62,511.176 452.528,511.176 452.528,262.686 302.358,262.686 "/>
<rect y="326.403" style="fill:#7F111C;" width="92.056" height="184.78"/>
<polygon style="fill:#AF2331;" points="0,326.403 65.414,411.965 65.414,326.403 "/>
<polyline style="fill:#634B4B;" points="452.528,393.001 452.528,262.686 302.358,262.686 "/>
<rect x="65.411" y="125.887" style="fill:#4C3333;" width="162.994" height="385.285"/>
<polygon style="fill:#634B4B;" points="65.414,125.888 228.409,270.076 228.409,125.888 "/>
<g>
	<rect x="65.411" y="286.038" style="fill:#351B1B;" width="162.994" height="15.673"/>
	<rect x="65.411" y="338.806" style="fill:#351B1B;" width="162.994" height="15.673"/>
	<rect x="65.411" y="391.562" style="fill:#351B1B;" width="162.994" height="15.673"/>
	<rect x="65.411" y="444.33" style="fill:#351B1B;" width="162.994" height="15.673"/>
	<rect x="65.411" y="180.503" style="fill:#351B1B;" width="162.994" height="15.673"/>
	<rect x="65.411" y="233.271" style="fill:#351B1B;" width="162.994" height="15.673"/>
</g>
<g>
	<path style="fill:#4C1212;" d="M302.358,201.954c-4.329,0-7.837-3.509-7.837-7.837v-23.509c0-4.328,3.508-7.837,7.837-7.837
		c4.329,0,7.837,3.509,7.837,7.837v23.509C310.195,198.445,306.687,201.954,302.358,201.954z"/>
	<path style="fill:#4C1212;" d="M256.123,201.954c-4.329,0-7.837-3.509-7.837-7.837v-23.509c0-4.328,3.508-7.837,7.837-7.837
		c4.329,0,7.837,3.509,7.837,7.837v23.509C263.96,198.445,260.452,201.954,256.123,201.954z"/>
	<path style="fill:#4C1212;" d="M209.889,65.495c-4.329,0-7.837-3.509-7.837-7.837V34.149c0-4.328,3.508-7.837,7.837-7.837
		c4.329,0,7.837,3.509,7.837,7.837v23.509C217.725,61.986,214.218,65.495,209.889,65.495z"/>
	<path style="fill:#4C1212;" d="M302.358,65.495c-4.329,0-7.837-3.509-7.837-7.837V34.149c0-4.328,3.508-7.837,7.837-7.837
		c4.329,0,7.837,3.509,7.837,7.837v23.509C310.195,61.986,306.687,65.495,302.358,65.495z"/>
	<path style="fill:#4C1212;" d="M256.123,65.495c-4.329,0-7.837-3.509-7.837-7.837V34.149c0-4.328,3.508-7.837,7.837-7.837
		c4.329,0,7.837,3.509,7.837,7.837v23.509C263.96,61.986,260.452,65.495,256.123,65.495z"/>
	<path style="fill:#4C1212;" d="M256.123,270.522c-4.329,0-7.837-3.509-7.837-7.837v-23.509c0-4.328,3.508-7.837,7.837-7.837
		c4.329,0,7.837,3.509,7.837,7.837v23.509C263.96,267.014,260.452,270.522,256.123,270.522z"/>
</g>
<path id="SVGCleanerId_0" style="fill:#351B1B;" d="M420.792,376.245h-86.698c-4.329,0-7.837-3.509-7.837-7.837
	s3.508-7.837,7.837-7.837h86.698c4.329,0,7.837,3.509,7.837,7.837S425.121,376.245,420.792,376.245z"/>
<g>
	<path style="fill:#351B1B;" d="M420.792,450.332h-86.698c-4.329,0-7.837-3.509-7.837-7.837c0-4.328,3.508-7.837,7.837-7.837h86.698
		c4.329,0,7.837,3.509,7.837,7.837C428.629,446.823,425.121,450.332,420.792,450.332z"/>
	<path style="fill:#351B1B;" d="M420.792,487.375h-86.698c-4.329,0-7.837-3.509-7.837-7.837s3.508-7.837,7.837-7.837h86.698
		c4.329,0,7.837,3.509,7.837,7.837S425.121,487.375,420.792,487.375z"/>
	<path style="fill:#351B1B;" d="M420.792,413.289h-86.698c-4.329,0-7.837-3.509-7.837-7.837c0-4.328,3.508-7.837,7.837-7.837h86.698
		c4.329,0,7.837,3.509,7.837,7.837C428.629,409.78,425.121,413.289,420.792,413.289z"/>
	<path style="fill:#351B1B;" d="M420.792,302.16h-86.698c-4.329,0-7.837-3.509-7.837-7.837c0-4.328,3.508-7.837,7.837-7.837h86.698
		c4.329,0,7.837,3.509,7.837,7.837C428.629,298.651,425.121,302.16,420.792,302.16z"/>
</g>
<g>
	<path id="SVGCleanerId_0_1_" style="fill:#351B1B;" d="M420.792,376.245h-86.698c-4.329,0-7.837-3.509-7.837-7.837
		s3.508-7.837,7.837-7.837h86.698c4.329,0,7.837,3.509,7.837,7.837S425.121,376.245,420.792,376.245z"/>
</g>
<path style="fill:#351B1B;" d="M420.792,339.203h-86.698c-4.329,0-7.837-3.509-7.837-7.837s3.508-7.837,7.837-7.837h86.698
	c4.329,0,7.837,3.509,7.837,7.837S425.121,339.203,420.792,339.203z"/>
<path style="fill:#FF9D00;" d="M32.706,382.743c-4.329,0-7.837-3.509-7.837-7.837v-20.374c0-4.328,3.508-7.837,7.837-7.837
	s7.837,3.509,7.837,7.837v20.374C40.543,379.235,37.035,382.743,32.706,382.743z"/>
<g>
	<path style="fill:#4C1212;" d="M32.706,436.814c-4.329,0-7.837-3.509-7.837-7.837v-20.374c0-4.328,3.508-7.837,7.837-7.837
		s7.837,3.509,7.837,7.837v20.374C40.543,433.305,37.035,436.814,32.706,436.814z"/>
	<path style="fill:#4C1212;" d="M32.706,490.884c-4.329,0-7.837-3.509-7.837-7.837v-20.374c0-4.328,3.508-7.837,7.837-7.837
		s7.837,3.509,7.837,7.837v20.374C40.543,487.375,37.035,490.884,32.706,490.884z"/>
	<path style="fill:#4C1212;" d="M482.264,462.355c-4.329,0-7.837-3.509-7.837-7.837V432.34c0-4.328,3.508-7.837,7.837-7.837
		c4.329,0,7.837,3.509,7.837,7.837v22.179C490.101,458.847,486.593,462.355,482.264,462.355z"/>
</g>
<g>
	<path style="fill:#F96726;" d="M459.289,159.636h-95.603c-4.329,0-7.837-3.509-7.837-7.837s3.508-7.837,7.837-7.837h95.603
		c4.329,0,7.837,3.509,7.837,7.837S463.618,159.636,459.289,159.636z"/>
	<path style="fill:#F96726;" d="M489.068,192.548h-68.96c-4.329,0-7.837-3.509-7.837-7.837c0-4.328,3.508-7.837,7.837-7.837h68.96
		c4.329,0,7.837,3.509,7.837,7.837C496.904,189.039,493.397,192.548,489.068,192.548z"/>
	<path style="fill:#F96726;" d="M133.298,67.167h-68.96c-4.329,0-7.837-3.509-7.837-7.837s3.508-7.837,7.837-7.837h68.96
		c4.329,0,7.837,3.509,7.837,7.837S137.626,67.167,133.298,67.167z"/>
	<path style="fill:#F96726;" d="M94.116,93.288H25.155c-4.329,0-7.837-3.509-7.837-7.837s3.508-7.837,7.837-7.837h68.96
		c4.329,0,7.837,3.509,7.837,7.837S98.444,93.288,94.116,93.288z"/>
</g>
<g>
	<circle style="fill:#FF9D00;" cx="392.359" cy="405.449" r="7.837"/>
	<circle style="fill:#FF9D00;" cx="334.096" cy="332.035" r="7.837"/>
</g>
<g>
</g>
<g>
</g>
<g>
</g>
<g>
</g>
<g>
</g>
<g>
</g>
<g>
</g>
<g>
</g>
<g>
</g>
<g>
</g>
<g>
</g>
<g>
</g>
<g>
</g>
<g>
</g>
<g>
</g>
</svg>
