<svg height="512" viewBox="0 0 512 512" width="512" xmlns="http://www.w3.org/2000/svg"><g id="flat"><path d="m276 116a107.37 107.37 0 0 1 20 62.409v21.591a30.739 30.739 0 0 0 29.821-23.283l2.179-8.717 5.912 7.095a63 63 0 0 1 -.564 81.333 22.147 22.147 0 0 0 1.152 30.072 22.147 22.147 0 0 0 32.955-1.826l16.545-20.674 16 40a139.835 139.835 0 0 1 -35.059 139.059l-2.018 2.018a146.549 146.549 0 0 1 -103.623 42.923h-16.325a146.549 146.549 0 0 1 -125.665-71.15 146.551 146.551 0 0 1 12.681-168.734l64.764-78.4a53.884 53.884 0 0 0 7.7-56.2 53.883 53.883 0 0 1 19.345-66.716l34.2-22.8v29.591a107.37 107.37 0 0 0 20 62.409z" fill="#e82f3e"/><path d="m315.077 433.411.071-.071a99.417 99.417 0 0 0 25.025-97.34l-23.273 23.274a23.652 23.652 0 0 1 -33.451 0 23.653 23.653 0 0 1 -1.449-31.868 62.507 62.507 0 0 0 7.889-67.971l-37.716-75.435-5.8 63.8a57.053 57.053 0 0 1 -21.173 39.382l-32.973 26.379a74.736 74.736 0 0 0 -28.049 58.36v9.079a74.74 74.74 0 0 0 26.891 57.415 74.741 74.741 0 0 0 48.584 17.319l23.118-.229a74.734 74.734 0 0 0 52.306-22.094z" fill="#ea9d2d"/><path d="m120 192a8 8 0 0 1 -8-8v-16a8 8 0 0 1 16 0v16a8 8 0 0 1 -8 8z" fill="#ff6268"/><path d="m144 152a8 8 0 0 1 -8-8v-16a8 8 0 0 1 16 0v16a8 8 0 0 1 -8 8z" fill="#e82f3e"/><path d="m112 120a8 8 0 0 1 -8-8v-16a8 8 0 0 1 16 0v16a8 8 0 0 1 -8 8z" fill="#961b20"/><path d="m392 216a8 8 0 0 1 -8-8v-16a8 8 0 0 1 16 0v16a8 8 0 0 1 -8 8z" fill="#e82f3e"/><path d="m368 160a8 8 0 0 1 -8-8v-16a8 8 0 0 1 16 0v16a8 8 0 0 1 -8 8z" fill="#ff6268"/><path d="m400 136a8 8 0 0 1 -8-8v-24a8 8 0 0 1 16 0v24a8 8 0 0 1 -8 8z" fill="#e82f3e"/></g></svg>