<?xml version="1.0" encoding="iso-8859-1"?>
<!-- Generator: Adobe Illustrator 18.0.0, SVG Export Plug-In . SVG Version: 6.00 Build 0)  -->
<!DOCTYPE svg PUBLIC "-//W3C//DTD SVG 1.1//EN" "http://www.w3.org/Graphics/SVG/1.1/DTD/svg11.dtd">
<svg version="1.1" id="Capa_1" xmlns="http://www.w3.org/2000/svg" xmlns:xlink="http://www.w3.org/1999/xlink" x="0px" y="0px"
	 viewBox="0 0 458.541 458.541" style="enable-background:new 0 0 458.541 458.541;" xml:space="preserve">
<g>
	<path style="fill:#F74B4B;" d="M116.152,325.335L116.152,325.335c0-23.756,19.258-43.013,43.013-43.013h49.386v0
		c0,23.756-19.258,43.013-43.013,43.013H116.152z"/>
	<path style="fill:#F74B4B;" d="M258.978,344.822L258.978,344.822c-11.23-20.934-3.363-47.007,17.57-58.237l43.519-23.346v0
		c11.23,20.934,3.363,47.007-17.57,58.237L258.978,344.822z"/>
	<path style="fill:#F74B4B;" d="M292.326,221.748L292.326,221.748c14.87-27.72,4.454-62.246-23.266-77.116l-57.627-30.914l0,0
		c-14.87,27.72-4.453,62.246,23.266,77.116L292.326,221.748z"/>
	<g>
		<path style="fill:#F74B4B;" d="M73.776,236.6L73.776,236.6l-23.608,0C22.461,236.6,0,214.14,0,186.433v0h23.608
			C51.315,186.433,73.776,208.894,73.776,236.6z"/>
		<path style="fill:#F74B4B;" d="M73.776,236.6L73.776,236.6l-23.608,0C22.461,236.6,0,259.061,0,286.768v0h23.608
			C51.315,286.768,73.776,264.307,73.776,236.6z"/>
	</g>
	<path style="fill:#51CAF4;" d="M458.541,236.607c-36.15,24.57-75.54,42.13-116.32,52.68c-30.73,7.96-62.24,11.93-93.74,11.93
		c-73.33,0-146.66-21.53-210.05-64.61c90.63-61.6,201.58-79.16,303.8-52.69C383.011,194.468,422.391,212.038,458.541,236.607z"/>
	<path style="fill:#85E1F9;" d="M458.537,236.607c-63.39,43.083-136.722,64.612-210.053,64.612
		c-73.332,0-146.663-21.529-210.053-64.612H458.537z"/>
	<path style="fill:#45BDDD;" d="M458.541,236.607c-36.15,24.57-75.54,42.13-116.32,52.68c-7.28-16.06-11.34-33.9-11.34-52.68
		c0-18.79,4.06-36.62,11.35-52.69C383.011,194.468,422.391,212.038,458.541,236.607z"/>
	<g>
		<circle style="fill:#FFFFFF;" cx="370.941" cy="236.6" r="22.148"/>
		<circle style="fill:#4D4D4D;" cx="370.941" cy="236.6" r="13.551"/>
	</g>
</g>
<g>
</g>
<g>
</g>
<g>
</g>
<g>
</g>
<g>
</g>
<g>
</g>
<g>
</g>
<g>
</g>
<g>
</g>
<g>
</g>
<g>
</g>
<g>
</g>
<g>
</g>
<g>
</g>
<g>
</g>
</svg>
