<?xml version="1.0" encoding="iso-8859-1"?>
<!-- Generator: Adobe Illustrator 19.0.0, SVG Export Plug-In . SVG Version: 6.00 Build 0)  -->
<svg version="1.1" id="Capa_1" xmlns="http://www.w3.org/2000/svg" xmlns:xlink="http://www.w3.org/1999/xlink" x="0px" y="0px"
	 viewBox="0 0 512 512" style="enable-background:new 0 0 512 512;" xml:space="preserve">
<path style="fill:#5EAC24;" d="M384.115,32.543c-1.426,2.627-3.065,5.489-4.898,8.524c-18.26,30.257-56.358,77.103-112.238,64.801
	c-1.12-0.244-2.251-0.519-3.391-0.815c-2.23-0.57-4.481-1.242-6.762-2.006c-0.815-0.275-1.629-0.57-2.454-0.866
	c0,0,0.336-2.607,1.354-6.925c0.285-1.202,0.621-2.546,1.018-3.992c6.986-25.501,32.701-86.136,117.9-76.757
	C383.331,15.455,388.301,24.865,384.115,32.543z"/>
<path style="fill:#6DC82A;" d="M379.216,41.067c-18.26,30.257-56.358,77.103-112.238,64.801c-1.12-0.244-2.251-0.519-3.391-0.815
	c-2.23-0.57-4.481-1.242-6.762-2.006C283.426,73.096,325.903,42.412,379.216,41.067z"/>
<path style="fill:#4E901E;" d="M345.334,56.588c-21.712,9.634-65.167,37.62-81.747,48.466c-3.025-0.774-6.09-1.731-9.217-2.872
	c0,0,0.336-2.607,1.354-6.925c0.285-1.202,0.621-2.546,1.018-3.992c17.873-11.681,60.065-38.73,82.399-48.639
	c3.85-1.711,8.361,0.02,10.072,3.88C350.925,50.354,349.194,54.867,345.334,56.588z"/>
<path style="fill:#AA6100;" d="M254.086,180.557c-4.196-0.439-7.241-4.196-6.803-8.391c0.467-11.797,7.574-39.79-2.419-75.575
	c-11.053-39.585-37.363-67.094-78.198-81.763c-3.97-1.426-6.032-5.801-4.606-9.771c1.427-3.97,5.802-6.032,9.771-4.606
	c57.27,20.573,79.416,61.722,87.909,92.619c8.037,29.236,6.267,52.307,2.735,80.684C262.04,177.926,258.311,180.993,254.086,180.557
	z"/>
<path style="fill:#5EAC24;" d="M448.132,369.38c-7.07,11.306-65.87,105.341-71.482,114.315
	c-20.127,28.974-67.052,37.167-100.19,17.72c-12.71-7.475-28.413-7.475-41.123,0c-32.9,19.354-79.957,11.425-100.19-17.72
	L63.665,369.38c-44.06-70.473-25.146-147.854,14.96-188.995c0,0,0-0.01,0.01-0.01c43.982-45.105,118.707-51.369,166.58-18.107
	c6.333,4.766,15.032,4.766,21.366,0c58.248-40.471,161.09-24.745,196.175,64.994C480.48,272.607,477.264,322.783,448.132,369.38z"/>
<path style="fill:#6DC82A;" d="M448.132,369.38l-57.957,92.685c-23.345,20.465-62.377,23.966-90.801,7.271
	c-12.71-7.475-28.413-7.475-41.123,0c-32.901,19.354-79.964,11.415-100.19-17.72L86.579,337.3
	c-32.663-52.244-32.517-109.259-7.954-156.915c0,0,0-0.01,0.01-0.01c43.801-44.921,118.465-51.537,166.58-18.107
	c6.333,4.766,15.032,4.766,21.366,0c58.248-40.471,161.09-24.745,196.175,64.994C480.48,272.607,477.264,322.783,448.132,369.38z"/>
<g>
</g>
<g>
</g>
<g>
</g>
<g>
</g>
<g>
</g>
<g>
</g>
<g>
</g>
<g>
</g>
<g>
</g>
<g>
</g>
<g>
</g>
<g>
</g>
<g>
</g>
<g>
</g>
<g>
</g>
</svg>
