<svg height="512pt" viewBox="0 0 512 512" width="512pt" xmlns="http://www.w3.org/2000/svg"><path d="m289.898438 0-33.898438 14.699219-256 112 31.601562 256.199219 128.097657 129.101562h288l64.300781-259.898438zm0 0" fill="#fed2a4"/><path d="m512 252.101562-64.300781 259.898438h-191.699219v-497.300781l33.898438-14.699219zm0 0" fill="#ffbd86"/><path d="m256 140.800781c-18-9.300781-38.101562-14.703125-59.398438-15.601562l-15.601562-.597657v86.097657c-35.398438 8.699219-61.800781 40.800781-61.800781 78.601562 0 54 43.800781 97.5 97.5 97.5 13.800781 0 27-2.402343 39.300781-6.898437 45.902344-15.902344 78.601562-59.703125 78.601562-111 0-56.101563-31.800781-104.703125-78.601562-128.101563zm0 0" fill="#c6715a"/><path d="m241 421h150v30h-150zm0 0" fill="#c6715a"/><path d="m331 361h90v30h-90zm0 0" fill="#b35f49"/><path d="m406 331c-24.8125 0-45-20.1875-45-45s20.1875-45 45-45 45 20.1875 45 45-20.1875 45-45 45zm0-60c-8.277344 0-15 6.722656-15 15s6.722656 15 15 15 15-6.722656 15-15-6.722656-15-15-15zm0 0" fill="#b35f49"/><path d="m361 181h30v30h-30zm0 0" fill="#b35f49"/><g fill="#c6715a"><path d="m181 421h30v30h-30zm0 0"/><path d="m121 151h30v30h-30zm0 0"/><path d="m61 211h30v30h-30zm0 0"/></g><path d="m256 421h135v30h-135zm0 0" fill="#b35f49"/><path d="m256 175.300781c-13.199219-9.300781-28.5-15.601562-45-18.601562v52.5c18.601562 3 34.800781 13.800781 45 29.101562 7.800781 10.796875 12 24 12 38.097657 0 12.902343-4.5 25.199218-12 34.800781-10.5 13.5-26.699219 22.199219-45 22.199219v-30c15 0 27-12 27-27 0-21-17.097656-37.796876-37.800781-37.796876-28.199219 0-51 22.796876-51 50.699219 0 37.199219 30.300781 67.5 67.5 67.5 14.101562 0 27.601562-3.300781 39.300781-9.300781 28.800781-14.398438 48.601562-44.101562 48.601562-78.601562 0-38.699219-19.203124-73.199219-48.601562-93.597657zm0 0" fill="#99503d"/><path d="m334.601562 268.898438c0 51.300781-32.699218 95.101562-78.601562 111v-239.097657c46.800781 23.398438 78.601562 72 78.601562 128.097657zm0 0" fill="#b35f49"/><path d="m304.601562 268.898438c0 34.5-19.800781 64.203124-48.601562 78.601562v-36.300781c7.5-9.601563 12-21.898438 12-34.800781 0-14.097657-4.199219-27.300782-12-38.097657v-63c29.398438 20.398438 48.601562 54.898438 48.601562 93.597657zm0 0" fill="#99503d"/></svg>