<?xml version="1.0" encoding="iso-8859-1"?>
<!-- Generator: Adobe Illustrator 19.0.0, SVG Export Plug-In . SVG Version: 6.00 Build 0)  -->
<svg version="1.1" id="Capa_1" xmlns="http://www.w3.org/2000/svg" xmlns:xlink="http://www.w3.org/1999/xlink" x="0px" y="0px"
	 viewBox="0 0 512 512" style="enable-background:new 0 0 512 512;" xml:space="preserve">
<circle style="fill:#E6646E;" cx="256" cy="256" r="256"/>
<path style="fill:#DC4655;" d="M293.161,474.839c-141.385,0-256-114.615-256-256c0-61.227,21.521-117.411,57.376-161.463
	C36.863,104.316,0,175.842,0,256c0,141.385,114.615,256,256,256c80.159,0,151.685-36.864,198.626-94.538
	C410.573,453.317,354.389,474.839,293.161,474.839z"/>
<path style="fill:#5A4650;" d="M169.29,264.258L169.29,264.258c-11.402,0-20.645-9.243-20.645-20.645v-16.516
	c0-11.402,9.243-20.645,20.645-20.645l0,0c11.402,0,20.645,9.243,20.645,20.645v16.516
	C189.935,255.015,180.692,264.258,169.29,264.258z"/>
<path style="fill:#6E5A64;" d="M169.29,206.452c-1.414,0-2.794,0.145-4.129,0.416v28.487c0,6.841,5.546,12.387,12.387,12.387
	s12.387-5.546,12.387-12.387v-8.258C189.935,215.695,180.693,206.452,169.29,206.452z"/>
<path style="fill:#5A4650;" d="M342.71,264.258L342.71,264.258c-11.402,0-20.645-9.243-20.645-20.645v-16.516
	c0-11.402,9.243-20.645,20.645-20.645l0,0c11.402,0,20.645,9.243,20.645,20.645v16.516
	C363.355,255.015,354.112,264.258,342.71,264.258z"/>
<path style="fill:#6E5A64;" d="M342.71,206.452c-1.414,0-2.794,0.145-4.129,0.416v28.487c0,6.841,5.546,12.387,12.387,12.387
	s12.387-5.546,12.387-12.387v-8.258C363.355,215.695,354.112,206.452,342.71,206.452z"/>
<g>
	<path style="fill:#5A4650;" d="M206.395,192c-1.081,0-2.177-0.169-3.266-0.532l-74.323-24.774
		c-5.403-1.798-8.331-7.645-6.524-13.056c1.79-5.403,7.605-8.339,13.056-6.524l74.323,24.774c5.403,1.798,8.331,7.645,6.524,13.056
		C214.75,189.266,210.718,192,206.395,192z"/>
	<path style="fill:#5A4650;" d="M305.492,192c-4.323,0-8.355-2.734-9.79-7.056c-1.806-5.411,1.121-11.258,6.524-13.056
		l74.323-24.774c5.395-1.815,11.258,1.121,13.056,6.524c1.806,5.411-1.121,11.258-6.524,13.056l-74.323,24.774
		C307.677,191.831,306.573,192,305.492,192z"/>
	<path style="fill:#5A4650;" d="M429.419,305.548H82.581c-9.122,0-16.516,7.395-16.516,16.516v115.613
		c0,9.122,7.395,16.516,16.516,16.516H429.42c9.122,0,16.516-7.395,16.516-16.516V322.065
		C445.935,312.943,438.541,305.548,429.419,305.548z"/>
</g>
<g>
	<path style="fill:#FFFFFF;" d="M395.677,400.516l6.548-6.548c3.226-3.226,3.226-8.452,0-11.677c-3.226-3.226-8.452-3.226-11.677,0
		L384,388.839l-5.786-5.786c5.983-4.527,9.915-11.634,9.915-19.698c0-13.661-11.113-24.774-24.774-24.774
		c-13.661,0-24.774,11.113-24.774,24.774c0,2.646,0.527,5.148,1.299,7.541c-6.568,5.986-10.214,14.784-9.452,23.862
		c1.258,14.806,14.452,26.403,30.04,26.403c8.624,0,16.994-3.362,23.399-9.101l6.681,6.681c1.613,1.613,3.726,2.419,5.839,2.419
		c2.113,0,4.226-0.806,5.839-2.419c3.226-3.226,3.226-8.452,0-11.677L395.677,400.516z M363.355,355.097
		c4.556,0,8.258,3.702,8.258,8.258s-3.702,8.258-8.258,8.258s-8.258-3.702-8.258-8.258
		C355.097,358.798,358.798,355.097,363.355,355.097z M360.468,404.645c-6.96,0-13.056-5.065-13.589-11.274
		c-0.288-3.481,0.879-6.75,3.068-9.242c2.852,1.847,6.11,3.071,9.604,3.616l12.638,12.638
		C368.886,403.063,364.744,404.645,360.468,404.645z"/>
	<path style="fill:#FFFFFF;" d="M178.371,340.234c-3.645-2.726-8.823-2-11.556,1.653l-49.548,66.065
		c-2.742,3.645-2,8.823,1.653,11.556c1.484,1.113,3.218,1.653,4.944,1.653c2.516,0,4.992-1.137,6.613-3.306l49.548-66.065
		C182.766,348.145,182.024,342.968,178.371,340.234z"/>
	<path style="fill:#FFFFFF;" d="M214.71,396.387c4.565,0,8.258-3.694,8.258-8.258v-41.29c0-4.565-3.694-8.258-8.258-8.258
		c-4.565,0-8.258,3.694-8.258,8.258v41.29C206.452,392.694,210.145,396.387,214.71,396.387z"/>
	<path style="fill:#FFFFFF;" d="M214.71,404.645c-4.565,0-8.258,3.694-8.258,8.258s3.694,8.258,8.258,8.258h0.081
		c4.565,0,8.218-3.694,8.218-8.258S219.274,404.645,214.71,404.645z"/>
	<path style="fill:#FFFFFF;" d="M313.806,355.097h-1.815l1.565-6.258c1.113-4.419-1.581-8.903-6.008-10.008
		c-4.427-1.145-8.903,1.573-10.008,6.008l-2.565,10.258H278.96l1.565-6.258c1.113-4.419-1.581-8.903-6.008-10.008
		c-4.444-1.145-8.911,1.573-10.008,6.008l-2.565,10.258H256c-4.565,0-8.258,3.694-8.258,8.258s3.694,8.258,8.258,8.258h1.815
		l-4.129,16.516h-5.944c-4.565,0-8.258,3.694-8.258,8.258s3.694,8.258,8.258,8.258h1.815l-1.565,6.258
		c-1.113,4.419,1.581,8.903,6.008,10.008c0.669,0.169,1.347,0.25,2.008,0.25c3.702,0,7.065-2.5,8-6.258l2.565-10.258h16.016
		l-1.565,6.258c-1.113,4.419,1.581,8.903,6.008,10.008c0.669,0.169,1.347,0.25,2.008,0.25c3.702,0,7.065-2.5,8-6.258l2.565-10.258
		h5.944c4.565,0,8.258-3.694,8.258-8.258s-3.694-8.258-8.258-8.258h-1.815l4.129-16.516h5.944c4.565,0,8.258-3.694,8.258-8.258
		S318.371,355.097,313.806,355.097z M286.718,388.129h-16.016l4.129-16.516h16.016L286.718,388.129z"/>
	<path style="fill:#FFFFFF;" d="M140.387,355.097c0-9.105-7.411-16.516-16.516-16.516s-16.516,7.411-16.516,16.516
		s7.411,16.516,16.516,16.516S140.387,364.202,140.387,355.097z"/>
	<path style="fill:#FFFFFF;" d="M173.419,388.129c-9.105,0-16.516,7.411-16.516,16.516c0,9.105,7.411,16.516,16.516,16.516
		s16.516-7.411,16.516-16.516C189.935,395.54,182.524,388.129,173.419,388.129z"/>
</g>
<g>
</g>
<g>
</g>
<g>
</g>
<g>
</g>
<g>
</g>
<g>
</g>
<g>
</g>
<g>
</g>
<g>
</g>
<g>
</g>
<g>
</g>
<g>
</g>
<g>
</g>
<g>
</g>
<g>
</g>
</svg>
