<svg height="472pt" viewBox="-3 0 471 472" width="472pt" xmlns="http://www.w3.org/2000/svg"><path d="m312.5 24v.695312c0 17.289063-14.015625 31.304688-31.304688 31.304688h-48.695312v-.695312c0-17.289063 14.015625-31.304688 31.304688-31.304688zm0 0" fill="#cfdfe8"/><path d="m440.5 208c-50.023438 0-54.070312-40-104.089844-40-50.015625 0-53.917968 32-103.910156 32s-46.070312-32-96.078125-32c-50.011719 0-53.9375 40-103.921875 40-11.230469.636719-22.390625-2.15625-32-8v272h464v-273.007812c-7.496094 3-12.328125 9.007812-24 9.007812zm0 0" fill="#87cee9"/><path d="m408.84375 376h-352.34375l-56 96h464zm0 0" fill="#ad6327"/><path d="m408.84375 376-64.34375-96h-224l-64 96zm0 0" fill="#d3843d"/><path d="m56.5 304h32v72h-32zm0 0" fill="#b5554e"/><path d="m72.5 272c8.835938 0 16 7.164062 16 16v16h-32v-16c0-8.835938 7.164062-16 16-16zm0 0" fill="#d3843d"/><path d="m376.5 304h32v72h-32zm0 0" fill="#b5554e"/><path d="m392.5 272c8.835938 0 16 7.164062 16 16v16h-32v-16c0-8.835938 7.164062-16 16-16zm0 0" fill="#d3843d"/><path d="m120.5 232h32v48h-32zm0 0" fill="#b5554e"/><path d="m136.5 200c8.835938 0 16 7.164062 16 16v16h-32v-16c0-8.835938 7.164062-16 16-16zm0 0" fill="#d3843d"/><path d="m312.5 232h32v48h-32zm0 0" fill="#b5554e"/><path d="m328.5 200c8.835938 0 16 7.164062 16 16v16h-32v-16c0-8.835938 7.164062-16 16-16zm0 0" fill="#d3843d"/><path d="m336.5 140.046875c-.066406 15.503906-12.6875 28.019531-28.191406 27.953125h-126.207032c-21.230468-.09375-39.988281-13.832031-46.488281-34.039062l-6.761719-20.601563c-.726562-2.152344-.378906-4.519531.933594-6.371094 1.3125-1.855469 3.4375-2.964843 5.707032-2.988281h193.960937c1.859375-.007812 3.648437.722656 4.972656 2.035156 1.320313 1.3125 2.066407 3.09375 2.074219 4.957032zm0 0" fill="#2d75bb"/><path d="m232.5 112c-4.417969 0-8-3.582031-8-8v-96c0-4.417969 3.582031-8 8-8s8 3.582031 8 8v96c0 4.417969-3.582031 8-8 8zm0 0" fill="#995f5b"/></svg>