<svg height="512pt" viewBox="0 0 512 512" width="512pt" xmlns="http://www.w3.org/2000/svg"><path d="m512 256c0 141.386719-114.613281 256-256 256s-256-114.613281-256-256c0-54.847656 17.25-105.679688 46.625-147.339844 14.15625-20.085937 31.136719-38.046875 50.363281-53.289062 43.675781-34.671875 98.917969-55.371094 159.011719-55.371094 141.386719 0 256 114.613281 256 256zm0 0" fill="#96d6d4"/><path d="m280.535156 106.746094c0-7.355469 5.953125-13.320313 13.320313-13.320313h126.570312c3.675781 0 7.011719 1.492188 9.425781 3.90625 2.402344 2.402344 3.894532 5.738281 3.894532 9.414063 0 7.355468 5.96875 13.324218 13.324218 13.324218h25.890626c5.371093 8.554688 10.253906 17.449219 14.597656 26.644532h-19.769532c-3.675781 0-7.011718 1.492187-9.414062 3.90625-2.414062 2.402344-3.90625 5.738281-3.90625 9.414062 0 7.359375-5.96875 13.324219-13.324219 13.324219h-126.566406c-3.679687 0-7.011719-1.496094-9.425781-3.910156-2.402344-2.402344-3.898438-5.734375-3.898438-9.414063 0-7.355468 5.96875-13.320312 13.324219-13.320312h42.933594c7.355469 0 13.324219-5.96875 13.324219-13.324219s-5.96875-13.320313-13.324219-13.320313h-63.65625c-3.6875 0-7.011719-1.496093-9.421875-3.910156-2.414063-2.402344-3.898438-5.734375-3.898438-9.414062zm0 0" fill="#e6e6e6"/><path d="m185.804688 95.335938c0 7.355468-5.96875 13.324218-13.324219 13.324218h-125.855469c14.15625-20.085937 31.136719-38.046875 50.363281-53.289062h27.75c3.679688 0 7.011719 1.492187 9.425781 3.90625 2.402344 2.402344 3.898438 5.734375 3.898438 9.414062 0 7.355469 5.964844 13.324219 13.324219 13.324219h21.09375c3.679687 0 7.011719 1.492187 9.414062 3.90625 2.414063 2.402344 3.910157 5.738281 3.910157 9.414063zm0 0" fill="#e6e6e6"/><path d="m512 256c0 8.746094-.4375 17.386719-1.296875 25.902344-1.734375 17.292968-5.191406 34.074218-10.195313 50.175781-32.402343 104.238281-129.621093 179.921875-244.507812 179.921875-118.40625 0-218.039062-80.382812-247.285156-189.566406-3.25-12.078125-5.621094-24.5-7.0625-37.207032-1.089844-9.59375-1.652344-19.34375-1.652344-29.226562zm0 0" fill="#0084a6"/><g fill="#69b8d4"><path d="m431.925781 333.761719c0-1.863281-7.785156-3.375-17.390625-3.375-9.605468 0-17.394531 1.511719-17.394531 3.375s7.789063 3.375 17.394531 3.375c9.605469 0 17.390625-1.511719 17.390625-3.375zm0 0"/><path d="m404.015625 351.828125c0-1.863281-7.785156-3.375-17.390625-3.375s-17.394531 1.511719-17.394531 3.375c0 1.867187 7.789062 3.378906 17.394531 3.378906s17.390625-1.511719 17.390625-3.378906zm0 0"/><path d="m237.089844 332.664062c0-1.863281-7.785156-3.375-17.390625-3.375s-17.390625 1.511719-17.390625 3.375c0 1.863282 7.785156 3.375 17.390625 3.375s17.390625-1.511718 17.390625-3.375zm0 0"/><path d="m341.957031 467.074219c0-3.207031-13.394531-5.804688-29.914062-5.804688s-29.914063 2.597657-29.914063 5.804688 13.394532 2.148437 29.914063 2.148437 29.914062 1.058594 29.914062-2.148437zm0 0"/><path d="m274.597656 482.265625c0-3.207031-13.394531-5.804687-29.914062-5.804687-16.519532 0-29.914063 2.597656-29.914063 5.804687s13.394531 2.148437 29.914063 2.148437c16.519531 0 29.914062 1.058594 29.914062-2.148437zm0 0"/><path d="m163.078125 413.074219c0-3.207031-13.390625-5.804688-29.914063-5.804688-16.519531 0-29.914062 2.601563-29.914062 5.804688 0 3.207031 13.394531 2.148437 29.914062 2.148437 16.523438 0 29.914063 1.058594 29.914063-2.148437zm0 0"/></g><path d="m479.933594 280.890625c-62.003906.742187-63.53125 16.6875-128.503906 16.6875-66.539063 0-66.539063-16.71875-133.085938-16.71875-61.890625 0-66.21875 14.460937-120.050781 16.476563l-58.054688-3.28125-2.097656-.113282.144531-.242187 78.417969-125.136719c9.960937-15.882812 30.1875-21.859375 47.167969-13.9375l48.878906 22.820312c8.539062 3.980469 18.277344 4.566407 27.242188 1.640626l63.4375-20.742188c7.90625-2.589844 16.164062-2.371094 23.59375.175781l.007812.011719c8.316406 2.851562 15.601562 8.664062 20.210938 16.761719l20.363281 35.847656c9.050781 15.914063 28.335937 22.863281 45.453125 16.375 4.316406-1.640625 8.765625-2.421875 13.164062-2.421875 12.925782 0 25.328125 6.78125 32.132813 18.535156zm0 0" fill="#fff"/><path d="m171.613281 261.296875c0 2.070313-.394531 4.203125-1.261719 6.292969l-7.902343 19.035156c-21.023438 4.828125-36.925781 10.953125-77.195313 10.953125-20.804687 0-35.109375-1.640625-46.96875-3.878906l78.417969-125.136719c9.960937-15.882812 30.1875-21.859375 47.167969-13.9375l-24.105469 68.480469c-3.75 10.648437 4.160156 21.820312 15.453125 21.820312 9.425781 0 16.394531 7.71875 16.394531 16.371094zm0 0" fill="#ccc"/><path d="m327.03125 158.53125-30.425781 54.394531c-9.875 17.65625-34.207031 20.308594-47.65625 5.195313l-36.199219-40.675782c8.539062 3.980469 18.277344 4.566407 27.242188 1.640626l63.4375-20.742188c7.90625-2.589844 16.164062-2.371094 23.59375.175781zm0 0" fill="#ccc"/><path d="m40.238281 294.054688-2.097656-.113282.144531-.242187c.636719.117187 1.296875.242187 1.953125.355469zm0 0" fill="#0084a6"/><path d="m326.558594 269.8125 5.285156-19.515625c1.828125-6.753906 10.625-8.441406 14.824219-2.84375l12.195312 16.261719c3.738281 4.984375.941407 12.15625-5.179687 13.292968l-17.484375 3.253907c-6.082031 1.132812-11.257813-4.480469-9.640625-10.449219zm0 0" fill="#ccc"/></svg>