<?xml version="1.0" encoding="iso-8859-1"?>
<!-- Generator: Adobe Illustrator 19.0.0, SVG Export Plug-In . SVG Version: 6.00 Build 0)  -->
<svg version="1.1" id="Capa_1" xmlns="http://www.w3.org/2000/svg" xmlns:xlink="http://www.w3.org/1999/xlink" x="0px" y="0px"
	 viewBox="0 0 512 512" style="enable-background:new 0 0 512 512;" xml:space="preserve">
<circle style="fill:#FFD93B;" cx="256" cy="256" r="256"/>
<path style="fill:#F4C534;" d="M512,256c0,141.44-114.64,256-256,256c-80.48,0-152.32-37.12-199.28-95.28
	c43.92,35.52,99.84,56.72,160.72,56.72c141.36,0,256-114.56,256-256c0-60.88-21.2-116.8-56.72-160.72
	C474.8,103.68,512,175.52,512,256z"/>
<path style="fill:#3E4347;" d="M388.368,309.264C410.864,315.424,374.816,435.04,256,435.92
	c-118.816-0.88-154.864-120.496-132.368-126.656C141.616,300.4,189.856,349.52,256,349.52
	C323.056,349.504,370.384,300.4,388.368,309.264z"/>
<path style="fill:#E24B4B;" d="M173.344,256.784c-1.392,1.712-3.728,2.128-5.648,1.072c-14.4-7.568-72.32-40-77.872-70.192
	c-3.52-19.088,9.072-37.44,28.16-40.96c13.76-2.56,27.088,3.312,34.88,14.08c3.312-12.8,13.76-23.04,27.52-25.488
	c19.088-3.52,37.328,9.072,40.848,28.16C226.784,193.632,184.112,244.512,173.344,256.784z"/>
<path style="fill:#D03F3F;" d="M179.424,249.632c-2.448,2.992-4.592,5.44-6.08,7.152c-1.392,1.712-3.728,2.128-5.648,1.072
	c-14.4-7.568-72.32-40-77.872-70.192c-3.2-17.168,6.608-33.712,22.512-39.36c-8.112,7.888-12.272,19.632-10.032,31.568
	C107.744,209.632,163.952,241.52,179.424,249.632z"/>
<g style="opacity:0.2;">
	
		<ellipse transform="matrix(-0.3654 -0.9308 0.9308 -0.3654 116.941 405.326)" style="fill:#FFFFFF;" cx="196.632" cy="162.802" rx="13.871" ry="9.344"/>
</g>
<path style="fill:#E24B4B;" d="M332.752,256.784c1.392,1.712,3.728,2.128,5.648,1.072c14.4-7.568,72.32-40,77.872-70.192
	c3.52-19.088-9.072-37.44-28.16-40.96c-13.76-2.56-27.088,3.312-34.88,14.08c-3.312-12.8-13.76-23.04-27.52-25.488
	c-19.088-3.52-37.328,9.072-40.848,28.16C279.312,193.632,321.968,244.512,332.752,256.784z"/>
<path style="fill:#D03F3F;" d="M326.672,249.632c2.448,2.992,4.592,5.44,6.08,7.152c1.392,1.712,3.728,2.128,5.648,1.072
	c14.4-7.568,72.32-40,77.872-70.192c3.2-17.168-6.608-33.712-22.512-39.36c8.112,7.888,12.272,19.632,10.032,31.568
	C398.352,209.632,342.128,241.52,326.672,249.632z"/>
<g style="opacity:0.2;">
	
		<ellipse transform="matrix(-0.9308 -0.3654 0.3654 -0.9308 537.9436 427.4479)" style="fill:#FFFFFF;" cx="309.42" cy="162.82" rx="9.344" ry="13.871"/>
</g>
<path style="fill:#E24B4B;" d="M256,435.92c22.944-0.176,42.768-4.8,59.712-12.144c-3.84-11.28-10.736-21.12-19.808-28.496
	c-7.28-6-17.28-7.088-26.272-4.176c-5.184,1.632-11.008,2.64-17.456,2.64c-5.008,0-9.632-0.64-13.904-1.632
	c-9.728-2.448-19.904,0.448-26.992,7.552c-6.704,6.704-11.84,14.96-14.96,24.144C213.264,431.136,233.072,435.76,256,435.92z"/>
<g>
</g>
<g>
</g>
<g>
</g>
<g>
</g>
<g>
</g>
<g>
</g>
<g>
</g>
<g>
</g>
<g>
</g>
<g>
</g>
<g>
</g>
<g>
</g>
<g>
</g>
<g>
</g>
<g>
</g>
</svg>
