<?xml version="1.0" encoding="iso-8859-1"?>
<!-- Generator: Adobe Illustrator 19.0.0, SVG Export Plug-In . SVG Version: 6.00 Build 0)  -->
<svg version="1.1" id="Layer_1" xmlns="http://www.w3.org/2000/svg" xmlns:xlink="http://www.w3.org/1999/xlink" x="0px" y="0px"
	 viewBox="0 0 512 512" style="enable-background:new 0 0 512 512;" xml:space="preserve">
<g>
	<polygon style="fill:#E21B1B;" points="195,419.392 218.656,349.08 159.52,305.48 232.968,301.744 255.376,235.144 279.424,304.6 
		352.48,306.104 293.816,353.696 317,420.016 256.264,381.184 	"/>
	<polygon style="fill:#E21B1B;" points="35.48,276.232 59.136,205.92 0,162.32 73.448,158.592 95.856,91.984 119.904,161.448 
		192.96,162.944 134.296,210.536 157.48,276.856 96.744,238.024 	"/>
	<polygon style="fill:#E21B1B;" points="354.52,276.232 378.176,205.92 319.04,162.32 392.488,158.592 414.896,91.984 
		438.944,161.448 512,162.944 453.336,210.536 476.52,276.856 415.776,238.024 	"/>
</g>
<g>
</g>
<g>
</g>
<g>
</g>
<g>
</g>
<g>
</g>
<g>
</g>
<g>
</g>
<g>
</g>
<g>
</g>
<g>
</g>
<g>
</g>
<g>
</g>
<g>
</g>
<g>
</g>
<g>
</g>
</svg>
