<svg xmlns="http://www.w3.org/2000/svg" height="512pt" version="1.1" viewBox="0 0 512 512" width="512pt">
<g id="surface1">
<path d="M 512 256 C 512 397.386719 397.386719 512 256 512 C 114.613281 512 0 397.386719 0 256 C 0 114.613281 114.613281 0 256 0 C 397.386719 0 512 114.613281 512 256 Z M 512 256 " style=" stroke:none;fill-rule:nonzero;fill:rgb(70.980392%,88.627451%,21.568627%);fill-opacity:1;" />
<path d="M 512 256 C 512 282.050781 508.109375 307.191406 500.871094 330.871094 C 468.859375 435.71875 371.328125 512 256 512 C 151.441406 512 61.511719 449.300781 21.769531 359.449219 C 7.769531 327.820312 0 292.820312 0 256 C 0 209.78125 12.25 166.429688 33.679688 129 C 77.800781 206.070312 160.839844 258 256 258 C 351.160156 258 434.210938 206.070312 478.320312 129 C 499.75 166.429688 512 209.78125 512 256 Z M 512 256 " style=" stroke:none;fill-rule:nonzero;fill:rgb(58.431373%,83.921569%,0%);fill-opacity:1;" />
<path d="M 30.742188 377.703125 C 37.898438 390.921875 46.171875 403.441406 55.460938 415.128906 C 102.359375 474.148438 174.761719 512 256 512 C 337.238281 512 409.640625 474.148438 456.539062 415.128906 C 465.828125 403.441406 474.101562 390.921875 481.257812 377.703125 Z M 30.742188 377.703125 " style=" stroke:none;fill-rule:nonzero;fill:rgb(52.156863%,68.627451%,7.058824%);fill-opacity:1;" />
<path d="M 397.121094 469.621094 C 356.660156 496.398438 308.160156 512 256.019531 512 C 256.011719 512 256.011719 512 256 512 C 222.96875 512 191.398438 505.738281 162.410156 494.351562 C 145.628906 487.761719 129.710938 479.441406 114.878906 469.621094 C 125.578125 432.710938 151.898438 401.648438 187.628906 385.300781 L 187.640625 385.300781 C 190.621094 383.929688 193.671875 382.660156 196.78125 381.511719 L 203 379.210938 L 206.28125 377.988281 L 220.421875 372.75 L 221.378906 372.390625 L 225.679688 370.800781 L 286.320312 370.800781 L 290.648438 372.410156 L 291.570312 372.75 L 305.71875 377.988281 L 309 379.210938 L 315.21875 381.511719 C 318.328125 382.660156 321.378906 383.929688 324.359375 385.300781 L 324.371094 385.300781 C 360.089844 401.648438 386.410156 432.710938 397.121094 469.621094 Z M 397.121094 469.621094 " style=" stroke:none;fill-rule:nonzero;fill:rgb(43.921569%,21.960784%,72.941176%);fill-opacity:1;" />
<path d="M 256.019531 370.800781 L 256.019531 512 C 256.011719 512 256.011719 512 256 512 C 222.96875 512 191.398438 505.738281 162.410156 494.351562 C 145.628906 487.761719 129.710938 479.441406 114.878906 469.621094 C 125.578125 432.710938 151.898438 401.648438 187.628906 385.300781 L 187.640625 385.300781 C 190.621094 383.929688 193.671875 382.660156 196.78125 381.511719 L 203 379.210938 L 206.28125 377.988281 L 220.421875 372.75 L 221.378906 372.390625 L 225.679688 370.800781 Z M 256.019531 370.800781 " style=" stroke:none;fill-rule:nonzero;fill:rgb(55.686275%,30.980392%,82.352941%);fill-opacity:1;" />
<path d="M 256.019531 386.46875 L 256.019531 512 C 256.011719 512 256.011719 512 256 512 C 222.96875 512 191.398438 505.738281 162.410156 494.351562 C 170.628906 463.210938 187.96875 435.300781 211.960938 414.160156 C 217.929688 408.890625 224.320312 404.039062 231.078125 399.679688 C 238.898438 394.609375 247.230469 390.179688 256 386.480469 C 256 386.480469 256.011719 386.480469 256.011719 386.46875 Z M 256.019531 386.46875 " style=" stroke:none;fill-rule:nonzero;fill:rgb(55.686275%,30.980392%,82.352941%);fill-opacity:1;" />
<path d="M 256 437.667969 C 237.5625 420.730469 213.441406 411.335938 188.40625 411.335938 L 169.667969 411.335938 L 183.667969 390.683594 C 199.929688 366.699219 227.023438 352.335938 256 352.335938 Z M 256 437.667969 " style=" stroke:none;fill-rule:nonzero;fill:rgb(100%,91.372549%,33.333333%);fill-opacity:1;" />
<path d="M 256 437.667969 C 274.4375 420.730469 298.558594 411.335938 323.59375 411.335938 L 342.332031 411.335938 L 328.332031 390.683594 C 312.070312 366.699219 284.976562 352.335938 256 352.335938 Z M 256 437.667969 " style=" stroke:none;fill-rule:nonzero;fill:rgb(100%,62.352941%,0%);fill-opacity:1;" />
<path d="M 153.347656 243.953125 C 140.722656 243.953125 130.484375 254.191406 130.484375 266.816406 C 130.484375 289.816406 149.128906 308.460938 172.128906 308.460938 L 172.128906 243.902344 Z M 153.347656 243.953125 " style=" stroke:none;fill-rule:nonzero;fill:rgb(100%,65.882353%,47.843137%);fill-opacity:1;" />
<path d="M 358.683594 243.953125 C 371.308594 243.953125 381.546875 254.191406 381.546875 266.816406 C 381.546875 289.816406 362.902344 308.460938 339.902344 308.460938 L 339.902344 243.902344 Z M 358.683594 243.953125 " style=" stroke:none;fill-rule:nonzero;fill:rgb(89.019608%,51.372549%,35.294118%);fill-opacity:1;" />
<path d="M 290.652344 326.351562 L 290.652344 375.636719 C 290.652344 394.761719 275.148438 410.277344 256.011719 410.277344 C 236.886719 410.277344 221.375 394.761719 221.375 375.636719 L 221.375 326.351562 Z M 290.652344 326.351562 " style=" stroke:none;fill-rule:nonzero;fill:rgb(100%,65.882353%,47.843137%);fill-opacity:1;" />
<path d="M 290.652344 326.351562 L 290.652344 375.636719 C 290.652344 394.761719 275.148438 410.277344 256.011719 410.277344 L 256.011719 326.351562 Z M 290.652344 326.351562 " style=" stroke:none;fill-rule:nonzero;fill:rgb(89.019608%,51.372549%,35.294118%);fill-opacity:1;" />
<path d="M 345.386719 248.246094 L 345.386719 281.941406 C 345.386719 331.277344 305.386719 371.304688 256.03125 371.3125 C 256.023438 371.3125 256.023438 371.3125 256.011719 371.3125 C 206.675781 371.3125 166.648438 331.289062 166.648438 281.941406 L 166.648438 248.246094 C 166.648438 243.171875 167.066406 238.191406 167.902344 233.351562 C 173.730469 198.539062 199.707031 170.558594 233.417969 161.753906 C 240.632812 159.882812 248.21875 158.886719 256.011719 158.886719 C 256.023438 158.886719 256.023438 158.886719 256.03125 158.886719 C 263.84375 158.886719 271.421875 159.882812 278.632812 161.773438 C 312.34375 170.558594 338.296875 198.539062 344.132812 233.351562 C 344.960938 238.191406 345.386719 243.171875 345.386719 248.246094 Z M 345.386719 248.246094 " style=" stroke:none;fill-rule:nonzero;fill:rgb(100%,75.294118%,64.313725%);fill-opacity:1;" />
<path d="M 345.386719 248.246094 L 345.386719 281.941406 C 345.386719 331.277344 305.386719 371.304688 256.03125 371.3125 L 256.03125 158.882812 C 263.84375 158.882812 271.421875 159.882812 278.632812 161.769531 C 312.34375 170.554688 338.296875 198.535156 344.132812 233.351562 C 344.960938 238.191406 345.386719 243.171875 345.386719 248.246094 Z M 345.386719 248.246094 " style=" stroke:none;fill-rule:nonzero;fill:rgb(100%,65.882353%,47.843137%);fill-opacity:1;" />
<path d="M 238.984375 270.738281 C 238.984375 276.8125 234.058594 281.738281 227.980469 281.738281 C 221.902344 281.738281 216.976562 276.8125 216.976562 270.738281 C 216.976562 264.660156 221.902344 259.734375 227.980469 259.734375 C 234.058594 259.734375 238.984375 264.660156 238.984375 270.738281 Z M 238.984375 270.738281 " style=" stroke:none;fill-rule:nonzero;fill:rgb(19.607843%,23.137255%,35.294118%);fill-opacity:1;" />
<path d="M 295.050781 270.738281 C 295.050781 276.8125 290.125 281.738281 284.050781 281.738281 C 277.972656 281.738281 273.046875 276.8125 273.046875 270.738281 C 273.046875 264.660156 277.972656 259.734375 284.050781 259.734375 C 290.125 259.734375 295.050781 264.660156 295.050781 270.738281 Z M 295.050781 270.738281 " style=" stroke:none;fill-rule:nonzero;fill:rgb(19.607843%,23.137255%,35.294118%);fill-opacity:1;" />
<path d="M 282.332031 315.53125 C 290.109375 315.53125 294.25 324.863281 288.902344 330.511719 C 285.550781 334.046875 281.632812 337.042969 277.300781 339.355469 C 270.957031 342.75 263.714844 344.667969 256.015625 344.667969 C 248.316406 344.667969 241.070312 342.75 234.730469 339.355469 C 230.394531 337.042969 226.480469 334.046875 223.128906 330.511719 C 217.78125 324.863281 221.921875 315.53125 229.699219 315.53125 Z M 282.332031 315.53125 " style=" stroke:none;fill-rule:nonzero;fill:rgb(19.607843%,23.137255%,35.294118%);fill-opacity:1;" />
<path d="M 364.554688 239.992188 C 364.554688 245.210938 360.632812 249.613281 355.449219 250.222656 C 350.957031 250.753906 346.382812 251.019531 341.757812 251.019531 C 307.851562 251.019531 277.3125 236.539062 256.03125 213.386719 C 234.734375 236.539062 204.203125 251.019531 170.296875 251.019531 C 165.722656 251.019531 161.214844 250.761719 156.769531 250.242188 C 154.121094 249.941406 151.808594 248.652344 150.140625 246.789062 C 148.480469 244.917969 147.472656 242.472656 147.472656 239.796875 C 147.472656 199.367188 169.300781 161.621094 205.128906 142.894531 C 212.378906 139.113281 220.09375 136.105469 228.175781 133.992188 C 237.054688 131.691406 246.40625 130.460938 256.011719 130.460938 C 256.023438 130.460938 256.023438 130.460938 256.03125 130.460938 C 265.65625 130.460938 274.996094 131.6875 283.871094 134.019531 C 288.488281 135.222656 292.980469 136.722656 297.34375 138.480469 C 317.855469 146.789062 334.65625 161.101562 346.328125 178.875 C 358.003906 196.628906 364.554688 217.863281 364.554688 239.992188 Z M 364.554688 239.992188 " style=" stroke:none;fill-rule:nonzero;fill:rgb(21.960784%,30.980392%,40.784314%);fill-opacity:1;" />
<path d="M 364.554688 239.992188 C 364.554688 245.210938 360.632812 249.613281 355.449219 250.222656 C 350.957031 250.753906 346.382812 251.019531 341.757812 251.019531 C 307.851562 251.019531 277.3125 236.539062 256.03125 213.386719 L 256.03125 130.460938 C 265.65625 130.460938 274.996094 131.6875 283.871094 134.019531 C 288.488281 135.222656 292.984375 136.722656 297.34375 138.480469 C 317.855469 146.789062 334.65625 161.101562 346.332031 178.875 C 358.003906 196.628906 364.554688 217.863281 364.554688 239.992188 Z M 364.554688 239.992188 " style=" stroke:none;fill-rule:nonzero;fill:rgb(19.607843%,23.137255%,35.294118%);fill-opacity:1;" />
<path d="M 256.015625 300.867188 C 252.359375 300.867188 249.394531 297.902344 249.394531 294.246094 L 249.394531 260.984375 C 249.394531 257.328125 252.359375 254.363281 256.015625 254.363281 C 259.671875 254.363281 262.636719 257.328125 262.636719 260.984375 L 262.636719 294.246094 C 262.636719 297.902344 259.671875 300.867188 256.015625 300.867188 Z M 256.015625 300.867188 " style=" stroke:none;fill-rule:nonzero;fill:rgb(89.019608%,51.372549%,35.294118%);fill-opacity:1;" />
<path d="M 277.300781 339.351562 C 270.957031 342.75 263.714844 344.667969 256.015625 344.667969 C 248.316406 344.667969 241.070312 342.75 234.730469 339.351562 C 240.023438 333.617188 247.601562 330.023438 256.015625 330.023438 C 264.429688 330.023438 272.003906 333.617188 277.300781 339.351562 Z M 277.300781 339.351562 " style=" stroke:none;fill-rule:nonzero;fill:rgb(89.019608%,14.901961%,26.666667%);fill-opacity:1;" />
<path d="M 370.460938 218.328125 L 370.460938 227 L 347.871094 227 C 340.191406 227 332.800781 224.390625 326.640625 219.808594 C 308.539062 206.328125 286.109375 198.339844 261.789062 198.339844 L 250.210938 198.339844 C 225.890625 198.339844 203.460938 206.328125 185.359375 219.808594 C 179.199219 224.390625 171.808594 227 164.128906 227 L 141.539062 227 L 141.539062 218.328125 C 141.539062 188.320312 153.699219 161.160156 173.371094 141.5 C 193.03125 121.828125 220.199219 109.671875 250.210938 109.671875 L 261.789062 109.671875 C 321.808594 109.671875 370.460938 158.320312 370.460938 218.328125 Z M 370.460938 218.328125 " style=" stroke:none;fill-rule:nonzero;fill:rgb(55.686275%,30.980392%,82.352941%);fill-opacity:1;" />
<path d="M 370.460938 218.328125 L 370.460938 227 L 347.871094 227 C 340.191406 227 332.800781 224.390625 326.640625 219.808594 C 308.539062 206.328125 286.109375 198.339844 261.789062 198.339844 L 256 198.339844 L 256 109.671875 L 261.789062 109.671875 C 321.808594 109.671875 370.460938 158.320312 370.460938 218.328125 Z M 370.460938 218.328125 " style=" stroke:none;fill-rule:nonzero;fill:rgb(43.921569%,21.960784%,72.941176%);fill-opacity:1;" />
<path d="M 348.730469 227 L 347.871094 227 C 340.191406 227 332.800781 224.390625 326.640625 219.808594 C 308.539062 206.328125 286.109375 198.339844 261.789062 198.339844 L 250.210938 198.339844 C 225.890625 198.339844 203.460938 206.328125 185.359375 219.808594 C 179.199219 224.390625 171.808594 227 164.128906 227 L 163.269531 227 C 163.550781 226.570312 163.839844 226.140625 164.128906 225.71875 C 184.089844 196.320312 217.78125 177 256 177 C 294.769531 177 328.890625 196.878906 348.730469 227 Z M 348.730469 227 " style=" stroke:none;fill-rule:nonzero;fill:rgb(67.843137%,52.54902%,91.764706%);fill-opacity:1;" />
<path d="M 348.730469 227 L 347.871094 227 C 340.191406 227 332.800781 224.390625 326.640625 219.808594 C 308.539062 206.328125 286.109375 198.339844 261.789062 198.339844 L 256 198.339844 L 256 177 C 294.769531 177 328.890625 196.878906 348.730469 227 Z M 348.730469 227 " style=" stroke:none;fill-rule:nonzero;fill:rgb(55.686275%,30.980392%,82.352941%);fill-opacity:1;" />
<path d="M 256 113.679688 L 256 177 C 217.78125 177 184.089844 196.320312 164.128906 225.71875 L 164.128906 206.429688 C 164.128906 180.820312 174.519531 157.621094 191.300781 140.839844 C 207.890625 124.25 230.738281 113.921875 256 113.679688 Z M 256 113.679688 " style=" stroke:none;fill-rule:nonzero;fill:rgb(100%,81.960784%,7.058824%);fill-opacity:1;" />
<path d="M 349.671875 206.429688 L 349.671875 227 L 348.730469 227 C 328.890625 196.878906 294.769531 177 256 177 L 256 113.679688 C 256.300781 113.671875 256.601562 113.671875 256.898438 113.671875 C 308.128906 113.671875 349.671875 155.199219 349.671875 206.429688 Z M 349.671875 206.429688 " style=" stroke:none;fill-rule:nonzero;fill:rgb(100%,62.352941%,0%);fill-opacity:1;" />
</g>
</svg>