<?xml version="1.0" encoding="iso-8859-1"?>
<!-- Generator: Adobe Illustrator 19.0.0, SVG Export Plug-In . SVG Version: 6.00 Build 0)  -->
<svg version="1.1" id="Capa_1" xmlns="http://www.w3.org/2000/svg" xmlns:xlink="http://www.w3.org/1999/xlink" x="0px" y="0px"
	 viewBox="0 0 512 512" style="enable-background:new 0 0 512 512;" xml:space="preserve">
<path style="fill:#E25D1B;" d="M389.449,267.742c0,65.989-47.886,120.781-110.808,131.535c-7.358,1.256-14.923,1.914-22.641,1.914
	c-73.708,0-133.45-59.742-133.45-133.45c0-73.697,59.742-133.45,133.45-133.45c7.719,0,15.283,0.659,22.641,1.914
	C341.563,146.961,389.449,201.763,389.449,267.742z"/>
<path style="fill:#FF9A47;" d="M389.449,267.742c0,65.989-47.886,120.781-110.808,131.535
	c-62.922-10.744-110.808-65.546-110.808-131.535c0-65.979,47.886-120.791,110.808-131.535
	C341.563,146.961,389.449,201.763,389.449,267.742z"/>
<path style="fill:#FFCB47;" d="M508.141,364.678v128.314c0,10.497-8.511,19.008-19.019,19.008H22.867
	c-10.497,0-19.008-8.511-19.008-19.008V315.278C175.366,225.753,329.965,364.678,508.141,364.678z"/>
<path style="fill:#E58B25;" d="M508.141,412.224v80.768c0,10.497-8.511,19.008-19.019,19.008H22.867
	c-10.497,0-19.008-8.511-19.008-19.008v-31.379C182.025,461.613,336.634,322.688,508.141,412.224z"/>
<g>
	<path style="fill:#FF9A47;" d="M256,113.338c-4.263,0-7.719-3.456-7.719-7.719V7.719C248.281,3.456,251.737,0,256,0
		s7.718,3.456,7.718,7.719v97.901C263.718,109.883,260.263,113.338,256,113.338z"/>
	<path style="fill:#FF9A47;" d="M174.944,135.06c-2.668,0-5.262-1.384-6.692-3.86l-33.095-57.323
		c-2.131-3.692-0.867-8.412,2.825-10.544c3.691-2.132,8.411-0.868,10.544,2.825l33.095,57.323c2.131,3.692,0.867,8.412-2.825,10.544
		C177.581,134.727,176.254,135.06,174.944,135.06z"/>
	<path style="fill:#FF9A47;" d="M115.589,194.402c-1.309,0-2.637-0.333-3.852-1.035L27.272,144.6
		c-3.692-2.131-4.956-6.852-2.825-10.544s6.851-4.957,10.544-2.825l84.465,48.765c3.692,2.131,4.956,6.852,2.825,10.544
		C120.851,193.017,118.257,194.402,115.589,194.402z"/>
	<path style="fill:#FF9A47;" d="M93.875,275.463h-73.55c-4.263,0-7.719-3.456-7.719-7.719s3.456-7.719,7.719-7.719h73.551
		c4.263,0,7.719,3.456,7.719,7.719S98.139,275.463,93.875,275.463z"/>
	<path style="fill:#FF9A47;" d="M485.499,275.463h-67.376c-4.264,0-7.719-3.456-7.719-7.719s3.455-7.719,7.719-7.719h67.376
		c4.264,0,7.719,3.456,7.719,7.719S489.763,275.463,485.499,275.463z"/>
	<path style="fill:#FF9A47;" d="M396.41,194.402c-2.668,0-5.262-1.384-6.692-3.86c-2.131-3.692-0.867-8.412,2.825-10.544
		l84.465-48.765c3.691-2.132,8.413-0.867,10.544,2.825c2.131,3.692,0.867,8.412-2.825,10.544l-84.465,48.765
		C399.046,194.068,397.719,194.402,396.41,194.402z"/>
	<path style="fill:#FF9A47;" d="M337.055,135.06c-1.309,0-2.637-0.333-3.852-1.035c-3.692-2.131-4.956-6.852-2.825-10.544
		l33.867-58.659c2.13-3.693,6.85-4.958,10.544-2.825c3.692,2.131,4.956,6.852,2.825,10.544L343.746,131.2
		C342.317,133.676,339.722,135.06,337.055,135.06z"/>
</g>
<g>
	<path style="fill:#E58B25;" d="M49.142,415.866c-6.77,0-10.274-8.573-5.347-13.286c2.381-2.279,6.069-2.797,8.98-1.24
		c2.889,1.546,4.548,4.886,3.965,8.124C56.084,413.109,52.87,415.866,49.142,415.866z"/>
	<path style="fill:#E58B25;" d="M68.696,431.304c-6.932,0-10.341-8.892-5.108-13.497c2.344-2.063,5.782-2.521,8.575-1.114
		c2.973,1.498,4.701,4.871,4.143,8.164C75.687,428.519,72.425,431.304,68.696,431.304z"/>
	<path style="fill:#E58B25;" d="M42.967,439.537c-7.026,0-10.32-9.017-5.015-13.586c2.531-2.18,6.319-2.435,9.136-0.655
		c2.661,1.683,4.065,4.933,3.443,8.024C49.814,436.885,46.616,439.537,42.967,439.537z"/>
</g>
<g>
	<path style="fill:#FFCB47;" d="M404.198,448.408c-3.15,0-6.073-1.997-7.199-4.943c-1.259-3.295-0.09-7.165,2.844-9.15
		c5.651-3.824,13.405,1.329,11.878,8.061C410.934,445.855,407.773,448.408,404.198,448.408z"/>
	<path style="fill:#FFCB47;" d="M423.752,463.845c-3.505,0-6.631-2.46-7.484-5.848c-0.758-3.011,0.424-6.305,2.949-8.121
		c5.572-4.01,13.452,1,12.1,7.752C430.602,461.193,427.391,463.845,423.752,463.845z"/>
	<path style="fill:#FFCB47;" d="M398.023,472.078c-3.505,0-6.63-2.459-7.484-5.848c-0.758-3.011,0.424-6.305,2.949-8.121
		c5.572-4.01,13.452,0.999,12.1,7.752C404.873,469.426,401.663,472.078,398.023,472.078z"/>
</g>
<g>
</g>
<g>
</g>
<g>
</g>
<g>
</g>
<g>
</g>
<g>
</g>
<g>
</g>
<g>
</g>
<g>
</g>
<g>
</g>
<g>
</g>
<g>
</g>
<g>
</g>
<g>
</g>
<g>
</g>
</svg>
