<svg height="511pt" viewBox="1 0 511.9995 511" width="511pt" xmlns="http://www.w3.org/2000/svg"><path d="m511.886719 92.875c0 23.648438-9.019531 47.285156-27.058594 65.324219l-5.222656 5.234375-209.914063 209.902344-130.648437-130.648438 209.902343-209.902344h.011719l5.222657-5.234375c36.078124-36.070312 94.566406-36.070312 130.648437 0 18.039063 18.042969 27.058594 41.6875 27.058594 65.324219zm0 0" fill="#857e87"/><path d="m484.824219 27.550781c-10.992188-10.988281-24.074219-18.613281-37.960938-22.90625 1.367188 1.214844 2.714844 2.464844 4.023438 3.773438 18.042969 18.039062 27.0625 41.6875 27.0625 65.324219 0 23.648437-9.023438 47.28125-27.0625 65.324218l-5.21875 5.230469-202.511719 202.5 26.535156 26.539063 209.910156-209.902344 5.222657-5.234375c18.042969-18.039063 27.0625-41.675781 27.0625-65.324219 0-23.636719-9.019531-47.28125-27.0625-65.324219zm0 0" fill="#6f6571"/><path d="m127.09375 386.957031-16.550781-37.191406-73.839844 16.335937 3.042969 1.125 43.242187 62.242188 61.703125 42.703125 1.125 3.042969 16.335938-73.839844zm0 0" fill="#4b3f4e"/><path d="m139.046875 242.6875 130.648437 130.644531-177.707031 46.136719zm0 0" fill="#5d5360"/><path d="m243.300781 346.941406-151.3125 72.527344 177.707031-46.136719zm0 0" fill="#4b3f4e"/><g fill="#5d5360"><path d="m107.121094 511.390625-106.132813-106.128906c-1.316406-1.320313-1.316406-3.457031 0-4.777344l33.621094-33.621094c1.320313-1.316406 3.457031-1.316406 4.773437 0l106.132813 106.132813c1.316406 1.316406 1.316406 3.453125 0 4.773437l-33.621094 33.621094c-1.320312 1.320313-3.457031 1.320313-4.773437 0zm0 0"/><path d="m275.34375 166.09375c-2.054688 0-4.109375-.785156-5.675781-2.351562-3.132813-3.132813-3.132813-8.214844 0-11.347657l53.152343-53.152343c3.136719-3.136719 8.214844-3.136719 11.351563 0 3.132813 3.132812 3.132813 8.214843 0 11.347656l-53.152344 53.152344c-1.570312 1.566406-3.621093 2.351562-5.675781 2.351562zm0 0"/><path d="m354.375 245.125c-2.054688 0-4.109375-.78125-5.675781-2.351562-3.132813-3.132813-3.132813-8.214844 0-11.347657l53.152343-53.152343c3.136719-3.136719 8.21875-3.132813 11.351563 0 3.132813 3.132812 3.132813 8.214843 0 11.347656l-53.152344 53.152344c-1.566406 1.566406-3.621093 2.351562-5.675781 2.351562zm0 0"/><path d="m511.886719 92.875c0 23.648438-9.019531 47.285156-27.058594 65.324219l-5.222656 5.234375-130.648438-130.648438 5.222657-5.234375c36.078124-36.070312 94.566406-36.070312 130.644531 0 18.042969 18.042969 27.0625 41.6875 27.0625 65.324219zm0 0"/></g><path d="m446.976562 4.644531c1.367188 1.214844 2.714844 2.464844 4.023438 3.773438 18.042969 18.039062 27.058594 41.6875 27.058594 65.324219 0 22.691406-8.328125 45.355468-24.9375 63.09375l26.59375 26.597656 5.226562-5.230469c18.039063-18.042969 27.058594-41.679687 27.058594-65.324219 0-23.636718-9.023438-47.285156-27.058594-65.324218-10.996094-10.992188-24.078125-18.617188-37.964844-22.910157zm0 0" fill="#4b3f4e"/></svg>