<svg id="Layer_1" enable-background="new 0 0 512 512" height="512" viewBox="0 0 512 512" width="512" xmlns="http://www.w3.org/2000/svg"><g><g><g><g><path d="m511.123 247.804c-4.329-137.387-117.05-247.437-255.489-247.437-98.375 0-158.974 55.49-159.141 55.583 0 0-2.519 3.145-2.99 5.235-3.827 16.99-7.403 39.762-7.403 56.378 0 47.574 13.535 92.099 36.862 130.242h388.161z" fill="#4278c3"/></g></g><g><g><g><path d="m49.575 247.804h81.196c-25.376-39.7-40.087-86.874-40.087-137.487 0-18.661 2.012-36.844 5.809-54.369-8.083 6.439-15.767 13.358-23.009 20.713-.086.087-.172.175-.259.263-15.273 15.558-23.65 36.606-23.65 58.407z" fill="#3b69af"/></g></g></g></g><g><g><g><path d="m78.046 242.981c-41.685-40.429-17.005-141.671 62.5-136.016-17.67-17.06-41.08-28.211-67.047-30.286-45.434 46.143-73.499 109.45-73.499 179.321 0 2.582.039 5.156.117 7.719.002.068.004.136.006.204.347 11.154 9.592 19.97 20.751 19.97h57.173z" fill="#93d8e4"/></g></g><g><g><path d="m134.44 245.558c-89.705 0-93.929-134.215-4.336-138.694 1.472-.073 2.959-.111 4.462-.111 1.48 0 2.95.039 4.411.116-10.337-3.776-21.499-5.836-33.143-5.836-32.806 0-61.788 16.36-79.244 41.363-6.684 13.445-12.211 27.564-16.469 42.225-.572 4.253-.874 8.59-.874 12.999 0 53.343 43.243 96.586 96.586 96.586 27.223 0 51.815-11.263 69.373-29.383-9.675-11.764-24.344-19.265-40.766-19.265z" fill="#70c6da"/></g></g></g><g><g><g><path d="m320.299 256c-150.842-5.306-89.581-155.837 5.975-149.034-19.651-18.972-46.397-30.643-75.869-30.643-74.566 0-122.462 70.681-106.069 135.861 4.264 16.953-8.642 33.374-26.124 33.374-14.865 0-26.916 12.051-26.916 26.916v36.654h281.633v-10.809c-.001-29.14-23.491-42.319-52.63-42.319z" fill="#93d8e4"/></g></g><g><g><path d="m320.168 245.558c-89.705 0-93.929-134.215-4.336-138.694 1.472-.073 2.959-.111 4.462-.111 1.48 0 2.95.039 4.411.116-10.337-3.776-21.499-5.836-33.143-5.836-53.343 0-96.586 43.243-96.586 96.586s43.243 96.586 96.586 96.586c27.223 0 51.815-11.263 69.373-29.383-9.677-11.763-24.347-19.264-40.767-19.264z" fill="#70c6da"/></g></g></g><g><g><path d="m460.62 252.662c-66.25-25.553-48.055-155.835 51.38-145.696-19.651-18.972-46.397-30.643-75.869-30.643-74.566 0-122.462 70.681-106.069 135.861 4.264 16.953-8.642 33.374-26.124 33.374-14.865 0-26.916 12.051-26.916 26.916v36.654h201.649z" fill="#93d8e4"/></g></g><g><g><g><path d="m511.048 245.824c-2.967-.288-4.626-.252-5.154-.267-65.198 0-85.235-70.894-56.923-111.352.003.003.007.005.01.008 13.964-19.955 36.829-28.636 61.45-27.345-16.236-5.932-33.645-7.298-50.321-4.302-.002-.003-.005-.006-.007-.01-15.383 2.761-23.914 7.764-31.73 11.767-28.525 16.787-47.672 47.802-47.672 83.294 0 53.343 43.243 96.586 96.586 96.586l33.872-30.909c.161-5.876.115-11.677-.111-17.47z" fill="#70c6da"/></g></g></g><g><g><path d="m461.004 368.655c15.26 0 29.04-9.392 34.347-23.7.03-.082.061-.163.091-.246 4.1-11.089 7.458-22.553 10.011-34.336.163-1.001 4.936-20.054 5.707-47.076-28.33 1.754-29.858 19.9-61.055 19.9-32.78 0-32.78-20.05-65.562-20.05-32.779 0-32.779 20.05-65.558 20.05-32.778 0-32.778-20.05-65.556-20.05-32.776 0-32.776 20.05-65.553 20.05-23.209 0-29.993-10.047-43.607-15.915v101.372z" fill="#c1f8f4"/></g></g><g><g><path d="m241.457 343.5c-38.151-17.177-71.328-43.436-96.77-76.033-5.695-2.516-12.559-4.318-22.367-4.318-32.778 0-32.778 20.05-65.556 20.05-29.494 0-32.46-16.227-56.637-19.479.9 29.247 6.715 57.309 16.66 83.362.02.053.04.106.06.158 3.576 9.349 12.636 15.455 22.646 15.455h197.857c10.825 0 13.978-14.752 4.107-19.195z" fill="#93ede7"/></g></g><g><g><path d="m422.534 354.383c-10.338-5.794-18.181-13.112-37.991-13.112-32.779 0-32.779 20.05-65.558 20.05-32.778 0-32.778-20.05-65.556-20.05-6.333 0-11.433.754-15.791 1.962v24.76h187.397z" fill="#93d8e4"/></g></g><g><g><path d="m426.542 435.535 13.698-2.746c24.084-25.136 42.99-55.079 55.19-88.085-14.8 5.727-21.162 16.615-45.326 16.615-12.97 0-20.804-3.142-27.57-6.935-24.072 7.513-49.669 11.567-76.216 11.567-38.055 0-74.161-8.328-106.612-23.242-19.917 4.587-24.411 18.61-51.829 18.61-32.778 0-32.778-20.05-65.555-20.05-32.778 0-32.778 20.05-65.556 20.05-21.037 0-28.58-8.255-39.945-14.171 12.008 31.429 30.247 60.357 53.56 84.925l25.403 3.462z" fill="#70c6da"/></g></g><g><g><path d="m318.985 433.503c-32.778 0-32.778-20.05-65.556-20.05-32.776 0-32.776 20.05-65.553 20.05-32.778 0-32.778-20.05-65.555-20.05-27.481 0-31.931 14.087-51.965 18.642 46.567 48.989 112.35 79.537 185.278 79.537 72.172 0 137.881-30.083 184.611-78.84-23.315-3.543-26.595-19.34-55.702-19.34-32.779.002-32.779 20.051-65.558 20.051z" fill="#5ea5ec"/></g></g></g></svg>