<?xml version="1.0" encoding="iso-8859-1"?>
<!-- Generator: Adobe Illustrator 19.0.0, SVG Export Plug-In . SVG Version: 6.00 Build 0)  -->
<svg version="1.1" id="Capa_1" xmlns="http://www.w3.org/2000/svg" xmlns:xlink="http://www.w3.org/1999/xlink" x="0px" y="0px"
	 viewBox="0 0 512 512" style="enable-background:new 0 0 512 512;" xml:space="preserve">
<polygon style="fill:#4F5669;" points="452,346 226,346 256,166 452,166 "/>
<rect x="60" y="166" style="fill:#707789;" width="196" height="180"/>
<polygon style="fill:#4F5669;" points="452,105 226,105 256,15 452,15 "/>
<rect x="60" y="15" style="fill:#707789;" width="196" height="90"/>
<polygon style="fill:#384055;" points="452,166 226,166 256,105 452,105 "/>
<g>
	<rect x="60" y="105" style="fill:#4F5669;" width="196" height="61"/>
	<polygon style="fill:#4F5669;" points="452,407 226,407 256,497 452,497 	"/>
</g>
<rect x="60" y="407" style="fill:#707789;" width="196" height="90"/>
<polygon style="fill:#384055;" points="452,346 226,346 256,407 452,407 "/>
<rect x="60" y="346" style="fill:#4F5669;" width="196" height="61"/>
<polygon style="fill:#707789;" points="467,120 256,120 211.579,105 256,90 467,90 "/>
<rect x="45" y="90" style="fill:#9097A8;" width="211" height="30"/>
<polygon style="fill:#707789;" points="467,422 256,422 211.579,407 256,392 467,392 "/>
<rect x="45" y="392" style="fill:#9097A8;" width="211" height="30"/>
<polygon style="fill:#707789;" points="467,512 256,512 211.579,497 256,482 467,482 "/>
<rect x="45" y="482" style="fill:#9097A8;" width="211" height="30"/>
<polygon style="fill:#707789;" points="467,30 256,30 211.579,15 256,0 467,0 "/>
<rect x="45" style="fill:#9097A8;" width="211" height="30"/>
<polygon style="fill:#707789;" points="467,362 256,362 211.579,347 256,332 467,332 "/>
<rect x="45" y="332" style="fill:#9097A8;" width="211" height="30"/>
<polygon style="fill:#707789;" points="467,180 256,180 211.579,165 256,150 467,150 "/>
<rect x="45" y="150" style="fill:#9097A8;" width="211" height="30"/>
<g>
</g>
<g>
</g>
<g>
</g>
<g>
</g>
<g>
</g>
<g>
</g>
<g>
</g>
<g>
</g>
<g>
</g>
<g>
</g>
<g>
</g>
<g>
</g>
<g>
</g>
<g>
</g>
<g>
</g>
</svg>
