<svg id="Capa_1" enable-background="new 0 0 512 512" height="512" viewBox="0 0 512 512" width="512" xmlns="http://www.w3.org/2000/svg"><g><path d="m196 7.5c-5.467 0-10.587 1.469-15.001 4.023v274.477h75.001l-30-98.5v-150c0-16.569-13.431-30-30-30z" fill="#ffb957"/><path d="m180.999 11.523c-8.964 5.187-14.999 14.874-14.999 25.977v165l-30 83.5h60v-248.5c0-11.103-6.036-20.789-15.001-25.977z" fill="#ffcc5c"/><path d="m376 286-120 218.5c82.843 0 150-67.157 150-150v-68.5z" fill="#ffb957"/><path d="m376 354.5v-98.5h-240v98.5l120 150c66.274 0 120-67.157 120-150z" fill="#ffcc5c"/><path d="m376 202.5c-5.466 0-10.586 1.469-15 4.023v105.453c4.414 2.554 9.534 4.023 15 4.023 16.569 0 30-13.431 30-30v-53.5c0-16.568-13.431-29.999-30-29.999z" fill="#ffdf75"/><path d="m376 286v-53.5c0-11.102-6.036-20.789-15-25.977-8.964 5.188-15 14.874-15 25.977l-30 26.75 30 26.75c0 11.102 6.036 20.789 15 25.977 8.964-5.188 15-14.875 15-25.977z" fill="#ffecb3"/><path d="m316 172.5c-5.466 0-10.586 1.469-15 4.023v135.453c4.414 2.554 9.534 4.023 15 4.023 16.569 0 30-13.431 30-30v-83.5c0-16.568-13.431-29.999-30-29.999z" fill="#ffdf75"/><path d="m316 286v-83.5c0-11.102-6.036-20.789-15-25.977-8.964 5.188-15 14.874-15 25.977l-30 41.75 30 41.75c0 11.102 6.036 20.789 15 25.977 8.964-5.188 15-14.875 15-25.977z" fill="#ffecb3"/><path d="m256 157.5c-5.466 0-10.586 1.469-15 4.023v150.453c4.414 2.554 9.534 4.023 15 4.023 16.569 0 30-13.431 30-30v-98.5c0-16.568-13.431-29.999-30-29.999z" fill="#ffdf75"/><path d="m256 286v-98.5c0-11.102-6.036-20.789-15-25.977-8.964 5.188-15 14.874-15 25.977v98.5c0 11.102 6.036 20.789 15 25.977 8.964-5.188 15-14.875 15-25.977z" fill="#ffecb3"/><path d="m166 299.75v-97.25c0-16.57-13.43-30-30-30-5.466 0-10.586 1.469-15 4.023v184.967l63.52-34.02c-11.21-4.65-18.52-15.59-18.52-27.72z" fill="#faa755"/><path d="m230.44 346.49-75.92-31.446c-11.21-4.643-18.52-15.583-18.52-27.717v-84.827c0-11.104-6.035-20.79-15-25.977-8.965 5.188-15 14.874-15 25.977v152c0 82.84 67.16 150 150 150h.29c16.45-.06 29.71-13.57 29.71-30.03v-44.83c0-36.41-21.93-69.22-55.56-83.15z" fill="#ffb957"/><path d="m376 195c-8.436 0-16.228 2.801-22.5 7.52 0-20.698-16.822-37.52-37.5-37.52-9.525 0-18.226 3.575-24.847 9.447-5.313-14.261-19.064-24.447-35.153-24.447-8.435 0-16.229 2.8-22.5 7.518v-120.018c0-20.678-16.822-37.5-37.5-37.5s-37.5 16.822-37.5 37.5v135.02c-6.272-4.719-14.064-7.52-22.5-7.52-20.678 0-37.5 16.822-37.5 37.5v152c0 36.258 12.627 71.657 35.556 99.676 1.483 1.812 3.637 2.75 5.809 2.75 1.67 0 3.352-.555 4.745-1.696 3.206-2.623 3.678-7.348 1.055-10.554-20.742-25.345-32.165-57.371-32.165-90.176v-152c0-12.407 10.093-22.5 22.5-22.5s22.5 10.093 22.5 22.5v97.249c0 15.222 9.087 28.821 23.149 34.646l45.922 19.021c30.938 12.815 50.929 42.733 50.929 76.22 0 4.142 3.358 7.5 7.5 7.5s7.5-3.358 7.5-7.5c0-39.575-23.625-74.933-60.188-90.079l-45.922-19.021c-8.438-3.495-13.89-11.654-13.89-20.787v-262.249c0-12.407 10.093-22.5 22.5-22.5s22.5 10.093 22.5 22.5v248.5c0 20.678 16.822 37.5 37.5 37.5 12.254 0 23.153-5.909 30-15.026 6.847 9.117 17.746 15.026 30 15.026s23.153-5.909 30-15.026c6.847 9.117 17.746 15.026 30 15.026 8.436 0 16.228-2.801 22.5-7.52v38.52c0 78.575-63.925 142.5-142.5 142.5-32.805 0-64.831-11.423-90.177-32.165-3.206-2.623-7.931-2.15-10.554 1.054-2.624 3.206-2.151 7.931 1.054 10.554 28.019 22.93 63.419 35.557 99.677 35.557 86.846 0 157.5-70.654 157.5-157.5v-122c0-20.678-16.822-37.5-37.5-37.5zm-120 113.5c-12.407 0-22.5-10.093-22.5-22.5v-98.5c0-12.407 10.093-22.5 22.5-22.5s22.5 10.093 22.5 22.5v98.5c0 12.407-10.093 22.5-22.5 22.5zm60 0c-12.407 0-22.5-10.093-22.5-22.5v-83.5c0-12.407 10.093-22.5 22.5-22.5s22.5 10.093 22.5 22.5v83.5c0 12.407-10.093 22.5-22.5 22.5zm60 0c-12.407 0-22.5-10.093-22.5-22.5v-53.5c0-12.407 10.093-22.5 22.5-22.5s22.5 10.093 22.5 22.5v53.5c0 12.407-10.093 22.5-22.5 22.5z"/></g></svg>