<?xml version="1.0" encoding="iso-8859-1"?>
<!-- Generator: Adobe Illustrator 19.0.0, SVG Export Plug-In . SVG Version: 6.00 Build 0)  -->
<svg version="1.1" id="Capa_1" xmlns="http://www.w3.org/2000/svg" xmlns:xlink="http://www.w3.org/1999/xlink" x="0px" y="0px"
	 viewBox="0 0 512 512" style="enable-background:new 0 0 512 512;" xml:space="preserve">
<path style="fill:#B758CE;" d="M257,0C116.3,0,0,114.3,0,255s116.3,257,257,257s255-116.3,255-257S397.7,0,257,0z"/>
<path style="fill:#AA3DC8;" d="M512,255c0,140.7-114.3,257-255,257V0C397.7,0,512,114.3,512,255z"/>
<path style="fill:#E1E4FB;" d="M384.2,382.2C350.3,416.4,305,437,257,437s-95.3-20.6-129.2-54.8
	c-70.439-69.82-70.484-184.535,0-254.399c11.844-11.844,30.894-11.406,42.299,0c11.7,11.699,11.7,30.599,0,42.299
	c-46.825,47.45-46.847,122.33,0,169.799c21.601,21.601,54.5,33.9,86.901,33.9s63.3-12.299,84.901-33.9
	c46.825-47.446,46.847-122.327,0-169.799c-11.7-11.7-11.7-30.601,0-42.299c11.406-11.406,30.455-11.844,42.299,0
	C454.639,197.621,454.684,312.335,384.2,382.2z"/>
<path style="fill:#C5C9F7;" d="M384.2,382.2C350.3,416.4,305,437,257,437v-63.201c32.401,0,63.3-12.299,84.901-33.9
	c46.825-47.446,46.847-122.327,0-169.799c-11.7-11.7-11.7-30.601,0-42.299c11.406-11.406,30.455-11.844,42.299,0
	C454.639,197.621,454.684,312.335,384.2,382.2z"/>
<path style="fill:#E1E4FB;" d="M287,90v180c0,16.5-13.5,30-30,30s-30-13.5-30-30V90c0-16.5,13.5-30,30-30S287,73.5,287,90z"/>
<path style="fill:#C5C9F7;" d="M257,300V60c16.5,0,30,13.5,30,30v180C287,286.5,273.5,300,257,300z"/>
<g>
</g>
<g>
</g>
<g>
</g>
<g>
</g>
<g>
</g>
<g>
</g>
<g>
</g>
<g>
</g>
<g>
</g>
<g>
</g>
<g>
</g>
<g>
</g>
<g>
</g>
<g>
</g>
<g>
</g>
</svg>
