<?xml version="1.0" encoding="iso-8859-1"?>
<!-- Generator: Adobe Illustrator 21.0.0, SVG Export Plug-In . SVG Version: 6.00 Build 0)  -->
<svg xmlns="http://www.w3.org/2000/svg" xmlns:xlink="http://www.w3.org/1999/xlink" version="1.1" id="Capa_1" x="0px" y="0px" viewBox="0 0 512 512" style="enable-background:new 0 0 512 512;" xml:space="preserve" width="512" height="512">
<g>
	<path style="fill:#FED2A4;" d="M498.509,322.8c-2.699,4.499-7.5,7.2-12.9,7.2h-24.3v31l-15,15l15,15v15c0,24.901-20.099,45-45,45   h-60c-9.3,0-32.999-2.701-40.201-7.8l25.201,36.301V497c0,8.401-6.599,15-15,15h-120c-8.401,0-15-6.599-15-15V395.501   c0-23.701-8.401-47.8-24.6-68.202c-22.5-28.799-35.4-64.799-35.4-102.299c0-91.199,73.801-165,165-165c90.901,0,165,74.099,165,165   c0,1.199-0.3,3.3-0.601,13.2l38.101,69.6C501.51,312.599,501.21,317.999,498.509,322.8z"/>
	<path style="fill:#FFBD86;" d="M498.509,322.8c-2.699,4.499-7.5,7.2-12.9,7.2h-24.3v31l-15,15l15,15v15c0,24.901-20.099,45-45,45   h-60c-9.3,0-32.999-2.701-40.201-7.8l25.201,36.301V497c0,8.401-6.599,15-15,15h-30V60c90.901,0,165,74.099,165,165   c0,1.199-0.3,3.3-0.601,13.2l38.101,69.6C501.51,312.599,501.21,317.999,498.509,322.8z"/>
	<path style="fill:#FFB99C;" d="M343.71,105c0-39.901-31.201-72.299-70.501-74.7C263.01,12.299,243.509,0,221.309,0   c-17.999,0-33.9,8.101-45,20.7c-11.1-12.599-27.001-20.7-45-20.7c-22.5,0-41.7,12.599-51.899,30.601   C41.309,34.2,11.309,66,11.309,105c0,10.499,2.1,20.7,6.301,30c-4.2,9.3-6.301,19.501-6.301,30c0,39,30,70.8,68.101,74.399   C89.609,257.401,108.809,270,131.309,270c17.999,0,33.9-8.101,45-20.7c11.1,12.599,27.001,20.7,45,20.7   c22.2,0,41.7-12.299,51.899-30.3c39.3-2.401,70.501-34.799,70.501-74.7c0-10.499-2.1-20.7-6-30   C341.609,125.7,343.71,115.499,343.71,105z"/>
	<path style="fill:#FF9468;" d="M337.709,135c3.9,9.3,6,19.501,6,30c0,39.901-31.201,72.299-70.501,74.7   c-10.199,18.001-29.7,30.3-51.899,30.3c-17.999,0-33.9-8.101-45-20.7V20.7c11.1-12.599,27.001-20.7,45-20.7   c22.2,0,41.7,12.299,51.899,30.3c39.3,2.401,70.501,34.799,70.501,74.7C343.71,115.499,341.609,125.7,337.709,135z"/>
	<path style="fill:#FFBD86;" d="M356.309,451c-8.401,0-15,6.599-15,15v13.5c-18.3-3.6-34.2-14.101-45-28.801   c-9.3-12.299-15-27.9-15-44.7c0-8.401,6.599-15,15-15s15,6.599,15,15C311.309,430.901,331.409,451,356.309,451z"/>
	<path style="fill:#F6A96C;" d="M401.309,376c0,8.291,6.709,15,15,15h45v-30h-45C408.018,361,401.309,367.709,401.309,376z"/>
	<path style="fill:#FFCEBF;" d="M131.309,240c-16.538,0-30-13.462-30-30s13.462-30,30-30c8.291,0,15-6.709,15-15s-6.709-15-15-15   c-32.173,0-58.293,25.497-59.729,57.321C54.02,201.183,41.309,184.629,41.309,165c0-5.184,1.196-10.182,2.911-15h12.089   c8.291,0,15-6.709,15-15s-6.709-15-15-15H44.221c-1.716-4.818-2.911-9.816-2.911-15c0-19.323,12.321-35.695,30.3-42.037   C73.19,94.653,99.233,120,131.309,120c8.291,0,15-6.709,15-15s-6.709-15-15-15c-16.538,0-30-13.462-30-30s13.462-30,30-30   s30,13.462,30,30v150C161.309,226.538,147.847,240,131.309,240z"/>
	<path style="fill:#FFB99C;" d="M281.115,208.088C280.079,175.898,253.746,150,221.309,150c-8.291,0-15,6.709-15,15s6.709,15,15,15   c16.538,0,30,13.462,30,30s-13.462,30-30,30s-30-13.462-30-30V60c0-16.538,13.462-30,30-30s30,13.462,30,30s-13.462,30-30,30   c-8.291,0-15,6.709-15,15s6.709,15,15,15c32.437,0,58.77-25.898,59.806-58.088c18.834,5.376,32.743,22.551,32.743,43.088   c0,5.173-1.198,10.173-2.915,15h-12.085c-8.291,0-15,6.709-15,15s6.709,15,15,15h12.085c1.718,4.827,2.915,9.827,2.915,15   C313.858,185.537,299.949,202.712,281.115,208.088z"/>
	<path style="fill:#F6A96C;" d="M356.309,451c-8.401,0-15,6.599-15,15v13.5c-18.3-3.6-34.2-14.101-45-28.801V391   c8.401,0,15,6.599,15,15C311.309,430.901,331.409,451,356.309,451z"/>
</g>















</svg>
