<?xml version="1.0" encoding="iso-8859-1"?>
<!-- Generator: Adobe Illustrator 19.0.0, SVG Export Plug-In . SVG Version: 6.00 Build 0)  -->
<svg version="1.1" id="Layer_1" xmlns="http://www.w3.org/2000/svg" xmlns:xlink="http://www.w3.org/1999/xlink" x="0px" y="0px"
	 viewBox="0 0 512 512" style="enable-background:new 0 0 512 512;" xml:space="preserve">
<rect x="232.64" y="123.168" style="fill:#CCCCCC;" width="59.624" height="388.832"/>
<polygon style="fill:#999999;" points="292.264,183.224 232.64,160.76 232.64,123.168 292.264,123.168 "/>
<rect x="232.64" y="303.328" width="59.624" height="208.64"/>
<g>
	<rect x="195.056" style="fill:#CCCCCC;" width="134.792" height="123.168"/>
	<path style="fill:#CCCCCC;" d="M123.104,123.168H85.4c-6.608,0-11.968-5.36-11.968-11.968V11.968C73.432,5.36,78.792,0,85.4,0
		h37.704c6.608,0,11.968,5.36,11.968,11.968V111.2C135.08,117.808,129.72,123.168,123.104,123.168z"/>
</g>
<g>
	<path style="fill:#999999;" d="M438.568,95.28h-108.72V27.888h41.32C408.392,27.888,438.568,58.056,438.568,95.28L438.568,95.28z"
		/>
	<path style="fill:#999999;" d="M135.08,10.112c0,0,21.888,14.856,59.976,14.856v42.12H135.08V10.112z"/>
	<path style="fill:#999999;" d="M135.08,113.056c0,0,21.888-14.856,59.976-14.856V56.072H135.08V113.056z"/>
</g>
<g>
</g>
<g>
</g>
<g>
</g>
<g>
</g>
<g>
</g>
<g>
</g>
<g>
</g>
<g>
</g>
<g>
</g>
<g>
</g>
<g>
</g>
<g>
</g>
<g>
</g>
<g>
</g>
<g>
</g>
</svg>
