<svg height="496pt" viewBox="0 0 496 496.7429" width="496pt" xmlns="http://www.w3.org/2000/svg"><path d="m350.671875 257.035156c52.726563-30.71875 108.371094-69.5625 145.066406-119.46875-34.046875-.277344-67.886719 5.3125-100.035156 16.523438 7.472656-2.679688 13.285156-18.246094 16.707031-25.105469 4.660156-9.230469 8.359375-18.910156 11.042969-28.894531 5.460937-17.742188 5.390625-36.730469-.207031-54.433594-10.234375-26.835938-35.960938-44.582031-64.679688-44.621094-29.867187-.589844-59.871094 0-89.773437 0h-142.753907c-27.953124 0-65.246093-5.488281-90.53125 8.804688-16.085937 9.304687-27.738281 24.707031-32.316406 42.722656-4.578125 18.011719-1.6875 37.109375 8.007813 52.964844 18.566406 29.609375 48.605469 32.039062 80.058593 32.039062-9.207031 27.523438-25.71875 51.953125-40.277343 76.800782-18.226563 29.605468-32.113281 61.671874-41.242188 95.214843-10.015625 40.117188-16.074219 87.664063 3.507813 125.800781 17.28125 33.558594 51.328125 59.808594 89.957031 60.585938 80.777344 1.621094 161.785156.230469 242.578125 0 30.523438 1.070312 59.175781-14.679688 74.625-41.027344 22.492188-42.035156-16.238281-95.507812-61.203125-95.507812h-105.460937c3.257812-12.59375 7.75-24.839844 13.414062-36.554688 4.722656-10.453125 12.28125-19.367187 21.820312-25.738281 19.847657-14.4375 40.441407-27.824219 61.695313-40.105469zm-106.273437 77.355469c-.625.597656-1.195313 1.175781-1.777344 1.757813.589844-.605469 1.152344-1.152344 1.777344-1.757813zm-6.828126-21.4375c-.863281 2.101563-1.683593 4.152344-2.457031 6.160156.769531-2.011719 1.578125-4.050781 2.449219-6.160156zm3.300782-7.757813c-.722656 1.640626-1.421875 3.261719-2.089844 4.847657.667969-1.59375 1.359375-3.207031 2.082031-4.847657zm107.675781-128.492187c.527344-.324219 1.082031-.640625 1.621094-.964844-.539063.324219-1.09375.640625-1.621094.964844zm-31.285156 22.945313c.546875-.46875 1.078125-.949219 1.632812-1.40625-.554687.457031-1.085937.9375-1.632812 1.40625zm9.457031-7.730469 2.335938-1.800781zm10.503906-7.757813c.800782-.554687 1.621094-1.101562 2.421875-1.648437-.800781.546875-1.621093 1.136719-2.421875 1.648437zm-51.082031 47.148438-.636719.75zm-6.457031 8.0625c-.496094.640625-1 1.28125-1.484375 1.917968.484375-.636718.988281-1.277343 1.484375-1.917968zm-6.589844 8.867187c-.566406.753907-1.105469 1.515625-1.613281 2.277344.53125-.773437 1.066406-1.535156 1.613281-2.277344zm-6.253906 9.09375c-.488282.734375-.945313 1.460938-1.425782 2.195313.480469-.734375.9375-1.460938 1.425782-2.195313zm-5.820313 9.148438-.699219 1.171875zm-12.644531 22.785156c-.53125 1.058594-1.085938 2.125-1.589844 3.164063.511719-1.046876 1.058594-2.113282 1.589844-3.164063zm-3.859375 7.917969c-.648437 1.375-1.296875 2.75-1.910156 4.097656.613281-1.347656 1.261719-2.722656 1.910156-4.097656zm-9.898437 23.117187c-4.265626 11.152344-11.886719 26.675781-11.886719 38.964844 1.546875-2.347656 3.214843-4.609375 5-6.777344-1.789063 2.246094-3.507813 4.539063-5.117188 6.945313 2.949219-13.34375 6.964844-26.429688 12.003907-39.132813zm4.496093 19.378907c-.535156.5625-1.097656 1.136718-1.609375 1.707031.527344-.570313 1.089844-1.144531 1.636719-1.707031zm-5.433593 5.8125c-.453126.503906-.855469.953124-1.261719 1.433593zm-3.3125 3.804687c-.476563.554687-.929688 1.101563-1.355469 1.621094.484375-.527344.90625-1.058594 1.382812-1.621094zm19.363281 69.121094c3.3125 19.097656 12.789062 36.582031 26.984375 49.78125-14.242188-13.164063-23.71875-30.675781-26.957032-49.800781zm-1-7.304688c.121093 1.226563.230469 2.449219.394531 3.652344-.128906-1.222656-.257812-2.425781-.367188-3.667969zm40.722656 67.046875c-1.929687-1.253906-3.78125-2.5625-5.605469-3.996094 1.851563 1.375 3.675782 2.714844 5.632813 3.976563zm18.679687 9.625c-6.214843-2.460937-12.179687-5.507812-17.816406-9.097656 5.644532 3.585938 11.621094 6.625 17.84375 9.082031zm30.609376 7.507813c.996093.113281 1.996093.25 2.996093.324219-.984375-.09375-1.972656-.230469-3.011719-.339844zm-61.347657-26.453125c1.707031 1.582031 3.496094 3.09375 5.367188 4.53125-1.824219-1.476563-3.609375-3.003906-5.339844-4.5625zm34.339844 20.378906c1.382813.503906 2.789063.929688 4.199219 1.375-1.382813-.472656-2.808594-.914062-4.175782-1.410156zm8.617187 2.695312c1.304688.351563 2.613282.675782 3.925782.980469-1.289063-.339843-2.621094-.664062-3.898438-1.015625zm8.953126 2.03125c1.203124.230469 2.40625.453126 3.617187.648438-1.1875-.222656-2.390625-.453125-3.582031-.683594zm23.585937-134.210937c.972656-.09375 1.953125-.101563 2.933594-.144531-.980469.042968-1.960938.050781-2.933594.144531zm-40.621094 18.414063c-.3125.308593-.664062.582031-.980469.894531.351563-.3125.699219-.585938.980469-.894531zm37.488281-18.003907c-.957031.136719-1.929687.230469-2.875.398438.980469-.167969 1.953126-.253907 2.933594-.398438zm-5.972656 1.109375c-.855468.203125-1.773437.367188-2.644531.605469.859375-.238281 1.757813-.402344 2.636719-.605469zm-5.8125 1.613282c-.851562.269531-1.636718.492187-2.429687.792968.785156-.300781 1.613281-.523437 2.421875-.8125zm-5.496094 2.0625c-.765624.332031-1.558593.625-2.320312.980468.75-.355468 1.546875-.648437 2.3125-.980468zm-5.195312 2.484374c-.75.402344-1.527344.769532-2.253906 1.1875.71875-.417968 1.496094-.785156 2.246094-1.1875zm-5.015625 2.945313c-.703125.449219-1.425781.851563-2.101563 1.347656.640626-.480469 1.390626-.898437 2.089844-1.347656zm-4.839844 3.410156c-.613281.480469-1.246093.914063-1.835937 1.410157.582031-.480469 1.210937-.914063 1.800781-1.390626zm-24.40625 37.410157c.222657-.851563.402344-1.78125.65625-2.652344-.261719.886718-.441406 1.785156-.664062 2.671875zm1.707031-5.691407c.289063-.851562.539063-1.707031.855469-2.558593-.378906.878906-.597656 1.730468-.890625 2.585937zm2.175782-5.519531c.339844-.777344.648437-1.570312 1.023437-2.328125-.410156.773437-.714843 1.566406-1.015625 2.34375zm2.664062-5.34375c.382813-.691406.722656-1.398438 1.125-2.070312-.433594.6875-.777344 1.398437-1.160156 2.089843zm3.335938-5.417969c.332031-.484375.621094-.988281.972656-1.46875-.382812.496094-.675781 1-.992188 1.488281zm3.96875-5.273437c.253906-.304688.503906-.621094.765625-.929688-.296875.324219-.546875.640625-.800781.949219zm-55.1875-15.496094c.574218-2.832031 1.195312-5.640625 1.894531-8.421875-.691406 2.78125-1.3125 5.589844-1.894531 8.421875zm-2.960938 21.71875c.136719-1.988281.375-3.933594.582032-5.890625-.179688 1.957031-.445313 3.902344-.582032 5.890625zm1.179688-11.179688c.347656-2.558593.785156-5.121093 1.246094-7.613281-.46875 2.515625-.882813 5.054688-1.246094 7.613281zm.28125-50.117187c.433594-.410156.929687-.851563 1.375-1.253906-.445313.410156-.941406.84375-1.375 1.253906zm16.210937-14.164063c.4375-.359374.855469-.691406 1.265625-1.050781-.4375.359375-.828125.699219-1.265625 1.050781zm-9.207031 7.851563c.753906-.660156 1.511719-1.324219 2.296875-2-.785156.675781-1.542969 1.339844-2.296875 2zm0 0" fill="#f6db6d"/><path d="m69.070312 1.035156c-37.703124 0-68.265624 30.5625-68.265624 68.265625s30.5625 68.265625 68.265624 68.265625h290.132813c-37.699219 0-68.265625-30.5625-68.265625-68.265625s30.566406-68.265625 68.265625-68.265625zm0 0" fill="#f6db6d"/><path d="m253.714844 359.433594c-3.59375 13.941406-5.421875 28.273437-5.445313 42.667968.003907 8.65625 1.203125 17.273438 3.570313 25.601563h23.789062c7.988282.082031 14.929688-5.476563 16.597656-13.289063 6.34375-31.960937 34.390626-54.988281 66.976563-54.980468zm0 0" fill="#ec9130"/><path d="m358.835938 359.433594c-32.363282.171875-60.160157 23.042968-66.558594 54.769531-1.625 7.886719-8.585938 13.535156-16.640625 13.5h-23.796875c12.285156 43.730469 55.464844 68.265625 98.832031 68.265625 50.847656 0 104.234375-55.59375 60.824219-109.320312-12.523438-16.578126-31.890625-26.585938-52.660156-27.214844zm0 0" fill="#f6ab27"/><path d="m398.203125 153.140625c18.03125-24.332031 28.238281-53.570313 29.269531-83.839844 0-37.703125-30.566406-68.265625-68.269531-68.265625-37.699219 0-68.265625 30.5625-68.265625 68.265625s30.566406 68.265625 68.265625 68.265625h-267.945313c-21.964843 65.707032-90.453124 119.46875-90.453124 247.46875 0 59.734375 51.199218 110.933594 102.398437 110.933594h247.46875c-51.199219 0-102.402344-34.132812-102.402344-93.867188.367188-33.367187 9.6875-66.023437 26.984375-94.558593-40.535156 31.839843-52.582031 51.890625-52.582031 51.890625s30.0625-155.894532 175.53125-206.292969zm0 0" fill="#f4cd1e"/><path d="m128.804688 43.703125h-25.601563c-4.710937 0-8.53125-3.820313-8.53125-8.535156 0-4.710938 3.820313-8.53125 8.53125-8.53125h25.601563c4.710937 0 8.535156 3.820312 8.535156 8.53125 0 4.714843-3.824219 8.535156-8.535156 8.535156zm0 0" fill="#faedbd"/><path d="m36.023438 69.300781c-.722657.003907-1.445313-.089843-2.144532-.273437-4.558594-1.179688-7.304687-5.832032-6.125-10.390625 4.863282-18.84375 21.859375-32.003907 41.316406-32 4.714844 0 8.535157 3.820312 8.535157 8.53125 0 4.714843-3.820313 8.535156-8.535157 8.535156-11.65625.015625-21.832031 7.910156-24.746093 19.199219-.976563 3.78125-4.394531 6.417968-8.300781 6.398437zm0 0" fill="#faedbd"/><g fill="#445c71"><path d="m188.539062 376.5c-1.683593 0-3.328124-.5-4.730468-1.433594l-16.585938-11.089844c-2.582031-1.726562-5.953125-1.726562-8.535156 0l-7.59375 5.050782c-8.320312 5.554687-19.167969 5.554687-27.484375 0l-7.578125-5.050782c-2.582031-1.726562-5.953125-1.726562-8.535156 0l-7.59375 5.050782c-8.320313 5.554687-19.167969 5.554687-27.484375 0l-7.613281-5.019532c-2.582032-1.726562-5.949219-1.726562-8.535157 0l-16.59375 11.09375c-2.539062 1.691407-5.785156 1.902344-8.519531.550782-2.730469-1.347656-4.539062-4.054688-4.734375-7.097656-.199219-3.042969 1.242187-5.960938 3.78125-7.652344l16.597656-11.09375c8.316407-5.554688 19.164063-5.554688 27.484375 0l7.578125 5.050781c2.582031 1.726563 5.949219 1.726563 8.53125 0l7.597657-5.050781c8.316406-5.554688 19.164062-5.554688 27.484374 0l7.578126 5.050781c2.582031 1.726563 5.949218 1.726563 8.53125 0l7.597656-5.050781c8.320312-5.554688 19.164062-5.554688 27.484375 0l16.589843 11.09375c3.09375 2.09375 4.464844 5.960937 3.382813 9.539062-1.082031 3.574219-4.367187 6.03125-8.101563 6.058594zm0 0"/><path d="m205.605469 308.234375c-1.683594 0-3.328125-.5-4.726563-1.433594l-16.589844-11.09375c-2.582031-1.726562-5.953124-1.726562-8.535156 0l-7.59375 5.054688c-8.320312 5.554687-19.164062 5.554687-27.484375 0l-7.578125-5.054688c-2.582031-1.726562-5.953125-1.726562-8.535156 0l-7.59375 5.054688c-8.320312 5.554687-19.164062 5.554687-27.484375 0l-7.578125-5.054688c-2.582031-1.726562-5.953125-1.726562-8.535156 0l-16.597656 11.09375c-2.535157 1.691407-5.78125 1.902344-8.515626.550781-2.734374-1.347656-4.539062-4.054687-4.734374-7.097656-.199219-3.042968 1.242187-5.960937 3.78125-7.652344l16.59375-11.09375c8.320312-5.554687 19.167968-5.554687 27.488281 0l7.578125 5.050782c2.582031 1.726562 5.949218 1.726562 8.53125 0l7.59375-5.050782c8.320312-5.554687 19.167968-5.554687 27.488281 0l7.578125 5.050782c2.582031 1.726562 5.949219 1.726562 8.53125 0l7.59375-5.050782c8.320312-5.554687 19.167969-5.554687 27.488281 0l16.589844 11.09375c3.128906 2.089844 4.523437 5.980469 3.429687 9.582032-1.097656 3.601562-4.421874 6.058594-8.183593 6.050781zm0 0"/><path d="m231.203125 248.5c-1.679687 0-3.324219-.5-4.726563-1.433594l-16.589843-11.089844c-2.582031-1.726562-5.949219-1.726562-8.53125 0l-7.59375 5.050782c-8.320313 5.554687-19.167969 5.554687-27.488281 0l-7.578126-5.050782c-2.582031-1.726562-5.949218-1.726562-8.53125 0l-7.59375 5.050782c-8.320312 5.554687-19.167968 5.554687-27.488281 0l-7.578125-5.050782c-2.582031-1.726562-5.949218-1.726562-8.53125 0l-16.597656 11.089844c-3.921875 2.617188-9.21875 1.558594-11.835938-2.363281-2.617187-3.917969-1.558593-9.21875 2.363282-11.835937l16.597656-11.09375c8.320312-5.554688 19.167969-5.554688 27.484375 0l7.578125 5.054687c2.582031 1.722656 5.953125 1.722656 8.535156 0l7.59375-5.054687c8.320313-5.554688 19.167969-5.554688 27.484375 0l7.578125 5.054687c2.582032 1.722656 5.953125 1.722656 8.535156 0l7.59375-5.054687c8.320313-5.554688 19.167969-5.554688 27.484376 0l16.589843 11.09375c3.132813 2.089843 4.527344 5.984374 3.429688 9.582031-1.09375 3.601562-4.417969 6.0625-8.183594 6.050781zm0 0"/><path d="m495.738281 137.566406c-214.953125 74.414063-269.738281 212.910156-272.894531 221.441406 2.046875-10.496093 48.296875-221.441406 272.894531-221.441406zm0 0"/></g><path d="m495.738281 137.566406s-42.667969 59.734375-145.066406 119.46875c-98.5625 57.515625-125.953125 99.15625-127.917969 102.230469-.007812-.09375.023438-.1875.089844-.257813 3.15625-8.53125 57.941406-147.027343 272.894531-221.441406zm0 0" fill="#394f63"/></svg>