<?xml version="1.0" encoding="iso-8859-1"?>
<!-- Generator: Adobe Illustrator 19.0.0, SVG Export Plug-In . SVG Version: 6.00 Build 0)  -->
<svg version="1.1" id="Capa_1" xmlns="http://www.w3.org/2000/svg" xmlns:xlink="http://www.w3.org/1999/xlink" x="0px" y="0px"
	 viewBox="0 0 468.293 468.293" style="enable-background:new 0 0 468.293 468.293;" xml:space="preserve">
<path style="fill:#EBF0F3;" d="M289.837,138.83V48.867H184.57v87.938c-69.386,21.202-119.862,85.723-119.862,162.05
	c0,93.578,75.86,169.438,169.438,169.438c93.579,0,169.438-75.86,169.438-169.438C403.584,224.793,356.048,161.871,289.837,138.83z"
	/>
<path style="fill:#27A2DB;" d="M381.707,268.769c1.998,9.784,3.148,19.829,3.148,30.085c0,83.098-67.61,150.707-150.707,150.707
	S83.44,381.952,83.44,298.854c0-10.287,1.133-20.326,3.089-30.085c9.363-7.423,22.868-11.255,34.234-7.571
	c14.683,4.759,27.592,18.883,42.631,15.409c11.952-2.761,18.967-15.765,30.463-20.046c13.447-5.007,27.87,3.258,39.846,11.164
	c11.975,7.905,26.453,16.118,39.863,11.011c7.169-2.73,12.421-8.807,18.368-13.653c5.947-4.846,13.996-8.683,21.125-5.849
	c6.994,2.781,10.65,11.06,17.686,13.733c5.865,2.228,12.461-0.061,17.957-3.086c5.496-3.026,10.751-6.87,16.919-8.015
	C371.789,260.72,380.451,262.622,381.707,268.769z"/>
<path style="fill:#EBF0F3;" d="M295.823,0h-117.24c-6.897,0-12.488,5.591-12.488,12.488v23.891c0,6.897,5.591,12.488,12.488,12.488
	h117.24c6.897,0,12.488-5.591,12.488-12.488V12.488C308.311,5.591,302.72,0,295.823,0z"/>
<rect x="184.57" y="48.865" style="fill:#D5D6DB;" width="105.266" height="26.274"/>
<g>
	<circle style="fill:#2D93BA;" cx="184.57" cy="352.3" r="18.732"/>
	<circle style="fill:#2D93BA;" cx="264.417" cy="329.116" r="18.732"/>
</g>
<circle style="fill:#27A2DB;" cx="229.276" cy="197.182" r="18.732"/>
<g>
	<circle style="fill:#2D93BA;" cx="248.008" cy="397.737" r="18.732"/>
	<circle style="fill:#2D93BA;" cx="119.184" cy="314.836" r="15.61"/>
	<circle style="fill:#2D93BA;" cx="317.19" cy="382.127" r="15.61"/>
	<circle style="fill:#2D93BA;" cx="341.167" cy="314.836" r="15.61"/>
</g>
<g>
	<circle style="fill:#27A2DB;" cx="150.403" cy="218.768" r="15.61"/>
	<circle style="fill:#27A2DB;" cx="308.311" cy="218.768" r="15.61"/>
</g>
<g>
</g>
<g>
</g>
<g>
</g>
<g>
</g>
<g>
</g>
<g>
</g>
<g>
</g>
<g>
</g>
<g>
</g>
<g>
</g>
<g>
</g>
<g>
</g>
<g>
</g>
<g>
</g>
<g>
</g>
</svg>
