<?xml version="1.0" encoding="UTF-8" standalone="no"?>
<!DOCTYPE svg PUBLIC "-//W3C//DTD SVG 1.1//EN" "http://www.w3.org/Graphics/SVG/1.1/DTD/svg11.dtd">
<svg version="1.1" xmlns="http://www.w3.org/2000/svg" xmlns:xlink="http://www.w3.org/1999/xlink" preserveAspectRatio="xMidYMid meet" viewBox="0 0 640 640" width="640" height="640"><defs><path d="M445.07 490.64L434.81 502.65L427.71 498.85L445.07 490.64Z" id="b1g7CRVqsf"></path><path d="M433.65 573.75L649.43 531.02L652.6 456.26L626.57 427.56L573.83 427.56L539.79 419.55L485.32 444.91L444.33 490.44L356.22 520.34L253.42 537.7L433.65 573.75Z" id="a4BJFgmuMD"></path><path d="M453.01 556.46L638.32 511.06L640 434.3L604.27 430.96L598.93 474.95L588.25 486.37L417.37 551.78L453.01 556.46Z" id="heBHmhlRd"></path><path d="M528.04 398.52L560.08 362.47L601.47 389.17L628.84 409.87L641.52 427.22L641.52 443.91L634.85 441.24L634.85 451.92L622.83 443.91L622.83 459.93L606.14 446.58L608.15 468.61L583.45 451.92L578.11 463.94L570.1 448.58L562.09 473.95L555.41 451.92L541.39 463.94L541.39 443.91L532.71 448.58L521.37 451.92L521.37 441.24L511.35 441.24L496.67 443.91L485.32 443.91" id="c5osYlGmdh"></path><path d="M274.45 544.43L291.19 546.41L310.02 549.04L328.85 550.35L349.08 551.01L359.54 551.01L371.4 548.38L382.56 549.04L391.62 554.3L402.09 556.28L413.94 556.28L424.4 556.93L434.87 560.22L445.33 562.2L455.09 558.25L467.65 552.99L478.81 549.7L492.06 546.41L507.4 543.12L519.96 540.48L530.42 536.54L575.76 531.93L586.92 531.27L601.56 529.3L612.72 526.67L624.58 523.38L637.13 519.43L647.6 516.14" id="b1zEZ5trtc"></path><path d="M456.95 480.69L468.3 480.02L478.98 478.69L490.99 476.02L499 469.34L506.35 461.33L518.7 442.64L501.67 449.32L492.33 453.32L483.65 460.67L476.31 468.01L469.63 476.02L486.19 478.69" id="a5HAzAuCa"></path><path d="M541.39 392.51L520.03 429.23L496 431.9L541.39 392.51Z" id="dGYqC1eBS"></path><path d="M643.93 660.72L654.61 557.93L641.52 519.88L440.33 566.6L251.42 530.56L-6.25 533.89L-4.25 646.71L643.93 660.72Z" id="d8yGhqKPrr"></path><path d="M-10.76 645.38L120.98 647.37L125.24 638.75L118.14 628.13L133.75 616.85L149.35 613.53L138.71 590.97L81.26 551.75L-8.82 533.89L-10.76 645.38Z" id="a9yAfyANH"></path><path d="M-6.25 537.43L11.83 544.74L26.14 552.78L38.95 560.09L50.25 566.67L35.94 574.71L48.74 580.55L65.31 584.21L85.65 588.59L99.97 592.98L112.77 596.63L101.47 603.21L101.47 614.17L90.17 620.02L96.2 630.25L105.24 636.83L93.94 636.83L81.89 636.83L68.33 637.56" id="b34O3FpOL"></path><path d="M-25.41 580.62L-20.07 589.97L-14.73 601.98L-8.05 611.33L-0.71 622.01L9.97 625.35L-2.71 626.01L-12.72 626.68L-12.06 637.36L-6.72 646.04L4.63 648.71L15.31 646.04L25.33 644.7L33.34 650.71L38.68 660.72" id="ak6W4Kezs"></path><path d="M-12.72 640.3L-2.71 640.3L5.97 634.96L12.64 626.95L7.3 618.27L2.63 608.92L23.32 612.93L21.99 622.94L28 614.26L38.01 610.93L48.02 609.59L58.03 608.92L50.02 615.6L44.02 623.61L34.67 628.28L24.66 630.95L19.99 640.3L14.64 648.98L4.63 649.64L-5.38 652.31L-15.39 652.98L-25.41 654.98L-21.4 644.97L-12.06 640.97" id="b14csnkghZ"></path><path d="M109.63 546.11C103.85 543.88 98.95 543.88 94.95 546.11" id="bES4gxj3X"></path><path d="M172.38 620.67L168.5 606.71L159.16 573.07L154.82 557.44L0 0L199.75 654.98L120.98 652.91L120.98 644.24L120.98 627.55L151.02 613.53L133 590.3L78.93 551.45L29.53 542.77L4.16 533.89" id="b5M82fbfX"></path><path d="M562.53 371.38L553.61 377.79L546 388.3L540.42 399.6L532.92 412.85L542.95 409.58L552.08 404.15L554.21 389.7L559.08 377.23" id="b16Qo8rvqV"></path><path d="M322.17 646.07L335.87 640.25L358.47 630.66L371.68 629.41L383.19 631.78L394.54 635.66L406.74 637.74L417.31 639.78L428.13 642.44L422.17 634.1L434.6 631L452.5 625.58L469.04 620.74L480.1 618.22L490.9 615.09L479.09 606.32L499.64 597.6L515.59 595.19L528.28 592.7L542.18 591.16L553.76 589.87L565.33 588.59L550.3 585.54L541.01 580.78L555.06 577.72L579.66 570.91L603.24 567.43L621.08 565.66L632.92 564.99L644.5 563.7L624.51 564.21L609.15 564.2L597.99 564.58L583.58 564.9L572.42 565.28L582.96 561.53L601.39 557.34L612.44 554.83L624.19 552.02L635.5 550.12L650.08 548.28L664.4 545.83L675.46 543.32L661.47 542.73L649.37 542.79L660.85 539.37L671.65 536.24L686.65 533.5L698.92 531.92L709.88 527.27L695.04 528.49L683.13 532.81L670.96 536.53L659.22 539.33L645.49 539.36L631.33 540.29L620.28 542.8L608.96 544.7L597.64 546.6L588.41 553.42L575.39 558.94L562.38 564.46L548.68 570.28L533.6 576.67L515.6 579.96L494.01 586.22L471.99 593.38L456.4 598.55L320.66 653.95" id="cq6ETFHWU"></path><path d="M224.98 671.74L238.33 670.4L248.35 668.4L274.78 680.94L274.78 671.74L294.41 658.39L307.09 655.72L316.44 651.71L326.45 645.04L335.79 638.36L344.47 633.02L352.48 626.35L360.49 619.67L367.17 611.66L376.51 604.32L387.86 598.31L397.21 592.3L406.89 598.31L413.23 589.18L427.25 582.96L437.26 582.96L447.27 580.29L455.28 574.28L461.29 566.27L470.63 562.26L481.98 556.92L492 554.25L496 550.92L470.63 557.59L459.95 560.26L449.94 561.6L439.93 564.27L430.58 568.94C430.38 569 430.25 569.04 430.2 569.06C430.2 569.06 409.89 576.28 409.89 576.28C409.89 576.28 409.89 576.28 409.89 576.28L397.21 580.29C393.49 581.77 391.17 582.7 390.24 583.07C388.21 583.89 386.24 584.84 384.35 585.94C383.04 586.7 379.76 588.6 374.51 591.64L365.83 600.98L358.49 609.66L349.81 618.34L341.8 625.68L329.12 629.02L314.43 631.69L302.42 636.36L293.74 643.7L287.06 651.71L274.38 657.72L262.37 661.06L251.02 663.06L240.34 666.4L230.32 669.07L220.31 673.74L211.63 679.75L225.65 681.75L239.67 682.42L250.35 683.09L263.03 683.75L275.72 682.42" id="d2CElVjXtQ"></path><path d="M425.89 504.12L426.57 503.53L427.3 502.84L427.8 502.43L428.3 501.98L428.81 501.52L429.54 501.66L430.36 501.75L431.27 501.8L432.27 501.89L433.09 501.89L433.96 501.93L434.69 501.93L435.51 501.98L436.14 502.02L435.69 502.53L435.28 503.03L434.91 503.57L434.64 504.17L434.23 504.9L433.64 505.35L432.59 505.72L431.86 506.03L431.13 506.4L430.49 506.76L429.9 507.04L429.08 507.45L428.35 507.86L427.71 508.13L426.66 508.13L425.93 508.13L425.02 508.13L424.25 508.13L423.56 508.27L422.61 508.45L421.74 508.54L422.47 507.17L422.97 506.54L423.52 505.81L424.11 505.03L424.48 504.48" id="c1hNrWIvKP"></path><path d="M424.38 504.12L424.66 503.12L424.98 502.02L425.21 501.16L425.71 500.61L426.75 500.15L427.67 499.84L428.44 499.56L429.44 499.2L430.22 498.97L430.95 498.79L431.68 498.74L432.5 498.74L433.77 498.74L434.5 498.74L435.19 498.7L436.14 498.65L436.78 498.7L436.33 499.24L435.73 499.93L434.82 501.11L434.28 501.84L433.77 502.62L433.41 503.21L432.91 503.71L432.27 503.85L431.54 503.98L430.54 504.12L429.54 504.35L428.9 504.53L428.26 504.71L427.39 504.62L426.66 504.44L425.93 504.3L425.11 504.26L424.57 503.94" id="b64nJWEtw"></path><path d="M424.34 503.94L424.98 503.71L425.48 503.3L426.03 502.8L426.53 502.34L426.98 501.89L427.44 501.39L427.89 500.84L428.81 500.61L429.9 500.34L430.86 500.2L431.68 500.11L432.32 500.06L433.04 500.02L433.77 499.97L434.41 499.65L434.96 499.2L435.51 498.83L436.14 498.65L435.41 498.65L434.41 498.65L433.77 498.65L432.82 498.65L432.09 498.65L431.36 498.65L430.58 498.79L429.67 499.06L428.71 499.38L428.08 499.61L427.21 499.84L426.57 500.06L425.8 500.25L425.21 500.47L425.07 501.25L424.98 501.89L424.7 502.66L424.34 503.25L424.02 503.8" id="a1ld5K4ae4"></path><path d="M426.12 503.71L426.75 503.71L427.39 503.8L428.03 503.8L428.67 503.71L429.4 503.53L430.08 503.44L430.77 503.35L431.45 503.16L432.04 502.94L432.63 502.62L433.14 502.21L433.64 501.66L433.96 501.02" id="a3snCZwfyP"></path></defs><g><g><g><use xlink:href="#b1g7CRVqsf" opacity="1" fill="#d44d9c" fill-opacity="1"></use><g><use xlink:href="#b1g7CRVqsf" opacity="1" fill-opacity="0" stroke="#4c3535" stroke-width="0" stroke-opacity="1"></use></g></g><g><use xlink:href="#a4BJFgmuMD" opacity="1" fill="#58564c" fill-opacity="1"></use><g><use xlink:href="#a4BJFgmuMD" opacity="1" fill-opacity="0" stroke="#4c3535" stroke-width="0" stroke-opacity="1"></use></g></g><g><use xlink:href="#heBHmhlRd" opacity="1" fill="#47423f" fill-opacity="0.88"></use><g><use xlink:href="#heBHmhlRd" opacity="1" fill-opacity="0" stroke="#6b4323" stroke-width="0" stroke-opacity="1"></use></g></g><g><use xlink:href="#c5osYlGmdh" opacity="1" fill="#f7f7f7" fill-opacity="1"></use><g><use xlink:href="#c5osYlGmdh" opacity="1" fill-opacity="0" stroke="#000000" stroke-width="0" stroke-opacity="1"></use></g></g><g><g><use xlink:href="#b1zEZ5trtc" opacity="1" fill-opacity="0" stroke="#3e2a2a" stroke-width="21" stroke-opacity="0.86"></use></g></g><g><use xlink:href="#a5HAzAuCa" opacity="1" fill="#344f32" fill-opacity="0.44"></use><g><use xlink:href="#a5HAzAuCa" opacity="1" fill-opacity="0" stroke="#3b6845" stroke-width="0" stroke-opacity="1"></use></g></g><g><use xlink:href="#dGYqC1eBS" opacity="1" fill="#f1f1f1" fill-opacity="1"></use><g><use xlink:href="#dGYqC1eBS" opacity="1" fill-opacity="0" stroke="#4c3535" stroke-width="0" stroke-opacity="1"></use></g></g><g><use xlink:href="#d8yGhqKPrr" opacity="1" fill="#63891d" fill-opacity="1"></use><g><use xlink:href="#d8yGhqKPrr" opacity="1" fill-opacity="0" stroke="#4c3535" stroke-width="0" stroke-opacity="1"></use></g></g><g><use xlink:href="#a9yAfyANH" opacity="1" fill="#1b95a1" fill-opacity="1"></use><g><use xlink:href="#a9yAfyANH" opacity="1" fill-opacity="0" stroke="#4c3535" stroke-width="0" stroke-opacity="1"></use></g></g><g><g><use xlink:href="#b34O3FpOL" opacity="1" fill-opacity="0" stroke="#ffffff" stroke-width="15" stroke-opacity="0.11"></use></g></g><g><g><use xlink:href="#ak6W4Kezs" opacity="1" fill-opacity="0" stroke="#eeeeee" stroke-width="15" stroke-opacity="0.31"></use></g></g><g><use xlink:href="#b14csnkghZ" opacity="1" fill="#1e2018" fill-opacity="1"></use><g><use xlink:href="#b14csnkghZ" opacity="1" fill-opacity="0" stroke="#cdcdcd" stroke-width="1" stroke-opacity="0.44"></use></g></g><g><g><use xlink:href="#bES4gxj3X" opacity="1" fill-opacity="0" stroke="#43c128" stroke-width="1" stroke-opacity="0.58"></use></g></g><g><g><use xlink:href="#b5M82fbfX" opacity="1" fill-opacity="0" stroke="#6b4323" stroke-width="0" stroke-opacity="1"></use></g></g><g><use xlink:href="#b16Qo8rvqV" opacity="1" fill="#ffffff" fill-opacity="1"></use><g><use xlink:href="#b16Qo8rvqV" opacity="1" fill-opacity="0" stroke="#55d7ac" stroke-width="0" stroke-opacity="1"></use></g></g><g><use xlink:href="#cq6ETFHWU" opacity="1" fill="#819b0e" fill-opacity="0.37"></use><g><use xlink:href="#cq6ETFHWU" opacity="1" fill-opacity="0" stroke="#3b6845" stroke-width="0" stroke-opacity="1"></use></g></g><g><use xlink:href="#d2CElVjXtQ" opacity="1" fill="#166cb0" fill-opacity="0.64"></use><g><use xlink:href="#d2CElVjXtQ" opacity="1" fill-opacity="0" stroke="#3b6845" stroke-width="0" stroke-opacity="1"></use></g></g><g><g><use xlink:href="#c1hNrWIvKP" opacity="1" fill-opacity="0" stroke="#3b6845" stroke-width="0" stroke-opacity="1"></use></g></g><g><use xlink:href="#b64nJWEtw" opacity="1" fill="#f81c7d" fill-opacity="0.64"></use><g><use xlink:href="#b64nJWEtw" opacity="1" fill-opacity="0" stroke="#3b6845" stroke-width="0" stroke-opacity="1"></use></g></g><g><use xlink:href="#a1ld5K4ae4" opacity="1" fill="#8c6e88" fill-opacity="0.64"></use><g><use xlink:href="#a1ld5K4ae4" opacity="1" fill-opacity="0" stroke="#3b6845" stroke-width="0" stroke-opacity="1"></use></g></g><g><use xlink:href="#a3snCZwfyP" opacity="1" fill="#000000" fill-opacity="0.27"></use><g><use xlink:href="#a3snCZwfyP" opacity="1" fill-opacity="0" stroke="#3b6845" stroke-width="0" stroke-opacity="1"></use></g></g></g></g></svg>