<svg height="512pt" viewBox="0 0 512 512" width="512pt" xmlns="http://www.w3.org/2000/svg"><path d="m332 0h-46l-30 45v437l30 30h91c39.171875 0 71.425781-30.175781 74.722656-68.511719l.277344-.277343 60-164.421876v-128.789062zm0 0" fill="#ff4b00"/><path d="m377 452h-106v-90h106c8.285156 0 15 6.714844 15 15v60c0 8.285156-6.714844 15-15 15zm0 0" fill="#444"/><path d="m362 392v30h-91v-30zm0 0" fill="#fdbf00"/><path d="m377 0h-45v105c0 3.984375 1.582031 7.792969 4.394531 10.605469l25.605469 25.605469v98.789062h90v-75c0-8.402344 6.597656-15 15-15h45v-15c0-74.441406-60.558594-135-135-135zm0 0" fill="#dd3400"/><path d="m76 270h-15c-33.089844 0-61-26.910156-61-60s27.910156-60 61-60h15c8.289062 0 15 6.710938 15 15v90c0 8.289062-6.710938 15-15 15zm0 0" fill="#ec806b"/><path d="m196 0c-74.441406 0-135 60.558594-135 135v75l15 30c41.351562 0 75-33.648438 75-75 0-8.277344 6.722656-15 15-15h90l30-30v-120zm0 0" fill="#5a5a5a"/><path d="m166 120c-24.8125 0-45 20.1875-45 45s-20.1875 45-45 45h-15v105c0 107.519531 87.480469 197 195 197h30v-392zm0 0" fill="#ffa78f"/><path d="m196 300c-24.8125 0-45-20.1875-45-45s20.1875-45 45-45 45 20.1875 45 45-20.1875 45-45 45zm0 0" fill="#ececf1"/><path d="m196 270c-8.269531 0-15-6.730469-15-15s6.730469-15 15-15 15 6.730469 15 15-6.730469 15-15 15zm0 0" fill="#444"/><path d="m392 300c-33.089844 0-60-26.910156-60-60s26.910156-60 60-60 60 26.910156 60 60-26.910156 60-60 60zm0 0" fill="#444"/><path d="m456.394531 334.394531c-2.8125 2.8125-4.394531 6.621094-4.394531 10.605469v98.210938l55.605469-55.605469c2.8125-2.8125 4.394531-6.621094 4.394531-10.605469v-98.210938zm0 0" fill="#dd3400"/><path d="m286 418.492188c-1.246094-.003907-2.480469-.132813-3.75.183593-35.332031 9.183594-74.28125-1.304687-100.460938-27.464843-5.855468-5.859376-15.351562-5.859376-21.210937 0-5.855469 5.855468-5.855469 15.363281 0 21.210937 25.550781 25.53125 59.429687 39.578125 95.421875 39.578125 10.132812 0 20.175781-1.316406 30-3.546875zm0 0" fill="#ec806b"/><path d="m392 210c-16.539062 0-30 13.460938-30 30s13.460938 30 30 30 30-13.460938 30-30-13.460938-30-30-30zm0 0" fill="#fdbf00"/></svg>