<?xml version="1.0" encoding="iso-8859-1"?>
<!-- Generator: Adobe Illustrator 19.0.0, SVG Export Plug-In . SVG Version: 6.00 Build 0)  -->
<svg version="1.1" id="Capa_1" xmlns="http://www.w3.org/2000/svg" xmlns:xlink="http://www.w3.org/1999/xlink" x="0px" y="0px"
	 viewBox="0 0 512 512" style="enable-background:new 0 0 512 512;" xml:space="preserve">
<path style="fill:#898890;" d="M499.642,152.269c0,5.429-2.192,10.331-5.75,13.888c-3.557,3.557-8.47,5.76-13.899,5.76H297.996
	v-39.297h181.997c5.398,0,10.279,2.172,13.826,5.688C497.419,141.867,499.642,146.81,499.642,152.269z"/>
<path style="fill:#ACABB1;" d="M493.82,138.308c-0.6,0.838-1.272,1.624-1.996,2.347c-3.557,3.557-8.47,5.75-13.899,5.75H297.996
	v-13.785h181.997C485.392,132.621,490.273,134.792,493.82,138.308z"/>
<path style="fill:#C6C5CA;" d="M345.97,136.571v31.396c0,23.899-23.744,43.465-52.751,43.465l-123.093-11.841
	c-6.453,0-11.727-3.475-11.727-7.725c0-2.823,1.386-5.378,3.63-7.229c2.244-1.851,5.346-2.989,8.78-2.989h79.546
	c5.843,0,11.055-3.392,11.955-8.139c1.117-5.977-4.53-11.179-11.582-11.179h-80.114c-6.743,0-12.213-4.509-12.213-10.062
	c0-2.782,1.365-5.295,3.578-7.115c2.213-1.82,5.264-2.947,8.635-2.947h79.742c5.843,0,11.055-3.392,11.955-8.139
	c1.117-5.977-4.53-11.179-11.582-11.179h-80.114c-6.743,0-12.213-4.509-12.213-10.062v-0.155c0-4.25,5.274-7.735,11.727-7.735
	l123.093-11.83c11.81,0,22.741,3.237,31.551,8.697C337.614,109.745,345.97,122.393,345.97,136.571z"/>
<path style="fill:#D8D7DA;" d="M327.355,115.195v31.396c0,23.909-23.744,43.465-52.751,43.465l-87.477-8.408h63.227
	c5.843,0,11.055-3.392,11.955-8.139c1.117-5.977-4.53-11.179-11.582-11.179h-80.114c-6.743,0-12.213-4.509-12.213-10.062
	c0-2.782,1.365-5.295,3.578-7.115c2.213-1.82,5.264-2.947,8.635-2.947h79.742c5.843,0,11.055-3.392,11.955-8.139
	c1.117-5.977-4.53-11.179-11.582-11.179h-80.114c-6.743,0-12.213-4.509-12.213-10.062v-0.155c0-4.25,5.274-7.735,11.727-7.735
	l123.093-11.83c11.81,0,22.741,3.237,31.551,8.697C326.445,106.024,327.355,110.521,327.355,115.195z"/>
<path style="fill:#FFC477;" d="M186.023,275.239c-4.283,0-7.756-3.472-7.756-7.756V97.195c0-4.284,3.473-7.756,7.756-7.756
	s7.756,3.472,7.756,7.756v170.288C193.779,271.766,190.308,275.239,186.023,275.239z"/>
<path style="fill:#FFA733;" d="M200.844,226.635c-4.283,0-7.756-3.472-7.756-7.756V97.195c0-4.284,3.473-7.756,7.756-7.756
	c4.283,0,7.756,3.472,7.756,7.756v121.683C208.6,223.162,205.128,226.635,200.844,226.635z"/>
<path style="fill:#FF9811;" d="M215.667,215.948c-4.283,0-7.756-3.472-7.756-7.756V97.195c0-4.284,3.473-7.756,7.756-7.756
	s7.756,3.472,7.756,7.756v110.997C223.423,212.476,219.95,215.948,215.667,215.948z"/>
<path style="fill:#B39A7C;" d="M460.479,338.806l-28.035,56.805c-7.89,15.977-32.358,26.95-60.145,26.95H139.701
	c-27.787,0-52.255-10.972-60.145-26.95l-28.035-56.805H460.479z"/>
<path style="fill:#D9CCBC;" d="M512,338.838c0,7.466-3.051,14.25-7.973,19.173c-4.922,4.922-11.706,7.973-19.173,7.973H27.146
	C12.213,365.984,0,353.771,0,338.838c0-7.466,3.051-14.25,7.973-19.173c4.922-4.923,11.706-7.973,19.173-7.973h457.708
	C499.787,311.692,512,323.916,512,338.838z"/>
<path style="fill:#C0AB91;" d="M460.479,338.806l-28.035,56.805c-7.89,15.977-32.358,26.95-60.145,26.95H171.759
	c-27.787,0-52.255-10.972-60.145-26.95l-28.035-56.805H460.479z"/>
<path style="fill:#EBE5DD;" d="M512,338.838c0,7.466-3.051,14.25-7.973,19.173c-4.922,4.922-11.706,7.973-19.173,7.973H59.204
	c-14.933,0-27.146-12.213-27.146-27.146c0-7.466,3.051-14.25,7.973-19.173c4.922-4.923,11.706-7.973,19.173-7.973h425.65
	C499.787,311.692,512,323.916,512,338.838z"/>
<path style="fill:#FFA733;" d="M383.136,282.55c-5.047-0.807-10.217-1.231-15.481-1.231c-1.427,0-2.844,0.031-4.25,0.093
	c-0.724,0.031-1.437,0.072-2.151,0.124c-5.926,0.372-11.706,1.293-17.291,2.699c-0.103,0.021-0.197,0.041-0.3,0.072
	c-5.936,1.5-11.655,3.557-17.105,6.101c-11.169,5.202-21.189,12.461-29.576,21.282h23.64c5.957-4.188,12.503-7.601,19.473-10.093
	c5.471-1.965,11.2-3.351,17.136-4.106c0.103-0.021,0.207-0.031,0.31-0.041c3.32-0.414,6.691-0.62,10.114-0.62
	c2.43,0,4.84,0.103,7.208,0.321c0.734,0.062,1.458,0.134,2.182,0.217c6.877,0.786,13.506,2.43,19.762,4.819
	c6.37,2.43,12.368,5.636,17.87,9.504h23.64C423.912,296.542,404.688,285.993,383.136,282.55z"/>
<g>
	<path style="fill:#EE8700;" d="M368.566,267.058c-0.3-0.01-0.61-0.01-0.91-0.01c-6.401,0-12.668,0.538-18.78,1.582
		c-0.724,0.114-1.448,0.248-2.161,0.393c-5.926,1.117-11.696,2.72-17.249,4.736c-0.103,0.041-0.207,0.083-0.31,0.114
		c-5.936,2.192-11.644,4.86-17.053,7.984c-13.185,7.57-24.685,17.746-33.785,29.835h20.393c8.273-8.49,18.097-15.471,29.007-20.455
		c5.45-2.503,11.179-4.498,17.115-5.936c0.093-0.031,0.197-0.062,0.3-0.072c5.595-1.355,11.375-2.213,17.291-2.523
		c0.724-0.041,1.437-0.072,2.161-0.093c1.024-0.031,2.048-0.052,3.071-0.052c5.677,0,11.251,0.496,16.66,1.448
		c20.321,3.557,38.459,13.495,52.276,27.684h20.393C436.736,284.815,404.657,267.337,368.566,267.058z"/>
	<path style="fill:#EE8700;" d="M396.373,301.454c-6.267-2.337-12.896-3.93-19.773-4.674c-0.714-0.083-1.437-0.155-2.172-0.207
		c-2.234-0.186-4.488-0.279-6.774-0.279c-3.578,0-7.104,0.228-10.559,0.672c-0.103,0.01-0.197,0.021-0.3,0.041
		c-5.926,0.776-11.655,2.192-17.125,4.178c-7.177,2.575-13.888,6.132-19.99,10.507h48.408c0.041,0.041,0.072,0.083,0.083,0.124
		c0.103-0.01,0.207-0.01,0.3,0c-0.01-0.041-0.041-0.083-0.072-0.124h47.219C409.724,307.472,403.261,304.009,396.373,301.454z"/>
</g>
<path style="fill:#FFA733;" d="M186.765,302.88c-4.002-3.237-8.283-6.163-12.772-8.728c-0.083-0.052-0.155-0.093-0.228-0.134
	c-4.116-2.347-8.428-4.395-12.896-6.132c-0.527-0.207-1.065-0.414-1.603-0.61c-4.757-1.748-9.679-3.133-14.736-4.116
	c-6.101-1.21-12.41-1.841-18.852-1.841c-27.787,0-52.886,11.675-70.662,30.373h23.63c13.32-9.359,29.545-14.861,47.032-14.861
	c2.927,0,5.822,0.155,8.666,0.455c5.067,0.538,10,1.531,14.747,2.958c0.548,0.155,1.075,0.321,1.613,0.496
	c4.488,1.437,8.811,3.258,12.916,5.409c0.083,0.041,0.155,0.083,0.228,0.124c3.071,1.613,6.029,3.423,8.852,5.419h23.64
	C193.352,308.547,190.157,305.6,186.765,302.88z"/>
<g>
	<path style="fill:#EE8700;" d="M197.623,293.336c-4.023-3.392-8.294-6.505-12.772-9.307c-0.072-0.052-0.145-0.103-0.228-0.145
		c-4.126-2.575-8.428-4.881-12.885-6.898c-0.527-0.248-1.065-0.486-1.603-0.714c-4.736-2.068-9.648-3.806-14.705-5.202
		c-9.473-2.627-19.452-4.023-29.752-4.023c-36.474,0-68.915,17.549-89.339,44.644h20.393c17.498-17.963,41.944-29.132,68.946-29.132
		c6.143,0,12.151,0.579,17.984,1.686c5.057,0.951,9.979,2.316,14.726,4.033c0.538,0.197,1.075,0.393,1.603,0.6
		c4.467,1.706,8.78,3.733,12.906,6.081c0.083,0.031,0.155,0.072,0.228,0.124c4.498,2.554,8.78,5.46,12.782,8.687
		c3.061,2.461,5.977,5.109,8.718,7.921h20.393C209.929,304.928,204.086,298.776,197.623,293.336z"/>
	<path style="fill:#EE8700;" d="M164.169,305.838c-0.072-0.052-0.155-0.093-0.228-0.124c-4.116-2.172-8.428-3.992-12.916-5.44
		c-0.527-0.176-1.065-0.341-1.603-0.496c-4.747-1.437-9.68-2.451-14.747-2.999c-2.958-0.321-5.957-0.486-8.997-0.486
		c-17.87,0-34.437,5.708-47.963,15.398h95.926C170.632,309.53,167.468,307.566,164.169,305.838z"/>
</g>
<path style="fill:#FFA733;" d="M263.911,285.632c-25.585,0-48.894,9.897-66.309,26.06h26.112
	c11.882-6.712,25.605-10.548,40.197-10.548c14.592,0,28.304,3.826,40.186,10.548h26.112
	C312.795,295.529,289.485,285.632,263.911,285.632z"/>
<path style="fill:#FF9811;" d="M263.911,270.491c-34.902,0-66.112,16.07-86.629,41.2h21.22
	c17.187-15.936,40.186-25.688,65.409-25.688c25.212,0,48.211,9.752,65.399,25.688h21.22
	C330.023,286.562,298.803,270.491,263.911,270.491z"/>
<path style="fill:#FFC477;" d="M263.911,300.729c-14.954,0-28.987,3.992-41.107,10.962h82.203
	C292.898,304.722,278.854,300.729,263.911,300.729z"/>
<path style="fill:#FF9811;" d="M396.808,302.189c-0.134-0.248-0.279-0.486-0.434-0.734c-3.619-6.101-7.653-11.924-12.058-17.446
	c-0.393-0.486-0.786-0.972-1.179-1.458c-4.509-5.491-9.369-10.672-14.571-15.491c-27.456-25.45-64.189-41.024-104.479-41.024
	c-42.379,0-80.818,17.229-108.657,45.037c-3.837,3.837-7.477,7.87-10.9,12.089c-0.29,0.362-0.579,0.724-0.869,1.086
	c-3.195,4.023-6.194,8.201-8.987,12.534c-0.114,0.176-0.217,0.341-0.331,0.507c-2.958,4.643-5.677,9.442-8.139,14.405h17.57
	c2.141-3.764,4.447-7.415,6.929-10.951c0.103-0.155,0.217-0.31,0.321-0.465c2.792-3.961,5.791-7.756,8.966-11.396
	c0.3-0.331,0.589-0.662,0.879-0.993c3.423-3.837,7.053-7.477,10.869-10.9c24.499-22.027,56.888-35.44,92.348-35.44
	c30.952,0,59.556,10.217,82.627,27.477c5.14,3.826,9.99,8.015,14.54,12.513c0.393,0.383,0.786,0.776,1.169,1.169
	c4.302,4.354,8.314,8.987,12.006,13.868c0.145,0.197,0.29,0.383,0.434,0.579c3.464,4.633,6.649,9.483,9.524,14.54h17.57
	C400.355,308.455,398.638,305.291,396.808,302.189z"/>
<path style="fill:#FFC477;" d="M368.4,311.692c-3.278-5.016-6.908-9.773-10.858-14.24c-0.145-0.165-0.29-0.331-0.445-0.486
	c-3.713-4.178-7.715-8.108-11.965-11.737c-0.383-0.352-0.776-0.672-1.169-0.993c-4.571-3.837-9.411-7.332-14.499-10.476
	c-19.018-11.768-41.417-18.563-65.378-18.563c-30.176,0-57.87,10.776-79.463,28.687c-3.816,3.154-7.446,6.546-10.858,10.134
	c-0.3,0.31-0.6,0.62-0.869,0.941c-3.195,3.413-6.184,7.001-8.956,10.755c-0.124,0.145-0.228,0.29-0.321,0.434
	c-1.344,1.81-2.627,3.65-3.857,5.543h19.142c2.192-2.751,4.53-5.398,7.001-7.921c0.279-0.3,0.569-0.6,0.858-0.889
	c3.413-3.413,7.032-6.608,10.858-9.545c18.418-14.178,41.469-22.627,66.464-22.627c17.218,0,33.516,4.012,48.015,11.148
	c5.057,2.482,9.886,5.346,14.457,8.552c0.393,0.269,0.776,0.538,1.158,0.827c4.219,3.02,8.211,6.36,11.955,9.948
	c0.145,0.134,0.29,0.279,0.424,0.414c3.258,3.175,6.329,6.546,9.173,10.093h18.821c0.041,0.041,0.072,0.083,0.083,0.124
	c0.103-0.01,0.207-0.01,0.3,0C368.462,311.775,368.431,311.734,368.4,311.692z"/>
<path style="fill:#FFA733;" d="M386.249,311.692c-2.792-4.964-5.864-9.752-9.204-14.323c-0.155-0.196-0.3-0.393-0.445-0.589
	c-3.692-4.985-7.704-9.721-12.017-14.168c-0.393-0.403-0.776-0.807-1.179-1.2c-4.54-4.581-9.4-8.852-14.53-12.782
	c-23.537-17.994-52.937-28.687-84.789-28.687c-36.133,0-69.101,13.764-93.951,36.329c-3.816,3.464-7.446,7.136-10.869,11.003
	c-0.29,0.331-0.589,0.672-0.879,1.003c-3.185,3.671-6.174,7.508-8.966,11.5c-0.114,0.155-0.228,0.31-0.331,0.465
	c-2.565,3.692-4.953,7.508-7.167,11.448h18.159c1.2-1.841,2.451-3.651,3.764-5.419c0.103-0.145,0.207-0.29,0.321-0.434
	c2.782-3.754,5.77-7.342,8.956-10.755c0.29-0.31,0.579-0.62,0.869-0.931c3.423-3.588,7.042-6.97,10.858-10.124
	c21.531-17.839,49.152-28.573,79.235-28.573c23.837,0,46.122,6.743,65.068,18.418c5.088,3.133,9.938,6.618,14.509,10.434
	c0.393,0.331,0.786,0.662,1.169,0.993c4.25,3.63,8.252,7.539,11.965,11.706c0.155,0.165,0.3,0.321,0.434,0.486
	c3.961,4.457,7.591,9.204,10.858,14.199c0.041,0.041,0.072,0.083,0.083,0.124c0.103-0.01,0.207-0.01,0.3,0
	c-0.01-0.041-0.041-0.083-0.072-0.124H386.249z"/>
<path style="fill:#D9CCBC;" d="M368.472,311.816c-0.093-0.01-0.197-0.01-0.3,0c-0.01-0.041-0.041-0.083-0.083-0.124h0.31
	C368.431,311.734,368.462,311.775,368.472,311.816z"/>
<path style="fill:#781900;" d="M366.394,265.083c-4.064,3.547-8.532,6.887-13.95,7.942c-9.235,1.81-21.014-6.867-31.975-5.646
	c-9.679,1.076-19.111,12.213-29.824,12.761c-9.907,0.507-20.466-9.555-31.024-9.555s-21.107,10.062-31.024,9.555
	c-10.714-0.548-20.145-11.686-29.824-12.761c-10.962-1.22-22.741,7.446-31.986,5.646c-3.371-0.662-6.37-2.203-9.131-4.126
	c5.357-5.15,11.096-9.907,17.156-14.24c25.181-18.015,56.019-28.625,89.277-28.625c33.361,0,64.282,10.672,89.515,28.801
	C358.048,258.021,362.319,261.443,366.394,265.083z"/>
<path style="fill:#AB2300;" d="M353.602,254.836c-0.383,0.103-0.765,0.196-1.158,0.269c-9.235,1.81-21.014-6.867-31.975-5.646
	c-9.679,1.075-19.111,12.213-29.824,12.761c-9.907,0.507-20.466-9.555-31.024-9.555s-21.107,10.062-31.024,9.555
	c-10.714-0.548-20.145-11.686-29.824-12.761c-7.984-0.889-16.401,3.464-23.961,5.202c25.181-18.015,56.019-28.625,89.277-28.625
	C297.448,226.034,328.369,236.706,353.602,254.836z"/>
<g>
	<circle style="fill:#781900;" cx="297.603" cy="239.506" r="6.146"/>
	<circle style="fill:#781900;" cx="238.14" cy="239.506" r="6.146"/>
	<circle style="fill:#781900;" cx="278.689" cy="243.756" r="6.146"/>
</g>
<g>
</g>
<g>
</g>
<g>
</g>
<g>
</g>
<g>
</g>
<g>
</g>
<g>
</g>
<g>
</g>
<g>
</g>
<g>
</g>
<g>
</g>
<g>
</g>
<g>
</g>
<g>
</g>
<g>
</g>
</svg>
