<?xml version="1.0" encoding="utf-8"?>
<!-- Generator: Adobe Illustrator 16.0.0, SVG Export Plug-In . SVG Version: 6.00 Build 0)  -->
<!DOCTYPE svg PUBLIC "-//W3C//DTD SVG 1.1//EN" "http://www.w3.org/Graphics/SVG/1.1/DTD/svg11.dtd">
<svg xmlns="http://www.w3.org/2000/svg" xmlns:xlink="http://www.w3.org/1999/xlink" version="1.1" id="Layer_1" x="0px" y="0px" width="512" height="512" viewBox="0 0 512 512" enable-background="new 0 0 512 512" xml:space="preserve">
<g id="spices">
	<path fill="#E5E8EC" d="M448.836,158.495L343.245,52.903c-105.076,105.061-92.155,77.076-179.684,164.591   c-87.514,87.522,33.437,207.925,120.684,120.677C371.493,250.93,342.683,264.649,448.836,158.495z"/>
	<g>
		<polygon fill="#A9B1BC" points="288.87,227.946 273.776,212.869 380.946,105.699 396.024,120.792   "/>
	</g>
	<path fill="#FB6D51" d="M284.245,338.171c69.562-69.568,65.343-74.943,114.576-128.068l-228.62,0.781   c-2.141,2.125-4.359,4.328-6.64,6.609C76.047,305.016,196.998,425.419,284.245,338.171z"/>
	<path fill="#FB6D51" d="M117.827,501.324c0,5.891-4.781,10.672-10.671,10.672s-10.672-4.781-10.672-10.672   s4.781-10.671,10.672-10.671S117.827,495.434,117.827,501.324z"/>
	<path fill="#FB6D51" d="M203.154,501.324c0,5.891-4.781,10.672-10.672,10.672c-5.89,0-10.656-4.781-10.656-10.672   s4.766-10.671,10.656-10.671C198.373,490.653,203.154,495.434,203.154,501.324z"/>
	<path fill="#FB6D51" d="M32.485,501.324c0,5.891-4.766,10.672-10.656,10.672s-10.671-4.781-10.671-10.672   s4.781-10.671,10.671-10.671S32.485,495.434,32.485,501.324z"/>
	<path fill="#FB6D51" d="M117.827,415.998c0,5.874-4.781,10.655-10.671,10.655s-10.672-4.781-10.672-10.655   c0-5.906,4.781-10.672,10.672-10.672S117.827,410.092,117.827,415.998z"/>
	<path fill="#FB6D51" d="M75.156,458.653c0,5.891-4.781,10.672-10.672,10.672c-5.89,0-10.656-4.781-10.656-10.672   s4.766-10.656,10.656-10.656C70.375,447.997,75.156,452.763,75.156,458.653z"/>
	<path fill="#FB6D51" d="M160.483,458.653c0,5.891-4.766,10.672-10.656,10.672s-10.671-4.781-10.671-10.672   s4.781-10.656,10.671-10.656S160.483,452.763,160.483,458.653z"/>
	<path opacity="0.2" fill="#FFFFFF" d="M448.836,158.495l-15.093-15.078c-106.154,106.154-77.343,92.42-164.592,179.661   c-40.014,40.016-87.106,36.359-117.934,12.219c28.515,36.438,85.717,50.172,133.028,2.875   C371.493,250.93,342.683,264.649,448.836,158.495z"/>
	<g>
		<path fill="#A85D5D" d="M433.806,173.635L328.089,67.934l35.265-65.311c0,0,32.108-18.172,91.498,41.218    c59.405,59.405,44.265,94.545,44.265,94.545L433.806,173.635z"/>
	</g>
	<path fill="#965353" d="M448.836,158.495L448.836,158.495L343.245,52.903h-0.016c-4.156-4.156-10.906-4.156-15.078,0   c-4.156,4.172-4.156,10.922,0,15.093c0,0,0,0,0.016,0l105.576,105.576v0.016c4.172,4.156,10.922,4.156,15.093,0   C452.992,169.416,452.992,162.667,448.836,158.495z"/>
	<g>
		<polygon fill="#646C77" points="290.433,331.968 169.764,211.291 114.609,266.446 235.294,387.124   "/>
	</g>
	<g>
		<path fill="#424953" d="M260.277,377.218c4.156-4.156,4.156-10.922,0-15.078L139.593,241.461c-4.156-4.156-10.922-4.156-15.078,0    L79.25,286.719c-4.156,4.156-4.156,10.906,0,15.078l120.685,120.669c4.156,4.172,10.922,4.172,15.078,0L260.277,377.218z"/>
	</g>
	<path fill="#646C77" d="M116.968,324.421c-4.171-4.172-10.921-4.172-15.078,0l15.078,15.078   C121.14,335.343,121.14,328.593,116.968,324.421z"/>
	<path fill="#646C77" d="M147.139,354.593c-4.172-4.172-10.921-4.172-15.093,0l15.093,15.078   C151.295,365.515,151.295,358.765,147.139,354.593z"/>
	<path fill="#646C77" d="M177.311,384.765c-4.172-4.172-10.921-4.172-15.093,0l15.093,15.077   C181.467,395.686,181.467,388.921,177.311,384.765z"/>
	<g>
		<path fill="#424953" d="M282.901,350.171c-2.734,0-5.469-1.031-7.547-3.125L154.686,226.384c-4.172-4.172-4.172-10.921,0-15.093    c4.156-4.156,10.906-4.156,15.078,0l120.669,120.677c4.172,4.156,4.172,10.922,0,15.078    C288.354,349.124,285.62,350.171,282.901,350.171z"/>
	</g>
</g>
</svg>
