<?xml version="1.0" encoding="iso-8859-1"?>
<!-- Generator: Adobe Illustrator 19.0.0, SVG Export Plug-In . SVG Version: 6.00 Build 0)  -->
<svg version="1.1" id="Capa_1" xmlns="http://www.w3.org/2000/svg" xmlns:xlink="http://www.w3.org/1999/xlink" x="0px" y="0px"
	 viewBox="0 0 468.293 468.293" style="enable-background:new 0 0 468.293 468.293;" xml:space="preserve">
<path style="fill:#D15241;" d="M430.236,14.121c-0.101-0.51-0.293-0.982-0.437-1.474c-0.177-0.605-0.317-1.218-0.56-1.805
	c-0.239-0.576-0.567-1.098-0.864-1.641c-0.251-0.461-0.455-0.94-0.75-1.382c-0.632-0.944-1.349-1.824-2.147-2.628
	c-0.015-0.015-0.025-0.033-0.04-0.049c-0.034-0.034-0.074-0.055-0.108-0.089c-0.787-0.775-1.643-1.479-2.565-2.095
	c-0.448-0.299-0.932-0.506-1.4-0.76c-0.538-0.292-1.054-0.617-1.623-0.854c-0.58-0.24-1.185-0.378-1.783-0.554
	c-0.501-0.147-0.98-0.341-1.499-0.444c-1.092-0.217-2.199-0.325-3.308-0.334c-0.044,0-0.085-0.013-0.129-0.013h-46.589
	c-9.698,0-17.561,7.863-17.561,17.561s7.863,17.561,17.561,17.561h4.194L319.561,86.19l-43.902-43.9
	c-6.854-6.86-17.978-6.86-24.832,0l-83.443,83.44L131.869,90.22c-6.588-6.591-18.244-6.591-24.835,0l-67.1,67.103
	c-6.857,6.857-6.857,17.975,0.003,24.835c3.427,3.427,7.923,5.142,12.416,5.142c4.493,0,8.989-1.715,12.419-5.145l54.681-54.684
	l35.514,35.511c6.854,6.86,17.978,6.86,24.832,0l83.443-83.44l43.902,43.9c6.588,6.594,18.247,6.588,24.835,0l63.481-63.483v4.194
	c0,9.698,7.863,17.561,17.561,17.561c9.698,0,17.561-7.863,17.561-17.561V17.564C430.583,16.41,430.462,15.257,430.236,14.121z"/>
<rect x="25.603" y="443.317" style="fill:#2D93BA;" width="77.175" height="24.976"/>
<rect x="25.603" y="263.087" style="fill:#27A2DB;" width="77.175" height="180.23"/>
<rect x="138.905" y="443.317" style="fill:#3EA69B;" width="77.175" height="24.976"/>
<rect x="138.905" y="327.674" style="fill:#44C4A1;" width="77.175" height="115.643"/>
<rect x="252.207" y="209.608" style="fill:#FCD462;" width="77.175" height="233.697"/>
<rect x="252.207" y="443.317" style="fill:#F6C358;" width="77.175" height="24.976"/>
<rect x="365.515" y="141.424" style="fill:#E56353;" width="77.175" height="301.893"/>
<rect x="365.515" y="443.317" style="fill:#D15241;" width="77.175" height="24.976"/>
<g>
</g>
<g>
</g>
<g>
</g>
<g>
</g>
<g>
</g>
<g>
</g>
<g>
</g>
<g>
</g>
<g>
</g>
<g>
</g>
<g>
</g>
<g>
</g>
<g>
</g>
<g>
</g>
<g>
</g>
</svg>
