<svg height="475pt" viewBox="0 -3 475.576 475" width="475pt" xmlns="http://www.w3.org/2000/svg"><path d="m115.574219 356.414062-8 48 32 40 8 24h40l-8-24-32-48 24-32zm0 0" fill="#bf5b00"/><path d="m413.175781 236.257812-3.199219-15.683593 36.800782-7.359375 14.160156-21.246094 13.308594 8.878906-16 24c-1.175782 1.761719-3.007813 2.984375-5.085938 3.398438zm0 0" fill="#9196a9"/><path d="m11.574219 468.414062h40l-8-24v-40l24-16 24-32 64 16 40-8 40 8 32 64v16l8 16h32l-8-24-8-48 16-24 56-24 32-72 24 16 24-16-16-40v-40l-24-24-32 8-24 16-40 8-24 16-112 8-80 24-48 32-8 48-32 48 8 64zm0 0" fill="#e38100"/><path d="m381.175781 212.257812-3.199219-15.683593 36.800782-7.359375 14.160156-21.246094 13.308594 8.878906-16 24c-1.175782 1.761719-3.007813 2.984375-5.085938 3.398438zm0 0" fill="#bec3d1"/><path d="m439.183594.289062-20.597656 10.296876 25.671874 8.550781-116.257812 58.121093c-1.550781.773438-2.808594 2.03125-3.585938 3.582032l-35.871093 71.746094-96.414063-66.746094c-1.867187-1.292969-4.191406-1.730469-6.398437-1.207032-2.210938.523438-4.089844 1.960938-5.179688 3.953126l-46.796875 85.796874-133.753906 66.832032 7.152344 14.320312 136-68c1.460937-.734375 2.664062-1.894531 3.449218-3.328125l43.734376-80.191406 96.6875 66.9375c1.90625 1.320313 4.292968 1.75 6.542968 1.171875 2.246094-.574219 4.132813-2.097656 5.167969-4.171875l38.800781-77.601563 113.871094-56.902343-8.558594 25.65625 20.601563-10.296875 12.125-36.394532zm0 0" fill="#2cb357"/></svg>