<?xml version="1.0" encoding="iso-8859-1"?>
<!-- Generator: Adobe Illustrator 18.0.0, SVG Export Plug-In . SVG Version: 6.00 Build 0)  -->
<!DOCTYPE svg PUBLIC "-//W3C//DTD SVG 1.1//EN" "http://www.w3.org/Graphics/SVG/1.1/DTD/svg11.dtd">
<svg version="1.1" id="Capa_1" xmlns="http://www.w3.org/2000/svg" xmlns:xlink="http://www.w3.org/1999/xlink" x="0px" y="0px"
	 viewBox="0 0 387.481 387.481" style="enable-background:new 0 0 387.481 387.481;" xml:space="preserve">
<g>
	<g id="XMLID_7_">
		<g>
			<polygon style="fill:#E6E6E6;" points="314.734,261.389 320.944,301.239 267.194,311.989 283.324,252.859 			"/>
			<polygon style="fill:#CCCCCC;" points="320.944,301.239 286.904,365.729 267.194,311.989 			"/>
			<polygon style="fill:#F2F2F2;" points="299.444,163.279 314.734,261.389 283.324,252.859 252.864,233.159 270.773,186.569 			"/>
			<polygon style="fill:#E6E6E6;" points="292.184,116.719 299.444,163.279 270.773,186.569 236.734,165.079 233.154,131.039 			"/>
			<polygon style="fill:#F2F2F2;" points="282.664,55.609 292.184,116.719 233.154,131.039 256.444,84.449 			"/>
			<polygon style="fill:#F2F2F2;" points="267.194,311.989 286.904,365.729 188.364,387.229 125.664,303.029 			"/>
			<polygon style="fill:#CCCCCC;" points="283.324,252.859 267.194,311.989 125.664,303.029 138.204,98.789 224.194,57.579 
				256.444,84.449 233.154,131.039 236.734,165.079 270.773,186.569 252.864,233.159 			"/>
			<polygon style="fill:#E6E6E6;" points="277.944,25.329 282.664,55.609 256.444,84.449 224.194,57.579 			"/>
			<polygon style="fill:#CCCCCC;" points="277.944,25.329 224.194,57.579 243.904,0.249 			"/>
			<polygon style="fill:#F2F2F2;" points="243.904,0.249 224.194,57.579 138.204,98.789 174.034,18.169 			"/>
			<polygon style="fill:#B3B3B3;" points="125.664,303.029 188.364,387.229 66.534,310.189 			"/>
			<polygon style="fill:#B3B3B3;" points="174.034,18.169 138.204,98.789 86.244,91.619 			"/>
			<polygon style="fill:#999999;" points="138.204,98.789 125.664,303.029 66.534,310.189 86.244,91.619 			"/>
		</g>
		<g>
		</g>
	</g>
</g>
<g>
</g>
<g>
</g>
<g>
</g>
<g>
</g>
<g>
</g>
<g>
</g>
<g>
</g>
<g>
</g>
<g>
</g>
<g>
</g>
<g>
</g>
<g>
</g>
<g>
</g>
<g>
</g>
<g>
</g>
</svg>
