<?xml version="1.0" encoding="iso-8859-1"?>
<!-- Generator: Adobe Illustrator 19.0.0, SVG Export Plug-In . SVG Version: 6.00 Build 0)  -->
<svg version="1.1" id="Layer_1" xmlns="http://www.w3.org/2000/svg" xmlns:xlink="http://www.w3.org/1999/xlink" x="0px" y="0px"
	 viewBox="0 0 512 512" style="enable-background:new 0 0 512 512;" xml:space="preserve">
<g>
	<path style="fill:#609399;" d="M360.96,315.449l-139.093-4.801l-64.808-104.448L3.118,215.95C1.07,229.001,0,242.369,0,256
		c0,141.38,114.62,256,256,256c70.69,0,134.69-28.649,181.02-74.98L360.96,315.449z"/>
	<path style="fill:#609399;" d="M256,0C185.31,0,121.31,28.649,74.98,74.98l76.06,121.572l127.716,1.991l76.186,107.258
		l153.941-9.75c2.048-13.05,3.117-26.419,3.117-40.05C512,114.62,397.38,0,256,0z"/>
</g>
<g>
	<path style="fill:#B4E5EA;" d="M74.98,74.98C37.581,112.378,11.708,161.291,3.118,215.95l153.941,24.384l28.114-55.159L74.98,74.98
		z"/>
	<path style="fill:#B4E5EA;" d="M354.941,271.667l-28.115,55.159L437.02,437.02c37.399-37.398,63.272-86.311,71.862-140.97
		L354.941,271.667z"/>
</g>
<path style="fill:#6FC5D6;" d="M256,155.844c-55.315,0-100.156,44.842-100.156,100.156c0,55.315,44.842,100.156,100.156,100.156
	S356.156,311.315,356.156,256S311.315,155.844,256,155.844z M256,290.702c-19.166,0-34.702-15.536-34.702-34.702
	s15.536-34.702,34.702-34.702s34.702,15.536,34.702,34.702S275.166,290.702,256,290.702z"/>
<g>
</g>
<g>
</g>
<g>
</g>
<g>
</g>
<g>
</g>
<g>
</g>
<g>
</g>
<g>
</g>
<g>
</g>
<g>
</g>
<g>
</g>
<g>
</g>
<g>
</g>
<g>
</g>
<g>
</g>
</svg>
