<?xml version="1.0"?>
<svg xmlns="http://www.w3.org/2000/svg" viewBox="0 0 64 64" width="512" height="512"><g id="flat"><path d="M3,39H19a0,0,0,0,1,0,0V57a4,4,0,0,1-4,4H7a4,4,0,0,1-4-4V39A0,0,0,0,1,3,39Z" style="fill:#d9833b"/><rect x="19" y="49" width="8" height="8" style="fill:#8b3123"/><polygon points="61 55 51 56 27 57 27 49 51 50 61 51 61 55" style="fill:#d9833b"/><rect x="3" y="39" width="16" height="6" style="fill:#5a6470"/><path d="M10,58H8a2,2,0,0,1-2-2V51H8v5h2Z" style="fill:#8b3123"/><rect x="12" y="56" width="2" height="2" style="fill:#8b3123"/><polygon points="61 55 53 55.8 53 50.2 61 51 61 55" style="fill:#8b3123"/><path d="M48,20a5,5,0,0,0-5-5H41a5.062,5.062,0,0,0,0-1A10.994,10.994,0,0,0,21,7.684a6.993,6.993,0,0,0-6.644,12.287A5.987,5.987,0,0,0,20,28a6.245,6.245,0,0,0,4-2c-.023.2-9,9-9,9a116.762,116.762,0,0,1,23-2c7.677,0,7.262-7.075,7-9C46.715,23.207,48,22.013,48,20Z" style="fill:#b8c6cc"/><path d="M37,31l0-2a3.85,3.85,0,0,0,4-4h2A5.785,5.785,0,0,1,37,31Z" style="fill:#5a6470"/><path d="M24.929,10.372l-1.858-.744c.814-2.031,3.793-5.392,9.245-3.577l-.632,1.9C26.636,6.268,25,10.2,24.929,10.372Z" style="fill:#5a6470"/><path d="M19.757,24.97A4.058,4.058,0,0,1,16.846,22.8a5.361,5.361,0,0,1,.259-4.242l1.79.894L18,19l.9.444a3.411,3.411,0,0,0-.23,2.521,2.157,2.157,0,0,0,1.577,1.065Z" style="fill:#5a6470"/><rect x="23" y="14" width="2" height="2" style="fill:#5a6470"/><rect x="27" y="17" width="2" height="2" style="fill:#5a6470"/><rect x="40" y="19" width="2" height="2" style="fill:#5a6470"/></g></svg>
