<svg width="512" height="512" xmlns="http://www.w3.org/2000/svg">

 <g>
  <title>Layer 1</title>
  <path id="svg_1" fill="#96d6d4" d="m512,256c0,141.38672 -114.61328,256 -256,256s-256,-114.61328 -256,-256c0,-54.84766 17.25,-105.67969 46.625,-147.33984c14.15625,-20.08594 31.13672,-38.04688 50.36328,-53.28907c43.67578,-34.67187 98.91797,-55.37109 159.01172,-55.37109c141.38672,0 256,114.61328 256,256zm0,0"/>
  <path id="svg_2" fill="#e6e6e6" d="m280.53516,106.74609c0,-7.35546 5.95312,-13.32031 13.32031,-13.32031l126.57031,0c3.67578,0 7.01172,1.49219 9.42578,3.90625c2.40235,2.40235 3.89453,5.73828 3.89453,9.41406c0,7.35547 5.96875,13.32422 13.32422,13.32422l25.89063,0c5.37109,8.55469 10.2539,17.44922 14.59765,26.64453l-19.76953,0c-3.67578,0 -7.01172,1.49219 -9.41406,3.90625c-2.41406,2.40235 -3.90625,5.73829 -3.90625,9.41407c0,7.35937 -5.96875,13.32422 -13.32422,13.32422l-126.56641,0c-3.67968,0 -7.01171,-1.4961 -9.42578,-3.91016c-2.40234,-2.40234 -3.89843,-5.73438 -3.89843,-9.41406c0,-7.35547 5.96875,-13.32032 13.32421,-13.32032l42.9336,0c7.35547,0 13.32422,-5.96875 13.32422,-13.32421s-5.96875,-13.32032 -13.32422,-13.32032l-63.65625,0c-3.6875,0 -7.01172,-1.49609 -9.42188,-3.91015c-2.41406,-2.40235 -3.89843,-5.73438 -3.89843,-9.41407zm0,0"/>
  <path id="svg_3" fill="#e6e6e6" d="m185.80469,95.33594c0,7.35547 -5.96875,13.32422 -13.32422,13.32422l-125.85547,0c14.15625,-20.08594 31.13672,-38.04688 50.36328,-53.28907l27.75,0c3.67969,0 7.01172,1.49219 9.42578,3.90625c2.40235,2.40235 3.89844,5.73438 3.89844,9.41407c0,7.35547 5.96484,13.32422 13.32422,13.32422l21.09375,0c3.67969,0 7.01172,1.49218 9.41406,3.90625c2.41406,2.40234 3.91016,5.73828 3.91016,9.41406zm0,0"/>
  <path id="svg_4" fill="#484c47" d="m512,256c0,8.74609 -0.4375,17.38672 -1.29687,25.90234c-1.73438,17.29297 -5.19141,34.07422 -10.19532,50.17579c-32.40234,104.23828 -129.62109,179.92187 -244.50781,179.92187c-118.40625,0 -218.03906,-80.38281 -247.28516,-189.56641c-3.25,-12.07812 -5.62109,-24.5 -7.0625,-37.20703c-1.08984,-9.59375 -1.65234,-19.34375 -1.65234,-29.22656l512,0zm0,0"/>
  <g id="svg_5" fill="#69b8d4">
   <path fill="#ced6ea" id="svg_6" d="m431.92578,332.76172c0,-1.86328 -7.78515,-3.375 -17.39062,-3.375c-9.60547,0 -17.39453,1.51172 -17.39453,3.375s7.78906,3.375 17.39453,3.375c9.60547,0 17.39062,-1.51172 17.39062,-3.375zm0,0"/>
   <path fill="#ced6ea" id="svg_7" d="m404.01563,350.82813c0,-1.86329 -7.78516,-3.375 -17.39063,-3.375s-17.39453,1.51171 -17.39453,3.375c0,1.86718 7.78906,3.3789 17.39453,3.3789s17.39063,-1.51172 17.39063,-3.3789zm0,0"/>
   <path fill="#ced6ea" id="svg_8" d="m237.08984,331.66406c0,-1.86328 -7.78515,-3.375 -17.39062,-3.375s-17.39063,1.51172 -17.39063,3.375c0,1.86328 7.78516,3.375 17.39063,3.375s17.39062,-1.51172 17.39062,-3.375zm0,0"/>
   <path fill="#ced6ea" id="svg_9" d="m341.95703,466.07422c0,-3.20703 -13.39453,-5.80469 -29.91406,-5.80469s-29.91406,2.59766 -29.91406,5.80469s13.39453,2.14844 29.91406,2.14844s29.91406,1.05859 29.91406,-2.14844zm0,0"/>
   <path fill="#ced6ea" id="svg_10" d="m274.59766,481.26563c0,-3.20704 -13.39453,-5.80469 -29.91407,-5.80469c-16.51953,0 -29.91406,2.59765 -29.91406,5.80469s13.39453,2.14843 29.91406,2.14843c16.51954,0 29.91407,1.0586 29.91407,-2.14843zm0,0"/>
   <path fill="#ced6ea" id="svg_11" d="m163.07813,412.07422c0,-3.20703 -13.39063,-5.80469 -29.91407,-5.80469c-16.51953,0 -29.91406,2.60156 -29.91406,5.80469c0,3.20703 13.39453,2.14844 29.91406,2.14844c16.52344,0 29.91407,1.05859 29.91407,-2.14844zm0,0"/>
  </g>
  <path stroke="null" id="svg_12" fill="#fff" d="m479.93359,275.67426c-60.60044,0.9297 -62.09322,20.90387 -125.59521,20.90387c-65.03295,0 -65.03295,-20.94301 -130.07353,-20.94301c-60.48972,0 -64.71989,18.11472 -117.33343,20.63963l-56.74062,-4.11031l-2.05017,-0.1419l0.14126,-0.30338l76.64298,-156.75454c9.73546,-19.89586 29.5042,-27.38251 46.10031,-17.45904l47.77253,28.58623c8.34578,4.9862 17.86363,5.72019 26.62556,2.05516l62.00159,-25.98304c7.72729,-3.24421 15.79819,-2.97018 23.0597,0.22019l0.00763,0.01468c8.12817,3.57205 15.24842,10.85318 19.75346,20.99684l19.90236,44.90514c8.84592,19.93502 27.69455,28.64007 44.42429,20.51241c4.21871,-2.05515 8.56722,-3.03379 12.8661,-3.03379c12.6332,0 24.75482,8.49464 31.40548,23.21837l21.0897,46.6765zm0,0"/>
  <path stroke="null" id="svg_13" fill="#ccc" d="m179.61328,251.63432c0,2.62168 -0.4182,5.32251 -1.33743,7.96893l-8.3765,24.10468c-22.2849,6.11398 -39.14141,13.87021 -81.82721,13.87021c-22.05302,0 -37.21602,-2.07757 -49.78698,-4.91196l83.12323,-158.46362c10.55861,-20.11278 31.99882,-27.68104 49.99815,-17.64939l-25.55184,86.71846c-3.97501,13.48437 4.40977,27.63158 16.38034,27.63158c9.99135,0 17.37824,9.77444 17.37824,20.73112zm0,0"/>
  <path stroke="null" id="svg_14" fill="#ccc" d="m305.03125,156.58801l-19.24387,55.91637c-6.2458,18.15023 -21.63545,20.87679 -30.14189,5.34066l-22.89549,-41.8138c5.40083,4.09183 11.56015,4.69417 17.23029,1.68653l40.12331,-21.32251c5.00059,-2.6623 10.22354,-2.43743 14.92271,0.1807l0.00494,0.01205zm0,0"/>
  <path id="svg_15" fill="#0084a6" d="m40.23828,294.05469l-2.09765,-0.11328l0.14453,-0.24219c0.63672,0.11719 1.29687,0.24219 1.95312,0.35547zm0,0"/>
  <path id="svg_16" fill="#ccc" d="m341.55859,263.8125l5.28516,-19.51562c1.82813,-6.75391 10.625,-8.44141 14.82422,-2.84375l12.19531,16.26171c3.73828,4.98438 0.94141,12.15625 -5.17969,13.29297l-17.48437,3.25391c-6.08203,1.13281 -11.25781,-4.48047 -9.64063,-10.44922zm0,0"/>
 </g>
</svg>