<?xml version="1.0" encoding="iso-8859-1"?>
<!-- Generator: Adobe Illustrator 19.0.0, SVG Export Plug-In . SVG Version: 6.00 Build 0)  -->
<svg version="1.1" id="Layer_1" xmlns="http://www.w3.org/2000/svg" xmlns:xlink="http://www.w3.org/1999/xlink" x="0px" y="0px"
	 viewBox="0 0 511.999 511.999" style="enable-background:new 0 0 511.999 511.999;" xml:space="preserve">
<path style="fill:#464655;" d="M503.999,248.246H335.596c-1.697-17.082-8.817-32.531-19.546-44.738L436.109,83.449
	c3.125-3.125,3.125-8.187,0-11.312s-8.187-3.125-11.312,0L304.331,192.604c-3.971-3.021-8.22-5.672-12.723-7.917L356,29.215
	c1.688-4.086-0.25-8.766-4.328-10.453c-4.063-1.68-8.766,0.242-10.453,4.328l-64.586,155.941
	c-6.593-1.758-13.485-2.785-20.632-2.785c-7.683,0-15.087,1.146-22.12,3.168L163.031,8.363c-1.688-4.086-6.383-6-10.453-4.328
	c-4.078,1.687-6.016,6.367-4.328,10.453l70.769,170.857c-14.218,7.432-25.936,18.977-33.523,33.098L43.562,159.652
	c-4.055-1.672-8.758,0.242-10.453,4.328c-1.687,4.086,0.25,8.766,4.328,10.453l141.959,58.802
	c-1.449,4.831-2.479,9.843-2.993,15.011H8c-4.422,0-8,3.578-8,8c0,4.422,3.578,8,8,8h168.404
	c1.499,15.089,7.251,28.891,15.953,40.331L72.344,424.591c-3.125,3.125-3.125,8.188,0,11.313c1.563,1.562,3.609,2.344,5.656,2.344
	s4.094-0.781,5.656-2.344l119.606-119.605c3.921,3.446,8.172,6.512,12.717,9.146l-64.518,155.764
	c-1.688,4.086,0.25,8.766,4.328,10.453c1,0.414,2.039,0.609,3.062,0.609c3.133,0,6.117-1.859,7.391-4.938l64.32-155.285
	c7.999,2.684,16.535,4.199,25.438,4.199c8.148,0,16.005-1.235,23.412-3.5l70.776,170.883c1.273,3.078,4.258,4.938,7.391,4.938
	c1.023,0,2.063-0.195,3.063-0.609c4.078-1.688,6.016-6.367,4.328-10.453l-70.8-170.938c4.421-2.405,8.582-5.225,12.449-8.39
	l97.287,97.287c1.562,1.563,3.609,2.344,5.656,2.344s4.094-0.781,5.656-2.344c3.125-3.125,3.125-8.188,0-11.312l-97.287-97.287
	c9.699-11.852,16.066-26.53,17.664-42.619h168.404c4.422,0,8-3.578,8-8C511.999,251.824,508.421,248.246,503.999,248.246z"/>
<g>
	<path style="fill:#6B676E;" d="M256,480.247c-4.422,0-8-3.578-8-8v-176c0-4.422,3.578-8,8-8s8,3.578,8,8v176
		C264,476.669,260.422,480.247,256,480.247z"/>
	<path style="fill:#6B676E;" d="M256,216.246c-4.422,0-8-3.578-8-8v-176c0-4.422,3.578-8,8-8s8,3.578,8,8v176
		C264,212.669,260.422,216.246,256,216.246z"/>
	<path style="fill:#6B676E;" d="M240.453,248.246c-2.047,0-4.094-0.781-5.656-2.344L98.344,109.449
		c-3.125-3.125-3.125-8.187,0-11.312s8.187-3.125,11.312,0L246.109,234.59c3.125,3.125,3.125,8.187,0,11.312
		C244.547,247.465,242.5,248.246,240.453,248.246z"/>
	<path style="fill:#6B676E;" d="M456.484,347.7c-1.023,0-2.063-0.195-3.063-0.609L322.734,292.95
		c-4.078-1.688-6.016-6.367-4.328-10.453s6.391-6.016,10.453-4.328l130.687,54.141c4.078,1.688,6.016,6.367,4.328,10.453
		C462.601,345.841,459.617,347.7,456.484,347.7z"/>
	<path style="fill:#6B676E;" d="M69.617,338.489c-3.133,0-6.117-1.859-7.391-4.938c-1.687-4.086,0.25-8.766,4.328-10.453
		l138.711-57.453c4.07-1.68,8.766,0.25,10.453,4.328c1.688,4.086-0.25,8.766-4.328,10.453L72.68,337.88
		C71.68,338.294,70.641,338.489,69.617,338.489z"/>
	<path style="fill:#6B676E;" d="M287.922,248.059c-3.133,0-6.117-1.859-7.391-4.938c-1.688-4.086,0.25-8.766,4.328-10.453
		l149.539-61.937c4.07-1.672,8.766,0.242,10.453,4.328c1.688,4.086-0.25,8.766-4.328,10.453l-149.539,61.937
		C289.984,247.863,288.945,248.059,287.922,248.059z"/>
</g>
<g>
</g>
<g>
</g>
<g>
</g>
<g>
</g>
<g>
</g>
<g>
</g>
<g>
</g>
<g>
</g>
<g>
</g>
<g>
</g>
<g>
</g>
<g>
</g>
<g>
</g>
<g>
</g>
<g>
</g>
</svg>
