<svg height="512pt" viewBox="0 0 512 512.01683" width="512pt" xmlns="http://www.w3.org/2000/svg"><path d="m8.835938 247.1875h123.585937c4.875 0 8.828125 3.953125 8.828125 8.828125v70.621094c0 4.875-3.953125 8.828125-8.828125 8.828125h-123.585937c-4.875 0-8.8281255-3.953125-8.8281255-8.828125v-70.621094c0-4.875 3.9531255-8.828125 8.8281255-8.828125zm0 0" fill="#c2615f"/><path d="m212.488281 247.1875h-62.410156c-4.875 0-8.828125 3.953125-8.828125 8.828125v70.621094c0 4.875 3.953125 8.828125 8.828125 8.828125h123.585937c4.875 0 8.828126-3.953125 8.828126-8.828125v-58.527344zm0 0" fill="#f0785a"/><path d="m380.742188 247.1875h34.164062c4.875 0 8.828125 3.953125 8.828125 8.828125v70.621094c0 4.875-3.953125 8.828125-8.828125 8.828125h-123.585938c-4.875 0-8.828124-3.953125-8.828124-8.828125v-58.527344zm0 0" fill="#c2615f"/><path d="m79.457031 335.464844h123.585938c4.875 0 8.828125 3.953125 8.828125 8.828125v70.621093c0 4.875-3.953125 8.828126-8.828125 8.828126h-123.585938c-4.875 0-8.828125-3.953126-8.828125-8.828126v-70.621093c0-4.875 3.953125-8.828125 8.828125-8.828125zm0 0" fill="#cc4b4c"/><path d="m220.699219 335.464844h123.585937c4.875 0 8.828125 3.953125 8.828125 8.828125v70.621093c0 4.875-3.953125 8.828126-8.828125 8.828126h-123.585937c-4.875 0-8.828125-3.953126-8.828125-8.828126v-70.621093c0-4.875 3.953125-8.828125 8.828125-8.828125zm0 0" fill="#802f34"/><path d="m361.9375 335.464844h123.589844c4.875 0 8.824218 3.953125 8.824218 8.828125v70.621093c0 4.875-3.949218 8.828126-8.824218 8.828126h-123.589844c-4.875 0-8.824219-3.953126-8.824219-8.828126v-70.621093c0-4.875 3.949219-8.828125 8.824219-8.828125zm0 0" fill="#cc4b4c"/><path d="m8.835938 423.742188h123.585937c4.875 0 8.828125 3.949218 8.828125 8.828124v70.617188c0 4.878906-3.953125 8.828125-8.828125 8.828125h-123.585937c-4.875 0-8.8281255-3.949219-8.8281255-8.828125v-70.617188c0-4.878906 3.9531255-8.828124 8.8281255-8.828124zm0 0" fill="#c2615f"/><path d="m150.078125 423.742188h123.585937c4.875 0 8.828126 3.949218 8.828126 8.828124v70.617188c0 4.878906-3.953126 8.828125-8.828126 8.828125h-123.585937c-4.875 0-8.828125-3.949219-8.828125-8.828125v-70.617188c0-4.878906 3.953125-8.828124 8.828125-8.828124zm0 0" fill="#f0785a"/><path d="m291.320312 423.742188h123.585938c4.875 0 8.828125 3.949218 8.828125 8.828124v70.617188c0 4.878906-3.953125 8.828125-8.828125 8.828125h-123.585938c-4.875 0-8.828124-3.949219-8.828124-8.828125v-70.617188c0-4.878906 3.953124-8.828124 8.828124-8.828124zm0 0" fill="#c2615f"/><path d="m390.683594 245.078125-175.132813 37.246094c-4.445312.839843-8.980469-.917969-11.699219-4.539063-2.714843-3.617187-3.132812-8.464844-1.082031-12.5l84.746094-157.714844c1.898437-3.347656 5.386719-5.492187 9.234375-5.671874 3.851562-.175782 7.523438 1.628906 9.726562 4.789062l90.386719 120.4375c2.414063 3.003906 3.121094 7.039062 1.863281 10.683594-1.253906 3.644531-4.292968 6.390625-8.042968 7.269531zm0 0" fill="#bdc3c7"/><path d="m308.207031 208.347656c-3.800781 0-7.175781-2.429687-8.375-6.035156-1.203125-3.605469.039063-7.574219 3.078125-9.855469l68.960938-51.726562c3.453125-2.589844 5.382812-6.734375 5.136718-11.046875l-.882812-15.886719c-.578125-10.207031 3.992188-20.019531 12.171875-26.148437l25.46875-19.128907c2.523437-1.894531 5.863281-2.296875 8.765625-1.054687 2.898438 1.238281 4.917969 3.929687 5.296875 7.058594.375 3.132812-.945313 6.226562-3.46875 8.121093l-25.46875 19.109375c-3.457031 2.589844-5.390625 6.738282-5.144531 11.054688l.882812 15.886718c.582032 10.207032-3.988281 20.023438-12.175781 26.148438l-68.960937 51.738281c-1.523438 1.148438-3.378907 1.769531-5.285157 1.765625zm0 0" fill="#95a5a5"/><path d="m413.074219 52.871094 65.773437-49.339844c7.796875-5.847656 18.863282-4.269531 24.714844 3.53125l4.90625 6.539062c5.851562 7.800782 4.273438 18.867188-3.527344 24.71875l-65.773437 49.335938c-3.898438 2.925781-9.433594 2.136719-12.359375-1.765625l-15.5-20.660156c-2.925782-3.902344-2.132813-9.433594 1.765625-12.359375zm0 0" fill="#f29c1f"/><g fill="#fb7b76"><path d="m35.320312 282.5c0 4.875-3.953124 8.828125-8.828124 8.828125h-26.4843755v-17.65625h26.4843755c4.875 0 8.828124 3.953125 8.828124 8.828125zm0 0"/><path d="m97.113281 291.328125h-35.3125c-4.875 0-8.828125-3.953125-8.828125-8.828125s3.953125-8.828125 8.828125-8.828125h35.3125c4.875 0 8.824219 3.953125 8.824219 8.828125s-3.949219 8.828125-8.824219 8.828125zm0 0"/></g></svg>