<svg height="464pt" viewBox="0 -91 464 464" width="464pt" xmlns="http://www.w3.org/2000/svg"><path d="m328 74.523438-11.199219-23.203126c-2.402343-5.597656-8-8.796874-14.402343-8.796874h-54.398438l-68-13.601563c-7.199219-1.601563-14.398438 2.398437-17.601562 8.800781l-15.199219 31.199219c-1.597657 3.199219-5.597657 5.601563-9.597657 4l-17.601562-6.398437-24 24 16.800781 16.796874c3.199219 3.203126 3.199219 8 0 11.203126 0 0-.800781.796874-1.601562.796874l-63.199219 43.203126h-8l24-56-24-8-36.800781 72.796874c-4 8-.800781 17.601563 7.199219 21.601563 2.402343.800781 4.800781 1.601563 7.203124 1.601563h54.398438l64-32 72 32h216v-120zm0 0" fill="#d38d1c"/><path d="m120 66.523438-24 24 16.800781 16.796874c3.199219 3.203126 3.199219 8 0 11.203126 0 0-.800781.796874-1.601562.796874l-63.199219 43.203126h-8l24-56-24-8-36.800781 72.796874c-4 8-.800781 17.601563 7.199219 21.601563 2.402343.800781 4.800781 1.601563 7.203124 1.601563h54.398438l64-32v-90.402344zm0 0" fill="#a56e26"/><path d="m316.800781 51.320312c-2.402343-5.597656-8-8.796874-14.402343-8.796874h-54.398438l-68-13.601563c-7.199219-1.601563-14.398438 2.398437-17.601562 8.800781l-8 16 21.601562 20.800782h152zm0 0" fill="#a56e26"/><path d="m64 23.320312 8.800781-14.398437c4-8 13.597657-11.199219 21.597657-7.199219l8.800781 4.800782c5.601562 2.398437 8.800781 8 8.800781 14.398437v5.601563l16 8-16 8zm0 0" fill="#996526"/><path d="m440 34.523438c-8.800781 0-16 7.199218-16 16v144h32v-144c0-8.800782-7.199219-16-16-16zm0 0" fill="#a56e26"/><path d="m35.199219 70.523438-6.398438 7.199218c-5.601562 5.597656-5.601562 15.199219 0 20.800782.800781 0 2.398438.796874 3.199219 1.597656l14.398438 8.800781c5.601562 3.199219 12.800781 2.398437 17.601562-2.398437l16 8v-20zm0 0" fill="#996526"/><path d="m464 194.523438v24l-8 8v32l8 8v16h-464v-16l8-8v-32l-8-8v-24zm0 0" fill="#261d1d"/><path d="m424 66.523438h32v32h-32zm0 0" fill="#82582a"/><path d="m424 130.523438h32v32h-32zm0 0" fill="#82582a"/><path d="m392 130.523438h-164c-20 0-39.199219-7.203126-55.199219-19.203126l-18.402343-14.398437 9.601562-12.800781 18.398438 14.402344c12.800781 10.398437 28.800781 16 44.800781 16h164.800781zm0 0" fill="#ba7c22"/><path d="m392 170.523438h-157.601562c-19.199219 0-37.597657-6.402344-52.796876-17.601563l-42.402343-32 9.601562-12.800781 42.398438 32c12.800781 9.601562 28 14.402344 43.199219 14.402344h157.601562zm0 0" fill="#ba7c22"/><path d="m464 194.523438h-464v24l8 8h448l8-8zm0 0" fill="#4c3d38"/><path d="m104.800781 34.523438-29.601562-18.402344c-15.199219-10.398438-35.199219-5.597656-44.800781 9.601562-.796876.800782-.796876 1.597656-1.597657 3.199219l-.800781 2.398437c-8 16-1.601562 35.203126 13.601562 43.203126l30.398438 16.796874c16 8.800782 36 2.402344 44.800781-12.796874 7.199219-16 2.398438-35.203126-12-44zm0 0" fill="#f4b12a"/><path d="m20 4.921875c-2.398438-1.601563-5.601562-2.398437-8.800781-2.398437h-11.199219v9.597656c0 4 1.601562 8 4.800781 11.199218l19.199219 19.203126 16-24zm0 0" fill="#f4b12a"/><path d="m75.199219 16.121094c-15.199219-10.398438-35.199219-5.597656-44.800781 9.601562-.796876.800782-.796876 1.597656-1.597657 3.199219l-.800781 2.398437c-8 16-1.601562 35.203126 13.601562 43.203126l15.199219 8v-40l24-24zm0 0" fill="#d38d1c"/></svg>