<?xml version="1.0" encoding="iso-8859-1"?>
<!-- Generator: Adobe Illustrator 19.0.0, SVG Export Plug-In . SVG Version: 6.00 Build 0)  -->
<svg version="1.1" id="Capa_1" xmlns="http://www.w3.org/2000/svg" xmlns:xlink="http://www.w3.org/1999/xlink" x="0px" y="0px"
	 viewBox="0 0 512 512" style="enable-background:new 0 0 512 512;" xml:space="preserve">
<g>
	<path style="fill:#368A50;" d="M298.513,218.213c-4.329,0-7.837-3.509-7.837-7.837v-67.393c0-4.328,3.508-7.837,7.837-7.837
		s7.837,3.509,7.837,7.837v67.393C306.35,214.705,302.841,218.213,298.513,218.213z"/>
	<path style="fill:#368A50;" d="M326.809,226.073c-1.375,0-2.768-0.363-4.032-1.123c-3.709-2.231-4.906-7.047-2.676-10.755
		l29.257-48.626c2.231-3.709,7.046-4.906,10.755-2.675c3.709,2.231,4.906,7.047,2.676,10.755l-29.257,48.626
		C332.061,224.719,329.467,226.073,326.809,226.073z"/>
	<path style="fill:#368A50;" d="M343.377,241.462c-2.461,0-4.884-1.156-6.41-3.32c-2.496-3.537-1.651-8.426,1.885-10.921
		l38.406-27.099c3.539-2.496,8.426-1.651,10.921,1.885c2.496,3.537,1.651,8.426-1.885,10.921l-38.406,27.099
		C346.515,240.997,344.938,241.462,343.377,241.462z"/>
	<path style="fill:#368A50;" d="M351.149,257.523c-3.381,0-6.502-2.206-7.511-5.613c-1.229-4.149,1.139-8.511,5.289-9.74
		l31.071-9.203c4.146-1.229,8.512,1.139,9.74,5.288c1.229,4.149-1.139,8.511-5.289,9.739l-31.071,9.203
		C352.636,257.419,351.886,257.523,351.149,257.523z"/>
	<path style="fill:#368A50;" d="M270.216,226.073c-2.659,0-5.251-1.353-6.723-3.798l-29.257-48.626
		c-2.231-3.708-1.033-8.524,2.676-10.755c3.707-2.231,8.522-1.034,10.755,2.675l29.257,48.626c2.231,3.708,1.033,8.524-2.676,10.755
		C272.984,225.71,271.591,226.073,270.216,226.073z"/>
	<path style="fill:#368A50;" d="M253.648,241.462c-1.561,0-3.138-0.466-4.511-1.435l-38.407-27.099
		c-3.536-2.495-4.38-7.385-1.885-10.921c2.496-3.536,7.383-4.381,10.921-1.885l38.407,27.099c3.536,2.495,4.38,7.385,1.885,10.921
		C258.532,240.307,256.11,241.462,253.648,241.462z"/>
	<path style="fill:#368A50;" d="M245.877,257.523c-0.737,0-1.486-0.104-2.229-0.325l-31.071-9.203
		c-4.15-1.229-6.517-5.59-5.289-9.739c1.229-4.15,5.587-6.518,9.739-5.288l31.071,9.203c4.15,1.229,6.517,5.59,5.289,9.74
		C252.378,255.318,249.258,257.523,245.877,257.523z"/>
	<polyline style="fill:#368A50;" points="243.662,425.555 243.662,265.236 353.366,265.236 353.366,469.44 	"/>
</g>
<polygon style="fill:#5EBC77;" points="396.423,453.861 414.49,437.372 364.334,368.409 262.457,368.409 213.88,346.727 
	159.806,162.313 135.512,162.313 165.292,407.593 141.771,437.048 177.831,481.258 177.831,511.999 303.208,511.999 
	427.028,511.999 "/>
<g>
	<polyline style="fill:#368A50;" points="191.039,375.342 138.201,184.422 165.295,407.592 	"/>
	<polygon style="fill:#368A50;" points="213.881,346.73 166.833,467.766 141.78,437.049 	"/>
	<polygon style="fill:#368A50;" points="207.34,324.421 213.881,346.73 165.292,407.593 158.977,355.547 	"/>
	<path style="fill:#368A50;" d="M159.809,92.044v70.269H132.6c-2.121,0-4.169-0.261-6.134-0.752
		c-11.003-2.738-19.163-12.685-19.163-24.545V92.044L159.809,92.044L159.809,92.044z"/>
	<polygon style="fill:#368A50;" points="235.261,512 316.763,368.41 364.338,368.41 258.757,512 	"/>
</g>
<path style="fill:#5EBC77;" d="M159.809,130.768v31.545H132.6c-2.121,0-4.169-0.261-6.134-0.752V145.52
	c0-8.147,6.605-14.752,14.752-14.752H159.809z"/>
<polyline style="fill:#FFA700;" points="105.27,80.033 96.301,15.178 120.154,33.807 137.697,0 149.031,31.737 170.814,15.178 
	163.225,80.033 "/>
<path style="fill:#5EBC77;" d="M298.512,210.377L298.512,210.377c-30.295,0-54.854,24.559-54.854,54.854v26.644
	c0,30.295,24.559,54.854,54.854,54.854l0,0l0,0c30.296,0,54.855-24.559,54.855-54.854v-26.644
	C353.367,234.936,328.808,210.377,298.512,210.377z"/>
<g>
	<path style="fill:#368A50;" d="M262.466,291.874v-26.644c0-27.087,19.639-49.573,45.45-54.035
		c-3.057-0.529-6.196-0.819-9.404-0.819c-30.295,0-54.854,24.559-54.854,54.854v26.644c0,30.295,24.559,54.854,54.854,54.854
		c3.208,0,6.347-0.292,9.404-0.819C282.105,341.448,262.466,318.961,262.466,291.874z"/>
	<path style="fill:#368A50;" d="M353.369,265.236v26.634l-0.293,0.031c-1.327-12.863-7.105-24.409-15.767-33.071
		c-9.927-9.927-23.646-16.06-38.797-16.06c-29.33,0-53.279,23.019-54.774,51.973c-0.052-0.951-0.073-1.912-0.073-2.873v-26.634
		c0-15.151,6.144-28.871,16.06-38.797c9.927-9.927,23.646-16.06,38.787-16.06C328.814,210.379,353.369,234.934,353.369,265.236z"/>
</g>
<rect x="84.972" y="79.506" style="fill:#47A562;" width="97.176" height="25.077"/>
<g>
	<rect x="84.972" y="79.506" style="fill:#368A50;" width="41.619" height="25.077"/>
	<path style="fill:#368A50;" d="M330.115,277.908l-29.814-6.985c-0.024-0.005-0.05-0.007-0.074-0.013
		c-0.213-0.047-0.429-0.084-0.648-0.113c-0.069-0.009-0.137-0.024-0.205-0.031c-0.283-0.031-0.569-0.049-0.861-0.049
		c-0.292,0-0.578,0.019-0.861,0.049c-0.068,0.007-0.136,0.022-0.205,0.031c-0.218,0.03-0.436,0.066-0.648,0.113
		c-0.024,0.005-0.05,0.007-0.074,0.013l-29.815,6.985c-4.214,0.987-6.829,5.204-5.843,9.418c0.987,4.214,5.202,6.829,9.419,5.843
		l20.191-4.73v11.729c0,4.328,3.508,7.837,7.837,7.837s7.837-3.509,7.837-7.837v-11.729l20.19,4.73
		c0.601,0.141,1.202,0.208,1.795,0.208c3.556,0,6.776-2.438,7.624-6.051C336.945,283.112,334.329,278.896,330.115,277.908z"/>
	<polyline style="fill:#368A50;" points="396.423,453.861 353.179,493.473 403.71,467.703 	"/>
	<polyline style="fill:#368A50;" points="262.457,368.409 231.971,411.971 243.662,360.021 	"/>
</g>
<g>
</g>
<g>
</g>
<g>
</g>
<g>
</g>
<g>
</g>
<g>
</g>
<g>
</g>
<g>
</g>
<g>
</g>
<g>
</g>
<g>
</g>
<g>
</g>
<g>
</g>
<g>
</g>
<g>
</g>
</svg>
