<svg height="511pt" viewBox="1 -6 511.99998 511" width="511pt" xmlns="http://www.w3.org/2000/svg"><path d="m256 458.886719-71.746094 40.617187-38.398437-72.957031-82.3125-4.621094 7.140625-82.132812-66.75-48.390625 50.414062-65.234375-29.996094-76.796875 77.683594-27.625 16.285156-80.820313 80.28125 18.757813 57.398438-59.183594 57.398438 59.183594 80.28125-18.757813 16.285156 80.820313 77.683594 27.625-29.996094 76.796875 50.414062 65.234375-66.75 48.390625 7.140625 82.132812-82.3125 4.621094-38.398437 72.957031zm0 0" fill="#fd6f71"/><path d="m141.421875 221.089844c-56.960937 0-75.292969 30.117187-75.292969 30.117187h-66.128906v120.46875h66.128906s18.332032 30.117188 75.292969 30.117188h29.464844l16.695312-165.644531zm0 0" fill="#e6b39d"/><path d="m370.578125 221.089844c56.960937 0 75.292969 30.117187 75.292969 30.117187h66.128906v120.46875h-66.128906s-18.332032 30.117188-75.292969 30.117188h-29.464844l-16.695312-165.644531zm0 0" fill="#e6b39d"/><path d="m148.296875 334.03125c0 12.472656 10.113281 22.585938 22.585937 22.585938h33.394532c12.472656 0 22.585937-10.113282 22.585937-22.585938 0-12.476562-10.113281-22.589844-22.585937-22.589844h-33.394532c-12.472656 0-22.585937 10.113282-22.585937 22.589844zm0 0" fill="#f2bda6"/><path d="m148.296875 288.855469c0 12.472656 10.113281 22.585937 22.585937 22.585937h33.394532c12.472656 0 22.585937-10.113281 22.585937-22.585937 0-12.476563-10.113281-22.589844-22.585937-22.589844h-33.394532c-12.472656 0-22.585937 10.113281-22.585937 22.589844zm0 0" fill="#fbc4ac"/><path d="m148.296875 379.207031c0 12.472657 10.113281 22.585938 22.585937 22.585938h33.394532c12.472656 0 22.585937-10.113281 22.585937-22.585938 0-12.476562-10.113281-22.589843-22.585937-22.589843h-33.394532c-12.472656 0-22.585937 10.113281-22.585937 22.589843zm0 0" fill="#fbc4ac"/><path d="m204.277344 221.089844h-62.855469c12.476563 0 22.589844 10.113281 22.589844 22.585937v22.589844h40.265625c12.472656 0 22.585937-10.113281 22.585937-22.589844 0-12.472656-10.113281-22.585937-22.585937-22.585937zm0 0" fill="#f2bda6"/><path d="m363.703125 334.03125c0 12.472656-10.113281 22.585938-22.585937 22.585938h-33.394532c-12.472656 0-22.585937-10.113282-22.585937-22.585938 0-12.476562 10.113281-22.589844 22.585937-22.589844h33.394532c12.472656 0 22.585937 10.113282 22.585937 22.589844zm0 0" fill="#f2bda6"/><path d="m363.703125 288.855469c0 12.472656-10.113281 22.585937-22.585937 22.585937h-33.394532c-12.472656 0-22.585937-10.113281-22.585937-22.585937 0-12.476563 10.113281-22.589844 22.585937-22.589844h33.394532c12.472656 0 22.585937 10.113281 22.585937 22.589844zm0 0" fill="#fbc4ac"/><path d="m363.703125 379.207031c0 12.472657-10.113281 22.585938-22.585937 22.585938h-33.394532c-12.472656 0-22.585937-10.113281-22.585937-22.585938 0-12.476562 10.113281-22.589843 22.585937-22.589843h33.394532c12.472656 0 22.585937 10.113281 22.585937 22.589843zm0 0" fill="#fbc4ac"/><path d="m307.722656 221.089844h62.855469c-12.476563 0-22.589844 10.113281-22.589844 22.585937v22.589844h-40.265625c-12.472656 0-22.585937-10.113281-22.585937-22.589844 0-12.472656 10.113281-22.585937 22.585937-22.585937zm0 0" fill="#f2bda6"/><g fill="#3a484a"><path d="m164.351562 156.132812c-4.265624 0-7.726562-3.460937-7.726562-7.726562v-16.589844c0-4.265625 3.460938-7.722656 7.726562-7.722656 4.265626 0 7.726563 3.457031 7.726563 7.722656v16.589844c0 4.265625-3.460937 7.726562-7.726563 7.726562zm0 0"/><path d="m347.648438 156.132812c-4.265626 0-7.726563-3.460937-7.726563-7.726562v-16.589844c0-4.265625 3.460937-7.722656 7.726563-7.722656 4.265624 0 7.726562 3.457031 7.726562 7.722656v16.589844c0 4.265625-3.460938 7.726562-7.726562 7.726562zm0 0"/><path d="m256 164.984375c-11.046875 0-21.410156-4.609375-28.4375-12.648437-2.808594-3.214844-2.480469-8.09375.734375-10.902344 3.210937-2.808594 8.09375-2.480469 10.902344.730468 4.089843 4.683594 10.214843 7.367188 16.800781 7.367188 6.589844 0 12.710938-2.683594 16.804688-7.367188 2.808593-3.210937 7.691406-3.539062 10.902343-.730468 3.210938 2.808594 3.539063 7.6875.730469 10.902344-7.027344 8.039062-17.390625 12.648437-28.4375 12.648437zm0 0"/></g><path d="m141.421875 221.089844c-12.476563 0-22.585937 10.113281-22.585937 22.585937v33.390625c0 12.476563 10.113281 22.589844 22.585937 22.589844 12.476563 0 22.589844-10.113281 22.589844-22.589844v-33.390625c0-12.472656-10.113281-22.585937-22.589844-22.585937zm0 0" fill="#fbc4ac"/><path d="m370.578125 221.089844c12.476563 0 22.585937 10.113281 22.585937 22.585937v33.390625c0 12.476563-10.113281 22.589844-22.585937 22.589844-12.476563 0-22.589844-10.113281-22.589844-22.589844v-33.390625c0-12.472656 10.113281-22.585937 22.589844-22.585937zm0 0" fill="#fbc4ac"/></svg>