<?xml version="1.0" encoding="iso-8859-1"?>
<!-- Generator: Adobe Illustrator 19.0.0, SVG Export Plug-In . SVG Version: 6.00 Build 0)  -->
<svg version="1.1" id="Layer_1" xmlns="http://www.w3.org/2000/svg" xmlns:xlink="http://www.w3.org/1999/xlink" x="0px" y="0px"
	 viewBox="0 0 512 512" style="enable-background:new 0 0 512 512;" xml:space="preserve">
<circle style="fill:#FF5419;" cx="256" cy="256" r="256"/>
<path style="fill:#940030;" d="M349.763,494.283c75.173-29.603,132.948-93.755,153.797-172.894L322.172,140.004L260.31,278.075
	l-19.251,3.675l-69.346-4.882l61.557,61.557l-12.179,27.184L349.763,494.283z"/>
<rect id="SVGCleanerId_0" x="213.333" y="292.219" style="fill:#FCD088;" width="85.333" height="85.333"/>
<g>
	<rect id="SVGCleanerId_0_1_" x="213.333" y="292.219" style="fill:#FCD088;" width="85.333" height="85.333"/>
</g>
<path style="fill:#71E2EF;" d="M199.456,351.454l-45.22,9.044c-23.024,4.606-39.596,24.821-39.596,48.3v59.809
	c40.432,27.067,89.05,42.861,141.36,42.861s100.928-15.794,141.36-42.861v-59.809c0-23.48-16.572-43.696-39.596-48.3l-45.22-9.044
	l-7.992-11.666c-1.496-2.184-4.327-3.007-6.759-1.965L256,355.83l-41.543-17.987c-2.415-1.053-5.239-0.262-6.754,1.893
	L199.456,351.454z"/>
<path style="fill:#38C6D9;" d="M357.764,360.5l-45.22-9.044l-7.992-11.666c-1.496-2.184-4.327-3.007-6.759-1.965L256,355.83
	l-0.574-0.248v155.877c0.193,0,0.383,0.01,0.574,0.01c52.31,0,100.928-15.794,141.36-42.861v-59.809
	C397.36,385.319,380.788,365.104,357.764,360.5z"/>
<path style="fill:#FFEDB5;" d="M344.629,226.568c0.445-4.11,0.676-8.161,0.676-12.112c0-52.264-39.984-94.632-89.305-94.632
	s-89.305,42.368-89.305,94.632c0,3.951,0.233,8.002,0.676,12.112c-8.663,2.251-12.784,15.577-9.204,29.839
	c3.591,14.307,13.569,24.131,22.288,21.942c0.795-0.2,1.536-0.521,2.251-0.898c16.137,32.392,42.946,58.673,73.294,58.673
	s57.156-26.279,73.294-58.673c0.715,0.378,1.458,0.698,2.251,0.898c8.718,2.188,18.697-7.635,22.288-21.942
	C357.414,242.145,353.292,228.817,344.629,226.568z"/>
<path style="fill:#E8CF89;" d="M344.629,226.568c0.445-4.11,0.676-8.161,0.676-12.112c0-52.264-39.984-94.632-89.305-94.632
	c-0.193,0-0.383,0.014-0.574,0.016v216.269c0.191,0.002,0.383,0.016,0.574,0.016c30.348,0,57.156-26.279,73.294-58.673
	c0.715,0.378,1.458,0.698,2.251,0.898c8.718,2.188,18.697-7.635,22.288-21.944C357.414,242.145,353.292,228.817,344.629,226.568z"/>
<polygon style="fill:#366695;" points="256,481.461 211.32,401.291 256,356.752 300.68,401.291 "/>
<polygon style="fill:#273B7A;" points="300.68,401.291 256,356.752 255.426,357.324 255.426,480.428 256,481.461 "/>
<path style="fill:#121149;" d="M371.415,360.108l-42.777-5.47L256,400.808l-72.816-46.114l-42.599,5.415
	c-26.112,4.632-44.908,24.971-44.908,48.593v46.864C139.555,490.863,195.305,512,256,512s116.445-21.137,160.323-56.432v-46.864
	C416.323,385.081,397.527,364.742,371.415,360.108z"/>
<path style="fill:#7F7F7F;" d="M214.302,290.478l-28.875-53.01h-6.034c0,0,4.31,24.566,4.31,46.545s22.842,64.431,64.431,64.431
	h15.731c41.589,0,64.431-42.451,64.431-64.431s4.31-46.545,4.31-46.545h-6.034l-28.875,53.01H214.302z"/>
<path style="fill:#686867;" d="M326.572,237.468l-28.875,53.01h-42.272v57.966h8.44c41.589,0,64.431-42.451,64.431-64.431
	s4.31-46.545,4.31-46.545H326.572z"/>
<g>
	<path style="fill:#444444;" d="M330.588,216.771c-1.684-1.684-4.411-1.684-6.094,0l-16.467,16.467
		c-3.605-7.339-11.135-12.414-19.849-12.414c-10.106,0-18.63,6.818-21.264,16.089h-21.828c-2.636-9.271-11.161-16.089-21.264-16.089
		c-8.714,0-16.244,5.075-19.851,12.414l-16.467-16.467c-1.684-1.684-4.411-1.684-6.094,0c-1.683,1.684-1.684,4.411,0,6.094
		l20.297,20.297c0.117,12.1,9.987,21.907,22.114,21.907c11.323,0,20.671-8.554,21.959-19.539h20.442
		c1.286,10.985,10.637,19.539,21.959,19.539c12.126,0,21.994-9.807,22.113-21.907l20.297-20.297
		C332.272,221.182,332.272,218.455,330.588,216.771z M223.82,256.452c-7.446,0-13.505-6.06-13.505-13.505
		c0-7.446,6.06-13.503,13.505-13.503c7.446,0,13.503,6.058,13.503,13.503C237.323,250.392,231.267,256.452,223.82,256.452z
		 M288.18,256.452c-7.446,0-13.503-6.06-13.503-13.505c0-7.446,6.058-13.503,13.503-13.503s13.503,6.058,13.503,13.503
		C301.684,250.392,295.626,256.452,288.18,256.452z"/>
	<path style="fill:#444444;" d="M330.588,216.771c-1.684-1.684-4.411-1.684-6.094,0l-16.467,16.467
		c-3.605-7.339-11.135-12.414-19.849-12.414c-10.106,0-18.63,6.818-21.264,16.089h-11.49v8.62h10.795
		c1.286,10.985,10.637,19.539,21.959,19.539c12.126,0,21.994-9.807,22.113-21.907l20.297-20.297
		C332.272,221.182,332.272,218.455,330.588,216.771z M288.18,256.452c-7.446,0-13.503-6.06-13.503-13.505
		c0-7.446,6.058-13.503,13.503-13.503s13.503,6.058,13.503,13.503C301.684,250.392,295.626,256.452,288.18,256.452z"/>
</g>
<path style="fill:#D6D6D6;" d="M200.949,166.124c0,0-15.579,1.315-9.737,20.513s-9.599,72.195-9.599,72.195
	s-0.876-25.721-14.21-32.266c-13.334-6.546-3.631-113.795,88.597-113.795s101.929,107.251,88.597,113.795
	c-13.333,6.544-14.21,32.266-14.21,32.266s-15.441-53-9.599-72.195c5.842-19.196-9.737-20.513-9.737-20.513
	S259.929,185.535,200.949,166.124z"/>
<path style="fill:#A5A5A5;" d="M256,112.773c-0.195,0-0.381,0.01-0.574,0.01v61.955c32.766,0.047,55.627-8.613,55.627-8.613
	s15.579,1.315,9.737,20.513c-5.842,19.196,9.599,72.195,9.599,72.195s0.876-25.721,14.21-32.266
	C357.933,220.022,348.227,112.773,256,112.773z"/>
<path style="fill:#A3A3A3;" d="M236.915,286.741c-13.072,8.476-30.311-1.293-30.311-1.293s9.206,17.891,31.749,15.658
	c8.93-0.884,14.629-4.334,17.074-8.021v-7.818C252.966,281.616,248.73,279.08,236.915,286.741z"/>
<path style="fill:#898989;" d="M275.085,286.741c-12.783-8.289-16.699-4.644-19.085-0.564c-0.181-0.309-0.374-0.612-0.574-0.91
	v7.818c0.198-0.3,0.419-0.6,0.574-0.902c2.064,4.015,7.992,7.968,17.649,8.923c22.544,2.232,31.749-15.658,31.749-15.658
	S288.159,295.217,275.085,286.741z"/>
<g>
</g>
<g>
</g>
<g>
</g>
<g>
</g>
<g>
</g>
<g>
</g>
<g>
</g>
<g>
</g>
<g>
</g>
<g>
</g>
<g>
</g>
<g>
</g>
<g>
</g>
<g>
</g>
<g>
</g>
</svg>
