<?xml version="1.0" encoding="iso-8859-1"?>
<!-- Generator: Adobe Illustrator 19.0.0, SVG Export Plug-In . SVG Version: 6.00 Build 0)  -->
<svg xmlns="http://www.w3.org/2000/svg" xmlns:xlink="http://www.w3.org/1999/xlink" version="1.1" id="Layer_1" x="0px" y="0px" viewBox="0 0 512 512" style="enable-background:new 0 0 512 512;" xml:space="preserve" width="512" height="512">
<g>
	<rect x="361" style="fill:#3E5959;" width="30" height="106"/>
	<rect x="121" style="fill:#537983;" width="30" height="106"/>
	<g>
		<polygon style="fill:#0095FF;" points="256,512 512,512 512,301 482.938,271 284.125,271 256,301 226,370.375 226,494.188   "/>
		<path style="fill:#C5D3DD;" d="M418.299,121c-5.999-17.401-22.798-30-42.299-30s-36.301,12.599-42.299,30H256l-30,35.625V271    l30,30h256V121H418.299z"/>
	</g>
	<path style="fill:#DEECF1;" d="M256,121h-77.701c-5.999-17.401-22.798-30-42.299-30s-36.301,12.599-42.299,30H0v391h256V121z"/>
	<polygon style="fill:#FF641A;" points="211,241 176.157,241 149.931,175.434 122.069,186.566 143.842,241 114.027,241    88.48,202.68 63.52,219.32 87.973,256 63.52,292.68 88.48,309.32 114.027,271 143.842,271 122.069,325.434 149.931,336.566    176.157,271 211,271  "/>
	<rect x="121" y="361" style="fill:#C5D3DD;" width="90" height="30"/>
	<rect x="121" y="421" style="fill:#C5D3DD;" width="90" height="30"/>
	<rect x="61" y="361" style="fill:#C5D3DD;" width="30" height="30"/>
	<rect x="61" y="421" style="fill:#C5D3DD;" width="30" height="30"/>
	<rect x="361" y="361" style="fill:#C5D3DD;" width="90" height="30"/>
	<rect x="361" y="421" style="fill:#C5D3DD;" width="90" height="30"/>
	<rect x="301" y="361" style="fill:#C5D3DD;" width="30" height="30"/>
	<rect x="301" y="421" style="fill:#C5D3DD;" width="30" height="30"/>
	<path style="fill:#0095FF;" d="M451,241H301v-60h150V241z"/>
</g>















</svg>
