<?xml version="1.0" encoding="iso-8859-1"?>
<!-- Generator: Adobe Illustrator 19.0.0, SVG Export Plug-In . SVG Version: 6.00 Build 0)  -->
<svg version="1.1" id="Capa_1" xmlns="http://www.w3.org/2000/svg" xmlns:xlink="http://www.w3.org/1999/xlink" x="0px" y="0px"
	 viewBox="0 0 512 512" style="enable-background:new 0 0 512 512;" xml:space="preserve">
<g>
	<path style="fill:#3F5C6C;" d="M441.379,344.276V61.793C441.379,27.666,413.714,0,379.586,0H132.414
		C98.286,0,70.621,27.666,70.621,61.793v282.483H441.379z"/>
	<polygon style="fill:#E4C05C;" points="256,35.31 269.639,64.371 300.138,69.032 278.069,91.648 283.277,123.586 256,108.509 
		228.723,123.586 233.931,91.648 211.862,69.032 242.361,64.371 	"/>
	<path style="fill:#CBB292;" d="M476.69,379.586c0.009-7.027-2.778-13.768-7.746-18.737c-4.969-4.969-11.71-7.756-18.737-7.746
		c14.626,0,26.483-11.857,26.483-26.483s-11.857-26.483-26.483-26.483h-35.31c-7.027-0.009-13.768,2.778-18.736,7.746
		c-4.969,4.969-7.756,11.71-7.746,18.737c0.009-7.027-2.778-13.768-7.746-18.737c-4.969-4.969-11.71-7.756-18.737-7.746h-35.31
		c-7.027-0.009-13.768,2.778-18.737,7.746c-4.969,4.969-7.756,11.71-7.746,18.737c0.009-7.027-2.778-13.768-7.746-18.737
		c-4.969-4.969-11.71-7.756-18.737-7.746h-35.31c-7.027-0.009-13.768,2.778-18.736,7.746c-4.969,4.969-7.756,11.71-7.746,18.737
		c0.009-7.027-2.778-13.768-7.746-18.737c-4.969-4.969-11.71-7.756-18.736-7.746h-35.31c-7.027-0.009-13.768,2.778-18.736,7.746
		s-7.756,11.71-7.746,18.737c0.009-7.027-2.778-13.768-7.746-18.737c-4.969-4.969-11.71-7.756-18.737-7.746h-35.31
		c-14.626,0-26.483,11.857-26.483,26.483s11.857,26.483,26.483,26.483c-14.626,0-26.483,11.857-26.483,26.483
		c0,14.626,11.857,26.483,26.483,26.483c-14.626,0-26.483,11.857-26.483,26.483s11.857,26.483,26.483,26.483
		c-14.626,0-26.483,11.857-26.483,26.483C35.31,500.143,47.167,512,61.793,512h35.31c7.026,0.009,13.768-2.778,18.736-7.747
		c4.968-4.968,7.756-11.71,7.747-18.736c-0.009,7.026,2.778,13.768,7.747,18.736c4.968,4.969,11.71,7.756,18.736,7.747h35.31
		c7.026,0.009,13.768-2.778,18.736-7.747c4.968-4.968,7.756-11.71,7.747-18.736c-0.009,7.026,2.778,13.768,7.747,18.736
		c4.968,4.969,11.71,7.756,18.736,7.747h35.31c7.026,0.009,13.768-2.778,18.736-7.747c4.968-4.968,7.756-11.71,7.747-18.736
		c-0.009,7.026,2.778,13.768,7.747,18.736c4.968,4.969,11.71,7.756,18.736,7.747h35.31c7.026,0.009,13.768-2.778,18.736-7.747
		c4.968-4.968,7.756-11.71,7.746-18.736c-0.009,7.026,2.778,13.768,7.747,18.736c4.968,4.969,11.71,7.756,18.736,7.747h35.31
		c14.626,0,26.483-11.857,26.483-26.483c0-14.626-11.857-26.483-26.483-26.483c14.626,0,26.483-11.857,26.483-26.483
		s-11.857-26.483-26.483-26.483C464.824,406.047,476.668,394.203,476.69,379.586z"/>
	<g>
		<path style="fill:#7F6E5D;" d="M211.862,326.621l0,26.483h-88.276l0-26.483c-0.009-7.027,2.778-13.768,7.746-18.737
			c4.969-4.969,11.71-7.756,18.736-7.746h35.31c7.027-0.009,13.768,2.778,18.736,7.746
			C209.084,312.853,211.871,319.594,211.862,326.621z"/>
		<path style="fill:#7F6E5D;" d="M388.414,326.621v26.483h-88.276l0-26.483c-0.009-7.027,2.778-13.768,7.746-18.737
			c4.969-4.969,11.71-7.756,18.737-7.746h35.31c7.027-0.009,13.768,2.778,18.736,7.746
			C385.636,312.853,388.423,319.594,388.414,326.621z"/>
		<rect x="123.586" y="406.069" style="fill:#7F6E5D;" width="88.276" height="52.966"/>
		<rect x="300.138" y="406.069" style="fill:#7F6E5D;" width="88.276" height="52.966"/>
		<path style="fill:#7F6E5D;" d="M123.586,353.103v52.966H61.793c-14.626,0-26.483-11.857-26.483-26.483
			s11.857-26.483,26.483-26.483H123.586z"/>
		<rect x="211.862" y="353.103" style="fill:#7F6E5D;" width="88.276" height="52.966"/>
		<path style="fill:#7F6E5D;" d="M476.69,379.586c-0.022,14.617-11.866,26.461-26.483,26.483h-61.793v-52.966l61.793,0
			c7.027-0.009,13.768,2.778,18.736,7.746C473.912,365.818,476.699,372.56,476.69,379.586z"/>
		<path style="fill:#7F6E5D;" d="M123.586,459.034l0,26.483c0.009,7.026-2.778,13.768-7.747,18.736
			c-4.968,4.968-11.71,7.756-18.736,7.746h-35.31c-14.626,0-26.483-11.857-26.483-26.483c0-14.626,11.857-26.483,26.483-26.483
			H123.586z"/>
		<path style="fill:#7F6E5D;" d="M300.138,459.034l0,26.483c0.009,7.026-2.778,13.768-7.746,18.736
			c-4.968,4.968-11.71,7.756-18.736,7.746h-35.31c-7.026,0.009-13.768-2.778-18.736-7.746c-4.968-4.969-7.756-11.71-7.747-18.736
			l0-26.483H300.138z"/>
		<path style="fill:#7F6E5D;" d="M476.69,485.517c-0.022,14.617-11.866,26.461-26.483,26.483h-35.31
			c-7.026,0.009-13.768-2.778-18.736-7.747c-4.968-4.968-7.756-11.71-7.746-18.736l0-26.483l61.793,0
			c7.027-0.009,13.768,2.778,18.737,7.746C473.912,471.749,476.699,478.491,476.69,485.517z"/>
	</g>
	<g>
		<path style="fill:#2C3E50;" d="M291.31,167.724h97.103c4.875,0,8.828,3.952,8.828,8.828v44.138c0,4.875-3.952,8.828-8.828,8.828
			H291.31c-4.875,0-8.828-3.952-8.828-8.828v-44.138C282.483,171.676,286.435,167.724,291.31,167.724z"/>
		<path style="fill:#2C3E50;" d="M123.586,167.724h97.103c4.875,0,8.828,3.952,8.828,8.828v44.138c0,4.875-3.952,8.828-8.828,8.828
			h-97.103c-4.875,0-8.828-3.952-8.828-8.828v-44.138C114.759,171.676,118.711,167.724,123.586,167.724z"/>
	</g>
</g>
<g>
</g>
<g>
</g>
<g>
</g>
<g>
</g>
<g>
</g>
<g>
</g>
<g>
</g>
<g>
</g>
<g>
</g>
<g>
</g>
<g>
</g>
<g>
</g>
<g>
</g>
<g>
</g>
<g>
</g>
</svg>
