<?xml version="1.0"?>
<svg xmlns="http://www.w3.org/2000/svg" id="Flat" viewBox="0 0 64 64" width="512" height="512"><title>Relax icon</title><desc>Relax icon for website, application, printing, document, poster design, etc.</desc><metadata><?xpacket begin="﻿" id="W5M0MpCehiHzreSzNTczkc9d"?><x:xmpmeta xmlns:x="adobe:ns:meta/" x:xmptk="Adobe XMP Core 5.6-c145 79.163499, 2018/08/13-16:40:22        "><rdf:RDF xmlns:rdf="http://www.w3.org/1999/02/22-rdf-syntax-ns#"><rdf:Description xmlns:dc="http://purl.org/dc/elements/1.1/" rdf:about=""><dc:title><rdf:Alt><rdf:li xml:lang="x-default">Relax icon</rdf:li></rdf:Alt></dc:title><dc:description><rdf:Alt><rdf:li xml:lang="x-default">Relax icon for website, application, printing, document, poster design, etc.</rdf:li></rdf:Alt></dc:description><dc:subject><rdf:Bag><rdf:li xml:lang="x-default">Relax</rdf:li><rdf:li>umbrella</rdf:li><rdf:li>beach</rdf:li><rdf:li>summer</rdf:li><rdf:li>travel</rdf:li><rdf:li>bed</rdf:li><rdf:li>vacation</rdf:li></rdf:Bag></dc:subject></rdf:Description></rdf:RDF></x:xmpmeta><?xpacket end="w"?></metadata><g id="Flat_copy" data-name="Flat copy"><path d="M30.84,36.57a1,1,0,0,1-.63-1.77l3.16-2.58a1,1,0,1,1,1.26,1.56l-3.16,2.57A1,1,0,0,1,30.84,36.57Z" style="fill:#4e80f2"/><path d="M41,7a1,1,0,0,1-1-1V3a1,1,0,0,1,2,0V6A1,1,0,0,1,41,7Z" style="fill:#7dcda4"/><polygon points="50 39.83 47.17 37 34.17 50 4 50 4 54 35.83 54 50 39.83" style="fill:#4e80f2"/><path d="M31,54h4a0,0,0,0,1,0,0v5a2,2,0,0,1-2,2h0a2,2,0,0,1-2-2V54A0,0,0,0,1,31,54Z" style="fill:#4e80f2"/><path d="M8,54h4a0,0,0,0,1,0,0v5a2,2,0,0,1-2,2h0a2,2,0,0,1-2-2V54A0,0,0,0,1,8,54Z" style="fill:#4e80f2"/><rect x="31" y="54" width="4" height="3" style="fill:#054def"/><rect x="8" y="54" width="4" height="3" style="fill:#054def"/><path d="M6,52H31.69a10,10,0,0,0,7.07-2.93l9.83-9.83a2,2,0,0,0,.34-.48L47.17,37l-13,13H4A2,2,0,0,0,6,52Z" style="fill:#98b4f4"/><path d="M18.88,46l2.62-2.62a1,1,0,0,1,1.41,0l2.33,2.33,4.58-1.08L25,39.84a4,4,0,0,0-5.66,0L13.22,46Z" style="fill:#fea4a7"/><polygon points="24 46 24 50 32.5 50 31.08 44.34 24 46" style="fill:#3cc37f"/><path d="M33.19,43.32l-.68.68-1.43.34L32.5,50h1.67L44.71,39.46A3.92,3.92,0,0,0,45,38a4,4,0,0,0-8,0,3.87,3.87,0,0,0,.23,1.28L36,40.48" style="fill:#fea4a7"/><polygon points="23.82 44.28 25.24 45.71 29.82 44.63 26.02 40.83 23.82 44.28" style="fill:#7dcda4"/><path d="M9,46H24a0,0,0,0,1,0,0v4a0,0,0,0,1,0,0H9a2,2,0,0,1-2-2v0A2,2,0,0,1,9,46Z" style="fill:#fea4a7"/><path d="M33.31,43.47,29.5,38.84A2,2,0,0,1,29.77,36h0a2,2,0,0,1,2.82.27l5.08,6.18-1.54,1.27A2,2,0,0,1,33.31,43.47Z" style="fill:#fea4a7"/><path d="M35.13,44.74l1.54-1.27-.08-.11-.46.38a2,2,0,0,1-2.82-.27l-.12-.15h0l-.68.68-.48.11.28.36A2,2,0,0,0,35.13,44.74Z" style="fill:#fe6569"/><path d="M28.88,48H24v2h8.5l-.59-2.38A12.33,12.33,0,0,1,28.88,48Z" style="fill:#2b8d5c"/><path d="M43.13,34.62l-1.21,3.61a12.08,12.08,0,0,1-.51,1.3,2.25,2.25,0,0,1-4.17-.21v0l-.18.18A4.93,4.93,0,0,0,37,40a3.84,3.84,0,0,0,.74,2.29,1.61,1.61,0,0,1-.12,2.09h0a12.08,12.08,0,0,1-1.32,1.15,12.43,12.43,0,0,1-4.39,2.09L32.5,50h1.67l6.08-6.08,2.2-2.2,2.26-2.26A3.92,3.92,0,0,0,45,38,4,4,0,0,0,43.13,34.62Z" style="fill:#fe6569"/><path d="M13.46,48a3.45,3.45,0,0,1-3.13-2H9a2,2,0,0,0,0,4H24V48Z" style="fill:#fe6569"/><path d="M32.59,36.29A2,2,0,0,0,29.77,36a2,2,0,0,0-.66,1C29.52,38.17,31.1,39,33,39a6.06,6.06,0,0,0,1.63-.22Z" style="fill:#fee4e5"/><path d="M18.55,40.67A9.3,9.3,0,0,0,21,41a7.29,7.29,0,0,0,4.11-1.08L25,39.84a4,4,0,0,0-5.66,0Z" style="fill:#fee4e5"/><polygon points="14.22 45 13.22 46 18.88 46 19.88 45 14.22 45" style="fill:#fe6569"/><path d="M41,34a4,4,0,0,1,2,.55V25H39v9.55A4,4,0,0,1,41,34Z" style="fill:#3cc37f"/><path d="M39,50.83V54a2,2,0,0,0,4,0V46.83Z" style="fill:#2b8d5c"/><path d="M22,25a19,19,0,0,1,38,0Z" style="fill:#4e80f2"/><path d="M59.8,22.38A19,19,0,0,0,34.92,7,28.5,28.5,0,0,1,59.8,22.38Z" style="fill:#98b4f4"/><path d="M34.47,22a6,6,0,0,1-5.32-8.79,19,19,0,0,1,4.69-5.8A19,19,0,0,0,22,25H60a18.59,18.59,0,0,0-.26-3Z" style="fill:#054def"/><path d="M34.29,25c0-10.49,3-19,6.71-19s6.71,8.51,6.71,19Z" style="fill:#fea4a7"/><path d="M38.57,7.31a28.64,28.64,0,0,1,5.93,1.5C43.48,7,42.28,6,41,6A3.34,3.34,0,0,0,38.57,7.31Z" style="fill:#fee4e5"/><rect x="39" y="25" width="4" height="3" style="fill:#2b8d5c"/><path d="M34.47,22h-.08c-.06,1-.1,2-.1,3H47.71c0-1,0-2-.1-3Z" style="fill:#fe6569"/></g></svg>
