<svg height="512pt" viewBox="0 -31 512 512" width="512pt" xmlns="http://www.w3.org/2000/svg"><path d="m497 0h-482c-8.402344 0-15 6.597656-15 15v45l46.800781 30h412.898438l52.300781-30v-45c0-8.402344-6.597656-15-15-15zm-376.902344 60h-90.097656v-30h90.097656zm120 0h-90v-30h90zm120 0h-90v-30h90zm121.902344 0h-91.902344v-30h91.902344zm0 0" fill="#799ce3"/><path d="m497 0h-241v90h203.699219l52.300781-30v-45c0-8.402344-6.597656-15-15-15zm-136.902344 60h-90v-30h90zm121.902344 0h-91.902344v-30h91.902344zm0 0" fill="#485c8c"/><path d="m512 60v285l-8.101562 10.5h-67.898438v-115.5c0-41.398438-33.601562-75-75-75s-75 33.601562-75 75v115.5h-60v-115.5c0-41.398438-33.601562-75-75-75s-75 33.601562-75 75v115.5h-59.5l-16.5-10.5v-285zm0 0" fill="#485c8c"/><path d="m512 60v285l-8.101562 10.5h-67.898438v-115.5c0-41.398438-33.601562-75-75-75s-75 33.601562-75 75v115.5h-30v-295.5zm0 0" fill="#2d344a"/><path d="m512 435c0 8.402344-6.597656 15-15 15h-31c-11.699219 0-21.898438-4.5-30-11.699219-8.101562 7.199219-18.300781 11.699219-30 11.699219h-60c-11.699219 0-21.898438-4.5-30-11.699219-8.101562 7.199219-18.300781 11.699219-30 11.699219h-60c-11.699219 0-21.898438-4.5-30-11.699219-8.101562 7.199219-18.300781 11.699219-30 11.699219h-60c-11.699219 0-21.898438-4.5-30-11.699219-8.101562 7.199219-18.300781 11.699219-30 11.699219h-31c-8.402344 0-15-6.597656-15-15s6.597656-15 15-15h31c8.402344 0 15-6.597656 15-15s6.597656-15 15-15 15 6.597656 15 15 6.597656 15 15 15h60c8.402344 0 15-6.597656 15-15s6.597656-15 15-15 15 6.597656 15 15 6.597656 15 15 15h60c8.402344 0 15-6.597656 15-15s6.597656-15 15-15 15 6.597656 15 15 6.597656 15 15 15h60c8.402344 0 15-6.597656 15-15s6.597656-15 15-15 15 6.597656 15 15 6.597656 15 15 15h31c8.402344 0 15 6.597656 15 15zm0 0" fill="#7ed8f6"/><path d="m512 345v15c0 8.402344-6.597656 15-15 15h-31c-11.699219 0-21.898438-4.5-30-11.699219-8.101562 7.199219-18.300781 11.699219-30 11.699219h-60c-11.699219 0-21.898438-4.5-30-11.699219-8.101562 7.199219-18.300781 11.699219-30 11.699219h-60c-11.699219 0-21.898438-4.5-30-11.699219-8.101562 7.199219-18.300781 11.699219-30 11.699219h-60c-11.699219 0-21.898438-4.5-30-11.699219-8.101562 7.199219-18.300781 11.699219-30 11.699219h-31c-8.402344 0-15-6.597656-15-15v-15h46c8.402344 0 15-6.597656 15-15s6.597656-15 15-15 15 6.597656 15 15 6.597656 15 15 15h60c8.402344 0 15-6.597656 15-15s6.597656-15 15-15 15 6.597656 15 15 6.597656 15 15 15h60c8.402344 0 15-6.597656 15-15s6.597656-15 15-15 15 6.597656 15 15 6.597656 15 15 15h60c8.402344 0 15-6.597656 15-15s6.597656-15 15-15 15 6.597656 15 15 6.597656 15 15 15zm0 0" fill="#7ed8f6"/><g fill="#6aa9ff"><path d="m512 435c0 8.402344-6.597656 15-15 15h-31c-11.699219 0-21.898438-4.5-30-11.699219-8.101562 7.199219-18.300781 11.699219-30 11.699219h-60c-11.699219 0-21.898438-4.5-30-11.699219-8.101562 7.199219-18.300781 11.699219-30 11.699219h-30v-30h30c8.402344 0 15-6.597656 15-15s6.597656-15 15-15 15 6.597656 15 15 6.597656 15 15 15h60c8.402344 0 15-6.597656 15-15s6.597656-15 15-15 15 6.597656 15 15 6.597656 15 15 15h31c8.402344 0 15 6.597656 15 15zm0 0"/><path d="m466 345h46v15c0 8.402344-6.597656 15-15 15h-31c-11.699219 0-21.898438-4.5-30-11.699219-8.101562 7.199219-18.300781 11.699219-30 11.699219h-60c-11.699219 0-21.898438-4.5-30-11.699219-8.101562 7.199219-18.300781 11.699219-30 11.699219h-30v-30h30c8.402344 0 15-6.597656 15-15s6.597656-15 15-15 15 6.597656 15 15 6.597656 15 15 15h60c8.402344 0 15-6.597656 15-15s6.597656-15 15-15 15 6.597656 15 15 6.597656 15 15 15zm0 0"/></g></svg>