<svg height="512pt" viewBox="0 0 512 512.00002" width="512pt" xmlns="http://www.w3.org/2000/svg"><path d="m405 192.789062v319.210938h-298.109375v-319.210938l149.058594-85.058593zm0 0" fill="#96e8ff"/><path d="m405 192.789062v319.210938h-149.050781v-404.269531zm0 0" fill="#19cffb"/><path d="m136.890625 80v432h-136.890625v-432l68.449219-51.238281zm0 0" fill="#96e8ff"/><path d="m136.890625 80v432h-68.441406v-483.238281zm0 0" fill="#19cffb"/><path d="m301.75 32.5v30h-30.75v53.828125h-30v-53.828125h-30.75v-30h30.75v-32.5h30v32.5zm0 0" fill="#45686e"/><path d="m0 433h136.890625v79h-136.890625zm0 0" fill="#5a878f"/><path d="m136.890625 80v49h-136.890625v-49l68.449219-51.238281zm0 0" fill="#19cffb"/><path d="m304 241.789062c0 26.460938-21.53125 48-48 48h-.050781c-26.449219-.027343-47.949219-21.558593-47.949219-48 0-26.449218 21.5-47.96875 47.949219-48h.050781c26.46875 0 48 21.53125 48 48zm0 0" fill="#19cffb"/><path d="m180.339844 337.730469h153.550781v174.269531h-153.550781zm0 0" fill="#45686e"/><path d="m53.699219 193.789062h29.5v29.5h-29.5zm0 0" fill="#19cffb"/><path d="m53.699219 251.769531h29.5v29.5h-29.5zm0 0" fill="#19cffb"/><path d="m68.449219 193.789062h14.75v29.5h-14.75zm0 0" fill="#4a98f7"/><path d="m68.449219 251.769531h14.75v29.5h-14.75zm0 0" fill="#4a98f7"/><path d="m136.890625 80v49h-68.441406v-100.238281zm0 0" fill="#4a98f7"/><path d="m68.449219 433h68.441406v79h-68.441406zm0 0" fill="#45686e"/><path d="m53.449219 0h30v40.03125h-30zm0 0" fill="#45686e"/><path d="m68.449219 0h15v40.03125h-15zm0 0" fill="#2a3b3b"/><path d="m512 80v432h-136.890625v-432l68.449219-51.238281zm0 0" fill="#96e8ff"/><path d="m512 80v432h-68.441406v-483.238281zm0 0" fill="#19cffb"/><path d="m375.109375 433h136.890625v79h-136.890625zm0 0" fill="#5a878f"/><g fill="#19cffb"><path d="m512 80v49h-136.890625v-49l68.449219-51.238281zm0 0"/><path d="m428.808594 193.789062h29.5v29.5h-29.5zm0 0"/><path d="m428.808594 251.769531h29.5v29.5h-29.5zm0 0"/></g><path d="m443.558594 193.789062h14.75v29.5h-14.75zm0 0" fill="#4a98f7"/><path d="m443.558594 251.769531h14.75v29.5h-14.75zm0 0" fill="#4a98f7"/><path d="m512 80v49h-68.441406v-100.238281zm0 0" fill="#4a98f7"/><path d="m443.558594 433h68.441406v79h-68.441406zm0 0" fill="#45686e"/><path d="m428.558594 0h30v40.03125h-30zm0 0" fill="#45686e"/><path d="m443.558594 0h15v40.03125h-15zm0 0" fill="#2a3b3b"/><path d="m255.949219 337.730469h77.941406v174.269531h-77.941406zm0 0" fill="#2a3b3b"/><path d="m180.339844 337.730469h153.550781v42.269531h-153.550781zm0 0" fill="#19cffb"/><path d="m255.949219 337.730469h77.941406v42.269531h-77.941406zm0 0" fill="#4a98f7"/><path d="m256 289.789062h-.050781v-96h.050781c26.46875 0 48 21.53125 48 48 0 26.460938-21.53125 48-48 48zm0 0" fill="#4a98f7"/><path d="m271 116.328125h-15.050781v-116.328125h15.050781v32.5h30.75v30h-30.75zm0 0" fill="#2a3b3b"/></svg>