<svg height="512pt" viewBox="0 0 512 512" width="512pt" xmlns="http://www.w3.org/2000/svg"><path d="m62.640625 175.78125h30v58.546875h-30zm0 0" fill="#804231"/><path d="m77.640625 175.78125h15v58.546875h-15zm0 0" fill="#582b1f"/><path d="m123.710938 108.738281v39.632813c0 25.398437-20.671876 46.070312-46.070313 46.070312-25.402344 0-46.070313-20.671875-46.070313-46.070312v-39.632813c0-25.410156 20.660157-46.066406 46.070313-46.066406 25.398437 0 46.070313 20.65625 46.070313 46.066406zm0 0" fill="#7fdf6d"/><path d="m123.710938 108.738281v39.632813c0 25.398437-20.671876 46.070312-46.070313 46.070312v-131.769531c25.398437 0 46.070313 20.65625 46.070313 46.066406zm0 0" fill="#00b564"/><path d="m179.972656 175.78125h30v58.546875h-30zm0 0" fill="#804231"/><path d="m194.972656 175.78125h15v58.546875h-15zm0 0" fill="#582b1f"/><path d="m241.042969 108.738281v39.632813c0 25.398437-20.671875 46.070312-46.070313 46.070312-25.398437 0-46.070312-20.671875-46.070312-46.070312v-39.632813c0-25.410156 20.660156-46.066406 46.070312-46.066406 25.398438 0 46.070313 20.65625 46.070313 46.066406zm0 0" fill="#7fdf6d"/><path d="m241.042969 108.738281v39.632813c0 25.398437-20.671875 46.070312-46.070313 46.070312v-131.769531c25.398438 0 46.070313 20.65625 46.070313 46.066406zm0 0" fill="#00b564"/><path d="m0 226.449219h512v285.550781h-512zm0 0" fill="#ffec96"/><path d="m272 226.449219h240v285.550781h-240zm0 0" fill="#ffc472"/><path d="m250.421875 226.449219-42.332031 285.550781h-30.320313l42.320313-285.550781zm0 0" fill="#c2715a"/><path d="m174.121094 226.449219-102.742188 285.550781h-31.878906l102.730469-285.550781zm0 0" fill="#c2715a"/><path d="m324.699219 226.449219 42.871093 285.550781h-30.339843l-42.871094-285.550781zm0 0" fill="#af5f49"/><path d="m505.859375 512h-31.890625l-102.730469-285.550781h31.890625zm0 0" fill="#af5f49"/><path d="m478.859375 52.898438c0 29.171874-23.730469 52.902343-52.898437 52.902343-29.171876 0-52.902344-23.730469-52.902344-52.902343 0-29.167969 23.730468-52.898438 52.902344-52.898438 29.167968 0 52.898437 23.730469 52.898437 52.898438zm0 0" fill="#f8bd2d"/><path d="m478.859375 52.898438c0 29.171874-23.730469 52.902343-52.898437 52.902343v-105.800781c29.167968 0 52.898437 23.730469 52.898437 52.898438zm0 0" fill="#fd9d28"/></svg>