<svg height="512pt" viewBox="0 1 512 511" width="512pt" xmlns="http://www.w3.org/2000/svg"><path d="m35.308594 194.707031h-23.304688c-5.070312.003907-9.59375-3.183593-11.300781-7.960937-1.703125-4.773438-.21875-10.105469 3.710937-13.3125l220.246094-161.8125c18.261719-14.828125 44.417969-14.828125 62.679688 0l220.246094 161.8125c3.929687 3.207031 5.414062 8.539062 3.710937 13.3125-1.707031 4.777344-6.230469 7.964844-11.300781 7.960937h-23.304688v286.894531h-441.382812zm0 0" fill="#c03a2b"/><path d="m105.929688 203.535156h300.140624c4.875 0 8.828126 3.953125 8.828126 8.828125v269.238281h-317.796876v-269.238281c0-4.875 3.953126-8.828125 8.828126-8.828125zm0 0" fill="#5e5f62"/><path d="m194.207031 207.949219c9.75 0 17.65625 7.902343 17.65625 17.652343v17.65625h-35.3125v-17.65625c0-9.75 7.90625-17.652343 17.65625-17.652343zm0 0" fill="#2fa8cc"/><path d="m317.792969 207.949219c9.75 0 17.65625 7.902343 17.65625 17.652343v17.65625h-35.3125v-17.65625c0-9.75 7.90625-17.652343 17.65625-17.652343zm0 0" fill="#ff5364"/><path d="m203.035156 428.636719v30.898437c0 9.75-7.90625 17.65625-17.65625 17.65625s-17.65625-7.90625-17.65625-17.65625v-30.898437zm0 0" fill="#2c2f38"/><path d="m344.277344 428.636719v30.898437c0 9.75-7.90625 17.65625-17.65625 17.65625s-17.65625-7.90625-17.65625-17.65625v-30.898437zm0 0" fill="#2c2f38"/><path d="m317.792969 106.429688v44.140624c0 4.875-3.953125 8.828126-8.828125 8.828126h-105.929688c-4.875 0-8.828125-3.953126-8.828125-8.828126v-44.140624c-.035156-2.957032.199219-5.910157.707031-8.828126 3.816407-27.121093 25.136719-48.4375 52.257813-52.257812 5.847656-.941406 11.808594-.941406 17.65625 0 27.121094 3.820312 48.441406 25.136719 52.257813 52.257812.507812 2.917969.742187 5.871094.707031 8.828126zm0 0" fill="#84b5cb"/><path d="m264.828125 97.601562v-44.136718c0-4.875-3.953125-8.828125-8.828125-8.828125 16.398438-.039063 32.128906 6.476562 43.695312 18.097656 9.472657 9.394531 15.585938 21.648437 17.390626 34.867187zm0 0" fill="#b0d3f0"/><path d="m247.171875 115.257812v44.140626h-44.136719c-4.875 0-8.828125-3.953126-8.828125-8.828126v-35.3125zm0 0" fill="#b0d3f0"/><path d="m264.828125 45.34375v114.054688h-17.65625v-114.054688c5.847656-.941406 11.808594-.941406 17.65625 0zm0 0" fill="#e6e7e8"/><path d="m317.792969 106.429688v8.828124h-123.585938v-8.828124c-.035156-2.957032.199219-5.910157.707031-8.828126h122.171876c.507812 2.917969.742187 5.871094.707031 8.828126zm0 0" fill="#e6e7e8"/><path d="m167.722656 238.84375h176.554688c9.75 0 17.652344 7.90625 17.652344 17.65625v167.722656c0 4.875-3.949219 8.828125-8.828126 8.828125h-194.203124c-4.878907 0-8.828126-3.953125-8.828126-8.828125v-167.722656c0-9.75 7.902344-17.65625 17.652344-17.65625zm0 0" fill="#e64c3c"/><path d="m256 274.15625h-105.929688v79.445312h211.859376v-79.445312zm0 0" fill="#90bae1"/><path d="m8.828125 477.191406h494.34375c4.875 0 8.828125 3.949219 8.828125 8.824219v17.65625c0 4.875-3.953125 8.828125-8.828125 8.828125h-494.34375c-4.875 0-8.828125-3.953125-8.828125-8.828125v-17.65625c0-4.875 3.953125-8.824219 8.828125-8.824219zm0 0" fill="#e4c05c"/><path d="m150.070312 274.15625h105.929688v79.445312h-105.929688zm0 0" fill="#b0d3f0"/><path d="m185.378906 362.429688c-3.570312 0-6.789062-2.148438-8.152344-5.449219-1.367187-3.296875-.613281-7.09375 1.910157-9.617188l44.140625-44.140625c3.460937-3.34375 8.96875-3.296875 12.375.109375 3.402344 3.40625 3.453125 8.910157.105468 12.375l-44.136718 44.136719c-1.65625 1.65625-3.902344 2.585938-6.242188 2.585938zm0 0" fill="#2c2f38"/><path d="m282.484375 362.429688c-3.570313 0-6.789063-2.148438-8.15625-5.449219-1.363281-3.296875-.609375-7.09375 1.914063-9.617188l44.136718-44.140625c3.464844-3.34375 8.96875-3.296875 12.375.109375s3.453125 8.910157.109375 12.375l-44.140625 44.136719c-1.652344 1.65625-3.898437 2.585938-6.238281 2.585938zm0 0" fill="#2c2f38"/><path d="m238.34375 388.914062h35.3125c4.875 0 8.828125 3.953126 8.828125 8.828126v35.308593h-52.96875v-35.308593c0-4.875 3.953125-8.828126 8.828125-8.828126zm0 0" fill="#bdc3c7"/><path d="m20.999954 44.000033h1.000061" fill="none" stroke="#000" stroke-linecap="round" stroke-linejoin="round" stroke-width="2" transform="matrix(8.827586 0 0 8.827586 0 .49998)"/><g fill="#f9eab0"><path d="m194.207031 397.742188h-8.828125c-4.875 0-8.828125-3.953126-8.828125-8.828126s3.953125-8.828124 8.828125-8.828124h8.828125c4.875 0 8.828125 3.953124 8.828125 8.828124s-3.953125 8.828126-8.828125 8.828126zm0 0"/><path d="m326.621094 397.742188h-8.828125c-4.875 0-8.828125-3.953126-8.828125-8.828126s3.953125-8.828124 8.828125-8.828124h8.828125c4.875 0 8.828125 3.953124 8.828125 8.828124s-3.953125 8.828126-8.828125 8.828126zm0 0"/></g></svg>