<?xml version="1.0" encoding="iso-8859-1"?>
<!-- Generator: Adobe Illustrator 19.0.0, SVG Export Plug-In . SVG Version: 6.00 Build 0)  -->
<svg version="1.1" id="Capa_1" xmlns="http://www.w3.org/2000/svg" xmlns:xlink="http://www.w3.org/1999/xlink" x="0px" y="0px"
	 viewBox="0 0 512 512" style="enable-background:new 0 0 512 512;" xml:space="preserve">
<path style="fill:#F6E5CB;" d="M501.073,166.795c0-1.721-0.856-3.33-2.283-4.292L258.898,0.888c-1.751-1.184-4.046-1.184-5.797,0
	L13.211,162.504c-1.428,0.962-2.283,2.57-2.283,4.292v28.815c0,2.858,2.317,5.175,5.175,5.175h29.332v268.388h421.132V200.785
	h29.332c2.858,0,5.175-2.317,5.175-5.175L501.073,166.795L501.073,166.795z"/>
<g>
	<path style="fill:#F27979;" d="M178.128,469.173h-75.973V293.316c0-20.979,17.007-37.986,37.986-37.986l0,0
		c20.979,0,37.986,17.007,37.986,37.986L178.128,469.173L178.128,469.173z"/>
	<path style="fill:#F27979;" d="M294.658,469.173h-75.973V293.316c0-20.979,17.007-37.986,37.986-37.986l0,0
		c20.979,0,37.986,17.007,37.986,37.986v175.857H294.658z"/>
	<path style="fill:#F27979;" d="M409.845,469.173h-75.973V293.316c0-20.979,17.007-37.986,37.986-37.986l0,0
		c20.979,0,37.986,17.007,37.986,37.986v175.857H409.845z"/>
</g>
<g>
	<path style="fill:#CE5F5F;" d="M178.13,293.313v175.861h-30.8V293.313c0-10.494-4.254-19.985-11.126-26.857
		c-3.281-3.281-7.162-5.961-11.467-7.876c4.709-2.091,9.915-3.25,15.4-3.25c10.495,0,19.995,4.254,26.868,11.126
		C173.876,273.328,178.13,282.818,178.13,293.313z"/>
	<path style="fill:#CE5F5F;" d="M294.656,293.313v175.861h-30.8V293.313c0-10.494-4.254-19.985-11.126-26.857
		c-3.281-3.281-7.152-5.961-11.457-7.876c4.709-2.091,9.915-3.25,15.4-3.25c10.484,0,19.985,4.254,26.857,11.126
		C290.402,273.328,294.656,282.818,294.656,293.313z"/>
	<path style="fill:#CE5F5F;" d="M409.846,293.313v175.861h-30.8V293.313c0-10.494-4.254-19.985-11.126-26.857
		c-3.281-3.281-7.162-5.961-11.457-7.876c4.709-2.091,9.915-3.25,15.4-3.25c10.484,0,19.985,4.254,26.857,11.126
		C405.592,273.328,409.846,282.818,409.846,293.313z"/>
</g>
<path style="fill:#647999;" d="M501.237,512H10.763c-2.858,0-5.175-2.317-5.175-5.175v-32.477c0-2.858,2.317-5.175,5.175-5.175
	h490.475c2.858,0,5.175,2.317,5.175,5.175v32.477C506.411,509.683,504.095,512,501.237,512z"/>
<path style="fill:#4F6784;" d="M501.237,512h-60.902v-42.827h60.902c2.858,0,5.175,2.317,5.175,5.175v32.477
	C506.411,509.683,504.095,512,501.237,512z"/>
<path style="fill:#ECD4B2;" d="M498.785,162.508L258.898,0.888c-1.751-1.184-4.046-1.184-5.797,0l-25.19,17.032l210.182,144.584
	c1.404,0.965,2.242,2.56,2.242,4.264v34.018v0.002v268.386h26.231V200.787h29.328c2.858,0,5.175-2.317,5.175-5.175v-28.813
	C501.069,165.078,500.213,163.469,498.785,162.508z"/>
<path style="fill:#FFC853;" d="M255.999,148.269h101.673c5.067,0,7.115-6.528,2.956-9.422l-101.673-70.77
	c-1.777-1.237-4.136-1.237-5.913,0l-101.673,70.769c-4.158,2.894-2.11,9.422,2.956,9.422L255.999,148.269L255.999,148.269z"/>
<path style="fill:#EAAF47;" d="M357.671,148.273h-26.46L234.524,80.97l18.519-12.896c1.777-1.237,4.137-1.238,5.914,0l101.67,70.778
	C364.785,141.746,362.737,148.273,357.671,148.273z"/>
<g>
</g>
<g>
</g>
<g>
</g>
<g>
</g>
<g>
</g>
<g>
</g>
<g>
</g>
<g>
</g>
<g>
</g>
<g>
</g>
<g>
</g>
<g>
</g>
<g>
</g>
<g>
</g>
<g>
</g>
</svg>
