<?xml version="1.0" encoding="iso-8859-1"?>
<!-- Generator: Adobe Illustrator 19.0.0, SVG Export Plug-In . SVG Version: 6.00 Build 0)  -->
<svg version="1.1" id="Layer_1" xmlns="http://www.w3.org/2000/svg" xmlns:xlink="http://www.w3.org/1999/xlink" x="0px" y="0px"
	 viewBox="0 0 512 512" style="enable-background:new 0 0 512 512;" xml:space="preserve">
<polygon style="fill:#3A95BE;" points="395.697,94.141 100.334,57.221 100.334,272.046 395.697,272.046 "/>
<polygon style="fill:#4CBCF0;" points="416,214.379 416,71.796 149.333,146.462 "/>
<polygon style="fill:#B7E4F9;" points="27.667,401.441 484.334,401.441 484.334,179.533 27.667,122.45 "/>
<polygon style="fill:#94D7F6;" points="256.001,150.992 256.001,401.441 484.334,401.441 484.334,179.533 "/>
<path style="fill:#FFFFFF;" d="M400.445,304.436v-59.843h-24.61v59.843h-33.569v-59.843h-24.61v77.345l-26.799-77.345h-21.859
	l-26.911,77.354v-77.354h-25.953l-16.102,34.922l-15.998-34.922h-26.067v81.682h24.61v-35.993l10.72,23.692h13.461l10.72-23.692
	v35.993h23.104h1.506h23.771l4.655-15.404h18.725l4.766,15.404h23.653h1.503h56.677h2.114h58.18v-21.839L400.445,304.436
	L400.445,304.436z M284.917,293.465h-10.289l5.265-17.548L284.917,293.465z"/>
<polygon style="fill:#5E5D61;" points="99.494,131.428 27.667,122.45 27.667,401.441 99.494,401.441 "/>
<rect y="373.818" style="fill:#00CE80;" width="512" height="80.961"/>
<rect x="256" y="373.818" style="fill:#00B973;" width="256" height="80.961"/>
<path style="fill:#DBF2FC;" d="M400.445,304.436v-59.843h-24.61v59.843h-33.569v-59.843h-24.61v77.345l-26.799-77.345h-21.859
	L256,281.951v44.324h9.856l4.655-15.404h18.725l4.766,15.404h23.653h1.503h56.677h2.114h58.18v-21.839L400.445,304.436
	L400.445,304.436z M274.628,293.465l5.265-17.548l5.024,17.548H274.628z"/>
<g>
</g>
<g>
</g>
<g>
</g>
<g>
</g>
<g>
</g>
<g>
</g>
<g>
</g>
<g>
</g>
<g>
</g>
<g>
</g>
<g>
</g>
<g>
</g>
<g>
</g>
<g>
</g>
<g>
</g>
</svg>
