<?xml version="1.0" encoding="iso-8859-1"?>
<!-- Generator: Adobe Illustrator 19.0.0, SVG Export Plug-In . SVG Version: 6.00 Build 0)  -->
<svg version="1.1" id="Layer_1" xmlns="http://www.w3.org/2000/svg" xmlns:xlink="http://www.w3.org/1999/xlink" x="0px" y="0px"
	 viewBox="0 0 512 512" style="enable-background:new 0 0 512 512;" xml:space="preserve">
<path style="fill:#D6A246;" d="M395.13,211.478H261.565l-44.744-73.906l42.631-56.765c0.667-0.89,1.335-1.781,2.114-2.56
	c8.348-9.795,20.37-15.249,33.391-15.249c14.136,0,27.046,6.456,35.505,17.809l78.025,103.958
	C416.722,195.673,408.932,211.478,395.13,211.478z"/>
<path style="fill:#CE8A42;" d="M395.13,211.478H261.565V78.247c8.348-9.795,20.37-15.249,33.391-15.249
	c14.136,0,27.046,6.456,35.505,17.809l78.025,103.958C416.722,195.673,408.932,211.478,395.13,211.478z"/>
<path style="fill:#A78966;" d="M87.602,244.87l6.678,33.391l17.35,86.749c1.554,7.805,8.413,13.424,16.37,13.424h267.13
	c7.956,0,14.816-5.62,16.37-13.424l17.35-86.749l6.678-33.391H87.602z"/>
<g>
	<path style="fill:#957856;" d="M428.522,411.826H94.609c-9.217,0-16.696-7.473-16.696-16.696l0,0
		c0-27.619,22.468-50.087,50.087-50.087h267.13c27.619,0,50.087,22.468,50.087,50.087l0,0
		C445.217,404.353,437.739,411.826,428.522,411.826z"/>
	<path style="fill:#957856;" d="M261.565,378.435H395.13c7.956,0,14.816-5.62,16.37-13.424l17.35-86.749l6.678-33.391H261.565
		V378.435z"/>
</g>
<path style="fill:#816952;" d="M395.13,345.043H261.565v66.783h166.957c9.217,0,16.696-7.473,16.696-16.696l0,0
	C445.217,367.511,422.749,345.043,395.13,345.043z"/>
<path style="fill:#696B6F;" d="M161.391,478.609c-27.619,0-50.087-22.468-50.087-50.087s22.468-50.087,50.087-50.087
	s50.087,22.468,50.087,50.087S189.01,478.609,161.391,478.609z"/>
<path style="fill:#616267;" d="M211.478,428.522c0-27.619-22.468-50.087-50.087-50.087v100.174
	C189.01,478.609,211.478,456.141,211.478,428.522z"/>
<path style="fill:#E7ECFD;" d="M161.391,411.826c-9.206,0-16.696,7.49-16.696,16.696c0,9.206,7.49,16.696,16.696,16.696
	s16.696-7.49,16.696-16.696C178.087,419.316,170.597,411.826,161.391,411.826z"/>
<path style="fill:#DAE0F0;" d="M178.087,428.522c0-9.206-7.49-16.696-16.696-16.696v33.391
	C170.597,445.217,178.087,437.728,178.087,428.522z"/>
<path style="fill:#696B6F;" d="M361.739,478.609c-27.619,0-50.087-22.468-50.087-50.087s22.468-50.087,50.087-50.087
	s50.087,22.468,50.087,50.087S389.358,478.609,361.739,478.609z"/>
<path style="fill:#616267;" d="M411.826,428.522c0-27.619-22.468-50.087-50.087-50.087v100.174
	C389.358,478.609,411.826,456.141,411.826,428.522z"/>
<path style="fill:#E7ECFD;" d="M361.739,411.826c-9.206,0-16.696,7.49-16.696,16.696c0,9.206,7.49,16.696,16.696,16.696
	c9.206,0,16.696-7.49,16.696-16.696C378.435,419.316,370.945,411.826,361.739,411.826z"/>
<path style="fill:#DAE0F0;" d="M378.435,428.522c0-9.206-7.49-16.696-16.696-16.696v33.391
	C370.945,445.217,378.435,437.728,378.435,428.522z"/>
<path style="fill:#957856;" d="M495.304,512H16.696C7.479,512,0,504.527,0,495.304s7.479-16.696,16.696-16.696h478.609
	c9.217,0,16.696,7.473,16.696,16.696S504.521,512,495.304,512z"/>
<path style="fill:#816952;" d="M495.304,478.609H261.565V512h233.739c9.217,0,16.696-7.473,16.696-16.696
	S504.521,478.609,495.304,478.609z"/>
<path style="fill:#F5DC48;" d="M261.565,211.478H128c-6.152,0-11.815-3.391-14.718-8.815c-2.913-5.429-2.587-12.016,0.826-17.141
	l39-58.5c9.315-13.968,24.891-22.304,41.673-22.304s32.358,8.337,41.673,22.304l39,58.5c3.413,5.124,3.739,11.711,0.826,17.141
	C273.38,208.087,267.717,211.478,261.565,211.478z"/>
<path style="fill:#FFE477;" d="M261.565,211.478H128c-6.152,0-11.815-3.391-14.718-8.815c-2.913-5.429-2.587-12.016,0.826-17.141
	l39-58.5c9.315-13.968,24.891-22.304,41.673-22.304s32.358,8.337,41.673,22.304l39,58.5c3.413,5.124,3.739,11.711,0.826,17.141
	C273.38,208.087,267.717,211.478,261.565,211.478z"/>
<path style="fill:#EDBA43;" d="M261.565,164.685v46.793c6.152,0,11.815-3.391,14.718-8.815c2.913-5.429,2.587-12.016-0.826-17.141
	L261.565,164.685z"/>
<path style="fill:#957856;" d="M444.883,198.01l-9.35,46.859l-6.678,33.391H94.275l-6.678-33.391l-9.35-46.859
	c-1.003-4.897,0.223-9.906,3.452-13.802c3.115-3.896,7.902-6.122,12.91-6.122h333.913
	C438.983,178.087,446.997,187.659,444.883,198.01z"/>
<path style="fill:#816952;" d="M444.883,198.01l-9.35,46.859l-6.678,33.391h-167.29V178.087h166.957
	C438.983,178.087,446.997,187.659,444.883,198.01z"/>
<path style="fill:#A78966;" d="M461.913,211.478H61.217c-9.217,0-16.696-7.473-16.696-16.696c0-9.223,7.479-16.696,16.696-16.696
	h400.696c9.217,0,16.696,7.473,16.696,16.696C478.609,204.005,471.13,211.478,461.913,211.478z"/>
<path style="fill:#957856;" d="M461.913,178.087H261.565v33.391h200.348c9.217,0,16.696-7.473,16.696-16.696
	C478.609,185.56,471.13,178.087,461.913,178.087z"/>
<path style="fill:#FFE477;" d="M461.913,33.391h-16.696V16.696C445.217,7.473,437.739,0,428.522,0
	c-9.217,0-16.696,7.473-16.696,16.696v16.696H395.13c-9.217,0-16.696,7.473-16.696,16.696s7.479,16.696,16.696,16.696h16.696v16.696
	c0,9.223,7.479,16.696,16.696,16.696c9.217,0,16.696-7.473,16.696-16.696V66.783h16.696c9.217,0,16.696-7.473,16.696-16.696
	S471.13,33.391,461.913,33.391z"/>
<path style="fill:#FFB655;" d="M445.217,83.478V66.783h16.696c9.217,0,16.696-7.473,16.696-16.696s-7.479-16.696-16.696-16.696
	h-16.696V16.696C445.217,7.473,437.739,0,428.522,0v100.174C437.739,100.174,445.217,92.701,445.217,83.478z"/>
<path style="fill:#FFE477;" d="M94.609,77.913H77.913V61.217c0-9.223-7.479-16.696-16.696-16.696s-16.696,7.473-16.696,16.696
	v16.696H27.826c-9.217,0-16.696,7.473-16.696,16.696s7.479,16.696,16.696,16.696h16.696V128c0,9.223,7.479,16.696,16.696,16.696
	S77.913,137.223,77.913,128v-16.696h16.696c9.217,0,16.696-7.473,16.696-16.696S103.826,77.913,94.609,77.913z"/>
<path style="fill:#FFB655;" d="M77.913,128v-16.696h16.696c9.217,0,16.696-7.473,16.696-16.696s-7.479-16.696-16.696-16.696H77.913
	V61.217c0-9.223-7.479-16.696-16.696-16.696v100.174C70.435,144.696,77.913,137.223,77.913,128z"/>
<g>
</g>
<g>
</g>
<g>
</g>
<g>
</g>
<g>
</g>
<g>
</g>
<g>
</g>
<g>
</g>
<g>
</g>
<g>
</g>
<g>
</g>
<g>
</g>
<g>
</g>
<g>
</g>
<g>
</g>
</svg>
