<?xml version="1.0" encoding="iso-8859-1"?>
<!-- Generator: Adobe Illustrator 19.0.0, SVG Export Plug-In . SVG Version: 6.00 Build 0)  -->
<svg version="1.1" id="Layer_1" xmlns="http://www.w3.org/2000/svg" xmlns:xlink="http://www.w3.org/1999/xlink" x="0px" y="0px"
	 viewBox="0 0 512 512" style="enable-background:new 0 0 512 512;" xml:space="preserve">
<path style="fill:#D1D3D3;" d="M483.893,472.204v-85.722c0-3.606-2.949-6.554-6.554-6.554h-33.455v-88.845
	c0-3.604-2.949-6.554-6.554-6.554h-46.147c-3.605,0-6.554,2.95-6.554,6.554v88.845h-33.455c-3.605,0-6.554,2.948-6.554,6.554v85.722
	H483.893z"/>
<rect x="384.627" y="327.497" style="fill:#333E48;" width="59.26" height="52.433"/>
<line style="opacity:0.1;fill:none;stroke:#000000;stroke-width:15;stroke-miterlimit:10;enable-background:new    ;" x1="455.924" y1="425.808" x2="455.924" y2="472.189"/>
<rect x="344.614" y="402.323" style="fill:#333E48;" width="139.274" height="23.485"/>
<path style="opacity:0.1;enable-background:new    ;" d="M413.789,284.529h-22.606c-3.605,0-6.554,2.95-6.554,6.554v88.845h-33.455
	c-3.605,0-6.554,2.948-6.554,6.554v85.705h126.13C436.389,446.072,420.665,356.82,413.789,284.529z"/>
<path style="fill:#D1D3D3;" d="M421.532,15.178c-11.393,0-21.527,5.366-28.031,13.704c-7.199-3.183-15.155-4.965-23.531-4.965
	c-23.466,0-43.679,13.883-52.909,33.876c-5.623-1.657-11.57-2.563-17.73-2.563c-29.804,0-54.727,20.825-61.057,48.714
	c-36.164,4.438-64.178,35.239-64.178,72.605c0,40.415,32.763,73.176,73.176,73.176c10.775,0,20.996-2.349,30.208-6.531
	c9.211,4.182,19.431,6.531,30.206,6.531c40.415,0,73.176-32.762,73.176-73.176c0-13.153-3.487-25.482-9.561-36.15
	c30.399-0.683,55.046-24.638,56.814-54.756c16.482-3.089,28.958-17.545,28.958-34.923C457.073,31.089,441.16,15.178,421.532,15.178z
	"/>
<path style="fill:#A4A9AD;" d="M450.465,472.187c-53.788-40.88-61.91-236.493-61.91-279.53V182.15
	c0-5.78-4.683-10.465-10.463-10.465H176.436c-5.779,0-10.464,4.685-10.464,10.465v10.507c0,43.036-8.121,238.651-61.909,279.53
	H450.465z"/>
<g>
	<circle style="fill:#D1D3D3;" cx="277.26" cy="199.812" r="8.125"/>
	<circle style="fill:#D1D3D3;" cx="210.211" cy="199.812" r="8.125"/>
	<circle style="fill:#D1D3D3;" cx="344.319" cy="199.812" r="8.125"/>
</g>
<path style="fill:#218649;" d="M395.623,304.748h-236.72c-0.623,5.421-1.297,10.893-2.025,16.385h240.77
	C396.92,315.641,396.246,310.169,395.623,304.748z M401.095,344.557H153.433c-0.894,5.496-1.847,10.967-2.866,16.385h253.392
	C402.941,355.524,401.989,350.053,401.095,344.557z"/>
<path style="opacity:0.1;enable-background:new    ;" d="M291.407,256.585v-8.105c0-4.455-3.614-8.069-8.07-8.069H164.366
	c-4.236,74.391-18.433,199.955-60.303,231.777h235.094C297.669,440.655,291.407,289.779,291.407,256.585z"/>
<path style="fill:#D1D3D3;" d="M309.871,472.187c-41.488-31.531-47.751-182.407-47.751-215.602v-8.105
	c0-4.455-3.613-8.069-8.07-8.069H98.512c-4.457,0-8.07,3.615-8.07,8.069v8.105c0,33.195-6.264,184.072-47.751,215.602H309.871z"/>
<g>
	<circle style="fill:#A4A9AD;" cx="176.283" cy="270.454" r="8.125"/>
	<circle style="fill:#A4A9AD;" cx="126.035" cy="270.454" r="8.125"/>
	<circle style="fill:#A4A9AD;" cx="226.531" cy="270.454" r="8.125"/>
</g>
<path style="fill:#00AD68;" d="M272.379,377.289H80.182c-0.935,5.523-1.953,11-3.056,16.385h198.31
	C274.333,388.289,273.315,382.811,272.379,377.289z M279.248,410.418H73.315c-1.434,5.67-2.985,11.155-4.66,16.385h215.252
	C282.232,421.573,280.682,416.089,279.248,410.418z"/>
<path style="fill:#333E48;" d="M512,492.41c0,2.426-1.984,4.412-4.412,4.412H4.412c-2.427,0-4.412-1.986-4.412-4.412v-15.792
	c0-2.428,1.985-4.414,4.412-4.414h503.176c2.428,0,4.412,1.986,4.412,4.414V492.41z"/>
<g>
</g>
<g>
</g>
<g>
</g>
<g>
</g>
<g>
</g>
<g>
</g>
<g>
</g>
<g>
</g>
<g>
</g>
<g>
</g>
<g>
</g>
<g>
</g>
<g>
</g>
<g>
</g>
<g>
</g>
</svg>
