<svg height="512pt" viewBox="-108 0 512 512.0015" width="512pt" xmlns="http://www.w3.org/2000/svg"><path d="m218.175781 433.046875h-140.351562l17.953125-368.324219c.039062-.894531.367187-1.746094.933594-2.4375l48.109374-60.785156c1.648438-2 4.714844-2 6.363282 0l48.105468 60.785156c.566407.6875.894532 1.542969.9375 2.4375zm0 0" fill="#ffb875"/><path d="m200.226562 64.722656c-.042968-.894531-.371093-1.746094-.9375-2.4375l-48.105468-60.78125c-1.648438-2.003906-4.714844-2.003906-6.363282 0l-2.117187 2.671875 33.113281 58.109375c.566406.691406.894532 1.546875.933594 2.4375l10.523438 368.324219h30.902343zm0 0" fill="#f6a86b"/><g fill="#de8a47"><path d="m136.667969 118.246094h22.664062c4.144531 0 7.5-3.359375 7.5-7.5s-3.355469-7.5-7.5-7.5h-22.664062c-4.140625 0-7.5 3.359375-7.5 7.5s3.359375 7.5 7.5 7.5zm0 0"/><path d="m159.332031 260.070312h-22.664062c-4.140625 0-7.5 3.359376-7.5 7.5 0 4.140626 3.359375 7.5 7.5 7.5h22.664062c4.144531 0 7.5-3.359374 7.5-7.5 0-4.140624-3.355469-7.5-7.5-7.5zm0 0"/><path d="m159.332031 164.953125h-22.664062c-4.140625 0-7.5 3.359375-7.5 7.5 0 4.144531 3.359375 7.5 7.5 7.5h22.664062c4.144531 0 7.5-3.355469 7.5-7.5 0-4.140625-3.355469-7.5-7.5-7.5zm0 0"/><path d="m159.332031 360.792969h-22.664062c-4.140625 0-7.5 3.355469-7.5 7.5 0 4.140625 3.359375 7.5 7.5 7.5h22.664062c4.144531 0 7.5-3.359375 7.5-7.5 0-4.144531-3.355469-7.5-7.5-7.5zm0 0"/><path d="m159.332031 124.949219h-22.664062c-4.140625 0-7.5 3.359375-7.5 7.5s3.359375 7.5 7.5 7.5h15.164062v12.933593c0 4.140626 3.359375 7.5 7.5 7.5 4.144531 0 7.5-3.359374 7.5-7.5v-20.433593c0-4.140625-3.355469-7.5-7.5-7.5zm0 0"/><path d="m137.785156 226.050781c4.140625 0 7.5-3.355469 7.5-7.5v-15.160156h12.933594c4.140625 0 7.5-3.359375 7.5-7.5 0-4.144531-3.359375-7.5-7.5-7.5h-20.433594c-4.144531 0-7.5 3.355469-7.5 7.5v22.660156c0 4.144531 3.355469 7.5 7.5 7.5zm0 0"/><path d="m137.785156 251.71875h20.433594c4.140625 0 7.5-3.355469 7.5-7.5v-25.667969c0-4.140625-3.359375-7.5-7.5-7.5-4.144531 0-7.5 3.359375-7.5 7.5v18.167969h-12.933594c-4.144531 0-7.5 3.359375-7.5 7.5 0 4.144531 3.355469 7.5 7.5 7.5zm0 0"/><path d="m137.785156 325.085938c4.140625 0 7.5-3.355469 7.5-7.5v-15.160157h12.933594c4.140625 0 7.5-3.359375 7.5-7.5 0-4.144531-3.359375-7.5-7.5-7.5h-20.433594c-4.144531 0-7.5 3.355469-7.5 7.5v22.660157c0 4.144531 3.355469 7.5 7.5 7.5zm0 0"/><path d="m137.785156 350.753906h20.433594c4.140625 0 7.5-3.355468 7.5-7.5v-25.667968c0-4.140626-3.359375-7.5-7.5-7.5-4.144531 0-7.5 3.359374-7.5 7.5v18.167968h-12.933594c-4.144531 0-7.5 3.359375-7.5 7.5 0 4.144532 3.355469 7.5 7.5 7.5zm0 0"/></g><path d="m233.503906 485h-171.007812v-63.777344c0-2.207031 1.789062-4 4-4h163.007812c2.210938 0 4 1.792969 4 4zm0 0" fill="#f6a86b"/><path d="m202.601562 417.222656v67.777344h30.902344v-62.292969c0-3.027343-1.789062-5.484375-4-5.484375zm0 0" fill="#e89656"/><path d="m292.003906 512h-288.007812c-2.207032 0-3.996094-1.789062-3.996094-3.992188v-37.339843c0-2.207031 1.789062-3.992188 3.996094-3.992188h288.007812c2.207032 0 3.996094 1.789063 3.996094 3.992188v37.339843c0 2.203126-1.789062 3.992188-3.996094 3.992188zm0 0" fill="#455a64"/><path d="m265.167969 466.671875v45.328125h26.84375c2.203125 0 3.988281-1.789062 3.988281-4v-37.328125c0-2.207031-1.785156-4-3.988281-4zm0 0" fill="#37474f"/></svg>