<svg height="512pt" viewBox="0 -4 512.00003 512" width="512pt" xmlns="http://www.w3.org/2000/svg"><path d="m298.667969 358.398438h187.730469v128h-187.730469zm0 0" fill="#67b9cc"/><path d="m290.132812 375.464844h204.800782c-.011719-45.160156-29.609375-84.984375-72.851563-98.015625-43.242187-13.03125-89.917969 3.804687-114.882812 41.441406l-22.039063-.316406zm0 0" fill="#4482c3"/><path d="m25.601562 315.734375h273.066407v170.664063h-273.066407zm0 0" fill="#3b97d3"/><path d="m25.601562 238.933594h273.066407v76.800781h-273.066407zm0 0" fill="#2fa8cc"/><path d="m17.066406 469.332031h298.667969v34.132813h-298.667969c-4.710937 0-8.53125-3.820313-8.53125-8.53125v-17.066406c0-4.714844 3.820313-8.535157 8.53125-8.535157zm0 0" fill="#5e5f62"/><path d="m17.066406 298.667969h290.132813c4.714843 0 8.535156 3.820312 8.535156 8.53125v17.066406c0 4.714844-3.820313 8.535156-8.535156 8.535156h-290.132813c-4.710937 0-8.53125-3.820312-8.53125-8.535156v-17.066406c0-4.710938 3.820313-8.53125 8.53125-8.53125zm0 0" fill="#285680"/><path d="m136.535156 375.464844h51.199219c4.710937 0 8.53125 3.824218 8.53125 8.535156v85.332031h-68.265625v-85.332031c0-4.710938 3.820312-8.535156 8.535156-8.535156zm0 0" fill="#285680"/><path d="m25.601562 375.464844h51.199219c4.710938 0 8.53125 3.824218 8.53125 8.535156v34.132812c0 4.714844-3.820312 8.535157-8.53125 8.535157h-51.199219zm0 0" fill="#90bae1"/><path d="m298.667969 426.667969h-51.203125c-4.710938 0-8.53125-3.820313-8.53125-8.535157v-34.132812c0-4.710938 3.820312-8.535156 8.53125-8.535156h51.203125zm0 0" fill="#90bae1"/><path d="m76.800781 307.199219c-4.714843 0-8.535156-3.820313-8.535156-8.53125v-42.667969c0-4.710938 3.820313-8.535156 8.535156-8.535156 4.710938 0 8.53125 3.824218 8.53125 8.535156v42.667969c0 4.710937-3.820312 8.53125-8.53125 8.53125zm0 0" fill="#285680"/><path d="m119.464844 307.199219c-4.710938 0-8.53125-3.820313-8.53125-8.53125v-42.667969c0-4.710938 3.820312-8.535156 8.53125-8.535156 4.714844 0 8.535156 3.824218 8.535156 8.535156v42.667969c0 4.710937-3.820312 8.53125-8.535156 8.53125zm0 0" fill="#285680"/><path d="m162.132812 307.199219c-4.710937 0-8.53125-3.820313-8.53125-8.53125v-42.667969c0-4.710938 3.820313-8.535156 8.53125-8.535156 4.714844 0 8.535157 3.824218 8.535157 8.535156v42.667969c0 4.710937-3.820313 8.53125-8.535157 8.53125zm0 0" fill="#285680"/><path d="m204.800781 307.199219c-4.714843 0-8.535156-3.820313-8.535156-8.53125v-42.667969c0-4.710938 3.820313-8.535156 8.535156-8.535156 4.710938 0 8.53125 3.824218 8.53125 8.535156v42.667969c0 4.710937-3.820312 8.53125-8.53125 8.53125zm0 0" fill="#285680"/><path d="m247.464844 307.199219c-4.710938 0-8.53125-3.820313-8.53125-8.53125v-42.667969c0-4.710938 3.820312-8.535156 8.53125-8.535156 4.714844 0 8.535156 3.824218 8.535156 8.535156v42.667969c0 4.710937-3.820312 8.53125-8.535156 8.53125zm0 0" fill="#285680"/><path d="m128 469.332031h68.265625v34.132813h-68.265625zm0 0" fill="#35495e"/><path d="m272.214844 127.402344-25.175782-23.125c-44.160156-31.878906-102.457031-36.332032-150.949218-11.539063-48.492188 24.796875-79.011719 74.664063-79.023438 129.128907v8.53125h290.132813v-8.53125c.09375-34.675782-12.328125-68.214844-34.984375-94.464844zm0 0" fill="#4482c3"/><path d="m247.980469 151.636719 68.179687-68.179688-24.148437-24.148437-44.972657 44.96875-24.574218 24.574218zm0 0" fill="#285680"/><path d="m340.296875 11.027344 24.136719 24.136718c3.332031 3.332032 3.332031 8.734376 0 12.066407l-36.621094 36.621093c-3.332031 3.332032-8.734375 3.332032-12.066406 0l-24.136719-24.136718c-3.332031-3.332032-3.332031-8.734375 0-12.066406l36.621094-36.621094c3.332031-3.332032 8.734375-3.332032 12.066406 0zm0 0" fill="#2c2f38"/><path d="m315.734375 469.332031h179.199219c4.710937 0 8.53125 3.820313 8.53125 8.535157v17.066406c0 4.710937-3.820313 8.53125-8.53125 8.53125h-179.199219zm0 0" fill="#5e5f62"/><path d="m384 409.601562h17.066406c9.425782 0 17.066406 7.640626 17.066406 17.066407v42.664062h-51.199218v-42.664062c0-9.425781 7.640625-17.066407 17.066406-17.066407zm0 0" fill="#285680"/><g fill="#f0c419"><path d="m477.867188 25.601562c-4.714844 0-8.535157-3.820312-8.535157-8.535156v-8.53125c0-4.714844 3.820313-8.535156 8.535157-8.535156 4.710937 0 8.53125 3.820312 8.53125 8.535156v8.53125c0 4.714844-3.820313 8.535156-8.53125 8.535156zm0 0"/><path d="m477.867188 68.265625c-4.714844 0-8.535157-3.820313-8.535157-8.53125v-8.535156c0-4.710938 3.820313-8.53125 8.535157-8.53125 4.710937 0 8.53125 3.820312 8.53125 8.53125v8.535156c0 4.710937-3.820313 8.53125-8.53125 8.53125zm0 0"/><path d="m460.800781 42.667969h-8.535156c-4.710937 0-8.53125-3.820313-8.53125-8.535157 0-4.710937 3.820313-8.53125 8.53125-8.53125h8.535156c4.710938 0 8.53125 3.820313 8.53125 8.53125 0 4.714844-3.820312 8.535157-8.53125 8.535157zm0 0"/><path d="m503.464844 42.667969h-8.53125c-4.714844 0-8.535156-3.820313-8.535156-8.535157 0-4.710937 3.820312-8.53125 8.535156-8.53125h8.53125c4.714844 0 8.535156 3.820313 8.535156 8.53125 0 4.714844-3.820312 8.535157-8.535156 8.535157zm0 0"/><path d="m401.066406 102.398438c-4.710937 0-8.53125-3.820313-8.53125-8.53125v-8.535157c0-4.710937 3.820313-8.53125 8.53125-8.53125 4.714844 0 8.535156 3.820313 8.535156 8.53125v8.535157c0 4.710937-3.820312 8.53125-8.535156 8.53125zm0 0"/><path d="m401.066406 145.066406c-4.710937 0-8.53125-3.820312-8.53125-8.53125v-8.535156c0-4.710938 3.820313-8.535156 8.53125-8.535156 4.714844 0 8.535156 3.824218 8.535156 8.535156v8.535156c0 4.710938-3.820312 8.53125-8.535156 8.53125zm0 0"/><path d="m384 119.464844h-8.535156c-4.710938 0-8.53125-3.820313-8.53125-8.53125 0-4.714844 3.820312-8.535156 8.53125-8.535156h8.535156c4.710938 0 8.535156 3.820312 8.535156 8.535156 0 4.710937-3.824218 8.53125-8.535156 8.53125zm0 0"/><path d="m426.667969 119.464844h-8.535157c-4.710937 0-8.53125-3.820313-8.53125-8.53125 0-4.714844 3.820313-8.535156 8.53125-8.535156h8.535157c4.710937 0 8.53125 3.820312 8.53125 8.535156 0 4.710937-3.820313 8.53125-8.53125 8.53125zm0 0"/><path d="m34.132812 25.601562c-4.710937 0-8.53125-3.820312-8.53125-8.535156v-8.53125c0-4.714844 3.820313-8.535156 8.53125-8.535156 4.714844 0 8.535157 3.820312 8.535157 8.535156v8.53125c0 4.714844-3.820313 8.535156-8.535157 8.535156zm0 0"/><path d="m34.132812 68.265625c-4.710937 0-8.53125-3.820313-8.53125-8.53125v-8.535156c0-4.710938 3.820313-8.53125 8.53125-8.53125 4.714844 0 8.535157 3.820312 8.535157 8.53125v8.535156c0 4.710937-3.820313 8.53125-8.535157 8.53125zm0 0"/><path d="m17.066406 42.667969h-8.53125c-4.714844 0-8.535156-3.820313-8.535156-8.535157 0-4.710937 3.820312-8.53125 8.535156-8.53125h8.53125c4.714844 0 8.535156 3.820313 8.535156 8.53125 0 4.714844-3.820312 8.535157-8.535156 8.535157zm0 0"/><path d="m59.734375 42.667969h-8.535156c-4.710938 0-8.53125-3.820313-8.53125-8.535157 0-4.710937 3.820312-8.53125 8.53125-8.53125h8.535156c4.710937 0 8.53125 3.820313 8.53125 8.53125 0 4.714844-3.820313 8.535157-8.53125 8.535157zm0 0"/><path d="m477.867188 179.199219c-4.714844 0-8.535157-3.820313-8.535157-8.53125v-8.535157c0-4.710937 3.820313-8.53125 8.535157-8.53125 4.710937 0 8.53125 3.820313 8.53125 8.53125v8.535157c0 4.710937-3.820313 8.53125-8.53125 8.53125zm0 0"/><path d="m477.867188 221.867188c-4.714844 0-8.535157-3.820313-8.535157-8.535157v-8.53125c0-4.714843 3.820313-8.535156 8.535157-8.535156 4.710937 0 8.53125 3.820313 8.53125 8.535156v8.53125c0 4.714844-3.820313 8.535157-8.53125 8.535157zm0 0"/><path d="m460.800781 196.265625h-8.535156c-4.710937 0-8.53125-3.820313-8.53125-8.53125 0-4.714844 3.820313-8.535156 8.53125-8.535156h8.535156c4.710938 0 8.53125 3.820312 8.53125 8.535156 0 4.710937-3.820312 8.53125-8.53125 8.53125zm0 0"/><path d="m503.464844 196.265625h-8.53125c-4.714844 0-8.535156-3.820313-8.535156-8.53125 0-4.714844 3.820312-8.535156 8.535156-8.535156h8.53125c4.714844 0 8.535156 3.820312 8.535156 8.535156 0 4.710937-3.820312 8.53125-8.535156 8.53125zm0 0"/></g><path d="m273.066406 230.398438c-4.710937 0-8.53125-3.820313-8.53125-8.53125-.0625-56.527344-45.875-102.339844-102.402344-102.402344-4.710937 0-8.53125-3.820313-8.53125-8.53125 0-4.714844 3.820313-8.535156 8.53125-8.535156 65.949219.070312 119.398438 53.519531 119.46875 119.46875 0 4.710937-3.820312 8.53125-8.535156 8.53125zm0 0" fill="#2c2f38"/><path d="m17.066406 221.867188h290.132813c4.714843 0 8.535156 3.820312 8.535156 8.53125v17.066406c0 4.714844-3.820313 8.535156-8.535156 8.535156h-290.132813c-4.710937 0-8.53125-3.820312-8.53125-8.535156v-17.066406c0-4.710938 3.820313-8.53125 8.53125-8.53125zm0 0" fill="#285680"/></svg>