<svg height="512pt" viewBox="0 -30 512 512" width="512pt" xmlns="http://www.w3.org/2000/svg"><path d="m151 0v180h210v-180zm0 0" fill="#f6a96c"/><path d="m256 0h105v180h-105zm0 0" fill="#ea9b58"/><path d="m391 150v90h-270v-90h90l30 30h30l30-30zm0 0" fill="#ffbd86"/><path d="m391 240h-135v-60h15l30-30h90zm0 0" fill="#f6a96c"/><path d="m91 210h330v90h-330zm0 0" fill="#f6a96c"/><path d="m256 210h165v90h-165zm0 0" fill="#ea9b58"/><path d="m61 270h390v90h-390zm0 0" fill="#ffbd86"/><path d="m256 270h195v90h-195zm0 0" fill="#f6a96c"/><path d="m31 330h450v60h-450zm0 0" fill="#f6a96c"/><path d="m256 330h225v60h-225zm0 0" fill="#ea9b58"/><path d="m512 390v60l-512 1v-61zm0 0" fill="#ffbd86"/><path d="m256 390h256v60h-256zm0 0" fill="#f6a96c"/><path d="m211 60v120h90v-120zm0 0" fill="#68544f"/><path d="m256 60h45v120h-45zm0 0" fill="#53433f"/><path d="m361 450h-210l60-300h90zm0 0" fill="#fed2a4"/><path d="m361 450h-105v-300h45zm0 0" fill="#ffbd86"/></svg>