<svg height="512pt" viewBox="0 -32 512 511" width="512pt" xmlns="http://www.w3.org/2000/svg"><path d="m380.652344 262.851562h109.199218v153.496094h-109.199218zm0 0" fill="#ff940c"/><path d="m504.875 447.769531h-497.75c-3.933594 0-7.125-3.191406-7.125-7.125v-17.167969c0-3.9375 3.191406-7.125 7.125-7.125h497.75c3.933594 0 7.125 3.1875 7.125 7.125v17.167969c0 3.933594-3.191406 7.125-7.125 7.125zm0 0" fill="#7d7d7d"/><path d="m476.285156 416.351562v31.417969h28.375c4.054688 0 7.339844-3.285156 7.339844-7.339843v-16.738282c0-4.054687-3.285156-7.339844-7.339844-7.339844zm0 0" fill="#636363"/><path d="m22.148438 262.851562h109.199218v153.5h-109.199218zm0 0" fill="#ff940c"/><path d="m107.996094 262.851562h23.351562v153.5h-23.351562zm0 0" fill="#e8870b"/><path d="m409.910156 155.714844h-307.820312c-5.175782 0-9.375-4.199219-9.375-9.375v-15.589844c0-5.179688 4.199218-9.375 9.375-9.375h307.816406c5.179688 0 9.375 4.195312 9.375 9.375v15.589844c.003906 5.175781-4.195312 9.375-9.371094 9.375zm0 0" fill="#f94530"/><path d="m387.347656 121.375v34.339844h22.277344c5.335938 0 9.660156-4.324219 9.660156-9.660156v-15.023438c0-5.332031-4.324218-9.65625-9.660156-9.65625zm0 0" fill="#d63b29"/><path d="m131.347656 177.636719v238.714843h249.304688v-238.714843zm0 0" fill="#ff940c"/><path d="m90.234375 369.734375h-26.972656c-4.074219 0-7.375-3.300781-7.375-7.375v-45.515625c0-4.074219 3.300781-7.375 7.375-7.375h26.972656c4.074219 0 7.375 3.300781 7.375 7.375v45.515625c0 4.074219-3.300781 7.375-7.375 7.375zm0 0" fill="#58caee"/><path d="m380.652344 262.851562h124.222656c3.933594 0 7.125-3.1875 7.125-7.125v-20.085937c0-3.9375-3.191406-7.125-7.125-7.125h-124.222656zm0 0" fill="#f94530"/><path d="m380.652344 228.511719h23.695312v34.339843h-23.695312zm0 0" fill="#d63b29"/><path d="m421.765625 369.734375h26.972656c4.070313 0 7.375-3.300781 7.375-7.375v-45.515625c0-4.074219-3.304687-7.375-7.375-7.375h-26.972656c-4.074219 0-7.375 3.300781-7.375 7.375v45.515625c0 4.074219 3.300781 7.375 7.375 7.375zm0 0" fill="#58caee"/><path d="m363.140625 188.679688c0 9.859374-7.996094 17.855468-17.859375 17.855468-9.859375 0-17.855469-7.996094-17.855469-17.855468 0 9.859374-7.992187 17.855468-17.855469 17.855468-9.859374 0-17.855468-7.996094-17.855468-17.855468 0 9.859374-7.996094 17.855468-17.855469 17.855468-9.863281 0-17.855469-7.996094-17.855469-17.855468 0 9.859374-7.996094 17.855468-17.855468 17.855468-9.863282 0-17.859376-7.996094-17.859376-17.855468 0 9.859374-7.992187 17.855468-17.855468 17.855468-9.859375 0-17.855469-7.996094-17.855469-17.855468 0 9.859374-7.992187 17.855468-17.855469 17.855468-9.863281 0-17.855468-7.996094-17.855468-17.855468 0 9.746093-7.8125 17.652343-17.511719 17.839843v21.988281c9.703125-.183593 17.511719-8.105468 17.511719-17.851562 0 9.863281 7.996093 17.855469 17.855468 17.855469 9.863282 0 17.855469-7.996094 17.855469-17.855469 0 9.863281 7.996094 17.855469 17.855469 17.855469 9.863281 0 17.855468-7.996094 17.855468-17.855469 0 9.863281 7.996094 17.855469 17.859376 17.855469 9.859374 0 17.855468-7.996094 17.855468-17.855469 0 9.863281 7.992188 17.855469 17.855469 17.855469s17.855469-7.996094 17.855469-17.855469c0 9.863281 7.996094 17.855469 17.855468 17.855469 9.863282 0 17.855469-7.996094 17.855469-17.855469 0 9.863281 7.996094 17.855469 17.855469 17.855469 9.863281 0 17.859375-7.996094 17.859375-17.855469 0 9.746094 7.808594 17.667969 17.511719 17.851562v-21.988281c-9.703125-.183593-17.511719-8.09375-17.511719-17.839843zm0 0" fill="#e8870b"/><path d="m338.070312 416.351562h-164.140624v-106.492187c0-7.753906 6.285156-14.042969 14.042968-14.042969h136.058594c7.753906 0 14.039062 6.289063 14.039062 14.042969zm0 0" fill="#58caee"/><path d="m266.988281 416.351562c0-15.082031 0-105.4375 0-120.53125h-21.976562v120.53125zm0 0" fill="#4fb5d6"/><path d="m167.242188 206.535156h-1.046876c-9.574218 0-17.332031-7.757812-17.332031-17.332031v-33.488281h35.710938v33.488281c0 9.574219-7.761719 17.332031-17.332031 17.332031zm0 0" fill="#ebebeb"/><path d="m131.527344 206.535156h-1.046875c-9.570313 0-17.332031-7.757812-17.332031-17.332031v-33.488281h35.714843v33.488281c-.003906 9.574219-7.761719 17.332031-17.335937 17.332031zm0 0" fill="#d93c2a"/><path d="m238.667969 206.535156h-1.046875c-9.574219 0-17.332032-7.757812-17.332032-17.332031v-33.488281h35.710938v33.488281c0 9.574219-7.761719 17.332031-17.332031 17.332031zm0 0" fill="#ebebeb"/><path d="m202.953125 206.535156h-1.046875c-9.570312 0-17.332031-7.757812-17.332031-17.332031v-33.488281h35.714843v33.488281c-.003906 9.574219-7.761718 17.332031-17.335937 17.332031zm0 0" fill="#d93c2a"/><path d="m310.09375 206.535156h-1.046875c-9.574219 0-17.332031-7.757812-17.332031-17.332031v-33.488281h35.710937v33.488281c0 9.574219-7.761719 17.332031-17.332031 17.332031zm0 0" fill="#ebebeb"/><path d="m274.378906 206.535156h-1.042968c-9.574219 0-17.335938-7.757812-17.335938-17.332031v-33.488281h35.714844v33.488281c0 9.574219-7.761719 17.332031-17.335938 17.332031zm0 0" fill="#d93c2a"/><path d="m381.519531 206.535156h-1.046875c-9.574218 0-17.332031-7.757812-17.332031-17.332031v-33.488281h35.710937v33.488281c0 9.574219-7.761718 17.332031-17.332031 17.332031zm0 0" fill="#ebebeb"/><path d="m345.804688 206.535156h-1.042969c-9.574219 0-17.335938-7.757812-17.335938-17.332031v-33.488281h35.714844v33.488281c0 9.574219-7.761719 17.332031-17.335937 17.332031zm0 0" fill="#d93c2a"/><path d="m167.746094 85.660156h25.757812v35.714844h-25.757812zm0 0" fill="#7d7d7d"/><path d="m318.496094 85.660156h25.757812v35.714844h-25.757812zm0 0" fill="#7d7d7d"/><path d="m131.175781 13.933594v58.292968c0 7.417969 6.015625 13.433594 13.433594 13.433594h222.777344c7.421875 0 13.4375-6.015625 13.4375-13.433594v-58.292968c0-7.417969-6.015625-13.433594-13.4375-13.433594h-222.773438c-7.421875 0-13.4375 6.015625-13.4375 13.433594zm0 0" fill="#f94530"/><path d="m353.523438.5v85.160156h13.867187c7.417969 0 13.433594-6.015625 13.433594-13.433594v-58.292968c0-7.417969-6.015625-13.433594-13.433594-13.433594zm0 0" fill="#d63b29"/><path d="m0 235.851562v19.660157c0 4.054687 3.285156 7.339843 7.339844 7.339843h124.007812v-34.339843h-124.007812c-4.054688 0-7.339844 3.289062-7.339844 7.339843zm0 0" fill="#f94530"/><path d="m107.996094 228.511719h23.351562v34.339843h-23.351562zm0 0" fill="#d63b29"/><path d="m380.652344 262.851562h23.695312v153.496094h-23.695312zm0 0" fill="#e8870b"/><path d="m326.566406 50.808594h-141.132812c-4.269532 0-7.726563-3.460938-7.726563-7.726563 0-4.269531 3.457031-7.726562 7.726563-7.726562h141.132812c4.269532 0 7.726563 3.457031 7.726563 7.726562 0 4.265625-3.457031 7.726563-7.726563 7.726563zm0 0" fill="#636363"/><path d="m131.347656 241.390625h249.304688v15.453125h-249.304688zm0 0" fill="#f94530"/></svg>