<?xml version="1.0" encoding="iso-8859-1"?>
<!-- Generator: Adobe Illustrator 19.0.0, SVG Export Plug-In . SVG Version: 6.00 Build 0)  -->
<svg version="1.1" id="Capa_1" xmlns="http://www.w3.org/2000/svg" xmlns:xlink="http://www.w3.org/1999/xlink" x="0px" y="0px"
	 viewBox="0 0 512 512" style="enable-background:new 0 0 512 512;" xml:space="preserve">
<rect x="8.09" y="21.914" style="fill:#1E608B;" width="495.83" height="468.16"/>
<path style="fill:#266E96;" d="M294.411,21.914h-38.395h-0.054h-38.395c0,214.443-209.48,468.163-209.48,468.163h247.875h0.054
	h247.875C503.891,490.078,294.411,236.358,294.411,21.914z"/>
<rect x="8.09" y="344.836" style="fill:#DDA064;" width="495.83" height="145.25"/>
<path style="fill:#E8AD77;" d="M402.017,344.832H8.086v41.962h332.518C368.557,386.794,392.427,369.389,402.017,344.832z"/>
<path style="fill:#D12439;" d="M80.101,490.078H8.086V21.914h168.706c45.209,86.409-123.886,239.032-123.886,239.032
	s64.387,175.217,38.287,222.607C88.97,487.587,84.71,490.078,80.101,490.078z"/>
<g>
	<path style="fill:#EF4A50;" d="M54.333,483.552C80.433,436.163,22.3,260.946,22.3,260.946S85.629,111.552,58.959,21.914H8.086
		v468.163h35.155C47.851,490.078,52.111,487.587,54.333,483.552z"/>
	<path style="fill:#EF4A50;" d="M176.792,21.914h-36.424C129.09,160.921,22.3,260.946,22.3,260.946s58.133,175.217,32.033,222.607
		c-2.222,4.035-6.482,6.525-11.092,6.525H80.1c4.61,0,8.87-2.49,11.092-6.525c26.1-47.389-38.287-222.607-38.287-222.607
		S222.001,108.323,176.792,21.914z"/>
</g>
<path style="fill:#FEC93E;" d="M58.75,282.439H7.409c-4.092,0-7.409-3.317-7.409-7.409v-15.883c0-4.092,3.317-7.409,7.409-7.409
	H58.75c4.092,0,7.409,3.317,7.409,7.409v15.883C66.159,279.122,62.842,282.439,58.75,282.439z"/>
<path style="fill:#D12439;" d="M431.899,490.078h72.014V21.914H335.207c-45.208,86.409,123.887,239.032,123.887,239.032
	s-64.387,175.217-38.287,222.607C423.03,487.587,427.29,490.078,431.899,490.078z"/>
<g>
	<path style="fill:#EF4A50;" d="M457.667,483.552c-26.1-47.389,32.033-222.606,32.033-222.606s-63.33-149.394-36.659-239.032h50.872
		v468.163h-35.155C464.149,490.078,459.889,487.587,457.667,483.552z"/>
	<path style="fill:#EF4A50;" d="M335.207,21.914h36.424C382.91,160.921,489.7,260.946,489.7,260.946s-58.133,175.217-32.033,222.607
		c2.222,4.035,6.482,6.525,11.092,6.525H431.9c-4.61,0-8.87-2.49-11.092-6.525c-26.1-47.389,38.287-222.607,38.287-222.607
		S289.998,108.323,335.207,21.914z"/>
</g>
<path style="fill:#FEC93E;" d="M453.25,282.439h51.341c4.092,0,7.409-3.317,7.409-7.409v-15.883c0-4.092-3.317-7.409-7.409-7.409
	H453.25c-4.092,0-7.409,3.317-7.409,7.409v15.883C445.841,279.122,449.158,282.439,453.25,282.439z"/>
<path style="fill:#EFB635;" d="M504.591,267.088H453.25c-4.092,0-7.409-3.317-7.409-7.409v15.35c0,4.092,3.317,7.409,7.409,7.409
	h51.341c4.092,0,7.409-3.317,7.409-7.409v-15.35C512,263.771,508.683,267.088,504.591,267.088z"/>
<path style="fill:#D12439;" d="M457.667,483.552c-20.46-37.149,10.841-152.844,25.324-201.114H453.25
	c-0.535,0-1.055-0.06-1.558-0.167c-16.119,48.169-51.368,164.089-30.884,201.281c2.222,4.035,6.482,6.525,11.092,6.525h36.859
	C464.149,490.078,459.889,487.587,457.667,483.552z"/>
<path style="fill:#EFB635;" d="M58.75,267.088H7.409c-4.092,0-7.409-3.317-7.409-7.409v15.35c0,4.092,3.317,7.409,7.409,7.409H58.75
	c4.092,0,7.409-3.317,7.409-7.409v-15.35C66.159,263.771,62.842,267.088,58.75,267.088z"/>
<g>
	<path style="fill:#D12439;" d="M58.75,282.439H29.009c14.484,48.27,45.784,163.965,25.324,201.114
		c-2.222,4.035-6.482,6.525-11.092,6.525H80.1c4.61,0,8.87-2.49,11.092-6.525c20.484-37.192-14.765-153.112-30.884-201.281
		C59.806,282.379,59.285,282.439,58.75,282.439z"/>
	<path style="fill:#D12439;" d="M503.914,21.914c0,34.725-110.995,76.623-247.914,76.623S8.086,56.64,8.086,21.914H503.914z"/>
	<path style="fill:#D12439;" d="M231.389,415.21h-40.188c-13.486,0-24.418,10.932-24.418,24.418v50.45h89.024v-50.45
		C255.807,426.142,244.875,415.21,231.389,415.21z"/>
	<path style="fill:#D12439;" d="M142.365,415.21h-40.188c-13.486,0-24.418,10.932-24.418,24.418v50.45h89.024v-50.45
		C166.783,426.142,155.851,415.21,142.365,415.21z"/>
</g>
<g>
	<path style="fill:#B72941;" d="M142.365,415.209h-40.188c-0.729,0-1.449,0.038-2.162,0.101
		c12.472,1.095,22.256,11.561,22.256,24.317v50.45h44.512v-50.45C166.783,426.142,155.851,415.209,142.365,415.209z"/>
	<path style="fill:#B72941;" d="M231.598,415.209H191.41c-0.729,0-1.449,0.038-2.162,0.101
		c12.472,1.095,22.256,11.561,22.256,24.317v50.45h44.512v-50.45C256.016,426.142,245.083,415.209,231.598,415.209z"/>
</g>
<g>
	<path style="fill:#D12439;" d="M320.413,415.21h-40.188c-13.486,0-24.418,10.932-24.418,24.418v50.45h89.024v-50.45
		C344.831,426.142,333.899,415.21,320.413,415.21z"/>
	<path style="fill:#D12439;" d="M409.438,415.21H369.25c-13.486,0-24.418,10.932-24.418,24.418v50.45h89.024v-50.45
		C433.855,426.142,422.923,415.21,409.438,415.21z"/>
</g>
<g>
	<path style="fill:#B72941;" d="M320.413,415.209h-40.188c-0.729,0-1.449,0.038-2.162,0.101
		c12.472,1.095,22.256,11.561,22.256,24.317v50.45h44.512v-50.45C344.831,426.142,333.899,415.209,320.413,415.209z"/>
	<path style="fill:#B72941;" d="M409.438,415.209H369.25c-0.729,0-1.449,0.038-2.162,0.101
		c12.472,1.095,22.256,11.561,22.256,24.317v50.45h44.512v-50.45C433.855,426.142,422.923,415.209,409.438,415.209z"/>
</g>
<g>
</g>
<g>
</g>
<g>
</g>
<g>
</g>
<g>
</g>
<g>
</g>
<g>
</g>
<g>
</g>
<g>
</g>
<g>
</g>
<g>
</g>
<g>
</g>
<g>
</g>
<g>
</g>
<g>
</g>
</svg>
