<svg height="507pt" viewBox="-52 0 507 507.96801" width="507pt" xmlns="http://www.w3.org/2000/svg"><path d="m240.875 183.785156h-16.390625l-16.128906 320.183594h48.640625zm0 0" fill="#ccd1d9"/><path d="m232.292969 339.984375c-17.832031 0-35.472657-2.753906-52.410157-8.160156-2.109374-.671875-3.261718-2.921875-2.589843-5.03125.671875-2.097657 2.886719-3.25 5.03125-2.59375 16.144531 5.160156 32.96875 7.785156 49.96875 7.785156 32.984375 0 64.78125-9.753906 91.917969-28.167969 1.855468-1.214844 4.328124-.753906 5.5625 1.0625 1.230468 1.832032.765624 4.3125-1.066407 5.5625-28.472656 19.328125-61.816406 29.542969-96.414062 29.542969zm-66.167969-13.542969c-.527344 0-1.066406-.113281-1.578125-.328125-5-2.144531-9.949219-4.546875-14.734375-7.160156-1.9375-1.066406-2.640625-3.503906-1.578125-5.441406 1.066406-1.9375 3.503906-2.640625 5.425781-1.574219 4.542969 2.488281 9.265625 4.78125 14.03125 6.816406 2.03125.871094 2.984375 3.214844 2.113282 5.246094-.648438 1.527344-2.136719 2.441406-3.679688 2.441406zm173.136719-24.929687c-1.160157 0-2.296875-.488281-3.097657-1.457031-1.40625-1.703126-1.160156-4.214844.542969-5.621094 3.984375-3.296875 7.855469-6.832032 11.546875-10.511719 1.558594-1.5625 4.09375-1.5625 5.652344 0 1.5625 1.558594 1.5625 4.09375 0 5.652344-3.855469 3.859375-7.933594 7.5625-12.109375 11.035156-.738281.605469-1.640625.902344-2.535156.902344zm58.6875-101.449219c-.21875 0-.457031-.015625-.671875-.046875-2.183594-.375-3.640625-2.441406-3.28125-4.625.871094-5.0625 1.503906-10.277344 1.871094-15.503906.160156-2.199219 2.167968-3.886719 4.28125-3.703125 2.199218.167968 3.855468 2.082031 3.703124 4.28125-.40625 5.472656-1.0625 10.949218-1.96875 16.261718-.320312 1.960938-2.007812 3.335938-3.933593 3.335938zm-331.371094-.292969c-1.902344 0-3.605469-1.394531-3.933594-3.34375-.886719-5.347656-1.542969-10.816406-1.921875-16.265625-.160156-2.199218 1.503906-4.113281 3.707032-4.265625 1.949218-.160156 4.125 1.503907 4.277343 3.707031.359375 5.199219.984375 10.421876 1.832031 15.503907.375 2.183593-1.09375 4.246093-3.277343 4.605469-.234375.042968-.449219.058593-.683594.058593zm333.683594-31.585937c-2.167969 0-3.953125-1.734375-4-3.902344-.953125-42.378906-18-82.25-48.019531-112.25-5.46875-5.472656-11.359376-10.605469-17.527344-15.246094-1.765625-1.328125-2.125-3.839844-.800782-5.609375 1.347657-1.769531 3.859376-2.097656 5.609376-.785156 6.472656 4.875 12.65625 10.25 18.375 15.984375 31.472656 31.472656 49.363281 73.28125 50.363281 117.722656.046875 2.214844-1.707031 4.046875-3.90625 4.09375-.03125-.007812-.0625-.007812-.09375-.007812zm-335.921875-.296875c-.03125 0-.0625 0-.097656 0-2.214844-.046875-3.964844-1.886719-3.902344-4.09375 1.0625-44.34375 18.953125-86.050781 50.359375-117.425781 5.816406-5.832032 12.082031-11.261719 18.625-16.167969 1.769531-1.3125 4.265625-.96875 5.589843.816406 1.328126 1.769531.96875 4.265625-.796874 5.59375-6.234376 4.671875-12.21875 9.855469-17.769532 15.421875-29.953125 29.921875-47 69.671875-48.015625 111.953125-.054687 2.183594-1.832031 3.902344-3.992187 3.902344zm255.566406-139.292969c-.71875 0-1.4375-.1875-2.078125-.59375-4.457031-2.71875-9.0625-5.230469-13.703125-7.503906-1.984375-.96875-2.816406-3.359375-1.839844-5.34375.96875-2 3.390625-2.800782 5.34375-1.839844 4.871094 2.359375 9.703125 5.015625 14.375 7.855469 1.871094 1.160156 2.472656 3.625 1.328125 5.503906-.769531 1.230469-2.078125 1.921875-3.425781 1.921875zm-174.941406-.152344c-1.34375 0-2.65625-.671875-3.425782-1.90625-1.144531-1.886718-.542968-4.34375 1.328126-5.503906 4.640624-2.839844 9.488281-5.488281 14.394531-7.855469 1.980469-.953125 4.375-.128906 5.34375 1.855469.949219 1.984375.125 4.375-1.859375 5.34375-4.671875 2.265625-9.277344 4.785156-13.703125 7.488281-.640625.382813-1.375.578125-2.078125.578125zm0 0" fill="#e6e9ed"/><path d="m232.308594 259.96875c-5.578125 0-11.167969-.503906-16.625-1.503906-2.167969-.394532-3.625-2.488282-3.214844-4.65625.390625-2.167969 2.511719-3.578125 4.65625-3.214844 4.984375.917969 10.09375 1.375 15.183594 1.375.183594 0 .359375.015625.527344.03125.183593-.03125.375-.046875.574218-.046875 45.707032-.5625 82.875-38.234375 82.875-83.96875 0-4.769531-.410156-9.511719-1.183594-14.144531-.363281-2.167969 1.109376-4.230469 3.277344-4.609375 2.144532-.359375 4.25 1.097656 4.609375 3.28125.855469 5.0625 1.296875 10.25 1.296875 15.457031 0 50.09375-40.722656 91.359375-90.785156 91.984375-.183594-.03125-.390625 0-.574219-.03125-.195312.03125-.394531.046875-.617187.046875zm-31.296875-5.722656c-.472657 0-.953125-.078125-1.421875-.246094-35.472656-13.503906-59.296875-48.0625-59.296875-86.03125 0-16.046875 4.183593-31.832031 12.109375-45.65625 1.097656-1.921875 3.53125-2.578125 5.472656-1.472656 1.90625 1.097656 2.578125 3.527344 1.472656 5.457031-7.214844 12.605469-11.046875 27.03125-11.046875 41.671875 0 34.671875 21.765625 66.230469 54.144531 78.542969 2.0625.785156 3.109376 3.097656 2.328126 5.160156-.617188 1.59375-2.152344 2.574219-3.761719 2.574219zm113.953125-112.511719c-1.625 0-3.160156-1-3.753906-2.621094-1.734376-4.753906-3.917969-9.378906-6.511719-13.769531-1.128907-1.902344-.503907-4.359375 1.410156-5.488281 1.871094-1.113281 4.34375-.488281 5.488281 1.425781 2.839844 4.816406 5.230469 9.886719 7.140625 15.09375.753907 2.066406-.308593 4.359375-2.390625 5.128906-.457031.152344-.925781.230469-1.382812.230469zm-149.921875-26.519531c-.917969 0-1.832031-.3125-2.574219-.949219-1.6875-1.425781-1.90625-3.9375-.488281-5.625 3.589843-4.265625 7.609375-8.214844 11.886719-11.753906 1.703124-1.390625 4.21875-1.160157 5.640624.5625 1.390626 1.703125 1.160157 4.214843-.558593 5.621093-3.90625 3.21875-7.5625 6.832032-10.855469 10.722657-.785156.941406-1.921875 1.421875-3.050781 1.421875zm0 0" fill="#e6e9ed"/><path d="m232.277344 219.984375c-13.890625 0-26.9375-5.410156-36.753906-15.230469-2.03125-2.035156-3.917969-4.25-5.589844-6.59375-1.28125-1.800781-.875-4.296875.917968-5.574218 1.785157-1.296876 4.28125-.890626 5.578126.917968 1.4375 1.984375 3.03125 3.871094 4.75 5.59375 8.3125 8.308594 19.34375 12.886719 31.097656 12.886719 9.832031 0 19.488281-3.34375 27.167968-9.390625 1.734376-1.363281 4.246094-1.082031 5.621094.671875 1.363282 1.734375 1.066406 4.246094-.671875 5.605469-9.085937 7.160156-20.488281 11.113281-32.117187 11.113281zm40.390625-22.015625c-.753907 0-1.503907-.214844-2.167969-.640625-1.855469-1.199219-2.390625-3.6875-1.183594-5.527344 1.3125-2.046875 2.472656-4.214843 3.421875-6.457031.875-2.03125 3.234375-2.984375 5.25-2.113281 2.03125.875 2.984375 3.21875 2.113281 5.25-1.144531 2.65625-2.503906 5.230469-4.066406 7.65625-.773437 1.191406-2.070312 1.832031-3.367187 1.832031zm-86.433594-12.472656c-1.734375 0-3.328125-1.144532-3.839844-2.871094-1.390625-4.785156-2.09375-9.703125-2.09375-14.65625 0-13.890625 5.421875-26.953125 15.230469-36.769531 9.832031-9.816407 22.890625-15.214844 36.769531-15.214844 13.886719 0 26.933594 5.40625 36.785157 15.230469 6.46875 6.472656 11.125 14.527344 13.484374 23.328125.5625 2.144531-.703124 4.328125-2.839843 4.90625-2.160157.542969-4.308594-.722657-4.886719-2.839844-1.984375-7.441406-5.9375-14.265625-11.40625-19.738281-8.328125-8.3125-19.378906-12.886719-31.128906-12.886719-11.753906 0-22.800782 4.574219-31.113282 12.871094-8.3125 8.3125-12.886718 19.359375-12.886718 31.128906 0 4.183594.589844 8.359375 1.765625 12.390625.625 2.128906-.589844 4.34375-2.703125 4.953125-.390625.113281-.78125.167969-1.136719.167969zm0 0" fill="#f5f7fa"/><path d="m232.386719 299.96875c-.015625 0-.046875 0-.078125 0-5.472656 0-11-.328125-16.441406-1-2.199219-.265625-3.765626-2.265625-3.488282-4.457031.265625-2.199219 2.34375-3.769531 4.457032-3.488281 5.144531.625 10.046874 1.160156 15.542968.9375 11.855469 0 23.609375-1.671876 34.90625-4.984376 2.125-.640624 4.34375.589844 4.949219 2.703126.625 2.128906-.589844 4.34375-2.703125 4.96875-12.015625 3.535156-24.519531 5.320312-37.144531 5.320312zm-31.734375-3.9375c-.328125 0-.65625-.03125-.984375-.128906-51.6875-13.125-91.144531-57.453125-98.199219-110.277344-.296875-2.199219 1.246094-4.199219 3.4375-4.503906 2.144531-.378906 4.203125 1.230468 4.488281 3.4375 6.640625 49.625 43.707031 91.265625 92.25 103.59375 2.144531.542968 3.441407 2.71875 2.886719 4.855468-.472656 1.816407-2.09375 3.023438-3.878906 3.023438zm82.800781-6.671875c-1.546875 0-3.015625-.902344-3.671875-2.40625-.875-2.015625.046875-4.378906 2.0625-5.265625 4.703125-2.046875 9.34375-4.421875 13.769531-7.0625 1.886719-1.128906 4.34375-.503906 5.488281 1.390625 1.140626 1.90625.511719 4.359375-1.394531 5.488281-4.71875 2.816406-9.65625 5.34375-14.65625 7.511719-.519531.230469-1.070312.34375-1.597656.34375zm-179.160156-116.214844c-2.199219 0-4-1.800781-4-4v-1.167969c0-5.082031.296875-10.199218.871093-15.25.246094-2.183593 2.28125-3.75 4.425782-3.511718 2.199218.25 3.78125 2.234375 3.527344 4.425781-.546876 4.75-.832032 9.574219-.832032 14.34375v1.167969c.007813 2.191406-1.769531 3.992187-3.992187 3.992187zm254.535156-20.550781c-1.9375 0-3.640625-1.425781-3.9375-3.394531-.78125-5.109375-1.871094-10.199219-3.277344-15.128907-.609375-2.125.621094-4.34375 2.75-4.949218 2.144531-.59375 4.328125.640625 4.9375 2.765625 1.503907 5.25 2.671875 10.671875 3.503907 16.113281.328124 2.183594-1.167969 4.214844-3.359376 4.542969-.210937.03125-.417968.050781-.617187.050781zm-8.6875-30.691406c-1.5625 0-3.03125-.902344-3.6875-2.4375-19.519531-45.855469-64.3125-75.480469-114.144531-75.480469l-2.25.015625c-.015625 0-.046875 0-.078125 0-2.167969 0-3.953125-1.734375-4-3.921875-.046875-2.199219 1.71875-4.03125 3.917969-4.078125l2.410156-.015625c53.046875 0 100.734375 31.542969 121.503906 80.359375.871094 2.03125-.082031 4.375-2.113281 5.25-.511719.222656-1.046875.308594-1.558594.308594zm-151.738281-73.40625c-1.75 0-3.359375-1.160156-3.855469-2.9375-.574219-2.125.671875-4.328125 2.800781-4.917969 5.265625-1.441406 10.703125-2.5625 16.160156-3.34375 2.113282-.25 4.199219 1.199219 4.511719 3.40625.3125 2.183594-1.199219 4.199219-3.390625 4.511719-5.128906.738281-10.21875 1.785156-15.160156 3.144531-.359375.097656-.703125.136719-1.066406.136719zm0 0" fill="#f5f7fa"/><path d="m120.515625 123.457031c-73.769531-19.769531-120.015625-15.722656-120.015625-15.722656l-.015625.050781s38.03125 26.65625 111.800781 46.40625c36.871094 9.886719 83.261719 15.375 104.046875 16.839844l2.734375-10.375c-18.742187-9.128906-61.664062-27.3125-98.550781-37.199219zm0 0" fill="#e6e9ed"/><path d="m328.042969 96.128906c54-54 73.625-96.082031 73.625-96.082031l-.03125-.046875s-42.113281 19.625-96.097657 73.625c-27 27-54.949218 64.421875-66.605468 81.6875l7.605468 7.542969c17.273438-11.65625 54.503907-39.726563 81.503907-66.726563zm0 0" fill="#e6e9ed"/><path d="m248.652344 289.703125c19.769531 73.769531 46.390625 111.800781 46.390625 111.800781h.050781s4.0625-46.28125-15.707031-120.03125c-9.871094-36.886718-28.328125-79.800781-37.4375-98.527344l-10.34375 2.816407c1.453125 20.765625 7.160156 67.054687 17.046875 103.941406zm0 0" fill="#e6e9ed"/><path d="m248.292969 169.753906c0 8.835938-7.164063 16-16 16-8.835938 0-16-7.164062-16-16 0-8.839844 7.164062-16 16-16 8.835937 0 16 7.160156 16 16zm0 0" fill="#656d78"/><g fill="#8cc152"><path d="m64.355469 507.96875c-2.199219 0-4-1.800781-4-4v-8c0-2.214844 1.800781-4 4-4 2.214843 0 4 1.785156 4 4v8c0 2.199219-1.777344 4-4 4zm0 0"/><path d="m80.355469 507.96875c-2.199219 0-4-1.800781-4-4v-8c0-2.214844 1.800781-4 4-4 2.214843 0 4 1.785156 4 4v8c0 2.199219-1.777344 4-4 4zm0 0"/><path d="m96.355469 507.96875c-2.199219 0-4-1.800781-4-4v-8c0-2.214844 1.800781-4 4-4 2.214843 0 4 1.785156 4 4v8c0 2.199219-1.777344 4-4 4zm0 0"/><path d="m112.355469 507.96875c-2.199219 0-4-1.800781-4-4v-8c0-2.214844 1.800781-4 4-4 2.214843 0 4 1.785156 4 4v8c0 2.199219-1.777344 4-4 4zm0 0"/><path d="m128.355469 507.96875c-2.199219 0-4-1.800781-4-4v-8c0-2.214844 1.800781-4 4-4 2.214843 0 4 1.785156 4 4v8c0 2.199219-1.777344 4-4 4zm0 0"/><path d="m144.355469 507.96875c-2.199219 0-4-1.800781-4-4v-8c0-2.214844 1.800781-4 4-4 2.214843 0 4 1.785156 4 4v8c0 2.199219-1.777344 4-4 4zm0 0"/><path d="m160.355469 507.96875c-2.199219 0-4-1.800781-4-4v-8c0-2.214844 1.800781-4 4-4 2.214843 0 4 1.785156 4 4v8c0 2.199219-1.777344 4-4 4zm0 0"/><path d="m176.355469 507.96875c-2.199219 0-4-1.800781-4-4v-8c0-2.214844 1.800781-4 4-4 2.214843 0 4 1.785156 4 4v8c0 2.199219-1.777344 4-4 4zm0 0"/><path d="m192.355469 507.96875c-2.199219 0-4-1.800781-4-4v-8c0-2.214844 1.800781-4 4-4 2.214843 0 4 1.785156 4 4v8c0 2.199219-1.777344 4-4 4zm0 0"/><path d="m208.355469 507.96875c-2.199219 0-4-1.800781-4-4v-8c0-2.214844 1.800781-4 4-4 2.214843 0 4 1.785156 4 4v8c0 2.199219-1.777344 4-4 4zm0 0"/><path d="m224.355469 507.96875c-2.199219 0-4-1.800781-4-4v-8c0-2.214844 1.800781-4 4-4 2.214843 0 4 1.785156 4 4v8c0 2.199219-1.777344 4-4 4zm0 0"/><path d="m240.355469 507.96875c-2.199219 0-4-1.800781-4-4v-8c0-2.214844 1.800781-4 4-4 2.214843 0 4 1.785156 4 4v8c0 2.199219-1.777344 4-4 4zm0 0"/><path d="m256.355469 507.96875c-2.199219 0-4-1.800781-4-4v-8c0-2.214844 1.800781-4 4-4 2.214843 0 4 1.785156 4 4v8c0 2.199219-1.777344 4-4 4zm0 0"/><path d="m272.355469 507.96875c-2.199219 0-4-1.800781-4-4v-8c0-2.214844 1.800781-4 4-4 2.214843 0 4 1.785156 4 4v8c0 2.199219-1.777344 4-4 4zm0 0"/><path d="m288.355469 507.96875c-2.199219 0-4-1.800781-4-4v-8c0-2.214844 1.800781-4 4-4 2.214843 0 4 1.785156 4 4v8c0 2.199219-1.777344 4-4 4zm0 0"/><path d="m304.355469 507.96875c-2.199219 0-4-1.800781-4-4v-8c0-2.214844 1.800781-4 4-4 2.214843 0 4 1.785156 4 4v8c0 2.199219-1.777344 4-4 4zm0 0"/><path d="m320.355469 507.96875c-2.199219 0-4-1.800781-4-4v-8c0-2.214844 1.800781-4 4-4 2.214843 0 4 1.785156 4 4v8c0 2.199219-1.777344 4-4 4zm0 0"/><path d="m336.355469 507.96875c-2.199219 0-4-1.800781-4-4v-8c0-2.214844 1.800781-4 4-4 2.214843 0 4 1.785156 4 4v8c0 2.199219-1.777344 4-4 4zm0 0"/><path d="m352.355469 507.96875c-2.199219 0-4-1.800781-4-4v-8c0-2.214844 1.800781-4 4-4 2.214843 0 4 1.785156 4 4v8c0 2.199219-1.777344 4-4 4zm0 0"/><path d="m368.355469 507.96875c-2.199219 0-4-1.800781-4-4v-8c0-2.214844 1.800781-4 4-4 2.214843 0 4 1.785156 4 4v8c0 2.199219-1.777344 4-4 4zm0 0"/><path d="m384.355469 507.96875c-2.199219 0-4-1.800781-4-4v-8c0-2.214844 1.800781-4 4-4 2.214843 0 4 1.785156 4 4v8c0 2.199219-1.777344 4-4 4zm0 0"/><path d="m400.355469 507.96875c-2.199219 0-4-1.800781-4-4v-8c0-2.214844 1.800781-4 4-4 2.214843 0 4 1.785156 4 4v8c0 2.199219-1.777344 4-4 4zm0 0"/></g><path d="m60.355469 495.96875h344v12h-344zm0 0" fill="#a0d468"/></svg>