<?xml version="1.0" encoding="iso-8859-1"?>
<!-- Generator: Adobe Illustrator 19.0.0, SVG Export Plug-In . SVG Version: 6.00 Build 0)  -->
<svg version="1.1" id="Capa_1" xmlns="http://www.w3.org/2000/svg" xmlns:xlink="http://www.w3.org/1999/xlink" x="0px" y="0px"
	 viewBox="0 0 512 512" style="enable-background:new 0 0 512 512;" xml:space="preserve">
<path style="fill:#707070;" d="M384.412,97c-8.284,0-15,6.716-15,15v30.822c0,8.284,6.716,15,15,15s15-6.716,15-15V112
	C399.412,103.716,392.696,97,384.412,97z"/>
<path style="fill:#424242;" d="M497,97c-8.284,0-15,6.716-15,15v30.822c0,8.284,6.716,15,15,15s15-6.716,15-15V112
	C512,103.716,505.284,97,497,97z"/>
<path style="fill:#707070;" d="M15,9.422c-8.284,0-15,6.716-15,15v30.822c0,8.284,6.716,15,15,15s15-6.716,15-15V24.422
	C30,16.138,23.284,9.422,15,9.422z"/>
<path style="fill:#424242;" d="M71.294,9.422c-8.284,0-15,6.716-15,15v30.822c0,8.284,6.716,15,15,15s15-6.716,15-15V24.422
	C86.294,16.138,79.578,9.422,71.294,9.422z"/>
<path style="fill:#707070;" d="M71.294,9.422c-8.284,0-15,6.716-15,15v30.822c0,8.284,6.716,15,15,15V9.422z"/>
<g>
	<path style="fill:#424242;" d="M127.588,9.422c-8.284,0-15,6.716-15,15v30.822c0,8.284,6.716,15,15,15s15-6.716,15-15V24.422
		C142.588,16.138,135.872,9.422,127.588,9.422z"/>
	<polygon style="fill:#424242;" points="112.588,82.871 112.588,234.75 512,349.023 512,197.146 	"/>
</g>
<polygon style="fill:#707070;" points="305.363,138.026 112.588,82.871 112.588,234.75 305.363,289.903 "/>
<path style="fill:#999999;" d="M142.588,40.244H0v184.562c0,8.284,6.716,15,15,15h112.588c8.284,0,15-6.716,15-15V40.244z"/>
<path style="fill:#D6D6D6;" d="M71.294,40.244H0v184.562c0,8.284,6.716,15,15,15h56.294V40.244z"/>
<path style="fill:#424242;" d="M71.294,89.202c-8.284,0-15,6.716-15,15v10.74c0,8.284,6.716,15,15,15s15-6.716,15-15v-10.74
	C86.294,95.918,79.578,89.202,71.294,89.202z"/>
<path style="fill:#707070;" d="M71.294,89.202c-8.284,0-15,6.716-15,15v10.74c0,8.284,6.716,15,15,15V89.202z"/>
<path style="fill:#30B06F;" d="M478.498,354.613l-10.031-10.072C408.842,284.672,338.761,238.58,260.17,207.547
	c-73.037-28.841-149.59-43.16-227.826-42.651c-10.815,0.07-21.615,0.852-32.344,2.224l0,0v13.14v185.191c0,8.284,6.716,15,15,15
	h453.123c6.998,0,13.201-4.863,14.696-11.972C483.875,363.456,482.12,358.249,478.498,354.613z"/>
<path style="fill:#424242;" d="M440.706,97.411c-8.284,0-15,6.716-15,15v30.822c0,8.284,6.716,15,15,15s15-6.716,15-15v-30.822
	C455.706,104.127,448.99,97.411,440.706,97.411z"/>
<path style="fill:#707070;" d="M440.706,97.411c-8.284,0-15,6.716-15,15v30.822c0,8.284,6.716,15,15,15V97.411z"/>
<path style="fill:#8CE16E;" d="M305.365,227.521c-14.728-7.23-29.797-13.894-45.195-19.974
	c-73.037-28.841-149.59-43.161-227.826-42.651c-10.816,0.07-21.615,0.852-32.344,2.224v198.331c0,8.284,6.716,15,15,15h290.363
	L305.365,227.521z"/>
<path style="fill:#999999;" d="M512,127.822H369.412v200.462c0,8.284,6.716,15,15,15H497c8.284,0,15-6.716,15-15V127.822z"/>
<path style="fill:#D6D6D6;" d="M440.706,127.822h-71.294v200.462c0,8.284,6.716,15,15,15h56.294V127.822z"/>
<path style="fill:#424242;" d="M440.706,183.736c-8.284,0-15,6.716-15,15v14.715c0,8.284,6.716,15,15,15s15-6.716,15-15v-14.715
	C455.706,190.452,448.99,183.736,440.706,183.736z"/>
<path style="fill:#707070;" d="M440.706,183.736c-8.284,0-15,6.716-15,15v14.715c0,8.284,6.716,15,15,15V183.736z"/>
<polygon style="fill:#424242;" points="112.588,346.891 112.588,490.607 146.64,495.996 512,346.674 512,183.652 "/>
<g>
	<polygon style="fill:#707070;" points="305.32,268.122 112.588,346.891 112.588,490.607 146.64,495.996 305.363,431.126 
		305.363,268.105 	"/>
	<path style="fill:#707070;" d="M15,256.293c-8.284,0-15,6.716-15,15v30.822c0,8.284,6.716,15,15,15s15-6.716,15-15v-30.822
		C30,263.009,23.284,256.293,15,256.293z"/>
</g>
<path style="fill:#424242;" d="M127.588,256.293c-8.284,0-15,6.716-15,15v30.822c0,8.284,6.716,15,15,15s15-6.716,15-15v-30.822
	C142.588,263.009,135.872,256.293,127.588,256.293z"/>
<path style="fill:#30B06F;" d="M512,326.211c-10.009-3.183-20.441-4.886-30.944-4.917c-63.502-0.187-125.641,11.554-184.951,34.973
	c-64.428,25.441-121.881,63.227-170.762,112.308l-8.127,8.161c-3.623,3.638-5.379,8.847-4.323,13.872
	c1.495,7.11,7.698,11.97,14.695,11.97H437c41.421,0,75-33.579,75-75V326.211L512,326.211z"/>
<path style="fill:#424242;" d="M71.294,256.293c-8.284,0-15,6.716-15,15v30.822c0,8.284,6.716,15,15,15s15-6.716,15-15v-30.822
	C86.294,263.009,79.578,256.293,71.294,256.293z"/>
<path style="fill:#707070;" d="M71.294,256.293c-8.284,0-15,6.716-15,15v30.822c0,8.284,6.716,15,15,15V256.293z"/>
<path style="fill:#8CE16E;" d="M305.361,352.716c-3.093,1.152-6.178,2.336-9.256,3.552
	c-64.428,25.441-121.881,63.227-170.762,112.308l-8.127,8.161c-3.623,3.638-5.379,8.847-4.323,13.872
	c1.495,7.11,7.698,11.97,14.695,11.97h177.775L305.361,352.716z"/>
<path style="fill:#999999;" d="M142.588,287.115H0v140.463c0,41.421,33.579,75,75,75h67.588V287.115z"/>
<path style="fill:#D6D6D6;" d="M71.294,287.115H0v140.463c0,40.179,31.594,72.978,71.294,74.91V287.115z"/>
<path style="fill:#424242;" d="M71.294,365.018c-8.284,0-15,6.716-15,15v10.74c0,8.284,6.716,15,15,15s15-6.716,15-15v-10.74
	C86.294,371.734,79.578,365.018,71.294,365.018z"/>
<path style="fill:#707070;" d="M71.294,365.018c-8.284,0-15,6.716-15,15v10.74c0,8.284,6.716,15,15,15V365.018z"/>
<g>
</g>
<g>
</g>
<g>
</g>
<g>
</g>
<g>
</g>
<g>
</g>
<g>
</g>
<g>
</g>
<g>
</g>
<g>
</g>
<g>
</g>
<g>
</g>
<g>
</g>
<g>
</g>
<g>
</g>
</svg>
