<svg height="512pt" viewBox="-31 0 512 512" width="512pt" xmlns="http://www.w3.org/2000/svg"><path d="m435 482h-334.601562l64.851562-117.570312c4.027344-7.238282 1.421875-16.363282-5.832031-20.394532-7.234375-4.054687-16.375-1.417968-20.390625 5.832032l-72.878906 132.132812h-51.148438c-8.402344 0-15 6.597656-15 15s6.597656 15 15 15h420c8.402344 0 15-6.597656 15-15s-6.597656-15-15-15zm0 0" fill="#bbdcff"/><path d="m435 482h-51.148438l-72.878906-132.132812c-4.015625-7.25-13.171875-9.886719-20.394531-5.832032-7.25 4.03125-9.855469 13.15625-5.828125 20.394532l64.851562 117.570312h-124.601562v30h210c8.402344 0 15-6.597656 15-15s-6.597656-15-15-15zm0 0" fill="#9abadb"/><path d="m225 61c-90.902344 0-165 74.097656-165 165s74.097656 165 165 165 165-74.097656 165-165-74.097656-165-165-165zm0 270c-57.898438 0-105-47.101562-105-105s47.101562-105 105-105 105 47.101562 105 105-47.101562 105-105 105zm0 0" fill="#e0f4ff"/><g fill="#bbdcff"><path d="m390 226c0 90.902344-74.097656 165-165 165v-60c57.898438 0 105-47.101562 105-105s-47.101562-105-105-105v-60c90.902344 0 165 74.097656 165 165zm0 0"/><path d="m255 0h-60c-8.402344 0-15 6.597656-15 15v31c0 19.636719 12.503906 36.277344 30 42.441406v107.558594c0 8.402344 6.597656 15 15 15s15-6.597656 15-15v-107.558594c17.496094-6.164062 30-22.804687 30-42.441406v-31c0-8.402344-6.597656-15-15-15zm0 0"/><path d="m240 363.558594v-107.558594c0-8.402344-6.597656-15-15-15s-15 6.597656-15 15v107.558594c-17.496094 6.164062-30 22.804687-30 42.441406v31c0 8.402344 6.597656 15 15 15h60c8.402344 0 15-6.597656 15-15v-31c0-19.636719-12.503906-36.277344-30-42.441406zm0 0"/><path d="m206.515625 198.007812-93.167969-53.792968c3.363282-18.21875-4.808594-37.414063-21.734375-47.195313l-25.972656-15c-7.242187-4.171875-16.378906-1.617187-20.492187 5.492188l-30 51.972656c-4.148438 7.179687-1.6875 16.351563 5.492187 20.496094l25.984375 15c16.945312 9.769531 37.636719 7.21875 51.71875-4.78125l93.167969 53.792969c2.359375 1.363281 4.9375 2.007812 7.484375 2.007812 5.1875 0 10.226562-2.679688 13.011718-7.5 4.144532-7.179688 1.683594-16.347656-5.492187-20.492188zm0 0"/></g><path d="m429.359375 292.019531-25.984375-15c-16.945312-9.785156-37.636719-7.234375-51.722656 4.78125l-93.167969-53.792969c-7.175781-4.175781-16.347656-1.699218-20.492187 5.492188-4.144532 7.179688-1.683594 16.347656 5.492187 20.492188l93.167969 53.792968c-3.363282 18.21875 4.808594 37.414063 21.734375 47.195313l25.972656 15c7.214844 4.132812 16.351563 1.667969 20.492187-5.492188l30-51.972656c4.148438-7.179687 1.6875-16.351563-5.492187-20.496094zm0 0" fill="#9abadb"/><path d="m434.855469 139.484375-30-51.972656c-4.148438-7.164063-13.332031-9.636719-20.496094-5.492188l-25.96875 15c-16.925781 9.78125-25.097656 28.976563-21.738281 47.195313l-93.164063 53.792968c-7.179687 4.144532-9.640625 13.3125-5.496093 20.492188 2.785156 4.820312 7.824218 7.5 13.011718 7.5 2.546875 0 5.125-.644531 7.484375-2.007812l93.164063-53.792969c14.113281 12.027343 34.828125 14.53125 51.738281 4.78125l25.96875-15c7.179687-4.144531 9.640625-13.316407 5.496094-20.496094zm0 0" fill="#9abadb"/><path d="m212.007812 233.5c-4.160156-7.191406-13.375-9.667969-20.492187-5.492188l-93.171875 53.792969c-14.089844-12.007812-34.789062-14.542969-51.734375-4.78125l-25.96875 15c-7.179687 4.148438-9.640625 13.316407-5.496094 20.496094l30 51.972656c4.148438 7.164063 13.289063 9.625 20.496094 5.492188l25.96875-15c16.925781-9.78125 25.097656-28.976563 21.738281-47.195313l93.164063-53.792968c7.179687-4.144532 9.640625-13.3125 5.496093-20.492188zm0 0" fill="#bbdcff"/><path d="m255 0h-30v211c8.402344 0 15-6.597656 15-15v-107.558594c17.496094-6.164062 30-22.804687 30-42.441406v-31c0-8.402344-6.597656-15-15-15zm0 0" fill="#9abadb"/><path d="m240 363.558594v-107.558594c0-8.402344-6.597656-15-15-15v211h30c8.402344 0 15-6.597656 15-15v-31c0-19.636719-12.503906-36.277344-30-42.441406zm0 0" fill="#9abadb"/><path d="m225 181c-24.902344 0-45 20.097656-45 45s20.097656 45 45 45 45-20.097656 45-45-20.097656-45-45-45zm0 0" fill="#e0f4ff"/><path d="m225 271v-90c24.902344 0 45 20.097656 45 45s-20.097656 45-45 45zm0 0" fill="#bbdcff"/></svg>