<svg height="512pt" viewBox="0 -79 512 511" width="512pt" xmlns="http://www.w3.org/2000/svg"><path d="m164.03125 351.890625h-124.472656l7.703125-221.859375c.847656-24.371094 20.609375-43.460938 45-43.460938h19.066406c24.390625 0 44.152344 19.089844 45 43.460938zm0 0" fill="#45686e"/><path d="m164.03125 351.890625h-62.242188v-265.320313h9.539063c24.390625 0 44.152344 19.089844 45 43.460938zm0 0" fill="#2a3b3b"/><path d="m330.011719 351.890625h-124.472657l7.699219-221.859375c.851563-24.371094 20.613281-43.460938 45-43.460938h19.070313c24.390625 0 44.152344 19.089844 45 43.460938zm0 0" fill="#45686e"/><path d="m293.921875 37.308594v53.371094h-218.273437v-53.371094c0-20.296875 16.511718-36.808594 36.8125-36.808594h144.648437c20.300781 0 36.8125 16.511719 36.8125 36.808594zm0 0" fill="#5a878f"/><path d="m472.441406 351.890625h-110.851562v-230.332031c0-19.289063 15.699218-34.988282 34.988281-34.988282h28.09375c18.566406 0 33.917969 14.519532 34.9375 33.058594zm0 0" fill="#45686e"/><path d="m472.441406 351.890625h-58.851562v-265.320313h11.082031c18.566406 0 33.917969 14.519532 34.9375 33.058594zm0 0" fill="#2a3b3b"/><path d="m330.011719 351.890625h-62.230469v-265.320313h9.527344c24.390625 0 44.152344 19.089844 45 43.460938zm0 0" fill="#2a3b3b"/><path d="m293.921875 37.308594v53.371094h-109.140625v-90.179688h72.328125c20.300781 0 36.8125 16.511719 36.8125 36.808594zm0 0" fill="#45686e"/><path d="m0 322.894531h512v30h-512zm0 0" fill="#61d64d"/><path d="m256 322.894531h256v30h-256zm0 0" fill="#00b664"/></svg>