<?xml version="1.0" encoding="iso-8859-1"?>
<!-- Generator: Adobe Illustrator 19.0.0, SVG Export Plug-In . SVG Version: 6.00 Build 0)  -->
<svg version="1.1" id="Capa_1" xmlns="http://www.w3.org/2000/svg" xmlns:xlink="http://www.w3.org/1999/xlink" x="0px" y="0px"
	 viewBox="0 0 512 512" style="enable-background:new 0 0 512 512;" xml:space="preserve">
<rect x="172.95" y="347.27" style="fill:#FF8800;" width="166.1" height="164.73"/>
<g>
	<rect x="256" y="347.27" style="fill:#E47700;" width="83.05" height="164.73"/>
	<rect x="211.39" y="398.33" style="fill:#E47700;" width="30" height="113.67"/>
</g>
<rect x="270.61" y="398.33" style="fill:#984D00;" width="30" height="113.67"/>
<polygon style="fill:#E47700;" points="304.057,128.366 207.943,128.366 207.943,74.361 256,48.701 304.057,74.361 "/>
<polygon style="fill:#984D00;" points="304.057,128.366 256,128.366 256,48.701 304.057,74.361 "/>
<polygon style="fill:#333333;" points="304.057,74.361 271,31.459 271,0 241,0 241,31.459 207.943,74.361 "/>
<polygon style="fill:#1A1A1A;" points="304.057,74.361 271,31.459 271,0 256,0 256,74.361 "/>
<rect x="188.56" y="113.84" style="fill:#4D4D4D;" width="134.87" height="57.23"/>
<rect x="256" y="113.84" style="fill:#333333;" width="67.44" height="57.23"/>
<path style="fill:#E47700;" d="M354.098,357.269H157.902V161.073h196.195v196.196H354.098z"/>
<path style="fill:#984D00;" d="M354.098,357.269H256V161.073h98.098V357.269z"/>
<path style="fill:#F1F1F2;" d="M256,320.462c-33.795,0-61.291-27.496-61.291-61.291S222.205,197.88,256,197.88
	s61.291,27.496,61.291,61.291S289.795,320.462,256,320.462z"/>
<path style="fill:#E6E6E6;" d="M256,320.462c0-39.041,0-109.653,0-122.581c33.795,0,61.291,27.496,61.291,61.291
	S289.795,320.462,256,320.462z"/>
<polygon style="fill:#4D4D4D;" points="264.02,295.898 241,265.939 241,222.444 271,222.444 271,255.744 287.809,277.621 "/>
<g>
</g>
<g>
</g>
<g>
</g>
<g>
</g>
<g>
</g>
<g>
</g>
<g>
</g>
<g>
</g>
<g>
</g>
<g>
</g>
<g>
</g>
<g>
</g>
<g>
</g>
<g>
</g>
<g>
</g>
</svg>
