<svg height="469.33334pt" viewBox="0 0 469.33334 469.33334" width="469.33334pt" xmlns="http://www.w3.org/2000/svg"><path d="m213.332031 170.667969s170.667969 0 256 42.664062v213.335938s-85.332031 21.332031-256 21.332031zm0 0" fill="#b37900"/><path d="m426.667969 320h42.664062v21.332031h-42.664062zm0 0" fill="#9e6611"/><path d="m384 426.667969h-42.667969v-42.667969l-21.332031-21.332031v-64l-42.667969-21.335938v-85.332031h42.667969v58.957031l42.667969 21.335938v72.707031l21.332031 21.332031zm0 0" fill="#9e6611"/><path d="m455.292969 340.792969c-.625-.210938-63.898438-20.792969-167.292969-20.792969v-21.332031c107.167969 0 171.355469 20.988281 174.042969 21.882812zm0 0" fill="#cb8c01"/><path d="m320 469.332031h21.332031v-85.332031l-21.332031-21.332031v-64.003907l-42.667969-21.332031v-106.664062l-64-21.335938v-106.664062l-42.667969-42.667969s-106.664062 21.332031-170.664062 85.332031v362.667969s106.667969 21.332031 320 21.332031zm0 0" fill="#e0bb69"/><path d="m128 234.667969h42.667969v21.332031h-42.667969zm0 0" fill="#d6a436"/><path d="m213.332031 192h42.667969v21.332031h-42.667969zm0 0" fill="#cb8c01"/><path d="m42.667969 234.667969h42.664062v21.332031h-42.664062zm0 0" fill="#d6a436"/><path d="m85.332031 384h42.667969v21.332031h-42.667969zm0 0" fill="#d6a436"/><path d="m298.667969 384h42.664062v21.332031h-42.664062zm0 0" fill="#d6a436"/><path d="m42.667969 341.332031h42.664062v21.335938h-42.664062zm0 0" fill="#cb8c01"/><path d="m128 341.332031h42.667969v21.335938h-42.667969zm0 0" fill="#cb8c01"/><path d="m213.332031 341.332031h42.667969v21.335938h-42.667969zm0 0" fill="#cb8c01"/><path d="m277.332031 192h42.667969v21.332031h-42.667969zm0 0" fill="#935d00"/><path d="m320 320h42.667969v21.332031h-42.667969zm0 0" fill="#935d00"/><path d="m426.667969 405.332031h42.664062v21.335938h-42.664062zm0 0" fill="#9e6611"/><path d="m384 362.667969h42.667969v21.332031h-42.667969zm0 0" fill="#9e6611"/><path d="m384 277.332031h42.667969v21.335938h-42.667969zm0 0" fill="#9e6611"/><path d="m448 256h21.332031v21.332031h-21.332031zm0 0" fill="#9e6611"/><path d="m362.667969 213.332031h42.664062v21.335938h-42.664062zm0 0" fill="#9e6611"/><path d="m18.207031 124.875-15.082031-15.082031c2.707031-2.710938 67.542969-66.53125 176.125-88.25l4.167969 20.914062c-102.3125 20.46875-164.585938 81.804688-165.210938 82.417969zm0 0" fill="#d6a436"/><path d="m14.625 233.90625-7.917969-19.8125c4.4375-1.769531 109.8125-43.425781 217.292969-43.425781v21.332031c-103.269531 0-208.332031 41.488281-209.375 41.90625zm0 0" fill="#d6a436"/><path d="m341.332031 458.667969h-21.332031v-65.835938l-21.332031-21.332031v-59.644531l-42.667969-21.335938v-104.476562l-64-21.335938v-113.207031l-32.269531-32.261719 15.082031-15.082031 38.519531 38.511719v106.664062l64 21.335938v106.664062l42.667969 21.335938v64l21.332031 21.332031zm0 0" fill="#d6a436"/><path d="m18.042969 97.53125-14.75-15.417969c54.625-52.226562 137.414062-75.039062 161.5-80.789062l4.957031 20.75c-22.769531 5.4375-100.957031 26.9375-151.707031 75.457031zm0 0" fill="#efddb4"/><path d="m64 384c11.78125 0 21.332031 9.550781 21.332031 21.332031v21.335938h-42.664062v-21.335938c0-11.78125 9.550781-21.332031 21.332031-21.332031zm0 0" fill="#a84400"/><path d="m128 362.667969c11.78125 0 21.332031 9.550781 21.332031 21.332031v42.667969h-42.664062v-42.667969c0-11.78125 9.550781-21.332031 21.332031-21.332031zm0 0" fill="#a84400"/><path d="m192 341.332031c11.78125 0 21.332031 9.550781 21.332031 21.335938v64h-42.664062v-64c0-11.785157 9.550781-21.335938 21.332031-21.335938zm0 0" fill="#a84400"/><path d="m256 341.332031c11.78125 0 21.332031 9.550781 21.332031 21.335938v64h-42.664062v-64c0-11.785157 9.550781-21.335938 21.332031-21.335938zm0 0" fill="#a84400"/><path d="m448 405.332031h-42.667969v-21.332031c0-11.78125 9.550781-21.332031 21.335938-21.332031 11.78125 0 21.332031 9.550781 21.332031 21.332031zm0 0" fill="#851f00"/><path d="m384 405.332031h-42.667969v-42.664062c0-11.785157 9.550781-21.335938 21.335938-21.335938 11.78125 0 21.332031 9.550781 21.332031 21.335938zm0 0" fill="#851f00"/><path d="m448 277.332031h-42.667969v-21.332031c0-11.78125 9.550781-21.332031 21.335938-21.332031 11.78125 0 21.332031 9.550781 21.332031 21.332031zm0 0" fill="#851f00"/><path d="m384 277.332031h-42.667969v-42.664062c0-11.785157 9.550781-21.335938 21.335938-21.335938 11.78125 0 21.332031 9.550781 21.332031 21.335938zm0 0" fill="#851f00"/><path d="m320 277.332031h-42.667969v-42.664062c0-11.785157 9.550781-21.335938 21.335938-21.335938 11.78125 0 21.332031 9.550781 21.332031 21.335938zm0 0" fill="#851f00"/><path d="m64 234.667969c11.78125 0 21.332031 9.550781 21.332031 21.332031v21.332031h-42.664062v-21.332031c0-11.78125 9.550781-21.332031 21.332031-21.332031zm0 0" fill="#a84400"/><path d="m128 213.332031c11.78125 0 21.332031 9.550781 21.332031 21.335938v42.664062h-42.664062v-42.664062c0-11.785157 9.550781-21.335938 21.332031-21.335938zm0 0" fill="#a84400"/><path d="m192 192c11.78125 0 21.332031 9.550781 21.332031 21.332031v64h-42.664062v-64c0-11.78125 9.550781-21.332031 21.332031-21.332031zm0 0" fill="#a84400"/><path d="m277.332031 213.332031c0-11.78125-9.550781-21.332031-21.332031-21.332031s-21.332031 9.550781-21.332031 21.332031v64h42.664062" fill="#a84400"/><path d="m64 106.667969c11.78125 0 21.332031 9.550781 21.332031 21.332031v21.332031h-42.664062v-21.332031c0-11.78125 9.550781-21.332031 21.332031-21.332031zm0 0" fill="#a84400"/><path d="m128 85.332031c11.78125 0 21.332031 9.550781 21.332031 21.335938v42.664062h-42.664062v-42.664062c0-11.785157 9.550781-21.335938 21.332031-21.335938zm0 0" fill="#a84400"/><path d="m192 64c11.78125 0 21.332031 9.550781 21.332031 21.332031v64h-42.664062v-64c0-11.78125 9.550781-21.332031 21.332031-21.332031zm0 0" fill="#a84400"/><path d="m14.625 340.574219-7.917969-19.8125c3.8125-1.523438 95.480469-37.449219 270.292969-42.78125l.667969 21.332031c-171.085938 5.207031-262.148438 40.894531-263.042969 41.261719zm0 0" fill="#efddb4"/><path d="m14.625 212.574219-7.917969-19.8125c3.273438-1.3125 81.8125-32.261719 205.875-41.117188l1.5 21.273438c-120.457031 8.613281-198.6875 39.34375-199.457031 39.65625zm0 0" fill="#efddb4"/><path d="m106.667969 234.667969h21.332031v42.664062h-21.332031zm0 0" fill="#851f00"/><path d="m277.332031 234.667969h21.335938v42.664062h-21.335938zm0 0" fill="#701600"/><path d="m341.332031 234.667969h21.335938v42.664062h-21.335938zm0 0" fill="#701600"/><path d="m341.332031 362.667969h21.335938v42.664062h-21.335938zm0 0" fill="#701600"/><g fill="#851f00"><path d="m106.667969 106.667969h21.332031v42.664062h-21.332031zm0 0"/><path d="m170.667969 85.332031h21.332031v64h-21.332031zm0 0"/><path d="m170.667969 213.332031h21.332031v64h-21.332031zm0 0"/><path d="m170.667969 362.667969h21.332031v64h-21.332031zm0 0"/><path d="m234.667969 362.667969h21.332031v64h-21.332031zm0 0"/><path d="m234.667969 213.332031h21.332031v64h-21.332031zm0 0"/><path d="m106.667969 384h21.332031v42.667969h-21.332031zm0 0"/><path d="m42.667969 405.332031h21.332031v21.335938h-21.332031zm0 0"/><path d="m42.667969 256h21.332031v21.332031h-21.332031zm0 0"/><path d="m42.667969 128h21.332031v21.332031h-21.332031zm0 0"/></g><path d="m405.332031 256h21.335938v21.332031h-21.335938zm0 0" fill="#701600"/><path d="m405.332031 384h21.335938v21.332031h-21.335938zm0 0" fill="#701600"/><path d="m14.042969 362.125-6.75-20.238281c5.289062-1.773438 131.125-43.21875 259.375-43.21875v21.332031c-124.710938 0-251.355469 41.699219-252.625 42.125zm0 0" fill="#d6a436"/><path d="m0 384h42.667969v21.332031h-42.667969zm0 0" fill="#d6a436"/><path d="m42.667969 426.667969h42.664062v21.332031h-42.664062zm0 0" fill="#d6a436"/><path d="m0 277.332031h42.667969v21.335938h-42.667969zm0 0" fill="#d6a436"/><path d="m21.332031 149.332031h42.667969v21.335938h-42.667969zm0 0" fill="#d6a436"/><path d="m128 64h42.667969v21.332031h-42.667969zm0 0" fill="#cb8c01"/><path d="m64 64h42.667969v21.332031h-42.667969zm0 0" fill="#cb8c01"/><path d="m128 426.667969h42.667969v21.332031h-42.667969zm0 0" fill="#d6a436"/><path d="m213.332031 426.667969h42.667969v21.332031h-42.667969zm0 0" fill="#d6a436"/><path d="m298.667969 426.667969h42.664062v21.332031h-42.664062zm0 0" fill="#d6a436"/><path d="m320 384h21.332031v21.332031h-21.332031zm0 0" fill="#cb8c01"/><path d="m320 426.667969h21.332031v21.332031h-21.332031zm0 0" fill="#cb8c01"/></svg>