<svg height="512pt" viewBox="0 0 512 512" width="512pt" xmlns="http://www.w3.org/2000/svg"><path d="m481.761719 414.351562h-136.839844l-75.570313-239.542968-1.371093-4.328125c.097656.019531.199219.039062.289062.078125.011719-.007813.011719-.007813.011719 0 .128906.03125.25.082031.359375.140625.25.121093.480469.28125.679687.472656.078126.089844.160157.179687.230469.269531zm0 0" fill="#fbc02d"/><path d="m481.761719 414.351562h-42.5625l-169.121094-241.589843c0-.011719 0-.011719 0-.011719l-1.4375-2.050781c.25.121093.480469.28125.679687.472656.078126.089844.160157.179687.230469.269531zm0 0" fill="#f9a825"/><path d="m391.679688 414.351562h-346.710938l50.691406-55.832031 13.621094-15 79.167969-87.199219 13.609375-15 63.339844-69.75c.011718-.019531.03125-.039062.042968-.058593l.398438-.441407c.019531-.019531.039062-.03125.050781-.039062.449219-.371094 1.019531-.589844 1.628906-.589844.160157 0 .308594.007813.460938.039063.097656.019531.199219.039062.289062.078125.011719-.007813.011719-.007813.011719 0l1.660156 3.300781 16.578125 32.75 7.601563 15 61.707031 121.910156 7.59375 15zm0 0" fill="#fdd835"/><path d="m391.679688 414.351562h-346.710938l50.691406-55.832031 13.621094-15 79.167969-87.199219 13.609375-15 63.339844-69.75c.011718-.019531.03125-.039062.042968-.058593l.398438-.441407c.019531-.019531.039062-.03125.050781-.039062.449219-.371094 1.019531-.589844 1.628906-.589844.160157 0 .308594.007813.460938.039063.097656.019531.199219.039062.289062.078125.011719-.007813.011719-.007813.011719 0l1.660156 3.300781 16.578125 32.75 7.601563 15 61.707031 121.910156 7.59375 15zm0 0" fill="#fdd835"/><path d="m0 410.820312c0-1.671874 1.03125-3.164062 2.59375-3.746093 10.964844-4.101563 47.535156-13.027344 69.535156-13.027344 97.144532 0 197.953125 59.214844 197.953125 59.214844s98.207031-59.214844 196.976563-59.214844c13.203125 0 33.292968 3.226563 41.84375 5.222656 1.808594.421875 3.085937 2.035157 3.085937 3.894531l.011719 104.835938c0 2.210938-1.789062 4-4 4h-504c-2.210938 0-4-1.789062-4-4zm0 0" fill="#e89656"/><path d="m508 512h-504c-2.210938 0-4-1.789062-4-4v-59.96875s117.027344-53.988281 214.175781-53.988281c132.03125 0 297.824219 53.988281 297.824219 53.988281v59.96875c0 2.210938-1.789062 4-4 4zm0 0" fill="#f6a86b"/><g fill="#f9a825"><path d="m178 351.019531c0 4.140625-3.359375 7.5-7.5 7.5h-74.839844l13.621094-15h61.21875c4.140625 0 7.5 3.359375 7.5 7.5zm0 0"/><path d="m363.421875 358.519531h-42.523437c-4.136719 0-7.5-3.359375-7.5-7.5s3.363281-7.5 7.5-7.5h34.929687zm0 0"/><path d="m275.058594 290.738281h-58.035156c-4.140626 0-7.5 3.355469-7.5 7.5 0 4.140625 3.359374 7.5 7.5 7.5h58.035156c4.144531 0 7.5-3.359375 7.5-7.5 0-4.144531-3.359375-7.5-7.5-7.5zm0 0"/><path d="m230.53125 248.820312c0 4.140626-3.351562 7.5-7.5 7.5h-34.582031l13.609375-15h20.972656c4.148438 0 7.5 3.359376 7.5 7.5zm0 0"/><path d="m294.121094 221.609375h-28.160156c-4.140626 0-7.5-3.359375-7.5-7.5s3.359374-7.5 7.5-7.5h20.558593zm0 0"/></g><path d="m171.011719 61.75v.121094c0 11.300781-9.246094 20.542968-20.542969 20.542968h-129.925781c-11.300781 0-20.542969-9.242187-20.542969-20.542968v-.121094c0-11.300781 9.242188-20.542969 20.542969-20.542969h17.886719c4.695312 0 7.15625-5.421875 4.207031-9.074219-2.328125-2.875-3.941407-6.621093-3.941407-11.46875v-.125c0-11.296874 9.242188-20.539062 20.539063-20.539062h67.199219c11.292968 0 20.542968 9.242188 20.542968 20.542969v.121093c0 3.832032-1.039062 6.976563-2.652343 9.554688-2.996094 4.785156.238281 10.988281 5.886719 10.988281h.257812c11.296875 0 20.542969 9.242188 20.542969 20.542969zm0 0" fill="#eceff1"/><path d="m150.46875 41.207031h-.257812c-5.648438 0-8.882813-6.203125-5.886719-10.988281 1.609375-2.578125 2.652343-5.722656 2.652343-9.554688v-.125c0-11.296874-9.25-20.539062-20.542968-20.539062h-30.90625c11.292968 0 20.542968 9.242188 20.542968 20.542969v.121093c0 3.832032-1.039062 6.976563-2.652343 9.554688-2.992188 4.785156.242187 10.988281 5.886719 10.988281h.257812c11.300781 0 20.542969 9.246094 20.542969 20.542969v.125c0 11.296875-9.242188 20.539062-20.542969 20.539062h30.90625c11.296875 0 20.542969-9.242187 20.542969-20.539062v-.125c0-11.300781-9.246094-20.542969-20.542969-20.542969zm0 0" fill="#cfd8dc"/><path d="m340.988281 84.929688v.121093c0 11.300781 9.246094 20.542969 20.542969 20.542969h129.925781c11.300781 0 20.542969-9.242188 20.542969-20.542969v-.121093c0-11.300782-9.242188-20.542969-20.542969-20.542969h-17.886719c-4.695312 0-7.15625-5.421875-4.207031-9.074219 2.328125-2.878906 3.941407-6.621094 3.941407-11.46875v-.125c0-11.296875-9.242188-20.539062-20.539063-20.539062h-67.199219c-11.292968 0-20.542968 9.238281-20.542968 20.539062v.125c0 3.832031 1.039062 6.976562 2.652343 9.554688 2.992188 4.785156-.242187 10.988281-5.886719 10.988281h-.257812c-11.296875 0-20.542969 9.242187-20.542969 20.542969zm0 0" fill="#eceff1"/><path d="m491.457031 64.386719h-17.886719c-4.695312 0-7.15625-5.421875-4.207031-9.074219 2.328125-2.878906 3.941407-6.621094 3.941407-11.46875v-.125c0-11.296875-9.242188-20.539062-20.539063-20.539062h-30.90625c11.296875 0 20.542969 9.242187 20.542969 20.539062v.125c0 4.847656-1.617188 8.589844-3.941406 11.46875-2.953126 3.652344-.492188 9.074219 4.203124 9.074219h17.890626c11.296874 0 20.539062 9.242187 20.539062 20.542969v.121093c0 11.300781-9.242188 20.542969-20.539062 20.542969h30.902343c11.300781 0 20.542969-9.242188 20.542969-20.542969v-.121093c0-11.300782-9.242188-20.542969-20.542969-20.542969zm0 0" fill="#cfd8dc"/></svg>