<?xml version="1.0" encoding="iso-8859-1"?>
<!-- Generator: Adobe Illustrator 19.0.0, SVG Export Plug-In . SVG Version: 6.00 Build 0)  -->
<svg version="1.1" id="Layer_1" xmlns="http://www.w3.org/2000/svg" xmlns:xlink="http://www.w3.org/1999/xlink" x="0px" y="0px"
	 viewBox="0 0 512 512" style="enable-background:new 0 0 512 512;" xml:space="preserve">
<polygon style="fill:#5374FC;" points="374.167,283.739 374.167,512 253.554,471.582 136.264,512 136.264,283.739 "/>
<polygon style="fill:#5697FC;" points="193.086,304.694 193.086,492.395 253.482,471.582 311.477,491.016 311.477,304.694 "/>
<path style="opacity:0.34;fill:#373BAE;enable-background:new    ;" d="M136.264,334.38c31.141,29.108,72.961,46.935,118.952,46.935
	c45.99,0,87.811-17.827,118.952-46.935v-67.195H136.264V334.38z"/>
<circle style="fill:#CCA400;" cx="255.21" cy="174.245" r="174.245"/>
<path style="opacity:0.09;fill:#664400;enable-background:new    ;" d="M371.166,42.797c13.012,24.406,20.398,52.267,20.398,81.856
	c0,96.232-78.011,174.244-174.243,174.244c-43.772,0-83.771-16.144-114.376-42.797c29.308,54.968,87.203,92.388,153.846,92.388
	c96.232,0,174.244-78.012,174.244-174.244C431.034,121.783,407.848,74.741,371.166,42.797z"/>
<circle style="fill:#EEBF00;" cx="255.21" cy="174.245" r="134.472"/>
<polygon style="fill:#FFDA44;" points="255.215,80.859 276.352,145.912 344.753,145.912 289.416,186.118 310.552,251.17 
	255.215,210.964 199.878,251.17 221.015,186.118 165.677,145.912 234.078,145.912 "/>
<path style="opacity:0.18;fill:#FFFFFF;enable-background:new    ;" d="M193.407,293.275l180.84-180.84
	c-12.341-24.235-31.81-44.231-55.648-57.222L136.185,237.626C149.176,261.464,169.172,280.934,193.407,293.275z"/>
<g>
</g>
<g>
</g>
<g>
</g>
<g>
</g>
<g>
</g>
<g>
</g>
<g>
</g>
<g>
</g>
<g>
</g>
<g>
</g>
<g>
</g>
<g>
</g>
<g>
</g>
<g>
</g>
<g>
</g>
</svg>
