<svg width="512" height="512" xmlns="http://www.w3.org/2000/svg" enable-background="new 0 0 512 512">
 <g>
  <title>Layer 1</title>
  <g id="svg_1">
   <path d="m159.674,168.905l280.943,0l0,122.782l-280.943,0l0,-122.782z" fill="#ba284a" id="svg_2"/>
   <path d="m444.29,286.535l7.463,58.465c5.112,40.045 -26.09,75.483 -66.46,75.483l-170.305,0c-40.37,0 -71.572,-35.438 -66.46,-75.483l7.463,-58.464" fill="#ba284a" id="svg_3"/>
   <path d="m288.986,420.483l-73.998,0c-40.373,0 -71.567,-35.438 -66.457,-75.481l7.458,-58.463l73.998,0l-7.458,58.463c-5.109,40.043 26.084,75.481 66.457,75.481z" fill="#e5244b" id="svg_4"/>
   <path d="m440.619,168.908l0,13.928l-140.465,-36.18l-140.475,36.18l0,-13.928c0,-13.341 1.865,-26.249 5.347,-38.477c1.38,-4.883 3.029,-9.663 4.914,-14.32c20.871,-51.416 71.309,-87.679 130.205,-87.679l0.01,0c58.896,0 109.333,36.262 130.205,87.679c1.885,4.656 3.534,9.436 4.924,14.33c3.47,12.229 5.335,25.127 5.335,38.467z" fill="#ffc250" id="svg_10"/>
   <path d="m342.799,35.022c-56.732,18.049 -97.826,71.165 -97.826,133.882l-85.299,0c0,-77.583 62.892,-140.475 140.475,-140.475c14.866,0 29.196,2.308 42.65,6.593z" fill="#e7a52e" id="svg_11"/>
   <g fill="#ffcbbe" id="svg_12">
    <circle stroke="null" cx="158.473" cy="258.884" r="28.80801" id="svg_13"/>
    <circle stroke="null" cx="438.315" cy="263.384" r="31.30801" id="svg_14"/>
    <circle stroke="null" cx="158.473" cy="258.884" r="28.80801" id="svg_28"/>
   </g>
   <path d="m184.068,283.88c-2.714,0 -5.347,-1.433 -6.76,-3.973c-2.375,-4.271 -6.423,-6.678 -12.375,-7.359c-5.223,-0.597 -9.787,0.455 -9.833,0.465c-4.141,0.976 -8.306,-1.576 -9.3,-5.711c-0.993,-4.135 1.522,-8.291 5.652,-9.304c0.692,-0.17 6.977,-1.635 14.657,-0.865c11.235,1.129 19.778,6.407 24.704,15.264c2.074,3.729 0.732,8.434 -2.997,10.508c-1.189,0.66 -2.478,0.975 -3.748,0.975z" fill="#eaac9d" id="svg_15"/>
   <path d="m416.22,283.88c-1.271,0 -2.559,-0.314 -3.748,-0.975c-3.729,-2.074 -5.071,-6.779 -2.997,-10.508c4.926,-8.857 13.469,-14.135 24.704,-15.264c7.677,-0.771 13.965,0.695 14.657,0.865c4.144,1.017 6.679,5.201 5.662,9.345c-1.015,4.134 -5.18,6.667 -9.314,5.67c-0.154,-0.035 -4.672,-1.056 -9.829,-0.464c-5.952,0.681 -9.999,3.089 -12.375,7.36c-1.413,2.538 -4.046,3.97 -6.76,3.971z" fill="#eaac9d" id="svg_16"/>
   <path d="m421.372,234.912l0,40.239c0,61.697 -50.015,111.713 -111.713,111.713l-19.027,0c-61.697,0 -111.723,-50.015 -111.723,-111.713l0,-40.239l6.573,-14.505l5.068,-11.157c4.584,-10.106 11.909,-18.409 20.871,-24.189c8.963,-5.779 19.553,-9.024 30.658,-9.024c24.869,0 46.832,-16.246 54.105,-40.022l3.966,-12.98l3.956,12.98c3.637,11.888 10.94,21.891 20.449,28.927s21.211,11.095 33.656,11.095c22.211,0 42.361,12.991 51.53,33.213l5.058,11.157l6.573,14.505z" fill="#ffddce" id="svg_17"/>
   <path d="m414.8,221.407l-114.649,-29.525l-114.669,29.525l5.068,-11.157c4.584,-10.106 11.909,-18.409 20.871,-24.189c8.963,-5.779 19.553,-9.024 30.658,-9.024c24.869,0 46.832,-16.246 54.105,-40.022l3.966,-12.98l3.956,12.98c3.637,11.888 10.94,21.891 20.449,28.927s21.211,11.095 33.656,11.095c22.211,0 42.361,12.991 51.53,33.213l5.059,11.157z" fill="#ffcbbe" id="svg_18"/>
   <path d="m333.637,385.279c-7.716,1.7 -15.741,2.586 -23.972,2.586l-19.037,0c-61.697,0 -111.722,-50.015 -111.722,-111.711l0,-40.238l11.641,-25.662c4.584,-10.106 11.909,-18.409 20.871,-24.188s19.553,-9.024 30.658,-9.024c1.277,0 2.544,-0.041 3.812,-0.124l0,99.236c-0.001,53.465 37.569,98.164 87.749,109.125z" fill="#ffcbbe" id="svg_19"/>
   <g fill="#2b4d66" id="svg_20">
    <path d="m242.562,237.069c-2.924,0 -5.626,1.292 -7.84,3.462l-5.109,-3.635c-3.477,-2.473 -8.301,-1.66 -10.775,1.817c-2.473,3.477 -1.66,8.301 1.817,10.775l8.393,5.971c0,0.044 -0.005,0.087 -0.005,0.132c0,10.213 6.064,18.521 13.519,18.521s13.519,-8.308 13.519,-18.521s-6.064,-18.522 -13.519,-18.522z" id="svg_21"/>
    <path d="m381.45,238.713c-2.474,-3.477 -7.298,-4.29 -10.775,-1.817l-5.109,3.635c-2.214,-2.17 -4.916,-3.462 -7.84,-3.462c-7.454,0 -13.519,8.309 -13.519,18.522s6.064,18.521 13.519,18.521s13.519,-8.308 13.519,-18.521c0,-0.045 -0.005,-0.087 -0.005,-0.132l8.393,-5.971c3.477,-2.474 4.29,-7.298 1.817,-10.775z" id="svg_22"/>
   </g>
   <path d="m259.942,218.338c-1.977,0 -3.955,-0.754 -5.463,-2.263c-2.97,-2.97 -6.917,-4.605 -11.117,-4.605s-8.147,1.635 -11.117,4.605c-3.017,3.017 -7.909,3.018 -10.927,0c-3.017,-3.017 -3.018,-7.909 0,-10.927c5.888,-5.888 13.716,-9.131 22.044,-9.131c8.327,0 16.156,3.243 22.044,9.131c3.018,3.018 3.017,7.909 0,10.927c-1.51,1.508 -3.487,2.263 -5.464,2.263z" fill="#eaac9d" id="svg_23"/>
   <path d="m374.673,218.338c-1.977,0 -3.955,-0.755 -5.463,-2.263c-2.97,-2.969 -6.918,-4.605 -11.117,-4.605c-4.2,0 -8.148,1.636 -11.118,4.605c-3.017,3.017 -7.909,3.017 -10.927,0s-3.018,-7.909 0,-10.927c12.155,-12.154 31.933,-12.155 44.088,0c3.018,3.017 3.018,7.909 0,10.927c-1.509,1.508 -3.486,2.263 -5.463,2.263z" fill="#eaac9d" id="svg_24"/>
   <path d="m300.141,314.976c-14.268,0 -27.077,-9.541 -31.15,-23.203c-1.219,-4.09 1.108,-8.393 5.197,-9.612c4.088,-1.219 8.392,1.108 9.612,5.197c2.135,7.163 8.856,12.165 16.342,12.165c7.495,0 14.214,-4.999 16.339,-12.157c1.215,-4.091 5.516,-6.422 9.606,-5.208c4.091,1.215 6.422,5.516 5.208,9.606c-4.06,13.668 -16.87,23.212 -31.154,23.212z" fill="#eaa598" id="svg_25"/>
   <path d="m440.619,168.908l0,13.928l-140.465,-36.18l-140.475,36.18l0,-13.928c0,-13.341 1.865,-26.249 5.347,-38.477l8.664,-4.11l15.453,-7.335l32.379,-15.381l15.453,-7.335l55.455,-26.331l7.716,-3.668l7.737,3.678l55.444,26.321l15.453,7.335l32.379,15.381l0.196,0.093l15.257,7.242l8.674,4.121c3.468,12.228 5.333,25.126 5.333,38.466z" fill="#e7a52e" id="svg_26"/>
   <path stroke="null" d="m454.27,157.9687l0,39.4783l-25.662,-4.40186l-15.452,-2.64617l-32.379,-5.54725l-15.453,-2.65283l-55.444,-9.5032l-7.737,-1.32309l-7.716,1.32309l-55.454,9.5032l-15.453,2.65283l-32.379,5.54725l-15.452,2.64617l-25.662,4.40186l0,-39.4783l25.662,-8.1109l15.452,-4.88171l32.379,-10.23662l15.453,-4.88105l55.454,-17.52491l7.716,-2.44052l7.737,2.44718l55.444,17.51826l15.453,4.88105l32.379,10.23662l0.195,0.06189l15.257,4.81982l25.662,8.1109z" fill="#ffc250" id="svg_27"/>
   <g stroke="null" fill="#e7a52e" id="svg_30">
    <path stroke="null" d="m189.141,142.4918l0,47.56995l-15.452,2.77125l0,-45.22874l5.239,-5.08458l10.213,-0.02788z" id="svg_31"/>
    <path stroke="null" d="m236.973,126.65954l0,54.81452l-15.453,2.77822l0,-52.48098l6.409,-6.92117l9.044,1.8094z" id="svg_32"/>
    <path stroke="null" d="m307.88,108.31322l0,63.20844l-7.737,-1.38563l-7.716,1.38563l0,-63.21541l7.716,-5.18425l7.737,5.19122z" id="svg_33"/>
    <path stroke="null" d="m426.608,147.60426l0,45.22874l-15.452,-2.77125l0,-47.56995l0.195,0.06482l8.312,-0.75345l6.945,5.80109z" id="svg_34"/>
    <path stroke="null" d="m378.777,131.77131l0,52.48098l-15.453,-2.77822l0,-54.81452l6.088,-2.52522l9.365,7.63698z" id="svg_35"/>
   </g>
   <path d="m73.299,446.843l-5.26,0c-12.759,0 -23.102,10.343 -23.102,23.102l0,18.953c0,12.759 10.343,23.102 23.102,23.102l5.26,0c12.759,0 23.102,-10.343 23.102,-23.102l0,-18.953c0,-12.759 -10.343,-23.102 -23.102,-23.102z" fill="#ffddce" id="svg_38"/>
   <path d="m81.457,510.511c-2.534,0.958 -5.285,1.483 -8.159,1.483l-5.264,0c-12.754,0 -23.097,-10.343 -23.097,-23.097l0,-18.955c0,-12.754 10.343,-23.097 23.097,-23.097l5.264,0c2.874,0 5.625,0.525 8.159,1.483c-8.726,3.297 -14.938,11.734 -14.938,21.613l0,18.955c0,9.881 6.212,18.319 14.938,21.615z" fill="#ffcbbe" id="svg_39"/>
   <g id="svg_5">
    <path d="m431.334,511l-66.756,0l-43.391,-12.795l-94.519,12.795l-57.721,0c21.18,-35.799 56.577,-62.182 98.444,-71.35c0.237,-0.052 0.484,-0.103 0.721,-0.155l0,-55.516l64.067,0l0,55.516c0.247,0.052 0.494,0.103 0.731,0.165c7.85,1.72 15.463,4.038 22.808,6.923c3.874,1.514 -2.617,13.485 1.092,15.298c3.317,1.628 16.864,-6.913 20.047,-5.058c22.449,13.114 41.239,31.801 54.477,54.177z" fill="#ffddce" id="svg_6"/>
    <path d="m332.179,383.979l0,26.321c-7.273,1.483 -14.804,2.266 -22.52,2.266l-19.027,0c-7.716,0 -15.247,-0.783 -22.52,-2.266l0,-26.321l64.067,0z" fill="#ffddce" id="svg_7"/>
    <path d="m282.208,383.979l0,55.516c-23.622,9.024 -43.608,35.5 -55.537,71.505l-57.721,0c21.304,-36.005 56.99,-62.48 99.165,-71.505l0,-55.516l14.093,0z" fill="#ffddce" id="svg_9"/>
    <path d="m379.641,458.481l0,0.01l-15.061,52.509l-137.91,0l129.185,-64.366c8.313,3.266 16.266,7.242 23.786,11.847z" fill="#38aab5" id="svg_8"/>
   </g>
  </g>
 </g>

</svg>