<svg height="512pt" viewBox="-1 0 512 512.06669" width="512pt" xmlns="http://www.w3.org/2000/svg"><path d="m481.914062 399.089844c-16.054687 1.128906-39.3125-12.496094-57.96875-35.40625-5.269531-6.542969-9.945312-13.542969-13.972656-20.914063 2.515625-8.675781.355469-35.578125 3.472656-44.066406 8.9375 4.339844 25.589844 26.105469 37.824219 27.578125 2.519531 2.605469 5.554688 6.074219 7.8125 8.765625 18.664063 22.996094 27.171875 48.511719 22.832031 64.042969zm0 0" fill="#24ae5f"/><path d="m511.15625 312.570312c-9.285156 10.675782-32.195312 16.664063-58.054688 13.972657l-1.820312-.261719c-11.390625-1.3125-22.496094-4.445312-32.890625-9.285156 1.433594-4.007813-9.070313-13.234375-7.515625-17.207032 2.300781-5.917968 16.722656-6.570312 19.316406-12.382812 8.976563-1.242188 18.066406-1.386719 27.078125-.433594 25.859375 2.6875 46.945313 13.277344 53.886719 25.597656zm0 0" fill="#4fba6f"/><path d="m459.957031 230.738281c-5.378906 8.675781-10.414062 17.527344-15.097656 26.46875-5.292969 9.890625-10.15625 19.957031-14.667969 30.199219-4.335937 9.71875-8.242187 19.609375-11.800781 29.589844-3.125 8.503906-5.902344 17.097656-8.417969 25.773437-2.429687 7.984375-4.597656 16.054688-6.507812 24.300781-34.558594-2.417968-67.460938-15.726562-93.984375-38.011718v-.085938c-.257813-1.464844-.429688-2.941406-.519531-4.425781 25.214843-41.367187 43.695312-86.476563 54.757812-133.640625 5.972656.421875 11.914062 1.203125 17.789062 2.34375 12.433594 2.164062 24.558594 5.835938 36.101563 10.933594 15.394531 6.625 29.679687 15.582031 42.347656 26.554687zm0 0" fill="#71c285"/><path d="m403.464844 367.070312c-26.0625 42.054688-45.113282 88.070313-56.40625 136.242188-13.183594-.980469-26.203125-3.515625-38.792969-7.550781 1.214844-.347657 2.519531-.691407 3.734375-1.125-7.984375-49.207031-24.90625-56.566407-16.921875-105.769531-.957031-6.074219 15.097656-53.734376 14.402344-59.808594 26.523437 22.285156 59.425781 35.59375 93.984375 38.011718zm0 0" fill="#4fba6f"/><path d="m310.695312 338.519531 1.304688 8.589844c-28.265625 9.4375-58.566406 11-87.648438 4.511719-.78125-2.777344-1.648437-5.464844-2.34375-8.242188-1.5625-5.382812-2.863281-10.761718-4.164062-16.230468-2.082031-3.382813-4.167969-6.855469-6.074219-10.324219 3.726563-39.085938 2.417969-78.488281-3.90625-117.238281 33.796875-11.285157 70.339844-11.285157 104.136719 0-6.777344 41.3125-7.796875 83.367187-3.039062 124.960937.089843 1.484375.261718 2.960937.519531 4.425781v.085938c.347656 3.210937.78125 6.335937 1.214843 9.460937zm0 0" fill="#4fba6f"/><path d="m312 494.636719c-1.214844.433593-2.519531.777343-3.734375 1.125-30.574219 9.4375-63.238281 9.742187-93.980469.871093 21.867188-6.597656-27.945312-47.210937-9.804687-62.742187-20.046875-32.457031 11.28125-30.894531 0-66.820313-1.042969-3.125 20.824219-12.324218 19.871093-15.449218 29.082032 6.488281 59.382813 4.925781 87.648438-4.511719-.523438 3.125-.957031 6.335937-1.390625 9.460937-6.566406 45.824219-6.097656 92.382813 1.390625 138.066407zm0 0" fill="#71c285"/><path d="m312 199.585938c-33.796875-11.285157-70.339844-11.285157-104.136719 0 4.386719-39.328126 6.355469-78.886719 5.902344-118.457032 0-1.734375 0-3.730468-.089844-5.464844.238281.519532.53125 1.011719.871094 1.472657 7.289063 9.632812 30.144531-20.042969 56.785156-40.265625 19.265625-14.578125 37.457031-10.238282 40.789063-22.039063-4.375 51.199219-6.371094 146.136719-.121094 184.753907zm0 0" fill="#71c285"/><path d="m131.550781 372.277344c.433594-4.601563-7.257812 3.035156-7.863281-.957032.519531-.78125 1.464844-23.429687 1.898438-24.210937-7.375-8.417969.445312-22.476563-17.085938-24.90625-11-32-25.523438-62.675781-43.300781-91.464844 26.839843-23.417969 60.609375-37.40625 96.148437-39.832031 10.367188 44.273438 27.367188 86.722656 50.421875 125.917969.519531.953125 1.125 1.996093 1.648438 2.949219 1.472656 2.515624 2.949219 4.945312 4.425781 7.375-20.859375 18.222656-46.050781 30.773437-73.15625 36.449218.78125-3.210937-13.484375 11.714844-13.136719 8.679688zm0 0" fill="#71c285"/><path d="m274.25 463.480469c-17.4375 15.140625-37.871094 26.4375-59.964844 33.152343-11.785156 3.527344-23.917968 5.769532-36.1875 6.679688-9.296875-39.640625-23.890625-77.847656-43.390625-113.59375 2.996094-5.714844 5.523438-11.664062 7.550781-17.789062.953126-2.777344 1.734376-5.554688 2.429688-8.246094v-.085938c27.105469-5.675781 52.296875-18.226562 73.15625-36.449218.691406 3.125 1.472656 6.164062 2.253906 9.289062 1.304688 5.117188 2.777344 10.152344 4.253906 15.183594 11.511719 39.367187 28.296876 76.996094 49.898438 111.859375zm0 0" fill="#4fba6f"/><path d="m161.347656 190.90625c-35.539062 2.425781-69.308594 16.414062-96.148437 39.832031-11.339844-48.199219-30.417969-94.238281-56.496094-136.332031 26.917969-23.351562 60.691406-37.328125 96.238281-39.832031 11.308594 48.195312 30.359375 94.238281 56.40625 136.332031zm0 0" fill="#4fba6f"/><path d="m312.171875 14.484375c0 .171875 0 .257813-.085937.347656-3.296876 11.800781-16.835938 28.546875-36.101563 43.128907-26.640625 20.21875-54.148437 28.808593-61.4375 19.175781-.339844-.460938-.632813-.953125-.871094-1.472657v-.089843c-4.945312-10.410157 10.5-33.234375 35.929688-52.414063 26.640625-20.21875 54.148437-28.808594 61.4375-19.265625 2.007812 3.160157 2.425781 7.078125 1.128906 10.589844zm0 0" fill="#f9eab0"/><path d="m144.6875 363.597656v.085938c-2.292969 9.039062-5.644531 17.777344-9.980469 26.035156-5.003906 9.367188-10.90625 18.234375-17.617187 26.46875-22.90625 28.289062-51.546875 45.039062-71.332032 43.648438-5.378906-19.089844 5.121094-50.503907 28.117188-78.796876 3.125-3.816406 6.25-7.375 9.546875-10.757812 29.242187-3.472656 53.195313-15.015625 62.652344-28.898438.964843 7.425782.496093 14.96875-1.386719 22.214844zm0 0" fill="#24ae5f"/><path d="m146.074219 341.382812c-.433594.78125.523437-.78125 0 0-9.457031 13.882813-33.410157 25.425782-62.652344 28.898438l-2.257813.257812c-31.847656 3.296876-59.964843-4.078124-71.417968-17.179687 8.589844-15.273437 34.539062-28.207031 66.386718-31.503906 10.765626-1.152344 21.628907-1.035157 32.367188.347656 14.414062 1.699219 27.742188 8.503906 37.574219 19.179687zm0 0" fill="#4fba6f"/><g fill="#4c8056"><path d="m403.472656 375.746094c-.226562 0-.460937 0-.683594 0-36.339843-2.582032-70.9375-16.578125-98.851562-39.988282-2.390625-1.980468-3.539062-5.089843-3.015625-8.148437s2.636719-5.609375 5.546875-6.6875c2.914062-1.078125 6.179688-.519531 8.566406 1.464844 25.167969 21.085937 56.355469 33.6875 89.105469 36.003906 4.792969.183594 8.527344 4.21875 8.34375 9.011719-.183594 4.792968-4.21875 8.527344-9.011719 8.34375zm0 0"/><path d="m347.066406 511.992188c-.21875 0-.453125 0-.675781 0-13.863281-1.035157-27.550781-3.703126-40.789063-7.949219-3.105468-.824219-5.5-3.292969-6.230468-6.421875-.726563-3.128906.332031-6.40625 2.757812-8.515625 2.421875-2.109375 5.8125-2.707031 8.8125-1.550781 11.941406 3.816406 24.289063 6.21875 36.792969 7.148437 4.792969.183594 8.53125 4.214844 8.347656 9.007813-.179687 4.792968-4.214843 8.53125-9.007812 8.347656zm0 0"/><path d="m312 208.261719c-.910156 0-1.8125-.144531-2.675781-.425781-32.066407-10.648438-66.714844-10.648438-98.78125 0-2.992188 1.136718-6.363281.53125-8.777344-1.574219-2.410156-2.101563-3.46875-5.363281-2.753906-8.480469.714843-3.121094 3.089843-5.59375 6.179687-6.433594 35.539063-11.8125 73.949219-11.8125 109.488282 0 4.03125 1.339844 6.5 5.398438 5.835937 9.59375-.664063 4.195313-4.269531 7.292969-8.515625 7.320313zm0 0"/><path d="m314.6875 355.355469c-1.386719.433593-2.6875.867187-4.078125 1.214843-16.480469 5.035157-33.617187 7.605469-50.851563 7.636719-10.898437.007813-21.769531-1.066406-32.457031-3.210937-1.039062-3.125-1.996093-6.25-2.949219-9.375-.78125-2.777344-1.648437-5.464844-2.34375-8.242188 1.367188-.476562 2.839844-.566406 4.253907-.261718 27.554687 6.132812 56.261719 4.664062 83.046875-4.25.433594-.089844.867187-.261719 1.386718-.347657 4.476563-.695312 8.730469 2.167969 9.777344 6.570313 1.042969 4.40625-1.472656 8.875-5.785156 10.265625zm0 0"/><path d="m259.828125 511.722656c-16.199219-.027344-32.316406-2.296875-47.894531-6.742187-4.480469-1.40625-7.027344-6.121094-5.753906-10.636719 1.273437-4.519531 5.914062-7.203125 10.464843-6.0625 29.15625 8.367188 60.113281 8.082031 89.105469-.824219 2.988281-.960937 6.261719-.238281 8.5625 1.894531 2.304688 2.132813 3.273438 5.34375 2.542969 8.394532-.734375 3.050781-3.058594 5.46875-6.082031 6.320312-16.511719 5.042969-33.679688 7.621094-50.945313 7.65625zm0 0"/><path d="m223.484375 333.746094c-1.128906.953125-2.257813 1.910156-3.386719 2.691406-21.289062 17.707031-46.578125 29.949219-73.675781 35.664062-.574219.101563-1.152344.160157-1.734375.175782-.824219.015625-1.644531-.101563-2.429688-.347656.953126-2.777344 1.734376-5.554688 2.429688-8.246094v-.085938c.746094-3.058594 1.296875-6.160156 1.648438-9.285156 24.398437-5.664062 47.023437-17.257812 65.867187-33.757812.347656-.339844.761719-.605469 1.214844-.78125 3.585937-2.273438 8.304687-1.527344 11.019531 1.734374 1.496094 1.75 2.238281 4.023438 2.058594 6.316407-.179688 2.296875-1.261719 4.425781-3.011719 5.921875zm0 0"/><path d="m65.199219 239.414062c-3.632813.003907-6.882813-2.253906-8.148438-5.660156-1.261719-3.40625-.269531-7.238281 2.488281-9.601562 28.261719-24.601563 63.773438-39.320313 101.152344-41.925782 2.296875-.199218 4.582032.535157 6.335938 2.039063 1.75 1.503906 2.824218 3.652344 2.972656 5.953125.191406 2.304688-.546875 4.589844-2.046875 6.347656-1.5 1.757813-3.640625 2.84375-5.945313 3.019532-33.667968 2.351562-65.65625 15.609374-91.117187 37.765624-1.585937 1.351563-3.609375 2.085938-5.691406 2.0625zm0 0"/><path d="m178.089844 511.992188c-4.792969.1875-8.832032-3.546876-9.015625-8.339844-.1875-4.792969 3.546875-8.832032 8.335937-9.015625 33.675782-2.40625 65.667969-15.648438 91.191406-37.75 3.640626-3.117188 9.121094-2.6875 12.234376.953125 3.117187 3.644531 2.6875 9.121094-.953126 12.238281-28.289062 24.519531-63.753906 39.222656-101.089843 41.914063zm0 0"/><path d="m8.703125 103.101562c-3.632813-.003906-6.875-2.265624-8.132813-5.675781-1.257812-3.40625-.257812-7.234375 2.5-9.597656 28.324219-24.511719 63.808594-39.210937 101.167969-41.90625 4.78125-.371094 8.957031 3.199219 9.328125 7.976563.375 4.777343-3.195312 8.953124-7.972656 9.328124-33.699219 2.429688-65.710938 15.6875-91.257812 37.800782-1.570313 1.34375-3.566407 2.082031-5.632813 2.074218zm0 0"/><path d="m459.957031 239.414062c-2.066406.003907-4.066406-.738281-5.640625-2.082031-12.003906-10.386719-25.527344-18.871093-40.101562-25.164062-10.949219-4.84375-22.449219-8.34375-34.242188-10.414063-5.574218-1.070312-11.207031-1.792968-16.871094-2.167968-4.792968-.34375-8.402343-4.503907-8.058593-9.296876.339843-4.792968 4.5-8.402343 9.292969-8.0625 6.316406.453126 12.601562 1.28125 18.820312 2.484376 13.085938 2.296874 25.839844 6.167968 37.992188 11.53125 16.15625 6.976562 31.144531 16.386718 44.449218 27.902343 2.761719 2.359375 3.761719 6.191407 2.5 9.601563-1.257812 3.40625-4.507812 5.671875-8.140625 5.667968zm0 0"/></g></svg>