<svg id="Capa_1" enable-background="new 0 0 512 512" height="512" viewBox="0 0 512 512" width="512" xmlns="http://www.w3.org/2000/svg"><g><g><path d="m406.428 142.609s1.321-61.552-47.567-70.529c-45.555-8.365-138.59 8.913-223.348 95.746-11.467 11.748-15.117 29.07-9.349 44.44l12.247 32.634z" fill="#4a98f7"/></g><g><path d="m338.359 125.627c-82.059 0-96.486-33.197-96.54-33.321-34.18 15.204-70.962 39.31-106.306 75.52-11.467 11.748-15.117 29.07-9.349 44.44l12.247 32.634 192.586-73.502z" fill="#4a7aff"/></g><g><path d="m353.059 136.958c-.03 0-.061 0-.092 0-4.142-.049-7.459-3.447-7.409-7.589l.28-23.481c.049-4.111 3.397-7.411 7.497-7.411h.092c4.142.049 7.459 3.447 7.409 7.589l-.28 23.481c-.049 4.112-3.398 7.411-7.497 7.411z" fill="#65b1fc"/></g><g><path d="m325.293 136.96c-3.217 0-6.19-2.086-7.174-5.323l-6.703-22.08c-1.203-3.963 1.034-8.152 4.998-9.355 3.958-1.201 8.151 1.035 9.355 4.998l6.703 22.08c1.203 3.963-1.034 8.152-4.998 9.355-.725.22-1.459.325-2.181.325z" fill="#65b1fc"/></g><g><path d="m188.514 191.169c-2.488 0-4.921-1.237-6.348-3.495l-11.783-18.651c-2.212-3.502-1.167-8.134 2.335-10.347 3.502-2.211 8.134-1.166 10.347 2.335l11.783 18.651c2.212 3.502 1.167 8.134-2.335 10.347-1.244.785-2.63 1.16-3.999 1.16z" fill="#65b1fc"/></g><g><path d="m335.262 382.719s-8.949 58.508-61.656 59.086c-34.506.379-90.924-38.123-125.775-64.759-18.498-14.138-25.54-38.725-17.36-60.523l7.94-21.158z" fill="#4a7aff"/></g><g><path d="m488.663 317.745-82.235-175.136c-19.822-10.38-42.484-16.982-68.069-16.982-74.709 0-156.656 56.268-207.715 98.577v91.857c51.059 42.309 133.005 98.577 207.715 98.577 73.715 0 123.174-54.787 150.304-96.893z" fill="#65b1fc"/></g><g><path d="m448.72 366.81c-221.769 6.438-280.588-171.598-280.589-171.6-13.705 9.843-26.333 19.751-37.487 28.994v91.857c51.059 42.309 133.005 98.577 207.715 98.577 46.126 0 82.756-21.454 110.361-47.828z" fill="#4a98f7"/></g><g><path d="m130.644 224.204c-7.096 5.88-13.6 11.492-19.4 16.644-10.739 9.539-27.588 5.458-32.933-7.874-.044-.109-.095-.216-.139-.325l1.385 76.687c.02-.056.043-.111.063-.167 4.877-13.731 22.26-18.018 33.181-8.372 5.399 4.768 11.375 9.906 17.843 15.265 0-22.964 20.644-22.964 20.644-45.929s-20.643-22.965-20.644-45.929z" fill="#4a7aff"/></g><g><path d="m21.858 181.017c-12.072 0-21.858 9.786-21.858 21.858 0 6.443.797 12.7 2.298 18.677 8.647 34.441 8.647 70.283 0 104.724-1.501 5.976-2.298 12.233-2.298 18.676 0 12.072 9.786 21.858 21.858 21.858 15.048 0 29.081-11.783 40.913-26.956 32.763-42.013 30.825-101.93-6.085-140.351-10.446-10.875-22.285-18.486-34.828-18.486z" fill="#65b1fc"/></g><g><path d="m510.123 278.728c2.502-5.463 2.502-11.728 0-17.191-10.668-23.292-44.525-87.945-103.695-118.928v92.901c0 45.417 36.818 82.235 82.235 82.235 10.394-16.131 17.516-30.404 21.46-39.017z" fill="#4a98f7"/></g><g><path d="m287.695 317.493c0 25.539 17.457 46.916 41.425 52.381 6.862 1.565 14.047-.571 19.033-5.539l36.004-35.874c6.073-6.051 6.073-15.884 0-21.935l-36.004-35.875c-4.986-4.968-12.171-7.103-19.033-5.539-23.967 5.465-41.425 26.842-41.425 52.381z" fill="#4a98f7"/></g><g><path d="m287.695 317.493c0 25.539 17.457 46.916 41.425 52.381 6.862 1.564 14.047-.571 19.033-5.539l10.708-10.67c-52.135-21.564-29.741-88.553-29.741-88.553-23.967 5.465-41.425 26.842-41.425 52.381z" fill="#4a7aff"/></g><g><g><path d="m47.198 243.266c-2.019 0-4.032-.81-5.51-2.41l-16.498-17.853c-2.811-3.042-2.624-7.787.418-10.599 3.042-2.811 7.787-2.624 10.599.418l16.498 17.853c2.811 3.042 2.624 7.787-.418 10.599-1.443 1.332-3.269 1.992-5.089 1.992z" fill="#4a7aff"/></g><g><path d="m30.696 337.414c-1.82 0-3.646-.659-5.088-1.992-3.042-2.812-3.229-7.556-.418-10.599l16.498-17.853c2.812-3.042 7.556-3.229 10.599-.418 3.042 2.812 3.229 7.556.418 10.599l-16.498 17.853c-1.479 1.6-3.492 2.41-5.511 2.41z" fill="#4a7aff"/></g><g><path d="m44.099 281.414h-9.29c-4.142 0-7.5-3.358-7.5-7.5s3.358-7.5 7.5-7.5h9.29c4.142 0 7.5 3.358 7.5 7.5s-3.358 7.5-7.5 7.5z" fill="#4a7aff"/></g></g><g><g><path d="m457.584 258.593c-4.143 0-7.5-3.358-7.5-7.5v-12.386c0-4.142 3.357-7.5 7.5-7.5s7.5 3.358 7.5 7.5v12.386c0 4.142-3.357 7.5-7.5 7.5z" fill="#636978"/></g></g><g><g><path d="m338.208 310.788c-.643 0-1.296-.083-1.946-.257l-14.955-4.007c-4.001-1.072-6.375-5.185-5.303-9.186 1.072-4 5.185-6.377 9.186-5.304l14.955 4.007c4.001 1.072 6.375 5.185 5.303 9.186-.898 3.35-3.928 5.561-7.24 5.561z" fill="#65b1fc"/></g><g><path d="m323.243 343.208c-3.312 0-6.342-2.21-7.239-5.561-1.072-4.001 1.302-8.114 5.303-9.186l14.955-4.007c4.003-1.07 8.114 1.303 9.186 5.303 1.072 4.001-1.302 8.114-5.303 9.186l-14.955 4.007c-.651.175-1.304.258-1.947.258z" fill="#65b1fc"/></g></g></g></svg>