<?xml version="1.0" encoding="iso-8859-1"?>
<!-- Generator: Adobe Illustrator 16.0.0, SVG Export Plug-In . SVG Version: 6.00 Build 0)  -->
<!DOCTYPE svg PUBLIC "-//W3C//DTD SVG 1.1//EN" "http://www.w3.org/Graphics/SVG/1.1/DTD/svg11.dtd">
<svg xmlns="http://www.w3.org/2000/svg" xmlns:xlink="http://www.w3.org/1999/xlink" version="1.1" id="Layer_1" x="0px" y="0px" width="512" height="512" viewBox="0 0 330 330" style="enable-background:new 0 0 330 330;" xml:space="preserve">
<g>
	<path style="fill:#EFC27B;" d="M315,27.684c-43.609,0-85.355,17.324-116.158,47.85C188.246,71.799,176.857,69.76,165,69.76v182.518   v50.039c29.951,0,55.462-20.785,61.968-49.369c25.108-19.191,39.958-48.84,40.104-80.629C306.614,141.123,330,93.268,330,42.684   C330,34.398,323.284,27.684,315,27.684z"/>
	<path style="fill:#FFDBAA;" d="M315,27.684c-43.609,0-85.355,17.324-116.158,47.85C188.246,71.799,176.857,69.76,165,69.76   s-23.246,2.039-33.842,5.773C100.355,45.008,58.607,27.684,15,27.684c-8.284,0-15,6.715-15,15   c0,50.58,23.383,98.432,62.921,129.629c0.145,31.793,14.999,61.445,40.112,80.635c6.51,28.588,32.021,49.369,61.967,49.369   c29.951,0,55.462-20.785,61.968-49.369c25.108-19.191,39.958-48.84,40.104-80.629C306.614,141.123,330,93.268,330,42.684   C330,34.398,323.284,27.684,315,27.684z"/>
	<path style="fill:#FFC86D;" d="M315,27.684c-43.609,0-85.355,17.324-116.158,47.85C188.246,71.799,176.857,69.76,165,69.76v182.518   v50.039c29.951,0,55.462-20.785,61.968-49.369c25.108-19.191,39.958-48.84,40.104-80.629C306.614,141.123,330,93.268,330,42.684   C330,34.398,323.284,27.684,315,27.684z"/>
	<g>
		<path style="fill:#57555D;" d="M165,252.277c-8.284,0-15,6.717-15,15v20.039c0,8.285,6.716,15,15,15s15-6.715,15-15v-20.039    C180,258.994,173.284,252.277,165,252.277z"/>
		<path style="fill:#3C3A3F;" d="M165,252.277v50.039c8.284,0,15-6.715,15-15v-20.039C180,258.994,173.284,252.277,165,252.277z"/>
	</g>
	<path style="fill:#FFA326;" d="M261.115,137.459c20.953-21.301,34.377-49.068,37.935-78.828   c-26.75,3.189-51.964,14.34-72.341,31.951C242.297,102.449,254.381,118.689,261.115,137.459z"/>
	<path style="fill:#FFAF64;" d="M103.289,90.58C82.913,72.971,57.699,61.82,30.95,58.631c3.558,29.758,16.979,57.523,37.931,78.824   C75.617,118.686,87.701,102.447,103.289,90.58z"/>
	<path style="fill:#57555D;" d="M134.999,202.322c3.95,0,7.81-1.609,10.61-4.4c2.79-2.789,4.39-6.66,4.39-10.609   c0-3.941-1.6-7.811-4.39-10.6c-2.801-2.791-6.66-4.4-10.61-4.4c-3.949,0-7.81,1.609-10.608,4.4   c-2.791,2.789-4.392,6.658-4.392,10.6c0,3.949,1.601,7.82,4.392,10.609C127.189,200.713,131.05,202.322,134.999,202.322z"/>
	<path style="fill:#3C3A3F;" d="M194.999,172.322c-3.949,0-7.81,1.6-10.608,4.391c-2.791,2.789-4.392,6.658-4.392,10.6   c0,3.949,1.601,7.82,4.392,10.609c2.799,2.791,6.659,4.4,10.608,4.4c3.95,0,7.81-1.609,10.61-4.4c2.79-2.789,4.39-6.66,4.39-10.609   c0-3.941-1.6-7.811-4.39-10.6C202.809,173.922,198.949,172.322,194.999,172.322z"/>
</g>















</svg>
