<svg height="640" preserveAspectRatio="xMidYMid meet" viewBox="0 0 640 640" width="640" xmlns="http://www.w3.org/2000/svg" xmlns:xlink="http://www.w3.org/1999/xlink"><defs><path id="a" d="m-3 648.55h647.33l5.34-98c-.45 19.56-5.78 25.33-16 17.33-15.34-12-26 27.34-44 30-12 1.78-34.67-1.55-68-10-25.78-20.44-51.78-35.11-78-44-39.34-13.33-28.67-9.33-60.67-12.66-32-3.34-109.33 26.66-159.33 44.66s-42.67 4-74 2.67c-31.34-1.33-46.67-1.33-81.34-7.33-23.11-4-49.11 1.55-78 16.66z"/><path id="b" d="m209.57 599.22c2.26 1.78 3.68 2.89 4.24 3.33 17.66 13.91 39.07 22.25 61.48 23.96 22.86 1.74 65.66 5 90.68 6.91 15.69 1.19 31.47.75 47.07-1.33 2.87-.38 10.05-1.34 21.53-2.87l15.08-14.43 6.59-2.24c12-12.44 18.89-24.89 20.67-37.33 1.77-12.45-4.45-21.34-18.67-26.67 3.11 9.33 5.56 17.33 7.33 24 2.67 10-37.33 34.24-52 42.24-14.66 8-97.33-3.33-111.33-4s-31.33-14.91-50.67-14.91c-12.89 0-21.33-6.88-25.33-20.66l-18.67 6z"/><path id="c" d="m296.24 499.88v72.67l-8-12.67-7.33 6.67v-66.67z"/><path id="d" d="m376.91 399.88 1.33 10 .67 10.67 10 1.33 2.66 10v12.67l-.66 10.67 2 10v10l10 2 2 11.33-4.67 10.67 2 14.66v15.34 12l1.33 12v12.66 10.67l3.34 10 5.33 9.33 8.67 5.34 9.33 9.33 9.33 8.67 9.34 6.66 10.66 4.67 10 4 15.34 6 12 4.67 14.66 4.66 17.34 6 10.66 3.34 13.34 3.33 10 2 14.66-6.67 11.34-4.66 11.33-4 10.67-3.34 14.66-4 13.34-5.33 9.33-4 7.33-8-2-12-1.33-11.33-2-14.67-2-10-8.24-1.33-2.43-6.67-14.66-2.67-15.34 20-10.66 3.34-6 6.66-14.67-2-11.33 1.34-10 1.33-10 .67-11.34-5.34-6.66-2.66-24-12.67 16 4.67c-8.01-3.3-13.01-5.37-15.01-6.19-6.91-2.85-13.17-7.09-18.38-12.44-.44-.45-1.53-1.58-3.28-3.37l-27.33-7.34-8-6.66-3.34-7 2-9 3.34-27.34-20.67 3.34h-6.67v-23.34l-.66-16-9.34-.66-4-14 2.67-10.67v-22l-14 2.67-4.67-21.34"/><path id="e" d="m346.57 376.18 16.34-57.81 18 57.81 21.99 30.08-79.99-1.52z"/><path id="f" d="m379.92 581.22c1.35-9.56.47-25.89-2.64-49-3.12-23.11-9.07-33.22-17.86-30.34-7.43 4.89-12.81 16-16.14 33.34-3.34 17.33-4.9 32.66-4.7 46z"/><path id="g" d="m352.26 399.88 7.98-21v-38l-6.09 38-17.24 21z"/></defs><path d="m380.91 623.88v.67z" fill="#23953f"/><use fill="#909e76" xlink:href="#a"/><use fill="none" xlink:href="#a"/><path d="m331.57 397.88h61.34v82h-61.34z" fill="#818681"/><path d="m268.91 556.55v10z" fill="#3aa454"/><path d="m256.91 520.55h24v52h-24z" fill="#959a97"/><path d="m314.91 418.55h34.66v61.33h-34.66z" fill="#909290"/><path d="m274.91 498.55h37.33v84.67h-37.33z" fill="#a9aca9"/><path d="m302.24 479.88h121.33v103.34h-121.33z" fill="#b6c1b8"/><path d="m423.57 503.88h22v68.67h-22z" fill="#a7b0a8"/><path d="m302.24 465.88h12.67v14h-12.67z" fill="#a7b0a8"/><path d="m375.57 418.55h34.67v61.33h-34.67z" fill="#909290"/><g fill="#a7b0a8"><path d="m321.57 465.88h12.67v14h-12.67z"/><path d="m341.57 465.88h12.67v14h-12.67z"/><path d="m362.91 465.88h12.66v14h-12.66z"/><path d="m386.91 465.88h12.66v14h-12.66z"/><path d="m410.91 465.88h12.66v14h-12.66z"/><path d="m331.57 489.22h2.67v92h-2.67z"/><path d="m386.91 489.22h2.66v92h-2.66z"/></g><use fill="#229aa1" xlink:href="#b"/><use fill="none" xlink:href="#b"/><path d="m343.24 591.31h34v.67h-34z" fill="#252c26" fill-opacity=".53"/><path d="m343.24 605.98h34v.66h-34z" fill="#242c25" fill-opacity=".53"/><path d="m339.57 581.22h41.34v67.33h-41.34z" fill="#928057"/><path d="m343.24 620.64h34v.67h-34z" fill="#242c25" fill-opacity=".53"/><path d="m342.39 633.41h34v.66h-34z" fill="#242c25" fill-opacity=".53"/><use fill="#716dbf" xlink:href="#c"/><use fill="none" xlink:href="#c"/><use fill="#3d413d" fill-opacity=".37" xlink:href="#d"/><use fill="none" xlink:href="#d"/><use fill="#a1a1c2" xlink:href="#e"/><use fill="none" xlink:href="#e"/><path d="m312.24 499.88h7.76v22.67h-7.76z" fill="#394270" fill-opacity=".64"/><path d="m395.69 497.88h7.76v22.67h-7.76z" fill="#39426f" fill-opacity=".64"/><path d="m321.57 429.22h15.34v30h-15.34z" fill="#39426f" fill-opacity=".64"/><path d="m386.91 429.22h15.33v30h-15.33z" fill="#39426f" fill-opacity=".64"/><path d="m354.57 418.55h15.34v17.33h-15.34z" fill="#39426f" fill-opacity=".64"/><use fill="#323337" fill-opacity=".74" xlink:href="#f"/><use fill="none" xlink:href="#f"/><path d="m339.57 579.88h2.67v68.67h-2.67z" fill="#030403" fill-opacity=".34"/><use fill="#fff" fill-opacity=".34" xlink:href="#g"/><use fill="none" xlink:href="#g"/></svg>