<?xml version="1.0" encoding="iso-8859-1"?>
<!-- Generator: Adobe Illustrator 19.0.0, SVG Export Plug-In . SVG Version: 6.00 Build 0)  -->
<svg version="1.1" id="Capa_1" xmlns="http://www.w3.org/2000/svg" xmlns:xlink="http://www.w3.org/1999/xlink" x="0px" y="0px"
	 viewBox="0 0 512 512" style="enable-background:new 0 0 512 512;" xml:space="preserve">
<path style="fill:#FCBF29;" d="M186.7,0l45,91h48.6l45-91H186.7z"/>
<polygon style="fill:#FE9923;" points="280.3,91 256,91 256,0 325.3,0 "/>
<path style="fill:#BF6015;" d="M301,61h-90c-24.901,0-45,20.099-45,45c0,24.899,20.099,45,45,45h90c24.901,0,45-20.101,45-45
	C346,81.099,325.901,61,301,61z"/>
<path style="fill:#994C10;" d="M346,106c0,24.899-20.099,45-45,45h-45V61h45C325.901,61,346,81.099,346,106z"/>
<path style="fill:#FCBF29;" d="M61,409.563h0.293H61z M466,400.099V332c0-115.8-94.2-211-210-211S46,216.2,46,332v68.099
	C27.7,410.6,16,430.399,16,452c0,32.999,27.001,60,60,60h360c32.999,0,60-27.001,60-60C496,430.399,484.3,410.6,466,400.099z"/>
<path style="fill:#FE9923;" d="M496,452c0,32.999-27.001,60-60,60H256V121c115.8,0,210,95.2,210,211v68.099
	C484.3,410.6,496,430.399,496,452z"/>
<polygon style="fill:#3C3A41;" points="226,452 136,422 106,302 196,212 279.038,334.871 "/>
<polygon style="fill:#57555C;" points="346,242 306.7,317 256,345.2 226,362 196,212 256,223.999 "/>
<polygon style="fill:#2B292C;" points="406,392 256,442.099 226,452 226,362 346,242 "/>
<g>
</g>
<g>
</g>
<g>
</g>
<g>
</g>
<g>
</g>
<g>
</g>
<g>
</g>
<g>
</g>
<g>
</g>
<g>
</g>
<g>
</g>
<g>
</g>
<g>
</g>
<g>
</g>
<g>
</g>
</svg>
