<svg height="512pt" viewBox="0 0 512 512" width="512pt" xmlns="http://www.w3.org/2000/svg"><path d="m437.019531 74.980469c-48.351562-48.351563-112.640625-74.980469-181.019531-74.980469s-132.667969 26.628906-181.019531 74.980469c-48.351563 48.351562-74.980469 112.640625-74.980469 181.019531s26.628906 132.667969 74.980469 181.019531c48.351562 48.351563 112.640625 74.980469 181.019531 74.980469s132.667969-26.628906 181.019531-74.980469c48.351563-48.351562 74.980469-112.640625 74.980469-181.019531s-26.628906-132.667969-74.980469-181.019531zm0 0" fill="#f5f6fa"/><path d="m437.019531 74.980469c-48.351562-48.351563-112.640625-74.980469-181.019531-74.980469v512c68.378906 0 132.667969-26.628906 181.019531-74.980469 48.351563-48.351562 74.980469-112.640625 74.980469-181.019531s-26.628906-132.667969-74.980469-181.019531zm0 0" fill="#c1d7f7"/><path d="m163.957031 85.03125c-44.601562 0-80.886719 36.285156-80.886719 80.886719 0 44.601562 36.285157 80.886719 80.886719 80.886719 44.601563 0 80.886719-36.285157 80.886719-80.886719 0-44.601563-36.285156-80.886719-80.886719-80.886719zm0 0" fill="#f99d4b"/><g fill="#db8a42"><path d="m181.867188 87.058594-96.773438 96.773437c2.429688 10.699219 6.980469 20.597657 13.195312 29.230469l112.808594-112.808594c-8.632812-6.214844-18.527344-10.765625-29.230468-13.195312zm0 0"/><path d="m118.832031 233.015625c8.921875 6.019531 19.109375 10.289063 30.0625 12.363281l94.519531-94.519531c-2.070312-10.957031-6.339843-21.144531-12.359374-30.066406zm0 0"/><path d="m348.042969 85.03125c44.601562 0 80.886719 36.285156 80.886719 80.886719 0 44.601562-36.285157 80.886719-80.886719 80.886719-44.601563 0-80.886719-36.285157-80.886719-80.886719 0-44.601563 36.289062-80.886719 80.886719-80.886719zm0 0"/></g><path d="m330.132812 87.058594 96.773438 96.773437c-2.429688 10.699219-6.980469 20.597657-13.195312 29.230469l-112.808594-112.808594c8.632812-6.214844 18.527344-10.765625 29.230468-13.195312zm0 0" fill="#a86a32"/><path d="m393.171875 233.015625c-8.925781 6.019531-19.109375 10.289063-30.066406 12.363281l-94.519531-94.519531c2.074218-10.957031 6.34375-21.144531 12.363281-30.066406zm0 0" fill="#a86a32"/><path d="m163.957031 265.195312c-44.601562 0-80.886719 36.285157-80.886719 80.886719 0 44.601563 36.285157 80.886719 80.886719 80.886719 44.601563 0 80.886719-36.285156 80.886719-80.886719 0-44.601562-36.285156-80.886719-80.886719-80.886719zm0 0" fill="#f99d4b"/><path d="m181.867188 267.21875-96.773438 96.773438c2.429688 10.703124 6.980469 20.597656 13.195312 29.230468l112.808594-112.808594c-8.632812-6.214843-18.527344-10.765624-29.230468-13.195312zm0 0" fill="#db8a42"/><path d="m118.832031 413.175781c8.921875 6.019531 19.109375 10.289063 30.0625 12.363281l94.519531-94.519531c-2.070312-10.953125-6.339843-21.140625-12.359374-30.0625zm0 0" fill="#db8a42"/><path d="m348.042969 265.195312c44.601562 0 80.886719 36.285157 80.886719 80.886719 0 44.601563-36.285157 80.886719-80.886719 80.886719-44.601563 0-80.886719-36.285156-80.886719-80.886719 0-44.601562 36.289062-80.886719 80.886719-80.886719zm0 0" fill="#db8a42"/><path d="m330.132812 267.21875 96.773438 96.773438c-2.429688 10.703124-6.980469 20.597656-13.195312 29.230468l-112.808594-112.808594c8.632812-6.214843 18.527344-10.765624 29.230468-13.195312zm0 0" fill="#a86a32"/><path d="m393.171875 413.175781c-8.925781 6.019531-19.109375 10.289063-30.066406 12.363281l-94.519531-94.519531c2.074218-10.953125 6.34375-21.140625 12.363281-30.0625zm0 0" fill="#a86a32"/></svg>