<?xml version="1.0" encoding="iso-8859-1"?>
<!-- Generator: Adobe Illustrator 19.0.0, SVG Export Plug-In . SVG Version: 6.00 Build 0)  -->
<svg version="1.1" id="Layer_1" xmlns="http://www.w3.org/2000/svg" xmlns:xlink="http://www.w3.org/1999/xlink" x="0px" y="0px"
	 viewBox="0 0 511.425 511.425" style="enable-background:new 0 0 511.425 511.425;" xml:space="preserve">
<path style="fill:#FFD15C;" d="M359.146,288.944l-11.733-8.533l5.333-5.333l-11.733-37.333l-68.267-54.4
	c-8.533-6.4-19.2-8.533-28.8-5.333l-64,21.333l-37.333,85.333l8.533,6.4l0,0l123.733,84.267c6.4,4.267,16,3.2,21.333-4.267
	c4.267-6.4,3.2-16-4.267-21.333l-10.667-7.467l17.067,11.733c6.4,4.267,16,3.2,21.333-4.267c4.267-6.4,3.2-16-4.267-21.333
	l5.333,4.267c6.4,4.267,16,3.2,21.333-4.267c4.267-6.4,3.2-16-4.267-21.333l5.333,4.267c6.4,4.267,16,3.2,21.333-4.267
	C368.746,302.811,366.613,293.211,359.146,288.944z"/>
<g>
	<path style="fill:#F7B64C;" d="M359.146,288.944c3.2,2.133,5.333,5.333,6.4,8.533l58.667-45.867l-52.267-66.133l-36.267,20.267
		l-51.2-18.133c-5.333-2.133-11.733-1.067-16,3.2l-33.067,30.933c-3.2,3.2-5.333,7.467-4.267,11.733
		c1.067,9.6,2.133,27.733,7.467,40.533c3.2,8.533,13.867,11.733,21.333,6.4l0,0c3.2-2.133,5.333-6.4,6.4-9.6
		c2.133-7.467,6.4-21.333,2.133-30.933l2.133-2.133c2.133-3.2,6.4-3.2,9.6-1.067L359.146,288.944z"/>
	<path style="fill:#F7B64C;" d="M198.08,299.611c5.333-7.467,2.133-18.133-6.4-21.333c-6.4-3.2-14.933-1.067-19.2,5.333
		l-14.933,22.4c-4.267,6.4-3.2,16,4.267,20.267l0,0c7.467,5.333,17.067,3.2,21.333-4.267L198.08,299.611z"/>
	<path style="fill:#F7B64C;" d="M186.346,344.411L186.346,344.411c7.467,5.333,17.067,3.2,21.333-4.267l16-24.533l0,0l5.333-7.467
		c4.267-6.4,3.2-16-3.2-21.333c-7.467-5.333-16-3.2-21.333,4.267l-5.333,8.533l0,0l-16,24.533
		C177.813,330.544,179.946,339.077,186.346,344.411z"/>
	<path style="fill:#F7B64C;" d="M242.88,310.277c-6.4-3.2-14.933-1.067-19.2,5.333l-17.067,25.6c-4.267,6.4-3.2,16,4.267,20.267l0,0
		c7.467,5.333,17.067,3.2,21.333-4.267l17.067-25.6C253.546,325.211,250.346,314.544,242.88,310.277z"/>
	<path style="fill:#F7B64C;" d="M257.813,341.211c-6.4-3.2-14.933-1.067-19.2,5.333l-7.467,11.733c-4.267,6.4-3.2,16,4.267,20.267
		l0,0c7.467,5.333,17.067,3.2,21.333-4.267l7.467-11.733C268.48,356.144,266.346,345.477,257.813,341.211z"/>
</g>
<rect x="101.015" y="174.744" transform="matrix(-0.9165 -0.4001 0.4001 -0.9165 159.6594 504.4221)" style="fill:#E8EAE9;" width="62.935" height="121.603"/>
<rect x="27.41" y="146.237" transform="matrix(-0.9165 -0.4001 0.4001 -0.9165 72.1937 468.6165)" style="fill:#415A6B;" width="115.203" height="161.071"/>
<circle style="fill:#344A5E;" cx="87.146" cy="287.877" r="10.667"/>
<rect x="347.073" y="174.797" transform="matrix(0.9165 -0.4001 0.4001 0.9165 -62.6435 171.1284)" style="fill:#E8EAE9;" width="62.935" height="121.603"/>
<rect x="368.811" y="146.375" transform="matrix(0.9165 -0.4001 0.4001 0.9165 -55.169 189.5558)" style="fill:#415A6B;" width="115.203" height="161.071"/>
<circle style="fill:#344A5E;" cx="424.213" cy="287.877" r="10.667"/>
<g>
</g>
<g>
</g>
<g>
</g>
<g>
</g>
<g>
</g>
<g>
</g>
<g>
</g>
<g>
</g>
<g>
</g>
<g>
</g>
<g>
</g>
<g>
</g>
<g>
</g>
<g>
</g>
<g>
</g>
</svg>
