<?xml version="1.0" encoding="iso-8859-1"?>
<!-- Generator: Adobe Illustrator 19.0.0, SVG Export Plug-In . SVG Version: 6.00 Build 0)  -->
<svg version="1.1" id="Capa_1" xmlns="http://www.w3.org/2000/svg" xmlns:xlink="http://www.w3.org/1999/xlink" x="0px" y="0px"
	 viewBox="0 0 472.169 472.169" style="enable-background:new 0 0 472.169 472.169;" xml:space="preserve">
<path style="fill:#CFAD9A;" d="M365.328,186.736L416.064,136h-208l52.08,52.08c5.853,5.894,5.82,15.416-0.073,21.27
	c-1.299,1.29-2.822,2.332-4.495,3.074c-68.324,31.199-98.42,111.879-67.221,180.204s111.879,98.42,180.204,67.221
	s98.42-111.879,67.221-180.204c-13.403-29.352-36.806-52.983-66.028-66.669c-8.107-3.887-11.528-13.611-7.641-21.719
	C362.917,189.577,364.005,188.048,365.328,186.736z"/>
<path style="fill:#9A615B;" d="M369.752,212.976c-8.107-3.887-11.528-13.611-7.641-21.719c0.806-1.68,1.894-3.21,3.217-4.521
	L416.064,136h-40l-50.736,50.736c-6.385,6.331-6.428,16.639-0.097,23.023c1.312,1.323,2.841,2.411,4.521,3.217
	c67.949,31.749,97.294,112.571,65.544,180.519c-19.359,41.432-58.271,70.337-103.528,76.905c1.536,0.224,3.048,0.544,4.6,0.72
	c74.568,8.714,142.082-44.671,150.796-119.238C453.958,293.742,422.772,237.781,369.752,212.976L369.752,212.976z"/>
<g>
	<path style="fill:#FFBF41;" d="M56.064,424h160v48h-160V424z"/>
	<path style="fill:#FFBF41;" d="M40.064,376h160v48h-160V376z"/>
	<path style="fill:#FFBF41;" d="M64.064,328h160v48h-160V328z"/>
	<path style="fill:#FFBF41;" d="M40.561,227.947L190.82,282.92l-16.492,45.078L24.069,273.025L40.561,227.947z"/>
</g>
<g>
	<path style="fill:#EC7422;" d="M80.064,424h16v48h-16V424z"/>
	<path style="fill:#EC7422;" d="M112.064,424h16v48h-16V424z"/>
	<path style="fill:#EC7422;" d="M144.064,424h16v48h-16V424z"/>
	<path style="fill:#EC7422;" d="M176.064,424h16v48h-16V424z"/>
	<path style="fill:#EC7422;" d="M64.064,376h16v48h-16V376z"/>
	<path style="fill:#EC7422;" d="M96.064,376h16v48h-16V376z"/>
	<path style="fill:#EC7422;" d="M128.064,376h16v48h-16V376z"/>
	<path style="fill:#EC7422;" d="M160.064,376h16v48h-16V376z"/>
	<path style="fill:#EC7422;" d="M88.064,328h16v48h-16V328z"/>
	<path style="fill:#EC7422;" d="M120.064,328h16v48h-16V328z"/>
	<path style="fill:#EC7422;" d="M152.064,328h16v48h-16V328z"/>
	<path style="fill:#EC7422;" d="M184.064,328h16v48h-16V328z"/>
	<path style="fill:#EC7422;" d="M46.584,281.333l16.512-45.072l15.024,5.504l-16.512,45.072L46.584,281.333z"/>
	<path style="fill:#EC7422;" d="M76.66,292.319l16.512-45.072l15.024,5.504l-16.512,45.072L76.66,292.319z"/>
	<path style="fill:#EC7422;" d="M106.71,303.333l16.512-45.072l15.024,5.504l-16.512,45.072L106.71,303.333z"/>
	<path style="fill:#EC7422;" d="M136.771,314.323l16.512-45.072l15.024,5.504l-16.512,45.072L136.771,314.323z"/>
</g>
<path style="fill:#EF937D;" d="M244.928,188.688c-6.247,6.016-6.435,15.957-0.419,22.205c0.137,0.142,0.277,0.282,0.419,0.419
	c3.162,3.021,7.371,4.701,11.744,4.688h110.784c4.373,0.013,8.582-1.667,11.744-4.688c6.247-6.016,6.435-15.957,0.419-22.205
	c-0.137-0.142-0.277-0.282-0.419-0.419c-3.162-3.021-7.371-4.701-11.744-4.688H256.672
	C252.299,183.987,248.09,185.667,244.928,188.688L244.928,188.688z"/>
<g>
	<path style="fill:#EC7422;" d="M120.064,80c-4.418,0-8-3.582-8-8V16c0-4.418,3.582-8,8-8s8,3.582,8,8v56
		C128.064,76.418,124.482,80,120.064,80z"/>
	<path style="fill:#EC7422;" d="M168.064,80c-4.418,0-8-3.582-8-8V8c0-4.418,3.582-8,8-8s8,3.582,8,8v64
		C176.064,76.418,172.482,80,168.064,80z"/>
	<path style="fill:#EC7422;" d="M72.064,112c-4.418,0-8-3.582-8-8V48c0-4.418,3.582-8,8-8s8,3.582,8,8v56
		C80.064,108.418,76.482,112,72.064,112z"/>
	<path style="fill:#EC7422;" d="M216.064,112c-4.418,0-8-3.582-8-8V56c0-4.418,3.582-8,8-8s8,3.582,8,8v48
		C224.064,108.418,220.482,112,216.064,112z"/>
	<path style="fill:#EC7422;" d="M216.064,32c-4.418,0-8-3.582-8-8V8c0-4.418,3.582-8,8-8s8,3.582,8,8v16
		C224.064,28.418,220.482,32,216.064,32z"/>
</g>
<circle style="fill:#FFD884;" cx="144.064" cy="144" r="88"/>
<g>
	<path style="fill:#FFBF41;" d="M144.064,137.144c-7.577,0.001-13.721-6.141-13.721-13.719s6.141-13.721,13.719-13.721
		c5.817-0.001,11.002,3.667,12.938,9.152c1.225,3.583,5.123,5.494,8.706,4.269c3.583-1.225,5.494-5.123,4.269-8.706
		c-0.015-0.044-0.03-0.088-0.046-0.131c-5.046-14.285-20.717-21.776-35.002-16.73s-21.776,20.717-16.73,35.002
		c3.873,10.965,14.239,18.297,25.868,18.296c7.577-0.001,13.721,6.141,13.721,13.719s-6.141,13.721-13.719,13.721
		c-5.817,0.001-11.002-3.667-12.938-9.152c-1.225-3.583-5.123-5.494-8.706-4.269c-3.583,1.225-5.494,5.123-4.269,8.706
		c0.015,0.044,0.03,0.088,0.046,0.131c5.046,14.285,20.717,21.776,35.002,16.73c14.285-5.046,21.776-20.717,16.73-35.002
		C166.059,144.475,155.693,137.143,144.064,137.144L144.064,137.144z"/>
	<path style="fill:#FFBF41;" d="M144.064,208c-4.418,0-8-3.582-8-8v-8c0-4.418,3.582-8,8-8s8,3.582,8,8v8
		C152.064,204.418,148.482,208,144.064,208z"/>
	<path style="fill:#FFBF41;" d="M144.064,104c-4.418,0-8-3.582-8-8v-8c0-4.418,3.582-8,8-8s8,3.582,8,8v8
		C152.064,100.418,148.482,104,144.064,104z"/>
</g>
<g>
</g>
<g>
</g>
<g>
</g>
<g>
</g>
<g>
</g>
<g>
</g>
<g>
</g>
<g>
</g>
<g>
</g>
<g>
</g>
<g>
</g>
<g>
</g>
<g>
</g>
<g>
</g>
<g>
</g>
</svg>
