<svg id="Layer_1" enable-background="new 0 0 512 512" height="512" viewBox="0 0 512 512" width="512" xmlns="http://www.w3.org/2000/svg"><g><path d="m512 256c0 141.385-116.764 228.601-258.148 228.601-119.478 0-217.691-54.45-245.924-165.136-5.176-20.294-7.928-41.558-7.928-63.465 0-141.385 114.615-256 256-256 92.22 0 173.05 48.762 218.115 121.909 24.025 38.997 37.885 84.926 37.885 134.091z" fill="#265cde"/><path d="m254.787 511.997c48.131.223 94.67-12.734 135.248-37.613 4.903-3.006 8.552-7.943 13.227-11.262 4.242-3.012 9.53-4.38 13.573-7.639 58.078-46.816 95.135-118.583 95.164-199.387.013-35.873-7.364-70.017-20.673-101.012v86.937c0 41.379-16.052 81.325-45.327 110.569-.21.21-.421.42-.632.63-5.578 5.534-13.478 8.052-21.249 6.89l-.158-.024c-13.28-1.984-22.483-14.072-21.207-27.439 1.468-15.375.261-31.022-3.676-46.133-2.245-8.618.209-17.779 6.507-24.077l41.893-41.894-20.054-20.054 58.8-56.545c-3.686-7.559-7.735-14.908-12.121-22.027l-36.146 34.76-27.704 26.642-21.948-21.948-46.678 46.678c-8.918-5.635-18.554-10.236-28.744-13.63v-73.967h-29.702v-4.317c0-28.643-23.22-51.863-51.863-51.863h-47.295c-28.597 0-51.863 23.265-51.863 51.863-.592 26.629 1.496 32.146-2.328 40.776-1.637 3.721-4.168 7.206-7.528 10.037-17.849 15.022-45.311 2.264-45.311-21.111v-29.701c0-11.986-4.08-23.01-10.909-31.791-5.7 6.302-11.085 12.894-16.142 19.743 1.773 3.64 2.772 7.726 2.772 12.048v29.701c0 14.549 6.097 27.884 15.915 37.33 33.138 31.932 87.812 7.808 87.812-37.33v-29.701c0-15.234 12.35-27.584 27.584-27.584h47.295c15.234 0 27.584 12.35 27.584 27.584v4.317h-29.703v73.967c-53.91 17.958-91.916 69.452-90.434 128.702v.001c.271 11.61 2.075 22.925 5.006 33.132h-23.95c-7.619 0-13.795 6.176-13.795 13.795v10.174c-23.588-16.968-44.26-37.736-61.117-61.408-10.327-14.501-29.186-10.995-36.975.649 13.662 53.562 44.213 100.371 85.647 134.421 4.116 3.382 9.241 3.109 13.565 6.234 4.324 3.124 7.848 9.646 12.37 12.501 39.185 24.742 85.553 39.146 135.27 39.376z" fill="#0037bd"/><g><path d="m189.69 323.576h.001z" fill="#0037bd"/><g><path d="m382.323 298.923c.025-1.015.039-2.033.039-3.055 0-16.001-2.933-31.315-8.276-45.445l51.128-51.128-57.471-57.471-45.336 45.336c-8.661-5.474-18.021-9.941-27.917-13.238v-71.839h-31.97l-22.722 74.006c-51.057 17.007-79.499 33.829-79.499 90.6 0 24.991 18.674 32.234 18.674 32.234l99.808 11.796z" fill="#fff"/></g><g><g><path d="m259.931 176.461v-74.377h-46.717v71.839c-51.057 17.007-87.872 65.174-87.872 121.946 0 1.021.013 2.04.039 3.055l28.743 6.583 24.847-6.583c-.024-1.015-.036-2.034-.036-3.055 0-54.185 33.548-100.511 80.996-119.408z" fill="#e8d6ff"/></g></g><g><path d="m178.972 298.923c-6.66 43.653 13.943 87.158 52.26 109.106 7.471 4.279 14.781 8.037 21.597 10.915 11.796 4.981 18.307 4.562 26.56 2.897 57.775-11.649 101.513-62.05 102.934-122.918z" fill="#f5415f"/></g><g><path d="m258.016 424.304c.861-.027 1.721-.058 2.578-.102.263-.014.525-.034.788-.049.863-.05 1.726-.103 2.585-.171.22-.017.439-.039.659-.058.906-.076 1.812-.156 2.713-.251.166-.017.331-.038.497-.056.955-.104 1.907-.215 2.855-.339.123-.016.245-.034.368-.051.993-.133 1.982-.276 2.968-.432.083-.013.166-.027.248-.041 1.021-.164 2.039-.338 3.052-.525l.177-.033c1.028-.191 2.051-.394 3.07-.61l.072-.015c-57.149-12.125-100.264-62.226-101.673-122.648h-53.593v.001c.024 1.015.062 2.025.109 3.033.004.079.005.159.009.237.046.951.106 1.899.173 2.844.009.135.016.271.026.406.067.908.147 1.812.233 2.714.016.17.029.341.045.512.086.869.185 1.734.288 2.597.024.202.044.406.069.608.104.834.22 1.664.34 2.494.033.229.062.459.096.688.121.807.254 1.609.39 2.411.042.248.08.496.123.743.137.781.286 1.559.437 2.335.051.265.099.531.152.795.152.757.316 1.51.481 2.262.062.28.12.562.183.842.167.737.346 1.47.526 2.203.071.29.139.581.212.87.182.719.375 1.434.569 2.148.081.299.16.599.243.898.196.701.402 1.398.61 2.094.092.307.18.615.274.922.21.684.429 1.363.649 2.042.102.315.202.631.307.944.222.666.454 1.329.687 1.99.113.321.224.643.339.963.235.651.479 1.298.724 1.944.123.325.245.652.371.975.247.636.503 1.268.76 1.899.134.329.267.66.404.988.259.621.526 1.237.794 1.853.145.333.289.666.436.998.27.606.548 1.207.827 1.808.157.337.312.674.471 1.009.281.592.57 1.179.86 1.766.167.338.333.675.502 1.011.292.578.592 1.153.893 1.727.178.339.355.678.536 1.015.302.564.611 1.124.922 1.683.189.34.378.68.57 1.019.313.551.631 1.098.952 1.644.2.34.399.68.602 1.018.322.537.65 1.071.98 1.603.211.34.421.68.635 1.017.332.525.669 1.046 1.009 1.565.221.339.443.677.667 1.013.342.513.688 1.022 1.038 1.529.231.336.463.671.697 1.005.351.5.706.996 1.064 1.491.243.336.486.671.732 1.004.359.486.721.968 1.087 1.449.253.333.508.666.764.997.367.474.739.944 1.113 1.413.264.331.53.661.797.99.374.46.752.916 1.133 1.371.276.33.553.658.832.985.382.447.767.891 1.155 1.333.287.326.575.651.864.974.389.434.781.865 1.176 1.294.297.323.596.643.897.963.396.421.795.841 1.197 1.257.309.319.619.637.931.953.402.408.807.813 1.214 1.216.319.315.641.629.964.941.408.395.819.788 1.233 1.178.33.311.663.62.997.928.415.383.832.764 1.252 1.141.339.305.681.607 1.024.908.422.371.846.741 1.272 1.106.35.3.703.597 1.056.893.427.358.856.715 1.287 1.067.361.295.725.587 1.09.878.432.345.864.688 1.301 1.028.371.289.746.574 1.12.859.438.333.877.665 1.319.993.38.281.763.559 1.146.836.444.321.889.642 1.337.958.39.275.783.545 1.177.816.448.308.897.616 1.35.919.4.268.804.531 1.207.795.453.295.906.591 1.363.881.41.261.824.517 1.238.773.457.283.915.566 1.376.844.419.252.842.5 1.265.747.462.271.923.542 1.389.807.43.245.864.485 1.298.725.464.258.929.516 1.397.768.438.236.88.466 1.321.697.471.247.941.494 1.416.735.446.226.895.446 1.344.668.475.234.949.469 1.427.697.457.218.917.43 1.377.643.476.221.952.443 1.431.657.467.21.938.412 1.408.616.479.208.957.417 1.439.62.476.2.957.392 1.436.587.481.195.96.391 1.444.581.486.19.976.373 1.465.557.483.182.966.367 1.452.544.494.179.992.351 1.488.524.487.17.972.343 1.462.507.5.168 1.004.327 1.506.489.492.158.982.32 1.477.472.51.158 1.023.306 1.536.457.491.145.981.293 1.475.432.522.147 1.048.285 1.573.426.49.131.978.266 1.47.392.532.136 1.067.262 1.601.391.491.119.98.241 1.472.354.541.124 1.086.238 1.63.355.49.106.979.216 1.471.316.551.112 1.105.213 1.658.318.491.093.979.191 1.472.278.561.099 1.127.188 1.69.28.488.08.975.165 1.465.239.573.087 1.149.162 1.724.241.486.067.971.139 1.459.201.591.075 1.186.137 1.779.203.475.053.948.113 1.424.16.619.063 1.241.112 1.863.165.456.04.91.085 1.367.12.653.049 1.311.085 1.967.125.429.026.855.059 1.285.08.746.037 1.496.06 2.245.085.343.011.683.03 1.027.038 1.095.027 2.193.042 3.295.042 1.127 0 2.25-.015 3.37-.044.262-.008.526-.022.791-.031z" fill="#cd2846"/></g><g><path d="m265.642 248.952h-23.581v-151.061c0-14.773-12.018-26.79-26.79-26.79h-45.935c-14.772 0-26.79 12.018-26.79 26.79v28.847c0 27.775-22.597 50.371-50.372 50.371s-50.371-22.596-50.371-50.371v-28.847c0-14.773-12.018-26.79-26.79-26.79h-15.013v-23.581h15.012c27.775 0 50.371 22.596 50.371 50.371v28.847c0 14.773 12.018 26.79 26.79 26.79 14.773 0 26.791-12.018 26.791-26.79v-28.847c0-27.775 22.597-50.371 50.371-50.371h45.935c27.775 0 50.371 22.596 50.371 50.371v151.061z" fill="#ffdc64"/></g><g fill="#ffc305"><path d="m128.538 127.858c-4.922 0-9.439 3.013-11.057 7.662-3.643 10.472-13.61 18.008-25.307 18.008s-21.664-7.536-25.307-18.008c-1.617-4.649-6.134-7.662-11.057-7.662-8.027 0-13.834 7.899-11.184 15.476 6.872 19.646 25.585 33.776 47.547 33.776s40.676-14.13 47.548-33.776c2.651-7.577-3.156-15.476-11.183-15.476z"/><path d="m254.014 172.477c-6.942 0-10.917-4.582-11.953-9.846v86.321h23.581v-85.021c-1.406 4.696-5.275 8.546-11.628 8.546z"/></g><g><path d="m479.592 295.868c-6.512 0-11.79-5.279-11.79-11.79v-163.733c0-.079-.095-.12-.153-.065l-147.488 141.832c-4.694 4.514-12.157 4.368-16.671-.326-4.513-4.694-4.368-12.157.326-16.671l167.603-161.176c3.877-3.727 9.861-4.414 14.545-1.423 3.475 2.218 5.418 6.202 5.418 10.324v191.238c0 6.512-5.279 11.79-11.79 11.79z" fill="#5fd2d0"/></g><path d="m426.268 157.065c-11.402 0-14.819-12.344-10.301-19.8l-112.151 107.85c-4.693 4.514-4.839 11.977-.326 16.671 4.514 4.694 11.977 4.84 16.671.326l21.661-20.83 88.083-84.706c-1.109.307-2.314.489-3.637.489z" fill="#00bec2"/><path d="m315.244 331.103h-208.263c-7.4 0-13.398 5.999-13.398 13.398v109.381c8.49 6.977 17.444 13.407 26.797 19.261v-115.244h194.865l10.961-3.571c9.929-3.235 9.658-17.375-.388-20.226z" fill="#fff"/><g fill="#f5415f"><circle cx="213.866" cy="270.942" r="15.637"/><circle cx="289.641" cy="302.503" r="15.637"/><circle cx="281.822" cy="232.051" r="7.819"/></g><path d="m403.438 331.103h-89.557v.057c6.876.574 12.28 6.327 12.28 13.351s-5.404 12.777-12.28 13.351v.037h76.158l-.004 116.485c9.349-5.757 18.299-12.027 26.801-18.902v-110.981c0-7.399-5.999-13.398-13.398-13.398z" fill="#e8d6ff"/></g></g></svg>