<?xml version="1.0" encoding="iso-8859-1"?>
<!-- Generator: Adobe Illustrator 19.0.0, SVG Export Plug-In . SVG Version: 6.00 Build 0)  -->
<svg version="1.1" id="Layer_1" xmlns="http://www.w3.org/2000/svg" xmlns:xlink="http://www.w3.org/1999/xlink" x="0px" y="0px"
	 viewBox="0 0 512 512" style="enable-background:new 0 0 512 512;" xml:space="preserve">
<path style="fill:#DBE77F;" d="M434.938,166.249c0,0-9.279,16.907-5.344,32.843s20.37,27.997,20.37,27.997
	s8.929-18.326,4.993-34.262C451.023,176.891,434.938,166.249,434.938,166.249z"/>
<path style="fill:#CED977;" d="M434.938,166.249l15.026,60.84c0,0,8.929-18.326,4.993-34.262
	C451.023,176.891,434.938,166.249,434.938,166.249z"/>
<path style="fill:#DBE77F;" d="M512,235.199c0,0-12.39-14.78-28.669-16.892c-16.278-2.113-33.479,8.829-33.479,8.829
	s13.84,14.968,30.118,17.08C496.248,246.329,512,235.199,512,235.199z"/>
<path style="fill:#CED977;" d="M512,235.199l-62.148-8.063c0,0,13.84,14.968,30.118,17.08C496.248,246.329,512,235.199,512,235.199z
	"/>
<path style="fill:#DBE77F;" d="M436.365,291.308h-13.23c0-35.529,15.044-68.789,39.259-86.797l7.894,10.616
	C449.366,230.687,436.365,259.879,436.365,291.308z"/>
<path style="fill:#DCDCDE;" d="M171.188,134.057c15.797-59.327,44.745-103.628,44.745-103.628
	c37.928,84.917,109.729,74.203,130.938,169.834v139.67L171.188,207.487V134.057z"/>
<path style="fill:#F5F6F6;" d="M381.595,185.443c-40.718,0-62.667,54.952-66.001,63.991c-1.714-15.898-8.537-32.462-23.333-51.368
	c-41.186-52.627-151.017-61.175-233.39-114.406c0,0-16.88,68.193,24.381,126.608c0,0.001,10.819,136.539,104.023,165.491
	l-0.258,0.253c0,0-52.639,24.445-187.017-3.886c0,0,93.738,152.406,282.567,97.524c134.182-38.999,111.01-205.067,165.479-225.882
	C431.91,219.989,424.3,185.443,381.595,185.443z"/>
<circle style="fill:#7A7A7C;" cx="387.918" cy="235.019" r="10.492"/>
<path style="fill:#DBE77F;" d="M507.27,176.966c0,0-19.248-1.218-32.002,9.115c-12.754,10.332-16.692,30.335-16.692,30.335
	s20.383,0.298,33.138-10.035C504.467,196.048,507.27,176.966,507.27,176.966z"/>
<path style="fill:#CED977;" d="M507.27,176.966l-48.695,39.45c0,0,20.383,0.298,33.138-10.035
	C504.467,196.048,507.27,176.966,507.27,176.966z"/>
<g>
</g>
<g>
</g>
<g>
</g>
<g>
</g>
<g>
</g>
<g>
</g>
<g>
</g>
<g>
</g>
<g>
</g>
<g>
</g>
<g>
</g>
<g>
</g>
<g>
</g>
<g>
</g>
<g>
</g>
</svg>
