<svg height="512pt" viewBox="0 -87 512 512" width="512pt" xmlns="http://www.w3.org/2000/svg"><g fill="#efa66f"><path d="m250.527344 204.054688c-.757813 0-1.53125-.113282-2.292969-.351563-4.078125-1.261719-6.355469-5.59375-5.089844-9.667969 2.082031-6.71875-3.222656-11.648437-3.277343-11.699218-3.195313-2.824219-3.496094-7.710938-.671876-10.90625 2.828126-3.199219 7.710938-3.496094 10.910157-.671876 4.792969 4.238282 11.828125 14.871094 7.800781 27.855469-1.03125 3.3125-4.082031 5.441407-7.378906 5.441407zm0 0"/><path d="m290.699219 204.054688c-.757813 0-1.527344-.113282-2.289063-.351563-4.078125-1.265625-6.359375-5.59375-5.09375-9.667969 2.085938-6.722656-3.222656-11.648437-3.273437-11.699218-3.199219-2.824219-3.5-7.710938-.671875-10.90625 2.828125-3.199219 7.710937-3.5 10.910156-.671876 4.789062 4.238282 11.824219 14.871094 7.796875 27.855469-1.027344 3.3125-4.082031 5.441407-7.378906 5.441407zm0 0"/><path d="m331.53125 204.054688c-.757812 0-1.527344-.113282-2.289062-.351563-4.078126-1.265625-6.359376-5.59375-5.09375-9.667969 2.085937-6.722656-3.21875-11.648437-3.273438-11.699218-3.199219-2.824219-3.5-7.710938-.671875-10.90625 2.828125-3.199219 7.710937-3.5 10.910156-.671876 4.792969 4.238282 11.828125 14.871094 7.796875 27.855469-1.027344 3.3125-4.082031 5.441407-7.378906 5.441407zm0 0"/><path d="m372.65625 202.003906c-.757812 0-1.53125-.113281-2.292969-.347656-4.074219-1.265625-6.355469-5.59375-5.089843-9.671875 2.085937-6.71875-3.222657-11.648437-3.273438-11.695313-3.199219-2.828124-3.5-7.710937-.671875-10.910156 2.828125-3.195312 7.710937-3.496094 10.910156-.667968 4.789063 4.234374 11.824219 14.871093 7.796875 27.851562-1.027344 3.316406-4.082031 5.441406-7.378906 5.441406zm0 0"/><path d="m460.351562 187.367188c-.757812 0-1.527343-.113282-2.289062-.347657-4.078125-1.265625-6.359375-5.59375-5.09375-9.671875 2.082031-6.71875-3.222656-11.648437-3.277344-11.695312-3.195312-2.824219-3.496094-7.710938-.667968-10.910156 2.824218-3.195313 7.710937-3.496094 10.90625-.667969 4.792968 4.234375 11.828124 14.871093 7.800781 27.851562-1.027344 3.316407-4.082031 5.441407-7.378907 5.441407zm0 0"/><path d="m417.996094 197.636719c-.757813 0-1.53125-.113281-2.292969-.351563-4.074219-1.261718-6.355469-5.59375-5.089844-9.667968 2.082031-6.71875-3.222656-11.648438-3.277343-11.695313-3.195313-2.824219-3.496094-7.710937-.667969-10.910156 2.824219-3.195313 7.710937-3.496094 10.90625-.667969 4.792969 4.234375 11.828125 14.867188 7.800781 27.851562-1.027344 3.316407-4.082031 5.441407-7.378906 5.441407zm0 0"/><path d="m430.691406 253.753906c-.660156-.375-1.273437-.851562-1.820312-1.4375-2.914063-3.117187-2.75-8.003906.367187-10.921875 5.136719-4.804687 2.96875-11.714843 2.945313-11.78125-1.378906-4.042969.777344-8.433593 4.816406-9.8125 4.039062-1.378906 8.429688.78125 9.8125 4.820313 2.0625 6.050781 2.910156 18.773437-7.019531 28.0625-2.53125 2.371094-6.238281 2.703125-9.101563 1.070312zm0 0"/><path d="m386.117188 256.324219c-.660157-.375-1.273438-.855469-1.820313-1.4375-2.914063-3.121094-2.753906-8.007813.363281-10.925781 5.140625-4.804688 2.96875-11.714844 2.949219-11.78125-1.378906-4.039063.777344-8.433594 4.816406-9.8125 4.039063-1.378907 8.429688.78125 9.808594 4.820312 2.066406 6.054688 2.914063 18.773438-7.015625 28.0625-2.53125 2.371094-6.238281 2.703125-9.101562 1.074219zm0 0"/><path d="m344.226562 257.363281c-.65625-.375-1.273437-.851562-1.816406-1.4375-2.917968-3.117187-2.753906-8.007812.363282-10.921875 5.136718-4.804687 2.96875-11.714844 2.945312-11.78125-1.378906-4.042968.777344-8.433594 4.816406-9.8125 4.042969-1.378906 8.433594.78125 9.8125 4.820313 2.0625 6.050781 2.910156 18.773437-7.015625 28.058593-2.535156 2.375-6.242187 2.707032-9.105469 1.074219zm0 0"/><path d="m303.175781 255.039062c-.65625-.375-1.269531-.855468-1.816406-1.4375-2.914063-3.117187-2.753906-8.007812.363281-10.921874 5.140625-4.808594 2.96875-11.71875 2.945313-11.785157-1.375-4.039062.78125-8.429687 4.820312-9.808593 4.039063-1.378907 8.429688.777343 9.808594 4.816406 2.066406 6.054687 2.914063 18.777344-7.015625 28.0625-2.53125 2.371094-6.238281 2.707031-9.105469 1.074218zm0 0"/><path d="m263.003906 248.382812c-.660156-.375-1.273437-.855468-1.816406-1.4375-2.917969-3.121093-2.753906-8.007812.363281-10.921874 5.136719-4.808594 2.96875-11.71875 2.945313-11.785157-1.378906-4.039062.777344-8.429687 4.816406-9.808593 4.042969-1.382813 8.433594.777343 9.8125 4.816406 2.0625 6.054687 2.910156 18.777344-7.015625 28.0625-2.535156 2.371094-6.242187 2.707031-9.105469 1.074218zm0 0"/></g><path d="m474.015625 248.273438c-6.253906 25.007812-23.398437 44.976562-45.613281 55.394531-3.175782 1.484375-6.875 1.285156-9.851563-.546875l-19.277343-11.933594c-3.484376-2.152344-7.996094.175781-8.265626 4.257812l-.730468 11.28125c-.175782 2.710938-2.433594 4.8125-5.140625 4.8125h-105.347657l-73.90625 20.007813c-19.566406 5.296875-39.453124 7.082031-58.886718 5.636719-5.832032-.433594-11.625-1.152344-17.351563-2.164063-46.53125-8.179687-88.996093-35.011719-116.21875-76.246093-10.148437-15.375.960938-35.886719 19.394531-35.886719h165.640626c12.015624 0 23.917968 2.53125 34.808593 7.5625 18.492188 8.5625 48.765625 18.75 121.921875 18.75 40.484375 0 85.769532-3.585938 110.839844-9.117188 4.875-1.070312 9.203125 3.339844 7.984375 8.191407zm0 0" fill="#f4bc8e"/><path d="m192.269531 248.65625c-4.214843 4.707031-10.234375 7.398438-16.507812 7.398438-4.183594 0-8.273438-1.207032-11.859375-3.492188l-18.085938-11.191406c-13.167968 12.816406-39.679687 17.527344-60.285156 17.527344h-.1875c-9.28125 0-18.429688-1.359376-27.210938-4.050782-16.105468-4.933594-29.984374-13.960937-41.050781-25.832031 4.03125-3.75 9.460938-6.128906 15.734375-6.128906h163.953125l.949219 8.675781c.691406 6.328125-1.238281 12.394531-5.449219 17.09375zm0 0" fill="#efa66f"/><path d="m228.386719 178.609375c-32.1875 0-45.074219 13.316406-45.074219 34.996094l2.113281 19.304687c.898438 8.132813-8.058593 13.648438-14.921875 9.195313l-23.175781-14.34375c-2.457031-1.703125-5.917969-1.097657-7.464844 1.457031-6.007812 9.925781-27.921875 17.316406-54.335937 17.316406-7.925782.015625-15.910156-1.101562-23.769532-3.511718-48.125-14.746094-73.421874-71.453126-56.503906-126.660157 14.90625-48.644531 57.613282-79.859375 100.476563-76.511719 3.585937.28125 7.175781-.414062 10.429687-1.949218 3.363282-1.585938 6.871094-2.902344 10.507813-3.925782 4.707031-1.320312 7.109375-6.734374 4.707031-10.992187-6.113281-10.832031 2.441406-24.03125 14.789062-22.9179688l246.410157 21.0351558c54.425781 4.902344 100.875 41.195313 118.859375 92.667969.527344 1.515625.691406 3.144531.472656 4.734375-4.640625 33.441406-92.421875 60.105469-200.03125 60.105469zm0 0" fill="#fbdbb7"/><path d="m313.820312 80.378906c9.125 13.972656 7.238282 32.144532-4.519531 43.992188-10.652343 10.738281-25.269531 17.363281-41.398437 17.363281-13.152344 0-25.292969-4.402344-35.105469-11.847656-8.839844-6.707031-14.636719-16.546875-17.226563-27.335938-3.90625-16.289062-13.460937-30.382812-26.476562-40.105469-3.449219-2.574218-3.40625-7.761718.066406-10.304687 17.316406-12.675781 45.472656-16.292969 73.925782-7.5 22.648437 6.988281 40.703124 20.367187 50.734374 35.738281zm0 0" fill="#f4bc8e"/><path d="m312.605469 120.519531c-.988281 1.347657-2.09375 2.636719-3.308594 3.851563-10.652344 10.738281-25.265625 17.363281-41.398437 17.363281-13.148438 0-25.285157-4.402344-35.105469-11.847656-8.832031-6.710938-14.632813-16.550781-17.21875-27.339844-3.90625-16.289063-13.46875-30.382813-26.480469-40.101563-3.453125-2.574218-3.414062-7.757812.070312-10.300781 2.957032-2.164062 6.222657-4.0625 9.757813-5.679687.113281 1.761718.96875 3.472656 2.535156 4.648437 13.015625 9.714844 22.578125 23.8125 26.480469 40.101563 2.585938 10.789062 8.386719 20.628906 17.21875 27.335937 9.820312 7.449219 21.957031 11.847657 35.105469 11.847657 11.941406 0 23.058593-3.625 32.34375-9.878907zm0 0" fill="#efa66f"/><path d="m453.480469 95.234375c-9.640625 13.410156-33.589844 17.199219-57.128907 8.113281-21.253906-8.203125-35.691406-24.363281-36.964843-39.507812 11.375-11.179688 34.089843-13.746094 56.476562-5.121094 19.957031 7.699219 34.140625 22.179688 37.617188 36.515625zm0 0" fill="#f4bc8e"/><path d="m452.808594 96.117188c-10.035156 12.695312-33.445313 16.105468-56.453125 7.226562-21.257813-8.203125-35.691407-24.359375-36.972657-39.507812 3.535157-3.472657 8.171876-6.117188 13.550782-7.851563 2.03125 14.726563 16.21875 30.140625 36.816406 38.085937 15.601562 6.027344 31.382812 6.398438 43.058594 2.046876zm0 0" fill="#efa66f"/><path d="m154.8125 89.730469c-14.601562-14.601563-35.277344-17.601563-46.175781-6.699219-10.902344 10.902344-7.90625 31.578125 6.695312 46.175781 14.601563 14.601563 35.277344 17.601563 46.179688 6.699219 10.902343-10.902344 7.902343-31.574219-6.699219-46.175781zm0 0" fill="#f4bc8e"/><path d="m161.140625 136.261719c-10.992187 10.480469-31.363281 7.390625-45.800781-7.058594-14.609375-14.597656-17.609375-35.269531-6.707032-46.167969 4.140626-4.144531 9.707032-6.277344 15.816407-6.535156-.125.113281-.246094.238281-.363281.351562-10.898438 10.898438-7.902344 31.570313 6.710937 46.171876 9.035156 9.046874 20.410156 13.640624 30.34375 13.238281zm0 0" fill="#efa66f"/><path d="m148.921875 295.382812-9.644531 21.472657 7.71875 20.328125c-5.832032-.433594-11.621094-1.152344-17.351563-2.164063l-4.84375-12.734375-16.988281-7.632812c-3.898438-1.742188-5.636719-6.316406-3.886719-10.210938 1.75-3.898437 6.328125-5.636718 10.210938-3.886718l12.910156 5.800781 7.78125-17.308594c1.738281-3.886719 6.316406-5.628906 10.210937-3.886719 3.894532 1.753906 5.636719 6.328125 3.882813 10.222656zm0 0" fill="#efa66f"/><path d="m175.871094 317.804688c-4.265625 0-7.75-3.457032-7.75-7.726563s3.433594-7.730469 7.703125-7.730469h.046875c4.269531 0 7.730468 3.460938 7.730468 7.730469s-3.460937 7.726563-7.730468 7.726563zm0 0" fill="#efa66f"/><path d="m75.734375 176.558594c-4.269531 0-7.75-3.457032-7.75-7.726563s3.4375-7.726562 7.703125-7.726562h.046875c4.269531 0 7.726563 3.457031 7.726563 7.726562s-3.457032 7.726563-7.726563 7.726563zm0 0" fill="#f4bc8e"/></svg>