<?xml version="1.0" encoding="iso-8859-1"?>
<!-- Generator: Adobe Illustrator 19.0.0, SVG Export Plug-In . SVG Version: 6.00 Build 0)  -->
<svg version="1.1" id="Capa_1" xmlns="http://www.w3.org/2000/svg" xmlns:xlink="http://www.w3.org/1999/xlink" x="0px" y="0px"
	 viewBox="0 0 512 512" style="enable-background:new 0 0 512 512;" xml:space="preserve">
<polygon style="fill:#F0303E;" points="326.367,157.395 326.367,354.605 438.203,381.838 438.203,130.162 "/>
<g>
	<polygon style="fill:#FF515E;" points="346.383,177.411 438.203,130.162 256,0 235.984,132.859 	"/>
	<polygon style="fill:#FF515E;" points="235.984,379.141 256,512 438.203,381.838 346.383,334.589 	"/>
</g>
<polygon style="fill:#FF8891;" points="256,112.843 235.984,256 256,399.157 346.383,334.589 346.383,177.411 "/>
<polygon style="fill:#FFC9CC;" points="145.601,157.395 145.601,354.605 256,399.157 256,112.843 "/>
<g>
	<polygon style="fill:#FF8891;" points="165.617,334.589 114.591,331 73.797,381.838 256,512 256,399.157 	"/>
	<polygon style="fill:#FF8891;" points="256,112.843 256,0 73.797,130.162 114.591,182.333 165.617,177.411 	"/>
</g>
<polygon style="fill:#FF515E;" points="165.617,177.411 73.797,130.162 73.797,381.838 165.617,334.589 "/>
<g>
</g>
<g>
</g>
<g>
</g>
<g>
</g>
<g>
</g>
<g>
</g>
<g>
</g>
<g>
</g>
<g>
</g>
<g>
</g>
<g>
</g>
<g>
</g>
<g>
</g>
<g>
</g>
<g>
</g>
</svg>
