<?xml version="1.0" encoding="iso-8859-1"?>
<!-- Generator: Adobe Illustrator 19.0.0, SVG Export Plug-In . SVG Version: 6.00 Build 0)  -->
<svg version="1.1" id="Layer_1" xmlns="http://www.w3.org/2000/svg" xmlns:xlink="http://www.w3.org/1999/xlink" x="0px" y="0px"
	 viewBox="0 0 512.001 512.001" style="enable-background:new 0 0 512.001 512.001;" xml:space="preserve">
<g>
	<ellipse style="fill:#E0E0E0;" cx="346.6" cy="383.56" rx="32.356" ry="32.336"/>
	<ellipse style="fill:#E0E0E0;" cx="327.913" cy="348.34" rx="32.357" ry="32.337"/>
</g>
<path id="SVGCleanerId_0" style="fill:#FFD6BB;" d="M256.926,31.706c-69.523,0.257-125.889,55.536-125.879,123.541
	c0,20.737,0,41.477,0,62.215c-0.003,67.917,56.283,139.503,125.88,139.681c69.597-0.178,125.881-71.764,125.88-139.681
	c0-20.739,0-41.478,0-62.215C382.813,87.241,326.448,31.963,256.926,31.706z"/>
<path style="fill:#0853A4;" d="M266.388,357.752c-5.203-1.503-13.716-1.503-18.919,0L85.311,404.614
	c-5.203,1.505-9.46,7.176-9.46,12.605v84.91c0,5.43,4.43,9.872,9.844,9.872h342.462c5.414,0,9.844-4.441,9.844-9.872v-84.91
	c0-5.429-4.256-11.101-9.46-12.605L266.388,357.752z"/>
<path style="opacity:0.1;enable-background:new    ;" d="M109.315,397.677l-24.004,6.937c-5.203,1.505-9.46,7.176-9.46,12.605v84.91
	c0,5.43,4.43,9.872,9.844,9.872h23.619V397.677H109.315z"/>
<rect x="192.84" y="412.359" style="fill:#BA0D0D;" width="124.344" height="99.641"/>
<g>
	<path id="SVGCleanerId_0_1_" style="fill:#FFD6BB;" d="M256.926,31.706c-69.523,0.257-125.889,55.536-125.879,123.541
		c0,20.737,0,41.477,0,62.215c-0.003,67.917,56.283,139.503,125.88,139.681c69.597-0.178,125.881-71.764,125.88-139.681
		c0-20.739,0-41.478,0-62.215C382.813,87.241,326.448,31.963,256.926,31.706z"/>
</g>
<g>
	<path style="fill:#F4CAB3;" d="M150.735,238.419v22.523l13.348,13.362c1.555,1.556,3.592,2.333,5.63,2.333
		c2.035,0,4.071-0.777,5.625-2.328c3.109-3.106,3.112-8.145,0.005-11.254L150.735,238.419z"/>
	<path style="fill:#F4CAB3;" d="M363.118,246.802l-22.15,22.174c-3.106,3.11-3.104,8.15,0.006,11.256
		c1.553,1.551,3.589,2.327,5.624,2.327c2.037,0,4.077-0.778,5.63-2.333l10.889-10.901V246.802z"/>
</g>
<g>
	<path style="fill:#84674F;" d="M259.132,263.311c-13.525,0-24.529-10.343-24.529-23.056v-40.509c0-4.396,3.563-7.959,7.959-7.959
		s7.959,3.562,7.959,7.959v40.509c0,3.937,3.864,7.139,8.612,7.139c4.003,0,7.54-2.359,8.413-5.607
		c1.139-4.246,5.506-6.764,9.749-5.625c4.246,1.139,6.764,5.503,5.624,9.75C280.169,256.155,270.389,263.311,259.132,263.311z"/>
	<path style="fill:#84674F;" d="M196.075,231.202c-4.395,0-7.959-3.562-7.959-7.959v-18.297c0-4.396,3.563-7.959,7.959-7.959
		c4.395,0,7.959,3.562,7.959,7.959v18.297C204.033,227.639,200.47,231.202,196.075,231.202z"/>
	<path style="fill:#84674F;" d="M317.78,231.202c-4.395,0-7.959-3.562-7.959-7.959v-18.297c0-4.396,3.563-7.959,7.959-7.959
		c4.395,0,7.959,3.562,7.959,7.959v18.297C325.739,227.639,322.175,231.202,317.78,231.202z"/>
	<path style="fill:#84674F;" d="M288.561,192.819c-2.591,0-5.133-1.264-6.661-3.594c-2.411-3.675-1.387-8.608,2.288-11.02
		c25.052-16.439,48.148-9.926,60.314,0.646c3.317,2.883,3.671,7.91,0.787,11.228c-2.882,3.316-7.91,3.67-11.228,0.786
		c-7.97-6.925-23.527-10.912-41.14,0.646C291.573,192.396,290.058,192.819,288.561,192.819z"/>
	<path style="fill:#84674F;" d="M221.514,192.819c-1.498,0-3.013-0.422-4.359-1.305c-17.615-11.559-33.171-7.573-41.14-0.646
		c-3.319,2.883-8.345,2.53-11.228-0.786c-2.883-3.318-2.531-8.345,0.787-11.228c12.165-10.572,35.261-17.088,60.314-0.646
		c3.675,2.412,4.699,7.345,2.288,11.02C226.646,191.555,224.105,192.819,221.514,192.819z"/>
	<path style="fill:#84674F;" d="M295.376,297.859h-68.909c-4.395,0-7.959-3.562-7.959-7.959s3.563-7.959,7.959-7.959h68.909
		c4.395,0,7.959,3.562,7.959,7.959S299.772,297.859,295.376,297.859z"/>
</g>
<path style="fill:#E0E0E0;" d="M430.507,177.545c1.73-4.12,2.687-8.645,2.687-13.396c0-16.967-12.2-31.067-28.282-33.985
	c1.73-4.119,2.687-8.645,2.687-13.397c0-18.258-14.129-33.2-32.021-34.452C358.25,34.527,311.671,0.202,256.926,0
	C202.21,0.202,155.652,34.488,138.303,82.232c-18.774,0.297-33.902,15.639-33.902,34.535c0,4.752,0.957,9.278,2.687,13.397
	c-16.082,2.918-28.282,17.019-28.282,33.985c0,4.751,0.957,9.275,2.687,13.396c-16.082,2.918-28.282,17.019-28.282,33.985
	c0,17.979,13.699,32.746,31.201,34.39c1.609,13.408,11.292,24.319,24.037,27.696c-0.018,0.438-0.033,0.878-0.033,1.321
	c0,18.078,14.613,32.731,32.641,32.731c6.824,0,13.156-2.101,18.395-5.692c-3.135-4.37-6.043-8.913-8.715-13.591V155.247
	c-0.01-56.996,47.621-93.111,106.189-93.368c58.565,0.257,106.198,36.373,106.194,93.365v133.151
	c-2.839,4.968-5.949,9.783-9.308,14.401c4.98,3.086,10.848,4.872,17.133,4.872c18.027,0,32.641-14.653,32.641-32.731
	c0-0.444-0.016-0.883-0.033-1.321c12.745-3.377,22.428-14.288,24.036-27.696c17.502-1.645,31.202-16.412,31.202-34.39
	C458.788,194.564,446.588,180.463,430.507,177.545z"/>
<path style="fill:#F4E9DF;" d="M317.654,355.515c0,5.428-4.43,9.871-9.844,9.871H203.15c-5.414,0-9.844-4.442-9.844-9.871v-5.923
	c0-5.43,4.43-9.871,9.844-9.871H307.81c5.414,0,9.844,4.441,9.844,9.871V355.515z"/>
<path style="fill:#FFF7EE;" d="M317.189,380.715c0,5.429-4.43,9.871-9.844,9.871H202.686c-5.414,0-9.844-4.442-9.844-9.871v-5.923
	c0-5.428,4.43-9.871,9.844-9.871h104.659c5.415,0,9.844,4.442,9.844,9.871V380.715z"/>
<path style="fill:#F4E9DF;" d="M317.189,405.393c0,5.428-4.43,9.871-9.844,9.871H202.686c-5.414,0-9.844-4.443-9.844-9.871v-5.923
	c0-5.428,4.43-9.871,9.844-9.871h104.659c5.415,0,9.844,4.442,9.844,9.871V405.393z"/>
<g>
	<path style="fill:#AAB0B5;" d="M305.074,44.32c-4.395,0-7.959,3.562-7.959,7.959v15.919c5.556,1.826,10.877,4.031,15.917,6.599
		V52.278C313.033,47.882,309.469,44.32,305.074,44.32z"/>
	<path style="fill:#AAB0B5;" d="M255.999,36.774c-4.395,0-7.959,3.562-7.959,7.959v17.47c2.931-0.198,5.893-0.31,8.885-0.324
		c2.363,0.011,4.707,0.086,7.032,0.211V44.732C263.958,40.337,260.395,36.774,255.999,36.774z"/>
	<path style="fill:#AAB0B5;" d="M206.925,44.32c-4.395,0-7.959,3.562-7.959,7.959v23.484c5.028-2.688,10.349-5.009,15.917-6.941
		V52.278C214.884,47.882,211.32,44.32,206.925,44.32z"/>
</g>
<path style="fill:#0853A4;" d="M306.462,372.056c-5.415,0-9.844,4.442-9.844,9.871V512h36.166c5.415,0,9.844-4.441,9.844-9.872
	V372.056H306.462z"/>
<path style="fill:#D8B26B;" d="M304.236,389.599c0-5.429,4.429-9.872,9.844-9.872h28.548v-9.872c0-5.429-4.43-9.871-9.844-9.871
	h-38.392c-5.415,0-9.844,4.442-9.844,9.871v132.272c0,5.43,4.43,9.872,9.844,9.872h9.844L304.236,389.599L304.236,389.599z"/>
<path style="fill:#0853A4;" d="M209.474,372.056c5.414,0,9.844,4.442,9.844,9.871V512h-36.166c-5.415,0-9.844-4.441-9.844-9.872
	V372.056H209.474z"/>
<path style="fill:#D8B26B;" d="M211.7,389.599c0-5.429-4.429-9.872-9.844-9.872h-28.548v-9.872c0-5.429,4.43-9.871,9.844-9.871
	h38.392c5.414,0,9.844,4.442,9.844,9.871v132.272c0,5.43-4.43,9.872-9.844,9.872H211.7L211.7,389.599L211.7,389.599z"/>
<g>
</g>
<g>
</g>
<g>
</g>
<g>
</g>
<g>
</g>
<g>
</g>
<g>
</g>
<g>
</g>
<g>
</g>
<g>
</g>
<g>
</g>
<g>
</g>
<g>
</g>
<g>
</g>
<g>
</g>
</svg>
