<svg height="512pt" viewBox="-112 0 512 512" width="512pt" xmlns="http://www.w3.org/2000/svg"><path d="m35.105469 51.488281h218.417969v101.410157h-218.417969zm0 0" fill="#ffd993"/><path d="m71.511719 51.488281h182.011719v101.410157h-182.011719zm0 0" fill="#ffe7c0"/><path d="m288.628906 13.4375v49.046875c0 7.425781-6.011718 13.4375-13.425781 13.4375h-261.773437c-7.417969 0-13.429688-6.011719-13.429688-13.4375v-49.046875c0-7.425781 6.011719-13.4375 13.429688-13.4375h261.773437c7.414063 0 13.425781 6.011719 13.425781 13.4375zm0 0" fill="#c97e67"/><path d="m288.628906 13.4375v38.050781h-232.34375c-7.417968 0-13.429687-6.023437-13.429687-13.4375v-38.050781h232.347656c7.414063 0 13.425781 6.011719 13.425781 13.4375zm0 0" fill="#d29380"/><path d="m266.878906 451.429688-21.539062 52.976562c-1.875 4.597656-6.335938 7.59375-11.296875 7.59375h-179.453125c-4.960938 0-9.425782-2.996094-11.296875-7.59375l-21.542969-52.976562zm0 0" fill="#f29500"/><path d="m145.875 98.285156h-28.605469c-4.304687 0-7.800781 3.496094-7.800781 7.804688 0 4.304687 3.496094 7.800781 7.800781 7.800781h28.605469c4.308594 0 7.800781-3.496094 7.800781-7.800781 0-4.308594-3.492187-7.804688-7.800781-7.804688zm31.207031 0c-4.308593 0-7.800781 3.496094-7.800781 7.804688 0 4.304687 3.492188 7.800781 7.800781 7.800781h76.441407v-15.605469zm0 0" fill="#ffcd71"/><path d="m288.628906 164.046875v283.503906c0 15.632813-12.667968 28.3125-28.300781 28.3125h-232.023437c-15.636719 0-28.304688-12.679687-28.304688-28.3125v-283.503906c0-15.632813 12.667969-28.3125 28.304688-28.3125h232.023437c15.632813 0 28.300781 12.679687 28.300781 28.3125zm0 0" fill="#ffc14f"/><path d="m288.628906 164.046875v243.832031c0 15.632813-12.667968 28.3125-28.300781 28.3125h-195.617187c-15.636719 0-28.304688-12.679687-28.304688-28.3125v-272.144531h223.921875c15.632813 0 28.300781 12.679687 28.300781 28.3125zm0 0" fill="#ffcd71"/><path d="m121.804688 204.4375h-42.796876c-4.875 0-9.378906 2.601562-11.8125 6.820312l-21.398437 37.066407c-2.4375 4.21875-2.4375 9.417969 0 13.636719l25.335937 43.882812h58.546876l29.273437-50.699219-25.335937-43.886719c-2.4375-4.21875-6.941407-6.820312-11.8125-6.820312zm0 0" fill="#ffa90b"/><path d="m209.625 255.144531h-50.671875l-29.273437 50.703125 29.273437 50.703125h50.671875c4.871094 0 9.375-2.597656 11.8125-6.820312l21.398438-37.0625c2.4375-4.21875 2.4375-9.417969 0-13.640625l-21.398438-37.0625c-2.4375-4.21875-6.941406-6.820313-11.8125-6.820313zm0 0" fill="#ffb52d"/><path d="m129.734375 305.75h-58.546875l-25.335938 43.882812c-2.433593 4.222657-2.433593 9.421876 0 13.640626l21.398438 37.066406c2.4375 4.21875 6.941406 6.816406 11.8125 6.816406h42.796875c4.875 0 9.378906-2.597656 11.8125-6.816406l25.335937-43.886719zm0 0" fill="#f29500"/></svg>