<?xml version="1.0" encoding="iso-8859-1"?>
<!-- Generator: Adobe Illustrator 19.0.0, SVG Export Plug-In . SVG Version: 6.00 Build 0)  -->
<svg version="1.1" id="Layer_1" xmlns="http://www.w3.org/2000/svg" xmlns:xlink="http://www.w3.org/1999/xlink" x="0px" y="0px"
	 viewBox="0 0 512.001 512.001" style="enable-background:new 0 0 512.001 512.001;" xml:space="preserve">
<path style="fill:#2F3F4A;" d="M436.884,45.82c0.397-2.608-1.623-4.958-4.262-4.958h-31.435c-21.028,0-40.137,12.202-48.955,31.261
	l-68.468,147.981h50.052L391.31,85.191h39.574L436.884,45.82z"/>
<path style="fill:#804836;" d="M340.899,462.33l-2.857,14.975c-0.337,1.783-1.792,3.065-3.477,3.065h-33.663
	c-2.315,0-4.125-2.168-3.904-4.674l1.881-23.629l11.826-148.704l44.478-21.316l-30.875,163.938
	c-0.089,0.472-0.097,0.945-0.018,1.406c0.168,1.127,0.798,2.129,1.748,2.718l13.13,8.076
	C340.508,459.016,341.209,460.682,340.899,462.33z"/>
<path style="fill:#3F5666;" d="M340.899,462.33l-2.857,14.975c-0.337,1.783-1.792,3.065-3.477,3.065h-33.663
	c-2.315,0-4.125-2.168-3.904-4.674l1.881-23.629l25.413-4.674c0.168,1.127,0.798,2.129,1.748,2.718l13.13,8.076
	C340.508,459.016,341.209,460.682,340.899,462.33z"/>
<path style="fill:#804836;" d="M205.505,321.77l-40.951,67.505c-0.716,1.181-1.955,1.947-3.332,2.061l-21.134,1.746v52.162
	c0,1.336,0.693,2.578,1.831,3.28l15.661,9.668c0.929,0.574,1.572,1.514,1.767,2.587l3.082,16.896
	c0.432,2.367-1.388,4.545-3.794,4.545h-37.982c-2.133,0-3.861-1.727-3.861-3.859V372.337l11.978-65.022L205.505,321.77z"/>
<g>
	<path style="fill:#3F5666;" d="M158.635,482.221h-37.981c-2.133,0-3.861-1.725-3.861-3.855v-26.558l24.14-4.163
		c0.271,0.347,0.599,0.636,0.984,0.877l15.665,9.665c0.927,0.578,1.574,1.522,1.766,2.592l3.079,16.893
		C162.863,480.043,161.038,482.221,158.635,482.221z"/>
	<path style="fill:#3F5666;" d="M106.179,241.391H88.175c-26.542,0-50.167,16.798-58.846,41.841L0.118,361.506
		c-0.38,1.018,0.194,2.142,1.242,2.434l0,0l0,0c20.313,0,38.486-12.603,45.578-31.605l18.767-50.285l25.825-0.419L106.179,241.391z"
		/>
</g>
<path style="fill:#B8674D;" d="M512.001,93.658v23.234c0,13.954-11.619,27.919-25.405,25.672
	c-29.651-4.831-58.57,14.109-58.57,14.109s7.366,104.958-15.588,147.217c-13.022,23.973-20.675,138.002-20.675,138.002
	c0.057,0.472,0.203,0.925,0.415,1.33c0.26,0.502,0.627,0.935,1.081,1.281l20.029,15.236c1.216,0.925,1.766,2.476,1.41,3.961
	l-3.291,13.713c-0.415,1.735-1.959,2.958-3.754,2.958h-35.984c-1.969,0-3.697-1.349-4.15-3.277l-5.405-26.144l-1.554-104.654
	c-0.444-1.869-76.793,6.794-103.151-20.252c-47.331-7.25-95.824,10.962-96.243,11.357l-56.369,52.26
	c-0.791,0.732-1.834,1.137-2.915,1.137h-18.6c-2.365,0-4.276,1.918-4.276,4.269v52.25c0,0.694,0.173,1.369,0.492,1.965
	c0.28,0.559,0.695,1.06,1.216,1.445l9.893,7.41c0.782,0.588,1.351,1.436,1.583,2.371l3.649,14.57c0.666,2.689-1.362,5.29-4.141,5.29
	H56.581c-2.356,0-4.266-1.907-4.266-4.259V366.85c0-1.657,0.956-3.161,2.451-3.864l12.181-13.693
	c1.496-0.703,2.451-2.207,2.451-3.855v-58.07c0-34.73,25.867-64.036,60.365-68.411l194.695-17.515l63.999-137.929h36.017
	c7.394,0,14.469,2.949,19.671,8.172l6.023,6.061c5.203,5.223,12.287,8.162,19.662,8.162h34.411
	C508.526,85.91,512.001,89.379,512.001,93.658z"/>
<g>
	<path style="fill:#91523D;" d="M354.526,184.496l56.136-120.981h-22.204l-63.101,135.995l8.969-0.807
		C343.114,197.911,350.814,192.496,354.526,184.496z"/>
	<path style="fill:#91523D;" d="M389.341,477.093l-5.405-26.144l-1.399-90.914c-0.088-5.73-4.817-10.297-10.55-10.19
		c-3.231,0.061-7.085,0.122-11.374,0.117l1.499,100.987l5.405,26.144c0.453,1.927,2.182,3.277,4.15,3.277h21.825
		C391.522,480.37,389.795,479.021,389.341,477.093z"/>
	<path style="fill:#91523D;" d="M74.139,476.111V366.85c0-1.657,0.956-3.161,2.451-3.864l12.181-13.693
		c1.496-0.703,2.451-2.207,2.451-3.855v-58.07c0-30.334,21.447-59.592,49.861-69.429l-11.32,1.019
		c-34.497,4.375-60.365,33.68-60.365,68.411v58.07c0,1.648-0.956,3.151-2.451,3.855l-12.181,13.693
		c-1.496,0.703-2.451,2.207-2.451,3.864v109.261c0,2.352,1.91,4.259,4.266,4.259h21.825
		C76.049,480.37,74.139,478.463,74.139,476.111z"/>
</g>
<g>
	<path style="fill:#3F5666;" d="M91.696,480.37H56.581c-2.365,0-4.266-1.908-4.266-4.269V453.32l27.181-4.038
		c0.28,0.559,0.695,1.06,1.216,1.445l9.893,7.41c0.782,0.588,1.351,1.436,1.583,2.371l3.649,14.57
		C96.502,477.768,94.475,480.37,91.696,480.37z"/>
	<path style="fill:#3F5666;" d="M414.697,463.699l-3.291,13.713c-0.415,1.735-1.959,2.958-3.754,2.958h-35.984
		c-1.969,0-3.697-1.349-4.15-3.277l-5.405-26.144l30.067-7.729c0.26,0.502,0.627,0.935,1.081,1.281l20.029,15.236
		C414.503,460.663,415.054,462.215,414.697,463.699z"/>
</g>
<circle style="fill:#804836;" cx="437.635" cy="92.641" r="8.084"/>
<path style="fill:#B8674D;" d="M388.457,63.514l6.258-21.258c2.178-7.397,8.97-12.476,16.685-12.476l0,0
	c1.86,0,3.35,1.542,3.284,3.4l-1.077,30.585c-0.178,5.056-2.895,9.442-6.903,11.954c-3.673,2.302-8.518,1.285-11.053-2.229
	L388.457,63.514z"/>
<path style="fill:#91523D;" d="M396.397,56.608l2.929-11.035c1.1-4.147,4.534-6.995,8.434-6.995l0,0c0.94,0,1.694,0.864,1.66,1.906
	l-0.544,17.148c-0.092,2.906-1.533,5.417-3.643,6.805c-1.825,1.203-4.192,0.556-5.435-1.353l-3.151-4.845
	C396.342,57.766,396.249,57.165,396.397,56.608z"/>
<g>
</g>
<g>
</g>
<g>
</g>
<g>
</g>
<g>
</g>
<g>
</g>
<g>
</g>
<g>
</g>
<g>
</g>
<g>
</g>
<g>
</g>
<g>
</g>
<g>
</g>
<g>
</g>
<g>
</g>
</svg>
