<?xml version="1.0" encoding="iso-8859-1"?>
<!-- Generator: Adobe Illustrator 19.0.0, SVG Export Plug-In . SVG Version: 6.00 Build 0)  -->
<svg version="1.1" id="Layer_1" xmlns="http://www.w3.org/2000/svg" xmlns:xlink="http://www.w3.org/1999/xlink" x="0px" y="0px"
	 viewBox="0 0 460 460" style="enable-background:new 0 0 460 460;" xml:space="preserve">
<g id="XMLID_494_">
	<polygon id="XMLID_495_" style="fill:#FFC052;" points="430.64,218.571 430.64,428.571 310.32,428.571 230,258.571 210,218.571 	
		"/>
	<polygon id="XMLID_496_" style="fill:#F9D4A0;" points="230,218.571 230,258.571 150.32,428.571 30,428.571 30,218.571 	"/>
	<polygon id="XMLID_497_" style="fill:#3C261B;" points="300.32,268.571 280.32,428.571 230,428.571 200,268.571 	"/>
	<polygon id="XMLID_498_" style="fill:#762916;" points="230,268.571 230,428.571 180.32,428.571 160.32,268.571 	"/>
	<rect id="XMLID_500_" x="130.32" y="258.571" style="fill:#967151;" width="200" height="35"/>
	<rect id="XMLID_501_" x="150.32" y="293.571" style="fill:#CB9851;" width="30" height="135"/>
	<rect id="XMLID_502_" x="280.32" y="293.571" style="fill:#CB9851;" width="30" height="135"/>
	<path id="XMLID_503_" style="fill:#FAA241;" d="M230,31.429L190,130l40,98.571h230C420.769,121.578,333.741,43.838,230,31.429z"/>
	<path id="XMLID_504_" style="fill:#FFC052;" d="M0,228.571h230V31.429C126.259,43.838,39.231,121.578,0,228.571z"/>
	<rect id="XMLID_505_" x="161.275" y="168.571" style="fill:#FAA241;" width="30" height="30"/>
	<rect id="XMLID_506_" x="121.275" y="118.571" style="fill:#FAA241;" width="30" height="30"/>
	<rect id="XMLID_507_" x="308.725" y="118.571" style="fill:#FFC052;" width="30" height="30"/>
</g>
<g>
</g>
<g>
</g>
<g>
</g>
<g>
</g>
<g>
</g>
<g>
</g>
<g>
</g>
<g>
</g>
<g>
</g>
<g>
</g>
<g>
</g>
<g>
</g>
<g>
</g>
<g>
</g>
<g>
</g>
</svg>
