<?xml version="1.0" encoding="iso-8859-1"?>
<!-- Generator: Adobe Illustrator 19.0.0, SVG Export Plug-In . SVG Version: 6.00 Build 0)  -->
<svg version="1.1" id="Layer_1" xmlns="http://www.w3.org/2000/svg" xmlns:xlink="http://www.w3.org/1999/xlink" x="0px" y="0px"
	 viewBox="0 0 511.998 511.998" style="enable-background:new 0 0 511.998 511.998;" xml:space="preserve">
<g>
	<path style="fill:#484B54;" d="M345.318,366.353l-75.17,21.682l-104.03-21.682v-0.846c16.614-14.66,27.115-36.112,27.115-60.019
		c0-6.52-0.784-12.852-2.257-18.913c-3.877-15.966-12.539-30.062-24.388-40.688l88.735-27.966l88.563,27.966
		c-11.849,10.616-20.522,24.712-24.398,40.688c-1.473,6.06-2.257,12.392-2.257,18.913
		C317.231,329.865,328.14,351.662,345.318,366.353z"/>
	<path style="fill:#484B54;" d="M220.151,142.167l35.172,75.755L8.238,182.75C2.93,170.293,0,156.582,0,142.167H220.151z"/>
</g>
<g>
	<rect x="126.882" y="366.358" style="fill:#92949B;" width="257.672" height="37.219"/>
	<path style="fill:#92949B;" d="M220.15,108.42v74.329H8.238c11.156,26.215,32.801,46.911,59.672,56.79
		c12.879-8.871,28.488-14.062,45.305-14.062c20.508,0,39.211,7.723,53.367,20.403h53.566v0.008H374.51
		c3.49,0,6.949-0.125,10.376-0.387c71.074-5.308,127.112-64.648,127.112-137.08H220.15V108.42z"/>
</g>
<g>
	<path style="fill:#B5B6BA;" d="M440.968,108.42l-56.08,137.08c-3.427,0.261-6.886,0.387-10.376,0.387h-92.181l56.236-137.467
		H440.968z"/>
	<polygon style="fill:#B5B6BA;" points="367.073,366.353 351.848,403.572 249.448,403.572 264.673,366.353 	"/>
</g>
<path style="fill:#383A42;" d="M343.886,245.887c-11.849,10.616-20.522,24.712-24.398,40.688H190.976
	c-3.877-15.966-12.539-30.062-24.388-40.688L343.886,245.887L343.886,245.887z"/>
<g>
</g>
<g>
</g>
<g>
</g>
<g>
</g>
<g>
</g>
<g>
</g>
<g>
</g>
<g>
</g>
<g>
</g>
<g>
</g>
<g>
</g>
<g>
</g>
<g>
</g>
<g>
</g>
<g>
</g>
</svg>
