<?xml version="1.0" encoding="iso-8859-1"?>
<!-- Generator: Adobe Illustrator 19.0.0, SVG Export Plug-In . SVG Version: 6.00 Build 0)  -->
<svg version="1.1" id="Layer_1" xmlns="http://www.w3.org/2000/svg" xmlns:xlink="http://www.w3.org/1999/xlink" x="0px" y="0px"
	 viewBox="0 0 512.082 512.082" style="enable-background:new 0 0 512.082 512.082;" xml:space="preserve">
<g transform="translate(-1)">
	<path style="fill:#DD342E;" d="M257.041,158.964c0,0-24.276-26.483-70.621-26.483c0,0-1.633-0.071-4.493,0.026
		c-35.637,1.209-69.491,20.268-83.783,52.939c0,0-14.618,38.065,0,61.793l52.966,79.448h105.931V158.964z"/>
	<g>
		<path style="fill:#B12621;" d="M98.145,247.24c-14.618-23.72,0-61.793,0-61.793c2.145-4.899,4.846-9.384,7.812-13.656
			c-5.358-1.642-13.409-3.257-25.468-3.999c-11.449-0.706-24.523,2.278-34.401,8.104c-18.3,10.796-45.047,33.112-45.047,71.345
			c0,0-4.14,79.448,70.621,79.448h79.448l-8.828-13.241L98.145,247.24z"/>
		<path style="fill:#B12621;" d="M257.041,158.964c0,0,24.276-26.483,70.621-26.483c0,0,1.633-0.071,4.493,0.026
			c35.637,1.209,69.491,20.268,83.783,52.939c0,0,14.618,38.065,0,61.793l-52.966,79.448H257.041V158.964z"/>
	</g>
	<path style="fill:#DD342E;" d="M415.938,247.24c14.618-23.72,0-61.793,0-61.793c-2.145-4.899-4.846-9.384-7.812-13.656
		c5.358-1.642,13.409-3.257,25.468-3.999c11.449-0.706,24.523,2.278,34.401,8.104c18.3,10.796,45.047,33.112,45.047,71.345
		c0,0,4.14,79.448-70.621,79.448h-79.448l8.828-13.241L415.938,247.24z"/>
	<g>
		<path style="fill:#BA941C;" d="M495.386,361.972H18.696c-9.754,0-17.655-7.901-17.655-17.655c0-9.755,7.901-17.655,17.655-17.655
			h476.69c9.754,0,17.655,7.901,17.655,17.655C513.041,354.072,505.14,361.972,495.386,361.972"/>
		<path style="fill:#BA941C;" d="M495.386,503.214H18.696c-9.754,0-17.655-7.901-17.655-17.655c0-9.755,7.901-17.655,17.655-17.655
			h476.69c9.754,0,17.655,7.901,17.655,17.655C513.041,495.313,505.14,503.214,495.386,503.214"/>
	</g>
	<polygon style="fill:#F0C419;" points="27.524,467.903 486.558,467.903 486.558,361.972 27.524,361.972 	"/>
	<g>
		<path style="fill:#BA941C;" d="M221.731,423.765H151.11c-4.873,0-8.828-3.955-8.828-8.828s3.955-8.828,8.828-8.828h70.621
			c4.873,0,8.828,3.955,8.828,8.828S226.604,423.765,221.731,423.765"/>
		<path style="fill:#BA941C;" d="M362.972,423.765h-70.621c-4.873,0-8.828-3.955-8.828-8.828s3.955-8.828,8.828-8.828h70.621
			c4.873,0,8.828,3.955,8.828,8.828S367.845,423.765,362.972,423.765"/>
		<path style="fill:#BA941C;" d="M265.869,414.938c0,4.873-3.955,8.828-8.828,8.828s-8.828-3.955-8.828-8.828
			s3.955-8.828,8.828-8.828S265.869,410.065,265.869,414.938"/>
		<path style="fill:#BA941C;" d="M451.248,423.765h-17.655c-4.873,0-8.828-3.955-8.828-8.828s3.955-8.828,8.828-8.828h17.655
			c4.873,0,8.828,3.955,8.828,8.828S456.121,423.765,451.248,423.765"/>
		<path style="fill:#BA941C;" d="M407.11,414.938c0,4.873-3.955,8.828-8.828,8.828c-4.873,0-8.828-3.955-8.828-8.828
			s3.955-8.828,8.828-8.828C403.155,406.11,407.11,410.065,407.11,414.938"/>
		<path style="fill:#BA941C;" d="M80.489,423.765H62.834c-4.873,0-8.828-3.955-8.828-8.828s3.955-8.828,8.828-8.828h17.655
			c4.873,0,8.828,3.955,8.828,8.828S85.362,423.765,80.489,423.765"/>
		<path style="fill:#BA941C;" d="M106.972,414.938c0-4.873,3.955-8.828,8.828-8.828c4.873,0,8.828,3.955,8.828,8.828
			s-3.955,8.828-8.828,8.828C110.927,423.765,106.972,419.811,106.972,414.938"/>
	</g>
	<path style="fill:#F0C419;" d="M257.041,70.662l-40.704,65.792c26.606,7.336,40.483,22.272,40.678,22.484h0.053
		c0.194-0.212,14.071-15.148,40.678-22.484L257.041,70.662z"/>
	<g>
		<path style="fill:#BA941C;" d="M257.041,88.317c-4.873,0-8.828-3.955-8.828-8.828V17.696c0-4.873,3.955-8.828,8.828-8.828
			s8.828,3.955,8.828,8.828v61.793C265.869,84.362,261.914,88.317,257.041,88.317"/>
		<path style="fill:#BA941C;" d="M283.524,53.007h-52.966c-4.873,0-8.828-3.955-8.828-8.828s3.955-8.828,8.828-8.828h52.966
			c4.873,0,8.828,3.955,8.828,8.828S288.397,53.007,283.524,53.007"/>
	</g>
</g>
<g>
</g>
<g>
</g>
<g>
</g>
<g>
</g>
<g>
</g>
<g>
</g>
<g>
</g>
<g>
</g>
<g>
</g>
<g>
</g>
<g>
</g>
<g>
</g>
<g>
</g>
<g>
</g>
<g>
</g>
</svg>
