<svg height="512pt" viewBox="-145 0 512 512.00065" width="512pt" xmlns="http://www.w3.org/2000/svg"><path d="m140.773438 449.308594c.03125-3.914063-2.3125-7.65625-7.148438-10.445313-10.597656-6.121093-29.105469-5.351562-41.34375 1.714844-6.667969 3.847656-10.089844 8.769531-10.117188 13.445313h-.007812l.007812 43.234374c-.097656 3.976563 2.246094 7.78125 7.148438 10.613282 10.597656 6.117187 29.109375 5.351562 41.347656-1.714844 6.757813-3.902344 10.183594-8.910156 10.113282-13.644531l.007812-43.203125zm0 0" fill="#447111"/><path d="m63.496094 2.882812s16.609375 11.648438 23.726562 62.367188c7.113282 50.71875-51.144531 148.726562-51.144531 148.726562s-9.421875-98.523437-3.511719-134.761718c5.914063-36.238282 23.558594-66.824219 30.929688-76.332032zm0 0" fill="#447111"/><path d="m109.414062.140625s24.675782-5.226563 43.179688 47.976563c17.101562 49.171874 68.53125 196.699218 68.535156 254.273437.007813 68.539063-17.59375 140.207031-100.75 156.265625-71.28125 13.765625-119.253906-54.832031-118.570312-118.570312.6875-63.738282 44.753906-236.46875 57.574218-268.667969 14.394532-36.152344 21.816407-70.203125 50.03125-71.277344zm0 0" fill="#ffe14d"/><path d="m220.519531 290.273438c-6.34375 11.675781-18.125 22.800781-34.242187 32.109374-.871094.5-1.761719.976563-2.644532 1.460938.101563-13.234375-.359374-28.847656-1.695312-47.011719.308594-.175781.632812-.339843.9375-.515625 13.347656-7.707031 23.847656-16.855468 30.898438-26.734375-1.269532-5.851562-2.675782-11.898437-4.1875-18.089843-4.089844 11.339843-14.105469 22.367187-28.78125 31.652343-1.363282-14.808593-3.28125-31.125-5.917969-49.097656 10.425781-6.265625 18.636719-13.503906 24.417969-21.238281-1.535157-5.410156-3.109376-10.84375-4.714844-16.277344-3.4375 8.511719-10.890625 16.890625-21.75 24.207031-2.15625-13.535156-4.703125-27.941406-7.695313-43.242187 7.804688-5.402344 13.886719-11.738282 17.9375-18.441406-2.25-7.09375-4.492187-14.050782-6.699219-20.804688.828126 8.375-4.414062 17.886719-13.929687 25.820312-2.941406-14.332031-6.265625-29.40625-10.007813-45.261718 5.441407-3.621094 9.960938-7.734375 13.445313-12.066406-1.8125-5.34375-3.542969-10.421876-5.175781-15.167969-1.640625 4.667969-5.667969 9.757812-11.378906 14.273437-3.03125-12.425781-6.308594-25.292968-9.859376-38.644531 3.855469-2.546875 7.0625-5.433594 9.515626-8.542969-2.230469-5.363281-4.519532-9.96875-6.820313-13.953125-.035156.378907-.082031.765625-.179687 1.167969-.683594 2.808594-2.824219 5.785156-5.964844 8.5l-.4375-1.601562c-3.882813-14.273438-10.261719-24.269532-16.511719-31.140626-5.800781-2.292968-9.664063-1.492187-9.664063-1.492187-6.210937.234375-11.414062 2.074219-15.90625 5.175781-5.457031 8.070313-11.25 18.425782-16.777343 31.691406-1.207031-1.386718-2.042969-3.023437-2.121094-4.902343-1.992187 4.515625-3.898437 9.355469-5.8125 14.414062.972656.953125 2.042969 1.863281 3.21875 2.71875-2.167969 6.105469-4.265625 12.695313-6.242187 19.851563-1.101563 3.984375-2.808594 10.6875-4.925782 19.515625-2.375-2.597657-4.179687-5.890625-4.117187-9.859375-1.601563 4.734375-3.460938 10.671875-5.503907 17.585937 1.8125 2.070313 3.949219 4.023438 6.4375 5.804688-3.03125 13.148437-6.570312 29.15625-10.296874 47.09375-4.121094-3.835938-6.5625-8.097657-7.257813-12.632813-1.503906 5.769532-3.035156 11.75-4.582031 17.90625 2.480468 2.96875 5.496094 5.742188 9.070312 8.242188-2.875 14.253906-5.808594 29.46875-8.660156 45.203125-4.492188-2.96875-8.128906-6.257813-10.863281-9.78125-1.09375 4.800781-2.171875 9.617187-3.234375 14.441406 3.242187 2.902344 6.949218 5.601563 11.148437 8.027344.203125.117187.421875.226562.628907.34375-2.855469 16.351562-5.582032 33.132812-8.03125 49.890625-5.476563-3.378906-9.953126-7.121094-13.402344-11.132813-.9375 4.984375-1.828125 9.894531-2.664063 14.707031 3.476563 2.972657 7.433594 5.757813 11.855469 8.308594.765625.441406 1.558594.859375 2.34375 1.28125-2.117188 15.460938-3.957031 30.792969-5.40625 45.640625-.042969-.023437-.085938-.042969-.128906-.070312-5.960938-3.441407-10.941406-7.246094-14.972656-11.328125-.5625 5.5-.976563 10.632812-1.199219 15.316406 3.058593 2.355469 6.375 4.601562 10.003906 6.695312 1.648437.953126 3.359375 1.855469 5.097656 2.734376-1.441406 17.484374-2.253906 34.101562-2.230469 49.234374-1.445312-.921874-2.800781-1.871093-4.113281-2.835937 4.398438 11.550781 10.335938 22.449219 17.636719 32.074219-.324219-2.941406-.609375-5.96875-.820312-9.15625 18.503906 7.179687 40.441406 10.730468 63.171874 10.730468 3.820313 0 7.667969-.121093 11.519532-.320312 1.246094 12.960938 2.691406 25.503906 4.328125 37.566406 3.992187-.191406 8.074219-.652344 12.234375-1.390625-1.625-11.914062-3.050782-24.335937-4.285156-37.152343 16.382812-1.742188 32.679687-5.253907 47.925781-10.523438-3.113281 14.65625-6.835938 27.027344-10.832031 37.464844 5.902343-2.746094 11.335937-5.867188 16.324218-9.332032 3.054688-9.855468 5.839844-20.929687 8.179688-33.46875 5.652344-2.464843 11.105468-5.183593 16.289062-8.175781 5.53125-3.195312 10.601563-6.617187 15.222656-10.214843 3.082032-7.808594 5.53125-15.984376 7.441407-24.402344-6.761719 8.660156-16.527344 16.828125-28.835938 23.933594-2.488281 1.4375-5.058593 2.792968-7.667969 4.101562 2.296876-15.703125 3.933594-33.371094 4.683594-53.238281 3.125-1.539063 6.191406-3.140625 9.15625-4.851563 11.558594-6.671875 21.183594-14.320312 28.589844-22.550781.058594-2.710937.09375-5.417969.09375-8.125.007812-3.683594-.207031-7.742187-.605469-12.117187zm-142.855469-217.894532c1.75-6.339844 3.597657-12.203125 5.496094-17.648437 5.082032 1.648437 10.710938 2.570312 16.539063 2.78125-.652344 13.496093-1.300781 28.101562-1.894531 43.5625-9.613282-.1875-18.753907-1.871094-26.152344-5.136719 2.296875-9.523438 4.34375-17.519531 6.011718-23.558594zm-8.886718 35.71875c8.472656 3.382813 18.320312 5.171875 28.570312 5.417969-.578125 16.230469-1.085937 33.292969-1.484375 50.914063-13.914062-.164063-27.125-2.828126-37.628906-8 3.691406-17.929688 7.292969-34.324219 10.542969-48.332032zm-13.066406 60.765625c11.605468 5.082031 25.453124 7.695313 39.894531 7.894531-.289063 14.972657-.492188 30.296876-.585938 45.816407-17.410156.082031-34.148437-2.765625-47.839843-8.644531 2.777343-15.550782 5.660156-30.707032 8.53125-45.066407zm-10.710938 57.472657c14.425781 5.617187 31.542969 8.398437 49.265625 8.398437.234375 0 .46875-.011719.707031-.011719-.035156 17.234375.074219 34.660156.363282 52.066406-21.195313.402344-41.675782-2.902343-58.316407-10.027343 2.40625-16.820313 5.113281-33.785157 7.980469-50.425781zm-9.722656 63.007812c16.582031 6.441406 36.25 9.628906 56.625 9.628906 1.21875 0 2.441406-.03125 3.664062-.054687.34375 15.851562.839844 31.640625 1.523438 47.21875-24.296875.746093-47.898438-2.785157-67.117188-10.765625 1.386719-14.851563 3.195313-30.324219 5.304688-46.027344zm-8.246094 109.4375c-.28125-15.160156.414062-32.289062 1.84375-50.605469 18.230469 6.847657 39.6875 10.21875 61.886719 10.21875 2.292969 0 4.59375-.039062 6.902343-.109375.902344 17.878906 2.0625 35.414063 3.515626 52.363282-26.980469 1.355468-53.375-2.519532-74.148438-11.867188zm73.285156-353.617188c-4.546875-.140624-8.902344-.796874-12.773437-1.984374 4.78125-11.679688 9.753906-20.96875 14.4375-28.261719-.53125 9.101562-1.097657 19.230469-1.664063 30.246093zm13.992188-29.792968c3.605468 5.191406 7.011718 11.9375 9.378906 20.640625l.609375 2.246093c.246094.898438.472656 1.765626.714844 2.660157-3.851563 1.558593-8.035157 2.6875-12.304688 3.398437.546875-10.519531 1.089844-20.214844 1.601563-28.945312zm-2.234375 41.546875c5.546875-.726563 11.027343-2.070313 16.15625-4.019531 3.644531 13.773437 7.003906 27.042968 10.085937 39.804687-8.417968 4.089844-18.246094 6.695313-28.15625 7.792969.601563-15.480469 1.253906-30.09375 1.914063-43.578125zm-2.378907 56.140625c10.917969-1.035156 21.796876-3.753906 31.527344-8.132813 3.828125 16.351563 7.191406 31.839844 10.160156 46.527344-12.710937 6.898437-27.957031 11.105469-43.1875 12.46875.402344-17.609375.917969-34.652344 1.5-50.863281zm-1.765624 63.3125c15.984374-1.265625 32.042968-5.386719 45.945312-12.277344 2.957031 15.375 5.441406 29.78125 7.539062 43.308594-16.15625 8.152344-35.167968 13.070312-54.085937 14.632812.101563-15.46875.308594-30.742187.601563-45.664062zm-.648438 57.851562c19.484375-1.460937 39.0625-6.171875 56.03125-14.042968 2.59375 18.234374 4.441406 34.710937 5.695312 49.542968-18.429687 9.082032-39.945312 14.59375-61.378906 16.417969-.285156-17.351563-.390625-34.730469-.347656-51.917969zm57.875 162.9375c-16.199219 6.386719-33.910156 10.574219-51.707031 12.507813-1.453125-16.855469-2.605469-34.308594-3.503907-52.109375 20.914063-1.792969 41.835938-6.507813 60.757813-14.042969-.980469 20.3125-2.925781 38.09375-5.546875 53.644531zm6.042969-67.179687c-18.988281 8.34375-40.425781 13.511719-61.828125 15.421875-.679688-15.53125-1.171875-31.277344-1.511719-47.089844 21.578125-1.71875 43.207031-6.90625 62.144531-15.449219 1.21875 18.476563 1.484375 34.09375 1.195313 47.117188zm0 0" fill="#ffb82b"/><path d="m189.957031 375.351562s-21.597656 12.023438-86.023437-70.90625c-64.425782-82.929687-68.722656-176.136718-69.226563-211.777343-.683593-48.660157 28.789063-89.785157 28.789063-89.785157s-34.957032 34.953126-52.773438 169.285157c0 0-19.535156 124.398437-5.867187 197.328125 9.570312 51.070312 36.183593 83.960937 82.363281 89.644531 46.183594 5.683594 102.738281-83.789063 102.738281-83.789063zm0 0" fill="#5b9617"/><path d="m221.132812 302.390625c-.003906-21.546875-7.207031-55.691406-17.121093-92.5625v-.003906s5.46875 74.746093-26.746094 148.082031c-23.136719 52.675781-77.792969 94.648438-90.042969 101.234375 10.347656 1.800781 21.433594 1.777344 33.160156-.488281 83.15625-16.054688 100.753907-87.722656 100.75-156.261719zm0 0" fill="#a2bf26"/></svg>