<svg height="512pt" viewBox="-129 0 511 512" width="512pt" xmlns="http://www.w3.org/2000/svg"><path d="m172.320312 198.972656 8.558594-59.371094c2.785156 1.945313 4.808594 4.910157 5.519532 8.335938l4.289062 20.726562 29.378906-6.078124-4.292968-20.730469c-3.253907-15.734375-15.128907-28.464844-30.472657-32.929688l.046875-.324219-38.695312-8.757812c18.914062-7.738281 32.277344-26.332031 32.277344-48 0-28.585938-23.257813-51.84375-51.847657-51.84375-28.589843 0-51.847656 23.257812-51.847656 51.847656 0 21.667969 13.371094 40.265625 32.289063 48.003906l-38.671876 8.75.046876.316407c-15.363282 4.457031-27.25 17.195312-30.511719 32.941406l-4.289063 20.726563 29.378906 6.078124 4.289063-20.726562c.710937-3.4375 2.746094-6.410156 5.550781-8.359375l8.5625 59.398437-14.652344 34.527344c-11.117187 26.1875-13.941406 54.753906-8.160156 82.660156l25.90625 123.035157h84.25l25.917969-123.082031c5.769531-27.855469 2.945313-56.425782-8.171875-82.613282zm0 0" fill="#ffcebf"/><path d="m172.320312 198.972656 8.558594-59.371094c2.785156 1.945313 4.808594 4.910157 5.519532 8.335938l4.289062 20.726562 29.378906-6.078124-4.292968-20.730469c-3.253907-15.734375-15.128907-28.464844-30.472657-32.929688l.046875-.324219-38.695312-8.757812c18.914062-7.738281 32.277344-26.332031 32.277344-48 0-28.585938-23.257813-51.84375-51.847657-51.84375v439.199219h42.140625l25.917969-123.082031c5.769531-27.859376 2.945313-56.425782-8.167969-82.617188zm0 0" fill="#ffa78f"/><path d="m169.222656 440.210938 25.917969-123.082032c5.769531-27.859375 2.945313-56.425781-8.167969-82.617187 0 0 .65625 54.644531-127.90625 82.664062l25.90625 123.035157zm0 0" fill="#e1eaee"/><path d="m186.972656 234.511719s.382813 33.042969-59.890625 60.914062v144.785157h42.140625l25.917969-123.082032c5.769531-27.859375 2.945313-56.425781-8.167969-82.617187zm0 0" fill="#c4d5dd"/><path d="m179.382812 301.730469c7.183594-15.546875 12.175782-30.558594 15.585938-43-1.84375-8.578125-4.511719-17.023438-7.996094-25.230469l-4.433594-10.445312-3.15625-7.445313c-.316406.625-38.335937 64.878906-123.21875 73.335937.078126 9.074219 1.03125 18.179688 2.90625 27.21875l.542969 2.585938c42.109375-4.28125 73.300781-19.597656 95.453125-36.214844-1.023437 2.417969-2.097656 4.859375-3.242187 7.308594-19.4375 41.679688-47.03125 67.582031-82.0625 77.101562l6.191406 29.402344c44.402344-11.507812 80.09375-44.121094 103.429687-94.617187zm0 0" fill="#c4d5dd"/><path d="m186.972656 233.5-4.433594-10.445312-3.160156-7.445313c-.207031.410156-16.769531 28.417969-52.296875 49.910156v34.222657c10.59375-5.246094 19.894531-11.136719 27.984375-17.207032-1.023437 2.421875-2.101562 4.859375-3.242187 7.3125-7.152344 15.335938-15.417969 28.53125-24.742188 39.5625v41.4375c21.105469-16.621094 38.78125-39.863281 52.300781-69.117187 7.183594-15.546875 12.175782-30.558594 15.585938-43-1.847656-8.578125-4.515625-17.019531-7.996094-25.230469zm0 0" fill="#9cb9c7"/><path d="m29.171875 422.121094h195.820313v74.871094h-195.820313zm0 0" fill="#a0401a"/><path d="m127.082031 422.121094h97.910157v74.871094h-97.910157zm0 0" fill="#862712"/><path d="m.5 482h253.164062v30h-253.164062zm0 0" fill="#862712"/><path d="m127.082031 482h126.582031v30h-126.582031zm0 0" fill="#582817"/></svg>