<svg height="464pt" viewBox="0 0 464 464" width="464pt" xmlns="http://www.w3.org/2000/svg"><path d="m235.03125 387.03125c-7.0625-7.0625-11.03125-16.640625-11.03125-26.632812v-40.398438c-.019531-39.589844-26.476562-74.292969-64.648438-84.800781l8.648438-43.199219h-64l8.648438 43.199219c-38.171876 10.507812-64.628907 45.210937-64.648438 84.800781v40.398438c0 9.992187-3.96875 19.570312-11.03125 26.632812-4.855469 4.855469-6.308594 12.152344-3.679688 18.496094 2.625 6.339844 8.816407 10.472656 15.679688 10.472656h174.0625c6.863281 0 13.054688-4.132812 15.679688-10.472656 2.628906-6.34375 1.175781-13.640625-3.679688-18.496094zm0 0" fill="#f7a116"/><path d="m427.03125 387.03125c-7.0625-7.0625-11.03125-16.640625-11.03125-26.632812v-40.398438c-.019531-39.589844-26.476562-74.292969-64.648438-84.800781l8.648438-43.199219h-64l8.648438 43.199219c-38.171876 10.507812-64.628907 45.210937-64.648438 84.800781v40.398438c0 9.992187-3.96875 19.570312-11.03125 26.632812-4.855469 4.855469-6.308594 12.152344-3.679688 18.496094 2.625 6.339844 8.816407 10.472656 15.679688 10.472656h174.0625c6.863281 0 13.054688-4.132812 15.679688-10.472656 2.628906-6.34375 1.175781-13.640625-3.679688-18.496094zm0 0" fill="#f7a116"/><path d="m464 112h-464v-48l232-64 232 64zm0 0" fill="#4db7e5"/><path d="m464 64-125.816406-34.703125-74.703125 82.703125h200.519531zm0 0" fill="#48add9"/><path d="m256 56c0 13.253906-10.746094 24-24 24s-24-10.746094-24-24 10.746094-24 24-24 24 10.746094 24 24zm0 0" fill="#419bc2"/><path d="m0 416h464v48h-464zm0 0" fill="#4db7e5"/><path d="m352 416h112v48h-112zm0 0" fill="#48add9"/><path d="m32 112h48v304h-48zm0 0" fill="#e0e0de"/><path d="m384 112h48v304h-48zm0 0" fill="#e0e0de"/><path d="m32 112h48v64h-48zm0 0" fill="#d6d6d4"/><path d="m384 112h48v64h-48zm0 0" fill="#d6d6d4"/><g fill="#e0e0de"><path d="m8 112h56v20c0 15.464844-12.535156 28-28 28s-28-12.535156-28-28zm0 0"/><path d="m120 112h56v20c0 15.464844-12.535156 28-28 28s-28-12.535156-28-28zm0 0"/><path d="m232 112h56v20c0 15.464844-12.535156 28-28 28s-28-12.535156-28-28zm0 0"/><path d="m372 160c-15.464844 0-28-12.535156-28-28v-20h56v20c0 15.464844-12.535156 28-28 28zm0 0"/></g><path d="m64 112h56v20c0 15.464844-12.535156 28-28 28s-28-12.535156-28-28zm0 0" fill="#e94f4f"/><path d="m176 112h56v20c0 15.464844-12.535156 28-28 28s-28-12.535156-28-28zm0 0" fill="#e94f4f"/><path d="m288 112h56v20c0 15.464844-12.535156 28-28 28s-28-12.535156-28-28zm0 0" fill="#e94f4f"/><path d="m428 160c-15.464844 0-28-12.535156-28-28v-20h56v20c0 15.464844-12.535156 28-28 28zm0 0" fill="#e94f4f"/><path d="m331.03125 387.03125c-7.0625-7.0625-11.03125-16.640625-11.03125-26.632812v-40.398438c-.019531-39.589844-26.476562-74.292969-64.648438-84.800781l8.648438-43.199219h-64l8.648438 43.199219c-38.171876 10.507812-64.628907 45.210937-64.648438 84.800781v40.398438c0 9.992187-3.96875 19.570312-11.03125 26.632812-4.855469 4.855469-6.308594 12.152344-3.679688 18.496094 2.625 6.339844 8.816407 10.472656 15.679688 10.472656h174.0625c6.863281 0 13.054688-4.132812 15.679688-10.472656 2.628906-6.34375 1.175781-13.640625-3.679688-18.496094zm0 0" fill="#ffb531"/><path d="m331.03125 387.03125c-7.0625-7.0625-11.03125-16.640625-11.03125-26.632812v-40.398438c.007812-27.390625-12.789062-53.207031-34.59375-69.785156-29.460938 82.625-101.910156 134.167968-150.398438 162.527344 2.878907 2.113281 6.351563 3.253906 9.921876 3.257812h174.101562c6.863281 0 13.054688-4.132812 15.679688-10.472656 2.628906-6.34375 1.175781-13.640625-3.679688-18.496094zm0 0" fill="#ffa912"/><path d="m240 320h-16c-4.417969 0-8-3.582031-8-8s3.582031-8 8-8h32v-16h-16v-16h-16v16c-13.253906 0-24 10.746094-24 24s10.746094 24 24 24h16c4.417969 0 8 3.582031 8 8s-3.582031 8-8 8h-32v16h16v16h16v-16c13.253906 0 24-10.746094 24-24s-10.746094-24-24-24zm0 0" fill="#e8770c"/><path d="m8 112h56v16h-56zm0 0" fill="#d6d6d4"/><path d="m64 112h56v16h-56zm0 0" fill="#e04646"/><path d="m120 112h56v16h-56zm0 0" fill="#d6d6d4"/><path d="m176 112h56v16h-56zm0 0" fill="#e04646"/><path d="m232 112h56v16h-56zm0 0" fill="#d6d6d4"/><path d="m288 112h56v16h-56zm0 0" fill="#e04646"/><path d="m344 112h56v16h-56zm0 0" fill="#d6d6d4"/><path d="m400 112h56v16h-56zm0 0" fill="#e04646"/></svg>