<svg height="521pt" viewBox="-65 0 521 521.61732" width="521pt" xmlns="http://www.w3.org/2000/svg"><path d="m235.722656 521.617188h-79.613281c-19.265625 0-37.425781-8.445313-49.847656-23.164063s-17.667969-34.066406-14.425781-53.039063l31.65625-184.605468h144.863281l31.636719 184.585937c3.246093 18.992188-2.003907 38.324219-14.425782 53.042969-12.417968 14.71875-30.578125 23.179688-49.84375 23.179688zm0 0" fill="#dbc9a5"/><path d="m285.078125 358.613281h-89.164063v-32.601562h83.621094zm0 0" fill="#9b7a5a"/><path d="m298.933594 439.183594c-2.347656 9.683594-6.765625 18.828125-13.367188 26.652344-12.417968 14.738281-30.578125 23.179687-49.84375 23.179687h-79.613281c-19.265625 0-37.425781-8.441406-49.847656-23.164063-6.601563-7.824218-11.003907-16.96875-13.367188-26.648437l-1.058593 6.210937c-3.242188 18.988282 2.003906 38.320313 14.425781 53.039063s30.582031 23.164063 49.847656 23.164063h79.613281c19.265625 0 37.425782-8.445313 49.84375-23.164063 12.421875-14.71875 17.671875-34.066406 14.425782-53.039063zm0 0" fill="#d8b880"/><path d="m112.308594 326.011719h167.210937l-11.179687-65.203125h-144.847656zm0 0" fill="#d8b880"/><path d="m195.914062 423.8125v32.601562h-104.972656c0-3.746093.324219-7.335937.976563-11.082031l3.75-21.519531zm0 0" fill="#9b7a5a"/><path d="m342.621094 293.410156h-293.410156c-26.960938 0-48.902344-21.941406-48.902344-48.902344v-48.902343c0-107.859375 87.746094-195.605469 195.605468-195.605469 107.863282 0 195.609376 87.746094 195.609376 195.605469v48.902343c0 26.960938-21.941407 48.902344-48.902344 48.902344zm0 0" fill="#dbc9a5"/><g fill="#d8b880"><path d="m179.613281 32.601562h32.601563v32.601563h-32.601563zm0 0"/><path d="m114.414062 65.203125h32.597657v32.601563h-32.597657zm0 0"/><path d="m98.113281 130.40625h32.601563v32.597656h-32.601563zm0 0"/><path d="m179.613281 130.40625h32.601563v32.597656h-32.601563zm0 0"/><path d="m163.3125 195.605469h32.601562v32.601562h-32.601562zm0 0"/><path d="m228.515625 228.207031h32.601563v32.601563h-32.601563zm0 0"/><path d="m293.71875 195.605469h32.601562v32.601562h-32.601562zm0 0"/></g><path d="m383.371094 139.695312c-8.148438 7.988282-17.929688 14.34375-28.851563 18.257813-8.800781 3.257813-18.257812 5.050781-28.199219 5.050781-44.992187 0-81.503906-36.511718-81.503906-81.5 0-13.695312 3.421875-26.734375 9.453125-37.980468 5.378907-10.269532 12.878907-19.234376 22.007813-26.246094 51.347656 23.148437 90.792968 67.8125 107.09375 122.417968zm0 0" fill="#9b7a5a"/><path d="m284.621094 72.878906h32.601562v32.601563h-32.601562zm0 0" fill="#fff"/><path d="m49.210938 199.976562h32.601562v32.597657h-32.601562zm0 0" fill="#fff"/><path d="m130.714844 244.507812c0 5.542969-.492188 11.085938-1.632813 16.300782-2.445312 12.0625-7.496093 23.148437-14.667969 32.601562h-65.203124c-26.898438 0-48.902344-22.007812-48.902344-48.902344v-48.902343c0-5.703125.164062-11.246094.816406-16.789063 10.105469-7.496094 22.003906-12.714844 34.882812-14.671875 4.238282-.8125 8.636719-1.140625 13.203126-1.140625 44.988281 0 81.503906 36.515625 81.503906 81.503906zm0 0" fill="#9b7a5a"/></svg>