<?xml version="1.0" encoding="iso-8859-1"?>
<!-- Generator: Adobe Illustrator 19.0.0, SVG Export Plug-In . SVG Version: 6.00 Build 0)  -->
<svg version="1.1" id="Layer_1" xmlns="http://www.w3.org/2000/svg" xmlns:xlink="http://www.w3.org/1999/xlink" x="0px" y="0px"
	 viewBox="0 0 512.001 512.001" style="enable-background:new 0 0 512.001 512.001;" xml:space="preserve">
<path style="fill:#FFCF99;" d="M0.001,330.863c0,99.258,115.39,181,256,181s256-81.742,256-181H0.001z"/>
<path style="fill:#FFC380;" d="M256.001,511.863c140.61,0,256-81.742,256-181h-256V511.863z"/>
<path style="fill:#FFE0B3;" d="M459.7,130.163c-2.999-1.8-5.999-3.001-9.3-4.2c-0.599-7.8-2.399-15.601-4.799-22.8
	c-13.2-41.1-51.601-73.1-96.899-73.999c-0.901-0.3-1.8-0.3-2.701-0.3c-5.099,0-10.201,0.3-15.601,1.199c-3.3-3.3-6.899-6.301-10.8-9
	c-36.599-27.9-90.601-27.9-127.2,0c-3.9,2.699-7.5,5.7-10.8,9c-5.4-0.899-10.501-1.199-15.601-1.199c-0.901,0-1.8,0-2.701,0.3
	c-45,0.899-83.099,32.599-96.599,73.999c-2.401,7.2-4.2,14.7-5.099,22.5c-3.301,1.201-6.601,2.401-9.6,4.2
	c-30.601,14.399-52,45.899-52,81c0,40.199,28.001,75.899,67,86.7h378.001c39-10.801,67-46.501,67-86.7
	C512.001,175.762,490.301,144.262,459.7,130.163z"/>
<path style="fill:#FFCF99;" d="M445.001,297.563c39-10.801,67-46.501,67-86.7c0-35.101-21.7-66.601-52.301-80.7
	c-2.999-1.8-5.999-3.001-9.3-4.2c-0.599-7.8-2.399-15.601-4.799-22.8c-13.2-41.1-51.601-73.1-96.899-73.999
	c-0.901-0.3-1.8-0.3-2.701-0.3c-5.099,0-10.201,0.3-15.601,1.199c-3.3-3.3-6.899-6.301-10.8-9
	C301.301,7.112,278.651,0.137,256.001,0.137v297.426H445.001z"/>
<path style="fill:#FFC380;" d="M459.7,130.163l-116.1,93.9c-2.699,1.8-6,2.999-9,2.999c-4.501,0-9-2.1-12.001-6
	c-5.099-6.899-3.6-16.199,3.001-20.999l120-96.901c2.401,7.2,4.2,15,4.799,22.8C453.702,127.162,456.701,128.364,459.7,130.163z"/>
<path style="fill:#FFCF99;" d="M189.402,221.063c-3.001,3.9-7.5,6-12.001,6c-2.999,0-6.301-1.199-9-2.999l-116.4-94.201
	c2.999-1.8,6.299-2.999,9.6-4.2c0.899-7.8,2.699-15.3,5.099-22.5l119.7,96.901C193.002,204.863,194.501,214.163,189.402,221.063z"/>
<path style="fill:#FFC380;" d="M348.702,29.163l-56.4,144.2c-2.1,6.299-7.8,10.199-14.101,10.199c-1.8,0-3.3-0.3-4.799-0.899
	c-8.101-2.701-12.001-11.1-9.3-18.9l55.499-142.7c3.9,2.699,7.5,5.7,10.8,9c5.4-0.899,10.501-1.199,15.601-1.199
	C346.902,28.863,347.801,28.863,348.702,29.163z"/>
<path style="fill:#FFCF99;" d="M238.6,182.663c-1.5,0.599-3.3,0.899-4.799,0.899c-6.301,0-12.001-3.9-14.101-10.199l-56.4-144.2
	c0.901-0.3,1.8-0.3,2.701-0.3c5.099,0,10.201,0.3,15.601,1.199c3.3-3.3,6.899-6.301,10.8-9l55.499,142.7
	C250.601,171.564,246.701,179.963,238.6,182.663z"/>
<path style="fill:#F26B7D;" d="M347.715,246.415H164.287C62.041,259.305,0.001,290.873,0.001,330.863c0,59.092,129.276,90,256,90
	s256-30.908,256-90C512.001,290.873,449.961,259.305,347.715,246.415z"/>
<g>
	<path style="fill:#DB5C6B;" d="M347.715,246.415h-91.714v174.448c126.724,0,256-30.908,256-90
		C512.001,290.873,449.961,259.305,347.715,246.415z"/>
	<path style="fill:#DB5C6B;" d="M125.981,342.01c-6.152-5.537-6.68-15-1.157-21.152c0.703-0.791,17.593-19.468,43.271-33.706
		c7.222-3.999,16.377-1.406,20.391,5.859c4.014,7.236,1.392,16.362-5.859,20.391c-21.064,11.675-35.332,27.334-35.479,27.495
		C141.61,347.039,132.137,347.534,125.981,342.01z"/>
</g>
<path style="fill:#BF515E;" d="M364.854,340.897c-0.146-0.161-14.414-15.82-35.479-27.495c-7.251-4.028-9.873-13.154-5.859-20.391
	c4.014-7.266,13.169-9.858,20.391-5.859c25.679,14.238,42.568,32.915,43.271,33.706c5.522,6.152,4.995,15.615-1.157,21.152
	C379.865,347.534,370.392,347.039,364.854,340.897z"/>
<path style="fill:#F2F6FF;" d="M256.001,360.863c-57.891,0-105-47.109-105-105s47.109-105,105-105s105,47.109,105,105
	S313.892,360.863,256.001,360.863z"/>
<path style="fill:#E6EEFF;" d="M361.001,255.864c0-57.891-47.109-105-105-105v210C313.892,360.863,361.001,313.753,361.001,255.864z
	"/>
<path style="fill:#FFFFFF;" d="M226.001,270.863c-8.291,0-15-6.709-15-15c0-24.814,20.186-45,45-45c8.291,0,15,6.709,15,15
	s-6.709,15-15,15c-8.276,0-15,6.724-15,15C241.001,264.154,234.292,270.863,226.001,270.863z"/>
<path style="fill:#F2F6FF;" d="M271.001,225.864c0-8.291-6.709-15-15-15v30C264.292,240.864,271.001,234.155,271.001,225.864z"/>
<g>
</g>
<g>
</g>
<g>
</g>
<g>
</g>
<g>
</g>
<g>
</g>
<g>
</g>
<g>
</g>
<g>
</g>
<g>
</g>
<g>
</g>
<g>
</g>
<g>
</g>
<g>
</g>
<g>
</g>
</svg>
