<?xml version="1.0"?>
<svg width="640" height="640" xmlns="http://www.w3.org/2000/svg" xmlns:svg="http://www.w3.org/2000/svg" xmlns:xlink="http://www.w3.org/1999/xlink" preserveAspectRatio="xMidYMid meet">
 <defs>
  <path d="m239.6,266.86l0,7.49l14.95,17.01l40.21,59.03l44.9,-3.87l52.54,-29.79l43.28,-13.2l65.98,29.59l13.91,36.59c-6.87,-10.99 -13.91,-19.24 -21.13,-24.74c-10.82,-8.25 -53.09,-12.37 -71.65,-11.85c-18.56,0.51 -46.39,29.89 -62.89,40.72c-16.49,10.82 -60.82,31.44 -72.68,26.47c-11.85,-4.97 -48.45,-14.1 -63.91,-24.93c-10.31,-7.21 -16.84,-43.39 -19.59,-108.52l36.08,0z" id="b45BGGFXuA"/>
  <path d="m218.48,257.34l89.45,0l103.02,-17.52c0,5.84 0,14.26 0,25.25c0,11 2.75,18.39 8.25,22.17c30.93,5.5 49.31,9.28 55.16,11.34c5.84,2.06 16.49,10.82 31.96,26.29c8.14,26.19 13.23,42.56 15.26,49.11c0.05,0.14 -0.15,0.24 -0.23,0.11c-10.13,-15.42 -17.38,-25.81 -21.74,-31.18c-6.7,-8.25 -37.11,-19.59 -48.96,-23.2c-11.86,-3.6 -40.73,11.34 -56.71,19.08c-10.65,5.15 -24.22,14.26 -40.72,27.32c-19.59,13.74 -48.97,16.66 -88.14,8.76c-39.18,-7.91 -55.16,-43.82 -47.94,-107.73l1.34,-9.8z" id="apY0PwMq1"/>
  <path d="m369.56,300.65c0,16.03 -13.4,29.05 -29.9,29.05c-16.5,0 -29.9,-13.02 -29.9,-29.05c0,-16.04 13.4,-29.06 29.9,-29.06c16.5,0 29.9,13.02 29.9,29.06z" id="lP4MbSZ80"/>
  <path d="m521.59,373.62l-18.92,-27.03c-19.82,-15.31 -35.59,-24.09 -47.3,-26.35c-17.57,-3.38 -47.97,12.17 -67.57,21.62c-19.59,9.46 -29.05,25.68 -62.16,35.14c-22.07,6.31 -43.02,5.18 -62.84,-3.38" id="aTFJKtKQb"/>
  <path d="m218.21,317.54c-19.37,-2.7 -38.51,1.35 -57.43,12.16" id="c1jefI5WPe"/>
  <path d="m83.07,219.57l0.68,0l0,0.67l-0.68,0l0,-0.67z" id="e1zlflA5D"/>
  <path d="m218.4,263.86c1.34,3.86 -9.08,26.05 -1.95,58.58c7.12,32.53 8.85,28.29 32.56,49.94c23.72,21.65 72.17,8.25 95.88,-1.54c23.71,-9.8 39.18,-39.09 73.2,-45.38c34.02,-6.29 30.27,-5.07 36.12,-4.4c5.86,0.66 37.96,9.76 49.22,24.09c7.5,9.56 13.47,19.28 17.89,29.17c-16.93,-8.51 -29.69,-14.82 -38.29,-18.95c-12.88,-6.18 -46.49,-8.61 -52.51,0c-6.01,8.62 -4.76,8.1 -7.85,24.79c-3.1,16.7 -21.94,28.95 -36.89,33.46c-14.95,4.51 -14.6,2.06 -23.88,5.15c-6.18,2.07 -7.22,13.92 -3.09,35.57c3.43,2.41 8.42,3.81 14.95,4.2c9.79,0.6 49.48,4.56 69.07,15.39c13.06,7.22 32.86,34.26 59.39,81.14c0,0 0,0 0,0c-25.75,6.56 -52.21,10.02 -78.78,10.31c-4.9,0.06 -8.65,-4.47 -11.28,-13.57c-4.88,-16.92 -22.33,4.72 -41.22,9.19c-16.76,3.96 -34.09,-10.52 -52.99,-3.57c-39.96,14.71 -64.54,1.36 -104.64,1.62c-34.86,0.23 -88.39,16.62 -86.93,-3.16c0.56,-7.61 2.88,-14.21 6.45,-19.98c10.69,-17.31 32.53,-27.19 51.26,-34.69c28.73,-11.52 43.36,-13.18 49.98,-20.07c2.59,-2.71 6.18,-6.65 10.76,-11.83l18,-36.11c-10.53,-11.44 -18.92,-17.97 -25.16,-19.59c-77.32,-20.1 -73.19,-70.62 -76.71,-82.47c-2.34,-7.91 -3.23,-29.73 -2.67,-65.47c39.18,-3.78 59.21,-4.38 60.11,-1.82z" id="a3lAbwJDBi"/>
  <path d="m387.13,189.84l9.46,-6.76l8.78,-7.43l8.11,-6.76l9.46,-8.11l7.43,-6.75l8.11,-6.76l10.14,-5.41l10.81,-6.08l8.78,-5.4l11.49,-6.08l10.13,-3.38l10.81,-1.35l7.43,6.75l-6.08,8.11l-8.78,5.41l-8.11,6.08l-9.46,5.4l-8.78,7.44l-8.79,6.08l-9.45,6.08l-9.46,6.08l-9.46,6.08l-9.46,5.41l-9.46,4.05l-10.81,2.03l-9.46,-4.06" id="c8MP1l3kD"/>
  <path d="m299.06,219.57l95.84,-26.62l-29.73,-121.83l-20.79,-3.33l-159.62,26.2l-11.48,6.24l11.48,110.19l114.3,9.15z" id="b1KAKn58jr"/>
  <path d="m244.56,200.65l-14.19,-100.64l16.89,-18.01l-35.04,7.83l-4.15,10.18l1.15,12.25l12.37,88.39l22.97,0z" id="i2ZZJFFdEC"/>
  <path d="m151.32,202.95l-31.76,-31.75c-8.63,-1.12 -14.03,-1.82 -16.19,-2.1c-10.66,-1.38 -20.04,7.08 -19.75,17.82c0.19,7.15 1.86,14.37 5.01,21.67c5.09,11.78 13.44,23.81 25.05,36.11c3.89,4.12 8.47,7.52 13.54,10.06c5.23,2.61 -1.53,-0.77 0,0c17.14,8.57 36.16,12.71 55.32,12.03c16.64,-0.58 58.27,-2.04 124.86,-4.38c41.95,-7.49 68.16,-12.17 78.65,-14.04c23.04,-4.12 45.12,-12.47 65.12,-24.63c13.27,-8.08 29.66,-18.05 44.64,-27.16c14.38,-8.75 27.19,-19.85 37.91,-32.84c1.88,-2.28 -3.24,3.92 0,0c5.61,-6.81 6.29,-16.44 1.67,-23.96c-1.95,-3.18 1.54,2.52 0,0c-6.38,-10.4 -15.42,-18.91 -26.18,-24.67c-2.52,-1.35 2.71,1.45 -0.72,-0.39c-7.54,-4.03 -16.48,-4.51 -24.42,-1.31c-5.2,2.1 -3.79,1.53 -7.86,3.17c-12.04,4.86 -23.44,11.2 -33.92,18.86c-11.44,8.37 -29.31,21.44 -40.58,29.69c-10.98,8.03 -23.32,14.04 -36.41,17.72c-14.29,4.02 -15.29,4.3 -24.06,6.77c-31.45,8.86 -63.88,13.74 -96.54,14.53c-12.32,0.3 -35.68,0.87 -56.9,1.39c0,0 -9.44,-0.28 -9.44,-0.28c-3.6,-0.31 -12.62,-1.08 -27.04,-2.31z" id="d3JDvCDZUG"/>
  <path d="m335.94,323.22c16.84,1.64 25.43,-7.77 25.78,-28.25" id="b6OscvltWu"/>
  <path d="m319.96,286.72c-4.46,5.85 -5.32,12.37 -2.57,19.59" id="b5lxwn8lT"/>
  <path id="a6PsHEjD4g"/>
  <path d="m409.65,243.42c0.69,11 1.38,18.81 2.07,23.44c1.03,6.95 -194.85,22.96 -195.37,19.86c-0.34,-2.06 0.28,-9.27 1.86,-21.65l191.44,-21.65z" id="aGQe4ecIU"/>
  <path d="m233.47,298.63c0,2.7 -2.08,4.9 -4.64,4.9c-2.56,0 -4.64,-2.2 -4.64,-4.9c0,-2.7 2.08,-4.9 4.64,-4.9c2.56,0 4.64,2.2 4.64,4.9z" id="iYKrakaWa"/>
  <path d="m238.11,318.32c0,2.7 -2.08,4.9 -4.64,4.9c-2.56,0 -4.64,-2.2 -4.64,-4.9c0,-2.7 2.08,-4.9 4.64,-4.9c2.56,0 4.64,2.2 4.64,4.9z" id="a21DOekER"/>
  <path d="m247.26,334.6c0,2.7 -2.07,4.9 -4.64,4.9c-2.56,0 -4.63,-2.2 -4.63,-4.9c0,-2.7 2.07,-4.9 4.63,-4.9c2.57,0 4.64,2.2 4.64,4.9z" id="f3CWq39To"/>
  <path d="m160.78,329.08c1.41,-5.15 23.51,-14.62 66.29,-28.43" id="afwtQhuAb"/>
  <path d="m158.73,303.53c0.68,9.96 6.05,15.38 16.09,16.24" id="cEFADfEbS"/>
  <path id="dPrzJuTnl"/>
  <path d="m163.5,348.2c1.55,-5.14 25.71,-14.62 72.48,-28.43" id="aJDxVBQHr"/>
  <path d="m172.33,366.09c1.48,-5.44 24.55,-15.46 69.23,-30.05" id="a1BsU0vhY"/>
  <path d="m251.41,455.87c-6.03,11.36 -12.01,19.9 -17.94,25.63c-5.94,5.74 -17.18,10.4 -33.73,13.98c-30,11.83 -48.23,20.25 -54.68,25.27c-9.68,7.53 -23.12,27.42 -18.71,38.17c2.93,7.17 11.86,8.61 26.78,4.31c10.39,-22.94 20.43,-37.1 30.1,-42.48c14.52,-8.06 52.69,-14.51 77.42,-28.49c16.49,-9.32 22.4,-23.12 17.74,-41.4l-26.98,5.01z" id="blOdg4MzE"/>
  <path d="m358.82,424.87c8.25,-1.38 7.22,7.21 -3.09,25.77c-59.79,2.41 -93.13,3.78 -100,4.13c-6.87,0.34 -5.55,-7.74 3.96,-24.23c57.84,-2.41 90.89,-4.3 99.13,-5.67z" id="cym6tcXk2"/>
  <path d="m141.3,525.05l13.35,0l11.04,-3.22l16.26,-5.38l13.35,-1.61l11.04,2.69l10.45,6.45l11.61,0l14.52,-0.54l13.36,-1.08l11.03,2.16l13.36,3.22l12.77,0l11.62,0.54l9.29,6.45l13.93,4.3l12.2,3.23l11.03,1.61" id="eKx55qPCk"/>
  <clipPath id="clipc21QXnEaVc">
   <use id="svg_1" xlink:href="#eKx55qPCk"/>
  </clipPath>
  <path d="m325.07,487.96l9.14,-4.84l8.06,-6.99l11.29,-3.23l10.22,-4.3l-1.62,-10.21l-4.3,-9.14" id="c441BQ9Cb8"/>
  <clipPath id="clipbzZqATHU">
   <use id="svg_2" xlink:href="#c441BQ9Cb8"/>
  </clipPath>
  <path d="m359.77,425.02c0,0 0,0 0,0c0.87,0.93 0.26,2.45 -1,2.53c-13.42,0.83 -46.95,2.9 -100.6,6.21l1.6,-3.06l100,-5.68z" id="a6xpiE750y"/>
  <path id="d3W7ffIF5i"/>
 </defs>
 <g class="layer">
  <title>Layer 1</title>
  <g id="svg_92">
   <use fill="#343332" id="svg_6" transform="matrix(1.18886 0 0 1.20287 -73.6883 -63.7526)" x="24.393185" xlink:href="#b45BGGFXuA" y="-1.66269"/>
   <use fill="#2b2b2b" id="svg_8" transform="matrix(1.18886 0 0 1.20287 -73.6883 -63.7526)" x="24.393185" xlink:href="#apY0PwMq1" y="-1.66269"/>
   <use fill-opacity="0" id="svg_10" stroke="#000000" stroke-width="0" transform="matrix(1.18886 0 0 1.20287 -73.6883 -63.7526)" x="24.393185" xlink:href="#apY0PwMq1" y="-1.66269"/>
   <use fill="#ffffff" id="svg_12" transform="matrix(1.18886 0 0 1.20287 -73.6883 -63.7526)" x="24.393185" xlink:href="#lP4MbSZ80" y="-1.66269"/>
   <use fill-opacity="0" id="svg_14" stroke="#000000" stroke-width="2" transform="matrix(1.18886 0 0 1.20287 -73.6883 -63.7526)" x="24.393185" xlink:href="#lP4MbSZ80" y="-1.66269"/>
   <use fill-opacity="0" id="svg_18" stroke="#583e29" transform="matrix(1.18886 0 0 1.20287 -73.6883 -63.7526)" x="24.393185" xlink:href="#c1jefI5WPe" y="-1.66269"/>
   <use fill="#89d97a" id="svg_20" transform="matrix(1.18886 0 0 1.20287 -73.6883 -63.7526)" x="24.393185" xlink:href="#e1zlflA5D" y="-1.66269"/>
   <use fill="#444444" id="svg_22" transform="matrix(1.18886 0 0 1.20287 -73.6883 -63.7526)" x="24.393185" xlink:href="#a3lAbwJDBi" y="-1.66269"/>
   <use fill="#252525" id="svg_24" transform="matrix(1.18886 0 0 1.20287 -73.6883 -63.7526)" x="24.393185" xlink:href="#c8MP1l3kD" y="-1.66269"/>
   <use fill-opacity="0" id="svg_26" stroke="#2c2219" stroke-width="0" transform="matrix(1.18886 0 0 1.20287 -73.6883 -63.7526)" x="24.393185" xlink:href="#c8MP1l3kD" y="-1.66269"/>
   <use fill="#0d130f" id="svg_28" transform="matrix(1.18886 0 0 1.20287 -73.6883 -63.7526)" x="24.393185" xlink:href="#b1KAKn58jr" y="-1.66269"/>
   <use fill-opacity="0" id="svg_30" stroke="#000000" stroke-width="0" transform="matrix(1.18886 0 0 1.20287 -73.6883 -63.7526)" x="24.393185" xlink:href="#b1KAKn58jr" y="-1.66269"/>
   <use fill="#e2e2e2" id="svg_32" transform="matrix(1.18886 0 0 1.20287 -73.6883 -63.7526)" x="24.393185" xlink:href="#i2ZZJFFdEC" y="-1.66269"/>
   <use fill-opacity="0" id="svg_34" stroke="#000000" stroke-width="0" transform="matrix(1.18886 0 0 1.20287 -73.6883 -63.7526)" x="24.393185" xlink:href="#i2ZZJFFdEC" y="-1.66269"/>
   <use fill="#0d0b0b" id="svg_36" transform="matrix(1.18886 0 0 1.20287 -73.6883 -63.7526)" x="24.393185" xlink:href="#d3JDvCDZUG" y="-1.66269"/>
   <use fill-opacity="0" id="svg_39" stroke="#616161" transform="matrix(1.18886 0 0 1.20287 -73.6883 -63.7526)" x="24.393185" xlink:href="#b6OscvltWu" y="-1.66269"/>
   <use fill-opacity="0" id="svg_42" stroke="#c2c2c2" stroke-width="2" transform="matrix(1.18886 0 0 1.20287 -73.6883 -63.7526)" x="24.393185" xlink:href="#b5lxwn8lT" y="-1.66269"/>
   <use fill="#0e0e0e" id="svg_47" transform="matrix(1.18886 0 0 1.20287 -73.6883 -63.7526)" x="24.393185" xlink:href="#aGQe4ecIU" y="-1.66269"/>
   <use fill="#2e2826" id="svg_49" transform="matrix(1.18886 0 0 1.20287 -73.6883 -63.7526)" x="24.393185" xlink:href="#iYKrakaWa" y="-1.66269"/>
   <use fill-opacity="0" id="svg_51" stroke="#c5a2a2" stroke-width="2" transform="matrix(1.18886 0 0 1.20287 -73.6883 -63.7526)" x="24.393185" xlink:href="#iYKrakaWa" y="-1.66269"/>
   <use fill="#2e2826" id="svg_53" transform="matrix(1.18886 0 0 1.20287 -73.6883 -63.7526)" x="24.393185" xlink:href="#a21DOekER" y="-1.66269"/>
   <use fill-opacity="0" id="svg_55" stroke="#c5a2a2" stroke-width="2" transform="matrix(1.18886 0 0 1.20287 -73.6883 -63.7526)" x="24.393185" xlink:href="#a21DOekER" y="-1.66269"/>
   <use fill="#2e2826" id="svg_57" transform="matrix(1.18886 0 0 1.20287 -73.6883 -63.7526)" x="24.393185" xlink:href="#f3CWq39To" y="-1.66269"/>
   <use fill-opacity="0" id="svg_59" stroke="#c5a2a2" stroke-width="2" transform="matrix(1.18886 0 0 1.20287 -73.6883 -63.7526)" x="24.393185" xlink:href="#f3CWq39To" y="-1.66269"/>
   <use fill-opacity="0" id="svg_62" stroke="#b55050" stroke-width="2" transform="matrix(1.18886 0 0 1.20287 -73.6883 -63.7526)" x="24.393185" xlink:href="#afwtQhuAb" y="-1.66269"/>
   <use fill-opacity="0" id="svg_65" stroke="#b55050" stroke-width="2" transform="matrix(1.18886 0 0 1.20287 -73.6883 -63.7526)" x="24.393185" xlink:href="#cEFADfEbS" y="-1.66269"/>
   <use fill-opacity="0" id="svg_71" stroke="#b55050" stroke-width="2" transform="matrix(1.18886 0 0 1.20287 -73.6883 -63.7526)" x="24.393185" xlink:href="#aJDxVBQHr" y="-1.66269"/>
   <use fill-opacity="0" id="svg_74" stroke="#b55050" stroke-width="2" transform="matrix(1.18886 0 0 1.20287 -73.6883 -63.7526)" x="24.393185" xlink:href="#a1BsU0vhY" y="-1.66269"/>
   <use fill="#141414" id="svg_76" transform="matrix(1.18886 0 0 1.20287 -73.6883 -63.7526)" x="24.393185" xlink:href="#blOdg4MzE" y="-1.66269"/>
   <use fill="#e9e7e6" id="svg_78" transform="matrix(1.18886 0 0 1.20287 -73.6883 -63.7526)" x="24.393185" xlink:href="#cym6tcXk2" y="-1.66269"/>
   <use fill-opacity="0" id="svg_80" stroke="#000000" stroke-width="0" transform="matrix(1.18886 0 0 1.20287 -73.6883 -63.7526)" x="24.393185" xlink:href="#cym6tcXk2" y="-1.66269"/>
   <use fill-opacity="0" id="svg_83" stroke="#201818" stroke-width="18" transform="matrix(1.18886 0 0 1.20287 -73.6883 -63.7526)" x="24.393185" xlink:href="#eKx55qPCk" y="-1.66269"/>
   <use fill-opacity="0" id="svg_86" stroke="#201818" stroke-width="10" transform="matrix(1.18886 0 0 1.20287 -73.6883 -63.7526)" x="24.393185" xlink:href="#c441BQ9Cb8" y="-1.66269"/>
   <use fill="#0b100e" id="svg_88" transform="matrix(1.18886 0 0 1.20287 -73.6883 -63.7526)" x="24.393185" xlink:href="#a6xpiE750y" y="-1.66269"/>
  </g>
  <g id="svg_3">
   <g id="svg_4">
    <g id="svg_5"/>
    <g id="svg_7">
     <g id="svg_9"/>
    </g>
    <g id="svg_11">
     <g id="svg_13"/>
    </g>
    <g id="svg_15"/>
    <g id="svg_16">
     <g id="svg_17"/>
    </g>
    <g id="svg_19"/>
    <g id="svg_21"/>
    <g id="svg_23">
     <g id="svg_25"/>
    </g>
    <g id="svg_27">
     <g id="svg_29"/>
    </g>
    <g id="svg_31">
     <g id="svg_33"/>
    </g>
    <g id="svg_35"/>
    <g id="svg_37">
     <g id="svg_38"/>
    </g>
    <g id="svg_40">
     <g id="svg_41"/>
    </g>
    <g id="svg_43">
     <g id="svg_44">
      <use fill-opacity="0" id="svg_45" stroke="#000000" stroke-width="2" xlink:href="#a6PsHEjD4g"/>
     </g>
    </g>
    <g id="svg_46"/>
    <g id="svg_48">
     <g id="svg_50"/>
    </g>
    <g id="svg_52">
     <g id="svg_54"/>
    </g>
    <g id="svg_56">
     <g id="svg_58"/>
    </g>
    <g id="svg_60">
     <g id="svg_61"/>
    </g>
    <g id="svg_63">
     <g id="svg_64"/>
    </g>
    <g id="svg_66">
     <g id="svg_67">
      <use fill-opacity="0" id="svg_68" stroke="#b55050" stroke-width="2" xlink:href="#dPrzJuTnl"/>
     </g>
    </g>
    <g id="svg_69">
     <g id="svg_70"/>
    </g>
    <g id="svg_72">
     <g id="svg_73"/>
    </g>
    <g id="svg_75"/>
    <g id="svg_77">
     <g id="svg_79"/>
    </g>
    <g id="svg_81">
     <g clip-path="url(#clipc21QXnEaVc)" id="svg_82"/>
    </g>
    <g id="svg_84">
     <g clip-path="url(#clipbzZqATHU)" id="svg_85"/>
    </g>
    <g id="svg_87"/>
    <g id="svg_89">
     <g id="svg_90">
      <use fill-opacity="0" id="svg_91" stroke="#793a3a" stroke-width="2" xlink:href="#d3W7ffIF5i"/>
     </g>
    </g>
   </g>
  </g>
 </g>
</svg>