<?xml version="1.0" encoding="iso-8859-1"?>
<!-- Generator: Adobe Illustrator 19.0.0, SVG Export Plug-In . SVG Version: 6.00 Build 0)  -->
<svg version="1.1" id="Capa_1" xmlns="http://www.w3.org/2000/svg" xmlns:xlink="http://www.w3.org/1999/xlink" x="0px" y="0px"
	 viewBox="0 0 512 512" style="enable-background:new 0 0 512 512;" xml:space="preserve">
<path style="fill:#93635B;" d="M256,423c-57.834,0-112.921-21.76-155.114-61.27c-41.988-39.319-67.314-92.478-71.314-149.685
	l29.928-2.092c3.47,49.628,25.45,95.753,61.893,129.878C158.005,374.118,205.81,393,256,393s97.995-18.882,134.608-53.168
	c36.442-34.125,58.423-80.25,61.893-129.878l29.928,2.092c-4,57.207-29.326,110.365-71.314,149.685
	C368.921,401.24,313.834,423,256,423z"/>
<path style="fill:#7F554E;" d="M452.501,209.954c-3.47,49.628-25.45,95.753-61.893,129.878C353.995,374.118,306.19,393,256,393v30
	c57.834,0,112.921-21.76,155.114-61.27c41.988-39.319,67.314-92.478,71.314-149.685L452.501,209.954z"/>
<path style="fill:#746ED0;" d="M256,362c-90.981,0-165-74.019-165-165S165.019,32,256,32s165,74.019,165,165S346.981,362,256,362z"
	/>
<path style="fill:#415BE8;" d="M256,32v330c90.981,0,165-74.019,165-165S346.981,32,256,32z"/>
<path style="fill:#00E6B9;" d="M366.759,147.813c-5.422-1.786-11.168-3.422-17.177-4.91C336.452,77.727,300.015,32,256,32
	s-80.452,45.727-93.582,110.903c-6.009,1.488-11.755,3.124-17.177,4.91C100.41,162.581,91,182.713,91,197s9.41,34.419,54.241,49.187
	c5.422,1.786,11.168,3.422,17.177,4.91C175.548,316.273,211.985,362,256,362s80.452-45.727,93.582-110.903
	c6.009-1.488,11.755-3.124,17.177-4.91C411.59,231.419,421,211.287,421,197S411.59,162.581,366.759,147.813z M302.178,98.251
	c6.329,11.326,11.421,24.335,15.165,38.493c-14.671-2.079-30.258-3.408-46.343-3.917v-67.35
	C282.332,70.759,293.067,81.947,302.178,98.251z M324.823,197c0,9.881-0.572,19.582-1.659,29.002
	c-16.063,2.786-33.709,4.539-52.165,5.156v-68.316c18.456,0.617,36.102,2.37,52.165,5.156
	C324.251,177.418,324.823,187.119,324.823,197z M187.177,197c0-9.881,0.572-19.582,1.659-29.002
	c16.063-2.786,33.709-4.539,52.165-5.156v68.316c-18.456-0.617-36.102-2.37-52.165-5.156
	C187.749,216.582,187.177,206.881,187.177,197z M209.822,98.251c9.111-16.304,19.846-27.492,31.178-32.774v67.35
	c-16.084,0.508-31.672,1.838-46.343,3.917C198.401,122.586,203.493,109.577,209.822,98.251z M154.627,217.692
	C126.707,208.495,121,199.031,121,197s5.707-11.495,33.627-20.692c1.099-0.362,2.237-0.707,3.367-1.056
	c-0.537,7.104-0.817,14.361-0.817,21.748s0.28,14.644,0.817,21.748C156.864,218.399,155.726,218.054,154.627,217.692z
	 M209.822,295.749c-6.329-11.326-11.421-24.335-15.165-38.493c14.671,2.079,30.258,3.408,46.343,3.917v67.35
	C229.668,323.241,218.933,312.053,209.822,295.749z M302.178,295.749c-9.111,16.304-19.846,27.492-31.178,32.774v-67.35
	c16.084-0.508,31.672-1.838,46.343-3.917C313.599,271.414,308.507,284.423,302.178,295.749z M357.373,217.692
	c-1.099,0.362-2.237,0.707-3.367,1.056c0.537-7.104,0.817-14.361,0.817-21.748s-0.28-14.644-0.817-21.748
	c1.129,0.349,2.268,0.694,3.367,1.056C385.293,185.505,391,194.969,391,197S385.293,208.495,357.373,217.692z"/>
<g>
	<path style="fill:#78EE49;" d="M44,232c-24.262,0-44-19.695-44-43.903c0-10.377,5.886-22.461,17.992-36.941
		c7.788-9.315,15.521-16.461,15.847-16.761L44,125.038l10.161,9.356c0.325,0.3,8.059,7.445,15.847,16.761
		C82.114,165.636,88,177.72,88,188.097C88,212.305,68.262,232,44,232z"/>
	<path style="fill:#78EE49;" d="M46.77,357.012c-11.24,0-22.468-4.271-31.016-12.818C8.416,336.856,4.033,324.15,2.355,305.35
		c-1.08-12.094-0.665-22.615-0.646-23.057l0.568-13.802l13.802-0.568c0.439-0.018,10.962-0.435,23.057,0.646
		c18.801,1.678,31.507,6.061,38.844,13.398c17.118,17.118,17.088,45.002-0.067,62.157C69.322,352.715,58.04,357.012,46.77,357.012z"
		/>
	<path style="fill:#78EE49;" d="M121.046,439.667c-3.744,0-7.546-0.483-11.329-1.497c-10.024-2.687-20.173-11.499-31.026-26.941
		c-6.982-9.934-11.883-19.253-12.088-19.645l-6.408-12.236l11.668-7.394c0.374-0.236,9.277-5.856,20.291-10.969
		c17.12-7.946,30.315-10.501,40.338-7.818h0.001c23.383,6.266,37.299,30.429,31.021,53.864
		C158.249,426.674,140.44,439.667,121.046,439.667z M124.728,382.146L124.728,382.146L124.728,382.146L124.728,382.146z"/>
	<path style="fill:#78EE49;" d="M339.034,425.665c-0.301-0.327-7.486-8.103-16.853-15.934
		c-14.55-12.165-26.688-18.079-37.104-18.079c-11.135,0-21.31,4.167-29.077,11.017c-7.767-6.849-17.943-11.017-29.077-11.017
		c-10.417,0-22.555,5.914-37.104,18.079c-9.366,7.831-16.552,15.606-16.853,15.934l-9.356,10.161l9.356,10.161
		c0.301,0.327,7.486,8.103,16.853,15.934C204.368,474.086,216.506,480,226.923,480c11.135,0,21.31-4.167,29.077-11.017
		c7.767,6.849,17.943,11.017,29.077,11.017c10.417,0,22.555-5.914,37.104-18.079c9.366-7.831,16.552-15.606,16.853-15.934
		l9.356-10.161L339.034,425.665z"/>
</g>
<path style="fill:#00CCCB;" d="M366.759,147.813c-5.422-1.786-11.168-3.422-17.177-4.91C336.452,77.727,300.015,32,256,32v330
	c44.015,0,80.452-45.727,93.582-110.903c6.009-1.488,11.755-3.124,17.177-4.91C411.59,231.419,421,211.287,421,197
	S411.59,162.581,366.759,147.813z M271,65.477c11.332,5.282,22.067,16.469,31.178,32.774c6.329,11.326,11.421,24.335,15.165,38.493
	c-14.671-2.079-30.258-3.408-46.343-3.917L271,65.477L271,65.477z M302.178,295.749c-9.111,16.304-19.846,27.492-31.178,32.774
	v-67.35c16.084-0.508,31.672-1.838,46.343-3.917C313.599,271.414,308.507,284.423,302.178,295.749z M323.165,226.002
	c-16.063,2.786-33.709,4.539-52.165,5.156v-68.316c18.456,0.617,36.102,2.37,52.165,5.156c1.087,9.42,1.659,19.121,1.659,29.002
	S324.251,216.582,323.165,226.002z M357.373,217.692c-1.099,0.362-2.237,0.707-3.367,1.056c0.537-7.104,0.817-14.361,0.817-21.748
	s-0.28-14.644-0.817-21.748c1.129,0.349,2.268,0.694,3.367,1.056C385.293,185.505,391,194.969,391,197
	S385.293,208.495,357.373,217.692z"/>
<g>
	<path style="fill:#00E6B9;" d="M468,232c-24.262,0-44-19.695-44-43.903c0-10.377,5.886-22.461,17.992-36.941
		c7.788-9.315,15.521-16.461,15.847-16.761L468,125.038l10.161,9.356c0.325,0.3,8.059,7.445,15.847,16.761
		C506.114,165.636,512,177.72,512,188.097C512,212.305,492.262,232,468,232z"/>
	<path style="fill:#00E6B9;" d="M465.23,357.012c-11.271,0-22.552-4.296-31.142-12.887c-17.155-17.155-17.186-45.039-0.067-62.157
		c7.337-7.338,20.043-11.721,38.844-13.398c12.094-1.081,22.614-0.664,23.057-0.646l13.802,0.568l0.568,13.802
		c0.019,0.441,0.434,10.963-0.646,23.057c-1.679,18.8-6.062,31.506-13.399,38.844C487.7,352.74,476.469,357.012,465.23,357.012z"/>
	<path style="fill:#00E6B9;" d="M390.954,439.667c-19.396,0-37.203-12.991-42.467-32.635c-6.278-23.437,7.638-47.6,31.021-53.865
		h0.001c10.025-2.684,23.218-0.128,40.338,7.818c11.014,5.112,19.917,10.732,20.291,10.969l11.668,7.394l-6.408,12.236
		c-0.205,0.392-5.105,9.711-12.088,19.645c-10.854,15.442-21.002,24.255-31.025,26.941
		C398.502,439.183,394.697,439.667,390.954,439.667z"/>
	<path style="fill:#00E6B9;" d="M339.034,425.665c-0.301-0.327-7.486-8.103-16.853-15.934
		c-14.55-12.165-26.688-18.079-37.104-18.079c-11.135,0-21.31,4.167-29.077,11.017v66.314c7.767,6.849,17.943,11.017,29.077,11.017
		c10.417,0,22.555-5.914,37.104-18.079c9.366-7.831,16.552-15.606,16.853-15.934l9.356-10.161L339.034,425.665z"/>
</g>
<g>
</g>
<g>
</g>
<g>
</g>
<g>
</g>
<g>
</g>
<g>
</g>
<g>
</g>
<g>
</g>
<g>
</g>
<g>
</g>
<g>
</g>
<g>
</g>
<g>
</g>
<g>
</g>
<g>
</g>
</svg>
