<?xml version="1.0" encoding="iso-8859-1"?>
<!-- Generator: Adobe Illustrator 19.0.0, SVG Export Plug-In . SVG Version: 6.00 Build 0)  -->
<svg version="1.1" id="Layer_1" xmlns="http://www.w3.org/2000/svg" xmlns:xlink="http://www.w3.org/1999/xlink" x="0px" y="0px"
	 viewBox="0 0 512.009 512.009" style="enable-background:new 0 0 512.009 512.009;" xml:space="preserve">
<circle style="fill:#9AD14B;" cx="256.004" cy="256.004" r="256.004"/>
<g>
	<path style="fill:#90BC42;" d="M121.499,390.501C29.407,298.407,22.15,153.608,99.723,53.204
		c-8.593,6.638-16.861,13.895-24.743,21.777c-99.974,99.974-99.974,262.065,0,362.038s262.065,99.974,362.038,0
		c7.881-7.881,15.138-16.15,21.777-24.743C358.392,489.85,213.593,482.593,121.499,390.501z"/>
	<path style="fill:#90BC42;" d="M287.304,398.326c-1.067,0-2.152-0.181-3.214-0.563c-18.116-6.522-38.067-6.522-56.182,0
		c-4.93,1.775-10.367-0.783-12.142-5.713s0.783-10.367,5.713-12.142c22.26-8.015,46.779-8.015,69.038,0
		c4.93,1.775,7.488,7.211,5.713,12.142C294.84,395.917,291.194,398.326,287.304,398.326z"/>
</g>
<g>
	<path style="fill:#4D4D4D;" d="M371.325,311.665c5.24,0,9.489-4.248,9.489-9.489c0-5.24-4.248-9.489-9.489-9.489
		c-28.157,0-51.592,20.552-56.124,47.441H196.8c-4.532-26.888-27.966-47.441-56.124-47.441c-5.24,0-9.489,4.248-9.489,9.489
		c0,5.24,4.248,9.489,9.489,9.489c20.927,0,37.952,17.025,37.952,37.952c0,20.927-17.025,37.952-37.952,37.952
		c-5.24,0-9.489,4.248-9.489,9.489c0,5.24,4.248,9.489,9.489,9.489c28.157,0,51.592-20.552,56.124-47.441h118.401
		c4.532,26.888,27.966,47.441,56.124,47.441c5.24,0,9.489-4.248,9.489-9.489c0-5.24-4.248-9.489-9.489-9.489
		c-20.927,0-37.952-17.025-37.952-37.952C333.373,328.69,350.398,311.665,371.325,311.665z"/>
	<path style="fill:#4D4D4D;" d="M177.781,236.754c0-19.358-15.749-35.107-35.107-35.107s-35.107,15.749-35.107,35.107
		s15.749,35.107,35.107,35.107S177.781,256.112,177.781,236.754z"/>
	<path style="fill:#4D4D4D;" d="M369.327,201.647c-19.358,0-35.107,15.749-35.107,35.107s15.749,35.107,35.107,35.107
		s35.107-15.749,35.107-35.107S388.684,201.647,369.327,201.647z"/>
	<path style="fill:#4D4D4D;" d="M114.737,180.734c4.241,1.069,8.512,1.592,12.736,1.592c13.402,0,26.315-5.266,36.125-15.076
		c12.902-12.902,17.942-31.168,13.484-48.862c-1.28-5.082-6.438-8.164-11.519-6.882c-5.082,1.28-8.163,6.437-6.882,11.519
		c2.811,11.155-0.367,22.67-8.502,30.805c-8.134,8.135-19.649,11.311-30.805,8.502c-5.083-1.284-10.239,1.8-11.519,6.882
		C106.574,174.297,109.655,179.454,114.737,180.734z"/>
	<path style="fill:#4D4D4D;" d="M384.527,182.326c4.223,0,8.497-0.523,12.736-1.592c5.082-1.28,8.163-6.437,6.882-11.519
		c-1.28-5.082-6.436-8.163-11.519-6.882c-11.155,2.81-22.67-0.367-30.805-8.502c-8.135-8.134-11.312-19.649-8.502-30.805
		c1.28-5.082-1.8-10.239-6.882-11.519c-5.081-1.283-10.239,1.8-11.519,6.882c-4.458,17.693,0.582,35.958,13.484,48.862
		C358.213,177.06,371.124,182.327,384.527,182.326z"/>
</g>
<g>
</g>
<g>
</g>
<g>
</g>
<g>
</g>
<g>
</g>
<g>
</g>
<g>
</g>
<g>
</g>
<g>
</g>
<g>
</g>
<g>
</g>
<g>
</g>
<g>
</g>
<g>
</g>
<g>
</g>
</svg>
