<?xml version="1.0" encoding="iso-8859-1"?>
<!-- Generator: Adobe Illustrator 19.0.0, SVG Export Plug-In . SVG Version: 6.00 Build 0)  -->
<svg version="1.1" id="Layer_1" xmlns="http://www.w3.org/2000/svg" xmlns:xlink="http://www.w3.org/1999/xlink" x="0px" y="0px"
	 viewBox="0 0 512 512" style="enable-background:new 0 0 512 512;" xml:space="preserve">
<circle style="fill:#B8E6FF;" cx="256" cy="210.503" r="210.503"/>
<circle style="fill:#D4F0FC;" cx="256" cy="210.503" r="96.725"/>
<path style="fill:#FFFFFF;" d="M256,317.589c-59.046,0-107.084-48.038-107.084-107.084S196.954,103.421,256,103.421
	s107.084,48.038,107.084,107.084C363.083,269.552,315.044,317.589,256,317.589z M256,124.133c-47.625,0-86.372,38.747-86.372,86.372
	s38.747,86.372,86.372,86.372s86.372-38.747,86.372-86.372S303.625,124.133,256,124.133z"/>
<path style="fill:#2197D8;" d="M403.887,512H108.111c-3.114,0-6.063-1.402-8.028-3.815c-1.968-2.415-2.742-5.584-2.114-8.634
	l30.052-145.637c1.157-5.602,6.638-9.206,12.235-8.05c5.602,1.156,9.206,6.633,8.05,12.235l-27.483,133.189h270.353l-27.483-133.189
	c-1.156-5.602,2.448-11.08,8.05-12.235c5.599-1.157,11.078,2.447,12.235,8.05l30.053,145.639c0.628,3.049-0.146,6.219-2.114,8.634
	C409.95,510.598,407,512,403.887,512z"/>
<path style="fill:#4D4D4D;" d="M444.405,512H67.594c-5.721,0-10.356-4.637-10.356-10.356c0-5.719,4.635-10.356,10.356-10.356
	h376.811c5.721,0,10.356,4.637,10.356,10.356C454.761,507.363,450.124,512,444.405,512z"/>
<g>
	<path style="fill:#F2F2F2;" d="M404.091,280.235c-16.751,0-30.378-13.627-30.378-30.378v-18.641
		c0-5.719,4.635-10.356,10.356-10.356c5.721,0,10.356,4.637,10.356,10.356v18.641c0,5.33,4.337,9.666,9.666,9.666
		s9.666-4.336,9.666-9.666v-19.331c0-5.33-4.337-9.666-9.666-9.666c-16.751,0-30.378-13.627-30.378-30.378v-19.331
		c0-16.751,13.627-30.378,30.378-30.378s30.378,13.627,30.378,30.378v18.641c0,5.719-4.635,10.356-10.356,10.356
		s-10.356-4.637-10.356-10.356v-18.641c0-5.33-4.337-9.666-9.666-9.666s-9.666,4.336-9.666,9.666v19.331
		c0,5.33,4.337,9.666,9.666,9.666c16.751,0,30.378,13.627,30.378,30.378v19.331C434.469,266.608,420.84,280.235,404.091,280.235z"/>
	<path style="fill:#F2F2F2;" d="M107.909,280.235c-16.751,0-30.378-13.627-30.378-30.378v-19.331
		c0-16.751,13.627-30.378,30.378-30.378c5.329,0,9.666-4.336,9.666-9.666v-19.331c0-5.33-4.337-9.666-9.666-9.666
		c-5.329,0-9.666,4.336-9.666,9.666v18.641c0,5.719-4.635,10.356-10.356,10.356c-5.721,0-10.356-4.637-10.356-10.356v-18.641
		c0-16.751,13.627-30.378,30.378-30.378s30.378,13.627,30.378,30.378v19.331c0,16.751-13.627,30.378-30.378,30.378
		c-5.329,0-9.666,4.336-9.666,9.666v19.331c0,5.33,4.337,9.666,9.666,9.666c5.329,0,9.666-4.336,9.666-9.666v-18.641
		c0-5.719,4.635-10.356,10.356-10.356s10.356,4.637,10.356,10.356v18.641C138.287,266.608,124.658,280.235,107.909,280.235z"/>
	<path style="fill:#F2F2F2;" d="M295.353,388.973h-18.641c-5.721,0-10.356-4.637-10.356-10.356s4.635-10.356,10.356-10.356h18.641
		c5.329,0,9.666-4.336,9.666-9.666s-4.337-9.666-9.666-9.666h-19.331c-5.329,0-9.666,4.336-9.666,9.666
		c0,16.751-13.627,30.378-30.378,30.378h-19.331c-16.751,0-30.378-13.627-30.378-30.378c0-16.75,13.627-30.378,30.378-30.378h18.641
		c5.721,0,10.356,4.637,10.356,10.356c0,5.719-4.635,10.356-10.356,10.356h-18.641c-5.329,0-9.666,4.336-9.666,9.666
		s4.337,9.666,9.666,9.666h19.331c5.329,0,9.666-4.336,9.666-9.666c0-16.75,13.627-30.378,30.378-30.378h19.331
		c16.751,0,30.378,13.627,30.378,30.378C325.73,375.346,312.102,388.973,295.353,388.973z"/>
	<path style="fill:#F2F2F2;" d="M295.353,92.791h-19.331c-16.751,0-30.378-13.627-30.378-30.378c0-5.33-4.337-9.666-9.666-9.666
		h-19.331c-5.329,0-9.666,4.336-9.666,9.666c0,5.33,4.337,9.666,9.666,9.666h18.641c5.721,0,10.356,4.637,10.356,10.356
		s-4.635,10.356-10.356,10.356h-18.641c-16.751,0-30.378-13.627-30.378-30.378s13.627-30.378,30.378-30.378h19.331
		c16.751,0,30.378,13.627,30.378,30.378c0,5.33,4.337,9.666,9.666,9.666h19.331c5.329,0,9.666-4.336,9.666-9.666
		c0-5.33-4.337-9.666-9.666-9.666h-18.641c-5.721,0-10.356-4.637-10.356-10.356s4.635-10.356,10.356-10.356h18.641
		c16.751,0,30.378,13.627,30.378,30.378S312.102,92.791,295.353,92.791z"/>
	<path style="fill:#F2F2F2;" d="M373.368,123.514c-2.65,0-5.301-1.011-7.324-3.034l-20.022-20.022
		c-4.044-4.044-4.044-10.602,0-14.645c4.046-4.044,10.602-4.044,14.646,0l20.022,20.022c4.044,4.044,4.044,10.602,0,14.645
		C378.668,122.503,376.018,123.514,373.368,123.514z"/>
	<path style="fill:#F2F2F2;" d="M158.653,338.229c-2.65,0-5.301-1.011-7.324-3.034l-20.022-20.022
		c-4.044-4.044-4.044-10.602,0-14.645c4.046-4.044,10.602-4.044,14.646,0l20.022,20.022c4.044,4.044,4.044,10.602,0,14.645
		C163.953,337.218,161.303,338.229,158.653,338.229z"/>
	<path style="fill:#F2F2F2;" d="M138.632,123.514c-2.65,0-5.301-1.011-7.324-3.034c-4.044-4.044-4.044-10.602,0-14.645
		l20.022-20.022c4.046-4.044,10.602-4.044,14.646,0s4.044,10.602,0,14.645l-20.022,20.022
		C143.931,122.503,141.282,123.514,138.632,123.514z"/>
	<path style="fill:#F2F2F2;" d="M353.347,338.229c-2.65,0-5.301-1.011-7.324-3.034c-4.044-4.044-4.044-10.602,0-14.645
		l20.022-20.022c4.046-4.044,10.602-4.044,14.646,0c4.044,4.044,4.044,10.602,0,14.645l-20.022,20.022
		C358.646,337.218,355.996,338.229,353.347,338.229z"/>
</g>
<g>
</g>
<g>
</g>
<g>
</g>
<g>
</g>
<g>
</g>
<g>
</g>
<g>
</g>
<g>
</g>
<g>
</g>
<g>
</g>
<g>
</g>
<g>
</g>
<g>
</g>
<g>
</g>
<g>
</g>
</svg>
