<?xml version="1.0" encoding="iso-8859-1"?>
<!-- Generator: Adobe Illustrator 19.0.0, SVG Export Plug-In . SVG Version: 6.00 Build 0)  -->
<svg version="1.1" id="Capa_1" xmlns="http://www.w3.org/2000/svg" xmlns:xlink="http://www.w3.org/1999/xlink" x="0px" y="0px"
	 viewBox="0 0 512 512" style="enable-background:new 0 0 512 512;" xml:space="preserve">
<path style="fill:#AC825A;" d="M436.079,201.307c-21.162-30.027-49.817-53.285-83.272-67.688
	c-5.089-35.289-22.109-67.733-48.538-92.169C275.361,14.721,237.743,0,198.348,0c-41,0-79.355,16.341-107.997,46.013
	c-27.302,28.282-44.355,66.904-48.019,108.752c-6.916,78.989,2.183,124.725,20.235,177.033
	c16.352,47.38,43.266,90.738,75.783,122.088C177.785,491.905,224.955,512,274.763,512c108.747,0,197.22-88.472,197.22-197.22
	C471.983,273.874,459.568,234.635,436.079,201.307z"/>
<path style="fill:#816244;" d="M436.079,201.307c-21.162-30.027-49.817-53.285-83.272-67.688
	c-5.089-35.289-22.109-67.733-48.538-92.169c-19.841-18.346-43.786-31.033-69.591-37.188v503.28
	c13.097,2.949,26.492,4.457,40.086,4.457c108.747,0,197.22-88.472,197.22-197.22C471.983,273.874,459.568,234.635,436.079,201.307z"
	/>
<path style="fill:#CDB49C;" d="M106.677,198H40.063c-0.135,10.572,0.089,20.523,0.646,30h65.968V198z"/>
<path style="fill:#AC825A;" d="M405.344,260v30h65.092c-1.274-10.187-3.332-20.21-6.155-30H405.344z"/>
<g>
	<path style="fill:#CDB49C;" d="M143.677,369H77.966c5.033,10.365,10.558,20.4,16.524,30h49.188v-30H143.677z"/>
	<rect x="165.339" y="108.67" style="fill:#CDB49C;" width="30" height="30"/>
</g>
<g>
	<rect x="298.679" y="354" style="fill:#AC825A;" width="30" height="30"/>
	<rect x="266.679" y="215.33" style="fill:#AC825A;" width="30" height="30"/>
</g>
<g>
</g>
<g>
</g>
<g>
</g>
<g>
</g>
<g>
</g>
<g>
</g>
<g>
</g>
<g>
</g>
<g>
</g>
<g>
</g>
<g>
</g>
<g>
</g>
<g>
</g>
<g>
</g>
<g>
</g>
</svg>
