<?xml version="1.0" encoding="iso-8859-1"?>
<!-- Generator: Adobe Illustrator 19.0.0, SVG Export Plug-In . SVG Version: 6.00 Build 0)  -->
<svg version="1.1" id="Layer_1" xmlns="http://www.w3.org/2000/svg" xmlns:xlink="http://www.w3.org/1999/xlink" x="0px" y="0px"
	 viewBox="0 0 495.2 495.2" style="enable-background:new 0 0 495.2 495.2;" xml:space="preserve">
<polygon style="fill:#D38C0D;" points="325.6,224.4 495.2,126 325.6,28.4 156.8,127.6 "/>
<g>
	<polygon style="fill:#EFBB67;" points="170.4,224.4 338.4,126.8 170.4,28.4 0,126.8 	"/>
	<polygon style="fill:#EFBB67;" points="416,368.4 248,466.8 80,368.4 80,172.4 248,74 416,172.4 	"/>
</g>
<polyline style="fill:#D38C0D;" points="248,74 416,172.4 416,368.4 248,466.8 "/>
<polygon style="fill:#EFBB67;" points="326.4,314.8 495.2,218 325.6,119.6 156,218 "/>
<polygon style="fill:#D38C0D;" points="170.4,316.4 339.2,217.2 170.4,119.6 0,218 "/>
<polygon style="fill:#704A0E;" points="248.8,270.8 416,172.4 248.8,74 78.4,172.4 "/>
<polyline style="fill:#513307;" points="248.8,270.8 416,172.4 248.8,74 "/>
<polygon style="fill:#2D1C05;" points="248.8,270.8 284.8,249.2 248.8,228.4 212.8,249.2 "/>
<g>
	<polygon style="fill:#0DD396;" points="368,379.6 408,356.4 408,343.6 368,366.8 	"/>
	<polygon style="fill:#0DD396;" points="368,356.4 408,333.2 408,320.4 368,343.6 	"/>
	<polygon style="fill:#0DD396;" points="368,333.2 408,310 408,296.4 368,320.4 	"/>
</g>
<g>
</g>
<g>
</g>
<g>
</g>
<g>
</g>
<g>
</g>
<g>
</g>
<g>
</g>
<g>
</g>
<g>
</g>
<g>
</g>
<g>
</g>
<g>
</g>
<g>
</g>
<g>
</g>
<g>
</g>
</svg>
