<?xml version="1.0" encoding="iso-8859-1"?>
<!-- Generator: Adobe Illustrator 19.0.0, SVG Export Plug-In . SVG Version: 6.00 Build 0)  -->
<svg version="1.1" id="Layer_1" xmlns="http://www.w3.org/2000/svg" xmlns:xlink="http://www.w3.org/1999/xlink" x="0px" y="0px"
	 viewBox="0 0 508.27 508.27" style="enable-background:new 0 0 508.27 508.27;" xml:space="preserve">
<path style="fill:#C19D7B;" d="M254.135,417.399c47.809,0,88.159-27.804,102.4-66.458l-102.4-24.752l-102.4,24.752
	C165.976,389.595,206.326,417.399,254.135,417.399z"/>
<path style="fill:#56545F;" d="M281.261,80.36h-54.252c-44.419,0-80.36,35.942-80.36,80.36v61.033H361.96v-61.033
	C361.621,116.302,325.679,80.36,281.261,80.36z"/>
<g>
	<circle style="fill:#EEB490;" cx="178.183" cy="222.093" r="31.534"/>
	<circle style="fill:#EEB490;" cx="330.087" cy="222.093" r="31.534"/>
	<path style="fill:#EEB490;" d="M207.004,289.907v41.367c0,26.109,21.023,47.131,47.131,47.131l0,0
		c26.109,0,47.131-21.023,47.131-47.131v-41.367H207.004z"/>
</g>
<path style="fill:#FACCB4;" d="M274.819,150.209c-19.327,29.499-72.223,35.603-101.044,36.959c0,1.356,0,2.713,0,4.069v58.999
	c0,44.419,35.942,80.36,80.36,80.36s80.36-35.942,80.36-80.36v-59.338c0-2.374,0-5.086-0.339-7.46
	C299.232,173.944,274.819,150.209,274.819,150.209z"/>
<polygon style="fill:#FF667C;" points="305.674,112.572 254.135,0 202.596,112.572 128.678,57.981 146.649,150.209 254.135,150.209 
	361.621,150.209 379.592,57.981 "/>
<path style="fill:#EEB490;" d="M254.135,468.26c-76.63,0-144.106-30.177-183.099-76.291c-5.425,9.833-8.477,21.701-8.477,33.907
	v82.395h383.152v-82.395c0-12.207-3.052-23.735-8.477-33.907C398.241,438.082,330.766,468.26,254.135,468.26z"/>
<path style="fill:#8A6753;" d="M254.135,468.26c76.63,0,144.106-30.177,183.099-76.291c-8.138-15.258-22.04-26.787-38.654-30.856
	l-42.045-10.172c-14.241,38.654-54.591,66.458-102.4,66.458s-88.159-27.804-102.4-66.458l-42.045,10.172
	c-16.615,4.069-30.517,15.597-38.654,30.856C110.029,438.082,177.505,468.26,254.135,468.26z"/>
<g>
</g>
<g>
</g>
<g>
</g>
<g>
</g>
<g>
</g>
<g>
</g>
<g>
</g>
<g>
</g>
<g>
</g>
<g>
</g>
<g>
</g>
<g>
</g>
<g>
</g>
<g>
</g>
<g>
</g>
</svg>
