<svg height="512pt" viewBox="0 0 512 512" width="512pt" xmlns="http://www.w3.org/2000/svg"><path d="m512 256c0-24-11.398438-46.199219-30.300781-60.300781 9.300781-21.300781 8.101562-46.5-3.898438-67.199219s-34-34.199219-57.402343-36.902344c-2.699219-23.398437-16.199219-45.398437-36.898438-57.398437s-45.902344-13.199219-67.199219-3.898438c-14.101562-18.902343-36.300781-30.300781-60.300781-30.300781s-46.199219 11.398438-60.300781 30.300781c-21.296875-9.300781-46.5-8.101562-67.199219 3.898438s-34.199219 34-36.898438 57.398437c-23.402343 2.703125-45.402343 16.203125-57.402343 36.902344s-13.199219 45.898438-3.898438 67.199219c-18.902343 14.101562-30.300781 36.300781-30.300781 60.300781s11.398438 46.199219 30.300781 60.300781c-9.300781 21.296875-8.101562 46.5 3.898438 67.199219s34 34.199219 57.402343 36.898438c2.699219 23.402343 16.199219 45.402343 36.898438 57.402343s45.902344 13.199219 67.199219 3.898438c14.101562 18.902343 36.300781 30.300781 60.300781 30.300781s46.199219-11.398438 60.300781-30.300781c21.296875 9.300781 46.5 8.101562 67.199219-3.898438s34.199219-34 36.898438-57.402343c23.402343-2.699219 45.402343-16.199219 57.402343-36.898438s13.199219-45.902344 3.898438-67.199219c18.902343-14.101562 30.300781-36.300781 30.300781-60.300781zm0 0" fill="#ececf1"/><path d="m481.699219 316.300781c9.300781 21.296875 8.101562 46.5-3.898438 67.199219s-34 34.199219-57.402343 36.898438c-2.699219 23.402343-16.199219 45.402343-36.898438 57.402343s-45.902344 13.199219-67.199219 3.898438c-14.101562 18.902343-36.300781 30.300781-60.300781 30.300781v-512c24 0 46.199219 11.398438 60.300781 30.300781 21.296875-9.300781 46.5-8.101562 67.199219 3.898438s34.199219 34 36.898438 57.398437c23.402343 2.703125 45.402343 16.203125 57.402343 36.902344s13.199219 45.898438 3.898438 67.199219c18.902343 14.101562 30.300781 36.300781 30.300781 60.300781s-11.398438 46.199219-30.300781 60.300781zm0 0" fill="#e2e2e7"/><path d="m421 226v15c0 36.300781-25.800781 66.597656-60 73.5v1.5c0 52.800781-39.300781 96-90 103.5l-15-31.199219-15 31.199219c-50.699219-7.5-90-50.699219-90-103.5v-1.5c-14.398438-3-27.300781-9.902344-37.800781-20.402344-14.398438-14.097656-22.199219-33-22.199219-53.097656v-15h60v-38.699219l20.097656 6.898438c11.402344 4.199219 24.902344.601562 32.703125-8.699219l10.199219-12 11.398438 10.5c8.402343 7.800781 19.5 11.398438 30.601562 11.398438s22.199219-3.597657 30.601562-11.398438l11.398438-10.5 10.199219 12c7.800781 9.300781 21.300781 12.898438 32.703125 8.699219l20.097656-6.898438v38.699219zm0 0" fill="#725d57"/><path d="m421 226v15c0 36.300781-25.800781 66.597656-60 73.5v1.5c0 52.800781-39.300781 96-90 103.5l-15-31.199219v-192.902343c11.101562 0 22.199219-3.597657 30.601562-11.398438l11.398438-10.5 10.199219 12c7.800781 9.300781 21.300781 12.898438 32.703125 8.699219l20.097656-6.898438v38.699219zm0 0" fill="#68544f"/><path d="m301 346c0 19.5-12.597656 36-30 42.300781v31.199219c-4.800781.597656-9.902344 1.5-15 1.5s-10.199219-.902344-15-1.5v-31.199219c-17.402344-6.300781-30-22.800781-30-42.300781h30c0 8.398438 6.597656 15 15 15s15-6.601562 15-15zm0 0" fill="#53433f"/><path d="m211 256h30v30h-30zm0 0" fill="#53433f"/><g fill="#3e322e"><path d="m271 256h30v30h-30zm0 0"/><path d="m301 346c0 19.5-12.597656 36-30 42.300781v31.199219c-4.800781.597656-9.902344 1.5-15 1.5v-60c8.402344 0 15-6.601562 15-15zm0 0"/></g></svg>