<svg xmlns="http://www.w3.org/2000/svg" xmlns:xlink="http://www.w3.org/1999/xlink" version="1.1" style="" xml:space="preserve" width="511.8819885253906" height="511.8819885253906"><rect id="backgroundrect" width="100%" height="100%" x="0" y="0" fill="none" stroke="none"/>
























<g class="currentLayer" style=""><title>Layer 1</title><polygon style="" points="350.216,176.572 278.374,158.615 37.038,264.123 0,338.207 125.753,374.324 386.13,258.531   " id="svg_1" class="" fill="#dadada" fill-opacity="1"/><polygon style="" points="350.216,176.572 107.756,284.345 125.753,374.324 386.13,258.531 " id="svg_2" class="" fill="#dadada" fill-opacity="1"/><polygon style="" points="108.36575275659561,284.3450012207031 37.64775425195694,264.12298583984375 0.6247560530900955,338.2070007324219 126.36275440454483,374.3240051269531 " id="svg_3" class="" fill="#919191" fill-opacity="1"/><polygon style="" points="475.969,212.682 404.127,194.717 162.791,300.232 125.753,374.324 251.504,410.41   511.882,294.625 " id="svg_4" class="" fill="#dadada" fill-opacity="1"/><polygon style="" points="476.57875019311905,212.6820068359375 234.1177516579628,320.4309997558594 252.11375385522842,410.4100036621094 512.4917445778847,294.625 " id="svg_5" class="" fill="#b6b6b6" fill-opacity="1"/><polygon style="" points="234.1177516579628,321.0407558083534 163.400756418705,300.8417506814003 126.36275440454483,374.9337611794472 252.11375385522842,411.0197597146034 " id="svg_6" class="" fill="#919191" fill-opacity="1"/><polygon style="" points="396.9257655739784,120.6485133767128 325.0977626442909,102.69251209497452 104.47675281763077,199.65451008081436 67.45275837182999,273.7385097146034 193.20574909448624,309.8404994606972 432.85475116968155,202.598510324955 " id="svg_7" class="" fill="#b6b6b6" fill-opacity="1"/><polygon style="" points="396.9257655739784,120.03875690698624 175.20976215600967,219.2507625222206 193.20574909448624,309.2307582497597 432.85475116968155,201.98875385522842 " id="svg_8" class="" fill="#dadada" fill-opacity="1"/><polygon style="" points="174.6,218.641 103.867,198.435 66.843,272.519 192.596,308.621 " id="svg_9" class="" fill="#919191" fill-opacity="1"/><g id="svg_10">
</g><g id="svg_11">
</g><g id="svg_12">
</g><g id="svg_13">
</g><g id="svg_14">
</g><g id="svg_15">
</g><g id="svg_16">
</g><g id="svg_17">
</g><g id="svg_18">
</g><g id="svg_19">
</g><g id="svg_20">
</g><g id="svg_21">
</g><g id="svg_22">
</g><g id="svg_23">
</g><g id="svg_24">
</g></g></svg>