<?xml version="1.0" encoding="iso-8859-1"?>
<!-- Generator: Adobe Illustrator 19.0.0, SVG Export Plug-In . SVG Version: 6.00 Build 0)  -->
<svg version="1.1" id="Layer_1" xmlns="http://www.w3.org/2000/svg" xmlns:xlink="http://www.w3.org/1999/xlink" x="0px" y="0px"
	 viewBox="0 0 508.948 508.948" style="enable-background:new 0 0 508.948 508.948;" xml:space="preserve">
<path style="fill:#608287;" d="M360.604,294.654l13.902-50.861h-52.217h-67.136h-1.695H186.66h-52.217l13.902,50.861
	C85.277,306.183,37.468,361.452,37.468,427.91v81.038h434.013V427.91C471.481,361.452,423.672,306.183,360.604,294.654z"/>
<g>
	<circle style="fill:#EEB490;" cx="167.332" cy="171.232" r="35.603"/>
	<circle style="fill:#EEB490;" cx="341.616" cy="171.232" r="35.603"/>
</g>
<path style="fill:#FACCB4;" d="M254.474,50.861L254.474,50.861c-50.522,0-91.211,40.689-91.211,91.211v66.797
	c0,50.522,40.689,91.211,91.211,91.211l0,0c50.522,0,91.211-40.689,91.211-91.211v-66.797
	C345.685,91.889,304.996,50.861,254.474,50.861z"/>
<g>
	<path style="fill:#608287;" d="M396.546,122.066H112.403c-3.73,0-6.781-3.052-6.781-6.781s3.052-6.781,6.781-6.781h284.482
		c3.73,0,6.781,3.052,6.781,6.781S400.615,122.066,396.546,122.066z"/>
	<path style="fill:#608287;" d="M310.082,0H198.866c-17.971,0-32.551,14.58-32.551,32.551v83.073h175.979V32.551
		C342.633,14.58,328.053,0,310.082,0z"/>
	<path style="fill:#608287;" d="M345.685,142.072H163.264v29.16h16.615c-1.356,4.408-2.374,8.816-2.374,13.902
		c0,23.735,18.988,42.723,42.723,42.723c13.902,0,26.109-6.781,33.907-16.954c7.799,10.172,20.005,16.954,33.907,16.954
		c23.735,0,42.723-18.988,42.723-42.723c0-4.747-0.678-9.494-2.374-13.902h16.615v-29.16H345.685z"/>
</g>
<g>
	<circle style="fill:#FACCB4;" cx="288.381" cy="184.795" r="17.293"/>
	<circle style="fill:#FACCB4;" cx="220.567" cy="184.795" r="17.293"/>
</g>
<g>
	<polygon style="fill:#608287;" points="134.442,243.793 254.474,346.193 254.474,443.168 148.344,294.654 	"/>
	<polygon style="fill:#608287;" points="374.506,243.793 254.474,346.193 254.474,443.168 360.604,294.654 	"/>
</g>
<g>
</g>
<g>
</g>
<g>
</g>
<g>
</g>
<g>
</g>
<g>
</g>
<g>
</g>
<g>
</g>
<g>
</g>
<g>
</g>
<g>
</g>
<g>
</g>
<g>
</g>
<g>
</g>
<g>
</g>
</svg>
