<?xml version="1.0" encoding="iso-8859-1"?>
<!-- Generator: Adobe Illustrator 19.0.0, SVG Export Plug-In . SVG Version: 6.00 Build 0)  -->
<svg version="1.1" id="Capa_1" xmlns="http://www.w3.org/2000/svg" xmlns:xlink="http://www.w3.org/1999/xlink" x="0px" y="0px"
	 viewBox="0 0 512.006 512.006" style="enable-background:new 0 0 512.006 512.006;" xml:space="preserve">
<g transform="translate(-1)">
	<g>
		<polygon style="fill:#F0C419;" points="487.405,95.064 487.405,469.336 26.605,469.336 26.605,95.064 35.139,76.803 
			478.872,76.803 		"/>
		<polygon style="fill:#E57E25;" points="490.477,93.443 487.405,95.064 26.605,95.064 23.533,93.443 69.272,8.536 444.739,8.536 		
			"/>
		<path style="fill:#67B9CC;" d="M222.872,187.736h68.267c4.713,0,8.533,3.821,8.533,8.533v68.267c0,4.713-3.82,8.533-8.533,8.533
			h-68.267c-4.713,0-8.533-3.821-8.533-8.533V196.27C214.339,191.557,218.159,187.736,222.872,187.736z"/>
		<rect x="333.805" y="307.203" style="fill:#E57E25;" width="119.467" height="162.133"/>
		<path style="fill:#802F34;" d="M453.272,196.27v110.933H333.805V196.27c0-4.713,3.821-8.533,8.533-8.533h102.4
			C449.451,187.736,453.272,191.557,453.272,196.27z"/>
		<rect x="60.739" y="307.203" style="fill:#E57E25;" width="119.467" height="162.133"/>
		<path style="fill:#802F34;" d="M180.205,196.27v110.933H60.739V196.27c0-4.713,3.821-8.533,8.533-8.533h102.4
			C176.385,187.736,180.205,191.557,180.205,196.27z"/>
		<rect x="9.539" y="469.336" style="fill:#CC6F56;" width="494.933" height="34.133"/>
		<g>
			<path style="fill:#804537;" d="M9.539,477.87h494.933c4.713,0,8.533-3.821,8.533-8.533s-3.82-8.533-8.533-8.533H9.539
				c-4.713,0-8.533,3.82-8.533,8.533S4.826,477.87,9.539,477.87z"/>
			<path style="fill:#804537;" d="M86.339,494.936h-76.8c-4.713,0-8.533,3.82-8.533,8.533s3.821,8.533,8.533,8.533h76.8
				c4.713,0,8.533-3.821,8.533-8.533S91.051,494.936,86.339,494.936z"/>
			<path style="fill:#804537;" d="M504.472,494.936h-384c-4.713,0-8.533,3.82-8.533,8.533s3.821,8.533,8.533,8.533h384
				c4.713,0,8.533-3.821,8.533-8.533S509.185,494.936,504.472,494.936z"/>
		</g>
		<path style="fill:#802F34;" d="M511.99,115.425L454.663,8.972c-2.981-5.531-8.761-8.976-15.044-8.969H74.392
			C68.104-0.006,62.32,3.443,59.339,8.98L2.021,115.425c-2.234,4.152-0.679,9.329,3.473,11.563
			c4.152,2.234,9.329,0.679,11.563-3.473L74.392,17.07h365.227l57.318,106.445c1.492,2.771,4.388,4.496,7.535,4.489
			c1.41,0.002,2.798-0.35,4.036-1.024C512.66,124.75,514.219,119.577,511.99,115.425z"/>
	</g>
	<rect x="248.472" y="187.736" style="fill:#41767F;" width="17.067" height="85.333"/>
</g>
<g>
</g>
<g>
</g>
<g>
</g>
<g>
</g>
<g>
</g>
<g>
</g>
<g>
</g>
<g>
</g>
<g>
</g>
<g>
</g>
<g>
</g>
<g>
</g>
<g>
</g>
<g>
</g>
<g>
</g>
</svg>
