<svg width="409.6" height="409.6" xmlns="http://www.w3.org/2000/svg" version="1.1" xml:space="preserve">
 <g>
  <title>Layer 1</title>
  <g id="svg_141" stroke="null">
   <g id="svg_126" stroke="null"/>
   <g id="svg_127" stroke="null"/>
   <g id="svg_128" stroke="null"/>
   <g id="svg_129" stroke="null"/>
   <g id="svg_130" stroke="null"/>
   <g id="svg_131" stroke="null"/>
   <g id="svg_132" stroke="null"/>
   <g id="svg_133" stroke="null"/>
   <g id="svg_134" stroke="null"/>
   <g id="svg_135" stroke="null"/>
   <g id="svg_136" stroke="null"/>
   <g id="svg_137" stroke="null"/>
   <g id="svg_138" stroke="null"/>
   <g id="svg_139" stroke="null"/>
   <g id="svg_140" stroke="null"/>
  </g>
  <g stroke="null" id="svg_1">
   <g stroke="null" id="svg_175">
    <g stroke="null" id="svg_146">
     <polygon stroke="null" points="354.6279296875,93.67840558290482 324.8221130371094,88.84819012880325 319.9554443359375,60.47306424379349 315.69781494140625,89.45212537050247 287.7162170410156,93.67840558290482 315.69781494140625,97.90413647890091 319.9554443359375,126.88317090272903 324.8221130371094,98.50807934999466 " fill="#FFD15C" id="svg_147"/>
     <polygon stroke="null" points="113.74520874023438,60.47306424379349 112.52881622314453,71.94412213563919 100.36319732666016,73.75532513856888 111.92031860351562,75.56649762392044 113.74520874023438,87.03701001405716 116.17855834960938,75.56649762392044 127.73625946044922,73.75532513856888 115.570068359375,71.94412213563919 " fill="#FFD15C" id="svg_148"/>
    </g>
    <polygon stroke="null" points="97.32138061523438,97.30080395936966 94.28010559082031,76.77377301454544 91.23884582519531,97.30080395936966 71.1653060913086,100.31925183534622 91.23884582519531,103.94162732362747 94.28010559082031,124.46862012147903 97.32138061523438,103.94162732362747 118.61188507080078,100.31925183534622 " fill="#CDD6E0" id="svg_149"/>
    <polygon stroke="null" points="254.86862182617188,182.42672711610794 217.7627716064453,112.39367657899857 202.55587768554688,112.39367657899857 161.19180297851562,182.42672711610794 " fill="#84DBFF" id="svg_150"/>
    <polygon stroke="null" points="302.31524658203125,112.39367657899857 217.7627716064453,112.39367657899857 254.86862182617188,182.42672711610794 " fill="#54C0EB" id="svg_151"/>
    <polygon stroke="null" points="353.4115295410156,182.42672711610794 302.9236755371094,112.39367657899857 302.31524658203125,112.39367657899857 254.86862182617188,182.42672711610794 " fill="#84DBFF" id="svg_152"/>
    <polygon stroke="null" points="208.63839721679688,350.2634885907173 254.86862182617188,182.42672711610794 161.19180297851562,182.42672711610794 " fill="#F2F2F2" id="svg_153"/>
    <polygon stroke="null" points="202.55587768554688,112.39367657899857 114.96215057373047,112.39367657899857 161.19180297851562,182.42672711610794 " fill="#54C0EB" id="svg_154"/>
    <polygon stroke="null" points="114.96215057373047,112.39367657899857 114.35366821289062,112.39367657899857 63.865821838378906,182.42672711610794 161.19180297851562,182.42672711610794 " fill="#84DBFF" id="svg_155"/>
    <polygon stroke="null" points="353.4115295410156,182.42672711610794 208.63839721679688,350.2634885907173 63.865821838378906,182.42672711610794 161.19180297851562,182.42672711610794 208.63839721679688,350.2634885907173 254.86862182617188,182.42672711610794 " fill="#54C0EB" id="svg_156"/>
    <g stroke="null" id="svg_157">
     <polygon stroke="null" points="254.86862182617188,163.71093732118607 252.43528747558594,179.407699406147 236.011474609375,181.82283002138138 252.43528747558594,184.23793011903763 254.86862182617188,201.1419981122017 257.30194091796875,184.23793011903763 273.72576904296875,181.82283002138138 257.30194091796875,179.407699406147 " fill="#FFFFFF" id="svg_158"/>
     <polygon stroke="null" points="135.6436004638672,128.6943662762642 133.21087646484375,144.3917539715767 116.7870101928711,146.8063047528267 132.6023406982422,149.22140485048294 135.6436004638672,166.12602216005325 138.07699584960938,149.82528668642044 154.5008087158203,146.8063047528267 138.07699584960938,144.3917539715767 " fill="#FFFFFF" id="svg_159"/>
    </g>
    <g stroke="null" id="svg_160"/>
    <g stroke="null" id="svg_161"/>
    <g stroke="null" id="svg_162"/>
    <g stroke="null" id="svg_163"/>
    <g stroke="null" id="svg_164"/>
    <g stroke="null" id="svg_165"/>
    <g stroke="null" id="svg_166"/>
    <g stroke="null" id="svg_167"/>
    <g stroke="null" id="svg_168"/>
    <g stroke="null" id="svg_169"/>
    <g stroke="null" id="svg_170"/>
    <g stroke="null" id="svg_171"/>
    <g stroke="null" id="svg_172"/>
    <g stroke="null" id="svg_173"/>
    <g stroke="null" id="svg_174"/>
   </g>
   <g stroke="null" id="svg_65">
    <g stroke="null" id="svg_56">
     <path stroke="null" d="m356.3616,311.21474c4.0226,-24.23034 19.1429,-27.80827 26.65993,-25.08114c8.57035,3.10886 8.85486,14.18073 7.52307,22.91206c-4.32377,28.34366 -22.80532,42.16531 -34.19511,32.99724l0.01362,25.07144c12.68072,-4.44654 41.3232,-18.49625 46.89248,-55.90931c6.29117,-42.31574 -29.55808,-47.1521 -46.84557,-31.47355l-0.04843,31.48326l0.00001,-0.00001z" fill="#ffdfb8" id="svg_57"/>
     <path stroke="null" d="m350.14608,269.7058a13.40563,14.32792 0 0 1 -10.74509,-3.48736a13.45406,14.37969 0 0 1 -21.4811,-1.12256a17.07864,18.25362 0 0 1 -22.26655,6.77252l0,11.83048a9.05311,9.67596 0 0 1 -18.10624,0l-0.0106,-12.2931a13.42682,14.35056 0 0 1 -10.33496,-5.18736a13.39202,14.31337 0 0 1 -16.96362,0.74244l0,124.9787a6.05357,6.47005 0 0 0 6.05357,6.47005l94.01652,0a6.05357,6.47005 0 0 0 6.05357,-6.47005l0,-124.9787a13.32845,14.24542 0 0 1 -6.2155,2.74492l0.00001,0.00001z" fill="#f2bf3e" id="svg_58"/>
     <path stroke="null" d="m356.35554,367.10626l0,25.92872a6.05357,6.47005 0 0 1 -6.05357,6.47005l-94.01198,0a6.05357,6.47005 0 0 1 -6.05357,-6.47005l0,-25.92872l4.73692,5.9848a22.713,24.27562 0 0 0 17.29808,8.54047l62.04912,0a22.713,24.27562 0 0 0 17.29808,-8.54047l4.73692,-5.9848l0.00001,0z" fill="#fff1d7" id="svg_59"/>
     <path stroke="null" d="m355.88639,244.68c0.01664,-0.31218 0.04388,-0.61951 0.04388,-0.93492a15.61973,16.69434 0 0 0 -19.20496,-16.2932a12.31448,13.1617 0 0 0 -19.20496,-6.53475a17.19971,18.38303 0 0 0 -28.45179,0a12.31448,13.1617 0 0 0 -19.20647,6.53475a15.61973,16.69434 0 0 0 -19.19739,16.2932c0,0.32351 0.02876,0.62274 0.04388,0.93492a13.44802,14.37322 0 1 0 16.48539,22.64517a13.42682,14.35056 0 0 0 10.34404,5.18736l0.0106,12.2931a9.05311,9.67596 0 0 0 18.10624,0l0,-11.83534a17.07864,18.25362 0 0 0 22.26353,-6.77252a13.45406,14.37969 0 0 0 21.4811,1.12256a13.44802,14.37322 0 1 0 16.48387,-22.64517l0.00303,0.00485z" fill="#fff1d7" id="svg_60"/>
     <g stroke="null" fill="#f7b521" id="svg_61">
      <path stroke="null" d="m329.8197,357.24429a2.64843,2.83065 0 0 1 -2.64843,-2.83065l0,-42.68938a2.64843,2.83065 0 0 1 5.29688,0l0,42.68938a2.64843,2.83065 0 0 1 -2.64843,2.83065l-0.00001,0z" id="svg_62"/>
      <path stroke="null" d="m276.76014,357.24429a2.64843,2.83065 0 0 1 -2.64843,-2.83065l0,-42.68938a2.64843,2.83065 0 0 1 5.29688,0l0,42.68938a2.64995,2.83227 0 0 1 -2.64843,2.83065l-0.00001,0z" id="svg_63"/>
      <path stroke="null" d="m303.28992,357.24429a2.64843,2.83065 0 0 1 -2.64843,-2.83065l0,-42.68938a2.64843,2.83065 0 0 1 5.29688,0l0,42.68938a2.64843,2.83065 0 0 1 -2.64843,2.83065l-0.00001,0z" id="svg_64"/>
     </g>
    </g>
   </g>
   <g stroke="null" id="svg_112">
    <g stroke="null" id="svg_70">
     <g stroke="null" transform="matrix(1.07263 -0.140371 0.137769 1.09289 -35.9924 -11.1305)" id="svg_71">
      <path stroke="null" d="m186.58975,70.78895s0.51601,-23.29062 -18.58083,-26.68742c-17.7949,-3.16523 -54.13664,3.37258 -87.24518,36.22927c-4.47929,4.44532 -5.90507,10.99978 -3.65195,16.81562l4.78398,12.34836l104.69399,-38.70583l-0.00001,0z" fill="#f4498b" id="svg_72"/>
     </g>
     <g stroke="null" transform="matrix(1.07263 -0.140371 0.137769 1.09289 -36.909 -12.8543)" id="svg_73">
      <path stroke="null" d="m160.64165,66.02281c-32.05425,0 -37.68979,-12.56139 -37.71088,-12.60831c-13.35154,5.75303 -27.71949,14.87449 -41.52572,28.57596c-4.47929,4.44532 -5.90507,10.99978 -3.65195,16.81562l4.78398,12.34836l75.2288,-27.81238l2.87578,-17.31926l-0.00001,0.00001z" fill="#ff4c82" id="svg_74"/>
     </g>
     <g stroke="null" transform="matrix(1.07263 -0.140371 0.137769 1.09289 -33.0437 -6.77422)" id="svg_75">
      <path stroke="null" d="m163.54172,64.38196c-0.01172,0 -0.02383,0 -0.03594,0c-1.61797,-0.01854 -2.91367,-1.30431 -2.89414,-2.8716l0.10937,-8.88496c0.01914,-1.55556 1.32695,-2.80424 2.92851,-2.80424l0.03594,0c1.61797,0.01854 2.91367,1.30431 2.89414,2.8716l-0.10937,8.88496c-0.01914,1.55594 -1.32734,2.80424 -2.92851,2.80424z" fill="#f9669a" id="svg_76"/>
     </g>
     <g stroke="null" transform="matrix(1.07263 -0.140371 0.137769 1.09289 -33.4006 -8.45287)" id="svg_77">
      <path stroke="null" d="m152.82891,65.93581c-1.25664,0 -2.41797,-0.78932 -2.80234,-2.01417l-2.61836,-8.35484c-0.46992,-1.49956 0.40391,-3.08463 1.95234,-3.53983c1.54609,-0.45445 3.18398,0.39163 3.65429,1.89119l2.61836,8.35484c0.46992,1.49956 -0.40391,3.08463 -1.95234,3.53983c-0.2832,0.08325 -0.56992,0.12298 -0.85195,0.12298z" fill="#f96695" id="svg_78"/>
     </g>
     <g stroke="null" transform="matrix(1.07263 -0.140371 0.137769 1.09289 -37.6993 -15.4012)" id="svg_79">
      <path stroke="null" d="m102.53893,93.20894c-0.97187,0 -1.92226,-0.46807 -2.47968,-1.32247l-4.60273,-7.05734c-0.86406,-1.32512 -0.45586,-3.07782 0.91211,-3.91519c1.36797,-0.83662 3.17734,-0.4412 4.04179,0.88354l4.60273,7.05734c0.86406,1.32512 0.45586,3.07782 -0.91211,3.91519c-0.48594,0.29704 -1.02734,0.43893 -1.56211,0.43893z" fill="#f96695" id="svg_80"/>
     </g>
     <g stroke="null" transform="matrix(1.07263 -0.140371 0.137769 1.09289 -47.0237 -10.8218)" id="svg_81">
      <path stroke="null" d="m169.07115,161.67385s-3.4957,22.13881 -24.08434,22.35751c-13.47889,0.14341 -35.51714,-14.42534 -49.13079,-24.50412c-7.22577,-5.34967 -9.97655,-14.65313 -6.78124,-22.90126l3.10156,-8.00596l76.89481,33.05382l0,0.00001z" fill="#ff4c82" id="svg_82"/>
     </g>
     <g stroke="null" transform="matrix(1.07263 -0.140371 0.137769 1.09289 -41.3068 -7.57797)" id="svg_83">
      <path stroke="null" d="m223.99764,134.4868l-32.123,-66.2696c-7.74296,-3.92768 -16.59529,-6.42581 -26.58941,-6.42581c-29.18316,0 -61.19366,21.29121 -81.13855,37.30049l0,34.75771c19.94489,16.00928 51.955,37.30049 81.13855,37.30049c28.79488,0 48.11477,-20.73082 58.71241,-36.66328z" fill="#f96692" id="svg_84"/>
     </g>
     <g stroke="null" transform="matrix(1.07263 -0.140371 0.137769 1.09289 -43.296 -8.30261)" id="svg_85">
      <path stroke="null" d="m210.1356,153.93906c-86.62839,2.43607 -109.60453,-64.93086 -109.60492,-64.93162c-5.35351,3.72449 -10.28631,7.47357 -14.64334,10.97102l0,34.75771c19.94489,16.00928 51.955,37.30049 81.13855,37.30049c18.01794,0 32.32652,-8.11797 43.1097,-18.09761l0.00001,0.00001z" fill="#f4496b" id="svg_86"/>
     </g>
     <g stroke="null" transform="matrix(1.07263 -0.140371 0.137769 1.09289 -43.3086 -18.0919)" id="svg_87">
      <path stroke="null" d="m84.76709,108.79191c-2.77187,2.22493 -5.31249,4.34845 -7.57811,6.29791c-4.19492,3.60946 -10.77655,2.06525 -12.86443,-2.97944c-0.01719,-0.04124 -0.03711,-0.08173 -0.0543,-0.12298l0.54101,29.01755c0.00781,-0.02119 0.0168,-0.042 0.02461,-0.06319c1.90508,-5.19566 8.6953,-6.81782 12.96131,-3.16788c2.10898,1.80416 4.44335,3.74833 6.96991,5.77611c0,-8.68933 8.06405,-8.68933 8.06405,-17.37905s-8.06366,-8.68971 -8.06405,-17.37905l0,0.00002z" fill="#ff4c76" id="svg_88"/>
     </g>
     <g stroke="null" transform="matrix(1.07263 -0.140371 0.137769 1.09289 -44.2395 -21.9242)" id="svg_89">
      <path stroke="null" d="m42.68324,96.0097c-4.71562,0 -8.53827,3.70292 -8.53827,8.27083c0,2.43796 0.31133,4.80554 0.89765,7.06718c3.37773,13.03211 3.37773,26.59434 0,39.62645c-0.58633,2.26125 -0.89765,4.62884 -0.89765,7.0668c0,4.56792 3.82265,8.27083 8.53827,8.27083c5.87812,0 11.35975,-4.45856 15.98162,-10.19986c12.79803,-15.89727 12.041,-38.56923 -2.37695,-53.10733c-4.08046,-4.11498 -8.70507,-6.99491 -13.60467,-6.99491l0,0.00001z" fill="#f96692" id="svg_90"/>
     </g>
     <g stroke="null" transform="matrix(1.07263 -0.140371 0.137769 1.09289 -37.7219 0.0841716)" id="svg_91">
      <path stroke="null" d="m229.97839,112.40377c0.97734,-2.06714 0.97734,-4.43775 0,-6.50489c-4.16718,-8.81345 -17.39255,-33.27745 -40.5058,-45.00109l0,35.15275c0,17.18531 14.38201,31.11685 32.123,31.11685c4.06015,-6.1038 6.84218,-11.50455 8.3828,-14.76362z" fill="#f44974" id="svg_92"/>
     </g>
     <g stroke="null" transform="matrix(1.07263 -0.140371 0.137769 1.09289 -43.4423 -5.55803)" id="svg_93">
      <path stroke="null" d="m147.68676,132.8247c0,9.66369 6.81913,17.75252 16.18162,19.82041c2.68046,0.59218 5.4871,-0.21606 7.43475,-2.0959l14.06404,-13.57434c2.37226,-2.28963 2.37226,-6.01034 0,-8.29997l-14.06404,-13.57472c-1.94765,-1.87984 -4.75429,-2.6877 -7.43475,-2.0959c-9.3621,2.0679 -16.18162,10.15673 -16.18162,19.82041l0,0.00001z" fill="#f4497c" id="svg_94"/>
     </g>
     <g stroke="null" transform="matrix(1.07263 -0.140371 0.137769 1.09289 -43.6085 -6.36046)" id="svg_95">
      <path stroke="null" d="m147.74642,133.56666c0,9.66369 6.81913,17.75252 16.18162,19.82041c2.68046,0.5918 5.4871,-0.21606 7.43475,-2.0959l4.18281,-4.03741c-20.3652,-8.15959 -11.61756,-33.50751 -11.61756,-33.50751c-9.3621,2.0679 -16.18162,10.15673 -16.18162,19.82041z" fill="#ff4c7c" id="svg_96"/>
     </g>
     <g stroke="null" transform="matrix(1.07263 -0.140371 0.137769 1.09289 -44.2808 -22.1412)" id="svg_97">
      <g stroke="null" id="svg_98">
       <path stroke="null" d="m52.59445,119.76429c-0.78867,0 -1.575,-0.3065 -2.15234,-0.91192l-6.44452,-6.75539c-1.09805,-1.15106 -1.025,-2.94652 0.16328,-4.01055c1.18828,-1.06365 3.04179,-0.99289 4.14023,0.15817l6.44452,6.75539c1.09805,1.15106 1.025,2.94652 -0.16328,4.01055c-0.56367,0.50401 -1.27695,0.75375 -1.98789,0.75375z" fill="#ff4c76" id="svg_99"/>
      </g>
      <g stroke="null" id="svg_100">
       <path stroke="null" d="m46.14837,155.38889c-0.71094,0 -1.42422,-0.24936 -1.9875,-0.75375c-1.18828,-1.06403 -1.26133,-2.85911 -0.16328,-4.01055l6.44452,-6.75539c1.09844,-1.15106 2.95156,-1.22182 4.14023,-0.15817c1.18828,1.06403 1.26133,2.85911 0.16328,4.01055l-6.44452,6.75539c-0.57773,0.60542 -1.36406,0.91192 -2.15273,0.91192z" fill="#ff4c76" id="svg_101"/>
      </g>
      <g stroke="null" id="svg_102">
       <path stroke="null" d="m51.38391,134.19909l-3.6289,0c-1.61797,0 -2.92968,-1.27063 -2.92968,-2.83792s1.31172,-2.83792 2.92968,-2.83792l3.6289,0c1.61797,0 2.92968,1.27063 2.92968,2.83792s-1.31172,2.83792 -2.92968,2.83792z" fill="#ff4c76" id="svg_103"/>
      </g>
     </g>
     <g stroke="null" transform="matrix(1.07263 -0.140371 0.137769 1.09289 -38.4937 0.145458)" id="svg_104">
      <g stroke="null" id="svg_105">
       <path stroke="null" d="m210.17028,104.82061c-1.61836,0 -2.92968,-1.27063 -2.92968,-2.83792l0,-4.68673c0,-1.56729 1.31133,-2.83792 2.92968,-2.83792s2.92968,1.27063 2.92968,2.83792l0,4.68673c0,1.56729 -1.31133,2.83792 -2.92968,2.83792z" fill="#636978" id="svg_106"/>
      </g>
     </g>
     <g stroke="null" transform="matrix(1.07263 -0.140371 0.137769 1.09289 -43.5191 -5.96135)" id="svg_107">
      <g stroke="null" id="svg_108">
       <path stroke="null" d="m167.44212,130.6597c-0.25117,0 -0.50625,-0.03141 -0.76016,-0.09725l-5.84179,-1.51621c-1.56289,-0.40563 -2.49023,-1.96195 -2.07148,-3.47588c0.41875,-1.51356 2.02539,-2.41299 3.58828,-2.00698l5.84179,1.51621c1.56289,0.40563 2.49023,1.96195 2.07148,3.47588c-0.35078,1.2676 -1.53437,2.10422 -2.82812,2.10422l0,0.00001z" fill="#f47098" id="svg_109"/>
      </g>
      <g stroke="null" id="svg_110">
       <path stroke="null" d="m161.59643,142.92709c-1.29375,0 -2.47734,-0.83624 -2.82773,-2.10422c-0.41875,-1.51394 0.50859,-3.07025 2.07148,-3.47588l5.84179,-1.51621c1.56367,-0.40488 3.16953,0.49304 3.58828,2.0066c0.41875,1.51394 -0.50859,3.07025 -2.07148,3.47588l-5.84179,1.51621c-0.2543,0.06622 -0.50937,0.09762 -0.76055,0.09762z" fill="#f47098" id="svg_111"/>
      </g>
     </g>
    </g>
   </g>
  </g>
 </g>

</svg>