<svg width="409.6" height="409.6" xmlns="http://www.w3.org/2000/svg" xml:space="preserve" version="1.1">

 <g>
  <title>Layer 1</title>
  <g stroke="null" id="svg_141">
   <g stroke="null" id="svg_126"/>
   <g stroke="null" id="svg_127"/>
   <g stroke="null" id="svg_128"/>
   <g stroke="null" id="svg_129"/>
   <g stroke="null" id="svg_130"/>
   <g stroke="null" id="svg_131"/>
   <g stroke="null" id="svg_132"/>
   <g stroke="null" id="svg_133"/>
   <g stroke="null" id="svg_134"/>
   <g stroke="null" id="svg_135"/>
   <g stroke="null" id="svg_136"/>
   <g stroke="null" id="svg_137"/>
   <g stroke="null" id="svg_138"/>
   <g stroke="null" id="svg_139"/>
   <g stroke="null" id="svg_140"/>
  </g>
  <g stroke="null" id="svg_175">
   <g stroke="null" id="svg_146">
    <polygon stroke="null" id="svg_147" fill="#FFD15C" points="347.73297119140625,110.9355697631836 320.1717224121094,106.55189514160156 315.6715393066406,80.79998016357422 311.7344970703125,107.09999084472656 285.8601379394531,110.9355697631836 311.7344970703125,114.77064514160156 315.6715393066406,141.0706329345703 320.1717224121094,115.3187484741211 "/>
    <polygon stroke="null" id="svg_148" fill="#FFD15C" points="124.99014282226562,80.79998016357422 123.8653564453125,91.2105712890625 112.61589050292969,92.85433197021484 123.30268096923828,94.4980697631836 124.99014282226562,104.90814971923828 127.24024963378906,94.4980697631836 137.92758178710938,92.85433197021484 126.67758178710938,91.2105712890625 "/>
   </g>
   <polygon stroke="null" id="svg_149" fill="#CDD6E0" points="109.8031234741211,114.22308349609375 106.99088287353516,95.59373474121094 104.17864990234375,114.22308349609375 85.61676025390625,116.96248626708984 104.17864990234375,120.24998474121094 106.99088287353516,138.87930297851562 109.8031234741211,120.24998474121094 129.49034118652344,116.96248626708984 "/>
   <polygon stroke="null" id="svg_150" fill="#84DBFF" points="255.48611450195312,191.4793243408203 221.174560546875,127.92066192626953 207.1128387451172,127.92066192626953 168.86373901367188,191.4793243408203 "/>
   <polygon stroke="null" id="svg_151" fill="#54C0EB" points="299.3597412109375,127.92066192626953 221.174560546875,127.92066192626953 255.48611450195312,191.4793243408203 "/>
   <polygon stroke="null" id="svg_152" fill="#84DBFF" points="346.6081848144531,191.4793243408203 299.9223327636719,127.92066192626953 299.3597412109375,127.92066192626953 255.48611450195312,191.4793243408203 "/>
   <polygon stroke="null" id="svg_153" fill="#F2F2F2" points="212.73731994628906,343.79998779296875 255.48611450195312,191.4793243408203 168.86373901367188,191.4793243408203 "/>
   <polygon stroke="null" id="svg_154" fill="#54C0EB" points="207.1128387451172,127.92066192626953 126.11544799804688,127.92066192626953 168.86373901367188,191.4793243408203 "/>
   <polygon stroke="null" id="svg_155" fill="#84DBFF" points="126.11544799804688,127.92066192626953 125.55278015136719,127.92066192626953 78.86697387695312,191.4793243408203 168.86373901367188,191.4793243408203 "/>
   <polygon stroke="null" id="svg_156" fill="#54C0EB" points="346.6081848144531,191.4793243408203 212.73731994628906,343.79998779296875 78.86697387695312,191.4793243408203 168.86373901367188,191.4793243408203 212.73731994628906,343.79998779296875 255.48611450195312,191.4793243408203 "/>
   <g stroke="null" id="svg_157">
    <polygon stroke="null" id="svg_158" fill="#FFFFFF" points="255.48611450195312,174.49375915527344 253.23602294921875,188.73939514160156 238.0490264892578,190.93125915527344 253.23602294921875,193.12307739257812 255.48611450195312,208.46441650390625 257.7362060546875,193.12307739257812 272.9232177734375,190.93125915527344 257.7362060546875,188.73939514160156 "/>
    <polygon stroke="null" id="svg_159" fill="#FFFFFF" points="145.23947143554688,142.71438598632812 142.98992919921875,156.96058654785156 127.80288696289062,159.15191650390625 142.42723083496094,161.34375 145.23947143554688,176.68557739257812 147.48959350585938,161.89181518554688 162.67660522460938,159.15191650390625 147.48959350585938,156.96058654785156 "/>
   </g>
   <g stroke="null" id="svg_160"/>
   <g stroke="null" id="svg_161"/>
   <g stroke="null" id="svg_162"/>
   <g stroke="null" id="svg_163"/>
   <g stroke="null" id="svg_164"/>
   <g stroke="null" id="svg_165"/>
   <g stroke="null" id="svg_166"/>
   <g stroke="null" id="svg_167"/>
   <g stroke="null" id="svg_168"/>
   <g stroke="null" id="svg_169"/>
   <g stroke="null" id="svg_170"/>
   <g stroke="null" id="svg_171"/>
   <g stroke="null" id="svg_172"/>
   <g stroke="null" id="svg_173"/>
   <g stroke="null" id="svg_174"/>
  </g>
  <g stroke="null" id="svg_65">
   <g stroke="null" id="svg_56">
    <path stroke="null" id="svg_57" fill="#ffdfb8" d="m349.33608,308.3612c3.71967,-21.9903 17.70133,-25.23746 24.65228,-22.76245c7.92495,2.82145 8.18804,12.86976 6.95654,20.7939c-3.99816,25.72336 -21.08794,38.26723 -31.62002,29.94673l0.01259,22.75365c11.72579,-4.03547 38.21132,-16.78632 43.3612,-50.74063c5.81741,-38.40375 -27.33218,-42.793 -43.31782,-28.5639l-0.04478,28.57271z"/>
    <path stroke="null" id="svg_58" fill="#f2bf3e" d="m343.58863,270.68966a12.39611,13.00334 0 0 1 -9.93592,-3.16496a12.44089,13.05032 0 0 1 -19.86345,-1.01878a15.79252,16.56612 0 0 1 -20.58975,6.14642l0,10.73678a8.37136,8.78144 0 0 1 -16.74273,0l-0.0098,-11.15663a12.4157,13.02389 0 0 1 -9.55668,-4.7078a12.38352,12.99013 0 0 1 -15.68616,0.6738l0,113.42472a5.5977,5.87191 0 0 0 5.5977,5.87191l86.93652,0a5.5977,5.87191 0 0 0 5.5977,-5.87191l0,-113.42472a12.32474,12.92847 0 0 1 -5.74744,2.49116z"/>
    <path stroke="null" id="svg_59" fill="#fff1d7" d="m349.33048,359.08568l0,23.53167a5.5977,5.87191 0 0 1 -5.5977,5.87191l-86.93232,0a5.5977,5.87191 0 0 1 -5.5977,-5.87191l0,-23.53167l4.3802,5.43152a21.00258,22.0314 0 0 0 15.99543,7.75092l57.37645,0a21.00258,22.0314 0 0 0 15.99543,-7.75092l4.3802,-5.43152z"/>
    <path stroke="null" id="svg_60" fill="#fff1d7" d="m348.89666,247.97743c0.01539,-0.28332 0.04058,-0.56224 0.04058,-0.84849a14.44347,15.15099 0 0 0 -17.75871,-14.78693a11.38713,11.94493 0 0 0 -17.75871,-5.93063a15.90447,16.68356 0 0 0 -26.3092,0a11.38713,11.94493 0 0 0 -17.76011,5.93063a14.44347,15.15099 0 0 0 -17.75171,14.78693c0,0.2936 0.02659,0.56517 0.04058,0.84849a12.4353,13.04445 0 1 0 15.24394,20.55168a12.4157,13.02389 0 0 0 9.56507,4.7078l0.0098,11.15663a8.37136,8.78144 0 0 0 16.74273,0l0,-10.74119a15.79252,16.56612 0 0 0 20.58695,-6.14642a12.44089,13.05032 0 0 0 19.86345,1.01878a12.4353,13.04445 0 1 0 15.24254,-20.55168l0.0028,0.0044z"/>
    <g stroke="null" id="svg_61" fill="#f7b521">
     <path stroke="null" id="svg_62" d="m324.79295,350.13543a2.44899,2.56896 0 0 1 -2.44899,-2.56896l0,-38.74285a2.44899,2.56896 0 0 1 4.89799,0l0,38.74285a2.44899,2.56896 0 0 1 -2.44899,2.56896z"/>
     <path stroke="null" id="svg_63" d="m275.72909,350.13543a2.44899,2.56896 0 0 1 -2.44899,-2.56896l0,-38.74285a2.44899,2.56896 0 0 1 4.89799,0l0,38.74285a2.45039,2.57043 0 0 1 -2.44899,2.56896z"/>
     <path stroke="null" id="svg_64" d="m300.26102,350.13543a2.44899,2.56896 0 0 1 -2.44899,-2.56896l0,-38.74285a2.44899,2.56896 0 0 1 4.89799,0l0,38.74285a2.44899,2.56896 0 0 1 -2.44899,2.56896z"/>
    </g>
   </g>
  </g>
  <g stroke="null" id="svg_112">
   <g stroke="null" id="svg_70">
    <g transform="rotate(-7.31903 126.521 74.9043)" stroke="null" id="svg_71">
     <path stroke="null" id="svg_72" fill="#f4498b" d="m181.78652,69.25219s0.51601,-23.29062 -18.58083,-26.68742c-17.7949,-3.16523 -54.13664,3.37258 -87.24518,36.22927c-4.47929,4.44532 -5.90507,10.99978 -3.65195,16.81562l4.78398,12.34836l104.69399,-38.70583z"/>
    </g>
    <g transform="rotate(-7.31903 113.867 80.7477)" stroke="null" id="svg_73">
     <path stroke="null" id="svg_74" fill="#ff4c82" d="m155.83842,64.48605c-32.05425,0 -37.68979,-12.56139 -37.71088,-12.60831c-13.35154,5.75303 -27.71949,14.87449 -41.52572,28.57596c-4.47929,4.44532 -5.90507,10.99978 -3.65195,16.81562l4.78398,12.34836l75.2288,-27.81238l2.87578,-17.31926z"/>
    </g>
    <g transform="rotate(-7.31903 158.792 55.5648)" stroke="null" id="svg_75">
     <path stroke="null" id="svg_76" fill="#f9669a" d="m158.73849,62.8452c-0.01172,0 -0.02383,0 -0.03594,0c-1.61797,-0.01854 -2.91367,-1.30431 -2.89414,-2.8716l0.10937,-8.88496c0.01914,-1.55556 1.32695,-2.80424 2.92851,-2.80424l0.03594,0c1.61797,0.01854 2.91367,1.30431 2.89414,2.8716l-0.10937,8.88496c-0.01914,1.55594 -1.32734,2.80424 -2.92851,2.80424z"/>
    </g>
    <g transform="rotate(-7.31903 146.717 57.3832)" stroke="null" id="svg_77">
     <path stroke="null" id="svg_78" fill="#f96695" d="m148.02568,64.39905c-1.25664,0 -2.41797,-0.78932 -2.80234,-2.01417l-2.61836,-8.35484c-0.46992,-1.49956 0.40391,-3.08463 1.95234,-3.53983c1.54609,-0.45445 3.18398,0.39163 3.65429,1.89119l2.61836,8.35484c0.46992,1.49956 -0.40391,3.08463 -1.95234,3.53983c-0.2832,0.08325 -0.56992,0.12298 -0.85195,0.12298z"/>
    </g>
    <g transform="rotate(-7.31903 95.4316 85.3053)" stroke="null" id="svg_79">
     <path stroke="null" id="svg_80" fill="#f96695" d="m97.7357,91.67218c-0.97187,0 -1.92226,-0.46807 -2.47968,-1.32247l-4.60273,-7.05734c-0.86406,-1.32512 -0.45586,-3.07782 0.91211,-3.91519c1.36797,-0.83662 3.17734,-0.4412 4.04179,0.88354l4.60273,7.05734c0.86406,1.32512 0.45586,3.07782 -0.91211,3.91519c-0.48594,0.29704 -1.02734,0.43893 -1.56211,0.43893z"/>
    </g>
    <g transform="rotate(-7.31903 123.611 154.789)" stroke="null" id="svg_81">
     <path stroke="null" id="svg_82" fill="#ff4c82" d="m164.26792,160.13709s-3.4957,22.13881 -24.08434,22.35751c-13.47889,0.14341 -35.51714,-14.42534 -49.13079,-24.50412c-7.22577,-5.34967 -9.97655,-14.65313 -6.78124,-22.90126l3.10156,-8.00596l76.89481,33.05382z"/>
    </g>
    <g transform="rotate(-7.31903 149.269 114.934)" stroke="null" id="svg_83">
     <path stroke="null" id="svg_84" fill="#f96692" d="m219.19441,132.95004l-32.123,-66.2696c-7.74296,-3.92768 -16.59529,-6.42581 -26.58941,-6.42581c-29.18316,0 -61.19366,21.29121 -81.13855,37.30049l0,34.75771c19.94489,16.00928 51.955,37.30049 81.13855,37.30049c28.79488,0 48.11477,-20.73082 58.71241,-36.66328z"/>
    </g>
    <g transform="rotate(-7.31903 143.208 128.985)" stroke="null" id="svg_85">
     <path stroke="null" id="svg_86" fill="#f4496b" d="m205.33237,152.4023c-86.62839,2.43607 -109.60453,-64.93086 -109.60492,-64.93162c-5.35351,3.72449 -10.28631,7.47357 -14.64334,10.97102l0,34.75771c19.94489,16.00928 51.955,37.30049 81.13855,37.30049c18.01794,0 32.32652,-8.11797 43.1097,-18.09761z"/>
    </g>
    <g transform="rotate(-7.31903 73.7475 124.634)" stroke="null" id="svg_87">
     <path stroke="null" id="svg_88" fill="#ff4c76" d="m79.96386,107.25515c-2.77187,2.22493 -5.31249,4.34845 -7.57811,6.29791c-4.19492,3.60946 -10.77655,2.06525 -12.86443,-2.97944c-0.01719,-0.04124 -0.03711,-0.08173 -0.0543,-0.12298l0.54101,29.01755c0.00781,-0.02119 0.0168,-0.042 0.02461,-0.06319c1.90508,-5.19566 8.6953,-6.81782 12.96131,-3.16788c2.10898,1.80416 4.44335,3.74833 6.96991,5.77611c0,-8.68933 8.06405,-8.68933 8.06405,-17.37905s-8.06366,-8.68971 -8.06405,-17.37905z"/>
    </g>
    <g transform="rotate(-7.31903 46.1274 129.624)" stroke="null" id="svg_89">
     <path stroke="null" id="svg_90" fill="#f96692" d="m37.88001,94.47294c-4.71562,0 -8.53827,3.70292 -8.53827,8.27083c0,2.43796 0.31133,4.80554 0.89765,7.06718c3.37773,13.03211 3.37773,26.59434 0,39.62645c-0.58633,2.26125 -0.89765,4.62884 -0.89765,7.0668c0,4.56792 3.82265,8.27083 8.53827,8.27083c5.87812,0 11.35975,-4.45856 15.98162,-10.19986c12.79803,-15.89727 12.041,-38.56923 -2.37695,-53.10733c-4.08046,-4.11498 -8.70507,-6.99491 -13.60467,-6.99491z"/>
    </g>
    <g transform="rotate(-7.31903 205.289 92.4958)" stroke="null" id="svg_91">
     <path stroke="null" id="svg_92" fill="#f44974" d="m225.17516,110.86701c0.97734,-2.06714 0.97734,-4.43775 0,-6.50489c-4.16718,-8.81345 -17.39255,-33.27745 -40.5058,-45.00109l0,35.15275c0,17.18531 14.38201,31.11685 32.123,31.11685c4.06015,-6.1038 6.84218,-11.50455 8.3828,-14.76362z"/>
    </g>
    <g transform="rotate(-7.31903 162.613 131.288)" stroke="null" id="svg_93">
     <path stroke="null" id="svg_94" fill="#f4497c" d="m142.88353,131.28794c0,9.66369 6.81913,17.75252 16.18162,19.82041c2.68046,0.59218 5.4871,-0.21606 7.43475,-2.0959l14.06404,-13.57434c2.37226,-2.28963 2.37226,-6.01034 0,-8.29997l-14.06404,-13.57472c-1.94765,-1.87984 -4.75429,-2.6877 -7.43475,-2.0959c-9.3621,2.0679 -16.18162,10.15673 -16.18162,19.82041z"/>
    </g>
    <g transform="rotate(-7.31903 156.843 132.125)" stroke="null" id="svg_95">
     <path stroke="null" id="svg_96" fill="#ff4c7c" d="m142.94319,132.0299c0,9.66369 6.81913,17.75252 16.18162,19.82041c2.68046,0.5918 5.4871,-0.21606 7.43475,-2.0959l4.18281,-4.03741c-20.3652,-8.15959 -11.61756,-33.50751 -11.61756,-33.50751c-9.3621,2.0679 -16.18162,10.15673 -16.18162,19.82041z"/>
    </g>
    <g transform="rotate(-7.31903 44.5684 129.824)" stroke="null" id="svg_97">
     <g stroke="null" id="svg_98">
      <path stroke="null" id="svg_99" fill="#ff4c76" d="m47.79122,118.22753c-0.78867,0 -1.575,-0.3065 -2.15234,-0.91192l-6.44452,-6.75539c-1.09805,-1.15106 -1.025,-2.94652 0.16328,-4.01055c1.18828,-1.06365 3.04179,-0.99289 4.14023,0.15817l6.44452,6.75539c1.09805,1.15106 1.025,2.94652 -0.16328,4.01055c-0.56367,0.50401 -1.27695,0.75375 -1.98789,0.75375z"/>
     </g>
     <g stroke="null" id="svg_100">
      <path stroke="null" id="svg_101" fill="#ff4c76" d="m41.34514,153.85213c-0.71094,0 -1.42422,-0.24936 -1.9875,-0.75375c-1.18828,-1.06403 -1.26133,-2.85911 -0.16328,-4.01055l6.44452,-6.75539c1.09844,-1.15106 2.95156,-1.22182 4.14023,-0.15817c1.18828,1.06403 1.26133,2.85911 0.16328,4.01055l-6.44452,6.75539c-0.57773,0.60542 -1.36406,0.91192 -2.15273,0.91192z"/>
     </g>
     <g stroke="null" id="svg_102">
      <path stroke="null" id="svg_103" fill="#ff4c76" d="m46.58068,132.66233l-3.6289,0c-1.61797,0 -2.92968,-1.27063 -2.92968,-2.83792s1.31172,-2.83792 2.92968,-2.83792l3.6289,0c1.61797,0 2.92968,1.27063 2.92968,2.83792s-1.31172,2.83792 -2.92968,2.83792z"/>
     </g>
    </g>
    <g transform="rotate(-7.31903 205.367 98.1026)" stroke="null" id="svg_104">
     <g stroke="null" id="svg_105">
      <path stroke="null" id="svg_106" fill="#636978" d="m205.36705,103.28385c-1.61836,0 -2.92968,-1.27063 -2.92968,-2.83792l0,-4.68673c0,-1.56729 1.31133,-2.83792 2.92968,-2.83792s2.92968,1.27063 2.92968,2.83792l0,4.68673c0,1.56729 -1.31133,2.83792 -2.92968,2.83792z"/>
     </g>
    </g>
    <g transform="rotate(-7.31903 159.716 131.66)" stroke="null" id="svg_107">
     <g stroke="null" id="svg_108">
      <path stroke="null" id="svg_109" fill="#f47098" d="m162.63889,129.12294c-0.25117,0 -0.50625,-0.03141 -0.76016,-0.09725l-5.84179,-1.51621c-1.56289,-0.40563 -2.49023,-1.96195 -2.07148,-3.47588c0.41875,-1.51356 2.02539,-2.41299 3.58828,-2.00698l5.84179,1.51621c1.56289,0.40563 2.49023,1.96195 2.07148,3.47588c-0.35078,1.2676 -1.53437,2.10422 -2.82812,2.10422z"/>
     </g>
     <g stroke="null" id="svg_110">
      <path stroke="null" id="svg_111" fill="#f47098" d="m156.7932,141.39033c-1.29375,0 -2.47734,-0.83624 -2.82773,-2.10422c-0.41875,-1.51394 0.50859,-3.07025 2.07148,-3.47588l5.84179,-1.51621c1.56367,-0.40488 3.16953,0.49304 3.58828,2.0066c0.41875,1.51394 -0.50859,3.07025 -2.07148,3.47588l-5.84179,1.51621c-0.2543,0.06622 -0.50937,0.09762 -0.76055,0.09762z"/>
     </g>
    </g>
   </g>
  </g>
 </g>
</svg>