<?xml version="1.0" encoding="iso-8859-1"?>
<!-- Generator: Adobe Illustrator 19.0.0, SVG Export Plug-In . SVG Version: 6.00 Build 0)  -->
<svg version="1.1" id="Capa_1" xmlns="http://www.w3.org/2000/svg" xmlns:xlink="http://www.w3.org/1999/xlink" x="0px" y="0px"
	 viewBox="0 0 512 512" style="enable-background:new 0 0 512 512;" xml:space="preserve">
<path style="fill:#E6EEFF;" d="M400.879,306.599L386.479,362h-257.1l-4.799-76.401l57.299-94.799V75c0-8.401,6.599-15,15-15h119.9
	c8.401,0,15,6.599,15,15v115.8l11.4,19.2L400.879,306.599z"/>
<path style="fill:#DAE2F2;" d="M400.879,306.599L386.479,362h-129.6V60h59.9c8.401,0,15,6.599,15,15v115.8l11.4,19.2
	L400.879,306.599z"/>
<path style="fill:#B999FF;" d="M390.079,512h-268.2c-58.2,0-94.2-63.6-64.2-113.701l66.901-112.7
	c15.899-7.5,32.699-15.599,56.398-15.599c34.2,0,56.102,13.5,75.901,27.599C279.379,313.2,299.178,330,330.978,330
	c27.902,0,45.601-14.7,69.901-23.401l53.401,91.7C484.28,448.4,448.58,512,390.079,512z"/>
<path style="fill:#A680FF;" d="M390.079,512h-133.2V297.599C279.379,313.2,299.178,330,330.978,330
	c27.902,0,45.601-14.7,69.901-23.401l53.401,91.7C484.28,448.4,448.58,512,390.079,512z"/>
<path style="fill:#C4CAD9;" d="M315.946,90h-119.9c-24.814,0-45-20.186-45-45s20.186-45,45-45h120c24.814,0,45,20.186,45,45
	S340.761,90,315.946,90z"/>
<g>
	<path style="fill:#979CA7;" d="M331.779,120v30h-45.801c-8.099,0-15-6.601-15-15c0-8.401,6.901-15,15-15H331.779z"/>
	<path style="fill:#979CA7;" d="M343.179,210h-57.201c-8.099,0-15-6.601-15-15c0-8.401,6.901-15,15-15h45.801v10.8L343.179,210z"/>
</g>
<circle style="fill:#E6EEFF;" cx="166.05" cy="377" r="15"/>
<circle style="fill:#DAE2F2;" cx="346.05" cy="407" r="15"/>
<path style="fill:#B8BFCC;" d="M316.046,0h-59.167v90h59.067c24.814,0,45.1-20.186,45.1-45S340.86,0,316.046,0z"/>
<path style="fill:#E6EEFF;" d="M256.879,452L256.879,452c-8.284,0-15-6.716-15-15l0,0c0-8.284,6.716-15,15-15l0,0
	c8.284,0,15,6.716,15,15l0,0C271.879,445.284,265.163,452,256.879,452z"/>
<path style="fill:#DAE2F2;" d="M271.879,437c0-8.286-6.716-15-15-15v30C265.163,452,271.879,445.284,271.879,437z"/>
<g>
</g>
<g>
</g>
<g>
</g>
<g>
</g>
<g>
</g>
<g>
</g>
<g>
</g>
<g>
</g>
<g>
</g>
<g>
</g>
<g>
</g>
<g>
</g>
<g>
</g>
<g>
</g>
<g>
</g>
</svg>
