<?xml version="1.0" encoding="iso-8859-1"?>
<!-- Generator: Adobe Illustrator 21.0.0, SVG Export Plug-In . SVG Version: 6.00 Build 0)  -->
<svg xmlns="http://www.w3.org/2000/svg" xmlns:xlink="http://www.w3.org/1999/xlink" version="1.1" id="Capa_1" x="0px" y="0px" viewBox="0 0 512 512" style="enable-background:new 0 0 512 512;" xml:space="preserve" width="512" height="512">
<g>
	<path style="fill:#9FACBA;" d="M77,422H23.5v30h40.26l14.745-29.696C77.985,422.249,77.535,422,77,422z"/>
	<path style="fill:#C5D3DD;" d="M482,197.8l-30,241c-1.199,7.5-7.5,13.2-15,13.2H63.8L32,197.8c-0.515-7.198-1.551-5.403,3.6-11.7   C38.599,182.8,42.8,181,47,181h420c4.2,0,8.401,1.8,11.4,5.099C481.099,189.399,482.3,193.599,482,197.8z"/>
	<g>
		<path style="fill:#9FACBA;" d="M16,482c-8.291,0-15-6.709-15-15v-60c0-8.291,6.709-15,15-15s15,6.709,15,15v60    C31,475.291,24.291,482,16,482z"/>
	</g>
	<path style="fill:#9FACBA;" d="M482,197.8l-30,241c-1.199,7.5-7.5,13.2-15,13.2H257V181h210c4.2,0,8.401,1.8,11.4,5.099   C481.099,189.399,482.3,193.599,482,197.8z"/>
	<g>
		<path style="fill:#A0DEB0;" d="M160.994,151h-90c-5.771,0-11.016-3.311-13.521-8.496c-2.49-5.2-1.802-11.367,1.802-15.879    l96.006-121C158.138,2.08,162.444,0,166.985,0C167,0,167,0,167,0c4.556,0,8.848,2.065,11.704,5.61l45,56.104    c4.395,5.479,4.395,14.257,0.015,19.75l-51.006,63.896C169.871,148.92,165.55,151,160.994,151z"/>
	</g>
	<g>
		<g>
			<g>
				<g>
					<path style="fill:#B1EFAF;" d="M364.701,126.7l-96-121c-2.701-3.6-7.2-5.4-11.7-5.4s-9,1.8-11.7,5.4l-96,121       c-3.6,4.499-4.199,10.499-1.8,15.899C149.9,147.7,155.3,151,161,151H353c5.7,0,11.1-3.3,13.5-8.401       C368.899,137.199,368.301,131.199,364.701,126.7z"/>
				</g>
			</g>
		</g>
	</g>
	<g>
		<g>
			<g>
				<g>
					<path style="fill:#80D398;" d="M443.006,151h-90c-4.556,0-8.877-2.08-11.719-5.64l-51.006-63.896       c-4.38-5.493-4.38-14.271,0.015-19.75l45-56.104C338.152,2.065,342.444,0,347,0c0,0,0,0,0.015,0       c4.541,0,8.848,2.08,11.704,5.625l96.006,121c3.604,4.512,4.292,10.679,1.802,15.879C454.021,147.689,448.777,151,443.006,151z       "/>
				</g>
			</g>
		</g>
	</g>
	<path style="fill:#A0DEB0;" d="M366.501,142.599C364.1,147.7,358.7,151,353,151h-96V0.3c4.501,0,9,1.8,11.7,5.4l96,121   C368.301,131.199,368.899,137.199,366.501,142.599z"/>
	<g>
		<path style="fill:#3E5959;" d="M496,121H16c-8.401,0-15,6.599-15,15v60c0,8.399,6.599,15,15,15h480c8.401,0,15-6.601,15-15v-60    C511,127.599,504.401,121,496,121z"/>
	</g>
	<path style="fill:#293939;" d="M511,136v60c0,8.399-6.599,15-15,15H257v-90h239C504.401,121,511,127.599,511,136z"/>
	<g>
		<path style="fill:#3E5959;" d="M167,362c-8.291,0-15-6.709-15-15v-91c0-8.291,6.709-15,15-15s15,6.709,15,15v91    C182,355.291,175.291,362,167,362z"/>
	</g>
	<g>
		<path style="fill:#3E5959;" d="M272,256v91c0,8.399-6.599,15-15,15s-15-6.601-15-15v-91c0-8.401,6.599-15,15-15    S272,247.599,272,256z"/>
	</g>
	<g>
		<path style="fill:#293939;" d="M347,362c-8.291,0-15-6.709-15-15v-91c0-8.291,6.709-15,15-15s15,6.709,15,15v91    C362,355.291,355.291,362,347,362z"/>
	</g>
	<path style="fill:#3E5959;" d="M152,512c-33.091,0-60-26.909-60-60c0-7.031,1.187-13.652,3.633-20.229   C103.792,408.113,126.497,392,152,392s48.208,16.113,56.484,40.107C210.813,438.348,212,444.969,212,452   C212,485.091,185.091,512,152,512z"/>
	<path style="fill:#C5D3DD;" d="M152,482c-16.538,0-30-13.462-30-30c0-3.457,0.557-6.563,1.758-9.771   C128.021,429.852,139.285,422,152,422s24.023,7.998,28.125,19.893C181.473,445.525,182,448.602,182,452   C182,468.538,168.538,482,152,482z"/>
	<g>
		<path style="fill:#293939;" d="M362,512c-33.091,0-60-26.909-60-60c0-7.031,1.187-13.652,3.633-20.229    C313.792,408.113,336.497,392,362,392s48.208,16.113,56.484,40.107C420.813,438.348,422,444.969,422,452    C422,485.091,395.091,512,362,512z"/>
		<path style="fill:#9FACBA;" d="M362,482c-16.538,0-30-13.462-30-30c0-3.457,0.557-6.563,1.758-9.771    C338.021,429.852,349.285,422,362,422s24.023,7.998,28.125,19.893C391.473,445.525,392,448.602,392,452    C392,468.538,378.538,482,362,482z"/>
	</g>
	<path style="fill:#293939;" d="M272,256v91c0,8.399-6.599,15-15,15V241C265.401,241,272,247.599,272,256z"/>
</g>















</svg>
