<svg id="Capa_1" enable-background="new 0 0 497.005 497.005" height="512" viewBox="0 0 497.005 497.005" width="512" xmlns="http://www.w3.org/2000/svg"><g><path d="m298.412 0 30 45.01h-75c-.01 8.28-6.72 14.99-15 14.99-4.14 0-7.89-1.68-10.6-4.39s-4.39-6.46-4.4-10.6c.01-24.87 20.15-45.01 45-45.01z" fill="#ffd693"/><path d="m358.412 0h-45l60 120h30v-75c0-24.853-20.147-45-45-45z" fill="#817d93"/><path d="m328.412 0h-30v120h75v-75c0-24.853-20.147-45-45-45z" fill="#9a96b0"/><path d="m217.965 362.002-72.353 32.501-63.924 93.602.19.19c11.609 11.609 30.431 11.609 42.04 0l93.742-93.793c11.246-11.207 26.476-17.5 42.353-17.5z" fill="#817d93"/><path d="m403.411 90h-30v80l30-30c13.807 0 25-11.193 25-25s-11.193-25-25-25z" fill="#ffd693"/><path d="m398.411 115c0-13.807-11.193-25-25-25h-75c-13.807 0-25 11.193-25 25s11.193 25 25 25l37.5 30 37.5-30c13.807 0 25-11.193 25-25z" fill="#fff0b8"/><path d="m433.331 140h-29.92l-92.65 237h30c57.99 0 105-47.01 105-105v-41.99l17.57-17.57c7.96-7.96 12.43-18.75 12.43-30.01 0-23.43-19-42.43-42.43-42.43z" fill="#8d4426"/><path d="m433.361 152.46c7.841 7.862 12.623 18.773 12.392 30.803-.215 11.187-5.039 21.794-12.951 29.706l-17.041 17.041v41.99c0 57.99-47.01 105-105 105h-92.799c-15.87 0-31.1 6.3-42.35 17.5 0 0-93.92 93.6-93.9 93.63l-.22.16c-9.14 9.148-22.75 11.094-33.796 5.838-4.659-2.217-5.68-8.412-2.031-12.059l109.467-109.459 143.28-232.6 104.999-.01c11.7.02 22.29 4.78 29.95 12.46z" fill="#a0583b"/><path d="m249.76 277.957-90.248 90.258c-11.73 11.71-30.72 11.71-42.44-.01l90.26-132.676z" fill="#9a96b0"/><path d="m300.533 140.033-225.87 198.18v30c11.71 11.72 30.71 11.72 42.42 0l30.62-30.63c11.25-11.25 26.51-17.57 42.43-17.57h108.28c49.7 0 90-40.3 90-90-.001-49-39.161-88.86-87.88-89.98z" fill="#817d93"/><path d="m300.533 140.033c-.28-.01-.56-.01-.85-.01 0 .01-1.27 149.99-1.27 149.99 41.42 0 75-33.58 75-75-.001-40.72-32.441-73.86-72.88-74.98z" fill="#2c2b33"/><path d="m321.502 150.613c13.13 13.1 21.91 37.04 21.91 64.4 0 41.42-20.15 75-45 75h-120.69c-15.92 0-31.18 6.32-42.43 17.57l-75.63 75.63c-9.249 9.249-23.027 11.199-34.185 5.85-4.653-2.231-5.68-8.413-2.031-12.061l210.196-210.108c17.81-17.81 41.31-26.86 64.77-26.89.43 0 .85 0 1.27.02 7.96.379 15.41 4.189 21.82 10.589z" fill="#4a4854"/><circle cx="358.412" cy="45" fill="#2c2b33" r="15"/></g></svg>