<svg height="512pt" viewBox="-17 0 512 512" width="512pt" xmlns="http://www.w3.org/2000/svg"><path d="m268.582031 452h-60c-8.285156 0-15-6.714844-15-15v-111.316406c0-8.285156 6.714844-15 15-15h60c8.285157 0 15 6.714844 15 15v111.316406c0 8.285156-6.714843 15-15 15zm0 0" fill="#f7a520"/><path d="m268.582031 310.683594h-30v141.316406h30c8.285157 0 15-6.714844 15-15v-111.316406c0-8.285156-6.714843-15-15-15zm0 0" fill="#f2860a"/><path d="m315.582031 512h-154c-8.285156 0-15-6.714844-15-15v-10c0-35.839844 29.160157-65 65-65h54c35.839844 0 65 29.160156 65 65v10c0 8.285156-6.714843 15-15 15zm0 0" fill="#ffcf2c"/><path d="m265.582031 422h-27v90h77c8.285157 0 15-6.714844 15-15v-10c0-35.839844-29.160156-65-65-65zm0 0" fill="#f7a520"/><path d="m97.804688 253.488281h-42.804688c-30.328125 0-55-24.675781-55-55 0-30.328125 24.671875-55.003906 55-55.003906h28.023438c8.285156 0 15 6.71875 15 15 0 8.285156-6.714844 15.003906-15 15.003906h-28.023438c-13.785156 0-25 11.214844-25 25 0 13.78125 11.214844 25 25 25h42.804688c8.285156 0 15 6.714844 15 15 0 8.28125-6.714844 15-15 15zm0 0" fill="#ffcf2c"/><path d="m422.160156 253.488281h-42.804687c-8.28125 0-15-6.71875-15-15 0-8.285156 6.71875-15 15-15h42.804687c13.785156 0 25-11.21875 25-25 0-13.785156-11.214844-25-25-25h-29.53125c-8.28125 0-15-6.71875-15-15.003906 0-8.28125 6.71875-15 15-15h29.53125c30.328125 0 55 24.675781 55 55.003906 0 30.324219-24.671875 55-55 55zm0 0" fill="#f7a520"/><path d="m293.027344 340.683594h-110.003906c-24.8125 0-45-20.1875-45-45v-30h200.003906v30c0 24.8125-20.1875 45-45 45zm0 0" fill="#ffcf2c"/><path d="m238.582031 340.683594h54.445313c24.8125 0 45-20.1875 45-45v-30h-99.445313zm0 0" fill="#f7a520"/><path d="m323.027344 280.683594h-170.003906c-46.867188 0-85-38.132813-85-85v-50c0-8.285156 6.71875-15 15-15h310.003906c8.28125 0 15 6.714844 15 15v50c0 46.867187-38.132813 85-85 85zm0 0" fill="#ffe645"/><path d="m393.027344 130.683594h-154.445313v150h84.445313c46.867187 0 85-38.132813 85-85v-50c0-8.285156-6.71875-15-15-15zm0 0" fill="#ffcf2c"/><path d="m329.328125 91.992188c-.136719 0-.242187 0-.324219 0-8.285156-.09375-14.925781-6.882813-14.832031-15.167969.089844-8.226563 6.789063-14.832031 14.996094-14.832031.035156 0 .074219-.003907.105469 0 2.269531 0 52.386718-.605469 70.945312-50.242188 2.902344-7.757812 11.546875-11.6992188 19.304688-8.796875 7.757812 2.902344 11.695312 11.542969 8.792968 19.304687-10.789062 28.863282-31.371094 50.097657-59.511718 61.410157-19.742188 7.9375-36.429688 8.324219-39.476563 8.324219zm0 0" fill="#783207"/><path d="m303.582031 100c-27.570312 0-50-22.429688-50-50s22.429688-50 50-50c27.570313 0 50 22.429688 50 50s-22.429687 50-50 50zm0 0" fill="#df69f5"/><path d="m303.582031 100v-100c27.570313 0 50 22.429688 50 50s-22.429687 50-50 50zm0 0" fill="#a446d4"/><path d="m207.714844 125.683594c-27.570313 0-50-22.429688-50-50 0-27.570313 22.429687-50 50-50 27.570312 0 50 22.429687 50 50 0 27.570312-22.429688 50-50 50zm0 0" fill="#df69f5"/><path d="m207.714844 125.683594v-100c27.570312 0 50 22.429687 50 50 0 27.570312-22.429688 50-50 50zm0 0" fill="#a446d4"/><path d="m146.839844 160.683594c-27.570313 0-50-22.429688-50-50 0-27.570313 22.429687-50 50-50 27.570312 0 50 22.429687 50 50 0 27.570312-22.429688 50-50 50zm0 0" fill="#df69f5"/><path d="m146.839844 160.683594v-100c27.570312 0 50 22.429687 50 50 0 27.570312-22.429688 50-50 50zm0 0" fill="#a446d4"/><path d="m268.582031 160.683594c-27.570312 0-50-22.429688-50-50 0-27.570313 22.429688-50 50-50 27.570313 0 50 22.429687 50 50 0 27.570312-22.429687 50-50 50zm0 0" fill="#df69f5"/><path d="m268.582031 160.683594v-100c27.570313 0 50 22.429687 50 50 0 27.570312-22.429687 50-50 50zm0 0" fill="#a446d4"/><path d="m338.582031 160.683594c-27.570312 0-50-22.429688-50-50 0-27.570313 22.429688-50 50-50 27.570313 0 50 22.429687 50 50 0 27.570312-22.429687 50-50 50zm0 0" fill="#df69f5"/><path d="m338.582031 160.683594v-100c27.570313 0 50 22.429687 50 50 0 27.570312-22.429687 50-50 50zm0 0" fill="#a446d4"/><path d="m207.714844 195.683594c-27.570313 0-50-22.429688-50-50 0-27.570313 22.429687-50 50-50 27.570312 0 50 22.429687 50 50 0 27.570312-22.429688 50-50 50zm0 0" fill="#df69f5"/><path d="m207.714844 195.683594v-100c27.570312 0 50 22.429687 50 50 0 27.570312-22.429688 50-50 50zm0 0" fill="#a446d4"/><path d="m268.238281 230.335938c-27.570312 0-50-22.429688-50-50 0-27.570313 22.429688-50 50-50 27.570313 0 50 22.429687 50 50 0 27.570312-22.429687 50-50 50zm0 0" fill="#df69f5"/><path d="m268.238281 230.335938v-100c27.570313 0 50 22.429687 50 50 0 27.570312-22.429687 50-50 50zm0 0" fill="#a446d4"/></svg>