<?xml version="1.0" encoding="iso-8859-1"?>
<!-- Generator: Adobe Illustrator 19.0.0, SVG Export Plug-In . SVG Version: 6.00 Build 0)  -->
<svg version="1.1" id="Capa_1" xmlns="http://www.w3.org/2000/svg" xmlns:xlink="http://www.w3.org/1999/xlink" x="0px" y="0px"
	 viewBox="0 0 512 512" style="enable-background:new 0 0 512 512;" xml:space="preserve">
<polygon style="fill:#5A9F2E;" points="96.136,63.738 200.164,165.015 0,250.416 0,157.772 "/>
<polygon style="fill:#2D7B1A;" points="511.999,157.772 481.094,127.543 311.834,165.013 511.999,250.416 "/>
<polygon style="fill:#5A9F2E;" points="415.863,63.738 311.835,165.015 481.094,237.23 481.094,127.543 "/>
<polygon style="fill:#005807;" points="511.999,250.416 481.094,220.186 450.188,336.886 511.999,336.886 "/>
<polygon style="fill:#2D7B1A;" points="368.402,109.952 143.597,109.952 0,250.416 0,336.886 481.094,336.886 481.094,220.186 "/>
<polygon style="fill:#FF9570;" points="0,336.89 96.137,244.153 127.043,378.076 96.137,511.999 0,511.999 "/>
<polygon style="fill:#FF7240;" points="512,336.89 512,511.999 481.095,511.999 450.189,409.538 481.095,307.076 "/>
<polygon style="fill:#FF9570;" points="481.095,307.076 481.095,511.999 415.864,511.999 384.958,378.076 415.864,244.153 "/>
<polygon style="fill:#FFE73D;" points="368.402,109.952 348.386,129.432 255.999,81.23 255.999,0.001 "/>
<polygon style="fill:#FFF39E;" points="255.999,0.001 143.597,109.952 200.164,165.015 255.999,112.136 311.835,165.015 
	348.386,129.432 "/>
<polygon style="fill:#FFB9A0;" points="96.511,244.153 96.511,511.999 147.832,511.999 256.001,326.567 364.169,511.999 
	415.867,511.999 415.867,244.153 "/>
<rect x="147.831" y="295.662" style="fill:#6F6F6F;" width="216.338" height="216.338"/>
<polygon style="fill:#8C8C8C;" points="333.264,511.999 302.359,511.999 256.001,450.189 333.264,481.094 "/>
<polygon style="fill:#AAAAAA;" points="302.359,511.999 178.737,511.999 178.737,481.094 302.359,450.189 "/>
<polygon style="fill:#FFFFFF;" points="248.274,326.567 178.737,326.567 178.737,396.104 196.765,403.831 178.737,411.557 
	178.737,481.094 248.274,481.094 280.21,403.831 "/>
<polygon style="fill:#C8C8C8;" points="333.264,326.567 302.359,326.567 283.299,403.831 302.359,481.094 333.264,481.094 
	333.264,411.557 315.236,403.831 333.264,396.104 "/>
<polygon style="fill:#E3E3E3;" points="302.359,481.094 263.727,481.094 256.001,403.831 263.727,326.567 302.359,326.567 "/>
<polygon style="fill:#C8C8C8;" points="333.264,396.104 263.727,396.104 263.727,326.567 248.274,326.567 248.274,396.104 
	178.737,396.104 178.737,411.557 248.274,411.557 248.274,481.094 263.727,481.094 263.727,411.557 333.264,411.557 "/>
<g>
	<path style="fill:#8C8C8C;" d="M178.737,365.199h-30.905c-4.268,0-7.726-3.458-7.726-7.726c0-4.268,3.458-7.726,7.726-7.726h30.905
		c4.268,0,7.726,3.458,7.726,7.726C186.463,361.741,183.004,365.199,178.737,365.199z"/>
	<path style="fill:#8C8C8C;" d="M178.737,457.915h-30.905c-4.268,0-7.726-3.458-7.726-7.726s3.458-7.726,7.726-7.726h30.905
		c4.268,0,7.726,3.458,7.726,7.726S183.004,457.915,178.737,457.915z"/>
	<path style="fill:#8C8C8C;" d="M364.169,365.199h-30.905c-4.268,0-7.726-3.458-7.726-7.726c0-4.268,3.458-7.726,7.726-7.726h30.905
		c4.268,0,7.726,3.458,7.726,7.726C371.896,361.741,368.436,365.199,364.169,365.199z"/>
	<path style="fill:#8C8C8C;" d="M364.169,457.915h-30.905c-4.268,0-7.726-3.458-7.726-7.726s3.458-7.726,7.726-7.726h30.905
		c4.268,0,7.726,3.458,7.726,7.726S368.436,457.915,364.169,457.915z"/>
</g>
<g>
</g>
<g>
</g>
<g>
</g>
<g>
</g>
<g>
</g>
<g>
</g>
<g>
</g>
<g>
</g>
<g>
</g>
<g>
</g>
<g>
</g>
<g>
</g>
<g>
</g>
<g>
</g>
<g>
</g>
</svg>
