<?xml version="1.0" encoding="iso-8859-1"?>
<!-- Generator: Adobe Illustrator 19.0.0, SVG Export Plug-In . SVG Version: 6.00 Build 0)  -->
<svg version="1.1" id="Capa_1" xmlns="http://www.w3.org/2000/svg" xmlns:xlink="http://www.w3.org/1999/xlink" x="0px" y="0px"
	 viewBox="0 0 472 472" style="enable-background:new 0 0 472 472;" xml:space="preserve">
<g>
	<path style="fill:#454545;" d="M284.672,219.2L236,108l-48.672,111.2l-14.656-6.4l56-128c1.773-4.047,6.49-5.891,10.537-4.119
		c1.842,0.807,3.312,2.277,4.119,4.119l56,128L284.672,219.2z"/>
	<path style="fill:#454545;" d="M284,208h-96v-16h62.112l-49.688-24.8c-3.954-1.971-5.562-6.774-3.591-10.729
		c0.775-1.555,2.036-2.816,3.591-3.591l48-24l7.152,14.32L221.888,160l65.688,32.84c3.954,1.971,5.562,6.774,3.591,10.729
		C289.813,206.286,287.037,208.003,284,208L284,208z"/>
	<path style="fill:#454545;" d="M132,424v40c0,4.418-3.582,8-8,8H12c-4.418,0-8-3.582-8-8V304c0-4.418,3.582-8,8-8h112
		c4.418,0,8,3.582,8,8V424z"/>
</g>
<path style="fill:#168DE2;" d="M132,304v120H4V304c0-4.418,3.582-8,8-8h112C128.418,296,132,299.582,132,304z"/>
<path style="fill:#D95354;" d="M68,464c-8.837,0-16-7.163-16-16h16v-16c8.837,0,16,7.163,16,16S76.837,464,68,464z"/>
<path style="fill:#454545;" d="M468,424v40c0,4.418-3.582,8-8,8H348c-4.418,0-8-3.582-8-8V304c0-4.418,3.582-8,8-8h112
	c4.418,0,8,3.582,8,8V424z"/>
<path style="fill:#168DE2;" d="M468,304v120H340V304c0-4.418,3.582-8,8-8h112C464.418,296,468,299.582,468,304z"/>
<path style="fill:#D95354;" d="M404,464c-8.837,0-16-7.163-16-16h16v-16c8.837,0,16,7.163,16,16S412.837,464,404,464z"/>
<path style="fill:#FCB94E;" d="M236,128c-35.346,0-64-28.654-64-64s28.654-64,64-64s64,28.654,64,64
	C299.96,99.33,271.33,127.96,236,128z M236,16c-26.51,0-48,21.49-48,48s21.49,48,48,48s48-21.49,48-48
	C283.974,37.501,262.499,16.026,236,16z"/>
<path style="fill:#FFD77F;" d="M236,96c-17.673,0-32-14.327-32-32s14.327-32,32-32s32,14.327,32,32S253.673,96,236,96z M236,48
	c-8.837,0-16,7.163-16,16s7.163,16,16,16c8.837,0,16-7.163,16-16S244.837,48,236,48z"/>
<g>
	<path style="fill:#74C6FF;" d="M164,272h-16c0-48.601-39.399-88-88-88v-16C117.438,168,164,214.562,164,272z"/>
	<path style="fill:#74C6FF;" d="M100,272H84c-0.324-13.118-10.882-23.676-24-24v-16C81.972,232.284,99.716,250.027,100,272z"/>
	<path style="fill:#74C6FF;" d="M132,272h-16c0-30.928-25.072-56-56-56v-16C99.765,200,132,232.236,132,272z"/>
	<path style="fill:#74C6FF;" d="M308,272c0-57.438,46.562-104,104-104v16c-48.601,0-88,39.399-88,88H308z"/>
	<path style="fill:#74C6FF;" d="M388,272h-16c0.284-21.973,18.027-39.716,40-40v16C398.882,248.324,388.324,258.882,388,272z"/>
	<path style="fill:#74C6FF;" d="M340,272c0-39.764,32.236-72,72-72v16c-30.928,0-56,25.072-56,56H340z"/>
</g>
<g>
</g>
<g>
</g>
<g>
</g>
<g>
</g>
<g>
</g>
<g>
</g>
<g>
</g>
<g>
</g>
<g>
</g>
<g>
</g>
<g>
</g>
<g>
</g>
<g>
</g>
<g>
</g>
<g>
</g>
</svg>
