<svg height="480pt" viewBox="0 -60 480 480" width="480pt" xmlns="http://www.w3.org/2000/svg"><path d="m144 224h64v128h-64zm0 0" fill="#f0b237"/><path d="m272 224h64v128h-64zm0 0" fill="#f0b237"/><path d="m208 224h64v128h-64zm0 0" fill="#5e3014"/><path d="m80 224h64v128h-64zm0 0" fill="#e04646"/><path d="m336 224h64v128h-64zm0 0" fill="#e04646"/><path d="m240 224v24c0 21.097656-4.425781 41.960938-13 61.238281l-19 42.761719v-128zm0 0" fill="#e94f4f"/><path d="m240 224v24c0 21.097656 4.425781 41.960938 13 61.238281l19 42.761719v-128zm0 0" fill="#e94f4f"/><path d="m240 240h-32v37.238281c9.660156-3.007812 19.695312-4.636719 29.808594-4.839843 1.390625-8.058594 2.125-16.21875 2.191406-24.398438.066406 8.179688.800781 16.339844 2.191406 24.398438 10.113282.203124 20.148438 1.832031 29.808594 4.839843v-37.238281zm0 0" fill="#cf3a3a"/><path d="m144 240v34.296875c18.738281-4.980469 38.652344-2.953125 56 5.703125 2.632812-1.054688 5.3125-1.929688 8-2.761719v-37.238281zm0 0" fill="#e8972c"/><path d="m80 240v33.792969c16.097656-5.5 33.832031-3.207031 48 6.207031l6.785156-2.710938c3.007813-1.183593 6.085938-2.183593 9.214844-2.992187v-34.296875zm0 0" fill="#cf3a3a"/><path d="m272 240v37.238281c2.6875.800781 5.367188 1.707031 8 2.761719 17.347656-8.65625 37.261719-10.683594 56-5.703125v-34.296875zm0 0" fill="#e8972c"/><path d="m336 240v34.296875c3.128906.808594 6.207031 1.808594 9.214844 2.992187l6.785156 2.710938c14.167969-9.414062 31.902344-11.707031 48-6.207031v-33.792969zm0 0" fill="#cf3a3a"/><path d="m232 0h16v84.664062h-16zm0 0" fill="#d6d6d4"/><path d="m248 0 24 8v32l-24 8zm0 0" fill="#e94f4f"/><path d="m192 128-112 96h64l72-96zm0 0" fill="#e94f4f"/><path d="m232 128-24 96h64l-24-96zm0 0" fill="#e94f4f"/><path d="m288 128h-24l72 96h64zm0 0" fill="#e94f4f"/><path d="m216 128-72 96h64l24-96zm0 0" fill="#fdbb3d"/><path d="m248 128 24 96h64l-72-96zm0 0" fill="#fdbb3d"/><g fill="#8c4b32"><path d="m16 360c-2.824219-.003906-5.433594-1.492188-6.875-3.917969-1.4375-2.429687-1.492188-5.4375-.140625-7.914062l48-88c2.117187-3.878907 6.976563-5.308594 10.855469-3.191407 3.878906 2.117188 5.308594 6.976563 3.191406 10.855469l-48 88c-1.402344 2.574219-4.101562 4.171875-7.03125 4.167969zm0 0"/><path d="m464 360c-2.929688.003906-5.628906-1.59375-7.03125-4.167969l-48-88c-2.117188-3.878906-.6875-8.738281 3.191406-10.855469 3.878906-2.117187 8.738282-.6875 10.855469 3.191407l48 88c1.351563 2.476562 1.296875 5.484375-.140625 7.914062-1.441406 2.425781-4.050781 3.914063-6.875 3.917969zm0 0"/><path d="m96 360c-2.609375 0-5.058594-1.273438-6.554688-3.410156-1.496093-2.136719-1.859374-4.871094-.964843-7.324219l32-88c1.511719-4.15625 6.101562-6.296875 10.253906-4.785156 4.15625 1.511719 6.296875 6.101562 4.785156 10.253906l-32 88c-1.148437 3.164063-4.15625 5.265625-7.519531 5.265625zm0 0"/><path d="m176 360c-2.492188 0-4.84375-1.160156-6.359375-3.144531-1.511719-1.980469-2.015625-4.554688-1.359375-6.960938l24-88c1.160156-4.261719 5.558594-6.777343 9.824219-5.613281 4.261719 1.160156 6.777343 5.558594 5.613281 9.824219l-24 88c-.949219 3.480469-4.109375 5.894531-7.71875 5.894531zm0 0"/><path d="m384 360c-3.363281 0-6.371094-2.101562-7.519531-5.265625l-32-88c-1.511719-4.152344.628906-8.742187 4.785156-10.253906 4.152344-1.511719 8.742187.628906 10.253906 4.785156l32 88c.894531 2.453125.53125 5.1875-.964843 7.324219-1.496094 2.136718-3.945313 3.410156-6.554688 3.410156zm0 0"/><path d="m304 360c-3.609375 0-6.769531-2.414062-7.71875-5.894531l-24-88c-1.164062-4.265625 1.351562-8.664063 5.613281-9.824219 4.265625-1.164062 8.664063 1.351562 9.824219 5.613281l24 88c.65625 2.40625.152344 4.980469-1.359375 6.960938-1.515625 1.984375-3.867187 3.144531-6.359375 3.144531zm0 0"/></g><path d="m320 40-48-16v32zm0 0" fill="#e04646"/><path d="m232 72-40 56h96l-40-56zm0 0" fill="#e94f4f"/><path d="m203.433594 112-11.433594 16h96l-11.433594-16zm0 0" fill="#d44444"/><path d="m208 224-8 40c25.675781-10.273438 54.324219-10.273438 80 0l-8-40zm0 0" fill="#e04646"/><path d="m80 224-16 40 13.214844-5.289062c16.765625-6.703126 35.757812-4.726563 50.785156 5.289062l16-40zm0 0" fill="#e04646"/><path d="m400 224h-64l16 40c15.027344-10.015625 34.019531-11.992188 50.785156-5.289062l13.214844 5.289062zm0 0" fill="#e04646"/><path d="m144 224-16 40 6.785156-2.710938c21.125-8.453124 44.863282-7.46875 65.214844 2.710938l8-40zm0 0" fill="#f0b237"/><path d="m272 224 8 40c20.351562-10.179688 44.089844-11.164062 65.214844-2.710938l6.785156 2.710938-16-40zm0 0" fill="#f0b237"/><path d="m0 344h480v16h-480zm0 0" fill="#d6d6d4"/></svg>