<svg height="512pt" viewBox="0 0 512 512" width="512pt" xmlns="http://www.w3.org/2000/svg"><path d="m467 211c-8.289062 0-15-6.710938-15-15v-91c0-8.289062 6.710938-15 15-15s15 6.710938 15 15v91c0 8.289062-6.710938 15-15 15zm0 0" fill="#3e322e"/><path d="m361.917969 430.101562-43.917969-.203124 17.558594 61.101562h84.511718c-.632812-1.390625-.90625-2.925781-1.964843-4.09375zm0 0" fill="#ff7816"/><path d="m93.894531 486.90625c-1.058593 1.167969-1.332031 2.703125-1.964843 4.09375h84.511718l18.722656-58.191406-45.082031-2.707032zm0 0" fill="#ff9f00"/><path d="m122.019531 192.410156-57.40625 48.03125 85.46875 189.660156 85.574219-35.03125 20.34375-69.378906zm0 0" fill="#ffd400"/><path d="m447.386719 240.441406-57.40625-48.03125-133.980469 133.28125 23.523438 72.878906 82.394531 31.53125zm0 0" fill="#fdbf00"/><path d="m362 430-26.398438 61h-159.203124l-26.398438-61 106-104.199219zm0 0" fill="#fdbf00"/><path d="m256 325.800781 106 104.199219-26.398438 61h-79.601562zm0 0" fill="#ff9f00"/><path d="m512 497c0 8.402344-6.597656 15-15 15h-482c-8.402344 0-15-6.597656-15-15s6.597656-15 15-15h482c8.402344 0 15 6.597656 15 15zm0 0" fill="#725d57"/><path d="m45 211c-8.289062 0-15-6.710938-15-15v-91c0-8.289062 6.710938-15 15-15s15 6.710938 15 15v91c0 8.289062-6.710938 15-15 15zm0 0" fill="#53433f"/><path d="m75 362h-15v-15c0-8.289062-6.710938-15-15-15s-15 6.710938-15 15v15h-15c-8.289062 0-15 6.710938-15 15s6.710938 15 15 15h15v15c0 8.289062 6.710938 15 15 15s15-6.710938 15-15v-15h15c8.289062 0 15-6.710938 15-15s-6.710938-15-15-15zm0 0" fill="#ffd400"/><path d="m497 392h-15v-15c0-8.289062-6.710938-15-15-15s-15 6.710938-15 15v15h-15c-8.289062 0-15 6.710938-15 15s6.710938 15 15 15h15v15c0 8.289062 6.710938 15 15 15s15-6.710938 15-15v-15h15c8.289062 0 15-6.710938 15-15s-6.710938-15-15-15zm0 0" fill="#fdbf00"/><path d="m512 497c0 8.402344-6.597656 15-15 15h-241v-30h241c8.402344 0 15 6.597656 15 15zm0 0" fill="#68544f"/><path d="m497 0h-482c-8.402344 0-15 6.597656-15 15v90c0 8.402344 6.597656 15 15 15h482c8.402344 0 15-6.597656 15-15v-90c0-8.402344-6.597656-15-15-15zm-467 30h17.101562l-17.101562 25.5zm12.898438 60 32.101562-48 32.101562 48zm60-60h64.203124l-32.101562 48zm60 60 32.101562-48 33.101562 48zm61-60h64.203124l-32.101562 48zm60 60 33.101562-48 32.101562 48zm61-60h64.203124l-32.101562 48zm60 60 32.101562-48 32.101562 48zm77.101562-34.5-17.101562-25.5h17.101562zm0 0" fill="#68544f"/><path d="m497 0h-241v30h32.101562l-32.101562 48v42h241c8.402344 0 15-6.597656 15-15v-90c0-8.402344-6.597656-15-15-15zm-213.101562 90 33.101562-48 32.101562 48zm61-60h64.203124l-32.101562 48zm60 60 32.101562-48 32.101562 48zm77.101562-34.5-17.101562-25.5h17.101562zm0 0" fill="#53433f"/><path d="m437 253.421875c-3.839844 0-7.675781-1.464844-10.605469-4.394531l-42.421875-42.421875c-5.859375-5.859375-5.859375-15.351563 0-21.210938l21.210938-21.210937c17.550781-17.550782 46.085937-17.550782 63.632812 0 8.496094 8.496094 13.183594 19.804687 13.183594 31.816406s-4.6875 23.320312-13.183594 31.816406l-21.210937 21.210938c-2.929688 2.929687-6.765625 4.394531-10.605469 4.394531zm0 0" fill="#53433f"/><path d="m75 253.421875c-3.839844 0-7.675781-1.464844-10.605469-4.394531l-21.210937-21.210938c-8.496094-8.496094-13.183594-19.804687-13.183594-31.816406s4.6875-23.320312 13.183594-31.816406c17.550781-17.546875 46.085937-17.546875 63.632812 0l21.210938 21.210937c5.859375 5.859375 5.859375 15.351563 0 21.210938l-42.421875 42.421875c-2.929688 2.929687-6.765625 4.394531-10.605469 4.394531zm0 0" fill="#68544f"/></svg>