<svg height="464pt" viewBox="0 0 464 464" width="464pt" xmlns="http://www.w3.org/2000/svg"><path d="m24 0h48v40h-48zm0 0" fill="#3b869e"/><path d="m392 0h48v40h-48zm0 0" fill="#3b869e"/><path d="m464 464h-464v-256l24-144h416l24 144zm0 0" fill="#d9d9d9"/><path d="m160 64h144v376h-144zm0 0" fill="#e2e2e2"/><path d="m272 176h-80v-24c0-22.089844 17.910156-40 40-40s40 17.910156 40 40zm0 0" fill="#a8a8a8"/><path d="m416 176h-80v-24c0-22.089844 17.910156-40 40-40s40 17.910156 40 40zm0 0" fill="#a8a8a8"/><path d="m128 176h-80v-24c0-22.089844 17.910156-40 40-40s40 17.910156 40 40zm0 0" fill="#a8a8a8"/><path d="m272 440h-80v-264c0-17.671875 14.328125-32 32-32h16c17.671875 0 32 14.328125 32 32zm0 0" fill="#8aced8"/><path d="m416 440h-80v-264c0-17.671875 14.328125-32 32-32h16c17.671875 0 32 14.328125 32 32zm0 0" fill="#8aced8"/><path d="m128 440h-80v-264c0-17.671875 14.328125-32 32-32h16c17.671875 0 32 14.328125 32 32zm0 0" fill="#8aced8"/><g fill="#a8d6da"><path d="m240 208c-4.417969 0-8-3.582031-8-8v-16c0-4.417969 3.582031-8 8-8s8 3.582031 8 8v16c0 4.417969-3.582031 8-8 8zm0 0"/><path d="m224 256c-4.417969 0-8-3.582031-8-8v-16c0-4.417969 3.582031-8 8-8s8 3.582031 8 8v16c0 4.417969-3.582031 8-8 8zm0 0"/><path d="m240 304c-4.417969 0-8-3.582031-8-8v-16c0-4.417969 3.582031-8 8-8s8 3.582031 8 8v16c0 4.417969-3.582031 8-8 8zm0 0"/><path d="m224 352c-4.417969 0-8-3.582031-8-8v-16c0-4.417969 3.582031-8 8-8s8 3.582031 8 8v16c0 4.417969-3.582031 8-8 8zm0 0"/><path d="m240 416c-4.417969 0-8-3.582031-8-8v-32c0-4.417969 3.582031-8 8-8s8 3.582031 8 8v32c0 4.417969-3.582031 8-8 8zm0 0"/><path d="m384 208c-4.417969 0-8-3.582031-8-8v-16c0-4.417969 3.582031-8 8-8s8 3.582031 8 8v16c0 4.417969-3.582031 8-8 8zm0 0"/><path d="m368 256c-4.417969 0-8-3.582031-8-8v-16c0-4.417969 3.582031-8 8-8s8 3.582031 8 8v16c0 4.417969-3.582031 8-8 8zm0 0"/><path d="m384 304c-4.417969 0-8-3.582031-8-8v-16c0-4.417969 3.582031-8 8-8s8 3.582031 8 8v16c0 4.417969-3.582031 8-8 8zm0 0"/><path d="m368 352c-4.417969 0-8-3.582031-8-8v-16c0-4.417969 3.582031-8 8-8s8 3.582031 8 8v16c0 4.417969-3.582031 8-8 8zm0 0"/><path d="m384 416c-4.417969 0-8-3.582031-8-8v-32c0-4.417969 3.582031-8 8-8s8 3.582031 8 8v32c0 4.417969-3.582031 8-8 8zm0 0"/><path d="m96 208c-4.417969 0-8-3.582031-8-8v-16c0-4.417969 3.582031-8 8-8s8 3.582031 8 8v16c0 4.417969-3.582031 8-8 8zm0 0"/><path d="m80 256c-4.417969 0-8-3.582031-8-8v-16c0-4.417969 3.582031-8 8-8s8 3.582031 8 8v16c0 4.417969-3.582031 8-8 8zm0 0"/><path d="m96 304c-4.417969 0-8-3.582031-8-8v-16c0-4.417969 3.582031-8 8-8s8 3.582031 8 8v16c0 4.417969-3.582031 8-8 8zm0 0"/><path d="m80 352c-4.417969 0-8-3.582031-8-8v-16c0-4.417969 3.582031-8 8-8s8 3.582031 8 8v16c0 4.417969-3.582031 8-8 8zm0 0"/><path d="m96 416c-4.417969 0-8-3.582031-8-8v-32c0-4.417969 3.582031-8 8-8s8 3.582031 8 8v32c0 4.417969-3.582031 8-8 8zm0 0"/></g><path d="m24 32h416v32h-416zm0 0" fill="#5d9aa4"/><path d="m0 384 24.984375 22.398438c6.078125 5.453124 15.289063 5.453124 21.367187 0l14.28125-12.796876c6.078126-5.460937 15.296876-5.460937 21.375 0l14.304688 12.796876c6.078125 5.453124 15.289062 5.453124 21.367188 0l14.320312-12.796876c6.078125-5.453124 15.289062-5.453124 21.367188 0l14.3125 12.796876c6.078124 5.453124 15.289062 5.453124 21.367187 0l14.304687-12.796876c6.078126-5.449218 15.28125-5.449218 21.359376 0l14.328124 12.796876c6.078126 5.453124 15.289063 5.453124 21.367188 0l14.328125-12.796876c6.078125-5.449218 15.285156-5.449218 21.363281 0l14.300782 12.796876c6.078124 5.449218 15.285156 5.449218 21.363281 0l14.351562-12.796876c6.078125-5.449218 15.28125-5.449218 21.359375 0l14.398438 12.871094c6.074218 5.4375 15.269531 5.4375 21.34375 0l14.402344-12.886718c6.074218-5.441407 15.265624-5.441407 21.34375 0l25.039062 22.414062v48h-464zm0 0" fill="#a8d6da"/><path d="m417.601562 417.550781-14.402343 12.890625c-6.074219 5.4375-15.269531 5.4375-21.34375 0l-14.398438-12.875c-6.078125-5.445312-15.285156-5.445312-21.359375 0l-14.3125 12.832032c-6.078125 5.449218-15.285156 5.449218-21.359375 0l-14.328125-12.796876c-6.078125-5.449218-15.285156-5.449218-21.363281 0l-14.328125 12.796876c-6.078125 5.453124-15.289062 5.453124-21.367188 0l-14.328124-12.796876c-6.078126-5.449218-15.28125-5.449218-21.359376 0l-14.328124 12.796876c-6.078126 5.453124-15.289063 5.453124-21.367188 0l-14.3125-12.796876c-6.078125-5.453124-15.289062-5.453124-21.367188 0l-14.296874 12.796876c-6.078126 5.453124-15.289063 5.453124-21.367188 0l-14.3125-12.796876c-6.078125-5.453124-15.289062-5.453124-21.367188 0l-14.28125 12.796876c-6.078124 5.453124-15.289062 5.453124-21.367187 0l-24.984375-22.398438v56h464v-24l-25.070312-22.449219c-6.074219-5.429687-15.257813-5.429687-21.328126 0zm0 0" fill="#8aced8"/><path d="m160 32h144v32h-144zm0 0" fill="#60a0aa"/></svg>