<?xml version="1.0" encoding="iso-8859-1"?>
<!-- Generator: Adobe Illustrator 19.0.0, SVG Export Plug-In . SVG Version: 6.00 Build 0)  -->
<svg version="1.1" id="Capa_1" xmlns="http://www.w3.org/2000/svg" xmlns:xlink="http://www.w3.org/1999/xlink" x="0px" y="0px"
	 viewBox="0 0 460 460" style="enable-background:new 0 0 460 460;" xml:space="preserve">
<g>
	<polygon style="fill:#FFB743;" points="325,420 285,420 285,390 250,390 250,420 230,420 230,460 365,460 365,390 325,390 	"/>
	<path style="fill:#FFB743;" d="M230,0v240h20v40h-20v40h20v30h35v-30h40v30h41.13v0.73l91.25-48.8C475.67,145.32,398.02,0,230,0z
		 M330,250c-34.518,0-62.5-27.982-62.5-62.5S295.482,125,330,125s62.5,27.982,62.5,62.5S364.518,250,330,250z"/>
	<path style="fill:#FFE292;" d="M135,350v-30h40v30h35v-30h20v-40h-20v-40h20V0C61.98,0-15.67,145.32,2.62,301.93l91.25,48.8V350
		H135z M67.5,187.5c0-34.518,27.982-62.5,62.5-62.5s62.5,27.982,62.5,62.5S164.518,250,130,250S67.5,222.018,67.5,187.5z"/>
	<polygon style="fill:#FFE292;" points="210,420 210,390 175,390 175,420 135,420 135,390 95,390 95,460 230,460 230,420 	"/>
	<rect x="210" y="240" style="fill:#EF1F4B;" width="40" height="40"/>
	<circle style="fill:#EA6453;" cx="130" cy="187.5" r="62.5"/>
	<circle style="fill:#EF1F4B;" cx="330" cy="187.5" r="62.5"/>
	<polygon style="fill:#EF1F4B;" points="325,350 325,320 285,320 285,350 250,350 250,320 210,320 210,420 250,420 250,390 285,390 
		285,420 325,420 325,390 366.13,390 366.13,350 	"/>
	<polygon style="fill:#EA6453;" points="135,420 175,420 175,390 210,390 210,350 175,350 175,320 135,320 135,350 93.87,350 
		93.87,390 135,390 	"/>
</g>
<g>
</g>
<g>
</g>
<g>
</g>
<g>
</g>
<g>
</g>
<g>
</g>
<g>
</g>
<g>
</g>
<g>
</g>
<g>
</g>
<g>
</g>
<g>
</g>
<g>
</g>
<g>
</g>
<g>
</g>
</svg>
