<?xml version="1.0" encoding="iso-8859-1"?>
<!-- Generator: Adobe Illustrator 19.0.0, SVG Export Plug-In . SVG Version: 6.00 Build 0)  -->
<svg version="1.1" id="Capa_1" xmlns="http://www.w3.org/2000/svg" xmlns:xlink="http://www.w3.org/1999/xlink" x="0px" y="0px"
	 viewBox="0 0 378.37 378.37" style="enable-background:new 0 0 378.37 378.37;" xml:space="preserve">
<g id="XMLID_1325_">
	<path id="XMLID_1326_" style="fill:#DEDDE0;" d="M186.685,138.37H366.32c0.236-1.674,0.365-3.39,0.365-5.132
		c0-20.512-16.625-37.138-37.147-37.138c-5.71,0-11.119,1.288-15.961,3.594c-0.893-19.722-17.154-35.433-37.101-35.433
		c-20.511,0-37.146,16.627-37.146,37.143c0,3.288,0.435,6.474,1.233,9.501c-5.125-2.67-10.958-4.199-17.149-4.199
		C204.766,106.706,189.338,120.458,186.685,138.37z"/>
	<path id="XMLID_1327_" style="fill:#006C70;" d="M256.685,208.37l-97.952,53.429l12.952,116.571h195v-170l-110,60V208.37z
		 M296.685,298.37h30v30h-30V298.37z M216.685,328.37h-30v-30h30V328.37z"/>
	<polygon id="XMLID_1331_" style="fill:#00D7DF;" points="76.685,328.37 76.685,298.37 92.185,298.37 92.185,138.372 
		38.351,138.372 11.685,378.37 92.185,378.37 92.185,328.37 	"/>
	<polygon id="XMLID_1332_" style="fill:#00A1A7;" points="145.019,138.372 92.185,138.372 92.185,298.37 106.685,298.37 
		106.685,328.37 92.185,328.37 92.185,378.37 171.685,378.37 158.733,261.799 	"/>
	<path id="XMLID_1333_" style="fill:#ACABB1;" d="M207.029,72.945c0-21.693-17.585-39.278-39.278-39.278
		c-6.043,0-11.765,1.369-16.88,3.806C149.927,16.62,132.727,0,111.639,0C89.946,0,72.361,17.586,72.361,39.278
		c0,3.476,0.456,6.844,1.304,10.052c-5.427-2.831-11.593-4.441-18.138-4.441c-19.721,0-36.037,14.539-38.842,33.481h189.958
		C206.89,76.596,207.029,74.789,207.029,72.945z"/>
	<rect id="XMLID_1334_" x="186.685" y="298.37" style="fill:#FFFFFF;" width="30" height="30"/>
	<rect id="XMLID_1335_" x="296.685" y="298.37" style="fill:#FFFFFF;" width="30" height="30"/>
	<polygon id="XMLID_1336_" style="fill:#FFFFFF;" points="76.685,328.37 92.185,328.37 106.685,328.37 106.685,298.37 
		92.185,298.37 76.685,298.37 	"/>
	<polygon id="XMLID_1337_" style="fill:#565659;" points="145.019,138.372 156.685,138.372 156.685,108.372 26.685,108.372 
		26.685,138.372 38.351,138.372 92.185,138.372 	"/>
</g>
<g>
</g>
<g>
</g>
<g>
</g>
<g>
</g>
<g>
</g>
<g>
</g>
<g>
</g>
<g>
</g>
<g>
</g>
<g>
</g>
<g>
</g>
<g>
</g>
<g>
</g>
<g>
</g>
<g>
</g>
</svg>
