<?xml version="1.0" encoding="iso-8859-1"?>
<!-- Generator: Adobe Illustrator 19.0.0, SVG Export Plug-In . SVG Version: 6.00 Build 0)  -->
<svg version="1.1" id="Layer_1" xmlns="http://www.w3.org/2000/svg" xmlns:xlink="http://www.w3.org/1999/xlink" x="0px" y="0px"
	 viewBox="0 0 460 460" style="enable-background:new 0 0 460 460;" xml:space="preserve">
<g id="XMLID_227_">
	<path id="XMLID_228_" style="fill:#F0651F;" d="M282.163,69.814C290.23,80.641,295,94.064,295,108.604c0,35.898-29.102,65-65,65
		l-20-53.607L230,0L282.163,69.814z"/>
	<path id="XMLID_229_" style="fill:#F58330;" d="M230,173.604c-35.898,0-65-29.102-65-65c0-14.54,4.77-27.963,12.837-38.79L230,0
		V173.604z"/>
	<path id="XMLID_230_" style="fill:#FFC052;" d="M259.149,99.443c4.667,6.262,7.139,13.747,7.139,21.623
		c0,20.009-16.279,36.288-36.288,36.288l-10-37.35l10-59.569L259.149,99.443z"/>
	<path id="XMLID_231_" style="fill:#F9D4A0;" d="M230,60.434v96.919c-20.009,0-36.288-16.279-36.288-36.288
		c0-7.876,2.472-15.361,7.157-21.646L230,60.434z"/>
	<polygon id="XMLID_232_" style="fill:#CB9851;" points="378.82,170 430,460 230,460 170,315 230,150 	"/>
	<rect id="XMLID_233_" x="340" y="340" style="fill:#FFC052;" width="30" height="30"/>
	<rect id="XMLID_235_" x="340" y="400" style="fill:#FFC052;" width="30" height="30"/>
	<polygon id="XMLID_236_" style="fill:#FFC052;" points="230,460 30,460 81.18,170 230,150 	"/>
	<rect id="XMLID_237_" x="111.18" y="200" style="fill:#CB9851;" width="30" height="30"/>
	<path id="XMLID_238_" style="fill:#967151;" d="M378.69,169.24l0.13,0.76H230l-20-25l20-25h90
		C347.5,120,373.91,142.16,378.69,169.24z"/>
	<path id="XMLID_239_" style="fill:#CB9851;" d="M230,120v50H81.18l0.13-0.76C86.09,142.16,112.5,120,140,120H230z"/>
	<path id="XMLID_240_" style="fill:#3C261B;" d="M310,340l-100,20l20-100C274.18,260,310,295.82,310,340z"/>
	<polygon id="XMLID_241_" style="fill:#C53E16;" points="310,340 310,401.43 230,401.43 210,340 	"/>
	<polygon id="XMLID_242_" style="fill:#F0651F;" points="230,340 230,401.43 150,401.43 150,340 190,320 	"/>
	<path id="XMLID_243_" style="fill:#762916;" d="M230,260v80h-80C150,295.82,185.82,260,230,260z"/>
</g>
<g>
</g>
<g>
</g>
<g>
</g>
<g>
</g>
<g>
</g>
<g>
</g>
<g>
</g>
<g>
</g>
<g>
</g>
<g>
</g>
<g>
</g>
<g>
</g>
<g>
</g>
<g>
</g>
<g>
</g>
</svg>
