<?xml version="1.0" encoding="iso-8859-1"?>
<!-- Generator: Adobe Illustrator 19.0.0, SVG Export Plug-In . SVG Version: 6.00 Build 0)  -->
<svg version="1.1" id="Layer_1" xmlns="http://www.w3.org/2000/svg" xmlns:xlink="http://www.w3.org/1999/xlink" x="0px" y="0px"
	 viewBox="0 0 460 460" style="enable-background:new 0 0 460 460;" xml:space="preserve">
<g id="XMLID_508_">
	<rect id="XMLID_509_" x="220" y="197.503" style="fill:#F58330;" width="149" height="152.497"/>
	<polygon id="XMLID_510_" style="fill:#F0651F;" points="230,340 210,355 230,370 369,370 369,340 	"/>
	<polygon id="XMLID_511_" style="fill:#F0651F;" points="230,260 210,275 230,290 369,290 369,260 	"/>
	<polygon id="XMLID_512_" style="fill:#F0651F;" points="369,170 369,210 230,210 210,190 230,170 	"/>
	<rect id="XMLID_515_" x="91" y="197.503" style="fill:#FAA241;" width="139" height="152.497"/>
	<rect id="XMLID_516_" x="91" y="340" style="fill:#F58330;" width="139" height="30"/>
	<rect id="XMLID_517_" x="91" y="260" style="fill:#F58330;" width="139" height="30"/>
	<rect id="XMLID_518_" x="91" y="170" style="fill:#F58330;" width="139" height="40"/>
	<rect id="XMLID_519_" x="167.333" y="170" style="fill:#F0651F;" width="29" height="290"/>
	<rect id="XMLID_520_" x="71" y="170" style="fill:#F0651F;" width="29" height="290"/>
	<rect id="XMLID_521_" x="360" y="170" style="fill:#DA521B;" width="29" height="290"/>
	<rect id="XMLID_522_" x="263.667" y="170" style="fill:#DA521B;" width="29" height="290"/>
	<path id="XMLID_523_" style="fill:#FAA241;" d="M230,0l-30,90l30,90h210C404.18,82.31,324.72,11.33,230,0z"/>
	<path id="XMLID_524_" style="fill:#FFC052;" d="M20,180h210V0C135.28,11.33,55.82,82.31,20,180z"/>
	<rect id="XMLID_525_" x="170" y="120" style="fill:#FAA241;" width="30" height="30"/>
	<rect id="XMLID_526_" x="130" y="70" style="fill:#FAA241;" width="30" height="30"/>
</g>
<g>
</g>
<g>
</g>
<g>
</g>
<g>
</g>
<g>
</g>
<g>
</g>
<g>
</g>
<g>
</g>
<g>
</g>
<g>
</g>
<g>
</g>
<g>
</g>
<g>
</g>
<g>
</g>
<g>
</g>
</svg>
