<?xml version="1.0" encoding="iso-8859-1"?>
<!-- Generator: Adobe Illustrator 19.0.0, SVG Export Plug-In . SVG Version: 6.00 Build 0)  -->
<svg version="1.1" id="Capa_1" xmlns="http://www.w3.org/2000/svg" xmlns:xlink="http://www.w3.org/1999/xlink" x="0px" y="0px"
	 viewBox="0 0 464 464" style="enable-background:new 0 0 464 464;" xml:space="preserve">
<path style="fill:#FFD884;" d="M112,112v120H0v120h336h128V232V112H112z"/>
<path style="fill:#EA676B;" d="M112,112h352v120H112V112z"/>
<path style="fill:#2BB3CE;" d="M0,232h336v120H0V232z"/>
<path style="fill:#C4414B;" d="M336,112h128v120H336V112z"/>
<path style="fill:#1D5C88;" d="M208,232h128v120H208V232z"/>
<g>
	<path style="fill:#C4414B;" d="M136,136h16v72h-16V136z"/>
	<path style="fill:#C4414B;" d="M176,136h16v72h-16V136z"/>
	<path style="fill:#C4414B;" d="M216,136h16v72h-16V136z"/>
	<path style="fill:#C4414B;" d="M256,136h16v72h-16V136z"/>
	<path style="fill:#C4414B;" d="M296,136h16v72h-16V136z"/>
</g>
<g>
	<path style="fill:#1D5C88;" d="M32,256h16v72H32V256z"/>
	<path style="fill:#1D5C88;" d="M64,256h16v72H64V256z"/>
	<path style="fill:#1D5C88;" d="M96,256h16v72H96V256z"/>
	<path style="fill:#1D5C88;" d="M128,256h16v72h-16V256z"/>
	<path style="fill:#1D5C88;" d="M160,256h16v72h-16V256z"/>
</g>
<path style="fill:#9FC8DD;" d="M296,280v-16h-16v-32h-16v32h-16v16h16v24h-16v16h16v32h16v-32h16v-16h-16v-24H296z"/>
<g>
	<path style="fill:#5A6570;" d="M376,184h-16v16h16v32h16V112h-16V184z"/>
	<path style="fill:#5A6570;" d="M440,184h-16v-72h-16v120h16v-32h16V184z"/>
</g>
<path style="fill:#B4833F;" d="M424,304h-16v-72h-16v32h-16v16h16v72h16v-32h16V304z"/>
<g>
</g>
<g>
</g>
<g>
</g>
<g>
</g>
<g>
</g>
<g>
</g>
<g>
</g>
<g>
</g>
<g>
</g>
<g>
</g>
<g>
</g>
<g>
</g>
<g>
</g>
<g>
</g>
<g>
</g>
</svg>
