<?xml version="1.0" encoding="iso-8859-1"?>
<!-- Generator: Adobe Illustrator 19.0.0, SVG Export Plug-In . SVG Version: 6.00 Build 0)  -->
<svg version="1.1" id="Capa_1" xmlns="http://www.w3.org/2000/svg" xmlns:xlink="http://www.w3.org/1999/xlink" x="0px" y="0px"
	 viewBox="0 0 512 512" style="enable-background:new 0 0 512 512;" xml:space="preserve">
<rect x="17" y="251.67" style="fill:#6FC8F1;" width="478" height="242"/>
<rect x="256" y="251.67" style="fill:#1594CF;" width="239" height="242"/>
<rect x="123.67" style="fill:#B7E4F8;" width="264.67" height="493.67"/>
<rect x="256" style="fill:#6FC8F1;" width="132.33" height="493.67"/>
<rect x="213.33" y="384" style="fill:#265D77;" width="85.33" height="109.67"/>
<rect x="256.1" y="384" style="fill:#132F3B;" width="42.565" height="109.67"/>
<polygon style="fill:#6FC8F1;" points="228.333,493.667 228.333,399 283.667,399 283.667,493.667 313.667,493.667 313.667,369 
	198.333,369 198.333,493.667 "/>
<rect x="198.33" y="202.67" style="fill:#DBF1FB;" width="30" height="42.667"/>
<rect x="283.67" y="202.67" style="fill:#B7E4F8;" width="30" height="42.667"/>
<rect x="198.33" y="288" style="fill:#DBF1FB;" width="30" height="42.667"/>
<rect x="283.67" y="288" style="fill:#B7E4F8;" width="30" height="42.667"/>
<rect x="426.67" y="394.67" style="fill:#6FC8F1;" width="30" height="42.667"/>
<rect x="55.33" y="394.67" style="fill:#B7E4F8;" width="30" height="42.667"/>
<rect x="426.67" y="309.33" style="fill:#6FC8F1;" width="30" height="42.667"/>
<rect x="55.33" y="309.33" style="fill:#B7E4F8;" width="30" height="42.667"/>
<polygon style="fill:#FF4F19;" points="304,97 271,97 271,64 241,64 241,97 208,97 208,127 241,127 241,160 271,160 271,127 
	304,127 "/>
<polygon style="fill:#D43200;" points="271,97 271,64 256,64 256,160 271,160 271,127 304,127 304,97 "/>
<polygon style="fill:#1594CF;" points="283.667,493.667 313.667,493.667 313.667,369 256.101,369 256.101,399 283.667,399 "/>
<rect y="482" style="fill:#60DD4D;" width="512" height="30"/>
<rect x="256" y="482" style="fill:#1EBA4A;" width="256" height="30"/>
<g>
</g>
<g>
</g>
<g>
</g>
<g>
</g>
<g>
</g>
<g>
</g>
<g>
</g>
<g>
</g>
<g>
</g>
<g>
</g>
<g>
</g>
<g>
</g>
<g>
</g>
<g>
</g>
<g>
</g>
</svg>
