<svg height="503pt" viewBox="0 -13 503.58515 503" width="503pt" xmlns="http://www.w3.org/2000/svg"><path d="m446.746094 99.195312c-54.660156-15.792968-109.316406 29.109376-163.972656 7.277344-3.214844-1.359375-5.289063-4.53125-5.25-8.019531v-51.039063c.023437-2.78125 1.371093-5.382812 3.632812-7 2.261719-1.617187 5.160156-2.054687 7.796875-1.175781 54.144531 16.824219 108.289063-27.132812 162.433594-7.980469 1.574219.53125 2.707031 1.914063 2.917969 3.5625.210937 1.648438-.539063 3.273438-1.929688 4.179688-8.621094 5.609375-16.707031 12-24.148438 19.09375-.84375.785156-1.335937 1.875-1.375 3.027344-.035156 1.152344.386719 2.269531 1.175782 3.109375 8.390625 8.957031 16.242187 18.40625 23.515625 28.292969 1.101562 1.507812 1.109375 3.554687.015625 5.074218-1.089844 1.515625-3.03125 2.160156-4.8125 1.597656zm0 0" fill="#cc4b4c"/><path d="m277.523438 190.949219c-4.792969 0-8.675782-3.886719-8.675782-8.679688v-173.300781c0-4.789062 3.882813-8.675781 8.675782-8.675781 4.792968 0 8.679687 3.886719 8.679687 8.675781v173.300781c0 4.792969-3.886719 8.679688-8.679687 8.679688zm0 0" fill="#cbb292"/><path d="m503.5 399.21875c-.15625-11.691406-1.203125-23.351562-3.125-34.886719-.519531-2.863281-1.042969-5.726562-1.648438-8.503906-.609374-2.949219-1.214843-5.8125-1.996093-8.675781-3.722657-15.289063-9.015625-30.148438-15.792969-44.347656-1.214844-2.601563-2.519531-5.203126-3.820312-7.722657-1.5625-2.949219-3.125-5.8125-4.773438-8.675781l-3.90625-6.507812c-2.773438-4.425782-5.640625-8.679688-8.675781-12.933594-1.648438-2.339844-3.382813-4.597656-5.207031-6.855469-4.597657-5.992187-9.550782-11.699219-14.839844-17.09375-.765625-.882813-1.574219-1.722656-2.429688-2.515625-1.996094-2.171875-4.078125-4.167969-6.160156-6.164062-3.125-2.949219-6.421875-5.898438-9.71875-8.675782-24.179688-20.527344-52.554688-35.511718-83.136719-43.910156-2.863281-.867188-5.726562-1.5625-8.675781-2.257812-2.777344-.695313-5.640625-1.300782-8.507812-1.820313-13.746094-2.722656-27.726563-4.089844-41.738282-4.082031-15.285156-.007813-30.527344 1.59375-45.472656 4.773437-2.863281.523438-5.640625 1.214844-8.417969 1.910157-2.953125.695312-5.816406 1.5625-8.679687 2.429687-29.210938 8.65625-56.308594 23.285156-79.574219 42.957031-3.300781 2.777344-6.597656 5.640625-9.722656 8.675782-2.082031 1.996093-4.164063 3.992187-6.160157 6.164062-.78125.78125-1.648437 1.648438-2.429687 2.515625-6.671875 6.957031-12.875 14.347656-18.570313 22.128906-1.734374 2.253907-3.382812 4.597657-5.035156 7.027344-3.035156 4.425781-5.984375 9.113281-8.675781 13.800781-.085937.171875-.175781.257813-.261719.433594-1.648437 2.863281-3.210937 5.726562-4.683594 8.675781-1.390624 2.519531-2.691406 5.121094-3.90625 7.722657-6.941406 14.421874-12.296874 29.550781-15.96875 45.128906 1.140626-.265625 2.304688-.441406 3.472657-.523438 1.324219-.175781 2.65625-.261718 3.992187-.257812 1.277344 0 2.550782.085937 3.816406.257812.378907-.011718.757813.015625 1.128907.085938h.433593c.175782.089844.347657.089844.519532.175781h.347656c.585938.074219 1.167969.191406 1.738281.347656 1.582031.351563 3.144531.785157 4.683594 1.300781 1.359375.476563 2.695313 1.027344 3.992187 1.648438l-24.125-3.035156c-.5.074218-.992187.1875-1.472656.34375-.503906.066406-1 .183594-1.476562.347656l-.78125.261719c-.953125.261719-1.910156.605469-2.863282.953125-2.199218.816406-4.320312 1.835937-6.335937 3.039062-2.589844 1.507813-5.058594 3.21875-7.375 5.121094-1.25 1-2.4375 2.070312-3.558594 3.210938l-3.382812 3.382812c-.871094 1.042969-1.824219 2.082031-2.691407 3.125-.964843 1.050781-1.835937 2.183594-2.605468 3.382812-1.039063 1.300782-1.996094 2.691407-2.949219 4.078126-2.039063 2.949218-3.894531 6.019531-5.554687 9.199218-.78125 1.390625-1.5625 2.863282-2.253907 4.339844-.871093 1.648438-1.648437 3.382812-2.429687 5.207031-.566406 1.050781-1.03125 2.15625-1.390625 3.296875-.726563 1.582032-1.363281 3.207032-1.910157 4.859375-.609374 1.144531-1.050781 2.371094-1.300781 3.644531-.578125 1.257813-1.042969 2.566407-1.386719 3.90625-.324218.691407-.554687 1.417969-.695312 2.167969-.164062.230469-.253906.5-.261719.78125-.605469 1.824219-1.125 3.730469-1.648437 5.726563-.085938.089844-.085938.175781-.085938.347656-.195312.476562-.339844.972656-.433594 1.476562-.78125 2.777344-1.476562 5.640626-2.082031 8.589844v.085938c-1.402343 6.363281-2.472656 12.792968-3.210937 19.265625-.347656 2.519531-.609375 5.035156-.78125 7.636719-.433594 4.167968-.695313 8.417968-.86718775 12.757812-.05859375 2.335938.82812475 4.59375 2.46484375 6.261719s3.875 2.601562 6.210938 2.589843h477.117187c9.570313-.027343 17.328125-7.78125 17.355469-17.355468v-56.492188l.433594.085938c0-1.476563 0-2.953125-.085938-4.339844zm-392.59375-30.980469-1.5625 2.863281c-.347656-.519531-.691406-.953124-1.039062-1.386718-3.289063-4.308594-7.074219-8.210938-11.28125-11.628906 2.988281-3.214844 7.910156-3.683594 11.453124-1.09375 3.542969 2.589843 4.585938 7.421874 2.429688 11.246093zm0 0" fill="#9fc9d3"/><g fill="#84b5cb"><path d="m85.914062 350.96875-24.125-3.035156c2.453126-.523438 4.957032-.785156 7.464844-.78125 5.769532.003906 11.464844 1.308594 16.660156 3.816406zm0 0"/><path d="m439.714844 243.015625h-320.824219c.78125-.867187 1.648437-1.734375 2.429687-2.515625 1.996094-2.171875 4.078126-4.167969 6.160157-6.164062 3.125-3.035157 6.421875-5.898438 9.722656-8.675782h284.203125c3.296875 2.777344 6.59375 5.726563 9.71875 8.675782 2.082031 1.996093 4.164062 3.992187 6.160156 6.164062.855469.792969 1.664063 1.632812 2.429688 2.515625zm0 0"/><path d="m500.375 364.332031c-.542969.105469-1.097656.164063-1.648438.175781h-352.414062c-4.792969 0-8.675781-3.886718-8.675781-8.679687s3.882812-8.675781 8.675781-8.675781h350.417969c.78125 2.863281 1.386719 5.726562 1.996093 8.675781.605469 2.777344 1.128907 5.640625 1.648438 8.503906zm0 0"/><path d="m480.9375 302.804688c-1.175781.632812-2.488281.960937-3.820312.957031h-395.453126c-1.359374-.007813-2.699218-.335938-3.90625-.957031 1.214844-2.601563 2.515626-5.203126 3.90625-7.722657 1.472657-2.949219 3.035157-5.8125 4.683594-8.675781h385.996094c1.648438 2.863281 3.210938 5.726562 4.773438 8.675781 1.300781 2.519531 2.605468 5.121094 3.820312 7.722657zm0 0"/><path d="m277.523438 425.253906c-4.792969 0-8.675782-3.886718-8.675782-8.679687v-60.746094c0-4.792969 3.882813-8.675781 8.675782-8.675781 4.792968 0 8.679687 3.882812 8.679687 8.675781v60.746094c0 4.792969-3.886719 8.679687-8.679687 8.679687zm0 0"/><path d="m277.523438 303.761719c-4.792969 0-8.675782-3.886719-8.675782-8.679688v-60.746093c0-4.792969 3.882813-8.675782 8.675782-8.675782 4.792968 0 8.679687 3.882813 8.679687 8.675782v60.746093c0 4.792969-3.886719 8.679688-8.679687 8.679688zm0 0"/><path d="m338.269531 181.75v52.585938c0 4.792968-3.886719 8.679687-8.675781 8.679687-4.792969 0-8.679688-3.886719-8.679688-8.679687v-54.84375c.015626-.609376.074219-1.21875.171876-1.820313 2.867187.519531 5.730468 1.125 8.507812 1.820313 2.949219.695312 5.8125 1.390624 8.675781 2.257812zm0 0"/><path d="m329.59375 364.507812c-4.792969 0-8.679688-3.886718-8.679688-8.679687v-60.746094c0-4.792969 3.886719-8.675781 8.679688-8.675781 4.789062 0 8.675781 3.882812 8.675781 8.675781v60.746094c0 4.792969-3.886719 8.679687-8.675781 8.679687zm0 0"/><path d="m338.269531 416.574219v60.746093h-17.355469v-60.746093c0-4.792969 3.886719-8.675781 8.679688-8.675781 4.789062 0 8.675781 3.882812 8.675781 8.675781zm0 0"/><path d="m459.761719 425.253906c-4.792969 0-8.679688-3.886718-8.679688-8.679687v-60.746094c0-4.792969 3.886719-8.675781 8.679688-8.675781s8.675781 3.882812 8.675781 8.675781v60.746094c0 4.792969-3.882812 8.679687-8.675781 8.679687zm0 0"/><path d="m372.980469 425.253906c-4.792969 0-8.675781-3.886718-8.675781-8.679687v-60.746094c0-4.792969 3.882812-8.675781 8.675781-8.675781s8.679687 3.882812 8.679687 8.675781v60.746094c0 4.792969-3.886718 8.679687-8.679687 8.679687zm0 0"/><path d="m372.980469 303.761719c-4.792969 0-8.675781-3.886719-8.675781-8.679688v-60.746093c0-4.792969 3.882812-8.675782 8.675781-8.675782s8.679687 3.882813 8.679687 8.675782v60.746093c0 4.792969-3.886718 8.679688-8.679687 8.679688zm0 0"/><path d="m234.132812 180.273438v54.0625c0 4.792968-3.882812 8.679687-8.675781 8.679687s-8.679687-3.886719-8.679687-8.679687v-51.632813c2.863281-.867187 5.726562-1.734375 8.679687-2.429687 2.777344-.695313 5.554688-1.386719 8.417969-1.910157.175781.621094.265625 1.265625.257812 1.910157zm0 0"/><path d="m225.457031 364.507812c-4.792969 0-8.679687-3.886718-8.679687-8.679687v-60.746094c0-4.792969 3.886718-8.675781 8.679687-8.675781s8.675781 3.882812 8.675781 8.675781v60.746094c0 4.792969-3.882812 8.679687-8.675781 8.679687zm0 0"/><path d="m182.066406 303.761719c-4.792968 0-8.679687-3.886719-8.679687-8.679688v-60.746093c0-4.792969 3.886719-8.675782 8.679687-8.675782 4.792969 0 8.679688 3.882813 8.679688 8.675782v60.746093c0 4.792969-3.886719 8.679688-8.679688 8.679688zm0 0"/><path d="m138.675781 355.828125c-4.792969 0-8.675781-3.882813-8.675781-8.675781v-52.070313c0-4.792969 3.882812-8.675781 8.675781-8.675781s8.679688 3.882812 8.679688 8.675781v52.070313c0 4.792968-3.886719 8.675781-8.679688 8.675781zm0 0"/><path d="m416.371094 364.507812c-4.792969 0-8.675782-3.886718-8.675782-8.679687v-60.746094c0-4.792969 3.882813-8.675781 8.675782-8.675781 4.792968 0 8.679687 3.882812 8.679687 8.675781v60.746094c0 4.792969-3.886719 8.679687-8.679687 8.679687zm0 0"/><path d="m503.152344 407.898438v17.355468h-43.390625c-4.792969 0-8.679688-3.886718-8.679688-8.679687s3.886719-8.675781 8.679688-8.675781zm0 0"/><path d="m425.050781 416.574219v60.746093h-17.355469v-60.746093c0-4.792969 3.882813-8.675781 8.675782-8.675781 4.792968 0 8.679687 3.882812 8.679687 8.675781zm0 0"/></g><path d="m130 407.898438c-.675781-.007813-1.347656.082031-1.996094.257812-4.339844-13.839844-11-26.839844-19.699218-38.441406-8.78125-13.207032-23.226563-21.550782-39.050782-22.5625h78.101563c24.730469 0 46.425781 24.210937 58.75 60.746094zm0 0" fill="#67b9cc"/><path d="m216.605469 468.46875c.058593 2.335938-.832031 4.59375-2.464844 6.261719-1.636719 1.667969-3.878906 2.601562-6.214844 2.589843h-78.101562c2.335937.011719 4.578125-.921874 6.214843-2.589843 1.632813-1.667969 2.523438-3.925781 2.464844-6.261719-.445312-14.550781-2.304687-29.023438-5.554687-43.214844h78.015625c3.277344 14.1875 5.167968 28.660156 5.640625 43.214844zm0 0" fill="#67b9cc"/><path d="m210.964844 425.253906h-78.015625c-1.128907-4.601562-2.34375-9.027344-3.644531-13.367187v-.085938l-1.300782-3.644531c.648438-.175781 1.320313-.265625 1.996094-.257812h76.105469c1.820312 5.464843 3.46875 11.28125 4.859375 17.355468zm0 0" fill="#2fa8cc"/><path d="m468.4375 416.574219c-.011719 4.789062-3.890625 8.664062-8.675781 8.679687h-248.796875c-1.390625-6.074218-3.039063-11.890625-4.859375-17.355468h253.65625c4.785156.011718 8.664062 3.890624 8.675781 8.675781zm0 0" fill="#84b5cb"/><path d="m138.503906 468.46875c.058594 2.335938-.832031 4.59375-2.464844 6.261719-1.636718 1.667969-3.878906 2.601562-6.214843 2.589843h-121.144531c-2.335938.011719-4.574219-.921874-6.210938-2.589843s-2.5234375-3.925781-2.46484375-6.261719c.17187475-4.339844.43359375-8.589844.86718775-12.757812.171875-2.601563.433594-5.117188.78125-7.636719.738281-6.472657 1.808594-12.902344 3.210937-19.265625v-.085938c.605469-2.949218 1.300781-5.8125 2.082031-8.589844.09375-.503906.238282-1 .433594-1.476562 0-.171875 0-.257812.085938-.347656.523437-1.996094 1.042968-3.902344 1.648437-5.726563.007813-.28125.097657-.550781.261719-.78125.140625-.75.371094-1.476562.695312-2.167969.34375-1.339843.808594-2.648437 1.386719-3.90625.25-1.273437.691407-2.5 1.300781-3.644531.546876-1.652343 1.183594-3.277343 1.910157-4.859375.359375-1.140625.824219-2.246094 1.390625-3.296875.78125-1.824219 1.558594-3.558593 2.429687-5.207031.691407-1.476562 1.472657-2.949219 2.253907-4.339844 1.660156-3.179687 3.515624-6.25 5.554687-9.199218.953125-1.386719 1.910156-2.777344 2.949219-4.078126.769531-1.199218 1.640625-2.332031 2.605468-3.382812.867188-1.042969 1.820313-2.082031 2.691407-3.125l3.382812-3.382812c1.121094-1.140626 2.308594-2.210938 3.558594-3.210938 2.316406-1.902344 4.785156-3.613281 7.375-5.121094 2.015625-1.203125 4.136719-2.222656 6.335937-3.039062.953126-.347656 1.910157-.691406 2.863282-.953125l.78125-.261719c.476562-.164062.972656-.28125 1.476562-.347656.480469-.15625.972656-.269532 1.472656-.34375 1.140626-.265625 2.304688-.441406 3.472657-.523438 1.324219-.175781 2.65625-.261718 3.992187-.257812 1.277344 0 2.550782.085937 3.816406.257812.378907-.011718.757813.015625 1.128907.085938h.433593c.347657.089844.609376.089844.867188.175781.585938.074219 1.167969.191406 1.738281.347656 1.582031.351563 3.144531.785157 4.683594 1.300781 1.359375.476563 2.695313 1.027344 3.992187 1.648438 4.019532 1.839844 7.757813 4.234375 11.109376 7.117188 4.207031 3.417968 7.992187 7.320312 11.28125 11.628906.347656.433594.691406.867187 1.039062 1.386718 8.164062 11.273438 14.464844 23.785157 18.660156 37.054688l1.300782 3.644531v.085938c1.300781 4.339843 2.515624 8.765625 3.644531 13.367187.261719 1.125.519531 2.339844.78125 3.46875 2.75 13.085938 4.347656 26.382813 4.773437 39.746094zm0 0" fill="#9fc9d3"/><path d="m103.964844 477.320312h-69.421875c-.046875-11.015624.824219-22.015624 2.601562-32.890624.921875-5.769532 2.195313-11.480469 3.816407-17.09375.746093-3.117188 1.675781-6.191407 2.777343-9.199219v-.085938c1.824219-5.292969 3.644531-9.980469 5.554688-14.144531 2.359375-5.691406 5.484375-11.035156 9.285156-15.882812 2.492187-3.507813 6.390625-5.757813 10.675781-6.160157 4.402344.078125 8.460938 2.402344 10.757813 6.160157 3.53125 5.117187 6.582031 10.550781 9.113281 16.226562.125.328125.269531.648438.433594.957031v.085938c3.371094 7.109375 6.074218 14.519531 8.070312 22.128906 1.59375 5.589844 2.839844 11.269531 3.734375 17.007813 1.773438 10.875 2.644531 21.875 2.601563 32.890624zm0 0" fill="#3f5c6c"/><path d="m40.960938 427.335938c-1.621094 5.613281-2.894532 11.324218-3.816407 17.09375-.796875-.039063-1.574219-.277344-2.257812-.691407l-30.023438-14.929687v-.085938c.605469-2.949218 1.300781-5.8125 2.082031-8.589844.09375-.503906.238282-1 .433594-1.476562 0-.171875 0-.257812.085938-.347656.523437-1.996094 1.042968-3.902344 1.648437-5.726563.007813-.28125.097657-.550781.261719-.78125.519531.082031 1.019531.257813 1.476562.523438zm0 0" fill="#84b5cb"/><path d="m58.578125 388.023438c-3.800781 4.847656-6.925781 10.191406-9.285156 15.882812-1.847657-.878906-3.324219-2.386719-4.164063-4.253906l-15.882812-28.550782c.769531-1.199218 1.640625-2.332031 2.605468-3.382812.867188-1.042969 1.820313-2.082031 2.691407-3.125l3.382812-3.382812c1.121094-1.140626 2.308594-2.210938 3.558594-3.210938.472656.496094.878906 1.046875 1.214844 1.648438zm0 0" fill="#84b5cb"/><path d="m132.949219 425.253906-29.246094 18.484375c-.707031.425781-1.515625.664063-2.339844.691407-.894531-5.738282-2.140625-11.417969-3.734375-17.007813l30.375-19.265625c.519532-.257812-.609375.085938 0 0 1.300782 4.339844 3.816406 12.496094 4.945313 17.097656.261719 1.125-.261719-1.128906 0 0zm0 0" fill="#84b5cb"/><path d="m109.34375 371.101562-16.574219 29.679688c-.824219 1.507812-2.097656 2.722656-3.644531 3.46875-2.53125-5.675781-5.582031-11.109375-9.113281-16.226562l15.796875-28.289063c.332031-.597656.742187-1.152344 1.214844-1.648437 4.207031 3.417968 7.992187 7.320312 11.28125 11.628906.347656.433594.691406.867187 1.039062 1.386718zm0 0" fill="#84b5cb"/></svg>