<svg height="512pt" viewBox="-77 0 512 512" width="512pt" xmlns="http://www.w3.org/2000/svg"><path d="m102.398438 281.601562 15.027343 30.050782c1.335938 2.671875 1.949219 5.652344 1.773438 8.636718l-8.265625 140.511719 40.53125 17.066407h53.867187l42.132813-17.066407-8.261719-140.511719c-.179687-2.984374.433594-5.964843 1.769531-8.636718l15.027344-30.050782-60.800781-17.066406h-35.734375zm0 0" fill="#e64c3c"/><path d="m179.199219 102.398438c-4.710938 0-8.53125-3.820313-8.53125-8.53125v-42.667969c0-4.710938 3.820312-8.53125 8.53125-8.53125 4.714843 0 8.535156 3.820312 8.535156 8.53125v42.667969c0 4.710937-3.820313 8.53125-8.535156 8.53125zm0 0" fill="#7f8c8d"/><path d="m128 125.511719h102.398438v102.753906h-102.398438zm0 0" fill="#f9eab0"/><path d="m230.398438 247.464844-34.84375 17.070312h-35.554688l-32-17.070312-10.890625-21.78125c-1.324219-2.644532-1.183594-5.789063.371094-8.304688 1.554687-2.515625 4.300781-4.046875 7.261719-4.046875h108.917968c2.957032 0 5.703125 1.53125 7.257813 4.046875 1.554687 2.515625 1.695312 5.660156.375 8.304688zm0 0" fill="#7f8c8d"/><path d="m238.933594 136.535156h-119.46875c-1.777344 0-3.367188-1.105468-3.992188-2.769531s-.152344-3.539063 1.183594-4.710937l51.601562-43.113282c6.335938-5.292968 15.550782-5.292968 21.882813 0l51.601563 43.113282c1.339843 1.171874 1.8125 3.046874 1.1875 4.710937-.628907 1.664063-2.21875 2.769531-3.996094 2.769531zm0 0" fill="#95a5a5"/><g fill="#f3d55b"><path d="m179.199219 25.601562c-4.710938 0-8.53125-3.820312-8.53125-8.535156v-8.53125c0-4.714844 3.820312-8.535156 8.53125-8.535156 4.714843 0 8.535156 3.820312 8.535156 8.535156v8.53125c0 4.714844-3.820313 8.535156-8.535156 8.535156zm0 0"/><path d="m136.75 34.046875c-3.453125 0-6.5625-2.078125-7.882812-5.269531l-3.265626-7.882813c-1.761718-4.34375.308594-9.296875 4.640626-11.089843 4.328124-1.796876 9.296874.238281 11.125 4.554687l3.265624 7.882813c1.089844 2.636718.792969 5.636718-.789062 8.007812s-4.242188 3.792969-7.09375 3.796875zm0 0"/><path d="m100.757812 58.089844c-2.261718.003906-4.433593-.894532-6.03125-2.5l-6.035156-6.03125c-3.234375-3.347656-3.1875-8.671875.105469-11.960938 3.289063-3.292968 8.613281-3.339844 11.960937-.105468l6.035157 6.03125c2.4375 2.441406 3.167969 6.113281 1.847656 9.300781s-4.429687 5.265625-7.882813 5.265625zm0 0"/><path d="m76.707031 94.082031c-1.121093 0-2.230469-.222656-3.265625-.652343l-7.882812-3.261719c-4.316406-1.828125-6.351563-6.796875-4.558594-11.125 1.796875-4.332031 6.746094-6.402344 11.089844-4.640625l7.886718 3.261718c3.765626 1.554688 5.90625 5.554688 5.109376 9.550782-.792969 3.996094-4.300782 6.875-8.378907 6.867187zm0 0"/><path d="m289.574219 182.253906c-1.121094 0-2.230469-.222656-3.265625-.65625l-7.882813-3.261718c-4.332031-1.816407-6.382812-6.792969-4.582031-11.132813 1.796875-4.339844 6.765625-6.410156 11.113281-4.632813l7.886719 3.261719c3.765625 1.554688 5.90625 5.558594 5.109375 9.554688-.792969 3.996093-4.304687 6.871093-8.378906 6.867187zm0 0"/><path d="m68.265625 136.535156h-8.53125c-4.714844 0-8.535156-3.824218-8.535156-8.535156s3.820312-8.535156 8.535156-8.535156h8.53125c4.714844 0 8.535156 3.824218 8.535156 8.535156s-3.820312 8.535156-8.535156 8.535156zm0 0"/><path d="m298.667969 136.535156h-8.535157c-4.710937 0-8.53125-3.824218-8.53125-8.535156s3.820313-8.535156 8.53125-8.535156h8.535157c4.710937 0 8.53125 3.824218 8.53125 8.535156s-3.820313 8.535156-8.53125 8.535156zm0 0"/><path d="m68.824219 182.253906c-4.074219.003906-7.582031-2.871094-8.378907-6.867187-.792968-3.996094 1.347657-8 5.113282-9.554688l7.882812-3.261719c4.347656-1.777343 9.316406.292969 11.117188 4.632813 1.796875 4.339844-.25 9.316406-4.582032 11.132813l-7.886718 3.261718c-1.035156.433594-2.144532.65625-3.265625.65625zm0 0"/><path d="m281.691406 94.082031c-4.074218.007813-7.585937-2.871093-8.378906-6.867187-.796875-3.996094 1.347656-7.996094 5.113281-9.550782l7.882813-3.261718c4.34375-1.761719 9.296875.308594 11.089844 4.640625 1.792968 4.328125-.238282 9.296875-4.554688 11.125l-7.886719 3.261719c-1.035156.429687-2.144531.652343-3.265625.652343zm0 0"/><path d="m257.640625 58.089844c-3.449219 0-6.558594-2.078125-7.882813-5.265625-1.320312-3.1875-.589843-6.859375 1.851563-9.300781l6.03125-6.03125c2.144531-2.21875 5.316406-3.109376 8.300781-2.328126s5.3125 3.113282 6.09375 6.09375c.78125 2.984376-.109375 6.15625-2.328125 8.300782l-6.03125 6.03125c-1.597656 1.605468-3.769531 2.503906-6.035156 2.5zm0 0"/><path d="m221.648438 34.046875c-2.847657-.003906-5.507813-1.425781-7.089844-3.796875-1.585938-2.371094-1.878906-5.371094-.792969-8.007812l3.269531-7.882813c1.824219-4.316406 6.792969-6.351563 11.125-4.554687 4.328125 1.792968 6.402344 6.746093 4.640625 11.089843l-3.269531 7.882813c-1.316406 3.191406-4.429688 5.269531-7.882812 5.269531zm0 0"/></g><path d="m179.199219 136.535156c-.007813.925782-.152344 1.84375-.425781 2.730469l-24.660157 74.066406h-17.578125c.007813-.925781.152344-1.84375.425782-2.730469l24.660156-74.066406zm0 0" fill="#fff"/><path d="m213.332031 136.535156c-.007812.925782-.152343 1.84375-.425781 2.730469l-24.660156 74.066406h-17.578125c.007812-.925781.152343-1.84375.425781-2.730469l24.660156-74.066406zm0 0" fill="#fff"/><path d="m110.933594 247.464844h136.53125c4.714844 0 8.535156 3.824218 8.535156 8.535156v25.601562h-153.601562v-25.601562c0-4.710938 3.820312-8.535156 8.535156-8.535156zm0 0" fill="#95a5a5"/><path d="m102.398438 460.800781h153.601562c4.710938 0 8.535156 3.820313 8.535156 8.53125v34.132813h-170.667968v-34.132813c0-4.710937 3.820312-8.53125 8.53125-8.53125zm0 0" fill="#e6e7e8"/><path d="m196.265625 366.933594c-4.710937 0-8.53125-3.820313-8.53125-8.535156v-8.53125c0-4.714844 3.820313-8.535157 8.53125-8.535157 4.714844 0 8.535156 3.820313 8.535156 8.535157v8.53125c0 4.714843-3.820312 8.535156-8.535156 8.535156zm0 0" fill="#ecf0f1"/><path d="m187.734375 409.601562h17.066406c4.710938 0 8.53125 3.820313 8.53125 8.53125v42.667969h-34.132812v-42.667969c0-4.710937 3.820312-8.53125 8.535156-8.53125zm0 0" fill="#464f5d"/><path d="m307.199219 512h-256c-4.710938 0-8.53125-3.820312-8.53125-8.535156 0-4.710938 3.820312-8.53125 8.53125-8.53125h256c4.714843 0 8.535156 3.820312 8.535156 8.53125 0 4.714844-3.820313 8.535156-8.535156 8.535156zm0 0" fill="#af8066"/><path d="m145.066406 315.734375c-4.710937 0-8.53125-3.820313-8.53125-8.535156v-25.597657c0-4.714843 3.820313-8.535156 8.53125-8.535156 4.714844 0 8.535156 3.820313 8.535156 8.535156v25.597657c0 4.714843-3.820312 8.535156-8.535156 8.535156zm0 0" fill="#c03a2b"/><path d="m179.199219 315.734375c-4.710938 0-8.53125-3.820313-8.53125-8.535156v-25.597657c0-4.714843 3.820312-8.535156 8.53125-8.535156 4.714843 0 8.535156 3.820313 8.535156 8.535156v25.597657c0 4.714843-3.820313 8.535156-8.535156 8.535156zm0 0" fill="#c03a2b"/><path d="m213.332031 315.734375c-4.710937 0-8.53125-3.820313-8.53125-8.535156v-25.597657c0-4.714843 3.820313-8.535156 8.53125-8.535156 4.714844 0 8.535157 3.820313 8.535157 8.535156v25.597657c0 4.714843-3.820313 8.535156-8.535157 8.535156zm0 0" fill="#c03a2b"/><path d="m136.535156 247.464844h85.332032v34.136718h-85.332032zm0 0" fill="#bdc3c7"/><path d="m17.066406 512h-8.53125c-4.714844 0-8.535156-3.820312-8.535156-8.535156 0-4.710938 3.820312-8.53125 8.535156-8.53125h8.53125c4.714844 0 8.535156 3.820312 8.535156 8.53125 0 4.714844-3.820312 8.535156-8.535156 8.535156zm0 0" fill="#af8066"/><path d="m349.867188 512h-8.535157c-4.710937 0-8.53125-3.820312-8.53125-8.535156 0-4.710938 3.820313-8.53125 8.53125-8.53125h8.535157c4.710937 0 8.53125 3.820312 8.53125 8.53125 0 4.714844-3.820313 8.535156-8.53125 8.535156zm0 0" fill="#af8066"/></svg>