<?xml version="1.0" encoding="iso-8859-1"?>
<!-- Generator: Adobe Illustrator 19.0.0, SVG Export Plug-In . SVG Version: 6.00 Build 0)  -->
<svg version="1.1" id="Layer_1" xmlns="http://www.w3.org/2000/svg" xmlns:xlink="http://www.w3.org/1999/xlink" x="0px" y="0px"
	 viewBox="0 0 445 445" style="enable-background:new 0 0 445 445;" xml:space="preserve">
<g>
	<rect x="293.316" y="121" style="fill:#B3B3B3;" width="114" height="324"/>
	<rect x="293.316" y="121" style="fill:#999999;" width="114" height="9.33"/>
	<rect x="21.984" y="130" style="fill:#CCCCCC;" width="258.969" height="21"/>
	<polygon style="fill:#CCCCCC;" points="425.316,25.063 350.316,0 275.316,25.063 275.316,46.063 425.316,46.063 	"/>
	<rect x="293.316" y="46.062" style="fill:#CCCCCC;" width="114" height="53.938"/>
	<g>
		<rect x="311.566" y="54" style="fill:#2D4151;" width="29" height="38.063"/>
		<rect x="360.066" y="54" style="fill:#2D4151;" width="29" height="38.063"/>
	</g>
	<rect x="29.616" y="151" style="fill:#B3B3B3;" width="243.7" height="59"/>
	<rect x="275.316" y="25.062" style="fill:#808080;" width="150" height="21"/>
	<polygon style="fill:#808080;" points="275.316,100 275.316,121 307.566,121 307.566,152 317.066,152 317.066,121 345.566,121 
		345.566,152 355.066,152 355.066,121 383.566,121 383.566,152 393.066,152 393.066,121 425.316,121 425.316,100 	"/>
	<rect x="293.316" y="45.787" style="fill:#B3B3B3;" width="114" height="5.488"/>
	<polygon style="fill:#B3B3B3;" points="350.316,0 350.316,25.063 425.316,25.063 	"/>
	<rect x="54.385" y="178.333" style="fill:#999999;" width="39" height="48.063"/>
	<rect x="59.385" y="183.333" style="fill:#2D4151;" width="29" height="38.063"/>
	<rect x="106.107" y="178.333" style="fill:#999999;" width="39" height="48.063"/>
	<rect x="111.107" y="183.333" style="fill:#2D4151;" width="29" height="38.063"/>
	<rect x="157.829" y="178.333" style="fill:#999999;" width="39" height="48.063"/>
	<rect x="162.829" y="183.333" style="fill:#2D4151;" width="29" height="38.063"/>
	<rect x="209.552" y="178.333" style="fill:#999999;" width="39" height="48.063"/>
	<rect x="214.552" y="183.333" style="fill:#2D4151;" width="29" height="38.063"/>
	<rect x="19.684" y="210" style="fill:#CCCCCC;" width="361.937" height="235"/>
	<rect x="29.616" y="151" style="fill:#999999;" width="243.7" height="9.17"/>
	<rect x="43.046" y="297.333" style="fill:#808080;" width="136.667" height="147.667"/>
	<rect x="48.046" y="302.333" style="fill:#999999;" width="126.667" height="142.667"/>
	<g>
		<rect x="104.546" y="297.333" style="fill:#808080;" width="5" height="147.667"/>
		<rect x="113.213" y="297.333" style="fill:#808080;" width="5" height="147.667"/>
	</g>
	<g>
		<rect x="51.236" y="240.666" style="fill:#999999;" width="23.333" height="38.667"/>
		<rect x="56.236" y="245.667" style="fill:#2D4151;" width="13.333" height="28.667"/>
		<rect x="129.95" y="240.666" style="fill:#999999;" width="23.333" height="38.667"/>
		<rect x="134.95" y="245.667" style="fill:#2D4151;" width="13.333" height="28.667"/>
		<rect x="287.378" y="240.666" style="fill:#999999;" width="23.333" height="38.667"/>
		<rect x="292.378" y="245.667" style="fill:#2D4151;" width="13.333" height="28.667"/>
		<rect x="90.593" y="240.666" style="fill:#999999;" width="23.334" height="38.667"/>
		<rect x="95.593" y="245.667" style="fill:#2D4151;" width="13.333" height="28.667"/>
		<rect x="248.021" y="240.666" style="fill:#999999;" width="23.333" height="38.667"/>
		<rect x="253.021" y="245.667" style="fill:#2D4151;" width="13.333" height="28.667"/>
		<rect x="208.664" y="240.666" style="fill:#999999;" width="23.333" height="38.667"/>
		<rect x="213.664" y="245.667" style="fill:#2D4151;" width="13.333" height="28.667"/>
		<rect x="169.307" y="240.666" style="fill:#999999;" width="23.333" height="38.667"/>
		<rect x="174.307" y="245.667" style="fill:#2D4151;" width="13.333" height="28.667"/>
		<rect x="326.734" y="240.666" style="fill:#999999;" width="23.333" height="38.667"/>
		<rect x="331.734" y="245.667" style="fill:#2D4151;" width="13.333" height="28.667"/>
	</g>
	<polygon style="fill:#999999;" points="90.567,192.875 90.567,190.375 75.135,190.375 75.135,182.5 72.635,182.5 72.635,190.375 
		57.204,190.375 57.204,192.875 72.635,192.875 72.635,200.5 57.204,200.5 57.204,203 72.635,203 72.635,210 75.135,210 75.135,203 
		90.567,203 90.567,200.5 75.135,200.5 75.135,192.875 	"/>
	<polygon style="fill:#999999;" points="194.011,192.875 194.011,190.375 178.579,190.375 178.579,182.5 176.079,182.5 
		176.079,190.375 160.648,190.375 160.648,192.875 176.079,192.875 176.079,200.5 160.648,200.5 160.648,203 176.079,203 
		176.079,210 178.579,210 178.579,203 194.011,203 194.011,200.5 178.579,200.5 178.579,192.875 	"/>
	<polygon style="fill:#999999;" points="245.733,192.875 245.733,190.375 230.302,190.375 230.302,182.5 227.802,182.5 
		227.802,190.375 212.37,190.375 212.37,192.875 227.802,192.875 227.802,200.5 212.37,200.5 212.37,203 227.802,203 227.802,210 
		230.302,210 230.302,203 245.733,203 245.733,200.5 230.302,200.5 230.302,192.875 	"/>
	<polygon style="fill:#999999;" points="142.289,192.875 142.289,190.375 126.857,190.375 126.857,182.5 124.357,182.5 
		124.357,190.375 108.926,190.375 108.926,192.875 124.357,192.875 124.357,200.5 108.926,200.5 108.926,203 124.357,203 
		124.357,210 126.857,210 126.857,203 142.289,203 142.289,200.5 126.857,200.5 126.857,192.875 	"/>
	<rect x="128.983" y="385.333" style="fill:#808080;" width="32.667" height="59.667"/>
	<rect x="133.983" y="390.333" style="fill:#999999;" width="22.666" height="54.667"/>
	<g>
		<rect x="323.316" y="334" style="fill:#B3B3B3;" width="18" height="6"/>
		<rect x="313.65" y="341.667" style="fill:#B3B3B3;" width="18" height="6"/>
		<rect x="302.983" y="334" style="fill:#B3B3B3;" width="18" height="6"/>
	</g>
	<g>
		<rect x="323.65" y="189.5" style="fill:#CCCCCC;" width="18" height="6"/>
		<rect x="313.983" y="197.167" style="fill:#CCCCCC;" width="18" height="6"/>
		<rect x="303.316" y="189.5" style="fill:#CCCCCC;" width="18" height="6"/>
	</g>
	<g>
		<rect x="383.983" y="167.833" style="fill:#CCCCCC;" width="18" height="6"/>
		<rect x="374.316" y="175.5" style="fill:#CCCCCC;" width="18" height="6"/>
		<rect x="363.65" y="167.833" style="fill:#CCCCCC;" width="18" height="6"/>
	</g>
	<g>
		<rect x="46.65" y="218.5" style="fill:#B3B3B3;" width="18" height="6"/>
		<rect x="36.983" y="226.167" style="fill:#B3B3B3;" width="18" height="6"/>
		<rect x="26.316" y="218.5" style="fill:#B3B3B3;" width="18" height="6"/>
	</g>
	<g>
		<rect x="239.65" y="398.333" style="fill:#B3B3B3;" width="18" height="6"/>
		<rect x="229.983" y="406" style="fill:#B3B3B3;" width="18" height="6"/>
		<rect x="219.316" y="398.333" style="fill:#B3B3B3;" width="18" height="6"/>
	</g>
	<g>
		<rect x="352.65" y="422.667" style="fill:#B3B3B3;" width="18" height="6"/>
		<rect x="342.983" y="430.333" style="fill:#B3B3B3;" width="18" height="6"/>
		<rect x="332.316" y="422.667" style="fill:#B3B3B3;" width="18" height="6"/>
	</g>
</g>
<g>
</g>
<g>
</g>
<g>
</g>
<g>
</g>
<g>
</g>
<g>
</g>
<g>
</g>
<g>
</g>
<g>
</g>
<g>
</g>
<g>
</g>
<g>
</g>
<g>
</g>
<g>
</g>
<g>
</g>
</svg>
