<?xml version="1.0" encoding="iso-8859-1"?>
<!-- Generator: Adobe Illustrator 19.0.0, SVG Export Plug-In . SVG Version: 6.00 Build 0)  -->
<svg version="1.1" id="Capa_1" xmlns="http://www.w3.org/2000/svg" xmlns:xlink="http://www.w3.org/1999/xlink" x="0px" y="0px"
	 viewBox="0 0 512.003 512.003" style="enable-background:new 0 0 512.003 512.003;" xml:space="preserve">
<path style="fill:#00C0F1;" d="M104.046,128.32c-8.625-20.34-12.989-41.924-12.989-64.153c0-22.243,4.378-43.828,12.989-64.167
	l27.617,11.715c-7.044,16.605-10.616,34.251-10.616,52.453c0,18.187,3.573,35.833,10.616,52.467L104.046,128.32z"/>
<path style="fill:#00ABE9;" d="M407.954,128.32l-27.617-11.685c7.044-16.635,10.616-34.28,10.616-52.467
	c0-18.202-3.573-35.847-10.616-52.453L407.954,0c8.61,20.34,12.989,41.924,12.989,64.167
	C420.943,86.396,416.579,107.981,407.954,128.32z"/>
<path style="fill:#00C0F1;" d="M159.31,105.008c-5.491-12.945-8.273-26.68-8.273-40.84c0-14.175,2.782-27.91,8.273-40.855
	l27.617,11.715c-3.925,9.211-5.901,19.021-5.901,29.14c0,10.104,1.977,19.915,5.901,29.126L159.31,105.008z"/>
<path style="fill:#00ABE9;" d="M352.69,105.008l-27.617-11.715c3.925-9.211,5.901-19.021,5.901-29.126
	c0-10.118-1.977-19.93-5.901-29.14l27.617-11.715c5.491,12.945,8.273,26.68,8.273,40.855
	C360.963,78.327,358.181,92.063,352.69,105.008z"/>
<path style="fill:#00465F;" d="M363.212,445.349l18.186,56.268l28.537-9.223L282.451,97.951L256,106.5l-26.452-8.549
	L102.065,492.393l28.537,9.223l18.186-56.268L256,368.768L363.212,445.349z M281.799,350.341l41.197-29.427l24.73,76.518
	L281.799,350.341z M287.182,210.104l9.693,29.99h-81.749l9.693-29.99H287.182z M306.567,270.084l6.751,20.889l-57.318,40.942
	l-57.318-40.942l6.751-20.889H306.567z M164.274,397.433l24.73-76.518l41.197,29.427L164.274,397.433z M234.511,180.115L256,113.626
	l21.49,66.489H234.511z"/>
<path style="fill:#002C3C;" d="M277.489,180.115h-21.49v29.99h31.181l9.693,29.99h-40.875v29.99h50.566l6.751,20.889l-57.318,40.942
	v36.855L363.21,445.35l18.186,56.268l28.537-9.223L282.451,97.951L256,106.5v7.126L277.489,180.115z M347.726,397.433
	l-65.928-47.091l41.197-29.427L347.726,397.433z"/>
<path style="fill:#00ABE9;" d="M256,29.975c-24.892,0-44.984,20.092-44.984,44.984c0,24.89,20.092,44.984,44.984,44.984
	s44.984-20.094,44.984-44.984C300.984,50.068,280.892,29.975,256,29.975z"/>
<path style="fill:#0095FF;" d="M256,119.944V29.975c24.892,0,44.984,20.092,44.984,44.984
	C300.984,99.849,280.892,119.944,256,119.944z"/>
<rect x="46.074" y="482.013" style="fill:#FF641A;" width="419.855" height="29.99"/>
<rect x="256.001" y="482.013" style="fill:#F03800;" width="209.927" height="29.99"/>
<g>
</g>
<g>
</g>
<g>
</g>
<g>
</g>
<g>
</g>
<g>
</g>
<g>
</g>
<g>
</g>
<g>
</g>
<g>
</g>
<g>
</g>
<g>
</g>
<g>
</g>
<g>
</g>
<g>
</g>
</svg>
