<?xml version="1.0" encoding="iso-8859-1"?>
<!-- Generator: Adobe Illustrator 19.0.0, SVG Export Plug-In . SVG Version: 6.00 Build 0)  -->
<svg version="1.1" id="Capa_1" xmlns="http://www.w3.org/2000/svg" xmlns:xlink="http://www.w3.org/1999/xlink" x="0px" y="0px"
	 viewBox="0 0 472 472" style="enable-background:new 0 0 472 472;" xml:space="preserve">
<path style="fill:#999999;" d="M40,136h432v16H40V136z"/>
<path style="fill:#CCCCCC;" d="M368,170.4V112h-48v58.4c-64.935,13.255-106.83,76.64-93.576,141.576
	c13.255,64.935,76.64,106.83,141.576,93.576c64.935-13.255,106.83-76.64,93.576-141.576C451.956,216.849,415.126,180.02,368,170.4z"
	/>
<g>
	<path style="fill:#0071BC;" d="M304,80h80v32h-80V80z"/>
	<path style="fill:#0071BC;" d="M96,80h96v32H96V80z"/>
</g>
<path style="fill:#E6E6E6;" d="M267.008,266.176l-15.392-4.352c8.262-28.89,29.508-52.283,57.472-63.28l5.824,14.912
	C291.607,222.613,273.897,242.103,267.008,266.176L267.008,266.176z"/>
<g>
	<path style="fill:#999999;" d="M16,80h16v56H16V80z"/>
	<path style="fill:#999999;" d="M14.553,157.652l15.86-2.114L63.93,406.945l-15.86,2.114L14.553,157.652z"/>
</g>
<path style="fill:#CCCCCC;" d="M112,112h64l0,0v224c0,17.673-14.327,32-32,32s-32-14.327-32-32V112L112,112z"/>
<g>
	<path style="fill:#E6E6E6;" d="M112,160h40v16h-40V160z"/>
	<path style="fill:#E6E6E6;" d="M112,192h24v16h-24V192z"/>
	<path style="fill:#E6E6E6;" d="M112,224h40v16h-40V224z"/>
</g>
<path style="fill:#CCCCCC;" d="M16,408h80v40H16V408z"/>
<g>
	<path style="fill:#29ABE2;" d="M104,40h16v16h-16V40z"/>
	<path style="fill:#29ABE2;" d="M128,0h16v16h-16V0z"/>
	<path style="fill:#29ABE2;" d="M160,32h16v16h-16V32z"/>
	<path style="fill:#29ABE2;" d="M336,40h16v16h-16V40z"/>
	<path style="fill:#29ABE2;" d="M304,0h16v16h-16V0z"/>
	<path style="fill:#29ABE2;" d="M368,16h16v16h-16V16z"/>
	<path style="fill:#29ABE2;" d="M384,304c-17.673-17.672-46.327-17.672-64,0s-46.327,17.672-64,0
		c-8.446-8.464-19.907-13.226-31.864-13.24c1.413,66.184,56.211,118.691,122.395,117.278
		c63.005-1.345,114.208-51.249,117.173-114.198c-5.887,2.252-11.237,5.713-15.704,10.16C430.327,321.672,401.673,321.672,384,304
		L384,304z"/>
</g>
<g>
	<path style="fill:#0071BC;" d="M280,344h16v16h-16V344z"/>
	<path style="fill:#0071BC;" d="M344,320h16v16h-16V320z"/>
	<path style="fill:#0071BC;" d="M328,368h16v16h-16V368z"/>
	<path style="fill:#0071BC;" d="M392,344h16v16h-16V344z"/>
</g>
<path style="fill:#29ABE2;" d="M112,264h64l0,0v72c0,17.673-14.327,32-32,32s-32-14.327-32-32V264L112,264z"/>
<g>
	<circle style="fill:#0071BC;" cx="24" cy="144" r="24"/>
	<path style="fill:#0071BC;" d="M0,440h464v32H0V440z"/>
</g>
<g>
</g>
<g>
</g>
<g>
</g>
<g>
</g>
<g>
</g>
<g>
</g>
<g>
</g>
<g>
</g>
<g>
</g>
<g>
</g>
<g>
</g>
<g>
</g>
<g>
</g>
<g>
</g>
<g>
</g>
</svg>
