<?xml version="1.0" encoding="iso-8859-1"?>
<!-- Generator: Adobe Illustrator 19.0.0, SVG Export Plug-In . SVG Version: 6.00 Build 0)  -->
<svg version="1.1" id="Layer_1" xmlns="http://www.w3.org/2000/svg" xmlns:xlink="http://www.w3.org/1999/xlink" x="0px" y="0px"
	 viewBox="0 0 512.001 512.001" style="enable-background:new 0 0 512.001 512.001;" xml:space="preserve">
<g>
	<g>
		<polygon style="fill:#A85656;" points="229.518,88.276 282.483,88.276 282.483,44.138 229.518,44.138 		"/>
		<polygon style="fill:#A85656;" points="229.518,185.379 282.483,185.379 282.483,132.414 229.518,132.414 		"/>
	</g>
	<path style="fill:#C2615F;" d="M467.863,44.138H44.138C19.765,44.138,0,24.373,0,0l0,0c105.657,13.789,393.101,10.761,512,0l0,0
		C512,24.373,492.235,44.138,467.863,44.138"/>
	<path style="fill:#FB7B76;" d="M432.552,477.123V132.415h17.655V88.277h-26.483V44.139h-35.31v44.138H123.587V44.139h-35.31v44.138
		H61.794v44.138h17.655v344.708c-14.945,2.11-26.483,14.822-26.483,30.349c0,2.498,2.022,4.529,4.529,4.529h21.954h44.138h21.954
		c2.507,0,4.529-2.03,4.529-4.529c0-15.528-11.538-28.239-26.483-30.349V132.415h264.828v344.708
		c-14.945,2.11-26.483,14.822-26.483,30.349c0,2.498,2.022,4.529,4.529,4.529h21.954h44.138h21.954c2.507,0,4.529-2.03,4.529-4.529
		C459.035,491.945,447.497,479.233,432.552,477.123"/>
	<path style="fill:#F0C419;" d="M247.691,168.275c-31.1,4.114-53.486,32.194-53.486,63.559v77.674c0,4.573,3.716,8.289,8.289,8.289
		h107.008c4.582,0,8.289-3.716,8.289-8.289v-79.987C317.791,192.798,285.332,163.287,247.691,168.275"/>
	<path style="fill:#C99E12;" d="M229.518,317.793v8.828c0,14.627,11.855,26.483,26.483,26.483c14.627,0,26.483-11.855,26.483-26.483
		v-8.828H229.518z"/>
	<g>
		<polygon style="fill:#F0C419;" points="79.449,308.966 123.587,308.966 123.587,264.828 79.449,264.828 		"/>
		<polygon style="fill:#F0C419;" points="388.414,308.966 432.552,308.966 432.552,264.828 388.414,264.828 		"/>
	</g>
	<g>
		<path style="fill:#C99E12;" d="M282.483,229.517h-17.655c-4.873,0-8.828-3.955-8.828-8.828c0-4.873,3.955-8.828,8.828-8.828
			h17.655c4.873,0,8.828,3.955,8.828,8.828C291.311,225.562,287.356,229.517,282.483,229.517"/>
		<path style="fill:#C99E12;" d="M220.69,220.69c0-4.873,3.955-8.828,8.828-8.828c4.873,0,8.828,3.955,8.828,8.828
			c0,4.873-3.955,8.828-8.828,8.828C224.645,229.517,220.69,225.562,220.69,220.69"/>
		<path style="fill:#C99E12;" d="M247.173,282.483h-17.655c-4.873,0-8.828-3.955-8.828-8.828c0-4.873,3.955-8.828,8.828-8.828
			h17.655c4.873,0,8.828,3.955,8.828,8.828C256,278.528,252.046,282.483,247.173,282.483"/>
		<path style="fill:#C99E12;" d="M291.311,273.655c0,4.873-3.955,8.828-8.828,8.828c-4.873,0-8.828-3.955-8.828-8.828
			c0-4.873,3.955-8.828,8.828-8.828C287.356,264.828,291.311,268.782,291.311,273.655"/>
	</g>
	<polygon style="fill:#A85656;" points="123.587,441.379 388.414,441.379 388.414,397.241 123.587,397.241 	"/>
</g>
<g>
</g>
<g>
</g>
<g>
</g>
<g>
</g>
<g>
</g>
<g>
</g>
<g>
</g>
<g>
</g>
<g>
</g>
<g>
</g>
<g>
</g>
<g>
</g>
<g>
</g>
<g>
</g>
<g>
</g>
</svg>
