<?xml version="1.0" encoding="iso-8859-1"?>
<!-- Generator: Adobe Illustrator 19.0.0, SVG Export Plug-In . SVG Version: 6.00 Build 0)  -->
<svg version="1.1" id="Capa_1" xmlns="http://www.w3.org/2000/svg" xmlns:xlink="http://www.w3.org/1999/xlink" x="0px" y="0px"
	 viewBox="0 0 512.001 512.001" style="enable-background:new 0 0 512.001 512.001;" xml:space="preserve">
<rect x="211.005" y="360.978" style="fill:#57555C;" width="89.985" height="120.979"/>
<rect x="255.997" y="360.978" style="fill:#3C3A41;" width="44.992" height="120.979"/>
<path style="fill:#CAE8F9;" d="M510.757,370.281l-59.99-149.974c-2.1-5.699-7.799-9.298-13.799-9.298H75.031
	c-5.999,0-11.698,3.599-13.799,9.298L1.243,370.281c-2.1,4.798-1.5,9.899,1.501,14.097c2.699,4.199,7.199,6.6,12.297,6.6h481.917
	c5.098,0,9.598-2.401,12.297-6.6C512.257,380.179,512.858,375.079,510.757,370.281z"/>
<path style="fill:#A4D9F5;" d="M509.257,384.377c-2.699,4.199-7.199,6.6-12.297,6.6H256.001V211.008H436.97
	c5.999,0,11.698,3.599,13.799,9.298l59.99,149.974C512.858,375.079,512.257,380.179,509.257,384.377z"/>
<path style="fill:#17ACE8;" d="M426.771,241.003H85.232L37.239,360.982h437.526L426.771,241.003z"/>
<polygon style="fill:#1689FC;" points="474.764,360.982 256.001,360.982 256.001,241.003 426.771,241.003 "/>
<path style="fill:#FEA832;" d="M270.999,135.021v30.995c0,8.398-6.598,14.997-14.997,14.997c-8.4,0-14.997-6.6-14.997-14.997
	v-30.995c0-8.4,6.598-14.997,14.997-14.997C264.401,120.024,270.999,126.622,270.999,135.021z"/>
<g>
	<path style="fill:#FE9923;" d="M351.449,131.697l-21.207-21.207c-5.858-5.858-5.858-15.349,0-21.207s15.349-5.858,21.207,0
		l21.207,21.207c5.858,5.858,5.858,15.349,0,21.207C366.797,137.555,357.307,137.555,351.449,131.697z"/>
	<path style="fill:#FE9923;" d="M405.975,30.039h-29.995c-8.29,0-14.997-6.708-14.997-14.997s6.708-14.997,14.997-14.997h29.995
		c8.29,0,14.997,6.708,14.997,14.997S414.265,30.039,405.975,30.039z"/>
</g>
<g>
	<path style="fill:#FEA832;" d="M136.022,30.039h-29.995c-8.29,0-14.997-6.708-14.997-14.997s6.708-14.997,14.997-14.997h29.995
		c8.29,0,14.997,6.708,14.997,14.997S144.311,30.039,136.022,30.039z"/>
	<path style="fill:#FEA832;" d="M139.346,131.697c-5.858-5.858-5.858-15.349,0-21.207l21.207-21.207
		c5.858-5.858,15.349-5.858,21.207,0s5.858,15.349,0,21.207l-21.207,21.207C154.696,137.555,145.205,137.555,139.346,131.697z"/>
</g>
<path style="fill:#FEDB41;" d="M315.991,0.044H196.011c-8.4,0-14.997,6.598-14.997,14.997c0,41.393,33.594,74.987,74.987,74.987
	s74.987-33.594,74.987-74.987C330.988,6.642,324.39,0.044,315.991,0.044z"/>
<g>
	<path style="fill:#CAE8F9;" d="M466.965,300.993c0,8.398-6.598,14.997-14.997,14.997H60.035c-8.4,0-14.997-6.6-14.997-14.997
		c0-8.4,6.598-14.997,14.997-14.997h391.933C460.367,285.995,466.965,292.593,466.965,300.993z"/>
	<path style="fill:#CAE8F9;" d="M136.036,390.977c-0.967,0-1.963-0.088-2.958-0.293c-8.114-1.626-13.387-9.519-11.761-17.648
		l29.995-149.974c1.611-8.129,9.461-13.504,17.648-11.761c8.114,1.626,13.387,9.519,11.761,17.648l-29.995,149.974
		C149.306,386.056,143.037,390.977,136.036,390.977z"/>
</g>
<path style="fill:#A4D9F5;" d="M375.966,390.977c-7.001,0-13.269-4.921-14.689-12.054l-29.995-149.974
	c-1.626-8.129,3.646-16.022,11.761-17.648c8.261-1.714,16.022,3.632,17.648,11.761l30.995,149.974
	c1.626,8.129-4.646,16.022-12.761,17.648C377.928,390.889,376.932,390.977,375.966,390.977z"/>
<path style="fill:#17ACE8;" d="M360.983,496.959c0,8.398-6.598,14.997-14.997,14.997H166.017c-8.4,0-14.997-6.6-14.997-14.997
	c0-24.897,20.096-44.992,44.992-44.992h119.979C340.887,451.967,360.983,472.062,360.983,496.959z"/>
<path style="fill:#FE9923;" d="M256.001,181.013v-60.99c8.4,0,14.997,6.598,14.997,14.997v30.995
	C270.999,174.413,264.401,181.013,256.001,181.013z"/>
<path style="fill:#FCBF29;" d="M256.001,90.029V0.044h59.99c8.4,0,14.997,6.598,14.997,14.997
	C330.988,56.435,297.394,90.029,256.001,90.029z"/>
<path style="fill:#1689FC;" d="M360.983,496.959c0,8.398-6.598,14.997-14.997,14.997h-89.985v-59.99h59.99
	C340.887,451.967,360.983,472.062,360.983,496.959z"/>
<path style="fill:#A4D9F5;" d="M466.965,300.993c0,8.398-6.598,14.997-14.997,14.997H256.001v-29.995h195.966
	C460.367,285.995,466.965,292.593,466.965,300.993z"/>
<path style="fill:#CAE8F9;" d="M270.999,226.006V375.98c0,8.398-6.598,14.997-14.997,14.997c-8.4,0-14.997-6.6-14.997-14.997
	V226.006c0-8.4,6.598-14.997,14.997-14.997C264.401,211.008,270.999,217.606,270.999,226.006z"/>
<path style="fill:#B7E0F6;" d="M270.999,226.006V375.98c0,8.398-6.598,14.997-14.997,14.997V211.008
	C264.401,211.008,270.999,217.606,270.999,226.006z"/>
<g>
</g>
<g>
</g>
<g>
</g>
<g>
</g>
<g>
</g>
<g>
</g>
<g>
</g>
<g>
</g>
<g>
</g>
<g>
</g>
<g>
</g>
<g>
</g>
<g>
</g>
<g>
</g>
<g>
</g>
</svg>
