<?xml version="1.0" encoding="iso-8859-1"?>
<!-- Generator: Adobe Illustrator 19.0.0, SVG Export Plug-In . SVG Version: 6.00 Build 0)  -->
<svg version="1.1" id="Layer_1" xmlns="http://www.w3.org/2000/svg" xmlns:xlink="http://www.w3.org/1999/xlink" x="0px" y="0px"
	 viewBox="0 0 511.982 511.982" style="enable-background:new 0 0 511.982 511.982;" xml:space="preserve">
<g>
	<path style="fill:#3880CE;" d="M234.648,95.999H213.32c-5.891,0-10.672-4.781-10.672-10.671s4.781-10.672,10.672-10.672h21.328
		c5.89,0,10.671,4.781,10.671,10.672S240.538,95.999,234.648,95.999z"/>
	<path style="fill:#3880CE;" d="M383.971,95.999h-21.328c-5.891,0-10.655-4.781-10.655-10.671s4.765-10.672,10.655-10.672h21.328
		c5.891,0,10.672,4.781,10.672,10.672S389.862,95.999,383.971,95.999z"/>
</g>
<g>
	<path style="fill:#5D9CEC;" d="M213.32,85.328h-31.999c-5.891,0-10.672-4.781-10.672-10.672c0-5.89,4.781-10.656,10.672-10.656
		h31.999c5.891,0,10.672,4.766,10.672,10.656C223.992,80.547,219.211,85.328,213.32,85.328z"/>
	<path style="fill:#5D9CEC;" d="M362.643,85.328h-31.998c-5.891,0-10.656-4.781-10.656-10.672c0-5.89,4.766-10.656,10.656-10.656
		h31.998c5.891,0,10.672,4.766,10.672,10.656C373.315,80.547,368.534,85.328,362.643,85.328z"/>
</g>
<path style="fill:#E6E9ED;" d="M255.991,159.998c-135.496,0-245.337,28.64-245.337,63.998V394.64
	c0,35.342,109.841,63.998,245.337,63.998c135.48,0,245.32-28.656,245.32-63.998V223.996
	C501.311,188.637,391.471,159.998,255.991,159.998z"/>
<path style="fill:#AC92EB;" d="M501.311,223.996c0,35.343-109.84,63.99-245.32,63.99c-135.496,0-245.337-28.647-245.337-63.99
	c0-35.358,109.841-63.998,245.337-63.998C391.471,159.998,501.311,188.637,501.311,223.996z"/>
<g>
	<path style="fill:#967ADC;" d="M287.973,256.964c-1.64,0-3.296-0.375-4.858-1.172c-5.234-2.688-7.312-9.109-4.625-14.359
		l42.671-83.294c2.672-5.234,9.109-7.312,14.344-4.625c5.249,2.688,7.327,9.109,4.64,14.359l-42.671,83.294
		C295.583,254.854,291.848,256.964,287.973,256.964z"/>
	<path style="fill:#967ADC;" d="M223.992,256.964c-3.875,0-7.609-2.109-9.5-5.797l-42.671-83.294
		c-2.688-5.25-0.609-11.671,4.641-14.359c5.234-2.688,11.672-0.609,14.344,4.625l42.671,83.294
		c2.687,5.25,0.609,11.672-4.625,14.359C227.289,256.589,225.633,256.964,223.992,256.964z"/>
	<path style="fill:#967ADC;" d="M351.988,268.011c-3.734,0-7.359-1.969-9.312-5.453c-2.875-5.141-1.047-11.641,4.094-14.516
		l116.591-65.326c5.141-2.875,11.64-1.047,14.515,4.094s1.047,11.64-4.094,14.531l-116.592,65.31
		C355.55,267.573,353.754,268.011,351.988,268.011z"/>
	<path style="fill:#967ADC;" d="M159.978,268.011c-1.766,0-3.562-0.438-5.203-1.359L38.184,201.34
		c-5.14-2.891-6.968-9.39-4.094-14.531c2.875-5.141,9.375-6.969,14.516-4.094l116.591,65.326c5.14,2.875,6.968,9.375,4.093,14.516
		C167.338,266.042,163.713,268.011,159.978,268.011z"/>
</g>
<path style="fill:#A0D468;" d="M333.505,241.104c-20.828-4.156-48.343-6.453-77.514-6.453c-29.187,0-56.701,2.297-77.529,6.453
	c-18.53,3.719-39.812,9.969-39.812,25.547c0,15.585,21.281,21.835,39.812,25.554c20.828,4.156,48.343,6.437,77.529,6.437
	c29.171,0,56.686-2.28,77.514-6.437c18.53-3.719,39.811-9.969,39.811-25.554C373.315,251.073,352.035,244.823,333.505,241.104z"/>
<g>
	<path style="fill:#434A54;" d="M181.321,173.669c-5.891,0-10.672-4.765-10.672-10.656V53.329c0-5.891,4.781-10.672,10.672-10.672
		s10.672,4.781,10.672,10.672v109.684C191.993,168.904,187.212,173.669,181.321,173.669z"/>
	<path style="fill:#434A54;" d="M330.645,173.669c-5.891,0-10.656-4.765-10.656-10.656V53.329c0-5.891,4.766-10.672,10.656-10.672
		s10.671,4.781,10.671,10.672v109.684C341.316,168.904,336.536,173.669,330.645,173.669z"/>
</g>
<rect x="223.991" y="375.861" style="fill:#3880CE;" width="63.981" height="75.53"/>
<g>
	<path style="fill:#5D9CEC;" d="M297.458,463.169c-11.124,0-20.155-4.344-20.155-9.719v-77.654c0-5.375,9.031-9.719,20.155-9.719
		c11.125,0,20.156,4.344,20.156,9.719v77.654C317.614,458.825,308.583,463.169,297.458,463.169z"/>
	<path style="fill:#5D9CEC;" d="M214.492,463.169c-11.125,0-20.155-4.344-20.155-9.719v-77.654c0-5.375,9.03-9.719,20.155-9.719
		c11.141,0,20.156,4.344,20.156,9.719v77.654C234.648,458.825,225.633,463.169,214.492,463.169z"/>
</g>
<path style="fill:#CCD1D9;" d="M487.625,189.997c-13.25-8.172-31.921-15.438-55.483-21.578
	c-47.186-12.312-109.746-19.093-176.15-19.093c-66.42,0-128.98,6.781-176.167,19.093c-23.562,6.14-42.233,13.406-55.482,21.578
	C8.187,199.965,0,211.402,0,223.996V394.64c0,12.594,8.187,24.03,24.343,33.998c13.249,8.188,31.921,15.438,55.482,21.594
	c47.186,12.312,109.746,19.093,176.166,19.093c66.404,0,128.965-6.781,176.15-19.094c23.562-6.156,42.233-13.406,55.483-21.594
	c16.155-9.968,24.358-21.404,24.358-33.998V223.996C511.983,211.402,503.78,199.965,487.625,189.997z M415.986,432.231
	c-25.062,5.781-54.03,10.094-85.341,12.719v-63.217c32.623-2.156,61.107-5.844,85.341-11.031V432.231z M330.645,360.297v-64.623
	c31.029-2.531,59.967-6.688,85.341-12.25v65.404C389.909,354.734,360.206,358.265,330.645,360.297z M95.996,370.702
	c24.218,5.188,52.701,8.875,85.325,11.031v63.217c-31.312-2.625-60.279-6.938-85.325-12.719
	C95.996,432.231,95.996,370.702,95.996,370.702z M95.996,348.765v-65.342c25.358,5.562,54.295,9.719,85.325,12.25v64.623
	C145.15,357.828,117.339,353.609,95.996,348.765z M21.326,256.042c0.969,0.656,1.969,1.297,3.016,1.938
	c12.265,7.562,29.187,14.351,50.311,20.194v64.967c-9.187-2.812-16.655-5.718-22.687-8.499
	c-27.14-12.469-30.358-24.438-30.64-25.812C21.326,308.83,21.326,256.042,21.326,256.042z M202.648,297.142
	c17.344,0.999,35.187,1.499,53.343,1.499c18.14,0,35.982-0.5,53.326-1.499v64.341c-18.531,0.844-36.624,1.156-53.326,1.156
	c-19.359,0-37.093-0.406-53.343-1.125L202.648,297.142L202.648,297.142z M437.313,278.174c21.125-5.844,38.046-12.632,50.312-20.194
	c1.047-0.641,2.046-1.281,3.015-1.938v53.287c0,0.094-2.64,10.906-24.936,22.531c-8.312,4.344-17.891,8.093-28.391,11.343
	L437.313,278.174L437.313,278.174z M85.199,189.059c45.483-11.875,106.138-18.406,170.792-18.406
	c64.639,0,125.293,6.531,170.775,18.406c50.421,13.156,63.873,28.14,63.873,34.937c0,6.781-13.452,21.765-63.873,34.921
	c-28.639,7.469-63.279,12.828-101.137,15.757c-1.641-1-3.562-1.625-5.641-1.625c-2.625,0-5.016,0.938-6.875,2.5
	c-18.469,1.156-37.624,1.781-57.123,1.781c-19.516,0-38.671-0.625-57.139-1.781c-1.859-1.562-4.25-2.5-6.859-2.5
	c-2.094,0-4.016,0.625-5.656,1.625c-37.858-2.929-72.498-8.288-101.138-15.757c-50.421-13.156-63.873-28.14-63.873-34.921
	C21.326,217.199,34.778,202.215,85.199,189.059z M21.326,394.639v-53.218c4.156,3.125,9.125,6.25,15.062,9.344
	c10.719,5.594,23.5,10.499,38.265,14.687v61.187C32.873,414.263,21.326,400.921,21.326,394.639z M202.648,446.45v-63.561
	c16.797,0.719,34.577,1.094,53.343,1.094c18.749,0,36.529-0.375,53.326-1.094v63.561c-17.297,1-35.155,1.531-53.326,1.531
	C237.803,447.981,219.945,447.45,202.648,446.45z M437.313,426.638v-61.187c14.766-4.188,27.547-9.093,38.265-14.687
	c5.938-3.094,10.906-6.219,15.062-9.344v53.218C490.639,400.921,479.094,414.263,437.313,426.638z"/>
<g>
</g>
<g>
</g>
<g>
</g>
<g>
</g>
<g>
</g>
<g>
</g>
<g>
</g>
<g>
</g>
<g>
</g>
<g>
</g>
<g>
</g>
<g>
</g>
<g>
</g>
<g>
</g>
<g>
</g>
</svg>
