<svg height="472pt" viewBox="-3 0 471 472" width="472pt" xmlns="http://www.w3.org/2000/svg"><path d="m240.5 32h-16v-24c0-4.417969 3.582031-8 8-8s8 3.582031 8 8zm0 0" fill="#b08149"/><path d="m.5 392h464v32h-464zm0 0" fill="#786455"/><path d="m168.5 88h112c-17.671875 0-32-14.328125-32-32h-32c0 17.671875-14.328125 32-32 32zm0 0" fill="#b08149"/><path d="m152.5 88h160l-32 32h-96zm0 0" fill="#edae00"/><path d="m184.5 120c0 17.671875-14.328125 32-32 32h160c-17.671875 0-32-14.328125-32-32zm0 0" fill="#b08149"/><path d="m120.5 152h224l-32 32h-160zm0 0" fill="#edae00"/><path d="m152.5 184c0 17.671875-14.328125 32-32 32h224c-17.671875 0-32-14.328125-32-32zm0 0" fill="#b08149"/><path d="m88.5 216h288l-32 32h-224zm0 0" fill="#edae00"/><path d="m120.5 248h224v80h-224zm0 0" fill="#f19601"/><g fill="#edae00"><path d="m216.5 280h32v48h-32zm0 0"/><path d="m152.5 280h32v48h-32zm0 0"/><path d="m280.5 280h32v48h-32zm0 0"/></g><path d="m216.5 56v-16c0-8.835938 7.164062-16 16-16s16 7.164062 16 16v16zm0 0" fill="#f19601"/><path d="m32.5 360h400v32h-400zm0 0" fill="#9f8671"/><path d="m64.5 328h336v32h-336zm0 0" fill="#786455"/><path d="m200.5 328-32 96h128l-32-96zm0 0" fill="#f4e5d9"/><path d="m216.5 88h32v32h-32zm0 0" fill="#005284"/><path d="m168.5 424-48 48h224l-48-48zm0 0" fill="#ecd3bf"/><path d="m224.5 328h16v96h-16zm0 0" fill="#b29e8d"/><path d="m224.5 424h16v48h-16zm0 0" fill="#9f8671"/></svg>