<?xml version="1.0" encoding="iso-8859-1"?>
<!-- Generator: Adobe Illustrator 19.0.0, SVG Export Plug-In . SVG Version: 6.00 Build 0)  -->
<svg version="1.1" id="Layer_1" xmlns="http://www.w3.org/2000/svg" xmlns:xlink="http://www.w3.org/1999/xlink" x="0px" y="0px"
	 viewBox="0 0 460 460" style="enable-background:new 0 0 460 460;" xml:space="preserve">
<g id="XMLID_1017_">
	<polygon id="XMLID_1018_" style="fill:#CB9851;" points="212.407,112.85 281.46,0 307.058,15.662 247.591,112.852 	"/>
	<polygon id="XMLID_1019_" style="fill:#FFC052;" points="247.591,112.852 178.54,0 152.942,15.662 212.407,112.85 230,122.851 	"/>
	<polygon id="XMLID_1020_" style="fill:#AF2B12;" points="247.59,112.85 430,410.5 440,435.25 430,460 382.99,460 367.99,450 
		352.99,460 305.98,460 210,286.425 230,112.85 	"/>
	<polygon id="XMLID_1021_" style="fill:#DA521B;" points="230,112.85 230,295 154.02,460 107.01,460 92.01,450 77.01,460 30,460 
		20,435.25 30,410.5 212.41,112.85 	"/>
	<path id="XMLID_1022_" style="fill:#3C261B;" d="M290.98,370.98l-15,89.02H230l-10-75l10-75C263.68,310,290.98,337.3,290.98,370.98
		z"/>
	<path id="XMLID_1023_" style="fill:#624950;" d="M230,310v150h-45.98l-15-89.02C169.02,337.3,196.32,310,230,310z"/>
	<path id="XMLID_1024_" style="fill:#CB9851;" d="M305.98,370.98V460h-30v-89.02c0-25.35-20.63-45.98-45.98-45.98l-10-15l10-15
		C271.89,295,305.98,329.08,305.98,370.98z"/>
	<path id="XMLID_1025_" style="fill:#FFC052;" d="M230,295v30c-25.35,0-45.98,20.63-45.98,45.98V460h-30v-89.02
		C154.02,329.08,188.11,295,230,295z"/>
	<rect id="XMLID_1026_" y="410.5" style="fill:#FFC052;" width="30" height="49.5"/>
	<rect id="XMLID_1027_" x="77.01" y="410.5" style="fill:#FFC052;" width="30" height="49.5"/>
	<rect id="XMLID_1028_" x="352.99" y="410.5" style="fill:#CB9851;" width="30" height="49.5"/>
	<rect id="XMLID_1029_" x="430" y="410.5" style="fill:#CB9851;" width="30" height="49.5"/>
</g>
<g>
</g>
<g>
</g>
<g>
</g>
<g>
</g>
<g>
</g>
<g>
</g>
<g>
</g>
<g>
</g>
<g>
</g>
<g>
</g>
<g>
</g>
<g>
</g>
<g>
</g>
<g>
</g>
<g>
</g>
</svg>
