<svg height="464pt" viewBox="-52 0 464 464" width="464pt" xmlns="http://www.w3.org/2000/svg"><path d="m204.050781 24c0 13.253906-10.742187 24-24 24-13.253906 0-24-10.746094-24-24s10.746094-24 24-24c13.257813 0 24 10.746094 24 24zm0 0" fill="#787680"/><path d="m332.050781 152 8 64v144l8 104h-336l8-104v-144l8-64 56-88h192zm0 0" fill="#ff9811"/><path d="m63.253906 104c12.511719-45.871094 60.054688-80 116.796875-80 57.464844 0 105.496094 35.007812 117.25 81.761719zm0 0" fill="#ff9811"/><path d="m124.050781 88c0-35.34375 25.074219-64 56-64 30.929688 0 56 28.65625 56 64s-25.070312 96-56 96c-30.925781 0-56-60.65625-56-96zm0 0" fill="#ffb655"/><path d="m306.613281 110.71875-30.402343 30.402344c-3 3.003906-7.070313 4.691406-11.316407 4.691406-4.25 0-8.320312-1.6875-11.320312-4.691406l-36.242188 36.238281c-4.105469-10.34375-12.296875-18.535156-22.640625-22.640625l36.242188-36.238281c-3.003906-3-4.695313-7.074219-4.695313-11.320313s1.691407-8.320312 4.695313-11.320312l79.199218-79.199219c3-3.003906 7.074219-4.691406 11.320313-4.691406s8.320313 1.6875 11.320313 4.691406l22.640624 22.640625c3.003907 3 4.691407 7.070312 4.691407 11.320312 0 4.246094-1.6875 8.316407-4.691407 11.320313zm0 0" fill="#e0e0e2"/><path d="m339.820312 360.289062-7.304687 7.253907c-3.007813 2.996093-7.085937 4.671875-11.332031 4.65625-4.25-.011719-8.316406-1.714844-11.308594-4.726563l-78.933594-79.472656c-2.996094-3.011719-4.671875-7.089844-4.65625-11.335938.011719-4.246093 1.714844-8.3125 4.726563-11.304687l-36.117188-36.359375c10.355469-4.070312 18.574219-12.238281 22.710938-22.566406l36.117187 36.359375c3.011719-2.996094 7.09375-4.667969 11.339844-4.652344s8.3125 1.714844 11.300781 4.730469l62.273438 62.730468 16.664062 16.796876c2.996094 3.011718 4.671875 7.089843 4.65625 11.335937-.011719 4.246094-1.714843 8.3125-4.726562 11.304687zm0 0" fill="#e0e0e2"/><path d="m345.574219 431.601562 2.476562 32.398438h-336l2.480469-32.398438zm0 0" fill="#806749"/><path d="m20.050781 360.078125-15.359375-15.359375c-3.003906-3-4.691406-7.070312-4.691406-11.320312 0-4.246094 1.6875-8.316407 4.691406-11.320313l16.722656-16.71875 62.480469-62.480469c3-3.003906 7.070313-4.691406 11.316407-4.691406 4.25 0 8.320312 1.6875 11.320312 4.691406l36.242188-36.238281c4.101562 10.34375 12.292968 18.535156 22.640624 22.640625l-36.242187 36.238281c3.003906 3 4.691406 7.074219 4.691406 11.320313s-1.6875 8.320312-4.691406 11.320312l-79.199219 79.199219c-3 3.003906-7.074218 4.691406-11.320312 4.691406s-8.320313-1.6875-11.320313-4.691406zm0 0" fill="#e0e0e2"/><path d="m54.050781 111.28125-49.359375-49.359375c-3.003906-3.003906-4.691406-7.074219-4.691406-11.320313 0-4.25 1.6875-8.320312 4.691406-11.320312l22.640625-22.640625c3-3.003906 7.074219-4.691406 11.320313-4.691406s8.320312 1.6875 11.320312 4.691406l79.199219 79.199219c3.003906 3 4.691406 7.074218 4.691406 11.320312s-1.6875 8.320313-4.691406 11.320313l36.242187 36.238281c-10.347656 4.105469-18.539062 12.296875-22.640624 22.640625l-36.242188-36.238281c-3 3.003906-7.070312 4.691406-11.320312 4.691406-4.246094 0-8.316407-1.6875-11.316407-4.691406zm0 0" fill="#e0e0e2"/><path d="m140.050781 320h80v80h-80zm0 0" fill="#78b9eb"/><path d="m228.050781 192c0 26.507812-21.488281 48-48 48-26.507812 0-48-21.492188-48-48s21.492188-48 48-48c26.511719 0 48 21.492188 48 48zm0 0" fill="#787680"/><g fill="#898890"><path d="m310.160156 333.417969 11.316406-11.3125 11.3125 11.3125-11.3125 11.316406zm0 0"/><path d="m27.316406 333.421875 11.316406-11.3125 11.3125 11.3125-11.3125 11.316406zm0 0"/><path d="m27.3125 50.578125 11.316406-11.3125 11.3125 11.3125-11.3125 11.316406zm0 0"/><path d="m310.15625 50.574219 11.316406-11.3125 11.3125 11.3125-11.3125 11.316406zm0 0"/></g><path d="m180.050781 360h40v40h-40zm0 0" fill="#c2dff6"/><path d="m140.050781 320h40v40h-40zm0 0" fill="#c2dff6"/><path d="m48.050781 160c6.628907 0 12 5.371094 12 12v16c0 6.628906-5.371093 12-12 12-6.625 0-12-5.371094-12-12v-16c0-6.628906 5.375-12 12-12zm0 0" fill="#f4af55"/><path d="m48.050781 216c6.628907 0 12 5.371094 12 12s-5.371093 12-12 12c-6.625 0-12-5.371094-12-12s5.375-12 12-12zm0 0" fill="#f4af55"/><path d="m132.050781 400h96v8h-96zm0 0" fill="#acabb1"/><path d="m172.050781 60c0-11.046875-5.371093-20-12-20-6.625 0-12 8.953125-12 20s5.375 20 12 20c6.628907 0 12-8.953125 12-20zm0 0" fill="#ffc67b"/><path d="m148.050781 96h64v8h-64zm0 0" fill="#ffc67b"/><path d="m196.050781 192c0 8.835938-7.160156 16-16 16-8.835937 0-16-7.164062-16-16s7.164063-16 16-16c8.839844 0 16 7.164062 16 16zm0 0" fill="#c6c5ca"/></svg>