<svg height="511pt" viewBox="0 1 511 511.99898" width="511pt" xmlns="http://www.w3.org/2000/svg"><path d="m501.453125 229.515625h-15.476563l-148.203124-149.414063 24.777343-24.984374c6.839844-6.914063 6.839844-18.046876 0-24.964844l-24.777343-24.980469c-3.273438-3.308594-7.738282-5.171875-12.390626-5.171875-4.65625 0-9.117187 1.863281-12.390624 5.171875l-86.714844 87.394531c-6.835938 6.914063-6.835938 18.046875 0 24.964844l24.78125 24.980469c3.273437 3.3125 7.734375 5.175781 12.390625 5.175781 4.652343 0 9.117187-1.863281 12.386719-5.175781l24.761718-24.945313 111.050782 111.949219h-155.1875v-26.480469c0-4.878906-3.953126-8.828125-8.828126-8.828125h-8.828124l-15.21875-30.429687c-1.492188-2.992188-4.546876-4.878906-7.890626-4.882813h-59.710937c-3.34375.003907-6.398437 1.890625-7.890625 4.882813l-15.21875 30.429687h-8.828125c-4.875 0-8.828125 3.949219-8.828125 8.828125v26.480469h-103.75c-3.972656-.015625-7.640625 2.128906-9.578125 5.59375-1.9414062 3.46875-1.84375 7.714844.246094 11.089844 16.148437 25.582031 36.609375 71.59375 113.082031 71.59375v35.308593c0 19.503907 15.808594 35.3125 35.3125 35.3125h35.308594c0 44.136719-61.792969 88.273438-88.277344 88.273438v17.65625c0 9.75 7.90625 17.65625 17.65625 17.65625h282.484375c9.75 0 17.652344-7.90625 17.652344-17.65625v-17.65625c-26.480469 0-88.273438-44.136719-88.273438-88.273438h35.308594c19.503906 0 35.3125-15.808593 35.3125-35.3125v-35.308593c76.472656 0 96.933594-46.011719 113.082031-71.59375 2.089844-3.375 2.183594-7.621094.246094-11.089844-1.9375-3.464844-5.605469-5.609375-9.578125-5.59375zm0 0" fill="#95a5a5"/><path d="m177.011719 432.550781h158.898437v79.449219h-158.898437zm0 0" fill="#2c2f38"/><path d="m115.21875 229.515625h282.484375v123.585937c0 19.503907-15.808594 35.3125-35.3125 35.3125h-211.859375c-19.503906 0-35.3125-15.808593-35.3125-35.3125zm0 0" fill="#2c3e50"/><path d="m397.703125 229.515625h103.75c3.972656-.015625 7.640625 2.128906 9.578125 5.59375 1.9375 3.46875 1.84375 7.714844-.246094 11.089844-16.148437 25.582031-36.609375 71.59375-113.082031 71.59375zm0 0" fill="#35495e"/><path d="m115.21875 229.515625h-103.75c-3.972656-.015625-7.640625 2.128906-9.578125 5.59375-1.9414062 3.46875-1.84375 7.714844.246094 11.089844 16.148437 25.582031 36.609375 71.59375 113.082031 71.59375zm0 0" fill="#35495e"/><path d="m97.5625 476.6875h97.105469v17.65625c0 9.75-7.90625 17.65625-17.65625 17.65625h-61.792969c-9.75 0-17.65625-7.90625-17.65625-17.65625zm0 0" fill="#2c3e50"/><path d="m397.703125 512h-61.792969c-9.75 0-17.65625-7.90625-17.65625-17.65625v-17.65625h97.101563v17.65625c0 9.75-7.902344 17.65625-17.652344 17.65625zm0 0" fill="#2c3e50"/><path d="m327.082031 388.414062c0 44.136719 61.792969 88.273438 88.273438 88.273438h-97.101563s-8.828125-35.308594-61.792968-35.308594c-52.964844 0-61.792969 35.308594-61.792969 35.308594h-97.105469c26.484375 0 88.277344-44.136719 88.277344-88.273438zm0 0" fill="#35495e"/><path d="m150.53125 300.136719c-4.875 0-8.828125-3.953125-8.828125-8.828125v-26.480469c0-4.875 3.953125-8.828125 8.828125-8.828125h44.136719c4.875 0 8.828125 3.953125 8.828125 8.828125s-3.953125 8.824219-8.828125 8.824219h-35.3125v17.65625c0 4.875-3.949219 8.828125-8.824219 8.828125zm0 0" fill="#3f5c6c"/><path d="m247.632812 273.652344h-17.65625c-4.875 0-8.828124-3.949219-8.828124-8.824219s3.953124-8.828125 8.828124-8.828125h17.65625c4.875 0 8.828126 3.953125 8.828126 8.828125s-3.953126 8.824219-8.828126 8.824219zm0 0" fill="#3f5c6c"/><path d="m124.046875 194.207031h123.585937c4.875 0 8.828126 3.949219 8.828126 8.828125v26.480469h-141.242188v-26.480469c0-4.878906 3.953125-8.828125 8.828125-8.828125zm0 0" fill="#b19046"/><path d="m215.695312 158.894531h-59.710937c-3.34375.003907-6.398437 1.890625-7.890625 4.882813l-15.21875 30.429687h105.929688l-15.21875-30.429687c-1.492188-2.992188-4.546876-4.878906-7.890626-4.882813zm0 0" fill="#e4c05c"/><path d="m362.550781 55.117188-86.714843 87.394531c-3.269532 3.3125-7.734376 5.175781-12.386719 5.175781-4.65625 0-9.117188-1.863281-12.390625-5.175781l-24.78125-24.980469c-6.835938-6.917969-6.835938-18.050781 0-24.964844l86.714844-87.394531c3.273437-3.308594 7.734374-5.171875 12.390624-5.171875 4.652344 0 9.117188 1.863281 12.390626 5.171875l24.777343 24.980469c6.839844 6.917968 6.839844 18.050781 0 24.964844zm0 0" fill="#95a5a5"/><path d="m337.773438 80.101562-37.164063 37.464844 111.039063 111.949219h74.328124zm0 0" fill="#7f5b53"/><g fill="#f0c419"><path d="m177.011719 132.414062h-17.65625c-4.875 0-8.824219-3.953124-8.824219-8.828124s3.949219-8.828126 8.824219-8.828126h17.65625c4.875 0 8.828125 3.953126 8.828125 8.828126s-3.953125 8.828124-8.828125 8.828124zm0 0"/><path d="m185.839844 97.101562c-2.339844 0-4.585938-.929687-6.242188-2.585937l-8.828125-8.828125c-3.34375-3.464844-3.296875-8.96875.109375-12.375 3.40625-3.402344 8.910156-3.453125 12.375-.105469l8.828125 8.828125c2.523438 2.523438 3.277344 6.320313 1.910157 9.617188-1.363282 3.296875-4.582032 5.449218-8.152344 5.449218zm0 0"/></g></svg>